<?xml version="1.0" encoding="UTF-8" standalone="no"?>
<svg height="48" width="48" xmlns="http://www.w3.org/2000/svg" xmlns:xlink="http://www.w3.org/1999/xlink">
  <defs>
    <radialGradient id="a" cx="27" cy="13.000001" gradientUnits="userSpaceOnUse" r="2">
      <stop offset="0" stop-color="#536161"/>
      <stop offset="1" stop-color="#334545"/>
    </radialGradient>
    <radialGradient id="b" cx="27" cy="13.000001" gradientUnits="userSpaceOnUse" r="3">
      <stop offset="0" stop-color="#aeaeae"/>
      <stop offset="1" stop-color="#f2f2f2"/>
    </radialGradient>
    <linearGradient id="c" gradientUnits="userSpaceOnUse" x1="32" x2="11" y1="43" y2="4">
      <stop offset="0" stop-color="#ffa92d"/>
      <stop offset="1" stop-color="#ffe569"/>
    </linearGradient>
    <linearGradient id="d" gradientUnits="userSpaceOnUse" x1="25" x2="32" y1="11" y2="18">
      <stop offset="0"/>
      <stop offset="1" stop-opacity="0"/>
    </linearGradient>
  </defs>
  <g>
    <path d="m42.993132 32.731965a20 20 0 0 1 -22.015691 10.859334 20 20 0 0 1 -15.9555469-18.655732 20 20 0 0 1 14.1422599-20.065201 20 20 0 0 1 22.934192 8.754348l-17.098346 10.375286z" fill="url(#c)"/>
    <path d="m26.953534 10.93528-.923094.883826-1.293281 3.117271 5.739403 5.739404 5.25586-3.1875-6.752973-6.752973z" fill="url(#d)" opacity=".2"/>
    <rect fill="url(#b)" height="6" rx="3" width="6" x="24" y="10"/>
    <rect fill="url(#a)" height="4" rx="2" width="4" x="25" y="11"/>
    <path d="m5.0234375 23.982422c-.00822.317648-.00887.635446-.00195.953125.4275117 9.135152 6.9968556 16.816677 15.9550776 18.65625 8.958216 1.839298 18.022907-2.63193 22.015626-10.859375l-.4335971-.210938c-4.193436 7.741048-12.955693 11.829572-21.582032 10.070313-8.941217-1.835939-15.5050045-9.49262-15.9531245-18.609375z" opacity=".15"/>
  </g>
</svg>
