<svg viewBox="0 0 100 224" xmlns="http://www.w3.org/2000/svg"><path d="m64.192633 210.29495c2.142379-2.28046 2.143037-2.29495.104126-2.29495-1.128528 0-2.609322-.67169-3.290652-1.49264-1.034254-1.2462-.394051-2.25213 3.877555-6.09267 2.813986-2.53002 5.116338-5.23333 5.116338-6.00736 0-1.73733.035884-1.7381-4.345757.09267-3.965474 1.65688-9.236719 1.98458-10.076115.62641-.79316-1.28336 10.256488-4.12641 16.037476-4.12641 4.558099 0 7.384396 1.21145 7.384396 3.1652 0 .42087-1.348981 2.30161-2.997735 4.17944-2.604963 2.96689-2.801497 3.57709-1.5 4.65724.823754.68366 1.497735 1.60491 1.497735 2.04724s-3.141757 2.31995-6.981681 4.17251c-6.174812 2.979-6.732514 3.10305-4.825686 1.07332zm-8.992873.44575c-2.480562-2.9889-5.15707-10.47943-5.177798-14.4907-.025548-4.94387 1.329466-5.54925 2.824107-1.26172.572945 1.64355 2.416614 4.98662 4.097041 7.42903 3.831734 5.56924 4.362998 8.9598 1.469385 9.37771-1.148128.16582-2.593859-.30862-3.212735-1.05432zm-35.628331-2.31213c-2.407668-2.40767-1.973571-3.79135 3.428571-10.92857 2.75-3.63325 5-6.93343 5-7.33372s-1.35-1.23737-3-1.86018c-3.421416-1.29144-4.006516-3.3061-.960162-3.3061 1.121911 0 3.709411-.84507 5.75-1.87794 2.649535-1.34109 4.371737-1.62938 6.024407-1.00846 2.506544.94173 2.510463.92679-1.984423 7.56658-1.556402 2.29909-2.829822 4.38484-2.829822 4.63499 0 .25014 1.206505 1.24534 2.681123 2.21155 2.647696 1.73484 2.709972 1.72069 4.995033-1.13499l2.31391-2.89173-.010346 6c-.015587 9.03964-1.104154 9.89474-6.046935 4.75-2.245741-2.3375-4.435618-4.25-4.866395-4.25-.430776 0-2.426538 2.475-4.435025 5.5s-3.840055 5.5-4.070151 5.5-1.1255-.70714-1.989785-1.57143zm21.428571-21.19735-3.5-1.73122 3-.31847c1.65-.17515 5.400551-1.00565 8.334559-1.84554l5.334558-1.52707-2.334558-2.48585-2.334559-2.48585 2.655716.66614c2.158698.54146 2.784024.26186 3.341306-1.49398.960774-3.02713.166812-3.42116-4.504435-2.23547-3.561474.904-3.923053.84723-2.848726-.44725.676781-.81547 3.340122-2.5517 5.918535-3.85828s4.969179-3.10828 5.312814-4.00378c1.242323-3.23744.66027-4.4644-2.12521-4.47991-2.75737-.01536-6.10422-1.49615-5.22104-2.31002 1.44569-1.33223 11.175845-5.67234 12.687796-5.65936 4.042439.03472 4.705265 1.47586 2.821838 6.13537-.966924 2.39213-1.981812 4.91182-2.255307 5.59932-.337792.84912.579322 1.25438 2.859724 1.26365 9.069745.0369 10.33822 2.42409 4.597436 8.65211l-4.227342 4.58612 7.296656-.73278c6.202651-.6229 7.585006-.47182 9.219866 1.00771 2.873037 2.60006 1.529294 3.47319-5.345246 3.47319-3.408672 0-7.665797.42108-9.460278.93573-2.302296.66029-3.06538.61647-2.592378-.14887 1.393364-2.25451-11.067043.38357-21.631725 4.57979-.825.32769-3.075-.18326-5-1.13543zm24.73355-11.8334c2.737892-4.77796 2.836356-6.39782.388895-6.39782-2.211153 0-3.448488 1.39595-4.87507 5.5-.573545 1.65-1.363462 3.79136-1.75537 4.75857-1.420493 3.50572 3.909621.20874 6.241545-3.86075zm-37.963574 5.37934c1.075073-1.29538.787369-1.61569-1.941435-2.16145-3.723861-.74477-3.053634-1.64822 2.941695-3.96533 4.980567-1.92491 9.572014-2.17713 9.011307-.49501-.211819.63546-2.835048 2.72749-5.829399 4.64896-2.99435 1.92146-4.876326 2.80924-4.182168 1.97283zm-11.269976-9.74011c-2.380062-.97866-2.911386-.75345 11.577761-4.90735 10.430839-2.99042 14.922239-3.16329 14.922239-.57434 0 .8235-1.791326 1.55604-4.75 1.94243-2.6125.34119-7.271202 1.49376-10.352671 2.56128-6.008478 2.08151-8.246528 2.27356-11.397329.97798zm12.775228-11.74816c1.912118-2.15651 1.31997-3.17003-2.775228-4.75008-1.859886-.7176-1.812551-.83766.675674-1.71379 2.891215-1.01803 10.249386.43569 11.368194 2.24596.983524 1.59137-1.534417 3.92902-4.232054 3.92902-1.343813 0-3.426213.51548-4.627555 1.14551-2.124611 1.11423-2.135781 1.09083-.409031-.85662zm19.758425-20.46553c-1.114397-1.82785-2.027859-5.06596-2.029915-7.1958-.003415-3.53744-.155131-3.75521-1.753738-2.51724-1.666667 1.29068-1.666667 1.25705 0-.70629 2.74068-3.22854 2.155877-4.40403-2.190983-4.40403-5.694439 0-5.863795-1.65706-.328679-3.21597l4.769662-1.34332.297717-6.22036c.385371-8.05173-.959282-8.13784-9.118389-.58395-6.267391 5.8025-9.616224 7.65771-15.679328 8.68613l-3.5.59367 2.995237-2.2081c5.32496-3.92558 17.950411-16.48393 19.902778-19.796992l1.898016-3.220832-3.407991.553041c-3.629037.588911-10.598887-1.611206-7.88804-2.489955.825-.267433 4.425-1.357063 8-2.421401l6.5-1.93516.301107-4.608202c.165609-2.534511-.373929-6.223791-1.198973-8.1984-1.664454-3.983599-1.150121-4.263829 3.929985-2.141226 3.567886 1.490758 3.799268 2.074537 3.488304 8.801027l-.173361 3.75h4.954024c3.166119 0 5.39976.537079 6.189093 1.488167 1.500698 1.80823.467119 2.327948-6.640089 3.338858l-4.85009.689863-.293665 5.532461-.293665 5.532461 6.293665 1.29255c12.050547 2.47485 25.793665 9.30868 25.793665 12.82603 0 1.28496-.738569 1.42013-4.25.77782-2.3375-.42757-6.5-1.09673-9.25-1.48701s-4.2125-.77296-3.25-.8504c3.333385-.26819 1.721494-2.05205-4.5-4.98009-10.855386-5.10891-10.75-5.11752-10.75.87889 0 4.37751.251677 5.0778 1.634243 4.54726 2.129393-.81712 8.365757.3606 8.365757 1.57985 0 .51927-2.29648 1.8985-5.10329 3.06496l-5.103289 2.12083.353289 8.48157c.401564 9.64052-.810728 11.40581-4.113057 5.98929zm-14.157904-88.066913c-2.1043-4.124769-2.130916-4.631436-.950839-18.100727.667734-7.621445 1.56818-14.814447 2.000991-15.984448.736851-1.991897.899027-1.910504 2.548365 1.278964 1.525303 2.94961 1.666847 4.991026 1.055853 15.228002-.38807 6.501969-.328603 11.814925.132149 11.806568 1.196414-.021699 8.337732-9.966885 8.337732-11.611342 0-.755405-1.0125-1.380355-2.25-1.388777s-2.909888-.432668-3.716417-.94277c-1.125881-.71208-.313099-1.422244 3.5-3.058109 2.731529-1.171858 6.203917-2.378862 7.716417-2.68223 2.357927-.472938 2.75-.226139 2.75 1.731051 0 2.301014-5.739844 10.495436-10.453227 14.92343-3.414913 3.208144-3.207464 4.093813.696625 2.974135 1.783869-.511607 5.209936-.930194 7.613482-.930194h4.370084l-.383657-13.970175c-.255114-9.289488-.79748-14.383998-1.61877-15.205288-.980151-.980151-2.317771-.877327-6.479825.498109-3.72456 1.230856-6.114246 1.48193-8.244712.866236-2.937433-.848904-2.874866-.905733 3-2.724849 8.298616-2.569616 15.876583-2.554776 18.366975.035967 1.733983 1.803855 1.957371 3.903518 2.277778 21.409246.242287 13.237562.013718 19.525449-.718823 19.77469-.590739.200994-2.759122-.778063-4.81863-2.175682l-3.744559-2.541127-4.68137 2.215395c-2.574754 1.218467-5.097139 2.414453-5.605301 2.657746-.508161.243294.616839-1.006934 2.5-2.778283l3.42393-3.220635-4 .676854c-2.2.372271-4.762918.729395-5.695374.793611s-1.95353 1.145328-2.269052 2.402471c-.84849 3.380652-2.233121 2.798895-4.659825-1.957839z"/></svg>