<svg width="450" height="400" version="1.0" xmlns="http://www.w3.org/2000/svg" xmlns:xlink="http://www.w3.org/1999/xlink">
<defs>
<radialGradient id="radGrad" cx="248" cy="594" fx="239" fy="601" r="70" gradientTransform="matrix(0.932944,0,0,1.50138,-9,-645)" gradientUnits="userSpaceOnUse">
<stop stop-color="#F60"/>
<stop offset="1" stop-color="#F60" stop-opacity="0"/>
</radialGradient>
</defs>
<path d="M379.93 61.9c30.9 118.56 9.83 247.05-47.23 282.99-55.04 17.21-166.37 15.39-223.88 5.91C66.24 313.43 44.03 185.87 57.1 95.01 146.5 14.14 264.18 47.55 379.93 61.9" fill="#FFF"/>
<path d="M146.86 51.25c-51.09 127.53-1.47 283.14 84.55 279.78 50.69-2 118.57-85.65 69.92-281.51L146.86 51.25" fill="#2B1100"/>
<path d="M162.56 48.39c-35.37 104.3-4.07 257.65 60.23 258.34 77.77.83 86-154.28 58.58-257.21L162.56 48.39" fill="#520"/>
<path d="M181.28 49.72c-29.67 68.24-7.08 211.3 42.92 209.87 37.16-1.09 64.12-117.23 31.53-210.06l-74.46.19" fill="#2B1100"/>
<path d="M245.04 26.91C351.59 37.99 432.79 74.83 432.79 74.83l-35.75-1.25 21.39 29.91C348.21 54.94 303.36 53.85 224.17 52.55 155.39 51.42 97.34 68.74 63.33 101.03c-4.62 14.45-7 45.72-10.69 58.52L22.28 76.76c0 0 104.21-62.18 222.76-49.85M104.53 349.79c83.18 8.81 155.65 11.21 232.32-5.66 0 0-54.66 23.39-112.74 24.3-58.08.92-119.58-18.64-119.58-18.64"/>
<path d="M221.47 42.97c-23.62 5.41-47 3.44-70.66 5.09-31.86 6.5-61.99 19.69-89.53 43.28l-7.81 50.19c-.18 8.73-.1 17.58.22 26.47 12.61-67.24 310.99-87.72 340.09-13.19-1.21-28.84-5.34-58.71-12.62-88.06L249.91 44.69c-9.56-.83-19.04-1.42-28.44-1.72" opacity=".2"/>
<path d="M166.79 196.39c-.86 72.12 30.77 100.17 61.54 98.67 25.03-1.21 47.47-37.93 49.46-100.61-10.72 46.5-26.93 79.36-54.33 82.45-28.6 3.24-48.22-38.95-56.67-80.51" fill="url(#radGrad)"/>
<path d="M217.81 39.03c-30.27 1.72-36.48 67.74-35.17 106.45 1.56 45.96 15.63 91.79 37.29 91.18 21.62-.58 32.75-47.81 33.52-93.98.69-41.82-14.49-104.84-35.64-103.65"/>
<g fill="#FFF">
<path d="M126.58 241.04c36.33 9.14 79.06 9.14 79.06 9.14 0 0-51.28 20.11-79.06 16.46"/>
<circle cx="272.07" cy="108.88" r="17.86"/>
</g>
</svg>