<?xml version="1.0" encoding="UTF-8" standalone="no"?>
<!-- Created with Inkscape (http://www.inkscape.org/) -->
<svg
   width="1056"
   height="323"
   viewBox="0 0 279.40001 85.460455"
   version="1.1"
   id="svg8"
   style="background-color:white"
   sodipodi:docname="PhoenicianAlphabet.svg"
   inkscape:version="1.3.2 (091e20e, 2023-11-25, custom)"
   inkscape:export-filename="bitmap.png"
   inkscape:export-xdpi="96"
   inkscape:export-ydpi="96"
   xmlns:inkscape="http://www.inkscape.org/namespaces/inkscape"
   xmlns:sodipodi="http://sodipodi.sourceforge.net/DTD/sodipodi-0.dtd"
   xmlns="http://www.w3.org/2000/svg"
   xmlns:svg="http://www.w3.org/2000/svg"
   xmlns:rdf="http://www.w3.org/1999/02/22-rdf-syntax-ns#"
   xmlns:cc="http://creativecommons.org/ns#"
   xmlns:dc="http://purl.org/dc/elements/1.1/">
  <title
     id="title1031">Phoenician Alphabet</title>
  <defs
     id="defs2" />
  <sodipodi:namedview
     id="base"
     pagecolor="#ffffff"
     bordercolor="#666666"
     borderopacity="1.0"
     inkscape:pageopacity="1"
     inkscape:pageshadow="2"
     inkscape:zoom="0.92708405"
     inkscape:cx="728.62865"
     inkscape:cy="173.12346"
     inkscape:document-units="in"
     inkscape:current-layer="layer1"
     showgrid="false"
     units="px"
     showguides="false"
     inkscape:guide-bbox="true"
     inkscape:window-width="1920"
     inkscape:window-height="1001"
     inkscape:window-x="-9"
     inkscape:window-y="-9"
     inkscape:window-maximized="1"
     height="4in"
     inkscape:pagecheckerboard="true"
     inkscape:measure-start="0,0"
     inkscape:measure-end="0,0"
     inkscape:showpageshadow="true"
     inkscape:deskcolor="#d1d1d1">
    <sodipodi:guide
       position="266.735,25.551796"
       orientation="0,1"
       id="guide121"
       inkscape:locked="false" />
    <sodipodi:guide
       position="266.735,50.808773"
       orientation="0,1"
       id="guide332"
       inkscape:locked="false" />
    <sodipodi:guide
       position="266.73499,0.16117683"
       orientation="0,1"
       id="guide1061"
       inkscape:locked="false" />
    <sodipodi:guide
       position="266.66221,-3.2128076"
       orientation="1,0"
       id="guide1033"
       inkscape:locked="false" />
    <sodipodi:guide
       position="241.33781,-3.2128076"
       orientation="1,0"
       id="guide1035"
       inkscape:locked="false" />
    <sodipodi:guide
       position="215.8244,-3.2128076"
       orientation="1,0"
       id="guide1037"
       inkscape:locked="false" />
    <sodipodi:guide
       position="190.5,-3.2128076"
       orientation="1,0"
       id="guide1039"
       inkscape:locked="false" />
    <sodipodi:guide
       position="164.9866,-3.2128076"
       orientation="1,0"
       id="guide1041"
       inkscape:locked="false" />
    <sodipodi:guide
       position="139.6622,-3.2128076"
       orientation="1,0"
       id="guide1043"
       inkscape:locked="false" />
    <sodipodi:guide
       position="114.3378,-3.2128086"
       orientation="1,0"
       id="guide1045"
       inkscape:locked="false" />
    <sodipodi:guide
       position="88.824418,-3.2128076"
       orientation="1,0"
       id="guide1047"
       inkscape:locked="false" />
    <sodipodi:guide
       position="63.50001,-3.2128076"
       orientation="1,0"
       id="guide1049"
       inkscape:locked="false" />
    <sodipodi:guide
       position="37.986614,-3.2128076"
       orientation="1,0"
       id="guide1051"
       inkscape:locked="false" />
    <sodipodi:guide
       position="12.662202,-3.2128086"
       orientation="1,0"
       id="guide1053"
       inkscape:locked="false" />
  </sodipodi:namedview>
  <metadata
     id="metadata5">
    <rdf:RDF>
      <cc:Work
         rdf:about="">
        <dc:format>image/svg+xml</dc:format>
        <dc:type
           rdf:resource="http://purl.org/dc/dcmitype/StillImage" />
        <dc:title>Paleo-Hebrew</dc:title>
        <dc:date>2021-06-16</dc:date>
        <dc:rights>
          <cc:Agent>
            <dc:title>Creative Commons' Public Domain</dc:title>
          </cc:Agent>
        </dc:rights>
        <dc:description>The Paleo-Hebrew is a constructivist idealization of the Paleo-Hebrew alphabet or abjad, i.e. a script consisting only of consonants.</dc:description>
        <cc:license
           rdf:resource="http://creativecommons.org/licenses/by/4.0/" />
      </cc:Work>
      <cc:License
         rdf:about="http://creativecommons.org/licenses/by/4.0/">
        <cc:permits
           rdf:resource="http://creativecommons.org/ns#Reproduction" />
        <cc:permits
           rdf:resource="http://creativecommons.org/ns#Distribution" />
        <cc:requires
           rdf:resource="http://creativecommons.org/ns#Notice" />
        <cc:requires
           rdf:resource="http://creativecommons.org/ns#Attribution" />
        <cc:permits
           rdf:resource="http://creativecommons.org/ns#DerivativeWorks" />
      </cc:License>
    </rdf:RDF>
  </metadata>
  <g
     inkscape:label="Layer 1"
     inkscape:groupmode="layer"
     id="layer1"
     transform="translate(0,-195.39999)">
    <g
       id="g330"
       transform="matrix(1.0908115,0,0,1.0908115,-12.468137,-30.376724)">
      <flowRoot
         transform="matrix(0.26458334,0,0,0.26458334,0,61.581093)"
         style="font-style:normal;font-weight:normal;font-size:40px;line-height:1.25;font-family:sans-serif;letter-spacing:0px;word-spacing:0px;fill:#000000;fill-opacity:1;stroke:none"
         id="flowRoot99"
         xml:space="preserve"><flowRegion
           id="flowRegion101"><rect
             y="553.70081"
             x="912.14288"
             height="95.714287"
             width="95.714264"
             id="rect103" /></flowRegion><flowPara
           id="flowPara105" /></flowRoot>
      <flowRoot
         transform="matrix(0.26458334,0,0,0.26458334,0,61.581093)"
         style="font-style:normal;font-variant:normal;font-weight:normal;font-stretch:normal;font-size:96px;line-height:1.25;font-family:PaleoHebrewAbjad;-inkscape-font-specification:'PaleoHebrewAbjad, Normal';font-variant-ligatures:normal;font-variant-caps:normal;font-variant-numeric:normal;font-feature-settings:normal;text-align:start;letter-spacing:0px;word-spacing:0px;writing-mode:lr-tb;text-anchor:start;fill:#000000;fill-opacity:1;stroke:none"
         id="flowRoot125"
         xml:space="preserve"><flowRegion
           style="font-style:normal;font-variant:normal;font-weight:normal;font-stretch:normal;font-size:96px;font-family:PaleoHebrewAbjad;-inkscape-font-specification:'PaleoHebrewAbjad, Normal';font-variant-ligatures:normal;font-variant-caps:normal;font-variant-numeric:normal;font-feature-settings:normal;text-align:start;writing-mode:lr-tb;text-anchor:start"
           id="flowRegion127"><rect
             style="font-style:normal;font-variant:normal;font-weight:normal;font-stretch:normal;font-size:96px;font-family:PaleoHebrewAbjad;-inkscape-font-specification:'PaleoHebrewAbjad, Normal';font-variant-ligatures:normal;font-variant-caps:normal;font-variant-numeric:normal;font-feature-settings:normal;text-align:start;writing-mode:lr-tb;text-anchor:start"
             y="553.70081"
             x="815.71429"
             height="95.674446"
             width="96.428596"
             id="rect129" /></flowRegion><flowPara
           id="flowPara131">b</flowPara></flowRoot>
      <flowRoot
         transform="matrix(0.26458334,0,0,0.26458334,0,61.581093)"
         style="font-style:normal;font-weight:normal;font-size:40px;line-height:1.25;font-family:sans-serif;letter-spacing:0px;word-spacing:0px;fill:#000000;fill-opacity:1;stroke:none"
         id="flowRoot133"
         xml:space="preserve"><flowRegion
           id="flowRegion135"><rect
             y="553.70081"
             x="815.71429"
             height="95.674446"
             width="96.428596"
             id="rect137" /></flowRegion><flowPara
           style="font-style:normal;font-variant:normal;font-weight:normal;font-stretch:normal;font-size:96px;font-family:PaleoHebrewAbjad;-inkscape-font-specification:'PaleoHebrewAbjad, Normal';font-variant-ligatures:normal;font-variant-caps:normal;font-variant-numeric:normal;font-feature-settings:normal;text-align:start;writing-mode:lr-tb;text-anchor:start"
           id="flowPara139">bb-</flowPara></flowRoot>
      <path
         inkscape:connector-curvature="0"
         id="path239"
         d="M 12.662203,208.08111 H 266.66222"
         style="fill:none;stroke:#000000;stroke-width:0.264583px;stroke-linecap:butt;stroke-linejoin:miter;stroke-opacity:1" />
      <path
         inkscape:connector-curvature="0"
         id="path241"
         d="M 12.662203,258.81387 H 266.66222"
         style="fill:none;stroke:#000000;stroke-width:0.264583px;stroke-linecap:butt;stroke-linejoin:miter;stroke-opacity:1" />
      <path
         inkscape:connector-curvature="0"
         id="path243"
         d="M 12.662203,284.3378 H 266.66222"
         style="fill:none;stroke:#000000;stroke-width:0.264583px;stroke-linecap:butt;stroke-linejoin:miter;stroke-opacity:1" />
      <path
         inkscape:connector-curvature="0"
         id="path249"
         d="M 12.662203,208.08111 V 284.3378"
         style="fill:none;stroke:#000000;stroke-width:0.264583px;stroke-linecap:butt;stroke-linejoin:miter;stroke-opacity:1" />
      <path
         inkscape:connector-curvature="0"
         id="path251"
         d="M 37.986608,208.08111 V 284.3378"
         style="fill:none;stroke:#000000;stroke-width:0.264583px;stroke-linecap:butt;stroke-linejoin:miter;stroke-opacity:1" />
      <path
         inkscape:connector-curvature="0"
         id="path253"
         d="M 63.500004,208.08111 V 284.3378"
         style="fill:none;stroke:#000000;stroke-width:0.264583px;stroke-linecap:butt;stroke-linejoin:miter;stroke-opacity:1" />
      <path
         inkscape:connector-curvature="0"
         id="path255"
         d="M 88.824411,208.08111 V 284.3378"
         style="fill:none;stroke:#000000;stroke-width:0.264583px;stroke-linecap:butt;stroke-linejoin:miter;stroke-opacity:1" />
      <path
         inkscape:connector-curvature="0"
         id="path257"
         d="M 114.3378,208.08111 V 284.3378"
         style="fill:none;stroke:#000000;stroke-width:0.264583px;stroke-linecap:butt;stroke-linejoin:miter;stroke-opacity:1" />
      <path
         inkscape:connector-curvature="0"
         id="path259"
         d="M 139.66221,208.08111 V 284.3378"
         style="fill:none;stroke:#000000;stroke-width:0.264583px;stroke-linecap:butt;stroke-linejoin:miter;stroke-opacity:1" />
      <path
         inkscape:connector-curvature="0"
         id="path261"
         d="M 164.98661,208.08111 V 284.3378"
         style="fill:none;stroke:#000000;stroke-width:0.264583px;stroke-linecap:butt;stroke-linejoin:miter;stroke-opacity:1" />
      <path
         inkscape:connector-curvature="0"
         id="path263"
         d="M 190.50001,208.08111 V 284.3378"
         style="fill:none;stroke:#000000;stroke-width:0.264583px;stroke-linecap:butt;stroke-linejoin:miter;stroke-opacity:1" />
      <path
         inkscape:connector-curvature="0"
         id="path265"
         d="M 215.82441,208.08111 V 284.3378"
         style="fill:none;stroke:#000000;stroke-width:0.264583px;stroke-linecap:butt;stroke-linejoin:miter;stroke-opacity:1" />
      <path
         inkscape:connector-curvature="0"
         id="path267"
         d="M 241.33782,208.08111 V 284.3378"
         style="fill:none;stroke:#000000;stroke-width:0.264583px;stroke-linecap:butt;stroke-linejoin:miter;stroke-opacity:1" />
      <path
         inkscape:connector-curvature="0"
         id="path269"
         d="M 266.66222,208.08111 V 284.3378"
         style="fill:none;stroke:#000000;stroke-width:0.264583px;stroke-linecap:butt;stroke-linejoin:miter;stroke-opacity:1" />
      <path
         inkscape:connector-curvature="0"
         id="path301"
         d="M 12.662203,233.50001 H 266.66222"
         style="fill:none;stroke:#000000;stroke-width:0.264583px;stroke-linecap:butt;stroke-linejoin:miter;stroke-opacity:1" />
    </g>
    <text
       xml:space="preserve"
       style="font-style:normal;font-variant:normal;font-weight:normal;font-stretch:normal;font-size:30.7851px;line-height:1.25;font-family:PaleoHebrewAbjad;-inkscape-font-specification:'PaleoHebrewAbjad, Normal';font-variant-ligatures:normal;font-variant-caps:normal;font-variant-numeric:normal;font-feature-settings:normal;text-align:start;letter-spacing:0px;word-spacing:0px;writing-mode:lr-tb;text-anchor:start;fill:#000000;fill-opacity:1;stroke:none;stroke-width:0.28861"
       x="253.2597"
       y="276.13828"
       id="text1065"><tspan
         sodipodi:role="line"
         id="tspan1063"
         x="253.2597"
         y="276.13828"
         style="stroke-width:0.28861" /></text>
    <g
       aria-label=")"
       style="font-style:normal;font-variant:normal;font-weight:normal;font-stretch:normal;font-size:28.2222px;line-height:1.25;font-family:PaleoHebrewAbjad;-inkscape-font-specification:'PaleoHebrewAbjad, Normal';font-variant-ligatures:normal;font-variant-caps:normal;font-variant-numeric:normal;font-feature-settings:normal;text-align:start;letter-spacing:0px;word-spacing:0px;writing-mode:lr-tb;text-anchor:start;fill:#000000;fill-opacity:1;stroke:none;stroke-width:0.264583"
       id="text1059"
       transform="matrix(1.0908115,0,0,1.0908115,-12.468137,-30.376724)">
      <path
         d="m 254.00002,211.97179 h 2.96333 v 2.59645 l 4.71311,-2.59645 1.43934,2.62467 -6.15245,3.33022 v 6.43467 l 6.15245,3.35844 -1.41112,2.59645 -4.74133,-2.59645 v 2.59645 h -2.96333 v -4.20511 q -1.524,-0.81845 -4.54378,-2.48356 -3.048,-1.66511 -4.572,-2.48355 1.524,-0.81845 4.572,-2.48356 3.01978,-1.66511 4.54378,-2.48355 z m 0,7.59178 -2.93511,1.58045 2.93511,1.58044 z"
         style="stroke-width:0.264583"
         id="path1230" />
    </g>
    <g
       aria-label="b"
       style="font-style:normal;font-variant:normal;font-weight:normal;font-stretch:normal;font-size:28.2222px;line-height:1.25;font-family:PaleoHebrewAbjad;-inkscape-font-specification:'PaleoHebrewAbjad, Normal';font-variant-ligatures:normal;font-variant-caps:normal;font-variant-numeric:normal;font-feature-settings:normal;text-align:start;letter-spacing:0px;word-spacing:0px;writing-mode:lr-tb;text-anchor:start;fill:#000000;fill-opacity:1;stroke:none;stroke-width:0.264583"
       id="text1063"
       transform="matrix(1.0908115,0,0,1.0908115,-12.468137,-30.376724)">
      <path
         d="m 231.56284,216.31802 -2.93511,1.58044 2.93511,1.60867 z m 2.96333,-4.99534 q 0,0 0,18.99356 h -11.40178 v -2.96333 h 8.43845 v -4.48734 q -1.524,-0.84666 -4.54378,-2.48355 -3.048,-1.66511 -4.572,-2.48356 3.49956,-1.89089 12.07911,-6.57578 z"
         style="stroke-width:0.264583"
         id="path1227" />
    </g>
    <g
       aria-label="g"
       style="font-style:normal;font-variant:normal;font-weight:normal;font-stretch:normal;font-size:28.2222px;line-height:1.25;font-family:PaleoHebrewAbjad;-inkscape-font-specification:'PaleoHebrewAbjad, Normal';font-variant-ligatures:normal;font-variant-caps:normal;font-variant-numeric:normal;font-feature-settings:normal;text-align:start;letter-spacing:0px;word-spacing:0px;writing-mode:lr-tb;text-anchor:start;fill:#000000;fill-opacity:1;stroke:none;stroke-width:0.264583"
       id="text1067"
       transform="matrix(1.0908115,0,0,1.0908115,-12.468137,-30.376724)">
      <path
         d="m 204.7991,211.97179 9.87778,17.66712 -2.59645,1.43933 -9.03111,-16.14311 h -11.40177 v -2.96334 z"
         style="stroke-width:0.264583"
         id="path1224" />
    </g>
    <g
       aria-label="r"
       style="font-style:normal;font-variant:normal;font-weight:normal;font-stretch:normal;font-size:28.2222px;line-height:1.25;font-family:PaleoHebrewAbjad;-inkscape-font-specification:'PaleoHebrewAbjad, Normal';font-variant-ligatures:normal;font-variant-caps:normal;font-variant-numeric:normal;font-feature-settings:normal;text-align:start;letter-spacing:0px;word-spacing:0px;writing-mode:lr-tb;text-anchor:start;fill:#000000;fill-opacity:1;stroke:none;stroke-width:0.264583"
       id="text1071"
       transform="matrix(1.0908115,0,0,1.0908115,-180.79403,-2.8368901)">
      <path
         d="m 183.68836,211.32268 q 0,0 0,18.99356 h -2.96334 q 0,0 0,-7.45067 -1.524,-0.84666 -4.54377,-2.48355 -3.048,-1.66511 -4.572,-2.48356 3.49955,-1.89089 12.07911,-6.57578 z m -2.96334,4.99534 -2.93511,1.58044 2.93511,1.60867 z"
         style="stroke-width:0.264583"
         id="path1221" />
    </g>
    <g
       aria-label="h"
       style="font-style:normal;font-variant:normal;font-weight:normal;font-stretch:normal;font-size:28.2222px;line-height:1.25;font-family:PaleoHebrewAbjad;-inkscape-font-specification:'PaleoHebrewAbjad, Normal';font-variant-ligatures:normal;font-variant-caps:normal;font-variant-numeric:normal;font-feature-settings:normal;text-align:start;letter-spacing:0px;word-spacing:0px;writing-mode:lr-tb;text-anchor:start;fill:#000000;fill-opacity:1;stroke:none;stroke-width:0.264583"
       id="text1076"
       transform="matrix(1.0908115,0,0,1.0908115,-12.468137,-30.376724)">
      <path
         d="m 146.31309,211.97179 q 0,0 12.02266,0 v 18.34445 h -2.96333 v -3.58422 h -9.05933 v -2.96334 h 9.05933 v -2.93511 h -9.05933 v -2.96333 h 9.05933 v -2.93511 h -9.05933 z"
         style="stroke-width:0.264583"
         id="path1218" />
    </g>
    <g
       aria-label="w"
       style="font-style:normal;font-variant:normal;font-weight:normal;font-stretch:normal;font-size:28.2222px;line-height:1.25;font-family:PaleoHebrewAbjad;-inkscape-font-specification:'PaleoHebrewAbjad, Normal';font-variant-ligatures:normal;font-variant-caps:normal;font-variant-numeric:normal;font-feature-settings:normal;text-align:start;letter-spacing:0px;word-spacing:0px;writing-mode:lr-tb;text-anchor:start;fill:#000000;fill-opacity:1;stroke:none;stroke-width:0.264583"
       id="text1080"
       transform="matrix(1.0908115,0,0,1.0908115,-12.468137,-30.376724)">
      <path
         d="m 133.20889,211.97179 q 0,0 0,18.34445 h -2.96334 v -10.668 q -1.55222,1.35467 -3.24555,1.35467 -2.54,0 -4.37445,-2.62467 -1.83444,-2.65289 -1.83444,-6.40645 h 2.96333 q 0,2.25778 0.93133,4.20512 0.93134,1.55222 1.86267,1.80622 0.22578,0.0564 0.45156,0.0564 1.18533,0 2.22955,-1.69333 0.0847,-0.11289 0.11289,-0.16933 0.84667,-1.72156 0.90311,-4.20512 z"
         style="stroke-width:0.264583"
         id="path1215" />
    </g>
    <g
       aria-label="z"
       style="font-style:normal;font-variant:normal;font-weight:normal;font-stretch:normal;font-size:28.2222px;line-height:1.25;font-family:PaleoHebrewAbjad;-inkscape-font-specification:'PaleoHebrewAbjad, Normal';font-variant-ligatures:normal;font-variant-caps:normal;font-variant-numeric:normal;font-feature-settings:normal;text-align:start;letter-spacing:0px;word-spacing:0px;writing-mode:lr-tb;text-anchor:start;fill:#000000;fill-opacity:1;stroke:none;stroke-width:0.264583"
       id="text1084"
       transform="matrix(1.0908115,0,0,1.0908115,-12.468137,-30.376724)">
      <path
         d="m 97.08394,211.97179 q 0,0 8.80533,0 v 2.96334 h -2.93511 v 12.41778 h 2.93511 v 2.96333 q 0,0 -8.80533,0 v -2.96333 h 2.93511 v -12.41778 h -2.93511 z"
         style="stroke-width:0.264583"
         id="path1212" />
    </g>
    <g
       aria-label="H"
       style="font-style:normal;font-variant:normal;font-weight:normal;font-stretch:normal;font-size:28.2222px;line-height:1.25;font-family:PaleoHebrewAbjad;-inkscape-font-specification:'PaleoHebrewAbjad, Normal';font-variant-ligatures:normal;font-variant-caps:normal;font-variant-numeric:normal;font-feature-settings:normal;text-align:start;letter-spacing:0px;word-spacing:0px;writing-mode:lr-tb;text-anchor:start;fill:#000000;fill-opacity:1;stroke:none;stroke-width:0.264583"
       id="text1088"
       transform="matrix(1.0908115,0,0,1.0908115,-12.468137,-30.376724)">
      <path
         d="m 68.711534,211.97179 q 0,0 14.901333,0 v 18.34445 q 0,0 -14.901333,0 z m 2.963333,2.96334 v 4.74133 h 8.974666 v -4.74133 z m 0,7.70466 v 4.71312 h 8.974666 v -4.71312 z"
         style="stroke-width:0.264583"
         id="path1209" />
    </g>
    <g
       aria-label="T"
       style="font-style:normal;font-variant:normal;font-weight:normal;font-stretch:normal;font-size:28.2222px;line-height:1.25;font-family:PaleoHebrewAbjad;-inkscape-font-specification:'PaleoHebrewAbjad, Normal';font-variant-ligatures:normal;font-variant-caps:normal;font-variant-numeric:normal;font-feature-settings:normal;text-align:start;letter-spacing:0px;word-spacing:0px;writing-mode:lr-tb;text-anchor:start;fill:#000000;fill-opacity:1;stroke:none;stroke-width:0.264583"
       id="text1092"
       transform="matrix(1.0908115,0,0,1.0908115,-12.468137,-30.376724)">
      <path
         d="m 56.462583,224.86935 q 1.100666,-1.63689 1.100666,-3.72533 -0.02822,-2.00378 -1.100666,-3.72534 l -3.725333,3.72534 z m -9.539111,2.08844 q 1.636889,1.10067 3.725333,1.10067 2.003778,-0.0282 3.725333,-1.10067 l -3.725333,-3.72533 z m -2.088444,-9.53911 q -1.100667,1.63689 -1.100667,3.72534 0.02822,2.00377 1.100667,3.72533 l 3.725333,-3.72533 z m 9.53911,-2.08844 q -1.636888,-1.10067 -3.725333,-1.10067 -2.003777,0.0282 -3.725333,1.10067 l 3.725333,3.72533 z m 3.245556,-1.15711 q 2.737555,2.73755 2.906889,6.57578 0,0.19755 0,0.39511 0,3.81 -2.624667,6.66044 -0.141111,0.16933 -0.282222,0.31045 -2.737556,2.73755 -6.575778,2.90688 -0.197555,0 -0.395111,0 -3.81,0 -6.660444,-2.62466 -0.169333,-0.14111 -0.310444,-0.28222 -2.737556,-2.73756 -2.906889,-6.57578 0,-0.19756 0,-0.39511 0,-3.81 2.624666,-6.66045 0.141111,-0.16933 0.282223,-0.31044 2.737555,-2.73756 6.575777,-2.90689 0.197556,0 0.395111,0 3.81,0 6.660444,2.62467 0.169334,0.14111 0.310445,0.28222 z"
         style="stroke-width:0.264583"
         id="path1206" />
    </g>
    <g
       aria-label="j"
       style="font-style:normal;font-variant:normal;font-weight:normal;font-stretch:normal;font-size:28.2222px;line-height:1.25;font-family:PaleoHebrewAbjad;-inkscape-font-specification:'PaleoHebrewAbjad, Normal';font-variant-ligatures:normal;font-variant-caps:normal;font-variant-numeric:normal;font-feature-settings:normal;text-align:start;letter-spacing:0px;word-spacing:0px;writing-mode:lr-tb;text-anchor:start;fill:#000000;fill-opacity:1;stroke:none;stroke-width:0.264583"
       id="text1096"
       transform="matrix(1.0908115,0,0,1.0908115,-12.468137,-30.376724)">
      <path
         d="m 19.32718,211.94357 h 9.031111 v 0.0282 15.35289 h 2.963333 v 2.99156 q 0,0 -5.926666,0 v -7.84578 H 19.32718 v -2.96333 h 6.067778 v -4.60022 H 19.32718 Z"
         style="stroke-width:0.264583"
         id="path1203" />
    </g>
    <g
       aria-label="k"
       style="font-style:normal;font-variant:normal;font-weight:normal;font-stretch:normal;font-size:28.2222px;line-height:1.25;font-family:PaleoHebrewAbjad;-inkscape-font-specification:'PaleoHebrewAbjad, Normal';font-variant-ligatures:normal;font-variant-caps:normal;font-variant-numeric:normal;font-feature-settings:normal;text-align:start;letter-spacing:0px;word-spacing:0px;writing-mode:lr-tb;text-anchor:start;fill:#000000;fill-opacity:1;stroke:none;stroke-width:0.264583"
       id="text1100"
       transform="matrix(1.0908115,0,0,1.0908115,-12.468137,-30.376724)">
      <path
         d="m 253.05456,235.42255 h 2.96334 v 7.25311 l 5.44689,-5.44689 2.08844,2.08844 q -0.0847,0.0847 -17.018,17.018 l -2.08844,-2.08844 7.98688,-7.98689 -6.91444,-6.94267 2.08844,-2.08844 5.44689,5.44689 z"
         style="stroke-width:0.264583"
         id="path1200" />
    </g>
    <g
       aria-label="l"
       style="font-style:normal;font-variant:normal;font-weight:normal;font-stretch:normal;font-size:28.2222px;line-height:1.25;font-family:PaleoHebrewAbjad;-inkscape-font-specification:'PaleoHebrewAbjad, Normal';font-variant-ligatures:normal;font-variant-caps:normal;font-variant-numeric:normal;font-feature-settings:normal;text-align:start;letter-spacing:0px;word-spacing:0px;writing-mode:lr-tb;text-anchor:start;fill:#000000;fill-opacity:1;stroke:none;stroke-width:0.264583"
       id="text1104"
       transform="matrix(1.0908115,0,0,1.0908115,-12.468137,-30.376724)">
      <path
         d="m 221.02184,237.22877 h 2.96334 v 15.38111 h 11.96622 v 2.96333 q 0,0 -14.92956,0 z"
         style="stroke-width:0.264583"
         id="path1197" />
    </g>
    <g
       aria-label="m"
       style="font-style:normal;font-variant:normal;font-weight:normal;font-stretch:normal;font-size:28.2222px;line-height:1.25;font-family:PaleoHebrewAbjad;-inkscape-font-specification:'PaleoHebrewAbjad, Normal';font-variant-ligatures:normal;font-variant-caps:normal;font-variant-numeric:normal;font-feature-settings:normal;text-align:start;letter-spacing:0px;word-spacing:0px;writing-mode:lr-tb;text-anchor:start;fill:#000000;fill-opacity:1;stroke:none;stroke-width:0.264583"
       id="text1108"
       transform="matrix(1.0908115,0,0,1.0908115,-12.468137,-30.376724)">
      <path
         d="m 204.64388,237.22877 q 0,2.20133 0.73377,3.89466 1.04423,2.17312 2.51178,2.17312 1.43933,-0.0282 2.48356,-2.17312 0.762,-1.74977 0.762,-3.89466 h 2.96333 v 18.34444 q 0,0 -11.74044,0 v -2.96333 h 8.77711 v -7.70467 q -1.55223,1.35467 -3.24556,1.35467 -2.51178,0 -4.34622,-2.56822 -0.22578,-0.31045 -0.39511,-0.62089 -1.69334,2.90689 -4.28978,3.16089 -0.22578,0.0282 -0.42333,0.0282 -2.56823,0 -4.40267,-2.65289 -1.80622,-2.65289 -1.80622,-6.37822 h 2.96333 q 0,2.14489 0.73378,3.89466 0.73378,1.43934 1.38289,1.83445 0.508,0.33867 1.10066,0.33867 1.43934,-0.0282 2.51178,-2.14489 0.762,-1.74978 0.762,-3.92289 z"
         style="stroke-width:0.264583"
         id="path1194" />
    </g>
    <g
       aria-label="n"
       style="font-style:normal;font-variant:normal;font-weight:normal;font-stretch:normal;font-size:28.2222px;line-height:1.25;font-family:PaleoHebrewAbjad;-inkscape-font-specification:'PaleoHebrewAbjad, Normal';font-variant-ligatures:normal;font-variant-caps:normal;font-variant-numeric:normal;font-feature-settings:normal;text-align:start;letter-spacing:0px;word-spacing:0px;writing-mode:lr-tb;text-anchor:start;fill:#000000;fill-opacity:1;stroke:none;stroke-width:0.264583"
       id="text1112"
       transform="matrix(1.0908115,0,0,1.0908115,-12.468137,-30.376724)">
      <path
         d="m 171.43992,237.22877 h 2.96333 q 0,2.11666 0.70556,3.75355 1.016,2.286 2.54,2.31423 1.524,-0.0282 2.54,-2.286 0.70555,-1.60867 0.70555,-3.78178 h 2.96334 v 18.34444 q 0,0 -11.74045,0 v -2.96333 h 8.77711 v -7.70467 q -1.55222,1.35467 -3.24555,1.35467 -2.54,0 -4.37445,-2.62467 -1.83444,-2.65289 -1.83444,-6.40644 z"
         style="stroke-width:0.264583"
         id="path1191" />
    </g>
    <g
       aria-label="s"
       style="font-style:normal;font-variant:normal;font-weight:normal;font-stretch:normal;font-size:28.2222px;line-height:1.25;font-family:PaleoHebrewAbjad;-inkscape-font-specification:'PaleoHebrewAbjad, Normal';font-variant-ligatures:normal;font-variant-caps:normal;font-variant-numeric:normal;font-feature-settings:normal;text-align:start;letter-spacing:0px;word-spacing:0px;writing-mode:lr-tb;text-anchor:start;fill:#000000;fill-opacity:1;stroke:none;stroke-width:0.264583"
       id="text1116"
       transform="matrix(1.0908115,0,0,1.0908115,-12.468137,-30.376724)">
      <path
         d="m 150.84275,235.42255 h 2.96334 v 3.58422 h 5.98311 v 2.96333 h -5.98311 v 2.93511 h 5.98311 v 2.96334 h -5.98311 v 2.93511 h 5.98311 v 2.96333 h -5.98311 v 3.58422 h -2.96334 v -3.58422 h -5.98311 v -2.96333 h 5.98311 v -2.93511 h -5.98311 v -2.96334 h 5.98311 v -2.93511 h -5.98311 v -2.96333 h 5.98311 z"
         style="stroke-width:0.264583"
         id="path1188" />
    </g>
    <g
       aria-label="("
       style="font-style:normal;font-variant:normal;font-weight:normal;font-stretch:normal;font-size:28.2222px;line-height:1.25;font-family:PaleoHebrewAbjad;-inkscape-font-specification:'PaleoHebrewAbjad, Normal';font-variant-ligatures:normal;font-variant-caps:normal;font-variant-numeric:normal;font-feature-settings:normal;text-align:start;letter-spacing:0px;word-spacing:0px;writing-mode:lr-tb;text-anchor:start;fill:#000000;fill-opacity:1;stroke:none;stroke-width:0.264583"
       id="text1120"
       transform="matrix(1.0908115,0,0,1.0908115,-12.468137,-30.376724)">
      <path
         d="m 127,236.52321 q 3.97933,0 6.858,2.76578 2.85045,2.76578 3.01978,6.68867 0,0.22577 0,0.42333 0,3.97933 -2.76578,6.858 -2.76578,2.85044 -6.68867,3.01978 -0.19755,0 -0.42333,0 -3.97933,0 -6.858,-2.76578 -2.85044,-2.76578 -3.01978,-6.68867 0,-0.22577 0,-0.42333 0,-3.97933 2.76578,-6.858 2.76578,-2.85044 6.68867,-3.01978 0.22578,0 0.42333,0 z m 6.91445,9.87778 q 0,-3.048 -2.25778,-5.10822 -1.97556,-1.80622 -4.65667,-1.80622 -3.048,0 -5.10822,2.25777 -1.83444,2.00378 -1.83444,4.65667 0,3.048 2.25777,5.10822 2.00378,1.80622 4.68489,1.80622 3.07622,0 5.10822,-2.25777 1.80623,-1.97556 1.80623,-4.65667 z"
         style="stroke-width:0.264583"
         id="path1185" />
    </g>
    <g
       aria-label="p"
       style="font-style:normal;font-variant:normal;font-weight:normal;font-stretch:normal;font-size:28.2222px;line-height:1.25;font-family:PaleoHebrewAbjad;-inkscape-font-specification:'PaleoHebrewAbjad, Normal';font-variant-ligatures:normal;font-variant-caps:normal;font-variant-numeric:normal;font-feature-settings:normal;text-align:start;letter-spacing:0px;word-spacing:0px;writing-mode:lr-tb;text-anchor:start;fill:#000000;fill-opacity:1;stroke:none;stroke-width:0.264583"
       id="text1124"
       transform="matrix(1.0908115,0,0,1.0908115,-12.468137,-30.376724)">
      <path
         d="m 110.63061,237.22877 -10.668003,19.10644 -2.596445,-1.43933 8.212668,-14.70378 H 92.342607 v -2.96333 z"
         style="stroke-width:0.264583"
         id="path1182" />
    </g>
    <g
       aria-label="S"
       style="font-style:normal;font-variant:normal;font-weight:normal;font-stretch:normal;font-size:28.2222px;line-height:1.25;font-family:PaleoHebrewAbjad;-inkscape-font-specification:'PaleoHebrewAbjad, Normal';font-variant-ligatures:normal;font-variant-caps:normal;font-variant-numeric:normal;font-feature-settings:normal;text-align:start;letter-spacing:0px;word-spacing:0px;writing-mode:lr-tb;text-anchor:start;fill:#000000;fill-opacity:1;stroke:none;stroke-width:0.264583"
       id="text1128"
       transform="matrix(1.0908115,0,0,1.0908115,-12.468137,-30.376724)">
      <path
         d="m 76.359758,236.57966 3.527778,3.52777 3.556,-3.52777 2.088444,2.08844 -5.644444,5.64445 q -0.508,-0.508 -1.665111,-1.66512 -1.27,-1.29822 -1.862667,-1.89088 l -1.890889,1.91911 11.571111,11.57111 -2.088444,2.08844 -17.667111,-17.66711 2.088444,-2.08844 3.979334,3.97933 q 0.649111,-0.67733 2.003777,-1.97556 1.354667,-1.35466 2.003778,-2.00377 z"
         style="stroke-width:0.264583"
         id="path1179" />
    </g>
    <g
       aria-label="q"
       style="font-style:normal;font-variant:normal;font-weight:normal;font-stretch:normal;font-size:28.2222px;line-height:1.25;font-family:PaleoHebrewAbjad;-inkscape-font-specification:'PaleoHebrewAbjad, Normal';font-variant-ligatures:normal;font-variant-caps:normal;font-variant-numeric:normal;font-feature-settings:normal;text-align:start;letter-spacing:0px;word-spacing:0px;writing-mode:lr-tb;text-anchor:start;fill:#000000;fill-opacity:1;stroke:none;stroke-width:0.264583"
       id="text1132"
       transform="matrix(1.0908115,0,0,1.0908115,-12.468137,-30.376724)">
      <path
         d="m 52.144588,245.92121 q 2.257778,-0.28222 3.612445,-1.38289 0.931333,-0.762 0.959555,-1.74977 -0.02822,-0.95956 -0.959555,-1.74978 -1.382889,-1.07245 -3.612445,-1.38289 z m -2.963333,-6.26533 q -2.286,0.28222 -3.640666,1.38289 -0.931334,0.762 -0.959556,1.74978 0.02822,0.95955 0.959556,1.74977 1.354666,1.07245 3.640666,1.38289 z m 1.467556,-3.07622 q 4.120444,0 6.801555,2.11666 2.201333,1.778 2.229555,4.09223 0,2.51177 -2.568222,4.318 -2.088444,1.46755 -4.967111,1.80622 v 6.66044 h -2.963333 v -6.66044 q -3.922889,-0.45156 -6.096,-2.70934 -1.467555,-1.58044 -1.467555,-3.41488 0,-2.56823 2.652889,-4.40267 2.652888,-1.80622 6.378222,-1.80622 z"
         style="stroke-width:0.264583"
         id="path1176" />
    </g>
    <g
       aria-label="$"
       style="font-style:normal;font-variant:normal;font-weight:normal;font-stretch:normal;font-size:28.2222px;line-height:1.25;font-family:PaleoHebrewAbjad;-inkscape-font-specification:'PaleoHebrewAbjad, Normal';font-variant-ligatures:normal;font-variant-caps:normal;font-variant-numeric:normal;font-feature-settings:normal;text-align:start;letter-spacing:0px;word-spacing:0px;writing-mode:lr-tb;text-anchor:start;fill:#000000;fill-opacity:1;stroke:none;stroke-width:0.264583"
       id="text1140"
       transform="matrix(1.0908115,0,0,1.0908115,-12.468137,-30.376724)">
      <path
         d="m 244.89834,261.99847 3.16089,12.36134 q 0,0 5.92667,-9.31334 0.98778,1.55223 2.99155,4.65667 1.97556,3.10444 2.96334,4.65667 l 3.16089,-12.36134 2.87866,0.73378 q -2.08844,8.15622 -4.88244,18.99356 -1.18533,-1.86267 -3.556,-5.55978 -2.37067,-3.72533 -3.556,-5.588 -1.18533,1.86267 -3.556,5.588 -2.34245,3.69711 -3.52778,5.55978 -0.81844,-3.16089 -2.45533,-9.51089 -1.60867,-6.32178 -2.42711,-9.48267 z"
         style="stroke-width:0.264583"
         id="path1170" />
    </g>
    <g
       aria-label="t"
       style="font-style:normal;font-variant:normal;font-weight:normal;font-stretch:normal;font-size:28.2222px;line-height:1.25;font-family:PaleoHebrewAbjad;-inkscape-font-specification:'PaleoHebrewAbjad, Normal';font-variant-ligatures:normal;font-variant-caps:normal;font-variant-numeric:normal;font-feature-settings:normal;text-align:start;letter-spacing:0px;word-spacing:0px;writing-mode:lr-tb;text-anchor:start;fill:#000000;fill-opacity:1;stroke:none;stroke-width:0.264583"
       id="text1144"
       transform="matrix(1.0908115,0,0,1.0908115,-12.468137,-30.376724)">
      <path
         d="m 233.93351,264.25625 2.08844,2.08845 -5.44689,5.44688 5.44689,5.44689 -2.08844,2.08845 -5.44689,-5.44689 -5.44689,5.44689 -2.08844,-2.08845 5.44689,-5.44689 -5.44689,-5.44688 2.08844,-2.08845 5.44689,5.44689 z"
         style="stroke-width:0.264583"
         id="path1167" />
    </g>
    <g
       aria-label="d"
       style="font-style:normal;font-variant:normal;font-weight:normal;font-stretch:normal;font-size:28.2222px;line-height:1.25;font-family:PaleoHebrewAbjad;-inkscape-font-specification:'PaleoHebrewAbjad, Normal';font-variant-ligatures:normal;font-variant-caps:normal;font-variant-numeric:normal;font-feature-settings:normal;text-align:start;letter-spacing:0px;word-spacing:0px;writing-mode:lr-tb;text-anchor:start;fill:#000000;fill-opacity:1;stroke:none;stroke-width:0.264583"
       id="text1071-1"
       transform="matrix(1.0908115,0,0,1.0908115,-14.108243,-31.135552)">
      <path
         d="m 179.53492,213.28493 8.73203,17.16213 -17.96587,0.0102 z m -0.11806,5.36626 -4.83948,9.24029 9.57683,-0.0274 z"
         style="stroke-width:0.264583"
         id="path1221-6"
         sodipodi:nodetypes="cccccccc" />
    </g>
  </g>
</svg>
