<?xml version="1.0" encoding="UTF-8" standalone="no"?>
<svg xmlns="http://www.w3.org/2000/svg" height="602.67" width="579.07" stroke="#ffffff" stroke-width="1.3028" viewBox="0 0 612 792">
 <path d="m441.08 720.52l-93.24 66.61-417.03-295.1 0.004-251.03 93.239-65.58 149.6 104.51v-210.05l93.24-66.6 94.27 66.604v210.05l67.62-47.13 79.93 56.36 80.94-57.39 94.26 66.61v251.03l-94.26 65.58-80.94-57.38-67.63 48.15z"/>
 <path d="m-43.573 241l67.626 48.16 68.65-48.16-68.65-48.16zm80.948 57.38l67.625 48.15 68.65-48.15-67.62-48.17zm79.925 57.37l68.64 48.16 68.66-48.16-68.66-48.15zm149.59-334.03l-68.65 48.16 68.65 48.156 68.65-48.156zm0 114.76l-68.65 48.16 68.65 48.16 67.63-49.18zm0 113.74l-68.65 48.16 68.65 48.15 67.63-48.15zm-68.65 162.91l68.65 47.14 67.63-48.16-67.63-47.14zm80.95 56.35l68.65 48.16 67.62-48.16-67.62-48.15zm149.59-219.26l-68.65 48.16 67.63 48.15 68.65-48.15zm160.87 0l-67.63 48.16 67.63 48.15 68.65-48.15z" fill="#fff"/>
</svg>
