<svg width="445.42" height="115.93" version="1.2" viewBox="0 0 334.06 86.95" xmlns="http://www.w3.org/2000/svg" xmlns:xlink="http://www.w3.org/1999/xlink"><defs><clipPath id="b"><path d="M.79.25h334.06v83.73H.79z"/></clipPath><clipPath id="c"><path d="M214.79 42h334.06v83.98H214.79z"/></clipPath><clipPath id="f"><path d="M215 39.03h333.85V123H215z"/></clipPath><clipPath id="g"><path d="M214.79 39.03h334.06V123H214.79z"/></clipPath><clipPath id="h"><path d="M214.79 40h334.06v85.98H214.79z"/></clipPath><clipPath id="i"><path d="M217 55h47v60h-47z"/></clipPath><clipPath id="j"><path d="m239.6 55.5-.9.15a7.2 7.2 0 0 0-.97.22 750.3 750.3 0 0 0-19.8 4.5c-.61.15-.98.74-.85 1.35l11.86 51.75c.06.29.25.55.5.71a1.13 1.13 0 0 0 .86.14l17.07-4.06c.61-.15.99-.75.85-1.37l-4.55-18.7c1.7-.4 3.42-.9 5.12-1.52 2.1-.76 4.09-1.75 5.92-2.94a22.3 22.3 0 0 0 4.9-4.36 17 17 0 0 0 3.87-10.63 17.13 17.13 0 0 0-3.21-9.24c-1.54-2-3.43-3.53-5.63-4.58a20.03 20.03 0 0 0-7.2-1.82c-.54-.03-1.08-.06-1.62-.07h-.62c-1.84 0-3.72.15-5.6.47m-.47 13.9c.5-.08 1.02-.11 1.53-.11h.22c.54.01 1.08.07 1.59.18a4.46 4.46 0 0 1 2.88 1.84c.14.16.27.34.39.54a3.64 3.64 0 0 1 .05 2.7 5.8 5.8 0 0 1-1.26 1.9 8.6 8.6 0 0 1-2.02 1.5c-.42.23-.82.42-1.22.6z"/></clipPath><clipPath id="k"><path d="M214.79 40h64.22v85.98h-64.22z"/></clipPath><clipPath id="l"><path d="M252 72h39v37h-39z"/></clipPath><clipPath id="m"><path d="M264.4 73.4a18.8 18.8 0 0 0-10.3 9.66 17.24 17.24 0 0 0-1.57 7.35 17 17 0 0 0 1.58 7.29 18.82 18.82 0 0 0 10.29 9.62c2.3.92 4.76 1.39 7.3 1.39a19.5 19.5 0 0 0 13.36-5.21 18.6 18.6 0 0 0 4.2-5.8 16.98 16.98 0 0 0 1.57-7.3c0-2.62-.52-5.09-1.57-7.33a18.72 18.72 0 0 0-4.2-5.82 19.64 19.64 0 0 0-13.36-5.24c-2.55 0-5 .47-7.3 1.4m6.28 20.41a4.4 4.4 0 0 1-1.28-.82 3.43 3.43 0 0 1-.84-1.18 3.49 3.49 0 0 1 .84-4.04c.36-.34.8-.61 1.29-.82a3.87 3.87 0 0 1 3 0 3.92 3.92 0 0 1 2.1 2.02c.22.43.32.9.32 1.43a3.73 3.73 0 0 1-1.18 2.6c-.35.35-.77.61-1.24.81a3.87 3.87 0 0 1-3 0"/></clipPath><clipPath id="n"><path d="M287 64h41v51h-41z"/></clipPath><clipPath id="o"><path d="M310.34 64.64c-.71.04-1.45.14-2.17.33-.69.18-1.35.4-2 .67-.63.26-1.26.54-1.87.84l-.21.1-.03-.64a1.13 1.13 0 0 0-1.13-1.08h-.03l-14.37.42c-.62.02-1.12.54-1.1 1.16l1.12 47.39c.02.3.14.59.36.8.2.19.48.3.77.3h.04l15.81-.39a1.13 1.13 0 0 0 1.1-1.2l-.8-12.75c.7.17 1.37.3 2.02.4a14.98 14.98 0 0 0 3.77.12c2.84-.2 5.32-.82 7.4-1.84a14.3 14.3 0 0 0 5.15-4.19 15.96 15.96 0 0 0 2.76-6.13c.51-2.3.68-4.86.47-7.6-.12-1.65-.4-3.28-.83-4.87a18.49 18.49 0 0 0-1.86-4.4 14.2 14.2 0 0 0-7.4-6.25 18.6 18.6 0 0 0-3.34-1 13.65 13.65 0 0 0-3.63-.18m-5.23 21.97-.43-7.97c.53.01 1.08.04 1.64.1.88.1 1.7.3 2.43.64.68.3 1.23.74 1.7 1.32.4.54.66 1.28.73 2.22.05.65-.02 1.2-.2 1.62a2.6 2.6 0 0 1-.78 1.02c-.37.29-.81.5-1.35.66-.58.17-1.22.28-1.9.34-.47.03-.95.05-1.52.05h-.32"/></clipPath><clipPath id="p"><path d="M272 49h71v76.98h-71z"/></clipPath><clipPath id="q"><path d="M319 41h34v55h-34z"/></clipPath><clipPath id="r"><path d="m343.57 41.26-16.33.33c-.63.02-1.13.54-1.11 1.16l.3 15.51-5.65.17c-.62.02-1.1.54-1.1 1.16l.23 12.02c.01.3.14.6.35.8.22.2.5.31.78.31h.04l5.67-.16.48 22.03c.01.63.52 1.11 1.14 1.11l15.6-.2c.63 0 1.13-.51 1.13-1.14l-.2-22.34 6.07-.16c.6-.02 1.09-.5 1.1-1.1l.34-12.06c0-.31-.11-.61-.34-.84-.21-.2-.5-.33-.8-.33h-.02l-6.43.17-.1-15.31a1.13 1.13 0 0 0-1.13-1.13z"/></clipPath><clipPath id="s"><path d="M305 39.03h63V111h-63z"/></clipPath><clipPath id="t"><path d="M348 66h37v37h-37z"/></clipPath><clipPath id="u"><path d="m364.59 66.2-14.96.97c-.6.04-1.08.55-1.06 1.16l.94 33.17c.02.6.51 1.1 1.12 1.1h.02l14.53-.14c.3 0 .59-.12.8-.34.2-.21.32-.5.32-.8l-.35-22.1a3 3 0 0 1 .99-.17c.76 0 1.02.14 1.45.6.45.48.66 1.07.66 1.83 0 .57-.05 1.11-.14 1.65-.1.62-.18 1.23-.25 1.83-.04.33.07.66.3.9.2.23.5.36.81.36h.05l13.82-.46c.6-.02 1.08-.63 1.1-1.22l.13-3.14c.05-1.12.07-2.23.07-3.36 0-3.59-1.03-6.35-3.07-8.2-2-1.82-4.78-2.75-8.25-2.75-1.73 0-3.45.27-5.1.79-1 .31-1.86.71-2.69 1.15l-.03-1.72c0-.3-.14-.6-.37-.81-.2-.2-.48-.3-.77-.3z"/></clipPath><clipPath id="v"><path d="M381 67h40v38h-40z"/></clipPath><clipPath id="w"><path d="M393.85 69.03a18.88 18.88 0 0 0-10.3 9.65 17.31 17.31 0 0 0-1.57 7.35c0 2.6.53 5.05 1.58 7.3a18.95 18.95 0 0 0 10.3 9.62c2.3.91 4.75 1.38 7.3 1.38a19.47 19.47 0 0 0 13.36-5.21 18.87 18.87 0 0 0 4.2-5.8 17.1 17.1 0 0 0 1.57-7.3c0-2.62-.53-5.09-1.57-7.34a18.77 18.77 0 0 0-4.2-5.8 19.6 19.6 0 0 0-13.36-5.25c-2.54 0-5 .47-7.31 1.4m6.29 20.41c-.5-.2-.91-.47-1.29-.82a3.57 3.57 0 0 1-.84-4.04c.21-.46.48-.85.84-1.18.37-.34.8-.62 1.29-.82a3.9 3.9 0 0 1 3 0 3.9 3.9 0 0 1 2.12 2.02c.2.43.3.91.3 1.43 0 .5-.1.96-.3 1.4a3.96 3.96 0 0 1-5.12 2.01"/></clipPath><clipPath id="x"><path d="M416 58h41v51h-41z"/></clipPath><clipPath id="y"><path d="M440.68 58.7c-.18 0-.38 0-.73.03-.74 0-1.47.09-2.17.25a23.27 23.27 0 0 0-3.91 1.39l-.21.1-.02-.64c0-.62-.5-1.12-1.12-1.12h-14.39c-.63 0-1.12.5-1.13 1.13l-.28 47.4c0 .3.12.58.33.8.2.22.5.33.8.33l15.81.08h.02a1.13 1.13 0 0 0 1.12-1.17l-.42-12.77a16.08 16.08 0 0 0 5.77.7c2.84-.11 5.35-.66 7.46-1.62 2.13-.98 3.9-2.33 5.26-4.03a15.94 15.94 0 0 0 2.94-6.04c.6-2.3.83-4.84.7-7.6-.06-1.68-.3-3.32-.68-4.88a18.18 18.18 0 0 0-1.73-4.46 14.21 14.21 0 0 0-7.2-6.47 18.18 18.18 0 0 0-3.31-1.09c-.94-.21-1.91-.32-2.87-.32h-.04m-6.2 21.85-.41-.02-.2-7.97c.55.03 1.1.07 1.65.14a8 8 0 0 1 2.4.7 4.5 4.5 0 0 1 1.66 1.38 4 4 0 0 1 .68 2.24c.02.66-.06 1.2-.25 1.6-.2.43-.46.75-.81 1-.38.29-.84.5-1.38.64-.56.15-1.2.24-1.9.27l-.87.02z"/></clipPath><clipPath id="z"><path d="M459 41h23v21h-23z"/></clipPath><clipPath id="A"><path d="M467.41 42.06c-1.39.31-2.64.86-3.74 1.63a9.76 9.76 0 0 0-2.77 2.97c-.73 1.2-1.2 2.6-1.39 4.17a9.88 9.88 0 0 0 .33 4.3 8.43 8.43 0 0 0 1.97 3.35c.88.9 1.96 1.65 3.2 2.2a14.1 14.1 0 0 0 8.06.96c1.4-.24 2.71-.69 3.91-1.33a9.83 9.83 0 0 0 3.14-2.62 8 8 0 0 0 1.66-4.05c.2-1.74.1-3.32-.3-4.7a8.94 8.94 0 0 0-2.02-3.6 10.19 10.19 0 0 0-3.4-2.33 16.05 16.05 0 0 0-5.98-1.24c-.91 0-1.81.1-2.67.3"/></clipPath><clipPath id="B"><path d="M444 39.03h53V77h-53z"/></clipPath><clipPath id="C"><path d="M456 64h20v34h-20z"/></clipPath><clipPath id="D"><path d="M456.98 64.4c-.28.22-.44.55-.44.89l-.25 30.23c0 .6.47 1.1 1.07 1.14l13.78.77h.06c.57 0 1.06-.42 1.12-1l3.46-26.8c.07-.56-.3-1.1-.86-1.24l-16.98-4.2a1.31 1.31 0 0 0-.27-.02c-.25 0-.5.08-.69.24"/></clipPath><clipPath id="E"><path d="M473 67h38v40h-38z"/></clipPath><clipPath id="F"><path d="M489.52 68.1c-2.58.6-4.96 1.66-7.07 3.12a19.84 19.84 0 0 0-8.24 13.11 17.63 17.63 0 0 0 4.04 14.65 20.84 20.84 0 0 0 5.97 4.78 23.88 23.88 0 0 0 7.5 2.54 33.02 33.02 0 0 0 6.39.42c2.2-.06 4.38-.44 6.45-1.15.52-.17.83-.68.76-1.22l-1.65-12.4a1.1 1.1 0 0 0-.47-.76c-.2-.14-.42-.22-.66-.22l-.22.03a17.33 17.33 0 0 1-3.14.36l-.82.01-.86-.01c-.54-.03-1.03-.08-1.5-.16a6.3 6.3 0 0 1-1.71-.54 4.5 4.5 0 0 1-1.32-.95 3.16 3.16 0 0 1-.86-2.88c.08-.53.27-.96.54-1.31.3-.38.66-.68 1.08-.9.47-.24.95-.4 1.49-.45a6.47 6.47 0 0 1 1.72.04c.88.15 1.78.44 2.63.86.85.44 1.63.97 2.32 1.57.2.18.48.29.75.29l.13-.01c.32-.04.6-.2.8-.47l7.04-9.91c.28-.4.28-.93-.02-1.33a14.1 14.1 0 0 0-2.62-2.7 23.7 23.7 0 0 0-10.44-4.65 19.74 19.74 0 0 0-8.01.24"/></clipPath><clipPath id="G"><path d="M504 74h43v41h-43z"/></clipPath><clipPath id="H"><path d="m521.06 74.82-.3.01c-1.16.05-2.31.2-3.42.45-1.77.4-3.39 1.01-4.82 1.83-1.44.83-2.7 1.85-3.75 3.02a16.46 16.46 0 0 0-2.64 4.04 21.72 21.72 0 0 0-1.57 4.86l-.1.52-.08.36c-.07.34-.11.7-.12 1-.43 3.78.06 7.14 1.45 9.96 1.41 2.86 3.82 5.22 7.16 6.98.86.49 1.76.92 2.67 1.29.94.38 1.9.67 2.9.87 1.36.27 2.75.43 4.12.45h.72c.6 0 1.21-.06 1.8-.16.01.52.38.98.9 1.1l13.74 2.88c.08.02.16.03.25.02.22 0 .44-.07.62-.2.25-.17.43-.45.47-.75L546.43 79c.1-.61-.32-1.2-.93-1.3l-13.96-2.4h-.22c-.23 0-.46.08-.64.21a1.1 1.1 0 0 0-.46.76l-.11.8a39.7 39.7 0 0 0-1.9-.86 18.89 18.89 0 0 0-3.58-1.1l-.38-.07c-.92-.15-1.86-.23-2.78-.23h-.41m5.55 22.5c-.5-.07-.97-.16-1.45-.25a10.8 10.8 0 0 1-1.9-.56 4.68 4.68 0 0 1-1.4-.81 2.77 2.77 0 0 1-.75-1.12 3.03 3.03 0 0 1-.03-1.64c.17-.83.49-1.48.93-1.9a4.23 4.23 0 0 1 1.77-1.01 6.8 6.8 0 0 1 2.34-.28c.72.02 1.42.08 2.03.17l-1.12 7.44-.42-.05"/></clipPath><clipPath id="I"><path d="M489 60h59.85v65.98H489z"/></clipPath><filter id="a" x="0" y="0" width="1" height="1"><feColorMatrix in="SourceGraphic" values="0 0 0 0 1 0 0 0 0 1 0 0 0 0 1 0 0 0 1 0"/></filter><mask id="d"><g filter="url(#a)"><path fill-opacity=".15" d="M0 0h612v792H0z"/></g></mask><g clip-path="url(#b)" id="e"><path d="M334.77 40.44a6.63 6.63 0 0 0-.15-1 3.37 3.37 0 0 0-2.72-2.71l-14.03-2.4-.13-.02-.27-.02h-.19a3.4 3.4 0 0 0-1.87.6v.01l-.03.03c-.16.11-.31.24-.45.39-1.26-.52-2.55-.9-3.86-1.17l-.05-.01-.34-.07-.09-.01a19.23 19.23 0 0 0-3.12-.26h-.45l-.33.02h-.03a22 22 0 0 0-3.8.5c-1.47.34-2.85.8-4.12 1.4a3 3 0 0 0-.36-.62 16.35 16.35 0 0 0-3.02-3.1 24.67 24.67 0 0 0-3.56-2.36h-.01a26.24 26.24 0 0 0-3.9-1.72l-.04-.01a22.7 22.7 0 0 0-3.97-1.03h-.02a22 22 0 0 0-8.8.26l-.08.02a22.88 22.88 0 0 0-7.77 3.43l-.03.02c-1.27.88-2.45 1.9-3.51 3.04l.32-2.5a3.5 3.5 0 0 0-.33-1.94l.1-.05a11.45 11.45 0 0 0 3.65-3.05l.03-.04a9.61 9.61 0 0 0 1.96-4.77v-.05c.1-.86.37-3.72.58-5.98l.01-.16c.01-.14.12-1.34.12-1.98 0-1.27-.16-2.48-.48-3.59l-.01-.03a11.14 11.14 0 0 0-2.53-4.47l-.03-.03a12.34 12.34 0 0 0-4.08-2.81l-.04-.02a18.3 18.3 0 0 0-6.86-1.42c-1.06 0-2.1.11-3.1.33l-.11.03a12.64 12.64 0 0 0-4.44 1.94l-.07.05A11.91 11.91 0 0 0 245 6.72l-.01.02c-.9 1.5-1.47 3.19-1.7 5.04-.19 1.68.26 6.5.36 7.37.22 1.99.41 3.19.64 3.88v.04l.06.16a3.35 3.35 0 0 0-2.73.63l-.02.02c-.32.25-.6.55-.8.89a16.32 16.32 0 0 0-6.98-5.48l-.07-.02c-1.2-.52-2.42-.93-3.67-1.2a15.06 15.06 0 0 0-4.22-.35c-.89.01-1.75.12-2.57.31l-.04.01h-.03c-.7.18-1.43.4-2.17.67H221l-.05.04a3.33 3.33 0 0 0-2.43-1.04h-14.38a3.38 3.38 0 0 0-3.36 3.33l-.06 10.28a21.8 21.8 0 0 0-13.56-4.7c-2.8 0-5.52.52-8.1 1.55l-.04.01a22.05 22.05 0 0 0-6.76 4.26l-.03.02-.35.35a10.71 10.71 0 0 0-2.48-3.37l-.04-.05c-2.43-2.2-5.69-3.31-9.7-3.31-1.99 0-3.92.3-5.77.88l-.03.01-.19.06c-.17-.34-.4-.65-.68-.92l-.06-.06a3.37 3.37 0 0 0-2.25-.86h-.2l-10 .65.16-5.87v-.07a3.4 3.4 0 0 0-3.37-3.38h-.07l-4.16.1-.08-13.03a3.37 3.37 0 0 0-1.01-2.38l-.04-.03a3.39 3.39 0 0 0-2.32-.93h-.03l-16.37.34h-.03a3.35 3.35 0 0 0-3.26 3.36V4l.26 13.31-3.43.1a3.37 3.37 0 0 0-3.28 3.37v.06l.08 3.89a20.94 20.94 0 0 0-3.13-.88 15.9 15.9 0 0 0-6.8.17l-.05.02c-.76.2-1.5.45-2.21.75h-.02l-.03.02a3.35 3.35 0 0 0-2.35-.97h-.1l-14.37.42a3.35 3.35 0 0 0-3.27 3.37v.07l.2 8.1a21.9 21.9 0 0 0-5.58-3.24l-.03-.02a21.81 21.81 0 0 0-14.08-.71c0-.63-.06-1.23-.15-1.79v-.03a19.3 19.3 0 0 0-3.52-8.66l-.02-.02a17.57 17.57 0 0 0-6.42-5.22l-.03-.01a22.2 22.2 0 0 0-7.94-2.01h-.03c-.56-.04-1.14-.07-1.72-.08h-.67c-1.97 0-3.98.16-5.98.5l-.46.08-.44.07c-.38.06-.76.15-1.12.26-3.38.7-6.7 1.43-9.87 2.16h-.04c-3.08.71-6.32 1.47-9.9 2.34l-.06.01A3.34 3.34 0 0 0 .85 23c-.04.38-.06.83-.06 1.45a43.48 43.48 0 0 0 .34 5.05l11.8 51.83v.02a2.78 2.78 0 0 0 2.65 2.16h.06c.2 0 .4-.02.58-.06l.05-.01 17.48-4.19a2.77 2.77 0 0 0 2.12-2.97c.6-5.6.6-5.84.6-5.92 0-.25-.02-.5-.08-.76l-.01-.05-2.73-11.23a10.33 10.33 0 0 0 2.54-1.2 37.65 37.65 0 0 0 2.42 8.6 18.25 18.25 0 0 0 4.57 6.37l.01.01a21.27 21.27 0 0 0 6.58 4.14h.02l.05.02c2.48.98 5.13 1.48 7.87 1.48a21.15 21.15 0 0 0 14.47-5.64l.07-.07.08 3.06c0 .24.33 3.56.6 6.3v.02a2.76 2.76 0 0 0 2.75 2.56h.07l15.82-.4a2.77 2.77 0 0 0 1.94-.85l.05-.05c.46-.52.71-1.18.71-1.87.27-2.67.6-5.88.6-6.19v-.15l-.01-.08-.27-4.24a16.58 16.58 0 0 0 3.15 0c3.04-.22 5.74-.9 8-2a15.89 15.89 0 0 0 5.73-4.67l.33-.45a2.78 2.78 0 0 0 2.57 1.72l15.63-.2a2.76 2.76 0 0 0 2.73-2.72h-.01c.04-.25.07-.53.1-.84l.2-2.08.13-1.23.14 5.06v.05c0 .05 0 .2.6 6.28v.02a2.76 2.76 0 0 0 2.75 2.55l14.56-.13c.71 0 1.4-.28 1.92-.8l.05-.04c.49-.51.76-1.17.77-1.87.22-2.2.6-5.87.6-6.25v-.05l-.13-7.52c.38.15.79.25 1.23.28l.13.01h.06l10.59-.36c.16 2.3.72 4.5 1.67 6.52a20.41 20.41 0 0 0 11.16 10.45c2.5 1 5.17 1.5 7.91 1.5a21.2 21.2 0 0 0 13.34-4.68c.08.92.35 3.7.59 6.06.03.67.29 1.3.75 1.8l.05.05c.52.52 1.21.8 1.95.81l15.82.08a2.76 2.76 0 0 0 2.78-2.71c.6-6 .6-6.17.6-6.24v-.1l-.15-4.32c.77.1 1.56.16 2.38.16h.07c.3 0 .6 0 .9-.03 3.04-.13 5.74-.72 8.05-1.77a15.81 15.81 0 0 0 5.86-4.5l.01-.01.5 5.06a2.77 2.77 0 0 0 2.62 2.66l13.78.77h.14c1.4 0 2.58-1.04 2.75-2.43V64l.14-1.13a19.85 19.85 0 0 0 2.92 4.57 22.39 22.39 0 0 0 6.43 5.16 25.42 25.42 0 0 0 8.01 2.71 34.36 34.36 0 0 0 6.7.45c2.5-.07 5.13-.25 7.32-1.64a5.2 5.2 0 0 0 1.44-1.3 19.9 19.9 0 0 0 5.18 3.87c.92.51 1.87.97 2.84 1.37 1.02.41 2.1.73 3.2.95 1.46.3 2.95.46 4.4.5h.8l.78-.05c.37.45.89.78 1.47.92l.1.02 14.85 2.8.13.03.28.02h.12a2.7 2.7 0 0 0 1.56-.48l.06-.05c.6-.44 1-1.1 1.1-1.82l4.87-32.69.06-.76c.07-1.08.14-2.96.14-4.58 0-1.03-.03-1.83-.08-2.44" fill="#211e1e"/></g></defs><g clip-path="url(#c)" transform="translate(-214.79 -39.03)"><use transform="translate(214 42)" width="100%" height="100%" mask="url(#d)" xlink:href="#e"/></g><g clip-path="url(#f)" transform="translate(-214.79 -39.03)"><path d="M289.68 122.14a2.16 2.16 0 0 1-2.14-2.06h.05c-.1-.5-.19-1.37-.34-2.98-.3-3.05-.3-3.17-.3-3.23l-.11-4.53c-.36.38-.71.75-1.08 1.1a20.51 20.51 0 0 1-14.06 5.47 20.6 20.6 0 0 1-14.09-5.48 17.58 17.58 0 0 1-4.43-6.15 36.6 36.6 0 0 1-2.53-9.5c-.43.38-.89.7-1.37.97-.8.45-1.65.74-2.37.94l2.87 11.83c.05.22.08.42.08.63 0 .26-.43 4.17-.62 5.93l.02.26c0 1-.68 1.86-1.65 2.1l-17.48 4.19a2.3 2.3 0 0 1-1.64-.28c-.49-.3-.83-.8-.96-1.35l-11.8-51.84a46.7 46.7 0 0 1-.32-4.92c0-.64.02-1.1.06-1.46a2.71 2.71 0 0 1 2.03-2.96l.04-.01c3.59-.87 6.83-1.63 9.91-2.33h.03c3.17-.74 6.5-1.47 9.9-2.18.3-.1.68-.18 1.05-.24l.9-.15a35.88 35.88 0 0 1 8.23-.41h.01c2.8.2 5.4.85 7.75 1.96a17 17 0 0 1 6.22 5.05 18.74 18.74 0 0 1 3.4 8.4v.02c.1.57.15 1.17.15 1.8v.1l-.01.63a21.1 21.1 0 0 1 14.48.45l.03.01c2.42.98 4.59 2.33 6.45 4.04l-.23-9.48a2.75 2.75 0 0 1 2.66-2.8l14.39-.43c.93 0 1.75.41 2.26 1.1l.43-.2h.01c.7-.28 1.43-.53 2.19-.73.8-.22 1.64-.34 2.47-.38a15.02 15.02 0 0 1 4.04.21c1.23.24 2.45.6 3.63 1.07l.27.1-.09-4.8a2.75 2.75 0 0 1 2.67-2.8l4.05-.12-.27-13.92a2.75 2.75 0 0 1 2.66-2.8l16.36-.33a2.76 2.76 0 0 1 2.8 2.7l.08 13.7 4.8-.13c.78 0 1.47.29 2 .8.5.52.8 1.23.8 1.96l-.18 6.6 10.68-.7h.15a2.71 2.71 0 0 1 1.88.76c.37.34.63.78.76 1.25l.73-.25c1.8-.57 3.68-.86 5.59-.86 3.89 0 7.01 1.06 9.32 3.16l.02.03a10.3 10.3 0 0 1 2.7 4.03 21.4 21.4 0 0 1 23.37-5.16 21.1 21.1 0 0 1 6.29 3.89l.06-11.6a2.75 2.75 0 0 1 2.73-2.73h14.4c.9 0 1.73.45 2.23 1.17l.47-.19c.75-.27 1.45-.49 2.15-.65l.07-.02c.8-.18 1.61-.28 2.45-.29l.8-.03c1.12 0 2.2.12 3.26.36a19.95 19.95 0 0 1 3.64 1.2 15.82 15.82 0 0 1 7.37 6.22c.1-.68.46-1.28 1-1.71l.03-.02a2.74 2.74 0 0 1 2.32-.5l1.07.25a8.7 8.7 0 0 1-.5-1.26c-.21-.65-.41-1.85-.62-3.77-.16-1.4-.53-5.73-.35-7.23.21-1.77.75-3.38 1.61-4.8a11.3 11.3 0 0 1 3.23-3.46 11.93 11.93 0 0 1 4.27-1.87l.06-.01a13.5 13.5 0 0 1 4.8-.22 17.63 17.63 0 0 1 4.84 1.27c1.53.66 2.84 1.56 3.9 2.69l.02.02c1.1 1.18 1.9 2.6 2.39 4.24.3 1.05.46 2.2.46 3.42 0 .62-.11 1.86-.12 1.92l-.01.17c-.3 3.22-.5 5.28-.58 5.96a9.02 9.02 0 0 1-1.84 4.52l-.02.03a10.88 10.88 0 0 1-4.16 3.23 2.76 2.76 0 0 1 .61 2.11l-.59 4.58a21.34 21.34 0 0 1 4.75-4.54 22.25 22.25 0 0 1 7.6-3.35h.04a21.34 21.34 0 0 1 8.58-.27h.02a25.4 25.4 0 0 1 11.2 4.98c1.13.9 2.11 1.9 2.92 3 .24.33.4.71.48 1.1a21.13 21.13 0 0 1 8.31-2.14h.79a18.49 18.49 0 0 1 7.36 1.52l.28.12c.17-.25.38-.47.63-.64l.02-.02a2.73 2.73 0 0 1 1.66-.5l.27.02 14.09 2.4a2.76 2.76 0 0 1 2.24 2.29c.05.22.1.49.13.88a29 29 0 0 1 .08 2.38c0 1.6-.07 3.47-.13 4.53l-.07.72-4.87 32.69c-.08.56-.4 1.08-.86 1.42l-.04.03c-.34.24-.75.37-1.18.37l-.38-.02-14.97-2.83a2.15 2.15 0 0 1-1.33-.97c-.39.04-.75.06-1.1.07h-.73a24.3 24.3 0 0 1-4.33-.47 17.7 17.7 0 0 1-3.08-.93 27.2 27.2 0 0 1-2.78-1.33 18.64 18.64 0 0 1-5.56-4.37l-.05.08a4.36 4.36 0 0 1-1.63 1.74c-2.06 1.3-4.6 1.47-7 1.54l-1.04.01c-1.9 0-3.76-.15-5.55-.45a24.74 24.74 0 0 1-7.82-2.65 21.8 21.8 0 0 1-6.25-5.01 19.51 19.51 0 0 1-3.7-6.67l-.45 3.58a2.15 2.15 0 0 1-2.13 1.9h-.1l-13.8-.77a2.16 2.16 0 0 1-2.02-2.12c-.4-3.95-.6-6.02-.6-6.22v-.6a15.15 15.15 0 0 1-6.66 5.77 20.92 20.92 0 0 1-7.81 1.72c-.3.02-.6.02-.87.02a17.3 17.3 0 0 1-3.1-.25l.17 5.14c0 .19-.37 3.98-.6 6.23a2.16 2.16 0 0 1-2.13 2.1l-15.84-.08a2.14 2.14 0 0 1-2.13-2.12h.04c-.1-.48-.18-1.36-.34-2.93-.3-3.05-.3-3.21-.3-3.28v-1.11a20.44 20.44 0 0 1-13.96 5.4 20.7 20.7 0 0 1-14.09-5.49 19.82 19.82 0 0 1-4.41-6.1c-1-2.13-1.55-4.45-1.65-6.9l-11.18.38h-.14a3.35 3.35 0 0 1-1.25-.35c-.26-.13-.48-.3-.66-.5l.15 8.7c0 .44-.5 5.32-.6 6.3a2.13 2.13 0 0 1-2.14 2.1l-14.52.12c-1.17 0-2.1-.9-2.16-2.05h.05c-.1-.49-.19-1.38-.34-3-.3-3.08-.3-3.16-.3-3.2l-.64-22.39-.7.02.14 15.17c0 .27-.42 4.5-.6 6.3a2.14 2.14 0 0 1-2.12 2.06l-15.6.2c-1.16 0-2.1-.9-2.17-2.03l-.1-.7a15.25 15.25 0 0 1-6.65 6.2 21.27 21.27 0 0 1-7.78 1.94c-.51.03-1.01.06-1.5.06-.78 0-1.54-.05-2.26-.15l.3 5.04.02.11c0 .35-.46 4.85-.6 6.22a2.15 2.15 0 0 1-.63 1.52c-.33.36-.87.6-1.46.62l-15.84.4z" fill="#2b5782"/></g><g clip-path="url(#g)" transform="translate(-214.79 -39.03)"><path d="M343.59 39.03h-.04l-16.36.33h-.03a3.36 3.36 0 0 0-3.26 3.37v.07l.26 13.3-3.43.1a3.36 3.36 0 0 0-3.28 3.37v.06l.08 3.89a20.48 20.48 0 0 0-3.13-.88 15.9 15.9 0 0 0-4.25-.21c-.84.03-1.71.16-2.55.38l-.05.02c-.76.2-1.51.46-2.21.75h-.03v.01h-.02a3.36 3.36 0 0 0-2.36-.96h-.09l-14.38.42a3.35 3.35 0 0 0-3.26 3.37v.07l.19 8.1a22.2 22.2 0 0 0-5.57-3.24l-.03-.02a21.67 21.67 0 0 0-14.08-.71 11 11 0 0 0-.16-1.78v-.04a19.29 19.29 0 0 0-3.52-8.66l-.01-.02a17.57 17.57 0 0 0-6.43-5.22l-.02-.01a22.2 22.2 0 0 0-7.95-2.01h-.02c-.56-.04-1.15-.07-1.73-.08h-.67c-1.97 0-3.98.16-5.97.5l-.47.08-.44.07a8.6 8.6 0 0 0-1.12.26 499.34 499.34 0 0 0-9.9 2.17c-3.08.7-6.32 1.46-9.9 2.33l-.07.01a3.34 3.34 0 0 0-2.5 3.25c0 .1 0 .21.02.32-.04.38-.06.83-.06 1.45a46.56 46.56 0 0 0 .33 5.05l11.8 51.83v.02a2.77 2.77 0 0 0 2.65 2.16h.07c.2 0 .4-.02.58-.06l.05-.01 17.48-4.2a2.76 2.76 0 0 0 2.11-2.96c.62-5.6.62-5.84.62-5.92 0-.25-.03-.5-.1-.76v-.05l-2.73-11.23a10.87 10.87 0 0 0 2.53-1.2 37.6 37.6 0 0 0 2.42 8.6 18.16 18.16 0 0 0 4.58 6.37 21.13 21.13 0 0 0 6.59 4.14l.02.01a21.07 21.07 0 0 0 22.4-4.14l.06-.07.07 3.06a549.63 549.63 0 0 0 .61 6.32 2.76 2.76 0 0 0 2.75 2.57h.07l15.82-.4a2.77 2.77 0 0 0 1.93-.86l.05-.05a2.8 2.8 0 0 0 .72-1.87c.27-2.67.6-5.87.6-6.19l-.01-.15v-.09l-.27-4.23a17.94 17.94 0 0 0 3.14 0c3.05-.21 5.74-.9 8-2a15.92 15.92 0 0 0 5.74-4.67l.33-.45a2.77 2.77 0 0 0 2.57 1.72l15.63-.2a2.76 2.76 0 0 0 2.73-2.72h-.02c.05-.25.08-.53.1-.84l.21-2.08.12-1.23.15 5.06v.05c0 .05 0 .2.6 6.28v.03a2.77 2.77 0 0 0 2.75 2.55l14.55-.14c.71 0 1.4-.28 1.92-.8a2.77 2.77 0 0 0 .82-1.92c.23-2.19.6-5.85.6-6.24v-.05l-.12-7.52a4.11 4.11 0 0 0 1.36.29h.06l10.58-.36c.17 2.31.73 4.5 1.67 6.52a20.5 20.5 0 0 0 11.17 10.45c2.5 1 5.16 1.5 7.91 1.5a21.14 21.14 0 0 0 13.34-4.68c.07.91.35 3.7.59 6.06.02.67.29 1.3.75 1.8l.05.05c.52.52 1.2.8 1.94.81l15.83.08a2.76 2.76 0 0 0 2.78-2.72c.59-5.98.59-6.16.59-6.23v-.11l-.14-4.3c.76.1 1.56.15 2.38.15h.07l.9-.03a21.7 21.7 0 0 0 8.04-1.77 15.73 15.73 0 0 0 5.87-4.5h.01l.5 5.04a2.78 2.78 0 0 0 2.61 2.67l13.79.77h.14c1.4 0 2.58-1.04 2.75-2.43v-.03l.14-1.13c.77 1.66 1.74 3.2 2.91 4.57a22.45 22.45 0 0 0 6.44 5.16 25.52 25.52 0 0 0 8.01 2.72 34.8 34.8 0 0 0 6.7.44c2.5-.07 5.12-.25 7.32-1.64a5.34 5.34 0 0 0 1.44-1.3 20.2 20.2 0 0 0 5.17 3.87c.92.5 1.88.97 2.85 1.36 1.02.42 2.1.75 3.19.97a24.31 24.31 0 0 0 4.9.48h.3c.25 0 .51-.02.78-.04.38.45.9.78 1.48.92l.1.02 14.84 2.81.14.02.27.02h.12a2.79 2.79 0 0 0 2.73-2.35L548.64 87l.07-.76a84 84 0 0 0 .14-4.58c0-1.03-.03-1.83-.08-2.44a6.71 6.71 0 0 0-.16-1 3.37 3.37 0 0 0-2.72-2.71l-14.03-2.4-.13-.02-.27-.02h-.18c-.67.02-1.32.22-1.87.61l-.04.03c-.16.11-.3.24-.45.39a21.68 21.68 0 0 0-3.9-1.18l-.35-.07-.08-.01a19.23 19.23 0 0 0-3.13-.25h-.45l-.32.01h-.03a22.3 22.3 0 0 0-3.8.51 20 20 0 0 0-4.12 1.38 2.9 2.9 0 0 0-.36-.6 16.48 16.48 0 0 0-3.02-3.12 25.31 25.31 0 0 0-7.5-4.08l-.02-.01a23.8 23.8 0 0 0-3.96-1.02h-.04a21.92 21.92 0 0 0-8.79.27h-.07a22.85 22.85 0 0 0-7.78 3.44l-.02.02c-1.28.88-2.45 1.9-3.52 3.04l.32-2.5a3.41 3.41 0 0 0-.32-1.93l.09-.05c1.43-.77 2.66-1.8 3.66-3.06l.02-.03a9.61 9.61 0 0 0 1.96-4.79v-.04c.11-.86.38-3.72.58-5.98l.02-.16c.01-.14.12-1.34.12-1.98 0-1.27-.16-2.48-.49-3.59v-.03a11.12 11.12 0 0 0-2.53-4.47l-.04-.03a12.4 12.4 0 0 0-4.08-2.81l-.04-.02a18.33 18.33 0 0 0-6.86-1.42 14.2 14.2 0 0 0-3.21.36 12.62 12.62 0 0 0-4.44 1.94l-.06.05a11.87 11.87 0 0 0-3.37 3.61v.02a12.45 12.45 0 0 0-1.7 5.04c-.2 1.68.26 6.5.35 7.37.22 1.99.42 3.19.64 3.88l.01.04.06.16a3.39 3.39 0 0 0-2.73.63l-.03.02a3.3 3.3 0 0 0-.79.89 16.39 16.39 0 0 0-6.98-5.47l-.07-.04c-1.2-.51-2.43-.91-3.68-1.19a14.83 14.83 0 0 0-4.21-.35c-.9.02-1.76.12-2.57.31l-.04.01h-.03c-.7.18-1.42.4-2.18.66l-.04.02a.34.34 0 0 0-.06.02 3.34 3.34 0 0 0-2.43-1.04h-14.37a3.38 3.38 0 0 0-3.37 3.34l-.06 10.28a22.04 22.04 0 0 0-13.55-4.7c-2.8 0-5.52.52-8.1 1.54l-.04.02a22.04 22.04 0 0 0-6.79 4.29l-.36.34a10.7 10.7 0 0 0-2.47-3.37l-.03-.03c-2.43-2.21-5.7-3.33-9.72-3.33-1.98 0-3.92.3-5.77.89h-.02l-.2.06a3.3 3.3 0 0 0-.68-.92l-.05-.05a3.35 3.35 0 0 0-2.26-.87h-.19l-10 .65.16-5.87v-.07a3.38 3.38 0 0 0-3.37-3.37h-.07l-4.17.1-.08-13.05a3.38 3.38 0 0 0-3.36-3.33m71.2 66.56h.01m22.76-47.56h-.02.02m29.64-16.94h-.01.01m-123.6-.82a2.14 2.14 0 0 1 1.48.6c.41.4.63.95.64 1.5l.1 14.3 5.42-.13h.04a2.1 2.1 0 0 1 2.13 2.14v.03l-.2 7.23 11.37-.73h.1a2.14 2.14 0 0 1 2.13 2.08v.18a17.73 17.73 0 0 1 6.83-1.37h.02c3.62 0 6.67.98 8.88 3a9.73 9.73 0 0 1 2.89 4.84 20 20 0 0 1 1.65-1.79 20.7 20.7 0 0 1 28.13 0c.26.24.5.5.73.76l.08-13.08c.01-1.16.94-2.1 2.12-2.1h14.38c.9 0 1.65.54 1.97 1.32.31-.13.63-.27.95-.39.69-.25 1.4-.47 2.11-.64h.01c.76-.18 1.55-.27 2.35-.28l.78-.03h.03c1.03 0 2.08.11 3.1.35a18.93 18.93 0 0 1 3.48 1.13 15.25 15.25 0 0 1 7.68 6.9c.2.37.39.74.56 1.11l.02-1.92c0-.64.3-1.25.81-1.65a2.1 2.1 0 0 1 1.81-.4l2.48.62c-.5-.73-.9-1.53-1.18-2.4v-.02.01c-.23-.71-.43-2.15-.6-3.65-.16-1.49-.5-5.7-.35-7.08.2-1.69.72-3.23 1.53-4.56.8-1.32 1.83-2.42 3.05-3.27a11.3 11.3 0 0 1 4.09-1.78 12.92 12.92 0 0 1 4.61-.22c1.69.2 3.24.62 4.65 1.22 1.46.63 2.72 1.5 3.73 2.57a9.85 9.85 0 0 1 2.26 4c.3 1 .43 2.1.43 3.24 0 .6-.11 1.86-.11 1.86s-.45 4.97-.6 6.11a8.4 8.4 0 0 1-1.72 4.24 10.28 10.28 0 0 1-3.27 2.74c-.52.27-1.06.5-1.63.71a2.13 2.13 0 0 1 1.22 2.2l-.93 7.21c.14-.24.27-.5.43-.74a21.09 21.09 0 0 1 13.03-9.1 20.64 20.64 0 0 1 8.4-.25 24.72 24.72 0 0 1 7.5 2.62v-.01h.01c1.2.67 2.35 1.42 3.38 2.24 1.1.86 2.04 1.83 2.8 2.88a2.12 2.12 0 0 1 .34 1.82l.3-.19a18.35 18.35 0 0 1 5.1-1.93 19.5 19.5 0 0 1 3.6-.48l.31-.01h.44c.98 0 1.96.07 2.94.23h.03l.38.08c1.28.26 2.54.64 3.76 1.16.27.1.53.23.8.35a2.12 2.12 0 0 1 1.93-1.35h.08l.26.02 14.02 2.4a2.12 2.12 0 0 1 1.75 1.81c.05.22.09.49.11.8.06.63.08 1.45.08 2.33a83.33 83.33 0 0 1-.19 5.16l-4.87 32.7c-.06.4-.3.78-.64 1.01v.01c-.25.17-.54.26-.84.27h-.04l-.27-.03-14.86-2.8a1.54 1.54 0 0 1-1.13-1.05c-.49.07-.98.11-1.47.12h-.74c-1.4-.02-2.81-.18-4.2-.46-1.01-.2-2.01-.5-2.96-.9a24.7 24.7 0 0 1-2.71-1.3h-.01a17.48 17.48 0 0 1-6.14-5.18c-.03.35-.1.75-.31 1.16a3.98 3.98 0 0 1-1.42 1.5c-1.98 1.24-4.48 1.38-6.69 1.44l-1.02.01c-1.85 0-3.68-.15-5.45-.44a24.26 24.26 0 0 1-7.62-2.58 21.2 21.2 0 0 1-6.08-4.88 18.96 18.96 0 0 1-3.68-6.75 16.59 16.59 0 0 1-.64-3.34l-.91 7.34c-.1.78-.76 1.34-1.52 1.34h-.07l-13.79-.76c-.8-.05-1.43-.7-1.44-1.5v-.03s-.6-5.9-.6-6.2l.03-3.19A15.72 15.72 0 0 1 453.2 96a14.61 14.61 0 0 1-5.42 4.14 20.37 20.37 0 0 1-7.6 1.66l-.83.03h-.06c-1.05 0-2.04-.1-2.96-.26l-.72-.17.2 5.85v.08c0 .19-.6 6.17-.6 6.17v.02a1.52 1.52 0 0 1-1.51 1.52h-.03l-15.81-.08c-.4 0-.8-.16-1.08-.45a1.54 1.54 0 0 1-.44-1.05s-.6-5.9-.6-6.2v-.05l.02-2.6a19.87 19.87 0 0 1-14.59 6.3 20.1 20.1 0 0 1-13.67-5.31 19.25 19.25 0 0 1-4.28-5.92 17.5 17.5 0 0 1-1.6-7.27l-11.78.4h-.08a2.7 2.7 0 0 1-1.04-.28 1.36 1.36 0 0 1-.73-.83l-.04-.17-.02-.22-.07-.66-.16-1.85-.2-2.55-.01-.05-.06-.16a.76.76 0 0 0-.24-.33.33.33 0 0 0-.13-.06l.25 15.65v.03c0 .38-.6 6.18-.6 6.18v.01a1.53 1.53 0 0 1-1.51 1.53l-14.53.14h-.02c-.82 0-1.48-.65-1.52-1.46l-.6-6.2-.64-23-1.93.05.14 15.77v.02c0 .25-.6 6.22-.6 6.22-.01.82-.67 1.5-1.5 1.5l-15.6.2h-.02c-.81 0-1.49-.63-1.53-1.45l-.23-1.74-.17-1.16c-.44 1.34-1 2.31-1.96 3.57a14.66 14.66 0 0 1-5.28 4.3 20.51 20.51 0 0 1-7.55 1.89 15.85 15.85 0 0 1-3.86-.12c-.17-.03-.36-.08-.53-.1l.36 5.8v.12c0 .32-.59 6.14-.59 6.14v.05c0 .38-.14.75-.4 1.04-.28.31-.68.48-1.09.5l-15.82.39h-.04a1.53 1.53 0 0 1-1.52-1.47s-.59-5.96-.6-6.2l-.14-6.2c-.63.84-1.32 1.62-2.09 2.33a19.87 19.87 0 0 1-13.63 5.32c-2.58 0-5.09-.48-7.44-1.41a19.88 19.88 0 0 1-6.23-3.91 17.2 17.2 0 0 1-4.28-5.94 35.54 35.54 0 0 1-2.61-10.62 8.4 8.4 0 0 1-4.98 2.82l3.02 12.42v.01c.04.16.06.32.06.48 0 .26-.62 5.94-.62 5.94l.02.25c0 .7-.47 1.32-1.17 1.5l-17.49 4.18c-.11.03-.23.04-.34.04h-.03a1.6 1.6 0 0 1-.8-.23 1.54 1.54 0 0 1-.67-.96l-11.8-51.85a42.27 42.27 0 0 1-.3-4.78c-.01-.56 0-1.06.06-1.46-.02-.1-.04-.2-.04-.31 0-.96.66-1.83 1.63-2.06a751.9 751.9 0 0 1 20.84-4.73l.45-.08.45-.08a34.93 34.93 0 0 1 6.41-.48c.56.01 1.11.03 1.67.07 2.71.19 5.26.83 7.55 1.9v.01a16.34 16.34 0 0 1 5.99 4.87 18.13 18.13 0 0 1 3.29 8.15c.08.53.13 1.1.13 1.69v.1c0 .52-.03 1.02-.07 1.53a20.41 20.41 0 0 1 14.96.14c2.4.96 4.55 2.32 6.38 4.02.34.32.64.66.96.99l-.27-11.05v-.04c0-1.15.91-2.1 2.06-2.13l14.39-.42h.06c.85 0 1.6.52 1.93 1.27.31-.14.62-.29.92-.41.69-.29 1.4-.52 2.11-.72h.01c.79-.2 1.57-.32 2.35-.35a14.66 14.66 0 0 1 3.9.2c1.2.23 2.37.58 3.5 1.03h.01l.01.01c.38.15.76.31 1.12.48l-.11-5.77v-.04c0-1.14.9-2.1 2.07-2.13l4.66-.14-.28-14.53v-.04c0-1.15.92-2.1 2.07-2.13l16.35-.33h.03" fill="#336394"/></g><path d="M312.24 64.5a25.61 25.61 0 0 1-1.87-.29 9.32 9.32 0 0 1-1.9-.55 4.74 4.74 0 0 1-1.4-.81 2.68 2.68 0 0 1-.74-1.12 2.99 2.99 0 0 1-.04-1.64 3.5 3.5 0 0 1 .93-1.9 4.29 4.29 0 0 1 1.77-1.01 6.86 6.86 0 0 1 2.34-.28c.72.02 1.43.08 2.03.18zm19.84-25.2-15.33 3.17-.22-.01c-.22 0-.45.08-.64.22a1.1 1.1 0 0 0-.45.75l-.12.8c-.62-.3-1.26-.59-1.9-.85a18.9 18.9 0 0 0-3.58-1.1l-.38-.08a17.14 17.14 0 0 0-3.19-.22l-.3.01c-1.17.05-2.31.2-3.42.45-1.77.4-3.39 1.01-4.82 1.83-1.44.83-2.7 1.85-3.75 3.02a16.53 16.53 0 0 0-2.64 4.05 21.69 21.69 0 0 0-1.56 4.85l-.11.53-.07.35c-.07.34-.12.7-.13 1-.43 3.78.06 7.14 1.45 9.97 1.41 2.85 3.83 5.2 7.16 6.97.86.49 1.77.92 2.68 1.29.93.38 1.9.67 2.89.87a23 23 0 0 0 4.13.46h.71c.61-.02 1.21-.07 1.8-.16.01.51.38.97.9 1.08l14.83 2.81c.08.02.17.02.26.02a1.14 1.14 0 0 0 1.1-.96l4.86-32.69c.1-.6.44-8.31-.16-8.42M288.4 58.35a1.12 1.12 0 0 0-.88-.2 17.24 17.24 0 0 1-3.15.37 19.19 19.19 0 0 1-3.18-.16c-.6-.1-1.16-.28-1.7-.54a4.36 4.36 0 0 1-1.32-.95 3.34 3.34 0 0 1-.78-1.27 3.3 3.3 0 0 1-.08-1.6c.08-.53.26-.97.54-1.32.3-.37.66-.68 1.08-.9.46-.24.95-.39 1.48-.45a6.48 6.48 0 0 1 1.73.04c.89.15 1.77.44 2.63.87a11 11 0 0 1 2.32 1.57c.2.17.48.28.75.28l.13-.01c.32-.04.6-.2.8-.47l7.03-9.9c.29-.4.29-.94 0-1.34-.73-.97-1.6-1.88-2.63-2.7a22.87 22.87 0 0 0-6.84-3.71 20.76 20.76 0 0 0-18.67 2.42 20 20 0 0 0-5.37 5.55 19.59 19.59 0 0 0-2.88 7.56c-.47 2.85-.32 5.56.44 8.03.76 2.48 1.97 4.7 3.6 6.62s3.64 3.52 5.96 4.78a23.88 23.88 0 0 0 7.5 2.54c1.75.3 3.56.44 5.39.44.34 0 .67 0 1-.02 2.21-.06 4.64-.2 6.5-1.38 1.93-1.23 1.55-2.85 1.48-3.39l.33-2.8-2.74-7.2a1.1 1.1 0 0 0-.47-.76m-63.19-12.56c-.2.42-.46.75-.8 1-.39.28-.84.49-1.38.63-.57.15-1.21.24-1.9.27l-.88.02h-.56l-.42-.02-.19-7.97c.54.03 1.09.07 1.64.14.88.12 1.7.36 2.41.7.68.34 1.21.8 1.65 1.39.42.55.64 1.3.68 2.23.03.66-.05 1.2-.25 1.6m-34.75 8.81a3.96 3.96 0 0 1-5.12 2.01c-.49-.2-.91-.47-1.29-.82a3.41 3.41 0 0 1-1.14-2.6 3.47 3.47 0 0 1 1.14-2.61c.38-.35.82-.63 1.3-.83a3.92 3.92 0 0 1 3 0 4.1 4.1 0 0 1 2.11 2.02c.2.42.3.91.3 1.43 0 .5-.1.96-.3 1.4m-78.69-10.95a19.21 19.21 0 0 0-1.56-3.87l1.74-.05.1 5.08a25.2 25.2 0 0 0-.28-1.16m-15.6 8.06c-.17.42-.42.75-.77 1.03-.37.29-.81.5-1.35.66-.58.17-1.22.28-1.9.33-.48.04-.96.06-1.52.06h-.32l-.43-7.97c.53.01 1.08.04 1.64.1.88.09 1.7.3 2.43.64.68.3 1.23.74 1.69 1.32.42.54.67 1.29.74 2.22a3.4 3.4 0 0 1-.2 1.61M61 58.97a3.85 3.85 0 0 1-2.1 2 3.88 3.88 0 0 1-3 0 4.4 4.4 0 0 1-1.3-.81 3.43 3.43 0 0 1-.84-1.18 3.49 3.49 0 0 1 .84-4.04c.36-.34.8-.61 1.29-.82a3.87 3.87 0 0 1 3 0A3.92 3.92 0 0 1 61 56.14c.22.43.32.9.32 1.43 0 .5-.11.97-.32 1.4M31 41.71c-.3.7-.72 1.34-1.27 1.9a8.52 8.52 0 0 1-2.02 1.5c-.42.23-.82.42-1.22.6l-2.16-9.16c.5-.07 1.02-.1 1.53-.1h.22a6.05 6.05 0 0 1 3.17.8c.47.28.87.65 1.3 1.22.14.16.27.34.39.54a3.64 3.64 0 0 1 .05 2.7m229.13-6.16-16.98-4.2a1.13 1.13 0 0 0-1.4 1.1l-.08 9.7c-.1-1.35-.32-2.67-.63-3.95a18.18 18.18 0 0 0-1.73-4.46 14.32 14.32 0 0 0-7.2-6.47 18.07 18.07 0 0 0-3.31-1.09 12.83 12.83 0 0 0-3.63-.3c-.75.01-1.48.1-2.18.26a23.27 23.27 0 0 0-3.91 1.39l-.21.1-.02-.64c0-.62-.5-1.12-1.13-1.12h-14.38c-.62 0-1.13.5-1.13 1.13l-.09 15.75a19.6 19.6 0 0 0-15.75-7.97 19.82 19.82 0 0 0-13.4 5.25 18.64 18.64 0 0 0-2.9 3.5c-.28-2.78-1.27-4.98-2.99-6.53-2-1.82-4.78-2.75-8.24-2.75-1.74 0-3.45.27-5.1.79-1 .31-1.87.72-2.7 1.16l-.03-1.73c0-.31-.14-.6-.37-.81-.2-.2-.48-.3-.76-.3h-.08l-12.41.8.23-8.3c0-.31-.11-.61-.34-.84-.21-.2-.5-.33-.8-.33h-.02l-6.43.17-.1-15.31a1.14 1.14 0 0 0-1.13-1.13h-.02l-16.33.33c-.63.02-1.12.54-1.11 1.16l.3 15.51-5.65.17c-.62.02-1.1.54-1.1 1.16l.14 7.46A18.16 18.16 0 0 0 99.17 32a13.58 13.58 0 0 0-3.62-.19c-.72.04-1.45.14-2.18.33-.68.19-1.35.4-1.99.67-.63.26-1.26.53-1.87.84l-.21.1-.03-.64a1.13 1.13 0 0 0-1.13-1.08h-.04l-14.37.42c-.62.02-1.11.54-1.1 1.16l.34 14a18.26 18.26 0 0 0-2.7-3.19 19.57 19.57 0 0 0-13.36-5.24 19.42 19.42 0 0 0-8.56 1.97l.01-.06a15.49 15.49 0 0 0 .33-3.18 17.09 17.09 0 0 0-3.22-9.24c-1.53-2-3.42-3.54-5.62-4.58a19.99 19.99 0 0 0-7.2-1.82 34.03 34.03 0 0 0-7.84.4l-.46.08-.45.07a6.6 6.6 0 0 0-.97.23c-3.3.68-6.6 1.4-9.88 2.16-3.29.75-7.8-3.82-11.12-3.02-.6.14-.14 6.12 0 6.73l11.8 51.84c.07.3.25.55.5.71a1.15 1.15 0 0 0 .87.15l17.48-4.2c.61-.14.98-.74.84-1.36l.55-5.74-5.09-12.95c1.7-.4 3.54-.64 5.11-1.53 1.7-.95 2.7-2.53 2.7-2.53s0 5.2 2.63 11.56a16.94 16.94 0 0 0 4.19 5.8 19.56 19.56 0 0 0 13.4 5.2c2.54 0 4.99-.45 7.28-1.38 2.29-.9 4.33-2.19 6.08-3.82a18.4 18.4 0 0 0 3.15-3.88l-.16 8.15.5 6.06c.01.3.14.59.35.8.21.19.49.3.78.3h.03l15.82-.39a1.13 1.13 0 0 0 1.1-1.2l.41-5.57-1.2-7.18c.68.17 1.36.3 2 .41a15.53 15.53 0 0 0 3.77.11c2.84-.2 5.33-.82 7.4-1.84a14.3 14.3 0 0 0 5.15-4.18c1.3-1.73 1.83-2.8 2.36-5.15.07-.28.7 4.65.7 4.65.02.63.53 1.12 1.15 1.12l15.6-.2a1.14 1.14 0 0 0 1.13-1.15l.5-5.9-.7-16.44 3.77-.1.3 23.72.54 5.86c.02.61.52 1.1 1.13 1.1h.02l14.52-.13a1.13 1.13 0 0 0 1.12-1.16l.34-5.84-.69-16.25c.33-.11.67-.17.99-.17.76 0 .94.94.94.94s.38 5.1.47 5.4c.16.54.8.79 1.43.83h.04l12.17-.4v.2c0 2.6.52 5.06 1.57 7.3a18.95 18.95 0 0 0 10.3 9.63c2.3.92 4.76 1.38 7.3 1.38s5-.46 7.28-1.38c2.3-.92 4.34-2.21 6.08-3.83.83-.78 1.58-1.64 2.26-2.56l-.52 4.53.46 6.15c0 .3.11.58.33.8.2.22.5.34.8.34l15.8.07h.03a1.13 1.13 0 0 0 1.11-1.16l.54-5.87-.95-6.9a16.08 16.08 0 0 0 5.77.7c2.84-.12 5.35-.67 7.45-1.63a14.22 14.22 0 0 0 5.27-4.03 15.98 15.98 0 0 0 2.94-6.04c.28-1.1.48-2.27.6-3.5l-.6 9.43.48 6.07c0 .6.46 1.1 1.07 1.14l13.77.77h.07c.56 0 1.05-.42 1.12-1l2.72-21.84c.07-.57.44-6.06-.12-6.2m-13.11-9.91a9.96 9.96 0 0 0 3.2 2.2 13.97 13.97 0 0 0 11.96-.37 9.87 9.87 0 0 0 3.15-2.62 7.97 7.97 0 0 0 1.65-4.05c.2-1.74 1.03-6.71.29-9.19-.42-1.4-1.68 1.89-2.6.9a10.2 10.2 0 0 0-3.4-2.34 16.18 16.18 0 0 0-5.99-1.24c-.9 0-1.81.1-2.67.3-1.38.3-2.64.85-3.73 1.62-1.11.77-2.68-3-3.4-1.8-.73 1.2-1.5 2.4-1.33 5.87.08 1.58.48 6.1.9 7.36a8.45 8.45 0 0 0 1.97 3.36" fill="#4f8fcc"/><g transform="translate(-214.79 -39.03)" clip-path="url(#h)"><path d="M527.03 103.54a25.62 25.62 0 0 1-1.87-.29c-.67-.13-1.32-.32-1.9-.55a4.74 4.74 0 0 1-1.4-.82c-.34-.3-.58-.67-.74-1.11a2.99 2.99 0 0 1-.04-1.64 3.5 3.5 0 0 1 .93-1.9 4.3 4.3 0 0 1 1.77-1.02 6.86 6.86 0 0 1 2.34-.28c.72.02 1.42.09 2.03.18zm19.84-25.2-15.33 3.16h-.22a1.1 1.1 0 0 0-1.1.97l-.11.8c-.62-.3-1.26-.6-1.9-.86a18.9 18.9 0 0 0-3.58-1.1l-.38-.08a17.13 17.13 0 0 0-3.19-.21h-.3c-1.17.06-2.31.21-3.42.46a15.53 15.53 0 0 0-8.57 4.85 16.53 16.53 0 0 0-2.64 4.04 21.69 21.69 0 0 0-1.57 4.86l-.1.52-.08.36c-.07.34-.11.7-.12 1-.43 3.78.06 7.13 1.45 9.96 1.41 2.86 3.83 5.2 7.16 6.98.86.48 1.76.91 2.68 1.28.92.38 1.9.68 2.89.88 1.36.27 2.75.43 4.12.45h.72c.6-.01 1.21-.06 1.8-.16.01.52.38.98.9 1.09l14.83 2.8c.08.02.16.03.25.02a1.14 1.14 0 0 0 1.1-.96l4.87-32.68c.1-.61.44-8.32-.16-8.43zM503.2 97.38a1.1 1.1 0 0 0-.66-.21c-.07 0-.15 0-.22.02a17.22 17.22 0 0 1-3.15.36 19.16 19.16 0 0 1-3.18-.15c-.6-.1-1.16-.28-1.7-.54a4.36 4.36 0 0 1-1.32-.95 3.41 3.41 0 0 1-.78-1.27 3.3 3.3 0 0 1-.08-1.61c.08-.53.26-.97.54-1.32.3-.37.66-.67 1.08-.9a4.4 4.4 0 0 1 1.48-.45 6.48 6.48 0 0 1 1.73.04 10.51 10.51 0 0 1 4.94 2.44c.22.18.49.28.76.28h.13c.32-.04.6-.21.8-.47l7.03-9.91c.28-.4.28-.94 0-1.33-.73-.98-1.6-1.89-2.63-2.7a22.87 22.87 0 0 0-6.84-3.72 20.76 20.76 0 0 0-18.68 2.42 20 20 0 0 0-5.36 5.56 19.59 19.59 0 0 0-2.88 7.56 17.5 17.5 0 0 0 .44 8.03 18.5 18.5 0 0 0 3.6 6.61 20.83 20.83 0 0 0 5.96 4.78 23.88 23.88 0 0 0 7.5 2.55 33.02 33.02 0 0 0 6.4.42c2.2-.06 4.63-.21 6.49-1.39 1.93-1.22 1.55-2.85 1.48-3.38l.33-2.81-2.74-7.19a1.1 1.1 0 0 0-.47-.77zm-63.19-12.56c-.2.43-.46.75-.8 1-.39.28-.84.5-1.38.63-.57.15-1.21.24-1.9.28l-.88.02h-.56l-.42-.03-.19-7.97c.54.03 1.09.08 1.64.15.88.11 1.7.35 2.41.7a3.9 3.9 0 0 1 2.33 3.62c.03.66-.05 1.2-.25 1.6zm-34.75 8.8a3.96 3.96 0 0 1-5.12 2.02c-.49-.2-.91-.48-1.29-.82a3.41 3.41 0 0 1-1.14-2.6 3.47 3.47 0 0 1 1.14-2.62c.38-.34.82-.62 1.3-.82a3.92 3.92 0 0 1 3 0 4.1 4.1 0 0 1 2.11 2.01 3.4 3.4 0 0 1 0 2.83zm-78.69-10.94a19.3 19.3 0 0 0-1.56-3.88l1.74-.05.1 5.09a25.2 25.2 0 0 0-.28-1.16zm-15.6 8.06c-.17.42-.43.74-.77 1.02-.37.29-.81.5-1.35.67-.58.17-1.22.28-1.9.33-.48.03-.96.06-1.52.06h-.32l-.43-7.97c.53 0 1.08.04 1.64.1.88.08 1.7.3 2.43.63a4.4 4.4 0 0 1 1.69 1.33 4 4 0 0 1 .74 2.21 3.4 3.4 0 0 1-.2 1.62zM275.8 98a3.85 3.85 0 0 1-2.1 2 3.88 3.88 0 0 1-3 0 4.4 4.4 0 0 1-1.3-.82 3.43 3.43 0 0 1-.84-1.17 3.49 3.49 0 0 1 .84-4.04c.36-.34.8-.62 1.29-.82a3.87 3.87 0 0 1 3 0 3.92 3.92 0 0 1 2.11 2.02c.22.43.32.9.32 1.42 0 .5-.11.97-.32 1.4zm-30.01-17.26c-.29.7-.71 1.34-1.26 1.9a8.52 8.52 0 0 1-2.02 1.5c-.42.22-.83.42-1.22.6l-2.16-9.16c.5-.07 1.02-.1 1.53-.1h.22c.54 0 1.08.06 1.59.18.56.13 1.08.33 1.58.62.47.28.86.64 1.3 1.22.14.16.27.34.39.54a3.58 3.58 0 0 1 .05 2.7zm229.13-6.16-16.98-4.2a1.13 1.13 0 0 0-1.4 1.1l-.08 9.69a25.3 25.3 0 0 0-.63-3.94 18.18 18.18 0 0 0-1.73-4.47 14.32 14.32 0 0 0-7.2-6.47 18.82 18.82 0 0 0-3.31-1.08 12.83 12.83 0 0 0-3.63-.3c-.75 0-1.48.1-2.18.26a19.4 19.4 0 0 0-3.91 1.39l-.22.1v-.65a1.14 1.14 0 0 0-1.14-1.11h-14.38c-.62 0-1.13.5-1.13 1.12l-.1 15.76c-.7-.99-1.5-1.9-2.38-2.72a19.6 19.6 0 0 0-13.36-5.25 19.82 19.82 0 0 0-13.4 5.25 18.64 18.64 0 0 0-2.9 3.5c-.28-2.78-1.28-4.98-2.99-6.54-2-1.82-4.78-2.75-8.24-2.75a16.58 16.58 0 0 0-7.8 1.95l-.03-1.73c0-.3-.14-.6-.37-.8-.2-.2-.48-.3-.76-.3h-.08l-12.42.8.23-8.31c0-.3-.1-.61-.33-.83-.21-.21-.5-.33-.81-.33h-.02l-6.43.16-.09-15.3a1.14 1.14 0 0 0-1.14-1.13h-.02l-16.32.33c-.63.01-1.12.53-1.11 1.16l.3 15.5-5.65.18c-.62.01-1.1.53-1.1 1.16l.14 7.46a18.16 18.16 0 0 0-5.86-2.22 13.58 13.58 0 0 0-3.63-.2 11.88 11.88 0 0 0-4.16 1.01c-.63.26-1.26.53-1.87.83l-.22.1-.02-.63a1.13 1.13 0 0 0-1.14-1.09h-.03l-14.37.43c-.62.02-1.11.53-1.1 1.16l.34 13.99a18.26 18.26 0 0 0-2.7-3.19 19.57 19.57 0 0 0-13.36-5.23 19.42 19.42 0 0 0-8.56 1.97l.01-.06a15.49 15.49 0 0 0 .33-3.18 17.09 17.09 0 0 0-3.22-9.24c-1.53-2-3.43-3.54-5.62-4.59a19.99 19.99 0 0 0-7.2-1.81 34.03 34.03 0 0 0-7.84.4l-.46.07-.45.08a6.6 6.6 0 0 0-.97.22c-3.3.69-6.6 1.4-9.88 2.17-3.29.75-7.8-3.83-11.12-3.03-.6.15-.14 6.13 0 6.73l11.8 51.85c.07.29.25.55.5.71a1.15 1.15 0 0 0 .87.14l17.48-4.19c.6-.14.98-.75.84-1.36l.55-5.74-5.09-12.96c1.7-.4 3.54-.64 5.11-1.52 1.7-.96 2.7-2.53 2.7-2.53s0 5.2 2.63 11.55a16.94 16.94 0 0 0 4.19 5.8 19.56 19.56 0 0 0 13.4 5.2c2.54.01 4.99-.45 7.28-1.37 2.29-.9 4.33-2.2 6.08-3.82a18.4 18.4 0 0 0 3.15-3.88l-.16 8.15.5 6.05c.01.3.14.6.35.8.21.2.49.3.78.3h.03l15.82-.39a1.13 1.13 0 0 0 1.1-1.2l.41-5.56-1.21-7.18c.7.16 1.37.3 2.02.4a15.53 15.53 0 0 0 3.76.12c2.84-.2 5.33-.83 7.4-1.85a14.3 14.3 0 0 0 5.15-4.18 11.3 11.3 0 0 0 2.36-5.14c.07-.29.7 4.65.7 4.65.02.62.53 1.11 1.15 1.11l15.6-.2a1.14 1.14 0 0 0 1.13-1.15l.5-5.9-.7-16.44 3.77-.1.3 23.72.54 5.87c.02.6.52 1.1 1.13 1.1h.01l14.53-.14c.3 0 .59-.13.8-.34.2-.22.33-.5.32-.81l.34-5.84-.69-16.26c.33-.1.67-.16.99-.16.76 0 .94.94.94.94s.38 5.09.47 5.4c.16.53.8.78 1.43.83h.04L382 92v.21c0 2.6.52 5.05 1.57 7.3a18.95 18.95 0 0 0 10.3 9.62c2.3.92 4.76 1.39 7.3 1.39s5-.47 7.28-1.39a18.9 18.9 0 0 0 8.34-6.38l-.52 4.52.46 6.15a1.11 1.11 0 0 0 1.13 1.14l15.8.08h.03a1.13 1.13 0 0 0 1.11-1.17l.54-5.87-.95-6.9a16.08 16.08 0 0 0 5.77.7c2.84-.12 5.35-.67 7.45-1.63 2.14-.97 3.9-2.32 5.27-4.02a15.98 15.98 0 0 0 2.94-6.05c.28-1.1.48-2.27.6-3.49l-.6 9.42.48 6.07c0 .61.46 1.11 1.07 1.15l13.77.76h.07c.56 0 1.05-.42 1.12-.99l2.72-21.85c.07-.57.44-6.05-.12-6.2zm-13.11-9.92a9.96 9.96 0 0 0 3.2 2.2 13.97 13.97 0 0 0 11.96-.36 9.87 9.87 0 0 0 3.15-2.63 7.97 7.97 0 0 0 1.65-4.04c.2-1.75 1.03-6.72.29-9.2-.42-1.4-1.67 1.9-2.6.9a10.2 10.2 0 0 0-3.4-2.34 16.18 16.18 0 0 0-5.99-1.24c-.9 0-1.81.1-2.67.3-1.38.3-2.64.85-3.73 1.63-1.11.77-2.68-3-3.4-1.8-.73 1.2-1.49 2.4-1.33 5.86.08 1.59.48 6.1.9 7.37a8.45 8.45 0 0 0 1.97 3.35z" fill="none" stroke="#4f8fcc" stroke-width="1.18"/></g><path d="m24.34 30.36 2.16 9.16c.4-.18.8-.37 1.22-.6a8.52 8.52 0 0 0 2.02-1.5c.55-.56.98-1.2 1.26-1.9.26-.64.3-1.33.14-2.11a1.4 1.4 0 0 0-.19-.6 2.95 2.95 0 0 0-.4-.53 4.31 4.31 0 0 0-1.29-1.22 5.72 5.72 0 0 0-1.58-.62 8.2 8.2 0 0 0-1.59-.18h-.22c-.51 0-1.03.03-1.53.1m-9.1 44.96a1.14 1.14 0 0 1-1.09-.88L2.3 22.68c-.14-.6.23-1.2.83-1.35a780.57 780.57 0 0 1 20.78-4.72l.45-.08.45-.08a33.69 33.69 0 0 1 7.84-.39c2.6.18 5.03.79 7.2 1.82 2.2 1.04 4.1 2.58 5.63 4.57a17.13 17.13 0 0 1 3.22 9.25 15.51 15.51 0 0 1-.68 4.56 17 17 0 0 1-3.2 6.07 22.3 22.3 0 0 1-4.9 4.35A28.7 28.7 0 0 1 34 49.64c-1.7.61-3.4 1.13-5.11 1.53l4.54 18.7c.14.6-.23 1.2-.84 1.36l-17.07 4.06-.28.03" fill="#fff"/><g transform="translate(-214.79 -39.03)" clip-path="url(#i)"><g clip-path="url(#j)"><path d="m240.21 137.62-52.95-52.95 52.95-52.95 52.95 52.95z" fill="#fff"/></g></g><g transform="translate(-214.79 -39.03)" clip-path="url(#k)"><path d="m239.13 69.4 2.16 9.15c.4-.18.8-.37 1.22-.6a8.6 8.6 0 0 0 2.02-1.5 5.8 5.8 0 0 0 1.26-1.9 3.64 3.64 0 0 0-.06-2.7c-.1-.2-.24-.38-.39-.54a4.31 4.31 0 0 0-1.3-1.22c-.48-.28-1-.49-1.57-.62a8.19 8.19 0 0 0-1.59-.18h-.22c-.51 0-1.03.04-1.53.1zm-9.1 44.95a1.14 1.14 0 0 1-1.09-.88l-11.86-51.75c-.13-.6.24-1.2.84-1.35 3.32-.8 6.63-1.58 9.92-2.33 3.3-.76 6.59-1.48 9.88-2.16.26-.09.61-.17.98-.23l.44-.07.46-.08a33.69 33.69 0 0 1 7.84-.4c2.6.18 5.03.8 7.2 1.82 2.2 1.04 4.1 2.58 5.62 4.58a17.09 17.09 0 0 1 3.22 9.24 15.5 15.5 0 0 1-.67 4.56 16.96 16.96 0 0 1-3.2 6.07 22.3 22.3 0 0 1-4.9 4.36 28.9 28.9 0 0 1-5.92 2.94c-1.7.62-3.41 1.13-5.12 1.53l4.55 18.7c.14.6-.24 1.21-.85 1.36l-17.07 4.06-.27.03z" fill="none" stroke="#7ab8e3" stroke-width="2.59"/></g><path d="M57.42 47.63a4.3 4.3 0 0 0-2.81 1.12 3.64 3.64 0 0 0-1.14 2.63 3.47 3.47 0 0 0 1.14 2.6c.38.33.8.61 1.28.8a3.88 3.88 0 0 0 3.01 0 3.98 3.98 0 0 0 2.11-2c.21-.44.32-.9.32-1.4 0-.53-.1-1-.31-1.43a3.85 3.85 0 0 0-2.12-2.02c-.47-.2-.97-.3-1.48-.3m-.5 22.05a19.64 19.64 0 0 1-13.4-5.21 18.74 18.74 0 0 1-4.2-5.8 16.96 16.96 0 0 1-1.57-7.3c0-2.62.53-5.1 1.58-7.34a18.6 18.6 0 0 1 4.18-5.8 19.74 19.74 0 0 1 26.77-.01 18.71 18.71 0 0 1 4.2 5.82 17.29 17.29 0 0 1 1.57 7.34 17 17 0 0 1-1.58 7.29 18.56 18.56 0 0 1-4.2 5.8 19.5 19.5 0 0 1-13.36 5.21" fill="#fff"/><g transform="translate(-214.79 -39.03)" clip-path="url(#l)"><g clip-path="url(#m)"><path d="m271.68 127.86-37.5-37.5 37.5-37.5 37.5 37.5z" fill="#fff"/></g></g><path d="M57.42 47.63a4.3 4.3 0 0 0-2.81 1.12 3.64 3.64 0 0 0-1.14 2.62 3.47 3.47 0 0 0 1.14 2.6c.38.34.8.62 1.29.82.47.2.97.3 1.52.3a3.98 3.98 0 0 0 3.6-2.3 3.42 3.42 0 0 0 0-2.84 4.02 4.02 0 0 0-3.6-2.32zm-.5 22.05a19.64 19.64 0 0 1-13.4-5.21 18.68 18.68 0 0 1-4.2-5.8 17.02 17.02 0 0 1-1.57-7.3c0-2.62.53-5.1 1.58-7.34a18.6 18.6 0 0 1 4.18-5.8 19.66 19.66 0 0 1 13.4-5.25 19.67 19.67 0 0 1 13.36 5.24 18.71 18.71 0 0 1 4.21 5.82 17.28 17.28 0 0 1 1.57 7.33 17 17 0 0 1-1.58 7.3 18.56 18.56 0 0 1-4.2 5.8 19.51 19.51 0 0 1-13.36 5.21z" fill="none" stroke="#7ab8e3" stroke-width="2.59"/><path d="M90.32 47.59h.32c.57 0 1.05-.02 1.53-.06a9.08 9.08 0 0 0 1.9-.33 4.2 4.2 0 0 0 1.34-.66c.35-.28.6-.61.78-1.02.18-.43.25-.97.2-1.63a4.01 4.01 0 0 0-.74-2.21 4.46 4.46 0 0 0-1.69-1.32 7.67 7.67 0 0 0-2.43-.64c-.56-.06-1.1-.1-1.64-.1zM74.89 75.9c-.29 0-.56-.12-.77-.31-.22-.2-.34-.5-.35-.8l-1.13-47.38a1.13 1.13 0 0 1 1.1-1.16l14.37-.42h.03c.6 0 1.1.47 1.13 1.08l.03.64.21-.1c.61-.3 1.25-.58 1.87-.84.65-.26 1.32-.49 2-.67.72-.2 1.46-.3 2.17-.33a12.91 12.91 0 0 1 3.63.19c1.14.22 2.26.55 3.34.99a14.2 14.2 0 0 1 7.4 6.25c.8 1.33 1.42 2.81 1.86 4.4.44 1.6.72 3.22.83 4.86.21 2.75.05 5.32-.47 7.62a15.96 15.96 0 0 1-2.76 6.13 14.32 14.32 0 0 1-5.14 4.19 20.3 20.3 0 0 1-7.41 1.84 15.49 15.49 0 0 1-3.77-.11c-.64-.1-1.32-.24-2.01-.41l.8 12.75c.01.3-.1.6-.3.83-.21.23-.5.36-.8.37l-15.82.4z" fill="#fff"/><g transform="translate(-214.79 -39.03)" clip-path="url(#n)"><g clip-path="url(#o)"><path d="m307.51 135.03-45.27-45.27 45.27-45.26 45.27 45.26z" fill="#fff"/></g></g><g transform="translate(-214.79 -39.03)" clip-path="url(#p)"><path d="M305.11 86.62h.32c.57 0 1.05-.02 1.53-.06a9.08 9.08 0 0 0 1.9-.33c.53-.16.97-.37 1.34-.67.34-.27.6-.6.78-1.02.18-.42.25-.96.2-1.61a4.04 4.04 0 0 0-.74-2.22 4.45 4.45 0 0 0-1.69-1.32 7.6 7.6 0 0 0-2.43-.64c-.56-.06-1.1-.09-1.64-.1zm-15.42 28.31c-.3 0-.57-.11-.78-.31-.22-.2-.34-.5-.35-.8l-1.13-47.38a1.14 1.14 0 0 1 1.1-1.16l14.37-.42h.03c.6 0 1.1.47 1.13 1.08l.03.64.21-.1c.61-.3 1.25-.58 1.87-.84.65-.26 1.31-.49 2-.67.72-.19 1.46-.3 2.17-.33a12.91 12.91 0 0 1 3.63.2c1.14.21 2.26.55 3.34.98a14.2 14.2 0 0 1 7.4 6.25c.8 1.33 1.42 2.82 1.86 4.41.44 1.59.72 3.21.83 4.86.21 2.75.05 5.3-.47 7.6a15.96 15.96 0 0 1-2.76 6.14 14.32 14.32 0 0 1-5.14 4.19 20.21 20.21 0 0 1-7.41 1.84 15.49 15.49 0 0 1-3.77-.11c-.64-.1-1.32-.24-2.01-.41l.8 12.75c.01.3-.1.6-.3.83-.21.23-.5.36-.8.37l-15.82.4z" fill="none" stroke="#7ab8e3" stroke-width="2.59"/></g><path d="M113.58 56.67c-.61 0-1.13-.49-1.14-1.1l-.48-22.04-5.67.16h-.03c-.3 0-.57-.11-.79-.31-.21-.2-.34-.5-.35-.8l-.23-12.02c0-.62.49-1.14 1.1-1.16l5.66-.17-.3-15.51a1.13 1.13 0 0 1 1.1-1.16l16.33-.33h.02a1.13 1.13 0 0 1 1.14 1.12l.09 15.31 6.43-.16h.01c.3 0 .6.12.82.33.22.22.33.53.33.83l-.33 12.06c-.02.6-.5 1.09-1.1 1.1l-6.08.17.2 22.34c0 .62-.5 1.14-1.12 1.14l-15.6.2z" fill="#fff"/><g transform="translate(-214.79 -39.03)" clip-path="url(#q)"><g clip-path="url(#r)"><path d="m336.04 112.07-43.59-43.6 43.59-43.58 43.6 43.59z" fill="#fff"/></g></g><g transform="translate(-214.79 -39.03)" clip-path="url(#s)"><path d="M328.37 95.7c-.61 0-1.13-.49-1.14-1.1l-.48-22.04-5.67.16h-.04c-.28 0-.56-.11-.78-.31a1.2 1.2 0 0 1-.35-.8l-.23-12.02c0-.62.49-1.14 1.1-1.16l5.65-.17-.3-15.5a1.14 1.14 0 0 1 1.11-1.17l16.33-.33h.02a1.13 1.13 0 0 1 1.14 1.12l.09 15.32 6.43-.17h.01c.3 0 .6.12.82.33.22.23.34.53.33.84l-.33 12.05c-.02.6-.5 1.09-1.1 1.1l-6.08.17.2 22.34c0 .62-.5 1.14-1.12 1.14l-15.6.2z" fill="none" stroke="#7ab8e3" stroke-width="2.59"/></g><path d="M135.85 63.57c-.6 0-1.1-.49-1.12-1.1l-.94-33.17c-.02-.6.45-1.12 1.06-1.16l14.96-.97h.07a1.13 1.13 0 0 1 1.13 1.1l.04 1.73a16.77 16.77 0 0 1 7.8-1.95c3.46 0 6.23.93 8.23 2.76 2.04 1.85 3.08 4.61 3.08 8.2 0 1.13-.02 2.25-.07 3.36l-.13 3.14c-.02.59-.5 1.2-1.1 1.22l-13.82.46h-.05a1.13 1.13 0 0 1-1.12-1.26c.07-.6.16-1.2.26-1.83.1-.54.14-1.08.14-1.65 0-.76-.22-1.35-.67-1.83-.43-.46-.68-.6-1.44-.6a3 3 0 0 0-1 .17l.35 22.1c.01.3-.1.59-.31.8-.22.21-.5.34-.8.34l-14.53.14z" fill="#fff"/><g transform="translate(-214.79 -39.03)" clip-path="url(#t)"><g clip-path="url(#u)"><path d="m366.75 120.79-36.4-36.4L366.75 48l36.4 36.4z" fill="#fff"/></g></g><path d="M135.85 63.57c-.6 0-1.1-.49-1.12-1.1l-.94-33.17c-.02-.6.45-1.12 1.06-1.16l14.96-.97h.07a1.13 1.13 0 0 1 1.13 1.1l.04 1.73a16.77 16.77 0 0 1 7.8-1.95c3.46 0 6.23.93 8.23 2.76 2.05 1.85 3.08 4.61 3.08 8.2 0 1.13-.02 2.25-.07 3.36l-.13 3.14c-.02.59-.5 1.2-1.1 1.22l-13.82.46h-.05a1.14 1.14 0 0 1-1.12-1.26c.07-.6.16-1.2.26-1.83.1-.54.14-1.08.14-1.65 0-.76-.22-1.35-.67-1.83-.43-.46-.68-.6-1.45-.6a3 3 0 0 0-.99.17l.35 22.1c.01.3-.1.59-.31.8-.22.21-.5.34-.8.34l-14.53.14z" fill="none" stroke="#7ab8e3" stroke-width="2.59"/><path d="M186.87 43.26c-.55 0-1.04.1-1.52.3-.47.19-.91.47-1.29.81a3.66 3.66 0 0 0-1.13 2.63 3.42 3.42 0 0 0 1.14 2.59c.37.35.8.62 1.28.82a3.9 3.9 0 0 0 3 0 4 4 0 0 0 2.12-2 3.38 3.38 0 0 0 .01-2.84 3.9 3.9 0 0 0-2.13-2.02 3.8 3.8 0 0 0-1.48-.3m-.5 22.05a19.72 19.72 0 0 1-13.4-5.21 18.95 18.95 0 0 1-4.2-5.8 17.13 17.13 0 0 1-1.57-7.3c0-2.61.53-5.08 1.57-7.33a18.8 18.8 0 0 1 10.3-9.66 19.51 19.51 0 0 1 14.59 0 19.6 19.6 0 0 1 6.07 3.84 18.7 18.7 0 0 1 4.2 5.82 17.26 17.26 0 0 1 1.58 7.34c0 2.6-.53 5.06-1.58 7.3a18.83 18.83 0 0 1-10.27 9.62 19.47 19.47 0 0 1-7.29 1.38" fill="#fff"/><g transform="translate(-214.79 -39.03)" clip-path="url(#v)"><g clip-path="url(#w)"><path d="m401.14 123.48-37.5-37.5 37.5-37.51 37.5 37.5z" fill="#fff"/></g></g><path d="M186.87 43.26a4.33 4.33 0 0 0-2.81 1.11 3.66 3.66 0 0 0-1.13 2.63 3.42 3.42 0 0 0 1.14 2.59c.37.35.8.62 1.28.82a3.9 3.9 0 0 0 3 0 4 4 0 0 0 2.12-2 3.38 3.38 0 0 0 .01-2.84 3.98 3.98 0 0 0-3.61-2.31zm-.5 22.04a19.66 19.66 0 0 1-13.4-5.21 18.95 18.95 0 0 1-4.2-5.8 17.13 17.13 0 0 1-1.57-7.3c0-2.61.53-5.08 1.57-7.34a18.77 18.77 0 0 1 10.3-9.65 19.52 19.52 0 0 1 14.59 0c2.29.93 4.33 2.22 6.07 3.84a18.71 18.71 0 0 1 4.2 5.81 17.3 17.3 0 0 1 1.58 7.35c0 2.6-.53 5.06-1.58 7.3a18.78 18.78 0 0 1-4.2 5.79 19.47 19.47 0 0 1-13.36 5.21z" fill="none" stroke="#7ab8e3" stroke-width="2.59"/><path d="m219.29 41.5.41.02h.57c.29 0 .59 0 .88-.02a9.17 9.17 0 0 0 1.9-.27c.53-.14.99-.35 1.37-.64.35-.25.6-.57.8-1 .2-.4.28-.94.26-1.6a3.94 3.94 0 0 0-.68-2.24 4.5 4.5 0 0 0-1.65-1.38 7.94 7.94 0 0 0-2.41-.7c-.56-.07-1.1-.12-1.64-.14zm-.4 27.92h-.01l-15.81-.08a1.13 1.13 0 0 1-1.13-1.14l.28-47.4c0-.61.5-1.12 1.13-1.12h14.38c.62 0 1.13.5 1.13 1.12l.02.64.2-.1c.64-.28 1.27-.54 1.91-.78.66-.24 1.33-.44 2.01-.6a9.9 9.9 0 0 1 2.18-.26l.72-.03c.97 0 1.96.1 2.91.32 1.13.25 2.24.62 3.32 1.08a14.24 14.24 0 0 1 7.2 6.48 18.18 18.18 0 0 1 1.72 4.46c.39 1.57.62 3.2.69 4.88.12 2.76-.12 5.31-.7 7.6-.6 2.33-1.6 4.36-2.95 6.04a14.18 14.18 0 0 1-5.26 4.03 20.14 20.14 0 0 1-8.27 1.65 16.07 16.07 0 0 1-4.96-.73l.42 12.77a1.12 1.12 0 0 1-1.12 1.17" fill="#fff"/><g transform="translate(-214.79 -39.03)" clip-path="url(#x)"><g clip-path="url(#y)"><path d="m436.68 128.41-44.84-44.84 44.84-44.84 44.84 44.84z" fill="#fff"/></g></g><path d="m219.29 41.5.41.02h.57c.3 0 .59 0 .88-.02a9.17 9.17 0 0 0 1.9-.27c.53-.14.99-.35 1.37-.64.35-.25.6-.57.8-1 .2-.4.28-.94.26-1.6a3.91 3.91 0 0 0-2.33-3.62 7.94 7.94 0 0 0-2.41-.7c-.56-.07-1.1-.12-1.64-.14zm-.4 27.92h-.01l-15.81-.08a1.13 1.13 0 0 1-1.13-1.14l.28-47.4c0-.61.5-1.12 1.13-1.12h14.38c.62 0 1.13.5 1.13 1.12l.02.64.2-.1c.64-.28 1.27-.54 1.91-.78.66-.24 1.33-.44 2.01-.6.7-.17 1.43-.26 2.18-.26l.72-.03c.97 0 1.96.1 2.91.32 1.13.25 2.24.62 3.32 1.08a14.24 14.24 0 0 1 7.2 6.48 18.18 18.18 0 0 1 1.72 4.46c.39 1.57.62 3.2.69 4.88a25.9 25.9 0 0 1-.7 7.6 16 16 0 0 1-2.94 6.04 14.23 14.23 0 0 1-5.27 4.03 20.14 20.14 0 0 1-8.27 1.65 16.07 16.07 0 0 1-4.96-.73l.42 12.77a1.12 1.12 0 0 1-1.12 1.17z" fill="none" stroke="#7ab8e3" stroke-width="2.59"/><path d="M255.82 22.82a14.03 14.03 0 0 1-5.6-1.18 10 10 0 0 1-3.2-2.2 8.47 8.47 0 0 1-1.96-3.35 9.96 9.96 0 0 1-.34-4.3 9.87 9.87 0 0 1 7.9-8.77 12.04 12.04 0 0 1 4.28-.18c1.6.2 3.07.58 4.37 1.14a9.95 9.95 0 0 1 3.4 2.34 8.7 8.7 0 0 1 2.03 3.6c.4 1.37.5 2.95.3 4.7a7.97 7.97 0 0 1-1.66 4.04 9.86 9.86 0 0 1-3.14 2.62c-1.2.64-2.52 1.09-3.92 1.33-.83.14-1.66.21-2.46.21" fill="#fff"/><g transform="translate(-214.79 -39.03)" clip-path="url(#z)"><g clip-path="url(#A)"><path d="m470.64 73.2-21.38-21.4 21.38-21.38 21.38 21.38z" fill="#fff"/></g></g><g transform="translate(-214.79 -39.03)" clip-path="url(#B)"><path d="M470.6 61.86a14.03 14.03 0 0 1-5.6-1.18 10 10 0 0 1-3.2-2.2 8.45 8.45 0 0 1-1.96-3.36 9.96 9.96 0 0 1-.34-4.3c.2-1.55.67-2.96 1.4-4.16a9.82 9.82 0 0 1 2.77-2.97 10.5 10.5 0 0 1 3.74-1.63 12.04 12.04 0 0 1 4.27-.2c1.6.2 3.07.59 4.37 1.15a10.1 10.1 0 0 1 3.4 2.34 8.9 8.9 0 0 1 2.03 3.6c.4 1.37.5 2.95.3 4.7a7.97 7.97 0 0 1-1.66 4.04 9.86 9.86 0 0 1-3.14 2.62 13 13 0 0 1-3.91 1.33c-.84.14-1.67.21-2.47.21z" fill="none" stroke="#7ab8e3" stroke-width="2.59"/></g><path d="M256.41 58.4h-.06l-13.78-.77a1.13 1.13 0 0 1-1.07-1.14l.25-30.23c0-.34.16-.67.43-.88a1.13 1.13 0 0 1 .97-.21l16.98 4.19c.56.14.93.68.85 1.25l-3.45 26.8c-.07.57-.55.98-1.12.98" fill="#fff"/><g transform="translate(-214.79 -39.03)" clip-path="url(#C)"><g clip-path="url(#D)"><path d="M466.07 107.21 439.66 80.8l26.41-26.42 26.41 26.42z" fill="#fff"/></g></g><path d="M256.41 58.4h-.06l-13.78-.77a1.13 1.13 0 0 1-1.07-1.14l.25-30.23c0-.34.16-.67.43-.88a1.13 1.13 0 0 1 .97-.21l16.98 4.19c.56.14.93.68.85 1.25l-3.45 26.8c-.07.57-.55.98-1.12.98z" fill="none" stroke="#7ab8e3" stroke-width="2.59"/><path d="M282.31 67.7c-1.82 0-3.64-.14-5.38-.43a23.92 23.92 0 0 1-7.5-2.54 20.9 20.9 0 0 1-5.97-4.78 18.56 18.56 0 0 1-3.6-6.62c-.76-2.48-.9-5.18-.44-8.03a19.43 19.43 0 0 1 2.89-7.55 19.97 19.97 0 0 1 12.43-8.68 19.69 19.69 0 0 1 8-.24 24.3 24.3 0 0 1 7.2 2.51c1.16.64 2.26 1.36 3.25 2.14a14.5 14.5 0 0 1 2.62 2.7c.29.4.29.93 0 1.33l-7.03 9.91a1.14 1.14 0 0 1-.93.48c-.27 0-.54-.1-.75-.29-.69-.6-1.47-1.13-2.32-1.57a9.4 9.4 0 0 0-2.62-.86 6.69 6.69 0 0 0-1.73-.04 3.65 3.65 0 0 0-2.57 1.34 2.8 2.8 0 0 0-.54 1.32 3.21 3.21 0 0 0 .86 2.88c.36.39.8.7 1.32.95.54.26 1.11.44 1.7.54a13.1 13.1 0 0 0 2.38.17l.8-.01a21.89 21.89 0 0 0 3.15-.37l.23-.02c.23 0 .46.08.66.22.25.18.42.45.46.77l1.66 12.4c.07.53-.25 1.03-.77 1.2a21.67 21.67 0 0 1-7.46 1.17" fill="#fff"/><g transform="translate(-214.79 -39.03)" clip-path="url(#E)"><g clip-path="url(#F)"><path d="m492.31 125.3-38.15-38.15L492.31 49l38.15 38.15z" fill="#fff"/></g></g><path d="M282.31 67.7c-1.82 0-3.64-.14-5.38-.43a23.93 23.93 0 0 1-7.5-2.54 20.9 20.9 0 0 1-5.97-4.78 18.56 18.56 0 0 1-3.6-6.62c-.76-2.48-.9-5.18-.44-8.03a19.43 19.43 0 0 1 2.89-7.55 20.04 20.04 0 0 1 16.97-9.2 21.4 21.4 0 0 1 7.07 1.21 24.08 24.08 0 0 1 6.84 3.72 14.5 14.5 0 0 1 2.62 2.7c.29.4.29.93.01 1.33l-7.04 9.91a1.14 1.14 0 0 1-1.68.2 11.04 11.04 0 0 0-2.32-1.58 9.4 9.4 0 0 0-2.62-.86 6.69 6.69 0 0 0-1.73-.04 3.65 3.65 0 0 0-2.57 1.34 2.8 2.8 0 0 0-.54 1.32 3.22 3.22 0 0 0 .86 2.88c.36.39.8.7 1.33.95.53.26 1.1.44 1.7.54a13.12 13.12 0 0 0 2.37.17l.8-.01a21.89 21.89 0 0 0 3.15-.37l.23-.02c.23 0 .46.08.66.22.25.18.42.45.46.77l1.66 12.4c.07.53-.25 1.03-.76 1.21a21.72 21.72 0 0 1-7.47 1.16z" fill="none" stroke="#7ab8e3" stroke-width="2.59"/><path d="M310.82 50.7a6.8 6.8 0 0 0-1.83.29c-.68.2-1.26.53-1.76 1a3.5 3.5 0 0 0-.93 1.91c-.14.66-.13 1.21.03 1.64.16.44.4.8.74 1.12.38.32.85.6 1.4.81.58.24 1.23.42 1.9.56a25.67 25.67 0 0 0 1.87.29l1.12-7.43a17.17 17.17 0 0 0-2.54-.2m14.36 24.58c-.08 0-.17 0-.25-.02l-13.73-2.89c-.53-.11-.9-.57-.9-1.09-.6.1-1.2.15-1.8.16h-.72a22.72 22.72 0 0 1-4.13-.45c-.99-.2-1.96-.5-2.9-.87a24.7 24.7 0 0 1-2.66-1.29c-3.34-1.77-5.75-4.12-7.17-6.98-1.39-2.82-1.87-6.18-1.45-9.96.01-.3.06-.66.13-1l.07-.36.1-.52a21.9 21.9 0 0 1 1.57-4.86 15.13 15.13 0 0 1 6.4-7.06 17.17 17.17 0 0 1 4.81-1.83c1.11-.25 2.25-.4 3.42-.45l.3-.02c1.06-.02 2.14.06 3.2.23l.37.07c1.2.24 2.41.61 3.58 1.1.64.27 1.28.55 1.9.85l.12-.8a1.13 1.13 0 0 1 1.1-.97c.07 0 .14 0 .21.02l13.96 2.4c.61.1 1.03.67.93 1.28l-5.36 34.36a1.14 1.14 0 0 1-1.1.95" fill="#fff"/><g transform="translate(-214.79 -39.03)" clip-path="url(#G)"><g clip-path="url(#H)"><path d="m526.19 135.63-42.1-40.14 40.07-42.02 42.1 40.14z" fill="#fff"/></g></g><g transform="translate(-214.79 -39.03)" clip-path="url(#I)"><path d="M525.6 89.73c-.64.02-1.25.11-1.83.29-.68.2-1.25.53-1.76 1a3.54 3.54 0 0 0-.93 1.91c-.14.66-.13 1.21.03 1.64.16.45.4.8.75 1.12.37.33.84.6 1.39.81.59.24 1.23.43 1.9.56a29.67 29.67 0 0 0 1.87.29l1.12-7.43a17.16 17.16 0 0 0-2.54-.19zm14.36 24.57c-.08 0-.17 0-.25-.02l-13.73-2.89c-.53-.1-.9-.57-.9-1.09-.6.1-1.2.15-1.8.16h-.72a22.72 22.72 0 0 1-4.13-.45c-.99-.2-1.96-.5-2.9-.87-.9-.37-1.8-.8-2.67-1.28-3.33-1.77-5.74-4.13-7.16-6.99-1.38-2.82-1.88-6.18-1.45-9.96.01-.3.06-.66.13-1l.07-.36.1-.52c.36-1.74.89-3.38 1.57-4.85a15.14 15.14 0 0 1 6.4-7.07 17.12 17.12 0 0 1 4.81-1.83 19.4 19.4 0 0 1 3.42-.45l.3-.01c1.06-.03 2.14.05 3.2.22l.37.07c1.2.25 2.41.61 3.58 1.1.64.27 1.28.55 1.9.86l.12-.8a1.11 1.11 0 0 1 1.1-.97h.21l13.96 2.4c.61.11 1.03.69.93 1.3l-5.36 34.35a1.14 1.14 0 0 1-1.1.96z" fill="none" stroke="#7ab8e3" stroke-width="2.59"/></g></svg>