<?xml version="1.0" encoding="UTF-8" standalone="no"?>
<svg
   xmlns:dc="http://purl.org/dc/elements/1.1/"
   xmlns:cc="http://creativecommons.org/ns#"
   xmlns:rdf="http://www.w3.org/1999/02/22-rdf-syntax-ns#"
   xmlns:svg="http://www.w3.org/2000/svg"
   xmlns="http://www.w3.org/2000/svg"
   viewBox="0 0 80.563004 80.054123"
   height="80.054123"
   width="80.563004"
   xml:space="preserve"
   version="1.1"
   id="svg3282"><defs
     id="defs3286"><clipPath
       id="clipPath3388"
       clipPathUnits="userSpaceOnUse"><path
         id="path3390"
         d="m 59.983,88.995 64.451,0 0,64.044 -64.451,0 0,-64.044 z" /></clipPath></defs><g
     transform="matrix(1.25,0,0,-1.25,-74.979125,191.29787)"
     id="g3290"><g
         clip-path="url(#clipPath3388)"
         id="g3386"><g
           transform="translate(90.3513,127.0783)"
           id="g3392"><path
             id="path3394"
             style="fill:#0a0d0e;fill-opacity:1;fill-rule:nonzero;stroke:none"
             d="m 0,0 c 0,-2.435 -1.974,-4.408 -4.408,-4.408 l -21.552,0 c -2.435,0 -4.408,1.973 -4.408,4.408 l 0,21.552 c 0,2.435 1.973,4.408 4.408,4.408 l 21.552,0 C -1.974,25.96 0,23.987 0,21.552 L 0,0 Z" /></g><g
           transform="translate(124.4337,127.0783)"
           id="g3396"><path
             id="path3398"
             style="fill:#0a0d0e;fill-opacity:1;fill-rule:nonzero;stroke:none"
             d="m 0,0 c 0,-2.435 -1.974,-4.408 -4.408,-4.408 l -21.552,0 c -2.434,0 -4.408,1.973 -4.408,4.408 l 0,21.552 c 0,2.435 1.974,4.408 4.408,4.408 l 21.552,0 C -1.974,25.96 0,23.987 0,21.552 L 0,0 Z" /></g><g
           transform="translate(90.3513,93.4031)"
           id="g3400"><path
             id="path3402"
             style="fill:#0a0d0e;fill-opacity:1;fill-rule:nonzero;stroke:none"
             d="m 0,0 c 0,-2.435 -1.974,-4.408 -4.408,-4.408 l -21.552,0 c -2.435,0 -4.408,1.973 -4.408,4.408 l 0,21.552 c 0,2.434 1.973,4.408 4.408,4.408 l 21.552,0 C -1.974,25.96 0,23.986 0,21.552 L 0,0 Z" /></g><g
           transform="translate(124.4337,93.4024)"
           id="g3404"><path
             id="path3406"
             style="fill:#0a0d0e;fill-opacity:1;fill-rule:nonzero;stroke:none"
             d="m 0,0 c 0,-2.435 -1.974,-4.408 -4.408,-4.408 l -21.552,0 c -2.434,0 -4.408,1.973 -4.408,4.408 l 0,21.552 c 0,2.435 1.974,4.408 4.408,4.408 l 21.552,0 C -1.974,25.96 0,23.987 0,21.552 L 0,0 Z" /></g><g
           transform="translate(109.2889,142.3874)"
           id="g3408"><path
             id="path3410"
             style="fill:#ffffff;fill-opacity:1;fill-rule:nonzero;stroke:none"
             d="m 0,0 c -1.377,0 -2.507,-0.431 -3.394,-1.292 -0.886,-0.861 -1.329,-1.96 -1.329,-3.297 0,-1.298 0.445,-2.376 1.333,-3.237 0.889,-0.861 2.002,-1.292 3.338,-1.292 1.341,0 2.462,0.439 3.359,1.317 0.898,0.879 1.346,1.972 1.346,3.281 0,1.274 -0.448,2.346 -1.346,3.216 C 2.41,-0.435 1.307,0 0,0 m -0.069,1.636 c 1.858,0 3.406,-0.588 4.642,-1.765 1.236,-1.177 1.854,-2.652 1.854,-4.426 0,-1.773 -0.624,-3.242 -1.871,-4.404 -1.248,-1.162 -2.821,-1.743 -4.72,-1.743 -1.813,0 -3.322,0.581 -4.53,1.743 -1.208,1.162 -1.811,2.619 -1.811,4.37 0,1.796 0.608,3.283 1.824,4.46 1.216,1.177 2.753,1.765 4.612,1.765" /></g><g
           transform="translate(74.1758,108.6519)"
           id="g3412"><path
             id="path3414"
             style="fill:#ffffff;fill-opacity:1;fill-rule:nonzero;stroke:none"
             d="m 0,0 -2.153,0 0,-8.946 2.205,0 c 0.861,0 1.529,0.06 2.006,0.177 0.476,0.118 0.874,0.267 1.192,0.448 0.319,0.181 0.61,0.403 0.874,0.667 0.85,0.861 1.274,1.948 1.274,3.263 0,1.291 -0.436,2.344 -1.308,3.16 C 3.768,-0.927 3.399,-0.677 2.984,-0.482 2.567,-0.287 2.172,-0.158 1.8,-0.095 1.427,-0.032 0.827,0 0,0 m -3.874,-9.931 0,10.912 c 0,0.338 0.239,0.551 0.569,0.551 l 3.486,0 c 1.636,0 2.93,-0.244 3.883,-0.735 0.953,-0.491 1.71,-1.213 2.273,-2.166 0.563,-0.953 0.844,-1.992 0.844,-3.117 0,-0.803 -0.155,-1.573 -0.465,-2.307 -0.31,-0.735 -0.752,-1.381 -1.326,-1.938 -0.585,-0.574 -1.266,-1.007 -2.041,-1.3 -0.453,-0.178 -0.869,-0.296 -1.248,-0.357 -0.379,-0.06 -1.102,-0.09 -2.17,-0.09 0,0 -2.849,0.004 -3.242,0 -0.359,-0.004 -0.563,0.299 -0.563,0.547" /></g><g
           transform="translate(111.9753,99.7086)"
           id="g3416"><path
             id="path3418"
             style="fill:#ffffff;fill-opacity:1;fill-rule:nonzero;stroke:none"
             d="m 0,0 c -0.01,0 -4.494,-0.003 -4.494,-0.003 l 0,3.737 4.18,0.006 c 0.417,0.009 0.753,0.349 0.753,0.769 0,0.425 -0.344,0.77 -0.77,0.77 -0.014,0 -4.163,-0.004 -4.163,-0.004 l 0,3.668 4.31,0 c 0,0 0.011,0.002 0.016,0.002 0.424,0 0.768,0.344 0.768,0.768 0,0.424 -0.344,0.768 -0.768,0.768 -0.014,0 -4.02,-0.005 -5.504,-0.005 -0.321,0 -0.545,-0.259 -0.545,-0.543 l 0,-10.92 c 0,-0.311 0.255,-0.549 0.545,-0.549 1.513,0 5.658,-0.005 5.672,-0.005 0.426,0 0.77,0.345 0.77,0.771 C 0.77,-0.345 0.426,0 0,0" /></g><g
           transform="translate(79.4329,134.0546)"
           id="g3420"><path
             id="path3422"
             style="fill:#ffffff;fill-opacity:1;fill-rule:nonzero;stroke:none"
             d="m 0,0 c -0.116,0 -0.329,-0.068 -0.33,-0.068 -1.023,-0.473 -2.063,-0.709 -3.122,-0.709 -1.395,0 -2.54,0.425 -3.435,1.275 -0.895,0.849 -1.343,1.934 -1.343,3.254 0,1.309 0.455,2.398 1.365,3.268 0.909,0.869 2.053,1.304 3.43,1.304 0.972,0 1.944,-0.198 2.948,-0.618 0.107,-0.052 0.241,-0.097 0.368,-0.097 0.449,0 0.813,0.364 0.813,0.813 0,0.345 -0.292,0.67 -0.524,0.76 -1.34,0.52 -2.571,0.778 -3.691,0.778 -1.831,0 -3.37,-0.597 -4.619,-1.791 -1.248,-1.194 -1.872,-2.666 -1.872,-4.417 0,-1.102 0.272,-2.127 0.818,-3.074 0.545,-0.947 1.285,-1.69 2.221,-2.23 0.935,-0.539 2.075,-0.809 3.418,-0.809 1.421,0 2.711,0.261 3.844,0.77 0.33,0.124 0.534,0.44 0.534,0.768 C 0.823,-0.369 0.454,0 0,0" /></g></g></g></svg>