<?xml version="1.0" encoding="utf-8"?>
<!-- Generator: Adobe Illustrator 15.1.0, SVG Export Plug-In . SVG Version: 6.00 Build 0)  -->
<!DOCTYPE svg PUBLIC "-//W3C//DTD SVG 1.1//EN" "http://www.w3.org/Graphics/SVG/1.1/DTD/svg11.dtd">
<svg version="1.1" id="Layer_1" xmlns="http://www.w3.org/2000/svg" xmlns:xlink="http://www.w3.org/1999/xlink" x="0px" y="0px"
	 width="64px" height="64px" viewBox="0 0 64 64" enable-background="new 0 0 64 64" xml:space="preserve">
<g>
	<path fill="#1EBCC5" d="M63.457,32.629c0-3.183-1.476-6.018-3.774-7.869c-0.91,1.838-2.474,3.286-4.382,4.072
		c2.723-1.408,4.588-4.243,4.588-7.518c0-4.675-3.784-8.415-8.459-8.415c-0.355,0-0.689,0.026-1.034,0.068
		c1.17,2.559,1.818,5.349,1.818,8.347c0,0.193-0.01,0.384-0.017,0.576C51.861,11.025,42.954,2.319,32.005,2.319
		c-10.916,0-19.806,8.657-20.19,19.481c-0.004-0.163-0.019-0.323-0.019-0.486c0-2.992,0.667-5.822,1.833-8.376
		C6.253,13.863,0.543,20.145,0.543,27.772c0,8.265,6.7,14.965,14.965,14.965h38.054v-0.017
		C59.044,42.609,63.457,38.138,63.457,32.629"/>
	<path fill="#FFFFFF" d="M31.839,36.634c-7.824,0-14.167-6.343-14.167-14.167c0-7.823,6.343-14.167,14.167-14.167
		c7.825,0,14.167,6.343,14.167,14.167C46.006,30.291,39.664,36.634,31.839,36.634 M31.846,6.226
		c-8.984,0-16.266,7.282-16.266,16.265s7.282,16.266,16.266,16.266s16.265-7.283,16.265-16.266S40.83,6.226,31.846,6.226"/>
	<path fill="#FFFFFF" d="M34.338,22.349H34.32h-4.425h-0.018v-3.556h0.018h4.425h0.018c0.982,0,1.778,0.796,1.778,1.777
		C36.116,21.552,35.32,22.349,34.338,22.349 M27.611,14.552c-1.261,0-2.284,1.022-2.284,2.284v12.392
		c0,1.261,1.023,2.285,2.284,2.285c1.263,0,2.284-1.024,2.284-2.285v-2.636h4.425v-0.009c3.322,0,6.017-2.693,6.017-6.015
		c0-3.323-2.694-6.016-6.017-6.016"/>
	<path fill="#231F20" d="M28.805,48.801h-0.039c-0.532,0-0.967,0.447-0.967,0.995v8.176c0,0.55,0.435,0.996,0.967,0.996h0.039
		c0.531,0,0.965-0.446,0.965-0.996v-8.176C29.77,49.248,29.336,48.801,28.805,48.801"/>
	<path fill="#231F20" d="M34.286,57.613c-1.063,0-1.922-1.064-1.922-2.374c0-1.307,0.859-2.372,1.922-2.372s1.921,1.065,1.921,2.372
		C36.207,56.549,35.35,57.613,34.286,57.613 M34.286,51.512c-2.121,0-3.843,1.668-3.843,3.728c0,2.063,1.722,3.73,3.843,3.73
		c2.12,0,3.844-1.668,3.844-3.73C38.13,53.18,36.406,51.512,34.286,51.512"/>
	<path fill="#231F20" d="M13.657,57.613c-1.089,0-1.969-1.064-1.969-2.374c0-1.307,0.88-2.372,1.969-2.372
		c1.09,0,1.97,1.065,1.97,2.372C15.627,56.549,14.748,57.613,13.657,57.613 M13.986,51.512c-0.873,0-1.674,0.319-2.298,0.854v0.162
		c0-0.562-0.44-1.017-0.985-1.017c-0.544,0-0.985,0.455-0.985,1.017v8.135c0,0.563,0.44,1.018,0.985,1.018
		c0.545,0,0.985-0.455,0.985-1.018v-2.548c0.624,0.534,1.425,0.854,2.298,0.854c1.996,0,3.611-1.668,3.611-3.73
		C17.597,53.18,15.982,51.512,13.986,51.512"/>
	<path fill="#231F20" d="M50.139,57.613c-1.091,0-1.97-1.064-1.97-2.374c0-1.308,0.879-2.371,1.97-2.371s1.971,1.063,1.971,2.371
		C52.109,56.549,51.229,57.613,50.139,57.613 M53.113,48.802h-0.039c-0.532,0-0.965,0.446-0.965,0.995v2.569
		c-0.625-0.535-1.425-0.854-2.298-0.854c-1.996,0-3.61,1.668-3.61,3.728c0,2.063,1.614,3.729,3.61,3.729
		c0.873,0,1.673-0.318,2.298-0.854v-0.144c0,0.55,0.433,0.997,0.965,0.997h0.039c0.532,0,0.964-0.447,0.964-0.997v-8.175
		C54.077,49.248,53.646,48.802,53.113,48.802"/>
	<path fill="#231F20" d="M44.543,51.505L44.543,51.505c-0.545,0-0.984,0.441-0.984,0.984v3.533c0,0.87-0.574,1.574-1.399,1.574
		c-0.824,0-1.388-0.693-1.388-1.564v-0.127v-0.18v-3.236c0-0.543-0.44-0.984-0.985-0.984c-0.543,0-0.984,0.441-0.984,0.984v3.289
		v0.127v0.202v0.19c0,1.673,0.973,2.665,2.626,2.665c1.118,0,1.664-0.24,2.154-0.776c0.096,0.443,0.488,0.776,0.961,0.776
		c0.544,0,0.984-0.441,0.984-0.985v-5.488C45.527,51.946,45.087,51.505,44.543,51.505"/>
	<path fill="#231F20" d="M23.617,50.608c0.734,0,1.412,0.221,1.967,0.597l0.001-0.001c0.201,0.102,0.324,0.157,0.515,0.157
		c0.509,0,0.922-0.413,0.922-0.923c0-0.396-0.3-0.674-0.604-0.861c-0.824-0.486-1.786-0.781-2.832-0.781
		c-2.975,0-5.387,2.262-5.406,5.058c0,0.009-0.001,0.017-0.001,0.027v0.002v0.001c0,0.011,0.001,0.02,0.001,0.029
		c0.019,2.795,2.431,5.057,5.406,5.057c1.046,0,2.008-0.294,2.832-0.781c0.304-0.188,0.604-0.465,0.604-0.861
		c0-0.511-0.413-0.923-0.922-0.923c-0.191,0-0.314,0.057-0.515,0.157l-0.001-0.001c-0.555,0.375-1.232,0.597-1.967,0.597
		c-1.89,0-3.421-1.45-3.436-3.244h0.001c0-0.011-0.002-0.021-0.003-0.03c0.001-0.011,0.003-0.02,0.003-0.029h-0.001
		C20.196,52.059,21.728,50.608,23.617,50.608"/>
</g>
</svg>
