<?xml version="1.0" encoding="UTF-8"?>
<!DOCTYPE svg PUBLIC "-//W3C//DTD SVG 1.1//EN" "http://www.w3.org/Graphics/SVG/1.1/DTD/svg11.dtd">
<!-- Creator: CorelDRAW -->
<svg xmlns="http://www.w3.org/2000/svg" xml:space="preserve" width="312mm" height="69mm" style="shape-rendering:geometricPrecision; text-rendering:geometricPrecision; image-rendering:optimizeQuality; fill-rule:evenodd; clip-rule:evenodd"
viewBox="0 0 312 69"
 xmlns:xlink="http://www.w3.org/1999/xlink">
 <defs>
  <style type="text/css">
   <![CDATA[
    .fil0 {fill:black;fill-rule:nonzero}
   ]]>
  </style>
 </defs>
 <g id="Layer_x0020_1">
  <metadata id="CorelCorpID_0Corel-Layer"/>
  <path class="fil0" d="M8.7791 36.747l-0.9647 -1.1059c2.4353,-1.8117 3.647,-4.3408 3.647,-7.5877 0,-2.3175 -1.7059,-3.5411 -5.1292,-3.6822 -3.8233,-0.1411 -5.7291,-1.7646 -5.7291,-4.8585 0,-1.6117 0.5412,-3.4117 1.6235,-5.4115l0.9293 0c0.2353,1.5646 1.2705,2.4234 3.141,2.5881l3.1292 0.1999c3.0822,0.2353 4.6232,2.3529 4.6232,6.3762l0 2.5881c0,5.4468 -1.7645,9.0701 -5.2702,10.8935zm26.2793 24.3985c0,-0.4823 0.113,-0.9258 0.3293,-1.341 0.2186,-0.4199 0.5558,-0.7726 1,-1.0706 0.4495,-0.3017 0.9532,-0.4589 1.5293,-0.447 0.5532,0.0114 1.0342,0.1549 1.4706,0.4118 0.4223,0.2488 0.7572,0.5857 1.0116,1.0116 0.2512,0.4208 0.3766,0.9058 0.3766,1.4352 0,0.5529 -0.1254,1.0379 -0.3766,1.4588 -0.2544,0.4259 -0.5841,0.7716 -1.0116,1.0234 -0.4312,0.2539 -0.9177,0.3765 -1.4706,0.3765 -0.4823,0 -0.9386,-0.1106 -1.3645,-0.3294 -0.421,-0.2163 -0.7806,-0.5386 -1.0706,-0.9764 -0.2863,-0.4324 -0.4235,-0.9529 -0.4235,-1.5529zm8.8716 -7.2701l-0.7176 -0.247 0 -16.752c0,-4.5409 -0.2471,-7.4466 -0.7411,-8.7171 -0.4941,-1.2588 -1.3176,-2.2 -2.4469,-2.8234 -1.1411,-0.6235 -2.5881,-0.9294 -4.3644,-0.9294l-11.2701 0c-3.3056,0 -4.9644,-1.4469 -4.9644,-4.3409 0,-2.141 0.7059,-4.0234 2.1058,-5.6586l0.8941 0c0.3647,1.6117 1.5176,2.4117 3.4469,2.4117l7.823 0c5.282,0 8.7171,0.7764 10.2935,2.3176 1.5646,1.5293 2.3528,4.882 2.3528,10.0228l0 21.3047c0,1.4235 -0.7999,2.5529 -2.4116,3.4116zm19.3346 3.9998c0,-0.4941 0.1106,-0.9388 0.3295,-1.3529 0.2163,-0.4092 0.5502,-0.7688 0.9998,-1.0705 0.4443,-0.2981 0.9531,-0.4589 1.5295,-0.447 0.5531,0.0115 1.0341,0.1665 1.4704,0.4235 0.4223,0.2488 0.7605,0.5908 1.0118,1.0116 0.2543,0.426 0.3764,0.9058 0.3764,1.4353 0,0.5411 -0.1221,1.0326 -0.3764,1.4587 -0.2513,0.4208 -0.5893,0.763 -1.0118,1.0117 -0.4362,0.2569 -0.9176,0.3882 -1.4704,0.3882 -0.4824,0 -0.9331,-0.1106 -1.3647,-0.3294 -0.4271,-0.2164 -0.7725,-0.5556 -1.0587,-0.9881 -0.29,-0.438 -0.4354,-0.9529 -0.4354,-1.5411zm0.0707 7.6819c0,-0.4824 0.1128,-0.9257 0.3293,-1.3411 0.2188,-0.4199 0.5457,-0.7697 1,-1.0706 0.4515,-0.299 0.9528,-0.447 1.5293,-0.447 0.5529,0 1.0363,0.1278 1.4587,0.3882 0.4362,0.2689 0.7692,0.6092 1.0235,1.0352 0.2513,0.4209 0.3764,0.9058 0.3764,1.4353 0,0.5529 -0.1251,1.0378 -0.3764,1.4587 -0.2543,0.426 -0.5873,0.7666 -1.0235,1.0235 -0.4224,0.2487 -0.9058,0.3764 -1.4587,0.3764 -0.5529,0 -1.0393,-0.1225 -1.4704,-0.3764 -0.4276,-0.2519 -0.7574,-0.5975 -1.0118,-1.0235 -0.2513,-0.4209 -0.3764,-0.9058 -0.3764,-1.4587zm16.1691 -12.3405l-27.5396 0 1.3528 -7.0348 20.6106 0c0.5647,-2.9882 0.8588,-6.6703 0.8588,-11.0583 0,-4.2233 -0.3647,-7.0701 -1.0823,-8.5289 -0.7294,-1.4587 -2.7762,-2.1881 -6.1525,-2.1881l-9.3759 0c-3.4234,0 -5.1409,-1.4469 -5.1409,-4.3409 0,-2.141 0.7057,-4.0234 2.1056,-5.6586l0.8941 0c0.3647,1.6117 1.5176,2.4117 3.4469,2.4117l6.5879 0c3.9762,0 6.7172,0.4352 8.2466,1.3176 1.5293,0.8705 2.5292,2.0352 2.9998,3.5057 0.4706,1.4704 0.7059,4.0351 0.7059,7.6936l0 4.8585c0,5.3292 -1,9.329 -2.9999,11.9877l5.7997 0 -1.3176 7.0348zm15.882 7.9289c0,-0.4823 0.113,-0.9257 0.3293,-1.341 0.2188,-0.4199 0.5559,-0.7725 1,-1.0706 0.4497,-0.3017 0.9531,-0.4589 1.5293,-0.447 0.5532,0.0115 1.0342,0.1547 1.4706,0.4118 0.4225,0.2488 0.7573,0.5856 1.0116,1.0116 0.2513,0.4208 0.3766,0.9058 0.3766,1.4352 0,0.5529 -0.1253,1.0379 -0.3766,1.4588 -0.2543,0.426 -0.5839,0.7716 -1.0116,1.0234 -0.4312,0.254 -0.9177,0.3765 -1.4706,0.3765 -0.4823,0 -0.9386,-0.1105 -1.3645,-0.3294 -0.4211,-0.2163 -0.7806,-0.5385 -1.0706,-0.9764 -0.2864,-0.4324 -0.4235,-0.9529 -0.4235,-1.5529zm-10.7529 -6.9289l1.447 -6.9996 9.1406 -1.1294c0,-4.6703 -0.6352,-7.5172 -1.8939,-8.5524 -1.7294,-1.4235 -2.7764,-2.5881 -3.1528,-3.494 -0.3883,-0.9175 -0.5765,-1.9764 -0.5765,-3.188 0,-1.4117 0.2471,-3.494 0.7294,-6.2821 -3.6115,-0.6586 -5.4114,-2.2703 -5.4114,-4.8231 0,-1.9529 0.4587,-3.8352 1.3764,-5.6468l0.9293 0c0.3647,1.5411 1.3528,2.3999 2.9646,2.5881l1.6234 0.1294c2.7293,0.2824 4.0938,1.9646 4.0938,5.0703 0,0.7059 -0.1058,1.3882 -0.3411,2.0352 -1.4706,0.4353 -2.7411,0.6469 -3.8232,0.6469 0,2.6235 0.094,4.341 0.2705,5.1409 0.1882,0.8001 0.7647,1.5294 1.7293,2.1764 1.4234,0.9177 2.294,1.7176 2.6116,2.4234 0.3294,0.7058 0.4824,1.9293 0.4824,3.6704l0 7.9289 2.0704 -0.2822c1.3528,-0.2001 2.2586,-0.5648 2.7057,-1.0942 0.447,-0.5293 0.953,-2.0351 1.5059,-4.5173 0.5292,-2.294 1.5175,-5.0232 2.988,-8.1642 1.2705,-2.6941 1.9058,-4.3998 1.9058,-5.1409 0,-1.3059 -0.5882,-2.0941 -1.7647,-2.3411 -3.3762,-0.7882 -5.0585,-2.4116 -5.0585,-4.8939 0,-1.7057 0.5529,-3.4939 1.6823,-5.3761l0.9293 0c0.2117,0.9412 0.6,1.6117 1.1882,1.9998 0.5882,0.3883 1.7058,0.7059 3.3645,0.9647 2.4822,0.3647 3.7175,1.6 3.7175,3.7175 0,1.5176 -0.9883,4.3762 -2.9764,8.5878 -1.988,4.1997 -2.988,8.8699 -2.988,13.9873 0,5.5644 -3.1881,8.7172 -9.5759,9.4819l-11.8935 1.3764zm76.3133 -0.4118l-0.7294 -0.247 0 -16.6814c0,-3.8821 -0.1059,-6.482 -0.3412,-7.823 -0.2234,-1.3294 -0.8822,-2.4353 -1.941,-3.3175 -1.0705,-0.8941 -2.6939,-1.3294 -4.882,-1.3294l-7.7173 0 -1.4469 3.094c-1.4234,3.1056 -2.141,5.7172 -2.141,7.823 0,1.0117 0.1528,2.9528 0.4469,5.835 0.8705,4.3645 1.2823,7.0231 1.2117,7.9878l-0.2117 4.0703 -10.0229 0 1.4469 -7.0348 4.341 0 -0.2118 -6.7526c-0.1529,-4.6351 0.6941,-8.5172 2.5527,-11.6465l1.9999 -3.3762 -1.3411 0c-3.5174,0 -5.2702,-1.4469 -5.2702,-4.3409 0,-2.1646 0.7059,-4.0469 2.1292,-5.6586l0.9295 0c0.3881,1.6117 1.541,2.4117 3.4468,2.4117l7.6937 0c5.3055,0 8.7289,0.7647 10.2818,2.294 1.5527,1.5293 2.3292,4.8821 2.3292,10.0464l0 20.3753c0,1.9882 -0.847,3.4234 -2.5528,4.2704zm16.8578 -17.0578l-0.9647 -1.1059c2.4352,-1.8117 3.6469,-4.3408 3.6469,-7.5877 0,-2.3175 -1.7059,-3.5411 -5.1291,-3.6822 -3.8233,-0.1411 -5.7291,-1.7646 -5.7291,-4.8585 0,-1.6117 0.5411,-3.4117 1.6234,-5.4115l0.9293 0c0.2353,1.5646 1.2706,2.4234 3.141,2.5881l3.1293 0.1999c3.0822,0.2353 4.6232,2.3529 4.6232,6.3762l0 2.5881c0,5.4468 -1.7646,9.0701 -5.2702,10.8935zm28.4261 21.5399c0.4824,0 0.9387,0.1105 1.3646,0.3411 0.4209,0.228 0.7724,0.5676 1.0588,1 0.29,0.4379 0.4352,0.9412 0.4352,1.5175 0,0.5529 -0.1336,1.0326 -0.4,1.4588 -0.263,0.4208 -0.5957,0.7716 -1.0233,1.0234 -0.4313,0.254 -0.9059,0.3765 -1.4353,0.3765 -0.5529,0 -1.0393,-0.1225 -1.4704,-0.3765 -0.4275,-0.2518 -0.7647,-0.5999 -1.0118,-1.0234 -0.247,-0.4235 -0.3764,-0.9059 -0.3764,-1.4588 0,-0.5294 0.1294,-1.0117 0.3764,-1.4352 0.2471,-0.4235 0.584,-0.7715 1.0118,-1.0352 0.4309,-0.2657 0.9175,-0.3882 1.4704,-0.3882zm-7.9289 0c0.4823,0 0.9386,0.1105 1.3645,0.3411 0.421,0.228 0.7806,0.5621 1.0706,1 0.2864,0.4324 0.4235,0.9412 0.4235,1.5175 0,0.5529 -0.122,1.0327 -0.3764,1.4588 -0.2513,0.4208 -0.5843,0.7716 -1.0118,1.0234 -0.4311,0.254 -0.9175,0.3765 -1.4704,0.3765 -0.5529,0 -1.0363,-0.1277 -1.4587,-0.3765 -0.4364,-0.2569 -0.7692,-0.5974 -1.0235,-1.0234 -0.2513,-0.4209 -0.3766,-0.9059 -0.3766,-1.4588 0,-0.4823 0.113,-0.9255 0.3295,-1.341 0.2187,-0.4198 0.5557,-0.7725 0.9999,-1.0706 0.4497,-0.3017 0.9529,-0.447 1.5294,-0.447zm17.1358 -5.0703l-27.5395 0 1.3528 -7.0348 20.6106 0c0.5647,-2.9882 0.8588,-6.6703 0.8588,-11.0583 0,-4.2233 -0.3647,-7.0701 -1.0823,-8.5289 -0.7294,-1.4587 -2.7762,-2.1881 -6.1525,-2.1881l-9.3759 0c-3.4234,0 -5.1409,-1.4469 -5.1409,-4.3409 0,-2.141 0.7057,-4.0234 2.1056,-5.6586l0.8941 0c0.3647,1.6117 1.5176,2.4117 3.4469,2.4117l6.5878 0c3.9763,0 6.7173,0.4352 8.2467,1.3176 1.5293,0.8705 2.5292,2.0352 2.9998,3.5057 0.4706,1.4704 0.7058,4.0351 0.7058,7.6936l0 4.8585c0,5.3292 -1,9.329 -2.9998,11.9877l5.7996 0 -1.3176 7.0348zm-17.6459 -17.7518c0,-0.5531 0.1294,-1.0354 0.3999,-1.4589 0.2588,-0.4235 0.6,-0.7646 1.0235,-1.0235 0.4352,-0.247 0.9058,-0.3764 1.4352,-0.3764 0.5529,0 1.0353,0.1294 1.4705,0.3764 0.4235,0.2589 0.753,0.6 1.0117,1.0235 0.2471,0.4235 0.3765,0.9058 0.3765,1.4589 0,0.5292 -0.1294,1.0116 -0.3882,1.4351 -0.2706,0.4235 -0.6117,0.7647 -1.0352,1.0352 -0.4354,0.2589 -0.9059,0.3883 -1.4353,0.3883 -0.4823,0 -0.9411,-0.1059 -1.3647,-0.3412 -0.4235,-0.2236 -0.7764,-0.5647 -1.0704,-0.9999 -0.2824,-0.4354 -0.4235,-0.9412 -0.4235,-1.5175zm33.0104 22.2855c0,-0.4941 0.1106,-0.9388 0.3295,-1.3528 0.2164,-0.4092 0.5502,-0.7689 0.9999,-1.0706 0.4443,-0.2981 0.953,-0.4588 1.5294,-0.447 0.5531,0.0115 1.0341,0.1665 1.4705,0.4235 0.4223,0.2488 0.7604,0.5908 1.0117,1.0117 0.2544,0.426 0.3764,0.9058 0.3764,1.4352 0,0.5412 -0.122,1.0327 -0.3764,1.4587 -0.2513,0.4209 -0.5893,0.763 -1.0117,1.0118 -0.4362,0.2569 -0.9176,0.3881 -1.4705,0.3881 -0.4823,0 -0.9331,-0.1106 -1.3647,-0.3293 -0.4271,-0.2165 -0.7724,-0.5557 -1.0587,-0.9881 -0.29,-0.4381 -0.4354,-0.953 -0.4354,-1.5412zm0.0707 7.6819c0,-0.4823 0.1129,-0.9257 0.3294,-1.3411 0.2187,-0.4199 0.5456,-0.7696 1,-1.0705 0.4515,-0.2991 0.9528,-0.447 1.5293,-0.447 0.5528,0 1.0362,0.1278 1.4587,0.3881 0.4362,0.269 0.7691,0.6092 1.0235,1.0353 0.2513,0.4208 0.3764,0.9058 0.3764,1.4352 0,0.5529 -0.1251,1.0379 -0.3764,1.4587 -0.2544,0.4261 -0.5873,0.7666 -1.0235,1.0235 -0.4225,0.2488 -0.9059,0.3764 -1.4587,0.3764 -0.5529,0 -1.0394,-0.1224 -1.4705,-0.3764 -0.4275,-0.2518 -0.7574,-0.5974 -1.0118,-1.0235 -0.2513,-0.4208 -0.3764,-0.9058 -0.3764,-1.4587zm1.1757 -12.2156l-10.7523 0 1.6234 -7.0348 12.4699 0c3.0821,0 5.2114,-0.8471 6.4114,-2.5647 1.1999,-1.7057 1.7881,-4.2939 1.7881,-7.7407 0,-3.7879 -0.494,-6.6467 -1.4823,-8.5759 -0.9881,-1.9293 -2.9763,-2.894 -5.9525,-2.894l-9.0349 0c-1.4939,0.9411 -2.235,2.1528 -2.235,3.6469 0,1.3881 1.1175,2.2939 3.3761,2.7292 2.2235,0.4352 3.3411,1.4116 3.3411,2.9293l0 1.894c0,0.7293 -0.3883,1.1058 -1.1765,1.1058 -0.3175,0 -0.8235,-0.0471 -1.5175,-0.1412 -0.6588,-0.0941 -1.1646,-0.1412 -1.5175,-0.1412 -1.6706,0 -2.9881,0.6118 -3.9292,1.8353l-1.0941 0c-0.6705,-1.4706 -1,-3.1176 -1,-4.9292 0,-3.5646 1.2824,-6.5408 3.8586,-8.9289l-2.141 -1.5529c-0.5059,-0.5528 -0.7529,-1.4823 -0.7529,-2.788 0,-2.1881 0.6941,-4.0703 2.094,-5.6586l0.9059 0c0.3881,1.6117 1.5292,2.4117 3.4468,2.4117l6.5408 0c7.1996,0 10.7876,5.9644 10.7876,17.8931 0,7.7407 -1.141,12.7639 -3.4469,15.0579 -2.294,2.294 -5.8349,3.4469 -10.6111,3.4469zm36.5174 1.7175c0.4824,0 0.9387,0.1222 1.3646,0.3529 0.421,0.2281 0.7724,0.5676 1.0588,1 0.29,0.438 0.4353,0.9411 0.4353,1.5176 0,0.5529 -0.1337,1.0325 -0.4001,1.4587 -0.263,0.4209 -0.5957,0.7717 -1.0233,1.0235 -0.4312,0.254 -0.9058,0.3764 -1.4353,0.3764 -0.5528,0 -1.0393,-0.1224 -1.4704,-0.3764 -0.4275,-0.2518 -0.7647,-0.6 -1.0118,-1.0235 -0.247,-0.4235 -0.3764,-0.9058 -0.3764,-1.4587 0,-0.5294 0.1294,-1.0118 0.3764,-1.4353 0.2471,-0.4235 0.584,-0.7716 1.0118,-1.0352 0.431,-0.2655 0.9176,-0.4 1.4704,-0.4zm-7.9289 0c0.4823,0 0.9387,0.1222 1.3646,0.3529 0.4209,0.2281 0.7805,0.5621 1.0705,1 0.2864,0.4325 0.4235,0.9411 0.4235,1.5176 0,0.5529 -0.122,1.0327 -0.3764,1.4587 -0.2513,0.4209 -0.5842,0.7717 -1.0117,1.0235 -0.4311,0.254 -0.9176,0.3764 -1.4705,0.3764 -0.5529,0 -1.0363,-0.1276 -1.4587,-0.3764 -0.4363,-0.2569 -0.7691,-0.5974 -1.0235,-1.0235 -0.2513,-0.4208 -0.3765,-0.9058 -0.3765,-1.4587 0,-0.4823 0.1081,-0.9284 0.3294,-1.353 0.2138,-0.4104 0.5557,-0.7605 0.9999,-1.0587 0.4498,-0.3017 0.9529,-0.4588 1.5294,-0.4588zm1.1058 10.5876c0,-0.4823 0.113,-0.9257 0.3293,-1.3411 0.2188,-0.4199 0.5558,-0.7724 1,-1.0704 0.4497,-0.3017 0.9529,-0.4471 1.5293,-0.4471 0.5529,0 1.0395,0.1226 1.4706,0.3883 0.4278,0.2636 0.7572,0.6092 1.0116,1.0352 0.2513,0.4208 0.3766,0.9058 0.3766,1.4351 0,0.553 -0.1278,1.0364 -0.3766,1.4589 -0.2569,0.4361 -0.5841,0.7715 -1.0116,1.0233 -0.4312,0.254 -0.9177,0.3766 -1.4706,0.3766 -0.5529,0 -1.0363,-0.1277 -1.4587,-0.3766 -0.4362,-0.2569 -0.7665,-0.587 -1.0235,-1.0233 -0.2488,-0.4223 -0.3764,-0.9059 -0.3764,-1.4589zm13.0445 -29.1276l-6.5527 7.3407c-1.5764,1.7764 -2.3763,3.5056 -2.3763,5.2114 0,0.2706 0.0352,0.6824 0.1059,1.2353 0.0941,0.5529 0.1412,0.9647 0.1412,1.2469 0,1.694 -0.7765,2.541 -2.3058,2.541 -1.5411,0 -2.3175,-0.9527 -2.3175,-2.8586 0,-2.6821 1.7058,-5.7761 5.1056,-9.27l5.035 -5.1997c1.4235,-1.4705 2.1292,-3.3763 2.1292,-5.7291l0 -2.0587c0,-1.8 -0.4235,-2.988 -1.294,-3.5763 -0.8587,-0.5763 -2.5527,-0.8705 -5.082,-0.8705l-9.9877 0c-3.588,0 -5.3761,-1.5999 -5.3761,-4.7879 0,-2.047 0.4235,-4.3763 1.2705,-6.9644l0.9998 -2.9292c0.1648,-0.5294 0.2353,-0.9176 0.2353,-1.1765 0,-0.6705 -0.4116,-1.1998 -1.2351,-1.6233l-1.9293 -0.9294c-0.9882,-0.4824 -1.4822,-1.1529 -1.4822,-2.0351 0,-1.0706 0.3998,-2.2 1.1998,-3.3763l0.8706 0c0.1059,0.7176 0.6,1.2469 1.447,1.5881l1.3057 0.5177c1.447,0.5763 2.1763,1.4587 2.1763,2.6586 0,0.2235 -0.3529,1.6352 -1.0352,4.2351l-0.4823 1.7528c-0.3293,1.2234 -0.4823,2.1175 -0.4823,2.6939 0,0.8941 0.2353,1.5881 0.7176,2.0704 0.4823,0.4824 1.6,0.7177 3.3409,0.7177l11.2465 0c2.1292,0 3.7646,0.5176 4.9056,1.5529 1.1411,1.0352 1.7058,3.5645 1.7058,7.5877l0 3.7175c0,2.988 -0.6706,5.2232 -1.9998,6.7173zm34.1979 17.446l-0.941 0c-0.1295,-1.7764 -0.7294,-3.2587 -1.7882,-4.4468l-14.952 -17.1637c-2.5528,1.2822 -3.8352,2.941 -3.8352,4.9644 0,1.5529 0.8235,3.5645 2.447,6.0232 1.894,2.8116 2.8351,5.035 2.8351,6.6937 0,2.1999 -0.847,3.3057 -2.5175,3.3057l-6.5173 0 0 -0.9293c1.3764,-0.3647 2.0706,-1.1647 2.0706,-2.3764 0,-0.7646 -0.4354,-2.2704 -1.3059,-4.5173 -0.8824,-2.2235 -1.3176,-3.9528 -1.3176,-5.1763 0,-3.6939 2.2822,-6.8466 6.8232,-9.4347l-4.2351 -4.7879c-1.7646,-2.0235 -2.6587,-4.1292 -2.6587,-6.3174 0,-1.9763 0.8117,-3.835 2.4117,-5.5761l0.9058 0c0.1059,1.9998 0.7059,3.5998 1.7881,4.8233l12.9523 14.7167c0.6705,-3.3056 1.9528,-6.3995 3.835,-9.27 -3.6586,-0.6 -5.4821,-2.4351 -5.4821,-5.5173 0,-1.8117 0.4706,-3.3998 1.4118,-4.7527l0.8941 0c0.3647,1.4235 1.2586,2.3057 2.6585,2.6469l2.9645 0.6942c2.5882,0.6234 3.894,2.0821 3.894,4.3761 0,1.0118 -0.1059,1.8234 -0.3176,2.4469 -0.7529,0.2353 -2.0117,0.3412 -3.7527,0.3412 -2.3882,3.7762 -3.5881,6.8466 -3.5881,9.2465 0,1.7646 0.6117,3.3527 1.8353,4.7526l3.1997 3.6822c1.7881,2.0469 2.694,4.1645 2.694,6.3408 0,1.9764 -0.8117,3.7175 -2.4117,5.2115zm-10.7287 9.1642c0.9881,0.5529 1.4822,1.3882 1.4822,2.5174 0,0.553 -0.1294,1.0354 -0.3764,1.4589 -0.2588,0.4352 -0.5883,0.7645 -1.0235,1.0233 -0.4235,0.2472 -0.9058,0.3766 -1.4587,0.3766 -0.4824,0 -0.9293,-0.1059 -1.3411,-0.3295 -0.4235,-0.2117 -0.7764,-0.5529 -1.0706,-0.9999 -0.3058,-0.4471 -0.4469,-0.9529 -0.4469,-1.5294 0,-1.1292 0.494,-1.9645 1.4822,-2.5174l0 -2.5881 -5.482 0 0 -3.5411 13.611 0 0 3.5411 -5.3762 0 0 2.5881z"/>
 </g>
</svg>
