<?xml version="1.0" encoding="UTF-8" standalone="no"?>
<!-- Created with Inkscape (http://www.inkscape.org/) -->

<svg
   xmlns:dc="http://purl.org/dc/elements/1.1/"
   xmlns:cc="http://creativecommons.org/ns#"
   xmlns:rdf="http://www.w3.org/1999/02/22-rdf-syntax-ns#"
   xmlns:svg="http://www.w3.org/2000/svg"
   xmlns="http://www.w3.org/2000/svg"
   xmlns:sodipodi="http://sodipodi.sourceforge.net/DTD/sodipodi-0.dtd"
   xmlns:inkscape="http://www.inkscape.org/namespaces/inkscape"
   width="40.731369mm"
   height="40.77441mm"
   viewBox="0 0 40.731368 40.774411"
   version="1.1"
   id="svg420"
   inkscape:version="0.92.3 (2405546, 2018-03-11)"
   sodipodi:docname="airbnb_meaningful_logo.svg">
  <defs
     id="defs414" />
  <sodipodi:namedview
     id="base"
     pagecolor="#ffffff"
     bordercolor="#666666"
     borderopacity="1.0"
     inkscape:pageopacity="0.0"
     inkscape:pageshadow="2"
     inkscape:zoom="2.8"
     inkscape:cx="121.50349"
     inkscape:cy="123.88006"
     inkscape:document-units="mm"
     inkscape:current-layer="g1454"
     showgrid="false"
     fit-margin-top="0"
     fit-margin-left="0"
     fit-margin-right="0"
     fit-margin-bottom="0"
     inkscape:window-width="960"
     inkscape:window-height="1053"
     inkscape:window-x="0"
     inkscape:window-y="27"
     inkscape:window-maximized="0"
     inkscape:snap-bbox="true"
     inkscape:bbox-paths="true" />
  <metadata
     id="metadata417">
    <rdf:RDF>
      <cc:Work
         rdf:about="">
        <dc:format>image/svg+xml</dc:format>
        <dc:type
           rdf:resource="http://purl.org/dc/dcmitype/StillImage" />
        <dc:title></dc:title>
      </cc:Work>
    </rdf:RDF>
  </metadata>
  <g
     inkscape:label="Layer 1"
     inkscape:groupmode="layer"
     id="layer1"
     transform="translate(-44.928785,-112.11154)">
    <g
       style="display:inline"
       id="g1447"
       transform="translate(-138.04598,-7.9452146)">
      <g
         style="display:inline"
         id="g1395"
         transform="translate(-8.1301138,87.969836)">
        <g
           style="display:inline"
           id="g1404"
           transform="translate(201.29915,-91.467636)">
          <g
             style="display:inline"
             id="g1414"
             transform="translate(-86.103911,-11.995006)">
            <g
               style="display:inline"
               id="g1438"
               transform="translate(-69.177822,-3.984044)">
              <g
                 style="display:inline"
                 id="g1384"
                 transform="translate(-5.6910645,77.248537)">
                <g
                   style="display:inline"
                   id="g1454"
                   transform="translate(132.33961,-176.14747)">
                  <path
                     style="color:#000000;clip-rule:nonzero;display:inline;overflow:visible;visibility:visible;opacity:1;isolation:auto;mix-blend-mode:normal;color-interpolation:sRGB;color-interpolation-filters:linearRGB;solid-color:#000000;solid-opacity:1;fill:#eeedee;fill-opacity:1;fill-rule:nonzero;stroke:none;stroke-width:0.18097498;stroke-linecap:butt;stroke-linejoin:miter;stroke-miterlimit:4;stroke-dasharray:none;stroke-dashoffset:0;stroke-opacity:1;marker:none;color-rendering:auto;image-rendering:auto;shape-rendering:auto;text-rendering:auto;enable-background:accumulate"
                     d="m 34.880816,238.58205 13.39659,40.00842 c 6.30101,-1.91503 10.89288,-8.10207 10.89288,-15.48434 v -8.42326 c 0,-8.91976 -6.70132,-16.10082 -15.02492,-16.10082 z m -7.27605,39.36349 c 0.44968,0.20315 0.91027,0.38368 1.38131,0.54002 -0.47088,-0.1563 -0.93177,-0.33695 -1.38131,-0.54002 z m 1.38183,0.54002 c 0.47088,0.15628 0.95202,0.28848 1.44177,0.39533 -0.48992,-0.10688 -0.97073,-0.23899 -1.44177,-0.39533 z m 19.28617,0.10646 c -0.45896,0.13932 -0.92728,0.25486 -1.40302,0.3483 0.47608,-0.0928 0.94397,-0.20896 1.40302,-0.3483 z m -1.58647,0.38292 c -0.12737,0.0233 -0.25499,0.0458 -0.38344,0.0656 0.12855,-0.0197 0.25598,-0.0425 0.38344,-0.0656 z m -15.51637,0.047 c 0.74763,0.12175 1.51358,0.18501 2.29392,0.18501 -0.78034,0 -1.54628,-0.0633 -2.29392,-0.18501 z m 14.56707,0.0951 c -0.0765,0.009 -0.15363,0.0143 -0.23047,0.0217 0.0768,-0.007 0.15401,-0.0131 0.23047,-0.0217 z m -0.68574,0.0589 c -0.0791,0.005 -0.15829,0.01 -0.23772,0.0134 0.0795,-0.004 0.1586,-0.008 0.23772,-0.0134 z"
                     id="path671"
                     inkscape:connector-curvature="0" />
                  <path
                     style="color:#000000;clip-rule:nonzero;display:inline;overflow:visible;visibility:visible;opacity:1;isolation:auto;mix-blend-mode:normal;color-interpolation:sRGB;color-interpolation-filters:linearRGB;solid-color:#000000;solid-opacity:1;fill:#ff5a70;fill-opacity:1;fill-rule:nonzero;stroke:none;stroke-width:0.18097498;stroke-linecap:butt;stroke-linejoin:miter;stroke-miterlimit:4;stroke-dasharray:none;stroke-dashoffset:0;stroke-opacity:1;marker:none;color-rendering:auto;image-rendering:auto;shape-rendering:auto;text-rendering:auto;enable-background:accumulate"
                     d="m 33.463846,238.58189 c -8.32361,0 -15.02493,7.18106 -15.02493,16.10082 v 8.42378 c 0,8.91977 6.70132,16.10031 15.02493,16.10031 h 10.68152 c 1.43475,0 2.81973,-0.21765 4.13205,-0.6165 l -13.3966,-40.00841 z"
                     id="path673"
                     inkscape:connector-curvature="0" />
                  <path
                     style="fill:#64808e;fill-opacity:1;stroke-width:0.64524549"
                     id="path699"
                     d="m 49.485393,263.45529 v -3.87148 h 2.580984 v 3.87148 h 3.226226 v -5.16197 h 1.935737 l -6.452455,-5.80721 -6.452455,5.80721 h 1.935737 v 5.16197 z"
                     inkscape:connector-curvature="0" />
                  <path
                     style="color:#000000;clip-rule:nonzero;display:inline;overflow:visible;visibility:visible;opacity:0.35;isolation:auto;mix-blend-mode:normal;color-interpolation:sRGB;color-interpolation-filters:linearRGB;solid-color:#000000;solid-opacity:1;fill:#bfbfbf;fill-opacity:1;fill-rule:nonzero;stroke:none;stroke-width:0.18134682;stroke-linecap:butt;stroke-linejoin:miter;stroke-miterlimit:4;stroke-dasharray:none;stroke-dashoffset:0;stroke-opacity:1;marker:none;color-rendering:auto;image-rendering:auto;shape-rendering:auto;text-rendering:auto;enable-background:accumulate"
                     d="m 34.830686,238.43254 0.0181,0.0534 0.10438,-0.0534 z m 0.0501,0.14996 13.34647,40.02304 c 6.301,-1.92291 10.89288,-8.13538 10.89288,-15.54803 v -0.5713 z m 11.75535,40.4091 c -0.12736,0.0234 -0.25499,0.046 -0.38344,0.0659 0.12855,-0.0198 0.25598,-0.0427 0.38344,-0.0659 z m -0.94929,0.1427 c -0.0765,0.009 -0.15363,0.0143 -0.23048,0.0218 0.0768,-0.007 0.15401,-0.0132 0.23048,-0.0218 z m -0.68575,0.0591 c -0.0791,0.005 -0.15828,0.01 -0.23771,0.0134 0.0794,-0.004 0.15859,-0.008 0.23771,-0.0134 z"
                     id="path677"
                     inkscape:connector-curvature="0"
                     sodipodi:nodetypes="ccccccsccccccccccc" />
                  <path
                     sodipodi:nodetypes="ccccccccsccccccccccscccccsccccccccscccccccccccccsccccccccccccccccscccccccccc"
                     style="fill:#eeedee;fill-opacity:1;stroke-width:0.15469335"
                     inkscape:connector-curvature="0"
                     d="m 37.383124,261.7202 c -0.07735,-0.18563 -0.154698,-0.38673 -0.232043,-0.55689 -0.123757,-0.27845 -0.247508,-0.54143 -0.355794,-0.78894 l -0.0155,-0.0154 c -1.067381,-2.3204 -2.212115,-4.67174 -3.418723,-6.99214 l -0.04642,-0.0928 c -0.123757,-0.23205 -0.247513,-0.47955 -0.37127,-0.72706 -0.154691,-0.27845 -0.309383,-0.57236 -0.556896,-0.85081 -0.495015,-0.61877 -1.206609,-0.9591 -1.964601,-0.9591 -0.773469,0 -1.469586,0.34033 -1.980077,0.92816 -0.232037,0.27845 -0.402205,0.57237 -0.556896,0.85081 -0.123757,0.24751 -0.247508,0.49503 -0.371265,0.72706 l -0.04642,0.0928 c -1.191144,2.3204 -2.351341,4.67174 -3.418728,6.99214 l -0.01543,0.0309 c -0.108286,0.24751 -0.232042,0.51049 -0.355799,0.78894 -0.07734,0.17016 -0.154692,0.35579 -0.232038,0.5569 -0.201102,0.57236 -0.262978,1.11379 -0.185631,1.67068 0.170161,1.1602 0.94363,2.13477 2.011011,2.56791 0.402205,0.17017 0.819874,0.24751 1.253019,0.24751 0.123751,0 0.278448,-0.0155 0.402199,-0.0309 0.510492,-0.0619 1.036447,-0.23204 1.546938,-0.52596 0.634241,-0.3558 1.237542,-0.86628 1.918195,-1.60881 0.680653,0.74253 1.299425,1.25301 1.918196,1.60881 0.510492,0.29392 1.036447,0.46408 1.546938,0.52596 0.123751,0.0154 0.278448,0.0309 0.402199,0.0309 0.433145,0 0.866285,-0.0773 1.253019,-0.24751 1.082851,-0.43314 1.84085,-1.42318 2.011012,-2.56791 0.123756,-0.54142 0.06187,-1.08285 -0.139221,-1.65522 z m -6.976672,0.8044 c -0.835344,-1.05191 -1.37677,-2.04195 -1.562402,-2.87729 -0.07734,-0.3558 -0.09282,-0.66518 -0.04642,-0.94363 0.03093,-0.24751 0.123756,-0.46408 0.247513,-0.64972 0.293913,-0.41766 0.788933,-0.68064 1.361299,-0.68064 0.572367,0 1.082852,0.2475 1.3613,0.68064 0.123757,0.18564 0.216573,0.40221 0.247508,0.64972 0.04642,0.27845 0.03093,0.60331 -0.04642,0.94363 -0.185632,0.81988 -0.727058,1.80991 -1.562402,2.87729 z m 6.172263,0.72707 c -0.108287,0.8044 -0.649713,1.50052 -1.407711,1.80991 -0.371264,0.15469 -0.773463,0.2011 -1.175668,0.15469 -0.386734,-0.0464 -0.773468,-0.17016 -1.175667,-0.4022 -0.556897,-0.30939 -1.113793,-0.78894 -1.763504,-1.50053 1.020976,-1.25302 1.639747,-2.39774 1.87179,-3.41872 0.10828,-0.47955 0.123751,-0.91269 0.07734,-1.3149 -0.06188,-0.38672 -0.201102,-0.74252 -0.417675,-1.05191 -0.47955,-0.69612 -1.283954,-1.09832 -2.181174,-1.09832 -0.897225,0 -1.701628,0.41767 -2.181179,1.09832 -0.216567,0.30939 -0.355794,0.66519 -0.417669,1.05191 -0.06187,0.40221 -0.04642,0.85082 0.07734,1.3149 0.232043,1.02098 0.866284,2.18117 1.87179,3.4342 -0.634241,0.71159 -1.206608,1.19113 -1.763504,1.50052 -0.402204,0.23204 -0.788939,0.3558 -1.175667,0.4022 -0.417675,0.0464 -0.81988,-0.0155 -1.175674,-0.15469 -0.757998,-0.30939 -1.299424,-1.00551 -1.407711,-1.80991 -0.04642,-0.38674 -0.0155,-0.77347 0.139227,-1.20662 0.04642,-0.15469 0.123757,-0.30938 0.201103,-0.49501 0.108286,-0.24751 0.232037,-0.51049 0.355793,-0.77347 l 0.0155,-0.0309 c 1.067381,-2.30493 2.212114,-4.65627 3.403252,-6.94573 l 0.04642,-0.0928 c 0.12375,-0.23205 0.247507,-0.47956 0.371264,-0.71159 0.123751,-0.24751 0.262978,-0.47956 0.433139,-0.68066 0.324853,-0.37126 0.757999,-0.57237 1.237544,-0.57237 0.47955,0 0.912695,0.20111 1.237549,0.57237 0.170161,0.2011 0.309388,0.43315 0.433139,0.68066 0.123757,0.23203 0.247513,0.47954 0.371264,0.71159 l 0.04642,0.0928 c 1.175674,2.30493 2.320401,4.65627 3.387788,6.9612 v 0.0155 c 0.123756,0.24751 0.232037,0.52596 0.355794,0.77347 0.07734,0.18563 0.154691,0.34032 0.201102,0.49502 0.123756,0.4022 0.170162,0.78893 0.108286,1.19114 z"
                     id="path689" />
                </g>
              </g>
            </g>
          </g>
        </g>
      </g>
    </g>
  </g>
</svg>
