<?xml version="1.0" encoding="utf-8"?>
<!-- Generator: Adobe Illustrator 19.0.0, SVG Export Plug-In . SVG Version: 6.00 Build 0)  -->
<svg version="1.1" id="圖層_1" xmlns="http://www.w3.org/2000/svg" xmlns:xlink="http://www.w3.org/1999/xlink" x="0px" y="0px"
	 viewBox="-304 31 350 568.3" style="enable-background:new -304 31 350 568.3;" xml:space="preserve">
<style type="text/css">
	.st0{fill:#990000;}
	.st1{fill:#080870;}
</style>
<g>
	<path d="M-256.3,119.5c0,3.9-1.1,5.9-3.3,5.9c-2.2,0-5.3-2.8-9.5-8.4c-4.1-5.6-6.2-9-6.2-10.4c0-0.7,0.6-1.1,1.9-1.1
		c4.1,0,8,1.3,11.6,4C-258.1,112.3-256.3,115.6-256.3,119.5z M-242.5,127.8c0,0.9-0.4,2.2-1.1,3.9c-6.4,15.6-10.6,26.3-12.7,32.2
		c-2.1,5.8-3.4,10.5-4,14.1c-0.6,3.6-1.7,5.3-3.1,5.3c-1.4,0-3.5-2.6-6.3-7.8c-2.7-5.2-4.1-8.5-4.1-10c0-0.8,0.7-1.3,2.2-1.4
		c1.5-0.1,2.8-0.7,3.9-1.8s3.6-4.5,7.5-10.4c3.9-5.8,8.4-13.1,13.3-21.8c1.4-2.4,2.6-3.6,3.6-3.6
		C-242.8,126.5-242.5,126.9-242.5,127.8z M-259.3,74c1.3,0,4.1,0.8,8.1,2.3c4.1,1.5,6.8,3.6,8.1,6.1c1.3,2.5,1.9,5,1.9,7.5
		c0,2.6-1.1,3.9-3.4,3.9c-2.4,0-5.7-2.8-9.8-8.4c-4.2-5.6-6.3-9-6.3-10.4C-260.7,74.3-260.2,74-259.3,74z M-202.1,127.8
		c-4.2,0.8-9.2,1.4-14.9,1.7c-0.4,2.1-1,3.1-1.7,3.1c-0.7,0-1.7-0.6-2.8-1.9c-1.1-1.3-1.9-2.8-2.2-4.6c-0.3-1.8-1-3.8-2.1-6.1
		s-2.1-4.1-3-5.2c-0.9-1.1-1.4-2.1-1.4-2.8c0-0.6,0.7-0.9,2.2-0.9c1.4,0,3.8,0.5,7,1.4c5.9-0.6,12.2-1.5,18.9-2.6
		c-0.5-3.9-1.2-6.6-2-8.1c-0.2,0-0.6,0.1-1.2,0.2c-0.6,0.1-1,0.2-1.2,0.2c-1.2,1.2-2.1,1.9-2.6,1.9c-0.6,0-1.1-0.6-1.4-1.9
		c-0.3-1.3-0.8-5.5-1.5-12.6c-5.3,1.2-9.1,1.9-11.6,1.9s-4.7-0.4-6.5-1.3c-1.9-0.9-2.8-1.6-2.8-2.1c0-0.5,1.5-0.9,4.6-1.1
		c3-0.2,8.3-1,15.7-2.3c-1.1-5.7-2.7-9.2-4.6-10.7c-1.9-1.4-2.9-2.7-2.9-3.9c0-1.1,0.8-1.7,2.3-1.7c1.4,0,3.2,0.5,5.3,1.5
		c2.1,1,3.7,1.9,4.7,2.8c1,0.9,1.5,1.7,1.5,2.6c0,0.8-0.1,1.7-0.2,2.6c-0.1,0.9-0.2,2.9-0.2,6c7.1-1.2,13.7-2.4,19.8-3.6
		c0.3-2.6,0.5-4.8,0.5-6.7c0-3.4-0.5-5.7-1.5-7c-1-1.2-1.6-2.3-1.6-3.1c0-1.3,0.9-2,2.8-2s4.4,0.9,7.6,2.6c3.2,1.8,4.8,3.3,4.8,4.6
		c0,0.5-0.4,1.4-1.2,2.7c-0.8,1.3-1.9,3.7-3.1,7.2c6.1-1.2,10.6-1.9,13.6-1.9c2.9,0,5.3,0.5,7.3,1.6c2,1.1,2.9,2.1,2.9,3.2
		c0,1.4-2.1,2.2-6.2,2.2c-4.1,0-10.7,0.4-19.8,1.2c-1.1,4-1.7,6.5-1.7,7.4c0,1,0.3,1.7,0.9,2.1c0.6,0.4,0.9,0.9,0.9,1.5
		c0,1.3-1,2.1-3.1,2.3c-0.9,0.1-2.9,0.5-6,1.2c-3.1,0.7-5.7,1.2-7.8,1.5c2.7,2.4,4,4.5,4,6.5c0,0.3-0.1,0.6-0.2,0.9
		c7.3-1.9,11.9-3.2,13.7-4.1c1.8-0.9,3.6-1.3,5.5-1.3c1.8,0,4.1,0.8,7.1,2.4c3,1.6,4.5,3.2,4.5,4.7c0,0.9-0.4,1.6-1.3,1.9
		c-0.9,0.4-2.4,1.3-4.7,2.9c-2.2,1.6-3.3,2.8-3.3,3.5c0,0.7,0.3,1.4,0.9,1.9c0.6,0.6,0.9,1.1,0.9,1.5c0,1-1.6,1.7-4.7,1.9
		c-3.2,0.2-9.8,1.1-20.1,2.8c-0.2,3.3-0.4,5.9-0.6,7.8c8.1-1.8,12.9-2.6,14.6-2.6c1.5,0,3.1,0.3,4.6,0.9c1.5,0.6,2.3,1.2,2.3,1.9
		c0,0.7-0.3,1.2-0.9,1.5c-0.6,0.3-3.5,1-8.8,2.1c-5.2,1.1-9.3,1.8-12.3,2.2c-0.4,4-0.7,6.7-0.9,7.9c10.2-1.2,18-2.3,23.3-3.1
		c4.5-0.8,8.5-1.2,11.8-1.2c3.3,0,6.3,0.9,8.9,2.7c2.6,1.8,4,3.3,4,4.6c0,1.2-1.3,1.9-3.9,1.9c-0.9,0-2-0.1-3.3-0.3
		c-3-0.5-8.4-0.8-16.3-0.8c-7.9,0-15.8,0.3-23.7,0.8c6.5,6.9,13.3,12.8,20.4,17.7c7.1,4.9,16.9,8.9,29.4,12c3,0.6,4.5,1.4,4.5,2.5
		c0,0.5-0.4,0.9-1.2,1.2c-0.8,0.3-4,0.5-9.4,0.9c-5.4,0.3-9.8,0.5-13.1,0.5c-3.4,0-6-0.2-7.7-0.7c-1.7-0.5-3-1.2-4-2.1
		s-4-4.6-9.1-11.1c-5.1-6.5-9.4-12-12.8-16.7c-2.2,6-5.6,11.3-10.2,16c-4.6,4.7-9.9,8.2-15.7,10.6c-5.8,2.4-10.6,3.6-14.4,3.6
		c-1.7,0-2.5-0.4-2.5-1.2c0-0.7,0.8-1.3,2.5-1.9c8.9-3.4,16.3-7.7,22.2-12.9c5.9-5.2,9.8-11,11.8-17.3c-6.5,0.9-12.1,1.9-16.7,2.8
		c-4.7,0.9-8,1.4-10.1,1.4c-2.1,0-4.3-0.6-6.8-1.7c-2.5-1.1-3.7-2.1-3.7-2.9c0-0.7,1.2-1.1,3.6-1.1c6.6,0,18.2-1,34.7-3.1
		c0.6-3.5,1-6.1,1.2-7.9c-4.1,0.5-7.5,0.8-10.2,0.8c-5.4,0-8.1-0.7-8.1-2.2c0-0.8,0.8-1.3,2.3-1.5c4.8-0.5,10.3-1.4,16.6-2.6
		L-202.1,127.8z M-201.9,123.4c0.1-1.3,0.2-2.8,0.2-4.3c0-1.4-0.1-3.2-0.2-5.3c-5.8,0.8-11.4,1.8-16.9,2.8c0.6,2.2,1.2,5.2,1.7,9.1
		C-211.7,125.1-206.7,124.3-201.9,123.4z M-187.3,85.6c-7.4,0.9-13.7,1.9-18.9,2.8c0.2,2.1,0.4,5.3,0.6,9.8c9.1-2.3,14-3.4,14.7-3.5
		c0.7-0.1,1.3-0.5,1.9-1.3C-188.5,92.5-188,89.9-187.3,85.6z M-194.3,112.4l-0.5,9.6c2.7-0.5,5.5-1.1,8.5-1.7c3-0.6,4.9-1.2,5.8-1.6
		c0.9-0.5,1.6-1.4,2.2-2.9c0.6-1.4,0.9-2.7,0.9-3.9c0-1.1-0.8-1.7-2.5-1.7C-181.4,110.2-186.3,111-194.3,112.4z"/>
	<path d="M-78.9,83.7c0.9-0.3,3.3-3-1.4-7.5c-8.4-8-21.8-7-22-7c-1,0-1.4,0.6-1.1,1s2.7,2.7,3.4,3.3C-91.8,80.2-82.4,84.8-78.9,83.7
		z"/>
	<path d="M-60.1,95.8c0-1.8-2.6-4.1-7.9-4.1c-1.8,0-4.1,0.3-6.8,0.9c-35.3,6.8-45.1,8.2-50.5,8.2h-2.4c-2,0-2.7,0.6-2.7,1.4
		c0,2.1,8.4,6.4,12,6.4c1.2,0,2.4-0.3,3.6-0.8c10.8-3.8,33.3-8.7,48.3-9.3C-61.9,98.2-60.1,97-60.1,95.8z"/>
	<path d="M-81.5,129.8c-2,0-4.3,0.3-6.8,0.9c-5.5,1.5-13.2,3.2-18.1,3.6c-1.8,0.2-2.7,0.5-2.7,0.9c0,0,1.8,3.6,9.6,3.6
		c5.3,0,23.9-3.5,24.8-5.3c0.2-0.2,0.2-0.3,0.2-0.5c0-0.6-0.3-1.2-1.1-1.8C-77,130.3-78.9,129.8-81.5,129.8z"/>
	<path d="M-73.3,115.3c0-2.6-5-3.2-7-3.2c-1.8,0-4.1,0.3-6.7,1.1c-5.2,1.5-13.7,3.5-18.7,3.8c-2.3,0.2-4,0.6-4,1.4
		c0,1.1,3.3,3,8.2,3c4,0,10.8-0.9,24-3.5C-74.7,117.4-73.3,116.5-73.3,115.3z"/>
	<path d="M5.9,125.1c-1.4,0-16.4,2-19.9,2.4c2.9-9.7,6.1-16.6,8.4-18.2c0.9-0.8,1.4-1.5,1.4-2.3c0-3.6-10-6.7-12.3-6.7
		c-1.5,0-3,0.5-4.9,1.2c-2.6,1.1-7.4,2.4-12.8,3.5c2.7-9,3.6-11.1,4.6-12.6c0.8-1.1,1.2-1.8,1.2-2.7c0-1.5-1.2-3.3-4.7-6.5
		C-2,80,0.6,78.6,0.6,77.1c0-1.1-4-4.9-10.9-4.9c-2,0-4.3,0.3-7.3,0.9c-17.5,4-29.6,5.9-35.9,6.2c-2.4,0.2-3.8,0.5-3.8,1.1
		c0,0.9,3.3,3.6,12.2,3.6c1.4,0,2.9,0,4.7-0.2c0.5,1.4,0.6,2.9,0.6,5c0,3.6-0.8,9.1-2.6,17.8c-5.6,1.1-11.4,1.7-15.8,2
		c-1.4,0.2-2.1,0.5-2.1,0.8c0,0.8,3,2.9,9.9,2.9c2.3,0,4.7-0.3,7-0.6c-1.4,5.6-3,12.3-5.3,20.5c-11.9,1.7-21.1,2.7-24,2.9
		c-2.7,0.2-4.1,0.6-4.1,1.4c0,1.4,7.3,4,10.8,4c1.8,0,3.8-0.2,6.4-0.8c14.6-3.3,39.4-5.6,56.2-5.6c6.2,0,11.6,0.3,14.6,1.1
		c1.8,0.5,3.5,0.8,4.7,0.8c2.7,0,4-1.1,4-2.4C19.7,130.5,12.7,125.1,5.9,125.1z M-23,128.8c-6.4,1.1-12.8,1.8-18.8,2.6
		c2.6-9.1,4.6-16,6.2-21.3c5.3-1.2,9.6-2,13.4-2.3c0.5,0,0.9-0.2,1.2-0.2c1.4,0,2,0.6,2,2.3C-19,113.9-21.2,123-23,128.8z"/>
	<path d="M-15.2,147c-1.1,0-2.3,0.3-3.6,0.9c-3.6,1.7-20.5,4.4-32.5,4.6c-1.4-0.6-3-0.9-5.6-0.9c-2,0-5.5,0.2-5.5,1.7
		c0,0.8,0.6,1.5,1.5,2.7c2.6,3,3.8,6.5,6.1,26.3c1.1,7,3.5,12.3,5.2,12.3c1.2,0,2.3-2.6,2.9-9.9c20.5-1.8,29.3-2.4,38.3-2.6
		c3,0,4.6-0.2,4.6-1.2c0-1.2-1.8-3.3-5.9-7.1c2.6-8.7,6.1-13.1,8.4-14.1c1.2-0.6,2-1.4,2-2.3C0.4,153.4-12.4,147-15.2,147z
		 M-16.6,159c-0.2,3.8-1.5,12.6-2.3,15.8c-4.6,1.4-8.8,2.1-28,4c-1.4-9.3-2.1-15.5-2.3-21.1c12.8-2.1,24.2-3.2,27.8-3.3h0.8
		c2.9,0,4,0.9,4,4.1V159z"/>
	<path d="M-83.3,148.1c-1.1,0-1.8,0.3-3,0.9c-4.3,2-9.9,4-16.1,4.3c-2.1-1.5-7.4-2.4-8.5-2.4s-1.5,0.3-1.5,0.9
		c0,0.6,0.3,1.4,0.9,2.3c2.3,4.1,4.3,11.2,5.6,25.1c0.8,8.8,4.1,10.9,4.4,10.9c1.1,0,1.7-2.1,2.1-8.4c10.2-1.8,14.7-2.1,21.1-2.7
		c2.9-0.2,4.6-0.5,4.6-1.4s-1.7-2.4-5.2-5.5c2.6-7.9,5.6-12.9,7.3-14.1c0.9-0.9,1.4-1.7,1.4-2.4C-70.3,153-81.2,148.1-83.3,148.1z
		 M-83.2,157.7c-0.3,4.7-1.4,11.2-2.4,15.2c-2.6,1.5-4.6,2-14,3.2c-0.8-7.1-1.2-13.4-1.5-18.7c14.7-3.2,14.7-3.2,15-3.2
		c1.8,0,2.9,1.2,2.9,3V157.7z"/>
	<path class="st0" d="M-265.3,293.6c4.2,0,8,1,11.3,3c3.3,2,5,4.8,5,8.4c0,3.7-1,5.6-3.1,5.6c-2.1,0-5.3-2.3-9.6-6.8
		c-4.3-4.5-6.5-7.4-6.5-8.5C-268.3,294.2-267.3,293.6-265.3,293.6z M-233.8,301.5c0.7,0,1.1,0.5,1.1,1.5c0,1.1-0.5,2.7-1.4,4.7
		c-5.1,12.3-9.4,23.4-12.9,33.2c-3.5,9.9-5.5,16.6-6,20.3c-0.5,3.7-1.4,5.5-2.9,5.5c-1.5,0-3.6-2.2-6.2-6.6
		c-2.6-4.4-3.9-7.6-3.9-9.5c0-1.3,0.7-2.3,2.2-2.9c1.4-0.6,2.7-1.6,3.7-2.9c1-1.3,4.1-6.4,9.1-15.1c5.1-8.7,9.4-16.6,13-23.5
		C-236.1,303.1-234.8,301.5-233.8,301.5z M-253.4,260c2.6,0,5.4,0.4,8.6,1.3c3.2,0.9,5.4,2.4,6.7,4.5c1.3,2.1,2,4,2,5.5
		c0,1.7-0.4,2.9-1.1,3.7c-0.7,0.8-1.7,1.2-2.8,1.2c-2,0-5.1-2.2-9.5-6.7c-4.4-4.5-6.6-7.2-6.6-8.1C-256,260.4-255.1,260-253.4,260z
		 M-191.1,323.7c6.7,8.2,14.3,14.7,22.9,19.5c8.5,4.9,19,8.4,31.5,10.5c2.2,0.3,3.3,0.9,3.3,1.9c0,0.5-0.6,1-1.9,1.5
		c-1.3,0.5-5,1.1-11.2,1.8c-6.1,0.7-11.3,1-15.4,1c-4.2,0-7.5-0.7-9.8-2c-2.3-1.3-6-5.1-11.1-11.2c-5.1-6.1-9.4-11.7-12.8-16.9
		c-7,8.5-14.5,14.9-22.6,19.3c-8,4.4-15.5,6.6-22.6,6.6c-2.3,0-3.4-0.4-3.4-1.2c0-0.7,0.9-1.4,2.6-2c8.6-2.8,16.5-6.8,23.9-12.1
		c7.3-5.3,13.1-11.2,17.2-17.7c-7-10.6-12.2-18-15.7-22c-3.4-4-6.3-6.8-8.5-8.4c-2.3-1.6-3.4-2.9-3.4-4c0-0.9,0.7-1.4,2.2-1.4
		c7,0,13.5,5.2,19.4,15.7c1.3,2.4,4.5,6.9,9.6,13.5c4.1-8.1,7.3-16.2,9.6-24.5c2.3-8.3,3.4-13.4,3.4-15.5c0-1.4-0.7-2.2-2-2.2
		c-3.6,0-9.5,1.2-17.5,3.6c-8.1,2.4-13.1,3.6-15.2,3.6c-2.2,0-4.3-0.6-6.4-1.7c-2.1-1.1-3.2-2.2-3.2-3.1c0-0.8,1.1-1.3,3.3-1.4
		c6-0.2,13.4-1.4,22.2-3.6c8.8-2.2,15.2-4.8,19.2-7.8c1.1-0.9,2.5-1.4,4-1.4s4.3,1.3,8.2,3.9c3.9,2.6,5.9,4.5,5.9,5.7
		c0,1.3-1.1,3-3.4,5c-3.3,2.8-6.1,7.7-8.4,14.7C-181.2,304.4-185.9,315.1-191.1,323.7z"/>
	<path class="st0" d="M-93.6,346.2c9.3-4.4,14.8-7.1,16.4-7.9c1.7-0.8,2.9-1.2,3.9-1.2c0.8,0,1.2,0.4,1.2,1.1c0,0.7-0.9,1.8-2.6,3.1
		c-11.7,9.1-19.1,16-22.3,20.8c-2.2,3.7-3.9,5.6-5.3,5.6c-1.3,0-2.6-1.6-3.6-4.7c-1.1-3.2-1.6-5.5-1.6-7.1c0-1.4,0.9-3.3,2.7-5.5
		c1.8-2.2,3-4.8,3.5-7.7l1.5-8.5c0.5-2.8,0.8-10.2,0.8-22.2c0-3.7-0.5-5.6-1.4-5.6c-0.3,0-0.8,0.2-1.4,0.5l-8.7,3.9
		c-2.6,1.1-4.8,1.7-6.5,1.7c-1.8,0-3.8-0.7-6.2-2.1c-2.4-1.4-3.6-2.6-3.6-3.6c0-0.5,0.3-0.9,0.9-1.2c0.6-0.3,1.4-0.4,2.4-0.4h2.6
		c2.5,0,6.3-1,11.5-2.9c5.2-2,8.5-3.9,9.9-5.9c1.4-2,3.1-2.9,5-2.9c1.9,0,4.3,0.6,7.3,1.7c3,1.1,4.5,2.2,4.5,3.1
		c0,1-0.9,2.5-2.8,4.3c-2.6,2.3-4.5,6.5-5.7,12.6C-92.2,321.1-93,331.5-93.6,346.2z M-98.8,256.3c7.1,0,12.3,1.2,15.5,3.7
		c3.2,2.5,4.8,5.6,4.8,9.5c0,3-1.1,4.5-3.4,4.5c-2.3,0-6.3-2.4-11.9-7.3c-5.7-4.9-8.5-7.9-8.5-9.1
		C-102.4,256.7-101.2,256.3-98.8,256.3z M-20.7,309.7l13.8-2c5.3-1.2,9.4-1.9,12.4-1.9c3,0,5.8,0.8,8.4,2.5c2.6,1.7,3.9,3.2,3.9,4.7
		c0,2.1-1.9,3.1-5.7,3.1c-1,0-2.2-0.1-3.4-0.3c-2.1-0.4-7.4-0.6-16.1-0.6c-8.7,0-18.8,0.7-30.3,2.1c-11.5,1.4-20,2.8-25.4,4.3
		c-5.4,1.5-9,2.2-10.6,2.2c-1.8,0-3.5-0.6-5.3-1.9c-1.8-1.3-2.6-2.4-2.6-3.3c0-0.9,1-1.4,3.1-1.4c1,0,8.8-1,23.3-2.9
		c1.5-4.1,3.8-11,6.8-20.5c-1.1,0.1-2.6,0.4-4.3,0.8c-1.7,0.4-3.6,0.6-5.7,0.6c-2.2,0-4.1-0.3-5.7-0.9c-1.7-0.6-2.5-1.3-2.5-2.2
		c0-0.9,0.7-1.4,2.2-1.5c1.4-0.1,7.2-0.8,17.2-2.2c1.1-5.3,1.7-9.7,1.7-13.3c0-3.5-0.1-5.9-0.2-7.3c-1.5,0.1-3.4,0.2-5.4,0.2
		c-2.2,0-4.4-0.5-6.8-1.6c-2.4-1.1-3.6-2-3.6-2.7c0-0.7,1.3-1.2,4-1.4c2.7-0.2,7.1-0.9,13.1-2.2c6-1.2,10.3-2.3,12.6-3.1
		c6.3-2.4,10.9-3.6,13.8-3.6c2.9,0,5.4,0.6,7.4,1.7c2.1,1.1,3.1,2.1,3.1,2.9c0,0.9-0.7,1.8-2,2.5c-1.3,0.7-4.2,1.7-8.7,2.8
		c-4.4,1.1-8.8,2-13.1,2.6c-4.3,0.6-6.7,0.9-7.2,1c2.2,2,3.3,3.6,3.3,4.8c0,1.2-0.2,2.3-0.6,3.3c-1.4,3.6-2.8,7.7-4,12.2
		c8.9-1.8,13.6-2.8,14.3-3.3c1.3-0.8,2.7-1.2,4.2-1.2c1.4,0,3.8,1,7.1,3.1c3.3,2.1,5,3.8,5,5.1c0,0.6-0.4,1.3-1.1,2
		c-3,3.5-5.1,6.7-6.4,9.5C-18.2,305.1-19.5,307.6-20.7,309.7z M-56.7,334.1c5.8-0.1,12.1-0.9,19-2.2c6.9-1.4,11.4-2.6,13.6-3.5
		c2.2-0.9,4.2-1.4,6-1.4c1.8,0,4.5,1.2,8.3,3.7c3.8,2.5,5.7,4.4,5.7,5.7c0,1.4-0.6,2.6-1.7,3.4c-3.4,2.5-5.8,5.3-7.2,8.4
		c-1.4,3.2-2.1,5.3-2.1,6.4c0,1.1,0.6,2.1,1.9,3c1.2,0.9,1.9,1.8,1.9,2.9c0,1.8-1.8,2.9-5.5,3.6c-3.7,0.6-15.2,1.5-34.5,2.6
		c0,4.2-1.1,6.4-3.3,6.4c-2.2,0-3.8-5.3-4.8-15.8c-1-10.5-2.9-17.4-5.6-20.5c-0.7-0.9-1.1-1.9-1.1-2.9c0-0.9,0.9-1.4,2.6-1.4
		C-61.8,332.5-59.6,333-56.7,334.1z M-51.5,360.9c4.2-0.2,9.2-0.6,14.9-1.3c5.7-0.7,9.1-1.3,10.2-1.9c1.1-0.6,2.4-3.6,3.7-9
		c1.3-5.4,2-8.8,2-10.2c0-1.3-0.3-2.2-1-2.6c-0.7-0.4-2.2-0.5-4.6-0.5c-2.4,0-5.5,0.4-9.3,1.1l-18,2.9
		C-52.5,344.5-51.9,351.7-51.5,360.9z M-28.9,310.8c1.1-2.5,2.2-5.7,3.2-9.8c1-4,1.5-6.6,1.5-7.8c0-2-1.1-2.9-3.4-2.9
		c-0.8,0-5.4,0.7-13.8,2.2c-2.6,9.5-5,16.5-7.1,20.9C-39.7,312.2-33.2,311.3-28.9,310.8z"/>
	<path class="st1" d="M-205.3,462c17.9-2.3,27.8-3.7,29.8-4.3c2-0.6,3.5-0.9,4.6-0.9c2.1,0,5.7,1.4,10.9,4.3c5.2,2.9,7.8,5,7.8,6.4
		c0,1.4-1,2.7-3,3.6c-2,1-5.1,4.4-9.2,10.2c-4.1,5.8-6.2,9.6-6.2,11.2c0,0.7,0.4,1.5,1.2,2.4c0.8,0.9,1.2,1.7,1.2,2.4
		c0,0.8-0.4,1.4-1.2,1.6c-0.8,0.3-2.8,0.4-6,0.4c-9.3,0-19.4,0.7-30.2,2c0,17.9-0.4,32.6-1.3,44.3c-0.9,11.6-1.7,18.7-2.6,21.1
		c-0.8,2.4-1.7,3.6-2.6,3.6c-0.9,0-1.6-1.5-2.1-4.5c-0.5-3-0.7-6.8-0.7-11.5s0.1-12.5,0.4-23.5c0.3-11,0.4-20.5,0.4-28.6
		c-10.1,1.2-19.1,2-26.8,2.2c-0.2,4.9-1.1,7.3-2.6,7.3c-0.5,0-1.2-0.4-2.2-1.1c-0.9-0.7-1.6-1.8-2-3.2c-0.4-1.4-0.8-4.3-1.2-8.8
		c-0.4-4.5-0.9-8.4-1.5-11.7c-0.6-3.3-1.3-6-2.2-8c-0.8-2-2.9-5.5-6.2-10.5c-0.5-0.7-0.8-1.4-0.8-2c0-0.9,0.6-1.4,1.7-1.4
		c1.1,0,2.8,0.3,4.9,0.8c2.1,0.5,3.7,1,4.7,1.5l33.8-4.2c0-9.5-0.4-16.5-1.1-21.1c-0.7-4.5-2-8-3.9-10.4c-0.9-1.2-1.4-2.4-1.4-3.4
		c0-0.9,1-1.4,3.1-1.4c2,0,5,0.6,9,1.8c4,1.2,6,3,6,5.3c0,0.8-0.3,2-0.8,3.4C-204.6,441.1-205.2,449.2-205.3,462z M-214.2,497.1
		v-5.9c0-6.4-0.1-14.2-0.3-23.3l-29.8,4.2c1.8,8.6,2.8,17.9,3.3,28.1L-214.2,497.1z M-205.6,496c7.3-0.8,12.8-1.5,16.4-2
		c3.6-0.5,6.1-1.1,7.4-1.7c1.3-0.6,2.5-1.7,3.5-3.3c1-1.5,2.1-4.3,3.1-8.3c1-4,1.6-7.3,1.6-10c0-2.6-0.6-4.3-1.7-5
		c-1.1-0.8-3-1.2-5.6-1.2c-2.6,0-10.7,0.8-24.3,2.3L-205.6,496z"/>
	<path class="st1" d="M-9.5,456.9c-2.2-1.2-5.1-1.8-8.8-1.8c-3.8,0-8.8,1.1-15,3.2c-6.2,2.1-20.3,5.7-35.6,9.1
		c-15.3,3.5-25.3,5.2-29.9,5.2c-4.8,0-7.1,0.5-7.1,1.4c0,0.9,1.2,2,3.5,3.1c2.3,1.1,4.8,1.7,7.5,1.7c2.6,0,5.6-0.4,9.1-1.3
		c3.5-0.9,12.6-2.8,27.5-5.7c2-0.4,3-0.5,4.2-0.8c16.4-3.1,30-5.5,33.9-5.6c3.9-0.2,7.3-0.7,10-1.6c2.7-0.9,4.1-2,4.1-3.3
		S-7.3,458-9.5,456.9z"/>
	<path class="st1" d="M9.9,545.8c-14.7-3-26-6.6-33.9-10.8c-8-4.2-16.5-10.6-25.7-19.1c4.7-6.8,8-14,11.1-20.5
		c3.1-6.6,6.3-14.9,7.3-16.2c0.9-1.3,1.4-2.3,1.4-3c0-1.6-1.8-3.3-5.3-5.2c-3.6-1.9-6.1-2.9-7.5-2.9c-1.5,0-2.3,0.5-2.3,1.5
		c0,1,0.2,2,0.7,3c0.5,1,0.7,2.8,0.7,5.5c0,2.8-0.7,10.3-3.2,17.1c-2.8,7.7-5.7,12.5-7.8,15.5c-3.3-3.8-6.9-8.1-9.8-12
		c-2.9-3.9-8.7-11-11.4-13.3c-2.7-2.3-5.7-3.4-8.8-3.4c-3.2,0-4.8,0.6-4.8,1.9c0,1.2,1.1,2.1,3.3,2.5c2.2,0.4,4.9,2.2,8.1,5.3
		c3.2,3.1,11.7,13.7,19.6,23.8c-9.7,13.5-25.5,23.4-47.4,29.5c-2.9,0.8-4.3,1.6-4.3,2.3c0,0.7,1.1,1.1,3.3,1.1
		c8.3,0,17.3-1.9,27.1-5.8c9.8-3.9,18.6-10.8,26.3-20.7c3.5,4.4,8.3,9.8,14.5,16c6.1,6.3,10,10.1,11.7,11.5c1.7,1.4,3.4,2.4,5.1,3
		c1.8,0.6,4.2,0.9,7.4,0.9c3.1,0,8.6-0.4,16.5-1.3c7.9-0.9,12.4-1.5,13.5-1.8c1.1-0.3,1.6-0.7,1.6-1.2
		C16.7,547.8,14.5,546.7,9.9,545.8z"/>
	<path class="st1" d="M-53.8,467.9c0.7-11.6,1.9-19.2,3.5-25.4c0.5-1.5,0.8-2.8,0.8-3.9c0-1-0.5-1.9-1.6-2.7c-1.1-0.8-3.1-1.8-6-2.9
		c-2.9-1.2-5.2-1.8-6.9-1.8c-1.7,0-2.5,0.6-2.5,1.9c0,1.2,1.1,2.9,3.3,5c0.9,0.9,1.8,4.8,2.6,11.6c0.8,6.8,1.2,11.9,1.2,19.1
		c0,2.2,1.1,2.8,2.8,2.6C-55.3,471.3-54,470.5-53.8,467.9z"/>
</g>
</svg>
