<?xml version="1.0" encoding="utf-8"?>
<!DOCTYPE svg PUBLIC "-//W3C//DTD SVG 1.1//EN" "http://www.w3.org/Graphics/SVG/1.1/DTD/svg11.dtd">
<svg xmlns="http://www.w3.org/2000/svg" xml:space="preserve" width="64" height="64">
  <path d="M18.745 0h26.51L64 18.745v26.51L45.255 64h-26.51L0 45.255v-26.51L18.745 0z"/>
  <path fill="#F46C6C" d="M19.159 1h25.682L63 19.159v25.682L44.841 63H19.159L1 44.841V19.159L19.159 1z"/>
  <radialGradient id="a" cx="-869.2847" cy="-993.896" r="32.0003" gradientTransform="matrix(-1.2065 1.324 -1.3191 -1.2021 -2327.9756 -39.9579)" gradientUnits="userSpaceOnUse">
    <stop offset="0" stop-color="#fff"/>
    <stop offset="1" stop-color="#e20000"/>
  </radialGradient>
  <path fill="url(#a)" d="M20.277 3.875h23.196l16.402 16.402v23.196L43.473 59.875H20.277L3.875 43.473V20.277L20.277 3.875z"/>
  <path fill="none" d="m92.67 26.308.621-.539.82.059.537.621-.061.82-.617.539-.82-.059-.539-.621.059-.82z"/>
  <path fill="#FFF" stroke="#000" d="M35.708 38.596h-9.344v-1.285c0-1.436.285-2.705.854-3.809.569-1.119 1.769-2.537 3.598-4.252l1.656-1.522c.984-.91 1.701-1.768 2.148-2.573.466-.805.698-1.61.698-2.416 0-1.225-.414-2.178-1.242-2.861-.827-.7-1.983-1.05-3.468-1.05-1.397 0-2.907.297-4.529.892-1.622.578-3.312 1.444-5.072 2.599v-8.244c2.087-.734 3.994-1.277 5.719-1.627 1.726-.351 3.39-.525 4.995-.525 4.208 0 7.417.876 9.626 2.625 2.209 1.733 3.313 4.271 3.313 7.613 0 1.715-.336 3.255-1.009 4.621-.674 1.348-1.82 2.8-3.443 4.358l-1.654 1.497c-1.174 1.084-1.941 1.961-2.305 2.627-.361.646-.542 1.365-.542 2.152v1.18m-8.757 5.465 8.35-.104.153 7.871h-8.58"/>
  <path fill="none" stroke="#000" d="m26.95 44.061-.077 7.767"/>
</svg>