<?xml version="1.0" encoding="UTF-8" standalone="no"?>
<!-- Created with Inkscape (http://www.inkscape.org/) -->
<svg id="svg3932" xmlns="http://www.w3.org/2000/svg" xml:space="preserve" height="128" width="128" version="1.0" xmlns:xlink="http://www.w3.org/1999/xlink" viewBox="0 0 256 256">
  <defs id="defs4036"><radialGradient id="radialGradient1558" fx="18.934" fy="17.81" xlink:href="#linearGradient4750" gradientUnits="userSpaceOnUse" cy="17.486" cx="18.634" gradientTransform="scale(1.0368 .96449)" r="40.693"/><linearGradient id="linearGradient4750"><stop id="stop4752" stop-color="#fff" offset="0"/><stop id="stop4758" stop-color="#fefefe" offset=".37931"/><stop id="stop4754" stop-color="#1d1d1d" offset="1"/></linearGradient>
  <linearGradient id="linearGradient49419" y2="323.36" gradientUnits="userSpaceOnUse" x2="258.77" gradientTransform="translate(5.5824 -12.832)" y1="408.7" x1="258.77"><stop id="stop40333" stop-color="#3434ff" offset="0"/><stop id="stop40335" stop-color="#b9b9b9" offset="1"/></linearGradient><linearGradient id="linearGradient49421" y2="85.792" gradientUnits="userSpaceOnUse" x2="-60.735" gradientTransform="translate(2.1559 -1.33)" y1="171.13" x1="-60.735"><stop id="stop39436" stop-color="#ffff01" offset="0"/><stop id="stop39438" stop-color="#b9b9b9" offset="1"/></linearGradient><linearGradient id="linearGradient49423" y2="298.71" gradientUnits="userSpaceOnUse" x2="-105.42" y1="384.04" x1="-105.42"><stop id="stop39444" stop-color="red" offset="0"/><stop id="stop39446" stop-color="#b9b9b9" offset="1"/></linearGradient><linearGradient id="linearGradient49425" y2="408.7" gradientUnits="userSpaceOnUse" x2="32.595" gradientTransform="translate(-3.4532 -.43490)" y1="494.61" x1="32.595"><stop id="stop33048" stop-color="lime" offset="0"/><stop id="stop33050" stop-color="#b9b9b9" offset="1"/></linearGradient><linearGradient id="linearGradient49427" y2="99.849" gradientUnits="userSpaceOnUse" x2="230.67" gradientTransform="translate(1.591 1.6072)" y1="171.13" x1="230.67"><stop id="stop39452" stop-color="#f0f" offset="0"/><stop id="stop39454" stop-color="#b9b9b9" offset="1"/></linearGradient><radialGradient id="radialGradient2753" gradientUnits="userSpaceOnUse" cy="63.965" cx="15.116" gradientTransform="scale(1.644 .60828)" r="12.289"><stop id="stop4116" offset="0"/><stop id="stop4118" stop-opacity="0" offset="1"/></radialGradient><radialGradient id="radialGradient2755" gradientUnits="userSpaceOnUse" cy="15.716" cx="18.248" gradientTransform="scale(.99999 1)" r="29.993"><stop id="stop3964" stop-color="#d3e9ff" offset="0"/><stop id="stop4134" stop-color="#d3e9ff" offset=".15517"/><stop id="stop4346" stop-color="#4074ae" offset=".75"/><stop id="stop2523" stop-color="#36486c" offset="1"/></radialGradient><radialGradient id="radialGradient2757" gradientUnits="userSpaceOnUse" cy="10.476" cx="11.827" gradientTransform="scale(1.1795 .84779)" r="32.665"><stop id="stop4352" stop-color="#fff" offset="0"/><stop id="stop4354" stop-color="#fff" stop-opacity="0" offset="1"/></radialGradient><radialGradient id="radialGradient2787" gradientUnits="userSpaceOnUse" cy="12.142" cx="15.601" gradientTransform="scale(.99999 1)" r="43.527"><stop id="stop4128" stop-color="#fff" offset="0"/><stop id="stop4130" stop-color="#fff" stop-opacity=".16495" offset="1"/></radialGradient></defs>
  <rect id="_x3C_Slice_x3E_" height="256" width="256" y="0" x="0" fill="none"/>
<g id="g2253" transform="matrix(5.7749 0 0 5.7749 -14.267 -19.559)"><g id="g2665"><path id="path4112" d="m45.053 38.909a20.203 7.4751 0 1 1 -40.406 0 20.203 7.4751 0 1 1 40.406 0z" transform="matrix(1 0 0 1.2432 0 -10.272)" fill="url(#radialGradient2753)"/><path id="path3214" d="m43.96 23.485c0 10.71-8.682 19.392-19.39 19.392-10.71 0-19.391-8.682-19.391-19.392-0.0003-10.709 8.681-19.39 19.391-19.39 10.708 0.0002 19.39 8.681 19.39 19.39z" stroke="#39396c" fill="url(#radialGradient2755)"/><path id="path4348" opacity=".42159" d="m30.709 15.271a12.93 9.2934 0 1 1 -25.86 0 12.93 9.2934 0 1 1 25.86 0z" transform="matrix(.83594 0 0 1 9.8869 0)" fill="url(#radialGradient2757)"/><g id="g4136" fill-opacity=".71345" transform="matrix(.98237 0 0 .98237 .12108 .23291)"><g id="g4138"><g id="g4142"><path id="path4144" d="m44.071 20.714v0l-0.545 0.618c-0.334-0.394-0.709-0.725-1.089-1.071l-0.836 0.123-0.764-0.863v1.068l0.654 0.495 0.436 0.494 0.582-0.658c0.146 0.274 0.291 0.548 0.436 0.823v0.822l-0.655 0.74-1.199 0.823-0.908 0.907-0.582-0.661 0.291-0.74-0.582-0.658-0.981-2.098-0.836-0.945-0.219 0.246 0.328 1.194 0.618 0.699c0.352 1.017 0.701 1.99 1.164 2.963 0.718 0 1.394-0.077 2.107-0.166v0.576l-0.872 2.139-0.8 0.904-0.654 1.401v2.303l0.219 0.906-0.364 0.41-0.8 0.494-0.836 0.699 0.691 0.782-0.945 0.824 0.182 0.533-1.418 1.606h-0.945l-0.8 0.494h-0.509v-0.659l-0.217-1.318c-0.281-0.826-0.574-1.647-0.872-2.467 0-0.605 0.036-1.205 0.072-1.81l0.364-0.823-0.509-0.988 0.037-1.357-0.692-0.782 0.346-1.13-0.563-0.639h-0.982l-0.327-0.37-0.981 0.618-0.4-0.454-0.909 0.782c-0.617-0.7-1.235-1.399-1.854-2.098l-0.726-1.729 0.654-0.986-0.363-0.411 0.799-1.894c0.656-0.816 1.341-1.599 2.035-2.385l1.236-0.329 1.381-0.165 0.945 0.248 1.345 1.356 0.473-0.534 0.653-0.082 1.236 0.411h0.946l0.654-0.576 0.291-0.411-0.655-0.412-1.091-0.082c-0.303-0.419-0.584-0.861-0.944-1.234l-0.364 0.164-0.145 1.07-0.655-0.74-0.144-0.824-0.727-0.574h-0.292l0.728 0.822-0.291 0.74-0.581 0.164 0.363-0.74-0.655-0.328-0.581-0.658-1.091 0.246-0.145 0.328-0.654 0.412-0.363 0.906-0.909 0.452-0.4-0.452h-0.436v-1.482l0.946-0.494h0.726l-0.146-0.575-0.58-0.576 0.98-0.206 0.545-0.617 0.436-0.741h0.801l-0.219-0.575 0.509-0.329v0.658l1.09 0.246 1.09-0.904 0.073-0.412 0.945-0.658c-0.342 0.043-0.684 0.074-1.018 0.165v-0.7414l0.363-0.8228h-0.363l-0.798 0.7402-0.219 0.412 0.219 0.576-0.365 0.987-0.581-0.329-0.508-0.576-0.8 0.576-0.291-1.316 1.381-0.9052v-0.4941l0.872-0.5757 1.381-0.3296 0.946 0.3296 1.744 0.3291-0.436 0.4932h-0.945l0.945 0.9877 0.727-0.8227 0.221-0.3618s2.787 2.4975 4.379 5.2305c1.593 2.733 2.341 5.955 2.341 6.609z"/></g></g><g id="g4146"><g id="g4150"><path id="path4152" d="m26.07 9.2363l-0.073 0.4932 0.51 0.3295 0.871-0.5761-0.436-0.4937-0.582 0.3296-0.29-0.0825"/></g></g><g id="g4154"><g id="g4158"><path id="path4160" d="m26.87 5.8633l-1.89-0.7407-2.18 0.2466-2.691 0.7402-0.508 0.4941 1.671 1.1514v0.6582l-0.654 0.6582 0.873 1.7287 0.58-0.33 0.729-1.1512c1.123-0.3472 2.13-0.7407 3.197-1.2344l0.873-2.2212"/></g></g><g id="g4162"><g id="g4166"><path id="path4168" d="m28.833 12.775l-0.291-0.741-0.51 0.165 0.147 0.904 0.654-0.328"/></g></g><g id="g4170"><g id="g4174"><path id="path4176" d="m29.123 12.609l-0.145 0.988 0.799-0.165 0.581-0.575-0.508-0.494c-0.171-0.455-0.368-0.88-0.582-1.317h-0.435v0.494l0.29 0.329v0.74"/></g></g><g id="g4178"><g id="g4182"><path id="path4184" d="m18.365 28.242l-0.582-1.152-1.09-0.247-0.582-1.562-1.453 0.164-1.236-0.904-1.309 1.151v0.182c-0.396-0.115-0.883-0.13-1.235-0.347l-0.291-0.822v-0.906l-0.8722 0.082c0.0728-0.576 0.145-1.151 0.2183-1.727h-0.5093l-0.5083 0.658-0.5093 0.246-0.7271-0.41-0.0728-0.905 0.1455-0.988 1.0908-0.822h0.8721l0.145-0.494 1.0903 0.246 0.8 0.988 0.145-1.646 1.382-1.152 0.508-1.234 1.018-0.411 0.581-0.822 1.309-0.248 0.654-0.987h-1.963l1.236-0.576h0.872l1.236-0.412 0.146-0.492-0.437-0.412-0.509-0.165 0.146-0.494-0.363-0.74-0.873 0.328 0.146-0.657-1.018-0.5765-0.799 1.3975 0.072 0.494-0.799 0.331-0.51 1.069-0.218-0.987-1.381-0.577-0.218-0.74 1.817-1.0701 0.8-0.7402 0.073-0.9048-0.436-0.2471-0.582-0.0825-0.363 0.9053s-0.608 0.1191-0.764 0.1577c-1.996 1.8397-6.0294 5.8097-6.9664 13.306 0.0371 0.174 0.6792 1.182 0.6792 1.182l1.5264 0.904 1.5264 0.412 0.6544 0.824 1.018 0.74 0.581-0.082 0.436 0.196v0.133l-0.581 1.563-0.437 0.658 0.146 0.33-0.363 1.233 1.308 2.386 1.308 1.153 0.582 0.822-0.073 1.728 0.437 0.987-0.437 1.892s-0.034-0.011 0.022 0.178c0.056 0.19 2.329 1.451 2.473 1.344 0.144-0.109 0.267-0.205 0.267-0.205l-0.145-0.41 0.581-0.577 0.219-0.576 0.945-0.33 0.727-1.81-0.218-0.493 0.508-0.74 1.09-0.248 0.582-1.316-0.145-1.645 0.872-1.234 0.145-1.235c-1.193-0.591-2.376-1.201-3.561-1.81"/></g></g><g id="g4186"><g id="g4190"><path id="path4192" d="m16.766 9.5649l0.726 0.4941h0.582v-0.5761l-0.726-0.3291-0.582 0.4111"/></g></g><g id="g4194"><g id="g4198"><path id="path4200" d="m14.876 8.9072l-0.364 0.9048h0.727l0.364-0.8228c0.314-0.2217 0.626-0.4448 0.945-0.6582l0.727 0.2471c0.484 0.3291 0.969 0.6582 1.454 0.9868l0.727-0.6577-0.8-0.3291-0.364-0.7407-1.381-0.1646-0.073-0.4116-0.654 0.165-0.29 0.5758-0.364-0.7407-0.145 0.3291 0.073 0.8228-0.582 0.494"/></g></g><g id="g4202"><g id="g4204" opacity=".75"/><g id="g4208"/></g><g id="g4212"><g id="g4214" opacity=".75"/><g id="g4218"/></g><g id="g4222"><g id="g4226"><path id="path4228" d="m17.492 6.8496l0.364-0.3286 0.727-0.1646c0.498-0.2422 0.998-0.4053 1.527-0.5762l-0.29-0.4937-0.939 0.1348-0.443 0.4419-0.731 0.106-0.65 0.3052-0.316 0.1528-0.193 0.2583 0.944 0.1641"/></g></g><g id="g4230"><g id="g4234"><path id="path4236" d="m18.728 14.666l0.437-0.658-0.655-0.493 0.218 1.151"/></g></g></g><g id="g3216" style="color:black" transform="matrix(.98237 0 0 .98237 -.080952 .030883)" fill="url(#radialGradient1558)"><g id="g3218" style="color:black"><g id="g3222" style="color:black" fill="url(#radialGradient1558)"><path id="path3224" style="color:black" d="m44.071 20.714v0l-0.545 0.618c-0.334-0.394-0.709-0.725-1.089-1.071l-0.836 0.123-0.764-0.863v1.068l0.654 0.495 0.436 0.494 0.582-0.658c0.146 0.274 0.291 0.548 0.436 0.823v0.822l-0.655 0.74-1.199 0.823-0.908 0.907-0.582-0.661 0.291-0.74-0.582-0.658-0.981-2.098-0.836-0.945-0.219 0.246 0.328 1.194 0.618 0.699c0.352 1.017 0.701 1.99 1.164 2.963 0.718 0 1.394-0.077 2.107-0.166v0.576l-0.872 2.139-0.8 0.904-0.654 1.401v2.303l0.219 0.906-0.364 0.41-0.8 0.494-0.836 0.699 0.691 0.782-0.945 0.824 0.182 0.533-1.418 1.606h-0.945l-0.8 0.494h-0.509v-0.659l-0.217-1.318c-0.281-0.826-0.574-1.647-0.872-2.467 0-0.605 0.036-1.205 0.072-1.81l0.364-0.823-0.509-0.988 0.037-1.357-0.692-0.782 0.346-1.13-0.563-0.639h-0.982l-0.327-0.37-0.981 0.618-0.4-0.454-0.909 0.782c-0.617-0.7-1.235-1.399-1.854-2.098l-0.726-1.729 0.654-0.986-0.363-0.411 0.799-1.894c0.656-0.816 1.341-1.599 2.035-2.385l1.236-0.329 1.381-0.165 0.945 0.248 1.345 1.356 0.473-0.534 0.653-0.082 1.236 0.411h0.946l0.654-0.576 0.291-0.411-0.655-0.412-1.091-0.082c-0.303-0.419-0.584-0.861-0.944-1.234l-0.364 0.164-0.145 1.07-0.655-0.74-0.144-0.824-0.727-0.574h-0.292l0.728 0.822-0.291 0.74-0.581 0.164 0.363-0.74-0.655-0.328-0.581-0.658-1.091 0.246-0.145 0.328-0.654 0.412-0.363 0.906-0.909 0.452-0.4-0.452h-0.436v-1.482l0.946-0.494h0.726l-0.146-0.575-0.58-0.576 0.98-0.206 0.545-0.617 0.436-0.741h0.801l-0.219-0.575 0.509-0.329v0.658l1.09 0.246 1.09-0.904 0.073-0.412 0.945-0.658c-0.342 0.043-0.684 0.074-1.018 0.165v-0.7414l0.363-0.8228h-0.363l-0.798 0.7402-0.219 0.412 0.219 0.576-0.365 0.987-0.581-0.329-0.508-0.576-0.8 0.576-0.291-1.316 1.381-0.9052v-0.4941l0.872-0.5757 1.381-0.3296 0.946 0.3296 1.744 0.3291-0.436 0.4932h-0.945l0.945 0.9877 0.727-0.8227 0.221-0.3618s2.787 2.4975 4.379 5.2305c1.593 2.733 2.341 5.955 2.341 6.609z" fill="url(#radialGradient1558)"/></g></g><g id="g3226" style="color:black"><g id="g3230" style="color:black" fill="url(#radialGradient1558)"><path id="path3232" style="color:black" d="m26.07 9.2363l-0.073 0.4932 0.51 0.3295 0.871-0.5761-0.436-0.4937-0.582 0.3296-0.29-0.0825" fill="url(#radialGradient1558)"/></g></g><g id="g3234" style="color:black"><g id="g3238" style="color:black" fill="url(#radialGradient1558)"><path id="path3240" style="color:black" d="m26.87 5.8633l-1.89-0.7407-2.18 0.2466-2.691 0.7402-0.508 0.4941 1.671 1.1514v0.6582l-0.654 0.6582 0.873 1.7287 0.58-0.33 0.729-1.1512c1.123-0.3472 2.13-0.7407 3.197-1.2344l0.873-2.2212" fill="url(#radialGradient1558)"/></g></g><g id="g3242" style="color:black"><g id="g3246" style="color:black" fill="url(#radialGradient1558)"><path id="path3248" style="color:black" d="m28.833 12.775l-0.291-0.741-0.51 0.165 0.147 0.904 0.654-0.328" fill="url(#radialGradient1558)"/></g></g><g id="g3250" style="color:black"><g id="g3254" style="color:black" fill="url(#radialGradient1558)"><path id="path3256" style="color:black" d="m29.123 12.609l-0.145 0.988 0.799-0.165 0.581-0.575-0.508-0.494c-0.171-0.455-0.368-0.88-0.582-1.317h-0.435v0.494l0.29 0.329v0.74" fill="url(#radialGradient1558)"/></g></g><g id="g3258" style="color:black"><g id="g3262" style="color:black" fill="url(#radialGradient1558)"><path id="path3264" style="color:black" d="m18.365 28.242l-0.582-1.152-1.09-0.247-0.582-1.562-1.453 0.164-1.236-0.904-1.309 1.151v0.182c-0.396-0.115-0.883-0.13-1.235-0.347l-0.291-0.822v-0.906l-0.8722 0.082c0.0728-0.576 0.145-1.151 0.2183-1.727h-0.5093l-0.5083 0.658-0.5093 0.246-0.7271-0.41-0.0728-0.905 0.1455-0.988 1.0908-0.822h0.8721l0.145-0.494 1.0903 0.246 0.8 0.988 0.145-1.646 1.382-1.152 0.508-1.234 1.018-0.411 0.581-0.822 1.309-0.248 0.654-0.987h-1.963l1.236-0.576h0.872l1.236-0.412 0.146-0.492-0.437-0.412-0.509-0.165 0.146-0.494-0.363-0.74-0.873 0.328 0.146-0.657-1.018-0.5765-0.799 1.3975 0.072 0.494-0.799 0.331-0.51 1.069-0.218-0.987-1.381-0.577-0.218-0.74 1.817-1.0701 0.8-0.7402 0.073-0.9048-0.436-0.2471-0.582-0.0825-0.363 0.9053s-0.608 0.1191-0.764 0.1577c-1.996 1.8397-6.0294 5.8097-6.9664 13.306 0.0371 0.174 0.6792 1.182 0.6792 1.182l1.5264 0.904 1.5264 0.412 0.6544 0.824 1.018 0.74 0.581-0.082 0.436 0.196v0.133l-0.581 1.563-0.437 0.658 0.146 0.33-0.363 1.233 1.308 2.386 1.308 1.153 0.582 0.822-0.073 1.728 0.437 0.987-0.437 1.892s-0.034-0.011 0.022 0.178c0.056 0.19 2.329 1.451 2.473 1.344 0.144-0.109 0.267-0.205 0.267-0.205l-0.145-0.41 0.581-0.577 0.219-0.576 0.945-0.33 0.727-1.81-0.218-0.493 0.508-0.74 1.09-0.248 0.582-1.316-0.145-1.645 0.872-1.234 0.145-1.235c-1.193-0.591-2.376-1.201-3.561-1.81" fill="url(#radialGradient1558)"/></g></g><g id="g3266" style="color:black"><g id="g3270" style="color:black" fill="url(#radialGradient1558)"><path id="path3272" style="color:black" d="m16.766 9.5649l0.726 0.4941h0.582v-0.5761l-0.726-0.3291-0.582 0.4111" fill="url(#radialGradient1558)"/></g></g><g id="g3274" style="color:black"><g id="g3278" style="color:black" fill="url(#radialGradient1558)"><path id="path3280" style="color:black" d="m14.876 8.9072l-0.364 0.9048h0.727l0.364-0.8228c0.314-0.2217 0.626-0.4448 0.945-0.6582l0.727 0.2471c0.484 0.3291 0.969 0.6582 1.454 0.9868l0.727-0.6577-0.8-0.3291-0.364-0.7407-1.381-0.1646-0.073-0.4116-0.654 0.165-0.29 0.5758-0.364-0.7407-0.145 0.3291 0.073 0.8228-0.582 0.494" fill="url(#radialGradient1558)"/></g></g><g id="g3282" style="color:black"><g id="g3284" opacity=".75" style="color:black"/><g id="g3288" style="color:black"/></g><g id="g3292" style="color:black"><g id="g3294" opacity=".75" style="color:black"/><g id="g3298" style="color:black"/></g><g id="g3302" style="color:black"><g id="g3306" style="color:black" fill="url(#radialGradient1558)"><path id="path3308" style="color:black" d="m17.492 6.8496l0.364-0.3286 0.727-0.1646c0.498-0.2422 0.998-0.4053 1.527-0.5762l-0.29-0.4937-0.939 0.1348-0.443 0.4419-0.731 0.106-0.65 0.3052-0.316 0.1528-0.193 0.2583 0.944 0.1641" fill="url(#radialGradient1558)"/></g></g><g id="g3310" style="color:black"><g id="g3314" style="color:black" fill="url(#radialGradient1558)"><path id="path3316" style="color:black" d="m18.728 14.666l0.437-0.658-0.655-0.493 0.218 1.151" fill="url(#radialGradient1558)"/></g></g></g><path id="path4122" d="m42.975 23.486c0 10.165-8.241 18.406-18.406 18.406s-18.406-8.241-18.406-18.406c0.0004-10.166 8.241-18.406 18.406-18.406 10.165-0.0001 18.406 8.24 18.406 18.406z" stroke="url(#radialGradient2787)" fill="none"/></g></g><g id="g49230" transform="matrix(.59856 0 0 .59856 80.009 -46.548)"><path id="path37678" d="m247.4 375.48l15.77 2.64c-2.02 5.79-5.23 10.19-9.6 13.21-4.38 3.02-9.85 4.54-16.42 4.54-10.4 0-18.1-3.4-23.09-10.2-3.95-5.44-5.92-12.32-5.92-20.61 0-9.92 2.59-17.68 7.78-23.3 5.18-5.61 11.73-8.42 19.65-8.42 8.9 0 15.92 2.94 21.07 8.82 5.14 5.88 7.6 14.88 7.38 27.01h-39.66c0.12 4.69 1.39 8.34 3.83 10.95 2.45 2.61 5.49 3.92 9.13 3.92 2.48 0 4.56-0.68 6.25-2.03s2.97-3.53 3.83-6.53zm0.9-16c-0.11-4.58-1.29-8.07-3.55-10.45-2.25-2.38-4.99-3.58-8.22-3.58-3.45 0-6.31 1.26-8.56 3.78-2.25 2.51-3.36 5.93-3.32 10.25h23.65zm-20.22-32.11l7.78-16.84h17.74l-15.49 16.84h-10.03z" stroke="#000064" stroke-width="10.024" fill="none"/><path id="path49111" fill-opacity=".29412" d="m236.03 308.41l-1.72 3.71-7.78 16.85-3.06 6.62c-2.91 1.64-5.67 3.57-8 6.1-6.46 6.99-9.47 16.59-9.47 27.62 0 9.31 2.28 17.68 7.12 24.38l0.04 0.03c6.25 8.5 16.45 12.81 28.25 12.81 7.55 0 14.45-1.78 20.06-5.65 5.56-3.85 9.61-9.57 12-16.38l2.53-7.16-1.38-0.25 0.07-3.53c0.24-13.05-2.36-23.79-8.97-31.34-4.14-4.73-9.57-7.82-15.66-9.5l12.5-13.6 9.88-10.71h-14.56-17.76-4.09zm-2.75 36.59c-2.2 1.01-4.2 2.42-5.81 4.22-3.48 3.88-5.02 9.15-4.97 14.59l0.03 3.22h-0.47l0.16 6.56c0.14 5.78 1.85 11.19 5.56 15.16 1.5 1.6 3.33 2.86 5.28 3.84-4.13-1.16-7.22-3.21-9.59-6.43-3.04-4.2-4.66-9.56-4.66-16.85 0-8.8 2.16-14.7 6.07-18.93 2.5-2.72 5.24-4.41 8.4-5.38zm15.94 0.59c0.6 0.25 1.1 0.64 1.66 0.94-0.53-0.36-1.1-0.63-1.66-0.94zm1.72 0.97c1.9 1.05 3.63 2.35 5.15 4.1 2.93 3.34 4.95 8.71 5.57 16.37h-2.6l-0.09-3.44c-0.14-5.6-1.66-10.85-5.28-14.68-0.83-0.88-1.77-1.66-2.75-2.35zm-10.13 9.56c1.43 0.01 2.18 0.34 3.13 1.22h-6.44c0.91-0.86 1.7-1.21 3.31-1.22zm-3.78 23.72h7.75c-0.38 0.77-0.75 1.3-0.94 1.44-0.49 0.4-0.93 0.63-2.25 0.63-2.11 0-3.11-0.43-4.47-1.88-0.04-0.04-0.05-0.14-0.09-0.19zm18.53 7.07l1.97 0.31c-1 1.18-2.09 2.26-3.34 3.12-1.14 0.79-2.44 1.38-3.85 1.91 0.51-0.31 1.04-0.6 1.5-0.97 1.54-1.23 2.75-2.72 3.72-4.37z"/><path id="text31964" fill="url(#linearGradient49419)" d="m247.4 375.48l15.77 2.64c-2.02 5.79-5.23 10.19-9.6 13.21-4.38 3.02-9.85 4.54-16.42 4.54-10.4 0-18.1-3.4-23.09-10.2-3.95-5.44-5.92-12.32-5.92-20.61 0-9.92 2.59-17.68 7.78-23.3 5.18-5.61 11.73-8.42 19.65-8.42 8.9 0 15.92 2.94 21.07 8.82 5.14 5.88 7.6 14.88 7.38 27.01h-39.66c0.12 4.69 1.39 8.34 3.83 10.95 2.45 2.61 5.49 3.92 9.13 3.92 2.48 0 4.56-0.68 6.25-2.03s2.97-3.53 3.83-6.53zm0.9-16c-0.11-4.58-1.29-8.07-3.55-10.45-2.25-2.38-4.99-3.58-8.22-3.58-3.45 0-6.31 1.26-8.56 3.78-2.25 2.51-3.36 5.93-3.32 10.25h23.65zm-20.22-32.11l7.78-16.84h17.74l-15.49 16.84h-10.03z"/></g><g id="g49240" transform="matrix(.59856 0 0 .59856 80.009 -46.548)"><path id="path49113" fill-opacity=".29412" d="m25.844 80.688c-3.427 0.201-6.099 1.831-7.969 3.968-0.97 1.099-1.8 2.437-2.344 4-2.276 0.558-4.235 1.611-5.656 3.032l-0.0312-0.032c-0.1083 0.101-0.2094 0.206-0.3126 0.313-0.0412 0.042-0.0845 0.081-0.125 0.125l-0.1562 0.156-0.125 0.156c-1.8144 2.203-3.1928 5.222-2.5625 9.034 0.4099 2.47 1.6306 4.23 2.9063 5.62-0.4704-0.02-0.9399-0.09-1.4063-0.09h-14.75c-0.0153-1.66-0.0326-3.43-0.0937-6.13v-2.871c0.0081-0.22 0.0081-0.218 0-0.438v-0.093-0.126c-0.2142-2.996-1.4385-6.385-4.5628-8.781-2.742-2.103-5.854-2.492-8.312-2.406v-0.063h-0.032-0.031-0.125-0.125c-2.23 0.081-5.351 0.632-8 2.782-3.122 2.534-4.187 5.874-4.187 9.125-0.004 0.146-0.004 0.135 0 0.281v0.094 0.094c0.148 2.732 0.27 5.532 0.344 8.342 0.001 0.07-0.002 0.12 0 0.19h-17.563c-2.952 0-6.189 0.93-8.719 3.78-2.285 2.57-2.885 5.66-2.968 7.91v0.03c-0.077 2.15 0.238 5.34 2.343 8.12 2.478 3.27 5.856 4.32 9 4.31h15.875c-1.561 6.33-4.261 11.82-8.281 16.69-3.494 4.25-8.049 8.02-13.844 11.28-2.61 1.47-5.285 3.91-6.437 7.66-0.904 2.94-0.651 5.87 0.594 8.59 0.075 0.17 0.135 0.34 0.218 0.5 0.133 0.32 0.25 0.63 0.25 0.63l0.063 0.09c0.007 0.01 0.024 0.02 0.031 0.03l0.031 0.07c-0.541-0.91-0.521-0.79 0.157 0.28l3.093 4.87 1.563-0.78c0.986 0.54 1.933 1.15 3.062 1.41 3.446 0.79 6.763 0.03 9.406-1.38l0.219-0.12 0.125-0.1 0.063-0.03c0.111-0.07 0.235-0.14 0.343-0.22v-0.03c10.4-6.22 18.697-14.33 24.75-24.03h0.376l1.812-3.34c3.595-6.66 6.063-14.07 7.6875-22.07h9.5625c-0.44239 5.74-0.89728 11.66-1.1562 14.1l-0.00005 0.09-0.03125 0.22c-0.5064 5.19-1.1158 9.15-1.5625 10.94-0.2162 0.78-0.4454 1.14-0.625 1.47h-6.4688c-2.9742 0-6.5122 0.82-9.3122 3.62-2.488 2.49-3.5 5.52-3.5 8.63-0.011 0.25-0.011 0.24 0 0.5v0.12 0.13c0.061 0.73 0.386 1.33 0.562 2l-1.344 1.34 4.532 4.53c1.718 1.72 1.831 1.74 0.187 0.16-0.202-0.2-0.188-0.18 0.063 0.06 2.71 2.56 6.053 3.5 9.156 3.5l7.2812 0.13h0.0313 0.0313 0.125c6.6615 0 12.942-2.73 17.25-7.57h0.719l1.812-3.15 0.031-0.03c2.821-4.91 4.094-11.02 5.313-19.07l0.156-0.31 0.125-1.06c0.479-4.07 0.943-9.08 1.406-15.09 0.467-5.21 0.696-8.98 0.781-11.72 0.104-1.87-0.192-3.7-0.687-5.5 2.84 0.2 5.131-0.73 7.031-2l0.032 0.06c0.073-0.04 0.146-0.06 0.218-0.1l0.688-0.37 0.625-0.53c1.368-1.22 2.599-2.87 3.343-4.94 1.367-0.35 2.474-0.98 3.532-1.69l0.031 0.07c0.073-0.04 0.146-0.06 0.219-0.1l0.687-0.37 0.625-0.53c2.042-1.82 3.909-4.57 4.032-8.32 0.116-3.585-1.544-6.502-3.188-8.34l-0.062-0.062-0.094-0.094c-0.072-0.075-0.144-0.147-0.219-0.219-1.61-1.691-2.862-2.91-4.094-4.063l-0.093-0.093-0.094-0.094c-1.897-1.724-3.728-3.203-5.625-4.469-1.827-1.279-4.511-2.402-7.625-2.218zm-17.75 37.752c0.1539 0.02 0.9063 0.12 0.9062 0.12-0.0002 0 0.3432 0.11 0.625 0.19-0.3653-0.07-1.4337-0.29-1.5312-0.31zm-4.2188 1.34h0.1875c-0.3096 0.23-0.3931 0.27-0.625 0.44 0.0494-0.07 0.25-0.35 0.25-0.34 0 0 0.1622-0.09 0.1875-0.1zm8.063 0.78c0.02 0.01 0.042 0.02 0.062 0.03l-0.625 0.53 0.563-0.56zm0.843 0.53c0.027 0.03 0.037 0.07 0.063 0.1l-0.938 0.65 0.875-0.75zm0.5 0.69c0.093 0.16 0.184 0.31 0.25 0.5-0.048-0.08-0.113-0.26-0.25-0.5zm-11.594 1.03c-0.0233 0.11-0.0516 0.24-0.0937 0.44 0.0065-0.07 0.0312-0.34 0.0312-0.34s0.0587-0.09 0.0625-0.1zm11.906 4.28c-0.003 0.06-0.028 0.16-0.032 0.22-0.137 0.23-1 1.72-1 1.72 0.001 0-0.369 0.28-0.593 0.44 0.331-0.49 1.323-1.94 1.625-2.38zm-10.938 1.6c0.1258 0.16 0.316 0.33 0.4688 0.5l-0.0625 0.06c-0.0913-0.1-0.2038-0.23-0.25-0.28-0.1353-0.16-0.1402-0.2-0.1563-0.22-0.004 0-0.0291-0.03-0.0312-0.03l0.0312-0.03zm0.6876 0.75c0.1283 0.12 0.1857 0.25 0.3437 0.37-0.1548-0.12-0.3158-0.25-0.4063-0.34l0.0626-0.03zm0.5312 0.53c0.2412 0.19 0.5718 0.42 1.25 0.72-0.1829-0.08-0.3407-0.14-0.5938-0.28-0.0098-0.01-0.0212-0.03-0.0312-0.03 0.0002 0-0.4694-0.29-0.625-0.41zm7.031 0.25c-0.319 0.23-0.75 0.53-0.75 0.53s-0.3648 0.06-0.531 0.09c0.399-0.19 0.73-0.35 1.281-0.62z"/><path id="path37680" d="m21.968 82.795c-1.392 0.082-2.666 0.824-3.531 1.812-0.889 1.008-1.555 2.502-1.312 4 0.242 1.499 1.174 2.603 2.218 3.438 1.879 1.503 3.31 2.692 4.219 3.531 1.214 1.143 2.159 2.174 2.906 3.125 0.021 0.032 0.041 0.063 0.063 0.094 0.933 1.088 2.154 1.985 3.687 2.185 1.534 0.21 3.014-0.43 4.094-1.341 0.021-0.01 0.042-0.021 0.063-0.032 1.018-0.905 1.857-2.235 1.906-3.75 0.049-1.514-0.646-2.818-1.563-3.843-0.02-0.021-0.041-0.042-0.062-0.063-1.559-1.636-2.918-2.965-4.094-4.062-0.01-0.011-0.021-0.021-0.031-0.032-1.741-1.582-3.356-2.893-4.875-3.906-1.063-0.744-2.266-1.24-3.688-1.156zm-45.968 5.406c-1.526 0.055-2.976 0.36-4.188 1.344-1.228 0.997-1.844 2.662-1.844 4.156-0.001 0.042-0.001 0.084 0 0.125 0.151 2.794 0.269 5.661 0.344 8.534 0.055 2.48 0.026 4.61 0 6.75h-23.969c-1.377 0-2.914 0.51-3.906 1.62-0.992 1.12-1.323 2.52-1.375 3.91-0.05 1.4 0.145 2.82 1.063 4.03 0.917 1.21 2.503 1.78 3.875 1.78h23.5c-1.118 10.52-4.697 19.55-10.969 27.16-4.045 4.91-9.235 9.18-15.625 12.78-1.585 0.89-2.932 2.22-3.469 3.97-0.472 1.53-0.261 3.32 0.563 4.72 0.003 0-0.004 0.02 0 0.03 0.023 0.04 0.037 0.08 0.062 0.12l0.063-0.03c0.814 1.38 2.219 2.37 3.718 2.72 1.664 0.38 3.407 0.04 4.938-0.78 0.032-0.02 0.063-0.04 0.094-0.06 10.928-6.45 19.303-14.87 24.937-25.19h0.031c3.976-7.36 6.576-15.91 8-25.44h20.688c0.9845 0 0.9519 0.2 0.8749 0.09 0.0205 0.03 0.0413 0.05 0.0625 0.07-0.1075-0.15 0.1515 0.24 0.0937 1.28-0.6844 9.66-1.2515 16.24-1.625 19.75v0.03c-0.5275 5.5-1.1278 9.6-1.75 12.09-0.75925 2.76-1.7441 4.35-2.5937 5.07-0.021 0.01-0.0418 0.02-0.0625 0.03-0.8088 0.72-2.0336 1.22-4.125 1.22h-6.5309c-1.748 0-3.534 0.5-4.782 1.75-1.062 1.06-1.625 2.63-1.625 4.09-0.003 0.07-0.003 0.15 0 0.22 0.123 1.47 0.862 2.86 1.907 3.84l-0.032 0.03c0.027 0.03 0.067 0.04 0.094 0.07 0.011 0.01 0.021 0.02 0.031 0.03 1.262 1.19 3.032 1.75 4.75 1.75l7.4066 0.12h0.0313c6.2648 0 11.418-2.61 14.281-7.53h0.0315c2.1206-3.69 3.5126-9.5 4.7496-17.94 0.011-0.02 0.022-0.04 0.032-0.06 0.462-3.93 0.916-8.88 1.375-14.84 0.459-5.13 0.702-8.88 0.781-11.41 0.184-3.32-0.967-6.4-3.406-8.44v-0.03c-2.262-1.85-5.2882-2.62-8.7191-2.62h-21.188c0.036-1.59 0.094-3.12 0.094-4.88 0-1.65-0.049-4.14-0.125-7.498v-3.031c0.002-0.062 0.002-0.125 0-0.187-0.11-1.546-0.755-3.154-2.062-4.157-1.29-0.989-2.871-1.245-4.438-1.156h-0.031-0.031zm37.406 2.094c-1.368 0.121-2.581 0.835-3.4689 1.781-0.0431 0.04-0.0848 0.082-0.125 0.125-0.8348 1.014-1.4285 2.481-1.1875 3.938 0.2411 1.457 1.1663 2.537 2.1874 3.343 1.792 1.498 3.121 2.698 4.156 3.658 0.011 0.01 0.021 0.02 0.032 0.03 1.298 1.15 2.297 2.17 3 3.06 0.02 0.03 0.041 0.07 0.062 0.1 0.934 1.09 2.159 2 3.688 2.21 1.529 0.22 3.029-0.42 4.125-1.34 0.021-0.01 0.041-0.02 0.062-0.03 1.026-0.91 1.875-2.27 1.906-3.78 0.032-1.52-0.683-2.8-1.593-3.814-0.021-0.021-0.042-0.042-0.063-0.062-1.547-1.625-2.9-2.98-4.094-4.094-0.01-0.011-0.02-0.021-0.031-0.031-1.727-1.57-3.347-2.912-4.937-4-1.059-0.725-2.349-1.215-3.719-1.094z" stroke="#3c3c00" stroke-width="10.024" fill="none"/><path id="path33104" fill="url(#linearGradient49421)" d="m21.968 82.795c-1.392 0.082-2.666 0.824-3.531 1.812-0.889 1.008-1.555 2.502-1.312 4 0.242 1.499 1.174 2.603 2.218 3.438 1.879 1.503 3.31 2.692 4.219 3.531 1.214 1.143 2.159 2.174 2.906 3.125 0.021 0.032 0.041 0.063 0.063 0.094 0.933 1.088 2.154 1.985 3.687 2.185 1.534 0.21 3.014-0.43 4.094-1.341 0.021-0.01 0.042-0.021 0.063-0.032 1.018-0.905 1.857-2.235 1.906-3.75 0.049-1.514-0.646-2.818-1.563-3.843-0.02-0.021-0.041-0.042-0.062-0.063-1.559-1.636-2.918-2.965-4.094-4.062-0.01-0.011-0.021-0.021-0.031-0.032-1.741-1.582-3.356-2.893-4.875-3.906-1.063-0.744-2.266-1.24-3.688-1.156zm-45.968 5.406c-1.526 0.055-2.976 0.36-4.188 1.344-1.228 0.997-1.844 2.662-1.844 4.156-0.001 0.042-0.001 0.084 0 0.125 0.151 2.794 0.269 5.661 0.344 8.534 0.055 2.48 0.026 4.61 0 6.75h-23.969c-1.377 0-2.914 0.51-3.906 1.62-0.992 1.12-1.323 2.52-1.375 3.91-0.05 1.4 0.145 2.82 1.063 4.03 0.917 1.21 2.503 1.78 3.875 1.78h23.5c-1.118 10.52-4.697 19.55-10.969 27.16-4.045 4.91-9.235 9.18-15.625 12.78-1.585 0.89-2.932 2.22-3.469 3.97-0.472 1.53-0.261 3.32 0.563 4.72 0.003 0-0.004 0.02 0 0.03 0.023 0.04 0.037 0.08 0.062 0.12l0.063-0.03c0.814 1.38 2.219 2.37 3.718 2.72 1.664 0.38 3.407 0.04 4.938-0.78 0.032-0.02 0.063-0.04 0.094-0.06 10.928-6.45 19.303-14.87 24.937-25.19h0.031c3.976-7.36 6.576-15.91 8-25.44h20.688c0.9845 0 0.9519 0.2 0.8749 0.09 0.0205 0.03 0.0413 0.05 0.0625 0.07-0.1075-0.15 0.1515 0.24 0.0937 1.28-0.6844 9.66-1.2515 16.24-1.625 19.75v0.03c-0.5275 5.5-1.1278 9.6-1.75 12.09-0.75925 2.76-1.7441 4.35-2.5937 5.07-0.021 0.01-0.0418 0.02-0.0625 0.03-0.8088 0.72-2.0336 1.22-4.125 1.22h-6.5309c-1.748 0-3.534 0.5-4.782 1.75-1.062 1.06-1.625 2.63-1.625 4.09-0.003 0.07-0.003 0.15 0 0.22 0.123 1.47 0.862 2.86 1.907 3.84l-0.032 0.03c0.027 0.03 0.067 0.04 0.094 0.07 0.011 0.01 0.021 0.02 0.031 0.03 1.262 1.19 3.032 1.75 4.75 1.75l7.4066 0.12h0.0313c6.2648 0 11.418-2.61 14.281-7.53h0.0315c2.1206-3.69 3.5126-9.5 4.7496-17.94 0.011-0.02 0.022-0.04 0.032-0.06 0.462-3.93 0.916-8.88 1.375-14.84 0.459-5.13 0.702-8.88 0.781-11.41 0.184-3.32-0.967-6.4-3.406-8.44v-0.03c-2.262-1.85-5.2882-2.62-8.7191-2.62h-21.188c0.036-1.59 0.094-3.12 0.094-4.88 0-1.65-0.049-4.14-0.125-7.498v-3.031c0.002-0.062 0.002-0.125 0-0.187-0.11-1.546-0.755-3.154-2.062-4.157-1.29-0.989-2.871-1.245-4.438-1.156h-0.031-0.031zm37.406 2.094c-1.368 0.121-2.581 0.835-3.4689 1.781-0.0431 0.04-0.0848 0.082-0.125 0.125-0.8348 1.014-1.4285 2.481-1.1875 3.938 0.2411 1.457 1.1663 2.537 2.1874 3.343 1.792 1.498 3.121 2.698 4.156 3.658 0.011 0.01 0.021 0.02 0.032 0.03 1.298 1.15 2.297 2.17 3 3.06 0.02 0.03 0.041 0.07 0.062 0.1 0.934 1.09 2.159 2 3.688 2.21 1.529 0.22 3.029-0.42 4.125-1.34 0.021-0.01 0.041-0.02 0.062-0.03 1.026-0.91 1.875-2.27 1.906-3.78 0.032-1.52-0.683-2.8-1.593-3.814-0.021-0.021-0.042-0.042-0.063-0.062-1.547-1.625-2.9-2.98-4.094-4.094-0.01-0.011-0.02-0.021-0.031-0.031-1.727-1.57-3.347-2.912-4.937-4-1.059-0.725-2.349-1.215-3.719-1.094z"/></g><g id="g49220" transform="matrix(.59856 0 0 .59856 80.009 -46.548)"><path id="path49115" fill-opacity=".29412" d="m-61.025 286.89c-3.782 0-7.29 2.17-8.968 5.56-2.725 5.45-4 11.45-4 17.66 0.002 2.9 1.311 5.59 3.437 7.47l1 6.03c1.254 7.88 2.268 14.86 3.125 21.22 0.957 7.16 1.294 11.61 1.406 14.46-0.503 0.33-0.753 0.54-2.125 1.1-3.979 1.6-8.262 2.44-13.218 2.44-4.428 0-6.878-0.95-7.75-1.57-1.089-0.76-0.594 0.48-0.594-1.93 0-1.31 0.182-2.78 0.656-4.47 0.403-1.41 1.087-3.24 2.094-5.41 0.778-1.65 1.762-3.55 3.031-5.84 2.602-4.68 0.949-10.72-3.656-13.44l-1.688-1.03c-2.324-1.4-5.099-1.77-7.718-1.06-2.619 0.7-4.847 2.43-6.157 4.81-1.99 3.6-3.62 6.73-4.91 9.56-1.75 3.83-3.1 7.47-4.03 10.97-1.11 4.12-1.68 8.22-1.68 12.28 0 7.05 2.85 13.72 7.9 18.47v0.62l2.81 1.88c6.143 4.11 13.616 5.53 21.785 5.53 6.2 0 11.614-0.55 16.532-1.75h0.437l0.656-0.19 0.125-0.03 0.063-0.03c6.188-1.71 11.792-4.84 15.781-9.78l0.031-0.03c4.435-5.56 6.282-12.64 6.282-20.03 0-4.72-0.518-10.68-1.407-18.38-0.561-4.86-1.368-11.12-2.5-18.75v-0.03c-0.239-1.59-0.264-1.84-0.375-2.59 0.733-1.01 1.337-2.11 1.657-3.35 0.59-2.28 1.016-4.12 1.281-5.81 0.335-2.15 0.406-4.35 0.406-7.09-0.003-3.79-2.172-7.29-5.562-8.97-0.744-0.37-1.617-0.81-2.657-1.31-0.48-0.24-0.886-0.39-1.343-0.6-1.431-3.8-4.989-6.58-9.188-6.59h-0.031-0.938zm2.5 11.25h0.032c-0.007 0.01-0.025 0.02-0.032 0.03v-0.03zm1 6.37c0.79 0.35 1.549 0.68 2.407 1.1h0.031v0.03c0.334 0.16 0.597 0.28 0.906 0.44-0.038 1.29-0.061 2.76-0.156 3.37-0.103 0.66-0.436 1.97-0.719 3.16l-3.187 1.09-0.157-0.97-0.531-3.09-2.094-1.13c0.071-1.36 0.191-2.7 0.438-3.97l3.062-0.03zm4.938 2.35h0.031v0.03c-0.013-0.01-0.018-0.03-0.031-0.03zm-47.344 59.28c1.065 2.28 2.593 4.26 4.438 5.56 3.942 2.78 8.992 3.94 15.125 3.94 6.437 0 12.488-1.14 18.031-3.38 3.08-1.24 5.327-2.45 7.312-4.37 0.407-0.4 0.767-1.03 1.157-1.53-0.585 2.41-1.505 4.43-2.782 6.03-1.939 2.4-4.919 4.22-9.062 5.4l-0.188 0.07c-3.645 0.99-8.417 1.53-14.375 1.53-6.53 0-11.23-1.15-14.437-3.22l-0.219-0.16c-3.183-2.14-4.887-5.42-5-9.87z"/><path id="path37682" d="m-63.656 295.12c-1.366 0.01-2.613 0.78-3.219 2-2.252 4.51-3.344 9.49-3.344 14.82 0.001 1.34 0.748 2.57 1.938 3.18l0.937 0.5 1.469 8.76c1.262 7.93 2.292 15.03 3.156 21.43 1.113 8.33 1.656 14.29 1.657 17.41-0.001 0.55-0.107 1.01-1.032 1.9-0.924 0.9-2.69 1.99-5.281 3.04-4.761 1.91-9.928 2.9-15.625 2.9-5.28 0-9.03-1.05-11.438-2.75-2.331-1.64-3.312-3.57-3.312-7.15 0-1.96 0.297-4.01 0.906-6.19 0.512-1.79 1.306-3.94 2.438-6.38 0.868-1.84 1.945-3.88 3.25-6.25 0.948-1.7 0.365-3.85-1.313-4.84l-1.719-1.03c-0.836-0.5-1.842-0.65-2.785-0.39-0.943 0.25-1.743 0.88-2.215 1.73-1.942 3.52-3.502 6.53-4.692 9.13-1.62 3.55-2.83 6.87-3.65 9.97-0.98 3.63-1.47 7.17-1.47 10.62 0 6.5 2.76 12.18 7.88 15.63-0.01 0.01-0.01 0.02 0 0.03 4.669 3.13 10.796 4.44 18.214 4.43 6.324 0 11.633-0.54 16.062-1.74h0.032c5.224-1.45 9.549-3.97 12.531-7.66 3.326-4.17 4.875-9.67 4.875-16.03 0-4.25-0.468-10.07-1.344-17.66-0.55-4.76-1.375-10.95-2.5-18.53-0.547-3.63-0.617-4.16-0.875-6 1.142-0.39 2.01-1.33 2.313-2.5 0.563-2.18 0.948-3.89 1.156-5.22 0.239-1.53 0.312-3.47 0.312-6.09-0.001-1.37-0.776-2.62-2-3.22-0.754-0.38-1.612-0.81-2.594-1.28-1.378-0.67-2.668-1.25-3.874-1.75h-0.032c0.001-0.03-0.201-0.54-0.312-1.6-0.193-1.82-1.728-3.21-3.563-3.22h-0.937z" transform="translate(-1.6349 -6.0975)" stroke="#510000" stroke-width="10.024" fill="none"/><path id="path35716" d="m-63.656 295.12c-1.366 0.01-2.613 0.78-3.219 2-2.252 4.51-3.344 9.49-3.344 14.82 0.001 1.34 0.748 2.57 1.938 3.18l0.937 0.5 1.469 8.76c1.262 7.93 2.292 15.03 3.156 21.43 1.113 8.33 1.656 14.29 1.657 17.41-0.001 0.55-0.107 1.01-1.032 1.9-0.924 0.9-2.69 1.99-5.281 3.04-4.761 1.91-9.928 2.9-15.625 2.9-5.28 0-9.03-1.05-11.438-2.75-2.331-1.64-3.312-3.57-3.312-7.15 0-1.96 0.297-4.01 0.906-6.19 0.512-1.79 1.306-3.94 2.438-6.38 0.868-1.84 1.945-3.88 3.25-6.25 0.948-1.7 0.365-3.85-1.313-4.84l-1.719-1.03c-0.836-0.5-1.842-0.65-2.785-0.39-0.943 0.25-1.743 0.88-2.215 1.73-1.942 3.52-3.502 6.53-4.692 9.13-1.62 3.55-2.83 6.87-3.65 9.97-0.98 3.63-1.47 7.17-1.47 10.62 0 6.5 2.76 12.18 7.88 15.63-0.01 0.01-0.01 0.02 0 0.03 4.669 3.13 10.796 4.44 18.214 4.43 6.324 0 11.633-0.54 16.062-1.74h0.032c5.224-1.45 9.549-3.97 12.531-7.66 3.326-4.17 4.875-9.67 4.875-16.03 0-4.25-0.468-10.07-1.344-17.66-0.55-4.76-1.375-10.95-2.5-18.53-0.547-3.63-0.617-4.16-0.875-6 1.142-0.39 2.01-1.33 2.313-2.5 0.563-2.18 0.948-3.89 1.156-5.22 0.239-1.53 0.312-3.47 0.312-6.09-0.001-1.37-0.776-2.62-2-3.22-0.754-0.38-1.612-0.81-2.594-1.28-1.378-0.67-2.668-1.25-3.874-1.75h-0.032c0.001-0.03-0.201-0.54-0.312-1.6-0.193-1.82-1.728-3.21-3.563-3.22h-0.937z" transform="translate(-1.6349 -6.0975)" fill="url(#linearGradient49423)"/></g><g id="g49225" transform="matrix(.59856 0 0 .59856 80.009 -46.548)"><path id="path49117" fill-opacity=".29412" d="m84.844 406.06c-1.134 0.12-2.236 0.56-3.25 1.25-2.029 1.38-3.196 3.74-3.063 6.19 0.174 5.03 0.324 11.84 0.5 18.62h-3.937l-1.406-1.24c0.945-0.89 1.658-2.03 2-3.32 0.671-2.53-0.141-5.28-2.094-7.03l-0.094-0.09-0.125-0.1-6.156-5.06c-1.462-1.3-3.212-1.76-5.157-1.56-0.608-0.95-1.353-1.81-2.374-2.38l-7.032-4.25c-1.169-0.73-2.433-1.03-3.812-1h-0.032c-3.379 0.1-6.28 2.69-6.75 6.03 0.078-0.54-0.176 0.75-0.812 2.35-0.636 1.59-1.628 3.76-2.906 6.44-2.398 5.01-6.437 11.81-12.094 20.06-1.892 2.72-1.551 6.46 0.75 8.84l0.031 0.03 0.031 0.04 1.094 1.09c1.083 1.09 2.488 1.66 3.938 1.87-0.042 8.6-0.07 18.19-0.219 22.94v0.03c-0.029 1.03 0.291 1.99 0.687 2.91-0.999 3.22-2.13 5.28-2.093 5.25-1.466 1.29-3.047 2.89-3.907 5.47-1.038 3.11-0.225 6.71 2.126 9.06 2.968 2.97 8.227 3.76 11.937 1.91 1.539-0.77 2.807-1.85 3.875-3.07 2.082 1.47 4.625 1.82 6.625 1.54 1.928-0.28 3.638-1.36 5.094-2.69 0.346 0.2 0.676 0.45 1.031 0.59-0.108 1.44 0.166 2.93 0.969 4.25l0.062 0.09 0.063 0.1 0.718 1.09c2.045 3.15 6.379 4.08 9.563 2.1 7.964-4.74 14.225-11.13 18.937-18.88v2.44c0 3.22 0.735 6.66 3.094 9.47 2.405 2.86 5.991 4.2 9.282 4.4h0.122 0.13c0.12 0.01 0.23 0.01 0.34 0h11.06c5.8 0 11.08-4.17 13.29-9.31 0.95-2.06 0.78-4.28-0.35-6.25-0.64-1.12-1.61-1.95-2.72-2.56-0.19-2.55-0.31-5.72-0.31-9.84 0.02-1.89-0.73-3.64-2.06-4.97-1.34-1.34-3.18-2.09-5.06-2.07h-1.72c-2.79-0.03-5.22 1.65-6.35 4.07v-22.94h12.13c2.86 0.05 5.41-1.69 6.5-4.35 1.09-2.65 0.44-5.73-1.63-7.71l-6.03-6.07c-0.43-0.43-0.98-0.69-1.5-1-0.14-2.99-1.36-5.84-3.06-7.96-3-3.75-7.01-5.8-12.69-8.38-0.143-0.07-0.294-0.04-0.436-0.09-0.658-0.82-1.432-1.58-2.406-2.03l-0.126-0.07-0.124-0.03-8.688-3.62c-1.113-0.52-2.272-0.72-3.406-0.6zm-5.813 42.6c-0.196 5.17-0.706 10.05-1.75 14.46-0.072-4-0.164-8.36-0.187-14.12 0.509-0.04 0.999-0.09 1.5-0.25l0.062-0.03h0.063c0.085-0.03 0.225-0.04 0.312-0.06z"/><path id="path37684" d="m44.734 408.22c-0.301 0.01-0.552 0.23-0.593 0.53-0.21 1.47-1.637 5.13-4.282 10.66-2.628 5.5-6.819 12.48-12.593 20.91-0.169 0.24-0.143 0.56 0.062 0.78l1.094 1.09c0.229 0.23 0.598 0.25 0.844 0.03 1.939-1.74 3.586-3.5 5.062-5.25-0.009 15.45-0.083 27.42-0.312 34.75-0.007 0.22 0.104 0.43 0.291 0.54 0.187 0.12 0.421 0.13 0.615 0.02l4.687-2.53c0.204-0.1 0.336-0.3 0.344-0.53v-2.62h20.438v3.97c-0.06-0.03-0.097-0.07-0.157-0.1-0.286-0.15-0.641-0.05-0.812 0.22l-0.719 1.09c-0.152 0.24-0.126 0.55 0.063 0.75 1.673 1.92 2.84 3.45 3.531 4.6 0.687 1.14 1.345 2.7 1.937 4.59 0.325 1.04 0.759 1.82 1.469 2.22s1.604 0.24 2.375-0.25c0.324-0.21 0.57-0.47 0.813-0.75-2.695 3.53-5.749 6.78-9.313 9.69-0.253 0.19-0.32 0.54-0.156 0.81l0.719 1.09c0.183 0.29 0.558 0.37 0.843 0.19 17.903-10.64 26.682-29.9 26.344-57.4h2.375v46.37c0 2.26 0.507 4.08 1.594 5.38 1.086 1.29 2.737 1.99 4.781 2.12h0.031 11.221c3.35 0 5.9-1.92 7.4-5.44 0.09-0.18 0.08-0.39-0.02-0.56-0.1-0.18-0.28-0.29-0.48-0.31-0.95-0.11-1.59-0.47-2.09-1.13s-0.82-1.66-0.94-3.03c-0.24-2.87-0.37-6.56-0.37-11.12 0-0.17-0.07-0.33-0.18-0.45-0.12-0.12-0.28-0.18-0.45-0.18h-1.81c-0.33 0-0.61 0.26-0.62 0.6-0.25 5.29-0.55 9.38-0.91 12.25-0.17 1.37-0.53 2.34-1 2.93s-1 0.85-1.81 0.85h-3.97-0.06c-1.827 0.22-2.995-0.07-3.661-0.78-0.666-0.72-0.949-2.02-0.718-3.97 0.001-0.02 0.001-0.05 0-0.07v-43.46h18.529c0.26 0 0.49-0.15 0.58-0.39 0.1-0.23 0.04-0.5-0.14-0.68l-6.13-6.15c-0.11-0.12-0.27-0.19-0.43-0.19-0.17 0-0.32 0.07-0.44 0.19l-4.16 4.15h-16.122v-19.31l2.969-1.97c0.179-0.13 0.278-0.34 0.258-0.56-0.019-0.22-0.153-0.41-0.352-0.5l-8.687-3.63c-0.197-0.09-0.427-0.07-0.606 0.05s-0.281 0.33-0.269 0.55c0.235 6.82 0.482 15.34 0.718 25.37h-12c-0.238 0-0.457 0.13-0.562 0.35l-5.188-4.53c-0.128-0.11-0.292-0.16-0.457-0.14-0.164 0.02-0.315 0.1-0.418 0.23l-2.718 3.37h-7.094c2.095-2.77 3.962-5.22 5.312-6.84 1.548-1.86 2.694-2.98 3.094-3.22 1.15-0.69 2.306-1.15 3.438-1.37 0.226-0.05 0.406-0.22 0.465-0.45 0.06-0.22-0.012-0.46-0.184-0.62l-6.156-5.06c-0.13-0.11-0.302-0.17-0.474-0.15-0.173 0.02-0.33 0.11-0.433 0.25l-2.343 3h-8.688c0.965-1.64 1.886-3 2.688-3.85 0.961-1.02 1.763-1.4 2.343-1.4 0.284 0 0.534-0.19 0.608-0.46s-0.048-0.56-0.295-0.7l-7.219-4.34c-0.103-0.07-0.222-0.1-0.344-0.1zm48.094 5.78c-0.154 0.01-0.299 0.08-0.406 0.19l-1.094 1.09c-0.119 0.13-0.179 0.3-0.168 0.47 0.012 0.17 0.096 0.33 0.231 0.44 3.795 3.08 6.048 6.14 6.843 9.09 0.432 1.61 0.907 2.79 1.5 3.6 0.296 0.4 0.626 0.72 1.036 0.9 0.4 0.19 0.88 0.23 1.31 0.1 1.44-0.44 2.42-1.73 2.94-3.53 0.54-1.9-0.04-3.85-1.57-5.75-1.59-1.99-5.003-4.11-10.341-6.53-0.087-0.05-0.184-0.07-0.281-0.07zm-47.75 8.13h9.531l-5.562 11.4h-8.094l-2.562-1.71c2.227-2.93 4.462-6.15 6.687-9.69zm24.438 13.81l2.281 2.28c0.162 0.17 0.404 0.23 0.625 0.16 2.098-0.7 4.468-1.06 7.062-1.06h1.907c0.622 18.59-3.482 33.69-12.282 45.37 0.239-0.33 0.435-0.72 0.563-1.12 0.278-0.89 0.285-1.89 0.094-3.04-0.221-1.32-1.188-2.59-2.782-3.9-1.344-1.11-3.247-2.29-5.531-3.5l4.875-2.06c0.236-0.11 0.386-0.34 0.375-0.6-0.238-6.18-0.342-16.38-0.344-30.37l2.969-2c0.072-0.04 0.136-0.1 0.188-0.16zm-29.563 0.66h7.438v11.75h-7.438v-11.75zm13.031 0h7.407v11.75h-7.407v-11.75zm-13.031 14.81h7.438v12.12h-7.438v-12.12zm13.031 0h7.407v12.12h-7.407v-12.12zm-1.812 20.09c-0.089 0.02-0.175 0.05-0.25 0.1l-1.094 0.72c-0.282 0.18-0.365 0.55-0.187 0.84 0.953 1.67 1.786 3.33 2.5 5 0.7 1.63 1.238 3.49 1.593 5.62 0.193 1.16 0.497 2.05 1.157 2.57 0.659 0.52 1.595 0.48 2.437 0.06 1.68-0.84 2.471-2.67 2.344-5.09-0.072-1.37-0.845-2.79-2.188-4.38s-3.29-3.37-5.843-5.31c-0.133-0.11-0.302-0.15-0.469-0.13zm-8.656 1.44c-0.144 0.02-0.276 0.08-0.375 0.19l-0.719 0.72c-0.167 0.17-0.216 0.43-0.125 0.65 0.466 1.17 0.894 2.59 1.25 4.25 0.345 1.62 0.431 3.56 0.312 5.82-0.064 1.22 0.113 2.2 0.657 2.9 0.543 0.7 1.46 0.95 2.437 0.81 0.993-0.14 1.811-0.67 2.344-1.5 0.532-0.82 0.811-1.91 0.875-3.25 0.137-2.88-2.012-6.26-6.156-10.4-0.13-0.14-0.314-0.21-0.5-0.19zm-6.875 0.72c-0.256 0.04-0.455 0.24-0.5 0.5-1.192 5.24-2.85 8.69-4.719 10.34-1.067 0.94-1.765 1.8-2.063 2.69s-0.075 1.86 0.594 2.53c1.23 1.23 2.914 1.5 4.531 0.69 1.597-0.8 2.767-2.25 3.532-4.16 0.816-2.04 1.023-5.81 0.781-11.62-0.016-0.27-0.206-0.5-0.469-0.56l-1.437-0.38c-0.081-0.03-0.166-0.04-0.25-0.03z" stroke="#003c00" stroke-width="10.024" fill="none"/><path id="path35709" fill="url(#linearGradient49425)" d="m44.734 408.22c-0.301 0.01-0.552 0.23-0.593 0.53-0.21 1.47-1.637 5.13-4.282 10.66-2.628 5.5-6.819 12.48-12.593 20.91-0.169 0.24-0.143 0.56 0.062 0.78l1.094 1.09c0.229 0.23 0.598 0.25 0.844 0.03 1.939-1.74 3.586-3.5 5.062-5.25-0.009 15.45-0.083 27.42-0.312 34.75-0.007 0.22 0.104 0.43 0.291 0.54 0.187 0.12 0.421 0.13 0.615 0.02l4.687-2.53c0.204-0.1 0.336-0.3 0.344-0.53v-2.62h20.438v3.97c-0.06-0.03-0.097-0.07-0.157-0.1-0.286-0.15-0.641-0.05-0.812 0.22l-0.719 1.09c-0.152 0.24-0.126 0.55 0.063 0.75 1.673 1.92 2.84 3.45 3.531 4.6 0.687 1.14 1.345 2.7 1.937 4.59 0.325 1.04 0.759 1.82 1.469 2.22s1.604 0.24 2.375-0.25c0.324-0.21 0.57-0.47 0.813-0.75-2.695 3.53-5.749 6.78-9.313 9.69-0.253 0.19-0.32 0.54-0.156 0.81l0.719 1.09c0.183 0.29 0.558 0.37 0.843 0.19 17.903-10.64 26.682-29.9 26.344-57.4h2.375v46.37c0 2.26 0.507 4.08 1.594 5.38 1.086 1.29 2.737 1.99 4.781 2.12h0.031 11.221c3.35 0 5.9-1.92 7.4-5.44 0.09-0.18 0.08-0.39-0.02-0.56-0.1-0.18-0.28-0.29-0.48-0.31-0.95-0.11-1.59-0.47-2.09-1.13s-0.82-1.66-0.94-3.03c-0.24-2.87-0.37-6.56-0.37-11.12 0-0.17-0.07-0.33-0.18-0.45-0.12-0.12-0.28-0.18-0.45-0.18h-1.81c-0.33 0-0.61 0.26-0.62 0.6-0.25 5.29-0.55 9.38-0.91 12.25-0.17 1.37-0.53 2.34-1 2.93s-1 0.85-1.81 0.85h-3.97-0.06c-1.827 0.22-2.995-0.07-3.661-0.78-0.666-0.72-0.949-2.02-0.718-3.97 0.001-0.02 0.001-0.05 0-0.07v-43.46h18.529c0.26 0 0.49-0.15 0.58-0.39 0.1-0.23 0.04-0.5-0.14-0.68l-6.13-6.15c-0.11-0.12-0.27-0.19-0.43-0.19-0.17 0-0.32 0.07-0.44 0.19l-4.16 4.15h-16.122v-19.31l2.969-1.97c0.179-0.13 0.278-0.34 0.258-0.56-0.019-0.22-0.153-0.41-0.352-0.5l-8.687-3.63c-0.197-0.09-0.427-0.07-0.606 0.05s-0.281 0.33-0.269 0.55c0.235 6.82 0.482 15.34 0.718 25.37h-12c-0.238 0-0.457 0.13-0.562 0.35l-5.188-4.53c-0.128-0.11-0.292-0.16-0.457-0.14-0.164 0.02-0.315 0.1-0.418 0.23l-2.718 3.37h-7.094c2.095-2.77 3.962-5.22 5.312-6.84 1.548-1.86 2.694-2.98 3.094-3.22 1.15-0.69 2.306-1.15 3.438-1.37 0.226-0.05 0.406-0.22 0.465-0.45 0.06-0.22-0.012-0.46-0.184-0.62l-6.156-5.06c-0.13-0.11-0.302-0.17-0.474-0.15-0.173 0.02-0.33 0.11-0.433 0.25l-2.343 3h-8.688c0.965-1.64 1.886-3 2.688-3.85 0.961-1.02 1.763-1.4 2.343-1.4 0.284 0 0.534-0.19 0.608-0.46s-0.048-0.56-0.295-0.7l-7.219-4.34c-0.103-0.07-0.222-0.1-0.344-0.1zm48.094 5.78c-0.154 0.01-0.299 0.08-0.406 0.19l-1.094 1.09c-0.119 0.13-0.179 0.3-0.168 0.47 0.012 0.17 0.096 0.33 0.231 0.44 3.795 3.08 6.048 6.14 6.843 9.09 0.432 1.61 0.907 2.79 1.5 3.6 0.296 0.4 0.626 0.72 1.036 0.9 0.4 0.19 0.88 0.23 1.31 0.1 1.44-0.44 2.42-1.73 2.94-3.53 0.54-1.9-0.04-3.85-1.57-5.75-1.59-1.99-5.003-4.11-10.341-6.53-0.087-0.05-0.184-0.07-0.281-0.07zm-47.75 8.13h9.531l-5.562 11.4h-8.094l-2.562-1.71c2.227-2.93 4.462-6.15 6.687-9.69zm24.438 13.81l2.281 2.28c0.162 0.17 0.404 0.23 0.625 0.16 2.098-0.7 4.468-1.06 7.062-1.06h1.907c0.622 18.59-3.482 33.69-12.282 45.37 0.239-0.33 0.435-0.72 0.563-1.12 0.278-0.89 0.285-1.89 0.094-3.04-0.221-1.32-1.188-2.59-2.782-3.9-1.344-1.11-3.247-2.29-5.531-3.5l4.875-2.06c0.236-0.11 0.386-0.34 0.375-0.6-0.238-6.18-0.342-16.38-0.344-30.37l2.969-2c0.072-0.04 0.136-0.1 0.188-0.16zm-29.563 0.66h7.438v11.75h-7.438v-11.75zm13.031 0h7.407v11.75h-7.407v-11.75zm-13.031 14.81h7.438v12.12h-7.438v-12.12zm13.031 0h7.407v12.12h-7.407v-12.12zm-1.812 20.09c-0.089 0.02-0.175 0.05-0.25 0.1l-1.094 0.72c-0.282 0.18-0.365 0.55-0.187 0.84 0.953 1.67 1.786 3.33 2.5 5 0.7 1.63 1.238 3.49 1.593 5.62 0.193 1.16 0.497 2.05 1.157 2.57 0.659 0.52 1.595 0.48 2.437 0.06 1.68-0.84 2.471-2.67 2.344-5.09-0.072-1.37-0.845-2.79-2.188-4.38s-3.29-3.37-5.843-5.31c-0.133-0.11-0.302-0.15-0.469-0.13zm-8.656 1.44c-0.144 0.02-0.276 0.08-0.375 0.19l-0.719 0.72c-0.167 0.17-0.216 0.43-0.125 0.65 0.466 1.17 0.894 2.59 1.25 4.25 0.345 1.62 0.431 3.56 0.312 5.82-0.064 1.22 0.113 2.2 0.657 2.9 0.543 0.7 1.46 0.95 2.437 0.81 0.993-0.14 1.811-0.67 2.344-1.5 0.532-0.82 0.811-1.91 0.875-3.25 0.137-2.88-2.012-6.26-6.156-10.4-0.13-0.14-0.314-0.21-0.5-0.19zm-6.875 0.72c-0.256 0.04-0.455 0.24-0.5 0.5-1.192 5.24-2.85 8.69-4.719 10.34-1.067 0.94-1.765 1.8-2.063 2.69s-0.075 1.86 0.594 2.53c1.23 1.23 2.914 1.5 4.531 0.69 1.597-0.8 2.767-2.25 3.532-4.16 0.816-2.04 1.023-5.81 0.781-11.62-0.016-0.27-0.206-0.5-0.469-0.56l-1.437-0.38c-0.081-0.03-0.166-0.04-0.25-0.03z"/></g><g id="g49235" transform="matrix(.59856 0 0 .59856 80.009 -46.548)"><path id="path49119" fill-opacity=".29412" d="m208.28 99.312c-9.25 0.001-16.95 1.548-22.87 5.718-5.68 4-9.54 10.17-11.6 17.53l-1.87 6.78 6.9 1.25 7.72 1.41c-0.33 0.15-0.77 0.25-1.09 0.41-4.18 2.02-7.7 5.14-10.09 9.06-2.4 3.92-3.57 8.51-3.57 13.22 0 7.06 2.76 13.73 7.81 18.5 5.22 4.91 12.4 7.19 20.29 7.19 4.61 0 9.11-0.88 13.28-2.66 1.26-0.54 2.42-1.31 3.62-2l1.25 3.19h4.38 17.09 10.22l-4.47-9.19c-1.33-2.73-2.17-5.18-2.59-7.25-0.38-1.87-0.69-5.87-0.69-11.41l0.16-20.12v-0.03-0.03c0-7.95-0.41-13.62-3.1-18.54-2.31-4.23-6.15-7.42-10.78-9.65-5.31-2.57-11.79-3.377-20-3.378zm0 12.808c7.2 0.01 12.2 1.02 14.44 2.1 2.92 1.41 4.36 2.86 5.12 4.25 0.39 0.7 1.53 5.34 1.54 12.41l-0.19 20.12v0.03 0.03c0 5.95 0.24 10.39 0.97 13.97 0.07 0.36 0.22 0.73 0.31 1.09h-3.41c-0.06-0.22-0.09-0.26-0.15-0.5-0.31-1.08-0.44-1.65-0.75-2.5l-2.6-6.9c0.2-0.49 0.54-0.9 0.69-1.41 0.94-3.07 0.94-5.84 0.94-10.22v-3.43-7-1.88-2.37-1.75c0-4.38-1.17-8.91-4.69-11.94-3.86-3.33-8.22-3.69-13.44-3.69-3.91 0-7.68 0.76-10.87 3-1.72 1.21-3.04 2.73-4.13 4.44l-3.03-0.56c1.08-1.63 2.34-2.91 3.75-3.91 2.69-1.89 7.78-3.37 15.5-3.38zm-1.22 13.22c1.61 0 2.63 0.2 3.5 0.38-2.14 0.54-5.01 1.15-8.03 1.75 0.47-0.85 0.89-1.39 1-1.47 0.26-0.18 1.3-0.66 3.53-0.66zm-13.47 17.66c-2.66 2.57-4.5 6.2-4.5 9.91 0 4.01 1.78 8.05 4.63 10.84 1.89 1.84 4.29 3.08 6.84 3.78-0.22 0.01-0.42 0.06-0.65 0.06-5.57 0-8.97-1.36-11.5-3.75-2.69-2.53-3.82-5.06-3.82-9.15 0-2.67 0.59-4.71 1.72-6.57 1.14-1.86 2.57-3.13 4.75-4.18 0.61-0.3 1.67-0.63 2.53-0.94zm18.5 6.44c-0.03 0.33-0.1 1.75-0.09 1.72v0.03l-0.03 0.03c-0.26 0.88-0.62 1.51-1.78 2.37-1.93 1.4-3.38 1.82-5.1 1.82-1.44 0-1.81-0.21-2.43-0.82-0.76-0.74-0.78-0.86-0.78-1.68 0-0.51-0.31-0.18 0.68-0.88-0.33 0.22 2.55-1 7.06-1.97 1.09-0.23 1.51-0.41 2.47-0.62z"/><path id="path37686" d="m191.4 122.86l-15.68-2.83c1.76-6.31 4.8-10.99 9.1-14.02 4.31-3.04 10.7-4.55 19.19-4.55 7.71 0 13.45 0.91 17.22 2.73 3.77 1.83 6.43 4.14 7.97 6.95 1.53 2.81 2.3 7.97 2.3 15.47l-0.18 20.17c0 5.74 0.28 9.98 0.83 12.7 0.55 2.73 1.59 5.65 3.1 8.77h-17.09c-0.45-1.15-1.01-2.85-1.66-5.11-0.29-1.02-0.5-1.7-0.62-2.03-2.95 2.87-6.11 5.03-9.47 6.46-3.36 1.44-6.95 2.15-10.76 2.15-6.73 0-12.03-1.82-15.9-5.47-3.88-3.65-5.81-8.26-5.81-13.84 0-3.69 0.88-6.98 2.64-9.87 1.77-2.89 4.24-5.1 7.41-6.64 3.18-1.54 7.76-2.88 13.75-4.03 8.08-1.52 13.67-2.93 16.79-4.24v-1.73c0-3.32-0.82-5.68-2.46-7.1-1.64-1.41-4.74-2.12-9.29-2.12-3.07 0-5.47 0.6-7.19 1.81-1.73 1.21-3.12 3.33-4.19 6.37zm23.13 14.02c-2.22 0.74-5.72 1.62-10.52 2.65-4.8 1.02-7.93 2.03-9.41 3.01-2.25 1.6-3.38 3.63-3.38 6.09 0 2.42 0.9 4.51 2.71 6.27 1.8 1.76 4.1 2.65 6.88 2.65 3.12 0 6.09-1.03 8.92-3.08 2.09-1.56 3.47-3.46 4.12-5.72 0.45-1.48 0.68-4.28 0.68-8.42v-3.45z" stroke="#500050" stroke-width="10.024" fill="none"/><path id="text31975" fill="url(#linearGradient49427)" d="m191.4 122.86l-15.68-2.83c1.76-6.31 4.8-10.99 9.1-14.02 4.31-3.04 10.7-4.55 19.19-4.55 7.71 0 13.45 0.91 17.22 2.73 3.77 1.83 6.43 4.14 7.97 6.95 1.53 2.81 2.3 7.97 2.3 15.47l-0.18 20.17c0 5.74 0.28 9.98 0.83 12.7 0.55 2.73 1.59 5.65 3.1 8.77h-17.09c-0.45-1.15-1.01-2.85-1.66-5.11-0.29-1.02-0.5-1.7-0.62-2.03-2.95 2.87-6.11 5.03-9.47 6.46-3.36 1.44-6.95 2.15-10.76 2.15-6.73 0-12.03-1.82-15.9-5.47-3.88-3.65-5.81-8.26-5.81-13.84 0-3.69 0.88-6.98 2.64-9.87 1.77-2.89 4.24-5.1 7.41-6.64 3.18-1.54 7.76-2.88 13.75-4.03 8.08-1.52 13.67-2.93 16.79-4.24v-1.73c0-3.32-0.82-5.68-2.46-7.1-1.64-1.41-4.74-2.12-9.29-2.12-3.07 0-5.47 0.6-7.19 1.81-1.73 1.21-3.12 3.33-4.19 6.37zm23.13 14.02c-2.22 0.74-5.72 1.62-10.52 2.65-4.8 1.02-7.93 2.03-9.41 3.01-2.25 1.6-3.38 3.63-3.38 6.09 0 2.42 0.9 4.51 2.71 6.27 1.8 1.76 4.1 2.65 6.88 2.65 3.12 0 6.09-1.03 8.92-3.08 2.09-1.56 3.47-3.46 4.12-5.72 0.45-1.48 0.68-4.28 0.68-8.42v-3.45z"/></g></svg>
