<?xml version="1.0" encoding="UTF-8" standalone="no"?>
<svg xmlns:xlink="http://www.w3.org/1999/xlink" height="1024" version="1.1" viewBox="0 0 1024 1024" width="1024" xmlns="http://www.w3.org/2000/svg">
  <path d="M749.88,641.75c-85.76-41.51-99.18-105.39-99.93-110.37c-0.75-5.72-1.49-10.19,4.72-16.16c6.21-5.72,33.31-22.37,40.77-27.59c12.43-8.7,17.9-17.4,13.92-28.09c-2.73-7.46-9.69-10.19-16.9-10.19c-2.24,0-4.47,0.25-6.71,0.75c-13.67,2.98-26.85,9.94-34.55,11.68c-0.99,0.25-1.99,0.5-2.73,0.5c-3.98,0-5.47-1.74-5.22-6.71c0.99-14.91,2.98-44.25,0.75-71.34c-3.23-37.53-15.41-56.18-29.58-72.58c-6.96-7.95-39.03-42.01-101.17-42.01c-61.89,0-94.46,34.3-101.17,42.01C396.91,328.06,384.98,346.7,381.75,384.23c-2.24,27.34-0.25,56.43,0.75,71.34c0.25,4.72-1.24,6.71-5.22,6.71c-0.75,0-1.74,0-2.73-0.5c-7.71-1.74-20.88-8.7-34.55-11.68c-2.24-0.5-4.47-0.75-6.71-0.75c-7.21,0-14.17,2.73-16.9,10.19c-3.98,10.69,1.49,19.39,13.92,28.09c7.46,5.22,34.55,22.12,40.77,27.59c6.21,5.97,5.47,10.44,4.72,16.16c-0.5,4.72-14.17,68.85-99.93,110.37c-4.97,2.49-13.67,7.46,1.49,15.91c23.61,12.93,39.27,11.68,51.45,19.64c10.44,6.71,4.23,21.13,11.68,26.35c9.2,6.46,36.79-0.5,72.09,11.19c29.58,9.69,47.73,37.29,100.42,37.29c52.45,0,71.09-27.84,100.42-37.29c35.3-11.68,62.89-4.72,72.09-11.19c7.46-5.22,1.49-19.64,11.68-26.35c12.18-7.95,27.84-6.46,51.45-19.64C763.31,649.46,754.85,644.24,749.88,641.75M0,860.16C0,950.64,73.36,1024,163.84,1024L860.16,1024C950.64,1024,1024,950.64,1024,860.16L1024,163.84C1024,73.36,950.64,0,860.16,0L163.84,0C73.36,0,0,73.36,0,163.84L0,860.16" fill="#FFFC00" fill-rule="evenodd"/>
  <path d="M787.17,637.03c-3.73-10.44-11.19-16.16-19.39-20.63c-1.49-0.99-2.98-1.74-4.23-2.24c-2.49-1.24-4.97-2.49-7.46-3.73c-26.1-13.67-46.23-31.07-60.4-51.7c-4.72-6.96-7.95-13.17-10.44-18.39c-1.24-3.48-1.24-5.47-0.25-7.21c0.75-1.24,2.49-2.73,3.23-3.48c4.47-2.98,9.2-5.97,12.18-7.95c5.47-3.73,9.94-6.46,12.93-8.45c10.69-7.46,18.15-15.41,22.87-24.11c6.46-12.43,7.46-26.85,2.24-40.02c-6.96-18.64-24.61-30.08-45.99-30.08c-4.47,0-8.95,0.5-13.42,1.49c-1.24,0.25-2.24,0.5-3.48,0.75c0.25-12.68,0-26.1-1.24-39.27c-3.98-46.48-20.38-70.84-37.29-90.23c-6.96-8.2-19.39-19.89-37.78-30.57C573.65,246.03,544.31,238.57,512.5,238.57c-31.82,0-60.9,7.46-86.5,22.12c-18.64,10.69-30.82,22.37-38.03,30.57c-16.9,19.39-33.31,43.75-37.29,90.23c-1.24,13.17-1.49,26.6-1.24,39.27c-1.24-0.25-2.24-0.5-3.48-0.75c-4.47-0.99-8.95-1.49-13.42-1.49c-21.38,0-38.78,11.43-45.99,30.08c-4.97,13.42-4.23,27.59,2.24,40.02c4.72,8.95,12.18,16.9,22.87,24.11c2.73,1.99,7.21,4.72,12.93,8.45c2.98,1.99,7.46,4.72,11.68,7.71c0.75,0.5,2.98,2.24,3.73,3.73c0.99,1.74,0.99,3.73-0.5,7.46c-2.24,4.97-5.47,11.19-10.19,17.9c-13.67,20.13-33.56,37.29-58.66,50.71c-13.42,7.21-27.09,11.68-33.06,27.59c-4.47,11.93-1.49,25.6,9.69,37.04l0,0c3.73,3.98,8.2,7.46,14.17,10.69c13.67,7.46,25.35,11.19,34.55,13.92c1.49,0.5,5.47,1.74,6.96,3.23c3.98,3.48,3.48,8.95,8.95,16.9c3.23,4.97,7.21,8.2,10.19,10.44c11.43,7.95,24.36,8.45,37.78,8.95c12.18,0.5,26.1,0.99,42.01,6.21c6.46,2.24,13.42,6.46,21.38,11.19c19.14,11.68,44.99,27.59,88.74,27.59c43.5,0,69.85-16.16,88.99-27.84c7.95-4.72,14.67-8.95,21.13-11.19c15.91-5.22,29.83-5.72,42.01-6.21c13.67-0.5,26.35-0.99,37.78-8.95c3.48-2.49,8.2-6.46,11.68-12.68c3.98-6.71,3.73-11.43,7.46-14.67c1.49-1.24,4.72-2.49,6.46-2.98c9.2-2.49,21.13-6.21,35.05-13.92c6.21-3.48,10.94-7.21,14.91-11.43c0,0,0,0,0.25-0.25C788.91,661.89,791.39,648.71,787.17,637.03" fill="#000000"/>
  <path d="M749.88,641.75c-85.76-41.51-99.18-105.39-99.93-110.37c-0.75-5.72-1.49-10.19,4.72-16.16c6.21-5.72,33.31-22.37,40.77-27.59c12.43-8.7,17.9-17.4,13.92-28.09c-2.73-7.46-9.69-10.19-16.9-10.19c-2.24,0-4.47,0.25-6.71,0.75c-13.67,2.98-26.85,9.94-34.55,11.68c-0.99,0.25-1.99,0.5-2.73,0.5c-3.98,0-5.47-1.74-5.22-6.71c0.99-14.91,2.98-44.25,0.75-71.34c-3.23-37.53-15.41-56.18-29.58-72.58c-6.96-7.95-39.03-42.01-101.17-42.01c-61.89,0-94.46,34.3-101.17,42.01C396.91,328.06,384.98,346.7,381.75,384.23c-2.24,27.34-0.25,56.43,0.75,71.34c0.25,4.72-1.24,6.71-5.22,6.71c-0.75,0-1.74,0-2.73-0.5c-7.71-1.74-20.88-8.7-34.55-11.68c-2.24-0.5-4.47-0.75-6.71-0.75c-7.21,0-14.17,2.73-16.9,10.19c-3.98,10.69,1.49,19.39,13.92,28.09c7.46,5.22,34.55,22.12,40.77,27.59c6.21,5.97,5.47,10.44,4.72,16.16c-0.5,4.72-14.17,68.85-99.93,110.37c-4.97,2.49-13.67,7.46,1.49,15.91c23.61,12.93,39.27,11.68,51.45,19.64c10.44,6.71,4.23,21.13,11.68,26.35c9.2,6.46,36.79-0.5,72.09,11.19c29.58,9.69,47.73,37.29,100.42,37.29c52.45,0,71.09-27.84,100.42-37.29c35.3-11.68,62.89-4.72,72.09-11.19c7.46-5.22,1.49-19.64,11.68-26.35c12.18-7.95,27.84-6.46,51.45-19.64C763.31,649.46,754.85,644.24,749.88,641.75" fill="#FFFFFF"/>
  <path d="M192,512C192,335.29,335.29,192,512,192L512,192C688.71,192,832,335.29,832,512L832,512C832,688.71,688.71,832,512,832L512,832C335.29,832,192,688.71,192,512L192,512M0,860.16C0,950.64,73.36,1024,163.84,1024L860.16,1024C950.64,1024,1024,950.64,1024,860.16L1024,163.84C1024,73.36,950.64,0,860.16,0L163.84,0C73.36,0,0,73.36,0,163.84L0,860.16" fill="#000000"/>
  <path d="M32,163.84C32,91.03,91.03,32,163.84,32L860.16,32C932.97,32,992,91.03,992,163.84L992,860.16C992,932.97,932.97,992,860.16,992L163.84,992C91.03,992,32,932.97,32,860.16L32,163.84M170.11,56.42A16,16,0,0,0,170.11,88.42A16,16,0,0,0,170.11,56.42M218.95,56.42A16,16,0,0,0,218.95,88.42A16,16,0,0,0,218.95,56.42M365.47,56.42A16,16,0,0,0,365.47,88.42A16,16,0,0,0,365.47,56.42M512,56.42A16,16,0,0,0,512,88.42A16,16,0,0,0,512,56.42M560.84,56.42A16,16,0,0,0,560.84,88.42A16,16,0,0,0,560.84,56.42M609.68,56.42A16,16,0,0,0,609.68,88.42A16,16,0,0,0,609.68,56.42M658.53,56.42A16,16,0,0,0,658.53,88.42A16,16,0,0,0,658.53,56.42M707.37,56.42A16,16,0,0,0,707.37,88.42A16,16,0,0,0,707.37,56.42M756.21,56.42A16,16,0,0,0,756.21,88.42A16,16,0,0,0,756.21,56.42M805.05,56.42A16,16,0,0,0,805.05,88.42A16,16,0,0,0,805.05,56.42M121.26,105.26A16,16,0,0,0,121.26,137.26A16,16,0,0,0,121.26,105.26M170.11,105.26A16,16,0,0,0,170.11,137.26A16,16,0,0,0,170.11,105.26M218.95,105.26A16,16,0,0,0,218.95,137.26A16,16,0,0,0,218.95,105.26M267.79,105.26A16,16,0,0,0,267.79,137.26A16,16,0,0,0,267.79,105.26M316.63,105.26A16,16,0,0,0,316.63,137.26A16,16,0,0,0,316.63,105.26M414.32,105.26A16,16,0,0,0,414.32,137.26A16,16,0,0,0,414.32,105.26M463.16,105.26A16,16,0,0,0,463.16,137.26A16,16,0,0,0,463.16,105.26M512,105.26A16,16,0,0,0,512,137.26A16,16,0,0,0,512,105.26M658.53,105.26A16,16,0,0,0,658.53,137.26A16,16,0,0,0,658.53,105.26M707.37,105.26A16,16,0,0,0,707.37,137.26A16,16,0,0,0,707.37,105.26M756.21,105.26A16,16,0,0,0,756.21,137.26A16,16,0,0,0,756.21,105.26M805.05,105.26A16,16,0,0,0,805.05,137.26A16,16,0,0,0,805.05,105.26M170.11,154.11A16,16,0,0,0,170.11,186.11A16,16,0,0,0,170.11,154.11M218.95,154.11A16,16,0,0,0,218.95,186.11A16,16,0,0,0,218.95,154.11M316.63,154.11A16,16,0,0,0,316.63,186.11A16,16,0,0,0,316.63,154.11M365.47,154.11A16,16,0,0,0,365.47,186.11A16,16,0,0,0,365.47,154.11M463.16,154.11A16,16,0,0,0,463.16,186.11A16,16,0,0,0,463.16,154.11M560.84,154.11A16,16,0,0,0,560.84,186.11A16,16,0,0,0,560.84,154.11M609.68,154.11A16,16,0,0,0,609.68,186.11A16,16,0,0,0,609.68,154.11M658.53,154.11A16,16,0,0,0,658.53,186.11A16,16,0,0,0,658.53,154.11M853.89,154.11A16,16,0,0,0,853.89,186.11A16,16,0,0,0,853.89,154.11M902.74,154.11A16,16,0,0,0,902.74,186.11A16,16,0,0,0,902.74,154.11M72.42,202.95A16,16,0,0,0,72.42,234.95A16,16,0,0,0,72.42,202.95M121.26,202.95A16,16,0,0,0,121.26,234.95A16,16,0,0,0,121.26,202.95M170.11,202.95A16,16,0,0,0,170.11,234.95A16,16,0,0,0,170.11,202.95M267.79,202.95A16,16,0,0,0,267.79,234.95A16,16,0,0,0,267.79,202.95M316.63,202.95A16,16,0,0,0,316.63,234.95A16,16,0,0,0,316.63,202.95M756.21,202.95A16,16,0,0,0,756.21,234.95A16,16,0,0,0,756.21,202.95M805.05,202.95A16,16,0,0,0,805.05,234.95A16,16,0,0,0,805.05,202.95M72.42,251.79A16,16,0,0,0,72.42,283.79A16,16,0,0,0,72.42,251.79M218.95,251.79A16,16,0,0,0,218.95,283.79A16,16,0,0,0,218.95,251.79M805.05,251.79A16,16,0,0,0,805.05,283.79A16,16,0,0,0,805.05,251.79M853.89,251.79A16,16,0,0,0,853.89,283.79A16,16,0,0,0,853.89,251.79M902.74,251.79A16,16,0,0,0,902.74,283.79A16,16,0,0,0,902.74,251.79M951.58,251.79A16,16,0,0,0,951.58,283.79A16,16,0,0,0,951.58,251.79M72.42,300.63A16,16,0,0,0,72.42,332.63A16,16,0,0,0,72.42,300.63M121.26,300.63A16,16,0,0,0,121.26,332.63A16,16,0,0,0,121.26,300.63M170.11,300.63A16,16,0,0,0,170.11,332.63A16,16,0,0,0,170.11,300.63M902.74,300.63A16,16,0,0,0,902.74,332.63A16,16,0,0,0,902.74,300.63M170.11,349.47A16,16,0,0,0,170.11,381.47A16,16,0,0,0,170.11,349.47M951.58,349.47A16,16,0,0,0,951.58,381.47A16,16,0,0,0,951.58,349.47M170.11,398.32A16,16,0,0,0,170.11,430.32A16,16,0,0,0,170.11,398.32M853.89,398.32A16,16,0,0,0,853.89,430.32A16,16,0,0,0,853.89,398.32M951.58,398.32A16,16,0,0,0,951.58,430.32A16,16,0,0,0,951.58,398.32M72.42,447.16A16,16,0,0,0,72.42,479.16A16,16,0,0,0,72.42,447.16M170.11,447.16A16,16,0,0,0,170.11,479.16A16,16,0,0,0,170.11,447.16M72.42,496A16,16,0,0,0,72.42,528A16,16,0,0,0,72.42,496M853.89,496A16,16,0,0,0,853.89,528A16,16,0,0,0,853.89,496M902.74,496A16,16,0,0,0,902.74,528A16,16,0,0,0,902.74,496M951.58,496A16,16,0,0,0,951.58,528A16,16,0,0,0,951.58,496M72.42,544.84A16,16,0,0,0,72.42,576.84A16,16,0,0,0,72.42,544.84M853.89,544.84A16,16,0,0,0,853.89,576.84A16,16,0,0,0,853.89,544.84M951.58,544.84A16,16,0,0,0,951.58,576.84A16,16,0,0,0,951.58,544.84M121.26,593.68A16,16,0,0,0,121.26,625.68A16,16,0,0,0,121.26,593.68M72.42,642.53A16,16,0,0,0,72.42,674.53A16,16,0,0,0,72.42,642.53M121.26,642.53A16,16,0,0,0,121.26,674.53A16,16,0,0,0,121.26,642.53M170.11,642.53A16,16,0,0,0,170.11,674.53A16,16,0,0,0,170.11,642.53M853.89,642.53A16,16,0,0,0,853.89,674.53A16,16,0,0,0,853.89,642.53M951.58,642.53A16,16,0,0,0,951.58,674.53A16,16,0,0,0,951.58,642.53M121.26,691.37A16,16,0,0,0,121.26,723.37A16,16,0,0,0,121.26,691.37M170.11,691.37A16,16,0,0,0,170.11,723.37A16,16,0,0,0,170.11,691.37M853.89,691.37A16,16,0,0,0,853.89,723.37A16,16,0,0,0,853.89,691.37M902.74,691.37A16,16,0,0,0,902.74,723.37A16,16,0,0,0,902.74,691.37M218.95,740.21A16,16,0,0,0,218.95,772.21A16,16,0,0,0,218.95,740.21M267.79,740.21A16,16,0,0,0,267.79,772.21A16,16,0,0,0,267.79,740.21M756.21,740.21A16,16,0,0,0,756.21,772.21A16,16,0,0,0,756.21,740.21M951.58,740.21A16,16,0,0,0,951.58,772.21A16,16,0,0,0,951.58,740.21M72.42,789.05A16,16,0,0,0,72.42,821.05A16,16,0,0,0,72.42,789.05M170.11,789.05A16,16,0,0,0,170.11,821.05A16,16,0,0,0,170.11,789.05M316.63,789.05A16,16,0,0,0,316.63,821.05A16,16,0,0,0,316.63,789.05M707.37,789.05A16,16,0,0,0,707.37,821.05A16,16,0,0,0,707.37,789.05M853.89,789.05A16,16,0,0,0,853.89,821.05A16,16,0,0,0,853.89,789.05M902.74,789.05A16,16,0,0,0,902.74,821.05A16,16,0,0,0,902.74,789.05M170.11,837.89A16,16,0,0,0,170.11,869.89A16,16,0,0,0,170.11,837.89M267.79,837.89A16,16,0,0,0,267.79,869.89A16,16,0,0,0,267.79,837.89M463.16,837.89A16,16,0,0,0,463.16,869.89A16,16,0,0,0,463.16,837.89M560.84,837.89A16,16,0,0,0,560.84,869.89A16,16,0,0,0,560.84,837.89M756.21,837.89A16,16,0,0,0,756.21,869.89A16,16,0,0,0,756.21,837.89M805.05,837.89A16,16,0,0,0,805.05,869.89A16,16,0,0,0,805.05,837.89M951.58,837.89A16,16,0,0,0,951.58,869.89A16,16,0,0,0,951.58,837.89M121.26,886.74A16,16,0,0,0,121.26,918.74A16,16,0,0,0,121.26,886.74M267.79,886.74A16,16,0,0,0,267.79,918.74A16,16,0,0,0,267.79,886.74M365.47,886.74A16,16,0,0,0,365.47,918.74A16,16,0,0,0,365.47,886.74M609.68,886.74A16,16,0,0,0,609.68,918.74A16,16,0,0,0,609.68,886.74M707.37,886.74A16,16,0,0,0,707.37,918.74A16,16,0,0,0,707.37,886.74M756.21,886.74A16,16,0,0,0,756.21,918.74A16,16,0,0,0,756.21,886.74M218.95,935.58A16,16,0,0,0,218.95,967.58A16,16,0,0,0,218.95,935.58M463.16,935.58A16,16,0,0,0,463.16,967.58A16,16,0,0,0,463.16,935.58M512,935.58A16,16,0,0,0,512,967.58A16,16,0,0,0,512,935.58M609.68,935.58A16,16,0,0,0,609.68,967.58A16,16,0,0,0,609.68,935.58M658.53,935.58A16,16,0,0,0,658.53,967.58A16,16,0,0,0,658.53,935.58M756.21,935.58A16,16,0,0,0,756.21,967.58A16,16,0,0,0,756.21,935.58M853.89,935.58A16,16,0,0,0,853.89,967.58A16,16,0,0,0,853.89,935.58M198.4,512C198.4,685.18,338.82,825.6,512,825.6L512,825.6C685.18,825.6,825.6,685.18,825.6,512L825.6,512C825.6,338.82,685.18,198.4,512,198.4L512,198.4C338.82,198.4,198.4,338.82,198.4,512L198.4,512" fill="#FFFC00"/>
</svg>