<?xml version="1.0" encoding="UTF-8"?>
<!-- Created with Inkscape (http://www.inkscape.org/) -->
<svg id="W_Incubator" width="798.908" height="1e3" version="1.0" xmlns="http://www.w3.org/2000/svg">
 <g id="group">
  <path id="blue" d="m148.718 839.534c161.187 149.674 340.285 149.674 501.472 0 280.824-260.766-100.294-791.323-250.736-791.323-150.442 0-531.56 530.558-250.736 791.323z" style="fill-rule:evenodd;fill:#ffffff;stroke-width:96.4215;stroke:#006699"/>
  <g id="inner">
   <path id="red" d="m549.895 609.646c0 83.0985-67.5807 150.442-150.442 150.442-82.8609 0-150.442-67.3433-150.442-150.442 0-83.0985 67.9895-150.463 150.85-150.463 82.8609 0 150.033 67.3646 150.033 150.463z" style="fill-rule:evenodd;fill:#990000"/>
   <path id="green_top" d="m439.358 168.351c-30.0883-29.0854-50.1472-29.0854-80.2355 0-194.03 187.562-230.677 391.148-210.618 411.207h50.1472c40.1178-230.677 361.06-230.677 401.178 0h50.1472c20.0589-20.0589-10.0294-230.677-210.618-411.207z" style="fill-rule:evenodd;fill:#339966;stroke-linejoin:round;stroke-miterlimit:1;stroke-width:2.29931;stroke:#339966"/>
   <path id="green_bottom" d="m639.206 629.706h-40.1178c-50.1472 230.677-351.03 230.677-401.178 0h-40.1178c-2.92333 0-8.80558 7.01244-8.12244 10.4566 56.8254 286.495 441.726 285.177 499.565-0.4272 0.78536-3.87816-6.68632-10.0294-10.0295-10.0294z" style="fill-rule:evenodd;fill:#339966;stroke-width:.251513;stroke:#339966"/>
  </g>
 </g>
</svg>
