<?xml version="1.0" encoding="UTF-8" standalone="no"?>
<svg xmlns:dc="http://purl.org/dc/elements/1.1/" xmlns:cc="http://web.resource.org/cc/" xmlns:rdf="http://www.w3.org/1999/02/22-rdf-syntax-ns#" xmlns:svg="http://www.w3.org/2000/svg" xmlns="http://www.w3.org/2000/svg" xmlns:sodipodi="http://sodipodi.sourceforge.net/DTD/sodipodi-0.dtd" xmlns:inkscape="http://www.inkscape.org/namespaces/inkscape" width="4000" height="2300" viewBox="0 -410 3080 1900" id="svg2" sodipodi:version="0.32" inkscape:version="0.45.1" sodipodi:docname="cirillico.svg" inkscape:output_extension="org.inkscape.output.svg.inkscape" sodipodi:docbase="C:\Documents and Settings\Flanker\Desktop" version="1.0">
  <metadata id="metadata15">
    <rdf:RDF>
      <cc:Work rdf:about="">
        <dc:format>image/svg+xml</dc:format>
        <dc:type rdf:resource="http://purl.org/dc/dcmitype/StillImage"/>
      </cc:Work>
    </rdf:RDF>
  </metadata>
  <defs id="defs13"/>
  <sodipodi:namedview inkscape:window-height="1005" inkscape:window-width="1280" inkscape:pageshadow="2" inkscape:pageopacity="0.0" guidetolerance="10.0" gridtolerance="10.0" objecttolerance="10.0" borderopacity="1.0" bordercolor="#666666" pagecolor="#ffffff" id="base" inkscape:zoom="0.14104919" inkscape:cx="3415.4097" inkscape:cy="278.58218" inkscape:window-x="0" inkscape:window-y="0" inkscape:current-layer="svg2" width="4000px" height="2300px" inkscape:showpageshadow="false"/>
  <path id="path3164" style="color:#000000;fill:#f9f9f9;fill-opacity:1;fill-rule:evenodd;stroke:#b3b3b3;stroke-width:12.39130402;stroke-linecap:round;stroke-linejoin:round;stroke-miterlimit:4;stroke-dashoffset:0;stroke-opacity:1;marker:none;marker-start:none;marker-mid:none;marker-end:none;visibility:visible;display:inline;overflow:visible;enable-background:accumulate" d="M -105.98536,-355.55365 L 3182.9625,-355.55365M -105.98536,1437.1964 L 3182.9625,1437.1964M -105.98536,5.8022699 L 3182.9625,5.8022699M -105.98536,1084.6989 L 3182.9625,1084.6989M -105.98536,-47.319526 L 3182.9625,-47.319526"/>
  <path style="font-size:1648.20751953px;font-style:italic;font-weight:normal;fill:#000000;fill-opacity:1;stroke:none;stroke-width:1px;stroke-linecap:butt;stroke-linejoin:miter;stroke-opacity:1;font-family:Lello" d="M 736.41836,1090.8945 L 736.41836,1061.1173 C 804.55657,1058.9713 848.01513,1048.2408 866.79415,1028.9258 C 885.5719,1009.6109 894.96109,964.00629 894.96176,892.11169 L 894.96176,558.12433 L 872.42767,557.31954 C 852.57559,557.32007 836.21157,561.07575 823.33555,568.58658 C 810.45835,576.09846 800.13024,586.02418 792.35118,598.36377 C 784.571,610.70434 749.0262,675.35565 685.71666,792.31788 L 525.56368,1090.8945 L 247.91154,1090.8945 L 247.91154,1061.1173 C 327.31727,1048.7773 386.0668,1017.9271 424.16029,968.56663 C 462.2534,919.20642 526.9047,813.77919 618.1144,652.28462 C 651.37859,593.26727 683.83837,553.29613 715.49385,532.37108 C 683.30184,508.76453 658.88994,480.99934 642.25806,449.07544 C 625.62537,417.15282 603.62783,355.31828 576.26538,263.57162 C 554.2675,191.14152 537.76934,146.20752 526.77087,128.76949 C 515.7718,111.33338 500.88323,102.61484 482.10509,102.61385 C 464.3995,102.61484 441.32891,110.66272 412.89325,126.75752 C 385.53028,142.31771 362.19142,150.09733 342.87662,150.09639 C 320.34245,150.09733 301.69819,143.39077 286.9438,129.97667 C 272.1893,116.5645 264.81207,99.932212 264.8121,80.079763 C 264.81207,55.937134 276.0791,34.341988 298.61323,15.294263 C 321.14723,-3.7513115 354.4118,-13.274636 398.40705,-13.275741 C 441.32891,-13.274636 479.82461,-2.2758668 513.89425,19.720601 C 547.96332,41.719212 572.2411,67.472429 586.72763,96.980329 C 601.21347,126.49022 621.60143,183.63017 647.89159,268.40035 C 671.49829,345.1243 689.60602,396.63073 702.21483,422.9198 C 714.82271,449.21021 732.79631,469.19578 756.13568,482.87657 C 779.47401,496.55858 809.3853,503.39927 845.86964,503.39869 C 858.20911,503.39927 874.57313,501.7897 894.96176,498.56995 L 894.96176,198.38372 C 894.96109,126.49022 885.5719,80.885562 866.79415,61.56962 C 848.01513,42.255737 804.55657,31.52523 736.41836,29.378067 L 736.41836,-0.39911938 L 1206.415,-0.39911938 L 1206.415,29.378067 C 1138.8119,31.52523 1095.7557,42.255737 1077.2464,61.56962 C 1058.7355,80.885562 1049.4804,126.49022 1049.4812,198.38372 L 1049.4812,498.56995 C 1064.5031,501.7897 1078.4528,503.39927 1091.3302,503.39869 C 1131.5688,503.39927 1163.2238,496.55858 1186.2953,482.87657 C 1209.3649,469.19578 1227.2044,449.61261 1239.8138,424.12699 C 1252.4211,398.6427 1270.7971,346.73387 1294.9418,268.40035 C 1320.694,184.16669 1340.8137,127.42914 1355.301,98.187512 C 1369.786,68.947873 1394.0638,43.060525 1428.1344,20.52539 C 1462.2025,-2.0076041 1500.9665,-13.274636 1544.4263,-13.275741 C 1586.274,-13.274636 1619.0021,-4.1537055 1642.6106,14.08708 C 1666.2163,32.330018 1678.0198,54.327557 1678.0213,80.079763 C 1678.0198,99.932212 1670.7767,116.5645 1656.292,129.97667 C 1641.8044,143.39077 1623.026,150.09733 1599.9568,150.09639 C 1581.7135,150.09733 1558.3747,142.31771 1529.9401,126.75752 C 1500.9665,110.66272 1477.3594,102.61484 1459.1187,102.61385 C 1441.4122,102.61484 1426.926,111.8699 1415.6601,130.37907 C 1404.3919,148.89015 1388.0279,193.28762 1366.568,263.57162 C 1338.6676,355.8548 1316.5359,417.82348 1300.1729,449.47784 C 1283.8078,481.13347 1259.5301,508.76453 1227.3395,532.37108 C 1253.6283,551.68656 1275.4917,574.22062 1292.9298,599.97335 C 1310.3658,625.72705 1350.4711,693.59751 1413.2458,803.58492 C 1472.7989,908.74418 1519.3425,975.13919 1552.8766,1002.7702 C 1586.4081,1030.4013 1633.7565,1049.8503 1694.9219,1061.1173 L 1694.9219,1090.8945 L 1417.2697,1090.8945 C 1410.8302,1076.9449 1369.5178,999.41696 1293.3322,858.31056 L 1167.7852,625.72659 C 1160.2729,611.24087 1149.2741,596.21816 1134.7888,580.65841 C 1120.3017,565.09969 1098.8407,557.32007 1070.4057,557.31954 C 1064.5031,557.32007 1057.5283,557.58833 1049.4812,558.12433 L 1049.4812,892.11169 C 1049.4804,964.00629 1058.7355,1009.6109 1077.2464,1028.9258 C 1095.7557,1048.2408 1138.8119,1058.9713 1206.415,1061.1173 L 1206.415,1090.8945 L 736.41836,1090.8945 z M 2098.9258,1090.8945 L 2098.9258,1061.1173 C 2148.8223,1056.2886 2180.4773,1043.0096 2193.8909,1021.2803 C 2207.3036,999.55109 2214.0101,955.15362 2214.0106,888.08775 L 2214.0106,720.69167 C 2178.5995,720.69204 2155.1265,724.71598 2143.5916,732.7635 C 2132.0559,740.81174 2112.6068,771.12542 2085.2444,823.70464 L 1946.8208,1090.8945 L 1729.5278,1090.8945 L 1729.5278,1061.1173 C 1767.0845,1058.4347 1795.5204,1047.8384 1814.8354,1029.3282 C 1834.1502,1010.8181 1860.1717,968.56675 1892.8999,902.57395 C 1942.7966,802.24389 1979.2803,741.4824 2002.3512,720.28928 C 2025.4215,699.0969 2050.3699,687.42747 2077.1965,685.28096 C 2044.4681,671.33171 2013.6179,627.33663 1984.6458,553.29559 C 1970.6959,518.42198 1959.6971,495.48553 1951.6495,484.48615 C 1943.6014,473.48799 1932.6026,467.9886 1918.6531,467.98798 C 1907.9224,467.9886 1894.241,471.20775 1877.6089,477.64544 C 1853.4651,487.30351 1834.6867,492.13224 1821.2737,492.13164 C 1799.8126,492.13224 1782.912,484.88915 1770.572,470.40234 C 1758.2319,455.91678 1752.0618,438.47971 1752.0619,418.09107 C 1752.0618,394.48463 1761.451,376.3769 1780.2295,363.76783 C 1799.0078,351.16021 1821.0053,344.85603 1846.2221,344.85529 C 1890.2171,344.85603 1925.4936,357.86677 1952.0519,383.88755 C 1978.6096,409.90973 2003.9605,456.45331 2028.1044,523.51841 C 2051.1747,587.36549 2077.1962,628.94621 2106.1689,648.26068 C 2135.1409,667.57603 2171.0881,677.23349 2214.0106,677.23307 L 2214.0106,556.51475 C 2214.0101,487.30351 2206.9012,442.50365 2192.6837,422.11502 C 2178.4653,401.72772 2147.2127,389.11938 2098.9258,384.28994 L 2098.9258,353.70796 L 2462.6904,353.70796 L 2462.6904,384.28994 C 2413.8658,389.6559 2382.4791,402.53251 2368.5301,422.9198 C 2354.5798,443.30844 2347.605,487.84004 2347.6056,556.51475 L 2347.6056,677.23307 C 2389.9905,677.23349 2425.6694,667.57603 2454.6425,648.26068 C 2483.6141,628.94621 2509.6356,587.36549 2532.707,523.51841 C 2561.6786,440.89407 2591.8581,390.46069 2623.2458,372.21811 C 2654.6316,353.97696 2684.5429,344.85603 2712.9797,344.85529 C 2744.6337,344.85603 2768.6432,352.09913 2785.0083,366.58459 C 2801.3713,381.07149 2809.5533,398.24031 2809.5544,418.09107 C 2809.5533,438.47971 2803.3832,455.91678 2791.0442,470.40234 C 2778.7031,484.88915 2761.8025,492.13224 2740.3425,492.13164 C 2726.9284,492.13224 2708.15,487.30351 2684.0073,477.64544 C 2667.3741,471.20775 2654.4974,467.9886 2645.3775,467.98798 C 2629.8173,467.9886 2618.0137,473.48799 2609.9667,484.48615 C 2601.918,495.48553 2590.9192,518.42198 2576.9704,553.29559 C 2547.9972,627.33663 2517.147,671.33171 2484.4197,685.28096 C 2512.3182,687.42747 2537.8032,699.76755 2560.8746,722.30125 C 2583.9444,744.83568 2619.355,804.12173 2667.1068,900.15958 C 2700.9069,967.76196 2727.4649,1010.8181 2746.7808,1029.3282 C 2766.0947,1047.8384 2794.5306,1058.4347 2832.0885,1061.1173 L 2832.0885,1090.8945 L 2614.7955,1090.8945 L 2476.3718,823.70464 C 2449.0082,771.12542 2429.5592,740.81174 2418.0246,732.7635 C 2406.4886,724.71598 2383.0156,720.69204 2347.6056,720.69167 L 2347.6056,888.08775 C 2347.605,964.81107 2355.5187,1011.3546 2371.3469,1027.7186 C 2387.1737,1044.0827 2417.6215,1055.2156 2462.6904,1061.1173 L 2462.6904,1090.8945 L 2098.9258,1090.8945 z " id="text2159"/>
  <text xml:space="preserve" style="font-size:12px;font-style:normal;font-weight:normal;fill:#000000;fill-opacity:1;stroke:none;stroke-width:1px;stroke-linecap:butt;stroke-linejoin:miter;stroke-opacity:1;font-family:Lello" x="-471.24011" y="-946.41162" id="text2171"><tspan sodipodi:role="line" id="tspan2173" x="-471.24011" y="-946.41162"/></text>
</svg>