<?xml version="1.0" encoding="UTF-8" standalone="no"?>
<!-- Created with Inkscape (http://www.inkscape.org/) -->

<svg
   xmlns:dc="http://purl.org/dc/elements/1.1/"
   xmlns:cc="http://creativecommons.org/ns#"
   xmlns:rdf="http://www.w3.org/1999/02/22-rdf-syntax-ns#"
   xmlns:svg="http://www.w3.org/2000/svg"
   xmlns="http://www.w3.org/2000/svg"
   xmlns:xlink="http://www.w3.org/1999/xlink"
   xmlns:sodipodi="http://sodipodi.sourceforge.net/DTD/sodipodi-0.dtd"
   xmlns:inkscape="http://www.inkscape.org/namespaces/inkscape"
   version="1.0"
   width="370"
   height="350"
   id="svg2047"
   sodipodi:version="0.32"
   inkscape:version="0.48.4 r"
   sodipodi:docname="Wiktionary-logo.svg"
   inkscape:output_extension="org.inkscape.output.svg.inkscape">
  <metadata
     id="metadata6181">
    <rdf:RDF>
      <cc:Work
         rdf:about="">
        <dc:format>image/svg+xml</dc:format>
        <dc:type
           rdf:resource="http://purl.org/dc/dcmitype/StillImage" />
        <dc:title></dc:title>
      </cc:Work>
    </rdf:RDF>
  </metadata>
  <sodipodi:namedview
     inkscape:window-height="852"
     inkscape:window-width="1440"
     inkscape:pageshadow="2"
     inkscape:pageopacity="0.0"
     guidetolerance="10.0"
     gridtolerance="10.0"
     objecttolerance="10.0"
     borderopacity="1.0"
     bordercolor="#666666"
     pagecolor="#ffffff"
     id="base"
     inkscape:zoom="1.0771429"
     inkscape:cx="16.034489"
     inkscape:cy="175"
     inkscape:window-x="0"
     inkscape:window-y="0"
     inkscape:current-layer="g1952"
     showgrid="false"
     inkscape:window-maximized="1" />
  <defs
     id="defs3">
    <linearGradient
       id="linearGradient3525">
      <stop
         style="stop-color:#006;stop-opacity:1"
         offset="0"
         id="stop3527" />
      <stop
         style="stop-color:#00004f;stop-opacity:1"
         offset="1"
         id="stop3529" />
    </linearGradient>
    <linearGradient
       id="linearGradient3446">
      <stop
         style="stop-color:#f4e3ca;stop-opacity:1"
         offset="0"
         id="stop3448" />
      <stop
         style="stop-color:#e9cc9d;stop-opacity:1"
         offset="1"
         id="stop3450" />
    </linearGradient>
    <linearGradient
       id="linearGradient3033">
      <stop
         style="stop-color:#557567;stop-opacity:1"
         offset="0"
         id="stop3035" />
      <stop
         style="stop-color:#002d17;stop-opacity:1"
         offset="1"
         id="stop3037" />
    </linearGradient>
    <linearGradient
       id="linearGradient3025">
      <stop
         style="stop-color:#4aaf6d;stop-opacity:1"
         offset="0"
         id="stop3027" />
      <stop
         style="stop-color:#6af297;stop-opacity:1"
         offset="1"
         id="stop3029" />
    </linearGradient>
    <linearGradient
       id="linearGradient2959">
      <stop
         style="stop-color:#5500af;stop-opacity:1"
         offset="0"
         id="stop2961" />
      <stop
         style="stop-color:#000052;stop-opacity:1"
         offset="1"
         id="stop2963" />
    </linearGradient>
    <linearGradient
       id="linearGradient2951">
      <stop
         style="stop-color:#4aafff;stop-opacity:1"
         offset="0"
         id="stop2953" />
      <stop
         style="stop-color:#7fe5e5;stop-opacity:1"
         offset="1"
         id="stop2955" />
    </linearGradient>
    <linearGradient
       id="linearGradient2925">
      <stop
         style="stop-color:#fa2f52;stop-opacity:1"
         offset="0"
         id="stop2927" />
      <stop
         style="stop-color:#f57d5a;stop-opacity:1"
         offset="1"
         id="stop2929" />
    </linearGradient>
    <linearGradient
       id="linearGradient2917">
      <stop
         style="stop-color:#d40000;stop-opacity:1"
         offset="0"
         id="stop2919" />
      <stop
         style="stop-color:#570000;stop-opacity:1"
         offset="1"
         id="stop2921" />
    </linearGradient>
    <linearGradient
       id="linearGradient1977">
      <stop
         style="stop-color:#efefbd;stop-opacity:1"
         offset="0"
         id="stop1979" />
      <stop
         style="stop-color:#d2c595;stop-opacity:1"
         offset="1"
         id="stop1981" />
    </linearGradient>
    <linearGradient
       x1="27.14286"
       y1="122.6041"
       x2="171.42857"
       y2="125.82186"
       id="linearGradient2923"
       xlink:href="#linearGradient2917"
       gradientUnits="userSpaceOnUse" />
    <linearGradient
       x1="52.857136"
       y1="62.271225"
       x2="131.42856"
       y2="150.75945"
       id="linearGradient2931"
       xlink:href="#linearGradient2925"
       gradientUnits="userSpaceOnUse" />
    <linearGradient
       x1="27.14286"
       y1="122.6041"
       x2="171.42857"
       y2="125.82186"
       id="linearGradient2947"
       xlink:href="#linearGradient2917"
       gradientUnits="userSpaceOnUse" />
    <linearGradient
       x1="52.857136"
       y1="62.271225"
       x2="131.42856"
       y2="150.75945"
       id="linearGradient2949"
       xlink:href="#linearGradient2951"
       gradientUnits="userSpaceOnUse" />
    <linearGradient
       x1="27.14286"
       y1="122.6041"
       x2="171.42857"
       y2="125.82186"
       id="linearGradient2965"
       xlink:href="#linearGradient2959"
       gradientUnits="userSpaceOnUse" />
    <linearGradient
       x1="27.14286"
       y1="122.6041"
       x2="171.42857"
       y2="125.82186"
       id="linearGradient2971"
       xlink:href="#linearGradient2959"
       gradientUnits="userSpaceOnUse" />
    <linearGradient
       x1="52.857136"
       y1="62.271225"
       x2="131.42856"
       y2="150.75945"
       id="linearGradient2973"
       xlink:href="#linearGradient2951"
       gradientUnits="userSpaceOnUse" />
    <linearGradient
       x1="27.14286"
       y1="122.6041"
       x2="171.42857"
       y2="125.82186"
       id="linearGradient3019"
       xlink:href="#linearGradient2959"
       gradientUnits="userSpaceOnUse" />
    <linearGradient
       x1="52.857136"
       y1="62.271225"
       x2="131.42856"
       y2="150.75945"
       id="linearGradient3021"
       xlink:href="#linearGradient2951"
       gradientUnits="userSpaceOnUse" />
    <linearGradient
       x1="366.08591"
       y1="184.23257"
       x2="270.37161"
       y2="86.036026"
       id="linearGradient3071"
       xlink:href="#linearGradient3525"
       gradientUnits="userSpaceOnUse"
       gradientTransform="matrix(0.485989,0.460262,-0.482828,0.469608,235.2216,-80.23556)" />
    <linearGradient
       x1="173.22878"
       y1="524.23254"
       x2="114.65734"
       y2="451.37543"
       id="linearGradient3087"
       xlink:href="#linearGradient3525"
       gradientUnits="userSpaceOnUse"
       gradientTransform="matrix(0.57853,0.353675,-0.35104,0.582872,520.7052,-207.5038)" />
    <linearGradient
       x1="196.08591"
       y1="365.66113"
       x2="95.290253"
       y2="255.5688"
       id="linearGradient3101"
       xlink:href="#linearGradient3525"
       gradientUnits="userSpaceOnUse"
       gradientTransform="matrix(0.620715,0.136186,-0.132947,0.605953,365.14,10.09319)" />
    <linearGradient
       x1="370.37161"
       y1="344.23257"
       x2="283.22876"
       y2="259.17615"
       id="linearGradient3103"
       xlink:href="#linearGradient2917"
       gradientUnits="userSpaceOnUse"
       gradientTransform="matrix(0.620931,0.304009,-0.292008,0.644049,194.0425,-60.61792)" />
    <linearGradient
       x1="536.08594"
       y1="521.37543"
       x2="439.24854"
       y2="434.30499"
       id="linearGradient3117"
       xlink:href="#linearGradient3525"
       gradientUnits="userSpaceOnUse"
       gradientTransform="matrix(0.492397,0.571556,-0.503799,0.505374,233.6223,-190.7188)" />
    <linearGradient
       x1="533.22876"
       y1="185.66115"
       x2="454.65735"
       y2="89.025398"
       id="linearGradient3125"
       xlink:href="#linearGradient3525"
       gradientUnits="userSpaceOnUse"
       gradientTransform="matrix(0.660096,5.941423e-2,-6.000381e-2,0.653611,-116.4365,105.7272)" />
    <linearGradient
       x1="715.71844"
       y1="299.56409"
       x2="650.84174"
       y2="230.34946"
       id="linearGradient3452"
       xlink:href="#linearGradient3446"
       gradientUnits="userSpaceOnUse"
       gradientTransform="translate(-476.4724,-112.8383)" />
    <linearGradient
       x1="791.06329"
       y1="-355.92725"
       x2="723.2616"
       y2="-358.38074"
       id="linearGradient3460"
       xlink:href="#linearGradient3446"
       gradientUnits="userSpaceOnUse"
       gradientTransform="translate(-419.3421,258.595)" />
    <linearGradient
       x1="175.47467"
       y1="955.26855"
       x2="218.35574"
       y2="880.65918"
       id="linearGradient3474"
       xlink:href="#linearGradient3446"
       gradientUnits="userSpaceOnUse"
       gradientTransform="translate(-137.3612,-469.7778)" />
    <linearGradient
       x1="758.90216"
       y1="200.78854"
       x2="693.67474"
       y2="145.09717"
       id="linearGradient3482"
       xlink:href="#linearGradient3446"
       gradientUnits="userSpaceOnUse"
       gradientTransform="translate(-490.353,22.1016)" />
    <linearGradient
       x1="870.85938"
       y1="-140.09358"
       x2="795.29053"
       y2="-169.7764"
       id="linearGradient3490"
       xlink:href="#linearGradient3446"
       gradientUnits="userSpaceOnUse"
       gradientTransform="translate(-450.4099,198.7519)" />
    <linearGradient
       x1="965.19623"
       y1="159.7126"
       x2="901.40399"
       y2="103.7599"
       id="linearGradient3498"
       xlink:href="#linearGradient3446"
       gradientUnits="userSpaceOnUse"
       gradientTransform="translate(-490.3612,21.8953)" />
    <linearGradient
       x1="412.31854"
       y1="743.88672"
       x2="388.38828"
       y2="683.20331"
       id="linearGradient3506"
       xlink:href="#linearGradient3446"
       gradientUnits="userSpaceOnUse"
       gradientTransform="translate(-379.7777,-307.2103)" />
    <linearGradient
       x1="805.99457"
       y1="514.12738"
       x2="741.84326"
       y2="450.75146"
       id="linearGradient3514"
       xlink:href="#linearGradient3446"
       gradientUnits="userSpaceOnUse"
       gradientTransform="translate(-476.4724,-112.8383)" />
    <linearGradient
       x1="974.9718"
       y1="357.18353"
       x2="909.49103"
       y2="305.17203"
       id="linearGradient3522"
       xlink:href="#linearGradient3446"
       gradientUnits="userSpaceOnUse"
       gradientTransform="translate(-489.4263,-30.47642)" />
    <linearGradient
       x1="904.65735"
       y1="359.94687"
       x2="947.51447"
       y2="414.23257"
       id="linearGradient3531"
       xlink:href="#linearGradient3525"
       gradientUnits="userSpaceOnUse"
       gradientTransform="matrix(0.868057,-4.019387e-2,4.019387e-2,0.868057,-383.372,26.04062)" />
    <linearGradient
       x1="1090.1083"
       y1="429.67673"
       x2="897.16919"
       y2="230.67667"
       id="linearGradient3106"
       xlink:href="#linearGradient3525"
       gradientUnits="userSpaceOnUse"
       gradientTransform="matrix(0.279104,0,0,0.294448,61.36618,240.5454)" />
    <linearGradient
       x1="-190.76511"
       y1="284.21475"
       x2="-514.01392"
       y2="-144.08994"
       id="linearGradient4929"
       xlink:href="#linearGradient3525"
       gradientUnits="userSpaceOnUse"
       gradientTransform="matrix(0.110956,-3.855391e-2,3.807676e-2,0.115717,257.0759,100.5169)" />
    <linearGradient
       x1="715.71844"
       y1="299.56409"
       x2="650.84174"
       y2="230.34946"
       id="linearGradient1981"
       xlink:href="#linearGradient3446"
       gradientUnits="userSpaceOnUse"
       gradientTransform="translate(-476.4724,-112.8383)" />
    <linearGradient
       x1="791.06329"
       y1="-355.92725"
       x2="723.2616"
       y2="-358.38074"
       id="linearGradient1983"
       xlink:href="#linearGradient3446"
       gradientUnits="userSpaceOnUse"
       gradientTransform="translate(-419.3421,258.595)" />
    <linearGradient
       x1="175.47467"
       y1="955.26855"
       x2="218.35574"
       y2="880.65918"
       id="linearGradient1985"
       xlink:href="#linearGradient3446"
       gradientUnits="userSpaceOnUse"
       gradientTransform="translate(-137.3612,-469.7778)" />
    <linearGradient
       x1="758.90216"
       y1="200.78854"
       x2="693.67474"
       y2="145.09717"
       id="linearGradient1987"
       xlink:href="#linearGradient3446"
       gradientUnits="userSpaceOnUse"
       gradientTransform="translate(-490.353,22.1016)" />
    <linearGradient
       x1="870.85938"
       y1="-140.09358"
       x2="795.29053"
       y2="-169.7764"
       id="linearGradient1989"
       xlink:href="#linearGradient3446"
       gradientUnits="userSpaceOnUse"
       gradientTransform="translate(-450.4099,198.7519)" />
    <linearGradient
       x1="965.19623"
       y1="159.7126"
       x2="901.40399"
       y2="103.7599"
       id="linearGradient1991"
       xlink:href="#linearGradient3446"
       gradientUnits="userSpaceOnUse"
       gradientTransform="translate(-490.3612,21.8953)" />
    <linearGradient
       x1="412.31854"
       y1="743.88672"
       x2="388.38828"
       y2="683.20331"
       id="linearGradient1993"
       xlink:href="#linearGradient3446"
       gradientUnits="userSpaceOnUse"
       gradientTransform="translate(-379.7777,-307.2103)" />
    <linearGradient
       x1="805.99457"
       y1="514.12738"
       x2="741.84326"
       y2="450.75146"
       id="linearGradient1995"
       xlink:href="#linearGradient3446"
       gradientUnits="userSpaceOnUse"
       gradientTransform="translate(-476.4724,-112.8383)" />
    <linearGradient
       x1="974.9718"
       y1="357.18353"
       x2="909.49103"
       y2="305.17203"
       id="linearGradient1997"
       xlink:href="#linearGradient3446"
       gradientUnits="userSpaceOnUse"
       gradientTransform="translate(-489.4263,-30.47642)" />
    <linearGradient
       x1="904.65735"
       y1="359.94687"
       x2="947.51447"
       y2="414.23257"
       id="linearGradient1999"
       xlink:href="#linearGradient3525"
       gradientUnits="userSpaceOnUse"
       gradientTransform="matrix(0.868057,-4.019387e-2,4.019387e-2,0.868057,-383.372,26.04062)" />
    <linearGradient
       x1="536.08594"
       y1="521.37543"
       x2="439.24854"
       y2="434.30499"
       id="linearGradient2001"
       xlink:href="#linearGradient3525"
       gradientUnits="userSpaceOnUse"
       gradientTransform="matrix(0.492397,0.571556,-0.503799,0.505374,233.6223,-190.7188)" />
    <linearGradient
       x1="366.08591"
       y1="184.23257"
       x2="270.37161"
       y2="86.036026"
       id="linearGradient2003"
       xlink:href="#linearGradient3525"
       gradientUnits="userSpaceOnUse"
       gradientTransform="matrix(0.485989,0.460262,-0.482828,0.469608,235.2216,-80.23556)" />
    <linearGradient
       x1="173.22878"
       y1="524.23254"
       x2="114.65734"
       y2="451.37543"
       id="linearGradient2005"
       xlink:href="#linearGradient3525"
       gradientUnits="userSpaceOnUse"
       gradientTransform="matrix(0.57853,0.353675,-0.35104,0.582872,520.7052,-207.5038)" />
    <linearGradient
       x1="370.37161"
       y1="344.23257"
       x2="283.22876"
       y2="259.17615"
       id="linearGradient2007"
       xlink:href="#linearGradient3525"
       gradientUnits="userSpaceOnUse"
       gradientTransform="matrix(0.620931,0.304009,-0.292008,0.644049,194.0425,-60.61792)" />
    <linearGradient
       x1="196.08591"
       y1="365.66113"
       x2="95.290253"
       y2="255.5688"
       id="linearGradient2009"
       xlink:href="#linearGradient3525"
       gradientUnits="userSpaceOnUse"
       gradientTransform="matrix(0.620715,0.136186,-0.132947,0.605953,365.14,10.09319)" />
    <linearGradient
       x1="533.22876"
       y1="185.66115"
       x2="454.65735"
       y2="89.025398"
       id="linearGradient2011"
       xlink:href="#linearGradient3525"
       gradientUnits="userSpaceOnUse"
       gradientTransform="matrix(0.660096,5.941423e-2,-6.000381e-2,0.653611,-116.4365,105.7272)" />
    <linearGradient
       x1="1090.1083"
       y1="429.67673"
       x2="897.16919"
       y2="230.67667"
       id="linearGradient2013"
       xlink:href="#linearGradient3525"
       gradientUnits="userSpaceOnUse"
       gradientTransform="matrix(0.279104,0,0,0.294448,61.36618,240.5454)" />
    <linearGradient
       x1="-190.76511"
       y1="284.21475"
       x2="-514.01392"
       y2="-144.08994"
       id="linearGradient2015"
       xlink:href="#linearGradient3525"
       gradientUnits="userSpaceOnUse"
       gradientTransform="matrix(0.110956,-3.855391e-2,3.807676e-2,0.115717,257.0759,100.5169)" />
  </defs>
  <g
     transform="translate(-128.4431,-60.87543)"
     id="layer1">
    <g
       transform="translate(-7.311888,1.982351)"
       id="g1952">
      <rect
         width="89.876274"
         height="89.531746"
         rx="9.1593952"
         ry="12.278864"
         x="157.9026"
         y="113.38107"
         transform="matrix(0.993692,-0.112147,0.121212,0.992627,0,0)"
         style="opacity:1;fill:#e7c78d;fill-opacity:1;fill-rule:nonzero;stroke:black;stroke-width:1.08279371;stroke-linecap:round;stroke-linejoin:round;stroke-miterlimit:4;stroke-dasharray:none;stroke-dashoffset:0;stroke-opacity:1"
         id="rect2525" />
      <rect
         width="89.87632"
         height="89.531639"
         rx="9.1594009"
         ry="12.278854"
         x="296.33511"
         y="-142.43333"
         transform="matrix(0.780862,0.624704,-0.617551,0.786531,0,0)"
         style="opacity:1;fill:#e7c78d;fill-opacity:1;fill-rule:nonzero;stroke:black;stroke-width:1.08279395;stroke-linecap:round;stroke-linejoin:round;stroke-miterlimit:4;stroke-dasharray:none;stroke-dashoffset:0;stroke-opacity:1"
         id="rect3412" />
      <rect
         width="89.875908"
         height="89.531143"
         rx="9.1593494"
         ry="12.278783"
         x="4.3842111"
         y="408.65277"
         transform="matrix(0.400924,-0.916111,0.919732,0.392546,0,0)"
         style="opacity:1;fill:#e7c78d;fill-opacity:1;fill-rule:nonzero;stroke:black;stroke-width:1.08278763;stroke-linecap:round;stroke-linejoin:round;stroke-miterlimit:4;stroke-dasharray:none;stroke-dashoffset:0;stroke-opacity:1"
         id="rect3414" />
      <rect
         width="89.875633"
         height="89.531563"
         rx="9.1593246"
         ry="12.278835"
         x="186.71849"
         y="155.3264"
         transform="matrix(0.986464,0.163975,-0.154965,0.98792,0,0)"
         style="opacity:1;fill:#e7c78d;fill-opacity:1;fill-rule:nonzero;stroke:black;stroke-width:1.08278918;stroke-linecap:round;stroke-linejoin:round;stroke-miterlimit:4;stroke-dasharray:none;stroke-dashoffset:0;stroke-opacity:1"
         id="rect3416" />
      <rect
         width="89.87571"
         height="89.531258"
         rx="9.1593342"
         ry="12.278788"
         x="340.08557"
         y="5.9207983"
         transform="matrix(0.859397,0.511308,-0.503443,0.864028,0,0)"
         style="opacity:1;fill:#e7c78d;fill-opacity:1;fill-rule:nonzero;stroke:black;stroke-width:1.0827868;stroke-linecap:round;stroke-linejoin:round;stroke-miterlimit:4;stroke-dasharray:none;stroke-dashoffset:0;stroke-opacity:1"
         id="rect3418" />
      <rect
         width="89.875694"
         height="89.531532"
         rx="9.1593323"
         ry="12.278823"
         x="398.77051"
         y="113.79871"
         transform="matrix(0.986533,0.16356,-0.154549,0.987985,0,0)"
         style="opacity:1;fill:#e7c78d;fill-opacity:1;fill-rule:nonzero;stroke:black;stroke-width:1.0827893;stroke-linecap:round;stroke-linejoin:round;stroke-miterlimit:4;stroke-dasharray:none;stroke-dashoffset:0;stroke-opacity:1"
         id="rect3420" />
      <rect
         width="89.876167"
         height="89.531548"
         rx="9.1593819"
         ry="12.278833"
         x="-31.370306"
         y="367.33505"
         transform="matrix(0.848906,-0.528544,0.536269,0.844047,0,0)"
         style="opacity:1;fill:#e7c78d;fill-opacity:1;fill-rule:nonzero;stroke:black;stroke-width:1.08279181;stroke-linecap:round;stroke-linejoin:round;stroke-miterlimit:4;stroke-dasharray:none;stroke-dashoffset:0;stroke-opacity:1"
         id="rect3422" />
      <rect
         width="89.876335"
         height="89.531807"
         rx="9.1594028"
         ry="12.278873"
         x="247.75377"
         y="334.37372"
         transform="matrix(0.993692,-0.112147,0.121212,0.992627,0,0)"
         style="opacity:1;fill:#e7c78d;fill-opacity:1;fill-rule:nonzero;stroke:black;stroke-width:1.08279443;stroke-linecap:round;stroke-linejoin:round;stroke-miterlimit:4;stroke-dasharray:none;stroke-dashoffset:0;stroke-opacity:1"
         id="rect3424" />
      <rect
         width="89.876228"
         height="89.53167"
         rx="9.1593895"
         ry="12.278848"
         x="403.2547"
         y="264.06793"
         transform="matrix(0.998347,5.747685e-2,-4.836232e-2,0.99883,0,0)"
         style="opacity:1;fill:#e7c78d;fill-opacity:1;fill-rule:nonzero;stroke:black;stroke-width:1.08279252;stroke-linecap:round;stroke-linejoin:round;stroke-miterlimit:4;stroke-dasharray:none;stroke-dashoffset:0;stroke-opacity:1"
         id="rect3426" />
      <rect
         width="89.876335"
         height="89.531807"
         rx="9.1594028"
         ry="12.278873"
         x="159.51381"
         y="105.61226"
         transform="matrix(0.993692,-0.112147,0.121212,0.992627,0,0)"
         style="opacity:1;fill:url(#linearGradient1981);fill-opacity:1;fill-rule:nonzero;stroke:black;stroke-width:1.08279443;stroke-linecap:round;stroke-linejoin:round;stroke-miterlimit:4;stroke-dasharray:none;stroke-dashoffset:0;stroke-opacity:1"
         id="rect3428" />
      <rect
         width="89.876366"
         height="89.531654"
         rx="9.1594067"
         ry="12.278858"
         x="291.97964"
         y="-149.00807"
         transform="matrix(0.780862,0.624704,-0.617551,0.786531,0,0)"
         style="opacity:1;fill:url(#linearGradient1983);fill-opacity:1;fill-rule:nonzero;stroke:black;stroke-width:1.08279443;stroke-linecap:round;stroke-linejoin:round;stroke-miterlimit:4;stroke-dasharray:none;stroke-dashoffset:0;stroke-opacity:1"
         id="rect3430" />
      <rect
         width="89.875862"
         height="89.531082"
         rx="9.1593437"
         ry="12.278775"
         x="11.901784"
         y="406.09143"
         transform="matrix(0.400924,-0.916111,0.919732,0.392546,0,0)"
         style="opacity:1;fill:url(#linearGradient1985);fill-opacity:1;fill-rule:nonzero;stroke:black;stroke-width:1.08278692;stroke-linecap:round;stroke-linejoin:round;stroke-miterlimit:4;stroke-dasharray:none;stroke-dashoffset:0;stroke-opacity:1"
         id="rect3432" />
      <rect
         width="89.875542"
         height="89.531563"
         rx="9.1593151"
         ry="12.278835"
         x="186.14561"
         y="147.4326"
         transform="matrix(0.986464,0.163975,-0.154965,0.98792,0,0)"
         style="opacity:1;fill:url(#linearGradient1987);fill-opacity:1;fill-rule:nonzero;stroke:black;stroke-width:1.08278871;stroke-linecap:round;stroke-linejoin:round;stroke-miterlimit:4;stroke-dasharray:none;stroke-dashoffset:0;stroke-opacity:1"
         id="rect3434" />
      <rect
         width="89.875633"
         height="89.531197"
         rx="9.1593266"
         ry="12.278778"
         x="336.6806"
         y="-1.1987466"
         transform="matrix(0.859397,0.511308,-0.503443,0.864028,0,0)"
         style="opacity:1;fill:url(#linearGradient1989);fill-opacity:1;fill-rule:nonzero;stroke:black;stroke-width:1.08278584;stroke-linecap:round;stroke-linejoin:round;stroke-miterlimit:4;stroke-dasharray:none;stroke-dashoffset:0;stroke-opacity:1"
         id="rect3436" />
      <rect
         width="89.875618"
         height="89.531517"
         rx="9.1593246"
         ry="12.278819"
         x="398.20093"
         y="105.90461"
         transform="matrix(0.986533,0.16356,-0.154549,0.987985,0,0)"
         style="opacity:1;fill:url(#linearGradient1991);fill-opacity:1;fill-rule:nonzero;stroke:black;stroke-width:1.08278883;stroke-linecap:round;stroke-linejoin:round;stroke-miterlimit:4;stroke-dasharray:none;stroke-dashoffset:0;stroke-opacity:1"
         id="rect3438" />
      <rect
         width="89.876183"
         height="89.531532"
         rx="9.1593838"
         ry="12.278831"
         x="-26.581539"
         y="360.98306"
         transform="matrix(0.848906,-0.528544,0.536269,0.844047,0,0)"
         style="opacity:1;fill:url(#linearGradient1993);fill-opacity:1;fill-rule:nonzero;stroke:black;stroke-width:1.08279181;stroke-linecap:round;stroke-linejoin:round;stroke-miterlimit:4;stroke-dasharray:none;stroke-dashoffset:0;stroke-opacity:1"
         id="rect3440" />
      <rect
         width="89.876396"
         height="89.531868"
         rx="9.1594105"
         ry="12.278883"
         x="249.36504"
         y="326.60507"
         transform="matrix(0.993692,-0.112147,0.121212,0.992627,0,0)"
         style="opacity:1;fill:url(#linearGradient1995);fill-opacity:1;fill-rule:nonzero;stroke:black;stroke-width:1.08279514;stroke-linecap:round;stroke-linejoin:round;stroke-miterlimit:4;stroke-dasharray:none;stroke-dashoffset:0;stroke-opacity:1"
         id="rect3442" />
      <rect
         width="89.876259"
         height="89.5317"
         rx="9.1593933"
         ry="12.278852"
         x="403.53143"
         y="256.15054"
         transform="matrix(0.998347,5.747683e-2,-4.83623e-2,0.99883,0,0)"
         style="opacity:1;fill:url(#linearGradient1997);fill-opacity:1;fill-rule:nonzero;stroke:black;stroke-width:1.08279276;stroke-linecap:round;stroke-linejoin:round;stroke-miterlimit:4;stroke-dasharray:none;stroke-dashoffset:0;stroke-opacity:1"
         id="rect3444" />
      <path
         d="M 441.29356,356.86407 L 413.6507,355.23635 C 412.99683,349.56692 412.22921,344.47586 411.34772,339.96318 C 410.10869,333.49158 409.59705,328.25096 409.8129,324.24163 C 410.10526,318.81083 411.045,313.94836 412.63212,309.65407 C 408.58394,308.06292 406.65692,305.46308 406.85118,301.85463 C 407.03563,298.4285 408.02556,295.3971 409.82112,292.76052 L 411.15628,292.83914 C 411.41327,294.2072 411.87328,295.18493 412.53616,295.77231 C 413.19903,296.35997 414.62119,296.97376 416.80247,297.6141 C 420.05792,298.57366 421.55423,301.49551 421.29129,306.37956 C 421.22458,307.6188 421.07264,308.59721 420.83562,309.31439 C 418.6846,309.95572 416.71887,310.22383 414.93867,310.119 C 413.97827,313.82856 413.37353,317.99777 413.12433,322.62666 C 412.80448,328.56788 414.33398,335.78799 417.71273,344.28685 L 419.2486,344.32255 C 424.22266,335.47437 428.79588,324.24429 432.96816,310.63216 C 428.9705,308.71486 427.06978,305.93381 427.26601,302.28888 C 427.43475,299.15437 428.42745,296.37906 430.24422,293.96312 L 431.57938,294.04173 C 431.86506,296.10617 432.7224,297.38153 434.15143,297.86783 L 437.22556,298.8167 C 440.5101,299.85112 442.03945,302.46411 441.81394,306.65567 C 441.73331,308.15005 441.51537,309.43525 441.15989,310.51116 C 439.64884,310.93421 437.78891,311.08066 435.58016,310.95046 C 432.43459,323.30685 428.24253,334.52278 423.00398,344.59843 L 438.7292,345.52439 C 440.54389,340.07363 445.16641,332.22854 452.59651,321.98929 C 454.48702,319.43146 455.48228,317.2231 455.58236,315.36416 C 455.6844,313.4689 454.86298,312.14076 453.11807,311.37993 L 452.48698,311.12341 C 449.25693,309.69004 447.72433,307.44242 447.8893,304.38072 C 448.07558,300.91826 449.19944,297.85815 451.26066,295.20064 L 452.54634,295.27636 C 452.68298,297.03946 453.46078,298.25528 454.87999,298.92391 L 457.59333,300.12578 C 460.66038,301.51299 462.09194,304.1019 461.88784,307.89257 C 461.71126,311.17295 459.9481,315.35628 456.59868,320.44243 C 453.2493,325.52885 450.23484,331.14664 447.55579,337.2962 C 444.87659,343.44576 442.78923,349.96843 441.29356,356.86407 L 441.29356,356.86407 z "
         style="font-size:8.35136795px;font-style:normal;font-variant:normal;font-weight:normal;font-stretch:normal;text-align:start;line-height:125%;writing-mode:lr-tb;text-anchor:start;fill:url(#linearGradient1999);fill-opacity:1;stroke:black;stroke-width:0.83784765;stroke-miterlimit:4;stroke-opacity:1;font-family:Times New Roman"
         id="flowRoot2762" />
      <path
         d="M 204.05937,338.41602 L 205.31384,337.57735 C 207.0162,340.21388 208.49631,341.63181 209.75419,341.83115 C 211.01214,342.03042 213.15552,341.11757 216.1843,339.09278 L 230.25461,329.68607 L 229.75536,328.77151 C 229.28573,327.98572 228.74036,327.44375 228.11933,327.14566 C 227.49826,326.84751 226.8358,326.71826 226.13195,326.75784 C 225.42802,326.79747 221.86348,327.21149 215.43839,327.99977 L 199.07129,330.07002 L 192.503,319.08003 L 193.75746,318.24137 C 196.1558,321.03677 198.84526,322.4934 201.82587,322.6109 C 204.80654,322.72848 210.77736,322.31814 219.73852,321.37999 C 223.01171,321.03438 225.46353,321.19347 227.09393,321.85704 C 227.32688,319.918 227.919,318.16971 228.87049,316.61227 C 229.82185,315.05481 231.90642,312.44256 235.12429,308.77549 C 237.65526,305.8648 239.15787,303.94622 239.63232,303.01972 C 240.1067,302.09327 240.12182,301.25838 239.67764,300.51517 C 239.25875,299.8143 238.3739,299.12778 237.0232,298.45556 C 235.72033,297.81083 234.84045,297.10612 234.38359,296.34154 C 233.85043,295.44963 233.69197,294.52274 233.90797,293.56097 C 234.12398,292.5992 234.6502,291.83872 235.48652,291.27959 C 236.50362,290.59961 237.67992,290.43737 239.0154,290.79286 C 240.35091,291.14836 241.539,292.19683 242.57984,293.93818 C 243.59513,295.63713 244.04246,297.47067 243.9218,299.43872 C 243.80095,301.40679 243.29035,303.09313 242.38997,304.49756 C 241.48942,305.90212 239.56455,308.31838 236.61528,311.74662 C 233.94145,314.84192 232.19994,317.00931 231.39076,318.24881 C 230.58145,319.48827 230.16466,320.7626 230.14043,322.07174 C 230.11622,323.38087 230.5356,324.75741 231.39873,326.20157 C 231.69062,326.68996 232.14551,327.29241 232.76353,328.00874 L 245.40977,319.55409 C 248.43845,317.52915 250.13764,315.87308 250.50712,314.58577 C 250.87651,313.29853 250.30049,311.27616 248.77907,308.51866 L 250.03353,307.67999 L 261.15196,326.28324 L 259.89751,327.12192 C 258.20779,324.50655 256.73721,323.10456 255.48568,322.91585 C 254.23407,322.7272 252.09384,323.6453 249.06515,325.67024 L 236.41892,334.12487 C 236.63856,334.81014 236.9008,335.40757 237.20543,335.91729 C 238.15736,337.51004 239.19435,338.57031 240.31648,339.09818 C 241.43861,339.62606 242.68566,339.7806 244.05757,339.56192 C 245.42944,339.34315 248.05098,338.6085 251.9222,337.35795 C 256.08001,336.0048 258.94619,335.20324 260.52086,334.9531 C 262.09527,334.7029 263.76016,334.93472 265.51559,335.64861 C 267.27077,336.36246 268.66242,337.57942 269.69062,339.2996 C 270.68051,340.95606 271.07053,342.50835 270.86057,343.95664 C 270.65043,345.40483 270.0029,346.49153 268.9181,347.21689 C 268.08172,347.77594 267.20965,347.95773 266.30196,347.76217 C 265.39419,347.56648 264.66734,347.01212 264.1217,346.09895 C 263.69003,345.37688 263.46569,344.23402 263.44859,342.67022 C 263.44121,341.07007 263.22183,339.90904 262.79029,339.187 C 262.37146,338.48619 261.63883,338.17351 260.59257,338.24881 C 259.54614,338.32423 257.28861,338.92692 253.82009,340.05706 C 249.27229,341.55189 246.13812,342.42119 244.41749,342.66505 C 242.69669,342.90881 240.9584,342.72609 239.2024,342.11677 C 239.0106,343.70139 238.57848,345.20145 237.90608,346.61702 C 237.23359,348.03244 235.32305,351.53146 232.17453,357.11399 C 229.15321,362.43295 227.45715,366.14519 227.08638,368.25083 C 226.71562,370.35624 227.01632,372.77814 227.98862,375.5165 L 226.73415,376.35518 L 220.16591,365.36528 C 220.60123,364.7175 222.89002,360.89871 227.03228,353.9089 L 233.86061,342.38885 C 234.29319,341.68352 234.66589,340.82507 234.9787,339.81344 C 235.29143,338.80187 235.11149,337.73332 234.43881,336.60781 C 234.29916,336.37414 234.12286,336.10563 233.90999,335.80221 L 219.83968,345.20892 C 216.81089,347.23371 215.10859,348.88454 214.73275,350.16122 C 214.35701,351.43784 214.92349,353.44429 216.43229,356.1806 L 215.17781,357.01926 L 204.05937,338.41602 z "
         style="font-size:8.35136795px;font-style:normal;font-variant:normal;font-weight:normal;font-stretch:normal;text-align:start;line-height:125%;writing-mode:lr-tb;text-anchor:start;fill:url(#linearGradient2001);fill-opacity:1;stroke:black;stroke-width:0.73623741;stroke-miterlimit:4;stroke-opacity:1;font-family:Times New Roman"
         id="flowRoot3743" />
      <path
         d="M 367.54967,135.55627 L 357.37718,127.11626 L 321.59175,166.77454 L 314.67916,161.03922 L 350.46459,121.38095 L 345.55508,117.30758 L 350.49099,111.83747 L 372.48559,130.08617 L 367.54967,135.55627 z M 333.47448,121.33359 C 329.64909,125.57293 325.10959,128.19344 319.85599,129.19514 C 314.6023,130.19683 309.33012,129.51919 304.03946,127.1622 L 305.85547,150.19105 L 297.00836,150.02474 L 293.65772,108.98317 L 302.53566,109.11529 L 303.23279,117.70471 C 303.26646,117.97182 303.61062,118.37693 304.26525,118.92003 C 307.48585,121.59217 311.50748,122.43788 316.33013,121.45719 C 320.67587,120.599 324.165,118.7112 326.79755,115.79382 C 328.83356,113.53741 329.87653,110.65631 329.92649,107.15052 C 329.98937,103.37661 328.7509,100.43599 326.2111,98.32867 C 324.53527,96.938331 322.80255,96.118475 321.01296,95.869109 C 319.01007,95.602355 317.36081,96.186924 316.06517,97.622795 C 314.21416,99.67411 314.66334,101.84029 317.41272,104.12136 C 318.04108,104.64277 318.79103,105.10558 319.66258,105.5098 L 315.03515,110.63801 C 313.77837,110.15332 312.31212,109.21576 310.63638,107.82537 C 307.96557,105.60947 306.58973,102.97335 306.50882,99.917 C 306.40918,97.084334 307.40827,94.505591 309.50607,92.180769 C 312.20022,89.195031 315.71001,87.842522 320.03548,88.123191 C 324.09528,88.343046 327.84025,89.87592 331.27042,92.72181 C 336.32388,96.914696 338.97733,101.68693 339.23076,107.03853 C 339.42418,112.10133 337.50543,116.86635 333.47448,121.33359 L 333.47448,121.33359 z "
         style="font-size:147.8637085px;font-style:normal;font-weight:normal;fill:url(#linearGradient2003);fill-opacity:1;stroke:black;stroke-width:0.83894545;stroke-linecap:butt;stroke-linejoin:miter;stroke-miterlimit:4;stroke-opacity:1;font-family:Bitstream Vera Sans"
         id="text3751" />
      <path
         style="font-weight:normal;fill:url(#linearGradient2005);fill-opacity:1;stroke:black;stroke-width:0.838;stroke-miterlimit:4;stroke-opacity:1;font-family:UnBatang"
         d="M 425.16275,85.74398 C 425.82845,86.142739 427.44648,87.519918 430.01694,89.875396 C 430.85926,90.651961 431.65728,91.265942 432.411,91.717339 C 434.58396,93.019048 437.95406,94.901814 442.52131,97.365624 L 448.15889,99.823954 C 451.74986,101.97505 453.16208,103.60358 452.39552,104.70959 C 452.09552,105.14234 451.21871,105.77333 449.765,106.60267 L 448.66517,107.37309 L 438.02778,117.83436 C 437.49317,118.33209 437.52581,119.09996 438.12566,120.13805 C 438.68948,121.22522 438.78842,122.03281 438.42244,122.5609 C 437.58973,123.76222 434.86774,122.98183 430.25652,120.21967 L 429.07573,119.61507 L 422.42381,116.03848 C 418.86471,114.11205 417.08518,113.14881 417.0852,113.14882 C 416.81998,112.98996 416.11055,113.38084 414.95695,114.32142 L 413.42423,115.44286 L 412.42795,115.66192 L 411.91084,115.45488 C 410.89192,114.84462 412.33144,111.45553 416.22939,105.2876 C 416.38396,104.97341 416.51164,104.74363 416.6123,104.59841 L 421.11036,96.886444 C 422.35528,94.910774 423.03907,93.653491 423.1618,93.114553 C 423.76129,91.161155 423.27432,89.237862 421.70097,87.344548 C 420.77085,86.241524 420.42807,85.423825 420.67261,84.891451 C 421.27246,84.026025 422.76917,84.310203 425.16275,85.74398 L 425.16275,85.74398 z M 418.42,110.27409 L 429.27764,116.47275 C 431.35078,117.37422 433.0473,117.37012 434.36712,116.46057 C 435.38853,115.71069 437.60983,112.95901 441.03093,108.20565 C 442.09638,106.66844 443.03476,105.36018 443.84607,104.2809 C 444.45562,103.48982 444.60023,102.82811 444.27995,102.29572 C 444.12406,102.06749 443.8466,101.83378 443.44747,101.5947 L 429.5146,93.451154 L 418.42,110.27409 z M 414.96544,122.18262 L 418.02516,124.42339 C 421.75929,127.00061 424.02551,128.52833 424.82389,129.00648 L 432.3395,133.5084 L 440.08615,137.94634 L 440.22011,138.02658 L 443.48089,139.16092 L 443.54787,139.20104 C 446.5178,140.98006 447.6693,142.35072 447.00241,143.31296 C 446.73596,143.69728 445.97604,144.15961 444.72267,144.69997 C 444.34505,144.88276 444.06804,145.05727 443.89161,145.22351 C 440.73811,148.23153 439.05639,149.84284 438.8464,150.0575 C 438.7229,150.32398 438.87155,150.78774 439.29239,151.44872 C 439.5694,151.9551 439.63551,152.40258 439.49068,152.79121 C 439.43562,152.9617 439.37457,153.09536 439.30754,153.19219 C 439.10821,153.47965 438.72561,153.62416 438.15976,153.62566 C 437.26152,153.56504 434.51773,152.22767 429.92839,149.61355 L 415.96271,141.24798 C 414.54467,140.39856 413.36899,140.64714 412.43568,141.99371 L 409.98794,145.52516 C 408.62147,147.49655 409.4232,149.37184 412.39321,151.15091 L 420.00948,155.50761 L 420.1414,155.58663 C 423.911,157.84466 425.9452,159.0289 426.24402,159.13936 C 426.51052,159.29899 426.79269,159.43477 427.09046,159.54673 L 432.49667,161.25316 C 432.79674,161.36437 433.0794,161.49942 433.34465,161.65831 C 436.93699,163.81015 438.23345,165.60707 437.23408,167.04902 C 436.43386,168.2034 435.08059,168.20955 433.17413,167.06765 L 411.64254,154.27274 C 411.15405,153.98013 410.66627,153.68795 410.1792,153.39619 C 406.36622,151.11218 404.43826,148.86854 404.39528,146.66524 C 404.36436,145.35336 404.89839,143.90468 405.9975,142.31901 L 408.39643,138.85798 C 409.3287,137.51291 409.08022,136.10608 407.65099,134.63751 L 406.18736,132.94502 C 406.02279,132.64093 406.04015,132.34515 406.23948,132.05761 C 406.73966,131.33595 408.11422,131.6154 410.36309,132.89609 C 410.58497,133.029 410.74057,133.12221 410.82989,133.17571 L 416.13132,137.88019 C 416.39785,138.03985 416.64207,138.18614 416.864,138.31908 C 420.05586,140.23103 424.9219,143.0773 431.4621,146.85796 C 433.50248,148.08016 435.22195,148.0899 436.62063,146.88706 C 437.15272,146.39003 437.76856,145.6369 438.46811,144.62773 C 439.43392,143.23422 439.92203,142.43884 439.93243,142.2416 C 440.05506,141.70268 439.80654,141.24764 439.18688,140.87646 L 423.22524,131.72317 C 423.04656,131.61622 421.82687,131.15753 419.56612,130.34716 C 419.10085,130.2034 418.71328,130.03875 418.40349,129.8531 C 417.33856,129.21528 416.12475,127.70662 414.76199,125.32717 L 413.86673,123.36167 C 413.74503,122.81339 413.76755,122.419 413.93432,122.17845 C 414.13461,121.88944 414.47831,121.89083 414.96544,122.18262 L 414.96544,122.18262 z M 456.73272,128.32574 C 452.90166,133.85284 449.88196,136.80607 447.67361,137.18541 L 446.64204,137.17774 L 446.44314,137.05859 C 445.64474,136.58043 446.70632,134.18968 449.62782,129.88641 L 463.52119,109.84194 L 464.65291,108.07242 L 464.70326,107.99978 C 465.75756,106.38744 465.44919,103.89014 463.77803,100.50808 C 462.58233,98.158214 462.06214,96.690324 462.21742,96.104484 C 462.61692,95.528034 463.50404,95.651544 464.87884,96.474974 C 466.78523,97.617004 468.77994,99.627614 470.8629,102.50691 C 471.91616,103.88522 472.45823,104.95825 472.48907,105.72607 C 472.52274,106.22163 472.28392,106.79272 471.77269,107.43922 C 469.20862,110.59693 467.90985,112.19998 467.87638,112.24837 L 458.43165,125.87463 C 459.45041,126.48497 461.54556,127.26357 464.71711,128.21045 C 466.02444,128.58678 467.07733,129.014 467.87574,129.49217 C 471.28942,131.53708 472.53015,133.23209 471.59791,134.57718 C 470.69804,135.87534 467.96485,135.15669 463.39832,132.42129 L 457.99513,129.08194 L 456.73272,128.32574 z "
         id="flowRoot3949" />
      <path
         d="M 352.72259,230.14849 L 351.8682,231.53977 C 350.60751,230.76096 349.43849,230.36734 348.36109,230.35873 C 347.28361,230.35005 345.98788,230.77713 344.47386,231.63984 C 343.4592,232.22339 341.42461,233.85363 338.36979,236.53081 L 299.64399,269.29797 L 298.21685,268.41638 L 307.21257,229.00505 L 276.23867,254.83922 L 274.95424,254.04575 L 286.57693,202.82385 C 287.44626,199.00417 287.91522,196.71784 287.98398,195.96484 C 288.09322,194.71844 287.87991,193.60997 287.34413,192.6392 C 286.80831,191.66852 285.83864,190.74964 284.43533,189.88272 L 285.28972,188.49146 L 303.20045,199.55589 L 302.34604,200.94717 L 301.48983,200.41824 C 300.22911,199.63943 299.08101,199.34522 298.04557,199.53535 C 297.01006,199.7256 296.23066,200.24678 295.70733,201.09913 C 295.16844,201.97645 294.45245,204.31775 293.5594,208.1228 L 285.51287,242.6226 L 308.48088,223.25339 L 309.68618,218.08521 L 310.64581,213.95816 C 310.91603,212.39617 311.03435,210.94792 311.00095,209.61325 C 310.98422,208.94598 310.84995,208.30974 310.59816,207.70471 C 310.28063,206.88619 309.88605,206.19295 309.41466,205.62496 C 309.05506,205.19548 308.38765,204.6794 307.41244,204.07698 L 308.26683,202.68569 L 327.10525,214.32323 L 326.25086,215.7145 L 324.96644,214.92104 C 323.63441,214.09818 322.47442,213.79662 321.48657,214.01617 C 320.49857,214.23576 319.68907,214.85944 319.05802,215.88717 C 318.27279,217.1656 317.43789,219.72725 316.5532,223.57216 L 308.81109,257.0152 L 335.26575,234.61326 C 338.22119,232.15135 340.0683,230.31878 340.80739,229.11548 C 341.16134,228.53894 341.31985,227.89345 341.28292,227.17907 C 341.24591,226.46467 341.02729,225.84551 340.62723,225.32173 C 339.93885,224.41239 338.86918,223.50955 337.41834,222.61328 L 338.27273,221.22201 L 352.72259,230.14849 z "
         style="font-size:8.35136795000000021px;font-style:normal;font-variant:normal;font-weight:normal;font-stretch:normal;text-align:start;line-height:125%;writing-mode:lr-tb;text-anchor:start;fill:url(#linearGradient2007);fill-opacity:1.0;stroke:black;stroke-width:0.81462007999999997;stroke-miterlimit:4;stroke-opacity:1;font-family:Times New Roman"
         id="flowRoot3695" />
      <path
         d="M 445.04672,194.82991 L 440.2331,200.15032 L 435.53838,194.64016 L 440.24203,189.28503 L 445.04672,194.82991 z M 449.844,204.68224 L 445.02094,209.90604 L 440.25296,204.37264 L 444.95239,199.1568 L 449.844,204.68224 z M 440.18346,205.84977 L 435.42014,211.1393 L 430.62488,205.69103 L 435.31489,200.37847 L 440.18346,205.84977 z M 440.36344,244.22622 L 437.46671,243.31212 C 435.99991,242.84925 434.78542,242.20832 433.82314,241.38931 C 432.86073,240.57038 431.9687,239.46911 431.14694,238.08548 C 429.7748,238.83918 428.62639,239.27322 427.70156,239.38737 C 426.38907,239.5353 424.63276,239.26218 422.43265,238.5679 L 417.92247,237.14466 C 417.08643,239.75394 415.73528,242.12268 413.86909,244.25088 C 411.44878,247.01609 408.50862,248.88339 405.04878,249.85285 C 400.70102,251.07287 395.82593,250.83053 390.42344,249.12569 C 385.53433,247.58286 382.11217,245.40999 380.15713,242.60692 C 378.02122,239.52814 377.67568,235.7339 379.12061,231.22423 C 379.90212,228.7851 380.94946,226.39861 382.26255,224.06461 C 383.57562,221.73072 385.07648,219.44047 386.76534,217.19392 C 387.79388,215.83207 389.47704,213.77109 391.815,211.01103 L 393.03635,212.23966 C 390.01649,215.78397 387.85448,218.64631 386.55016,220.82683 C 385.24583,223.00737 384.28021,225.07615 383.65319,227.03308 C 382.52629,230.55014 382.75146,233.56463 384.32885,236.07667 C 385.9061,238.5888 388.69923,240.47735 392.70829,241.74248 C 397.40183,243.22359 401.89866,243.59643 406.19889,242.86103 C 411.54886,241.95716 414.90086,239.39224 416.25499,235.16626 C 417.16368,232.32992 417.57478,229.49278 417.48823,226.65474 C 417.4244,224.41731 417.04009,222.1724 416.3353,219.91996 L 422.17315,212.15879 C 422.65023,214.87033 422.82255,217.18883 422.6901,219.11458 C 422.49232,221.83165 421.69383,225.37412 420.29433,229.74201 L 424.80452,231.16527 C 427.12683,231.89809 428.90866,232.00753 430.15011,231.49359 C 431.23279,231.05453 432.01049,230.09761 432.48307,228.6227 C 432.74661,227.80017 432.9696,226.95714 433.15218,226.09343 C 433.33466,225.22968 433.49941,224.27452 433.64637,223.22782 L 435.93095,221.13803 L 435.19543,225.44995 C 434.84258,228.3992 434.92311,230.62626 435.43684,232.13132 C 436.00282,233.80897 437.20257,234.93715 439.03611,235.51564 C 439.59825,235.69314 440.09802,235.62443 440.53544,235.3096 C 440.97268,234.99474 441.29137,234.52538 441.49131,233.9014 C 441.94569,232.48323 442.05295,230.84628 441.81319,228.99046 C 441.63259,227.62179 441.26864,226.19525 440.72143,224.71088 L 444.66409,220.8489 C 445.11317,223.39538 445.33275,225.10434 445.32283,225.97556 C 445.28805,227.93211 444.72547,230.61219 443.63497,234.01565 L 440.36344,244.22622 z "
         style="font-size:8.35136795px;font-style:normal;font-variant:normal;font-weight:normal;font-stretch:normal;text-align:start;line-height:125%;writing-mode:lr-tb;text-anchor:start;fill:url(#linearGradient2009);fill-opacity:1;stroke:black;stroke-width:0.78484678;stroke-miterlimit:4;stroke-opacity:1;font-family:Times New Roman"
         id="flowRoot3683" />
      <path
         d="M 224.05397,250.96169 L 226.09485,251.38649 C 225.1102,256.02429 223.42037,259.19735 221.02536,260.90565 C 218.63024,262.61394 215.97764,263.16523 213.06754,262.55951 C 210.68646,262.0639 208.54791,260.89083 206.6519,259.0403 C 204.75579,257.18976 203.58347,253.0455 203.13492,246.60753 L 201.88623,228.50917 L 178.67346,254.75694 L 167.95881,252.52676 L 200.84088,216.98164 C 200.67129,211.46001 199.94741,207.24819 198.66925,204.34616 C 197.391,201.44423 195.41022,199.71399 192.72687,199.15541 C 190.57257,198.70707 188.55678,198.95413 186.67948,199.8966 C 184.80213,200.83919 183.48546,202.62635 182.72943,205.25812 L 180.68854,204.83332 C 181.71796,200.54206 183.56664,197.31778 186.23461,195.1605 C 188.90257,193.00334 191.82389,192.25512 194.99863,192.91586 C 197.03949,193.34072 198.83778,194.39699 200.39352,196.08467 C 201.94919,197.77247 203.06296,200.33372 203.73479,203.7684 C 204.40656,207.20318 205.1066,214.17622 205.83494,224.68756 L 206.89691,239.4828 C 207.2944,245.60365 208.18358,249.82689 209.56444,252.15254 C 210.94522,254.47819 212.88284,255.90061 215.37729,256.41983 C 219.61019,257.30087 222.50241,255.4815 224.05397,250.96169 L 224.05397,250.96169 z "
         style="font-size:158.52603149px;font-style:normal;font-weight:normal;fill:url(#linearGradient2011);fill-opacity:1;stroke:black;stroke-width:0.82444137;stroke-linecap:butt;stroke-linejoin:miter;stroke-miterlimit:4;stroke-opacity:1;font-family:Times New Roman"
         id="text3899" />
      <path
         d="M 336.95284,370.92012 C 336.88063,370.55574 335.93251,360.84997 334.84591,349.35173 C 333.75931,337.85351 332.79382,327.80683 332.70039,327.02577 L 332.5305,325.60568 L 331.73409,327.1421 C 330.02953,330.4305 328.08355,332.71538 326.98745,332.71538 C 326.56611,332.71538 326.15263,332.59804 326.06862,332.45464 C 325.9846,332.31122 326.40011,331.08558 326.99195,329.73098 C 330.52885,321.63589 333.15889,311.16104 333.16437,305.1476 C 333.16636,302.97033 333.4175,301.5038 333.78838,301.5038 C 334.4891,301.5038 341.53915,304.86699 341.53915,305.20127 C 341.53915,305.40967 341.03844,306.03232 340.4265,306.58493 C 339.43403,307.48115 339.20963,307.95185 338.34886,310.94297 C 337.81812,312.78727 337.43437,314.34953 337.49608,314.41463 C 337.55779,314.47975 341.85244,314.07409 347.03973,313.5132 L 356.47121,312.49338 L 358.54188,310.23753 C 359.68074,308.99681 360.69777,307.98167 360.80193,307.98167 C 361.1172,307.98167 365.62506,311.67496 366.47991,312.63364 C 366.91893,313.12602 367.22311,313.70312 367.15584,313.91608 C 367.06767,314.19511 364.98877,314.52121 359.71479,315.0833 C 355.68949,315.51231 352.35223,315.91184 352.29863,315.97116 C 352.24505,316.03048 352.4364,318.46405 352.72385,321.37909 C 353.0113,324.29414 353.24988,326.93021 353.254,327.23703 C 353.26084,327.7467 353.42429,327.77941 355.14547,327.61548 L 357.02942,327.43606 L 358.86502,325.31565 C 360.21411,323.75731 360.80597,323.26311 361.09786,323.45126 C 362.23987,324.18734 367.08941,328.43487 367.16432,328.76464 C 367.27309,329.24351 366.87247,329.31326 359.54135,330.09168 C 356.3177,330.43397 353.66253,330.7337 353.64096,330.75774 C 353.59744,330.80628 354.61199,341.15071 354.72686,341.82982 C 354.78154,342.15304 355.17534,342.24186 356.333,342.19209 C 357.85266,342.12675 357.88487,342.10597 359.84863,339.92357 C 360.93869,338.71216 362.00627,337.72254 362.22101,337.72441 C 362.67717,337.72838 368.61223,342.91391 368.61223,343.30849 C 368.61223,343.4552 368.51803,343.6345 368.40291,343.70694 C 368.28778,343.77938 365.30485,344.13542 361.77418,344.49816 C 358.24352,344.86089 355.27882,345.24008 355.18596,345.34079 C 354.97889,345.56541 356.12007,357.62307 356.37347,357.88772 C 356.47323,357.99192 357.72302,357.93956 359.1508,357.77139 L 361.74675,357.46562 L 363.99912,355.10176 C 365.23792,353.80164 366.40725,352.7379 366.59761,352.7379 C 367.02841,352.7379 373.63611,358.26382 373.63611,358.62409 C 373.63611,358.76846 373.52918,358.95629 373.39847,359.0415 C 373.2678,359.12671 366.27711,359.92862 357.86364,360.82351 C 349.45015,361.71841 342.50387,362.51659 342.42743,362.59724 C 342.35098,362.67788 342.42633,364.03695 342.59489,365.61739 L 342.90134,368.49091 L 342.0352,369.28855 C 341.25745,370.00476 338.03841,371.58263 337.35496,371.58263 C 337.20599,371.58263 337.02503,371.2845 336.95284,370.92012 z M 346.80366,359.07873 C 348.85486,358.84786 350.58019,358.60925 350.63777,358.54851 C 350.76197,358.4175 349.61415,346.16816 349.46109,345.99108 C 349.31487,345.82192 341.34866,346.60735 341.03439,346.82191 C 340.84605,346.95051 341.82068,358.87972 342.06504,359.43662 C 342.12417,359.5714 343.04352,359.50197 346.80366,359.07873 z M 345.7257,343.29556 C 347.49104,343.11238 348.99137,342.9056 349.05978,342.83605 C 349.24093,342.65185 348.22464,331.7211 348.00468,331.48803 C 347.7884,331.25886 339.80839,332.10155 339.55343,332.38049 C 339.45908,332.48371 339.60855,334.82068 339.88556,337.57379 C 340.16257,340.32688 340.39676,342.88919 340.40598,343.26781 C 340.42121,343.89407 340.51718,343.94142 341.46937,343.79241 C 342.04502,343.70232 343.96037,343.47875 345.7257,343.29556 z M 343.63243,328.87284 C 345.321,328.70191 346.95742,328.50761 347.26893,328.44106 L 347.83528,328.32005 L 347.27859,322.42038 C 346.75502,316.87192 346.68806,316.52103 346.154,316.52644 C 344.73076,316.54083 338.35157,317.41137 338.16705,317.61638 C 338.05353,317.74251 338.19725,320.23074 338.48642,323.14579 C 338.77559,326.06083 339.01557,328.6115 339.0197,328.81392 C 339.02886,329.26328 339.69157,329.27175 343.63243,328.87284 z M 307.66092,365.17836 C 306.24313,363.42041 305.81975,362.68274 305.81717,361.96603 C 305.81385,361.03963 305.82242,361.03417 307.83734,360.67961 C 310.88565,360.14322 318.74507,357.97704 324.22554,356.16278 C 326.90687,355.27514 329.19901,354.61299 329.31918,354.69134 C 329.43935,354.7697 329.53612,355.12411 329.53422,355.47893 C 329.53145,355.99752 328.88821,356.49489 326.25474,358.01465 C 324.45294,359.05447 320.06465,361.60514 316.50301,363.68279 C 312.94135,365.76045 309.90894,367.46034 309.76429,367.46034 C 309.61966,367.46034 308.67313,366.43346 307.66092,365.17836 z M 307.491,349.20987 C 306.72207,347.59334 306.09294,346.08393 306.09294,345.85562 C 306.09294,345.62731 306.41778,345.3545 306.81481,345.24938 C 307.85544,344.97384 310.101,342.64744 311.55778,340.33564 C 312.91135,338.18763 316.56294,330.41267 316.33241,330.16946 C 316.25549,330.08831 315.77269,330.2511 315.25952,330.53121 C 313.46827,331.50898 305.97994,334.77652 305.53041,334.77652 C 305.08275,334.77652 301.90638,330.17099 301.90638,329.52192 C 301.90638,329.34041 302.51182,328.86824 303.25181,328.47264 C 304.49767,327.80661 304.68578,327.55234 305.79357,325.03697 C 308.08872,319.82553 310.0922,313.36614 311.426,306.87748 C 311.84594,304.83453 312.17009,303.85939 312.42925,303.85939 C 313.0619,303.85939 318.34866,307.7996 318.35538,308.27612 C 318.35879,308.51904 317.87963,309.07731 317.29056,309.51672 C 316.42766,310.16041 316.04153,310.78979 315.30345,312.75565 C 314.01691,316.18237 311.14276,322.35399 309.33343,325.57499 C 308.49196,327.073 307.8268,328.29864 307.85531,328.29864 C 307.88382,328.29864 309.97949,327.96938 312.51234,327.56693 C 315.0452,327.16448 317.21971,326.83322 317.34457,326.8308 C 317.85209,326.82096 321.16455,318.50992 321.16455,317.24639 C 321.16455,316.14721 322.09774,316.53776 324.65386,318.70672 C 326.1119,319.94392 327.30484,321.00672 327.30484,321.06852 C 327.30484,321.13032 326.74918,321.75548 326.07005,322.45778 C 325.2697,323.28542 323.68709,325.85414 321.57193,329.75859 C 318.10283,336.16239 315.44593,340.62458 313.45402,343.39243 C 312.78258,344.32544 312.23323,345.12752 312.23323,345.17482 C 312.23323,345.22214 315.21615,344.82635 318.86194,344.2953 C 322.50773,343.76425 325.96165,343.32656 326.5373,343.32264 C 327.54457,343.3158 327.58394,343.35352 327.58394,344.32521 C 327.58394,345.30398 327.53481,345.34918 325.97909,345.80155 C 321.95755,346.97094 314.63131,349.62369 312.10256,350.82611 C 310.57237,351.55369 309.22335,352.14901 309.10473,352.14901 C 308.98611,352.14901 308.25993,350.82639 307.491,349.20987 z M 348.68359,312.23793 C 348.44644,311.98772 348.11708,311.22584 347.9517,310.54485 C 347.16923,307.32288 345.97001,305.10498 343.7856,302.83988 C 342.73089,301.74626 342.37646,301.16249 342.37646,300.51913 C 342.37646,299.68725 342.41216,299.66461 343.48528,299.81646 C 345.41534,300.08957 349.04585,302.19134 351.09846,304.22385 C 352.97937,306.08638 352.98241,306.09196 352.98096,307.69803 C 352.97931,309.55393 352.19492,311.19857 350.87295,312.11792 C 349.87947,312.80882 349.25709,312.84295 348.68359,312.23793 z "
         style="fill:url(#linearGradient2013);fill-opacity:1;stroke:black;stroke-width:0.838;stroke-miterlimit:4;stroke-dasharray:none;stroke-opacity:1"
         id="path3098" />
      <path
         d="M 212.60358,160.39113 C 211.9338,160.07697 210.84867,159.28361 208.33854,157.27287 C 206.48684,155.78957 204.92014,154.49459 204.85696,154.39512 C 204.79379,154.29566 204.77849,154.16845 204.82297,154.11246 C 204.86744,154.05645 205.63678,153.54751 206.53258,152.98147 C 215.6785,147.20235 223.30602,140.50249 228.58111,133.61444 C 235.01257,125.21649 240.0619,114.93211 242.4133,105.44138 C 242.66325,104.43256 242.92153,103.44756 242.98726,103.25251 L 243.10678,102.89785 L 246.77503,104.6864 C 248.79258,105.67012 250.48308,106.54204 250.53165,106.62404 C 250.6938,106.89768 249.17543,112.19224 247.9871,115.49683 C 245.31945,122.9153 241.32058,130.41696 236.94583,136.20972 C 231.14831,143.88638 224.28708,150.70617 216.08657,156.94289 L 214.48615,158.16007 L 214.49885,158.82732 C 214.50583,159.19431 214.45557,159.73161 214.38718,160.02134 C 214.28317,160.46186 214.20051,160.56976 213.88235,160.68031 C 213.57354,160.78761 213.33275,160.73315 212.60358,160.39113 z M 204.21514,130.42456 C 198.14552,128.60609 193.94334,127.60027 189.83753,126.9832 C 188.99692,126.85685 188.29271,126.70352 188.27261,126.64245 C 188.20214,126.42826 190.69882,118.5751 190.85461,118.52097 C 191.0397,118.45666 199.37635,120.0356 201.14012,120.46902 C 203.1581,120.96492 209.4431,122.71933 209.55882,122.81904 C 209.65536,122.90222 207.03508,130.80261 206.82195,131.07095 C 206.77445,131.13076 205.60138,130.83988 204.21514,130.42456 z M 207.93206,109.78135 C 203.76749,108.59907 201.33875,107.99268 198.37067,107.39409 C 193.5086,106.41353 191.44801,105.92644 191.45377,105.75903 C 191.4659,105.40751 193.25866,98.139495 193.37151,97.984455 C 193.45647,97.867675 193.60834,97.838605 193.86226,97.890515 C 194.0645,97.931855 196.10788,98.346445 198.40312,98.811815 C 200.69834,99.277195 203.27159,99.826555 204.12144,100.03263 C 205.73533,100.42397 210.83839,101.76549 211.74461,102.03666 L 212.26875,102.19349 L 212.17476,102.59242 C 211.85775,103.93784 210.08812,110.16036 209.99966,110.24069 C 209.94079,110.29417 209.01037,110.08747 207.93206,109.78135 z "
         style="fill:url(#linearGradient2015);fill-opacity:1;stroke:black;stroke-width:0.838;stroke-miterlimit:4;stroke-dasharray:none;stroke-opacity:1"
         id="path4921" />
    </g>
  </g>
</svg>
