<?xml version="1.0" encoding="UTF-8"?><svg xmlns="http://www.w3.org/2000/svg" version="1.1" width="653" height="103" viewBox="0 0 653 103" preserveAspectRatio="none"><rect width="653" height="103" fill="#333333"/><g fill="#ff6700"><path class="st0" d="M66.9 54.9c0-19.1-6.8-27.8-10.4-31.1-.7-.6-1.8-.1-1.7.9.7 10.8-12.9 13.5-12.9 30.4v.1c0 10.3 7.8 18.7 17.4 18.7 9.6 0 17.4-8.4 17.4-18.7v-.1c0-4.8-1.8-9.4-3.6-12.8-.4-.7-1.4-.4-1.3.2 3.3 14.6-4.9 23.6-4.9 12.4z"/><path class="st0" d="M46.2 95.2c-.4 0-.9-.2-1.2-.5L.5 50.2c-.6-.6-.6-1.7 0-2.4l47-47c.3-.2.7-.4 1.1-.4h13.5c.8 0 1.3.5 1.5 1 .2.5.2 1.2-.4 1.8L19.1 47.4c-.9.9-.9 2.3 0 3.2l34.9 35c.6.6.6 1.7 0 2.4l-6.7 6.8c-.3.2-.7.4-1.1.4zm8.9 7.8c-.8 0-1.3-.5-1.5-1-.2-.5-.2-1.2.4-1.8L98.2 56c.4-.4.7-1 .7-1.6 0-.6-.2-1.2-.7-1.6l-35-35c-.6-.6-.6-1.7 0-2.4L70 8.6c.3-.3.7-.5 1.2-.5s.8.3 1.1.6l44.4 44.5c.3.3.5.7.5 1.2s-.2.9-.5 1.2l-47 47c-.3.3-.7.5-1.2.5H55.1z"/></g><g fill="#ffffff"><path class="st1" d="M167.2 32.4c-.2.4-.5.6-1 .6-.3 0-.7-.2-1.2-.7-.5-.5-1.2-1-2-1.5-.9-.6-1.9-1.1-3.2-1.5-1.3-.5-2.9-.7-4.8-.7s-3.5.3-5 .8c-1.4.5-2.6 1.3-3.6 2.2-1 .9-1.7 2-2.2 3.2-.5 1.2-.8 2.5-.8 3.8 0 1.8.4 3.2 1.1 4.4.7 1.1 1.7 2.1 3 2.9 1.2.8 2.6 1.5 4.2 2 1.6.6 3.2 1.1 4.8 1.6 1.6.5 3.2 1.1 4.8 1.8 1.6.6 2.9 1.5 4.2 2.4 1.3.9 2.2 2.2 3 3.6.7 1.4 1.1 3.2 1.1 5.3 0 2.2-.4 4.2-1.1 6.1-.7 1.9-1.8 3.6-3.2 5-1.4 1.4-3.2 2.5-5.2 3.4-2.1.8-4.4 1.2-7 1.2-3.4 0-6.4-.6-8.8-1.8-2.5-1.2-4.6-2.9-6.5-5l1-1.6c.3-.4.6-.5 1-.5.2 0 .5.1.8.4.3.3.8.7 1.2 1.1.5.4 1.1.9 1.8 1.4.7.5 1.5 1 2.4 1.4.9.4 1.9.8 3.1 1.1 1.2.3 2.5.4 4 .4 2.1 0 3.9-.3 5.5-.9 1.6-.6 3-1.5 4.1-2.5 1.1-1 2-2.4 2.6-3.8.6-1.5.9-3.1.9-4.7 0-1.8-.4-3.3-1.1-4.5-.7-1.2-1.7-2.2-3-3-1.2-.8-2.6-1.5-4.2-2s-3.2-1.1-4.8-1.6c-1.6-.5-3.2-1.1-4.8-1.7-1.6-.6-2.9-1.4-4.2-2.4-1.2-1-2.2-2.2-3-3.7-.7-1.5-1.1-3.3-1.1-5.6 0-1.7.3-3.4 1-5s1.6-3 2.9-4.3c1.3-1.2 2.8-2.2 4.7-3 1.9-.7 4-1.1 6.4-1.1 2.7 0 5.1.4 7.3 1.3 2.1.9 4.1 2.2 5.9 3.9z"/><path class="st2" d="M152.9 79.2c-3.5 0-6.6-.6-9.1-1.9-2.5-1.2-4.8-3-6.7-5.1l-.3-.3 1.3-2c.6-.7 1.1-.8 1.5-.8.4 0 .8.2 1.2.6.3.3.8.7 1.3 1.1.5.4 1.1.9 1.7 1.4.7.5 1.4.9 2.3 1.3.9.4 1.9.8 3 1 1.1.3 2.4.4 3.9.4 2 0 3.8-.3 5.3-.9 1.5-.6 2.8-1.4 3.9-2.4 1-1 1.9-2.2 2.4-3.6.6-1.4.8-2.9.8-4.5 0-1.7-.3-3.1-1-4.2s-1.6-2-2.8-2.8c-1.2-.8-2.5-1.4-4-1.9s-3.1-1.1-4.8-1.6c-1.7-.5-3.3-1.1-4.8-1.7-1.6-.7-3.1-1.5-4.3-2.5-1.3-1-2.3-2.4-3.1-3.9-.8-1.6-1.2-3.5-1.2-5.8 0-1.8.3-3.6 1-5.3.7-1.7 1.7-3.2 3-4.5 1.3-1.3 3-2.3 4.9-3.1 1.9-.8 4.2-1.2 6.6-1.2 2.8 0 5.3.4 7.5 1.3s4.2 2.3 6.1 4.1l.3.3-1.1 2.1c-.6 1.1-1.7 1.4-3.1.1-.5-.4-1.1-.9-2-1.4-.8-.5-1.9-1-3.1-1.5-1.2-.4-2.7-.7-4.6-.7-1.8 0-3.4.3-4.8.8-1.3.5-2.5 1.2-3.4 2.1-.9.9-1.6 1.9-2.1 3s-.7 2.4-.7 3.6c0 1.6.3 3 1 4 .7 1.1 1.6 2 2.8 2.8 1.2.8 2.5 1.4 4 2 1.5.5 3.1 1.1 4.8 1.6 1.6.5 3.3 1.1 4.8 1.8 1.6.7 3.1 1.5 4.3 2.5 1.3 1 2.3 2.3 3.1 3.8.8 1.5 1.2 3.4 1.2 5.6 0 2.2-.4 4.4-1.2 6.4-.8 2-1.9 3.7-3.4 5.2s-3.3 2.6-5.4 3.5c-1.8.7-4.3 1.2-7 1.2zm-14.5-7.5c1.7 1.9 3.7 3.4 6 4.5 2.4 1.2 5.3 1.8 8.6 1.8 2.5 0 4.8-.4 6.8-1.2 2-.8 3.6-1.9 5-3.2 1.3-1.3 2.4-3 3.1-4.8.7-1.8 1.1-3.8 1.1-5.9 0-2-.4-3.7-1-5.1-.7-1.3-1.6-2.5-2.8-3.4-1.2-.9-2.5-1.7-4-2.4-1.5-.6-3.1-1.2-4.7-1.8-1.6-.5-3.2-1.1-4.8-1.6-1.6-.6-3-1.3-4.3-2.1-1.3-.8-2.3-1.9-3.1-3.1-.8-1.2-1.2-2.8-1.2-4.7 0-1.4.3-2.8.8-4.1.5-1.3 1.3-2.5 2.3-3.4 1-1 2.3-1.8 3.8-2.3 1.5-.6 3.3-.8 5.2-.8 1.9 0 3.6.2 5 .7 1.3.5 2.5 1 3.3 1.6.9.6 1.6 1.1 2.1 1.6.6.5.8.5.8.5.1 0 .3 0 .4-.3l.7-1.3c-1.6-1.5-3.4-2.7-5.3-3.5-2.1-.8-4.4-1.2-7-1.2-2.3 0-4.4.4-6.2 1.1-1.8.7-3.3 1.7-4.5 2.8-1.2 1.2-2.1 2.5-2.8 4.1-.6 1.5-.9 3.1-.9 4.8 0 2.1.4 3.9 1.1 5.3.7 1.4 1.6 2.6 2.8 3.5 1.2.9 2.5 1.7 4 2.3 1.5.6 3.1 1.2 4.7 1.7s3.2 1 4.8 1.6c1.6.6 3 1.2 4.3 2.1 1.3.8 2.4 1.9 3.1 3.2.8 1.3 1.2 2.9 1.2 4.9 0 1.8-.3 3.4-.9 5-.6 1.6-1.5 2.9-2.7 4-1.2 1.1-2.6 2-4.3 2.7-1.7.6-3.6 1-5.7 1-1.5 0-2.9-.2-4.2-.5-1.2-.3-2.3-.7-3.2-1.1-.9-.4-1.8-.9-2.5-1.5-.7-.5-1.3-1-1.8-1.4-.5-.4-.9-.8-1.2-1.1-.3-.3-.5-.3-.5-.3-.1 0-.3 0-.5.3z"/><path class="st1" d="M226.7 52c0 4-.6 7.6-1.8 10.9-1.2 3.3-2.9 6.1-5.1 8.4-2.2 2.3-4.8 4.1-7.8 5.4-3 1.3-6.4 1.9-10.1 1.9-3.6 0-7-.6-10-1.9-3-1.3-5.6-3-7.8-5.4-2.2-2.3-3.9-5.1-5.1-8.4-1.2-3.3-1.8-6.9-1.8-10.9s.6-7.6 1.8-10.9c1.2-3.3 2.9-6.1 5.1-8.4 2.2-2.3 4.8-4.1 7.8-5.4 3-1.3 6.4-1.9 10-1.9 3.7 0 7.1.6 10.1 1.9 3 1.3 5.6 3 7.8 5.4 2.2 2.3 3.9 5.1 5.1 8.4 1.2 3.3 1.8 6.9 1.8 10.9zm-3.9 0c0-3.6-.5-6.9-1.5-9.8-1-2.9-2.4-5.3-4.2-7.3-1.8-2-4-3.5-6.6-4.6-2.6-1.1-5.4-1.6-8.5-1.6-3.1 0-5.9.5-8.5 1.6-2.6 1.1-4.8 2.6-6.6 4.6-1.8 2-3.3 4.4-4.3 7.3-1 2.9-1.5 6.1-1.5 9.8 0 3.6.5 6.9 1.5 9.8 1 2.9 2.4 5.3 4.3 7.3 1.8 2 4 3.5 6.6 4.6 2.6 1.1 5.4 1.6 8.5 1.6 3.1 0 6-.5 8.5-1.6 2.6-1 4.8-2.6 6.6-4.6 1.8-2 3.2-4.4 4.2-7.3 1-2.9 1.5-6.1 1.5-9.8z"/><path class="st2" d="M202 79.1c-3.7 0-7.2-.7-10.2-1.9-3.1-1.3-5.8-3.1-8-5.5s-4-5.2-5.2-8.6c-1.2-3.3-1.9-7.1-1.9-11.1s.6-7.8 1.9-11.1c1.2-3.3 3-6.2 5.2-8.6 2.2-2.4 4.9-4.2 8-5.5 3.1-1.3 6.5-2 10.2-2 3.8 0 7.2.7 10.3 1.9 3.1 1.3 5.8 3.1 8 5.5s4 5.3 5.2 8.6c1.2 3.3 1.8 7 1.8 11.1s-.6 7.8-1.8 11.1c-1.2 3.3-3 6.2-5.2 8.6-2.2 2.4-4.9 4.2-8 5.5-3.1 1.4-6.6 2-10.3 2zm0-53c-3.5 0-6.8.6-9.8 1.9-2.9 1.2-5.5 3-7.6 5.2-2.1 2.2-3.8 5-4.9 8.2-1.2 3.2-1.8 6.8-1.8 10.7 0 3.9.6 7.5 1.8 10.7 1.2 3.2 2.8 5.9 4.9 8.2 2.1 2.2 4.7 4 7.6 5.2 2.9 1.2 6.2 1.8 9.8 1.8 3.6 0 6.9-.6 9.8-1.8 2.9-1.2 5.5-3 7.6-5.2 2.1-2.2 3.8-5 4.9-8.1 1.2-3.2 1.8-6.8 1.8-10.7 0-3.9-.6-7.5-1.8-10.7-1.2-3.2-2.8-5.9-4.9-8.2-2.1-2.2-4.7-4-7.6-5.2-2.9-1.4-6.2-2-9.8-2z"/><path class="st1" d="M256.4 75.3c2.5 0 4.7-.4 6.7-1.3s3.6-2.1 5-3.6 2.4-3.4 3.1-5.4c.7-2.1 1.1-4.3 1.1-6.8V26.1h3.7v32.1c0 2.9-.5 5.5-1.4 8-.9 2.5-2.2 4.6-3.9 6.5-1.7 1.8-3.8 3.3-6.2 4.3-2.4 1-5.2 1.6-8.2 1.6-3 0-5.8-.5-8.2-1.6-2.4-1.1-4.5-2.5-6.2-4.3-1.7-1.8-3-4-3.9-6.5-.9-2.5-1.4-5.2-1.4-8V26.1h3.8v32c0 2.4.4 4.7 1.1 6.8.7 2.1 1.8 3.9 3.1 5.4 1.4 1.5 3 2.7 5 3.6 2 1 4.3 1.4 6.8 1.4z"/><path class="st2" d="M256.4 79.2c-3.1 0-5.9-.5-8.4-1.6s-4.7-2.6-6.4-4.5c-1.7-1.9-3.1-4.2-4-6.7-.9-2.5-1.4-5.3-1.4-8.2V25.5h5v32.7c0 2.3.4 4.5 1 6.6.7 2 1.7 3.8 3 5.2 1.3 1.5 2.9 2.6 4.8 3.5 1.9.8 4 1.3 6.4 1.3 2.4 0 4.6-.4 6.4-1.2 1.9-.8 3.5-2 4.8-3.5 1.3-1.5 2.3-3.2 3-5.2.7-2 1-4.2 1-6.6V25.5h5v32.7c0 2.9-.5 5.7-1.4 8.2-.9 2.5-2.3 4.8-4 6.7-1.7 1.9-3.9 3.4-6.4 4.5-2.5 1.1-5.3 1.6-8.4 1.6zm-19.1-52.5v31.5c0 2.8.4 5.4 1.3 7.8.9 2.4 2.1 4.5 3.8 6.3 1.6 1.8 3.6 3.2 6 4.2 2.3 1 5 1.5 8 1.5 2.9 0 5.6-.5 8-1.5 2.3-1 4.4-2.4 6-4.2 1.6-1.8 2.9-3.9 3.8-6.3.9-2.4 1.3-5 1.3-7.8V26.7H273v31.5c0 2.5-.4 4.8-1.1 7-.7 2.2-1.8 4.1-3.3 5.7-1.4 1.6-3.2 2.9-5.2 3.8-2 .9-4.4 1.4-6.9 1.4-2.6 0-4.9-.5-6.9-1.4-2-.9-3.8-2.2-5.2-3.8-1.4-1.6-2.5-3.5-3.2-5.7-.7-2.1-1.1-4.5-1.1-7V26.7z"/><path class="st1" d="M297.5 51.7h3.1c2.3 0 4.4-.3 6.2-.8 1.8-.6 3.4-1.3 4.6-2.4 1.3-1 2.2-2.3 2.9-3.7.7-1.4 1-3.1 1-4.9 0-3.7-1.2-6.4-3.6-8.2-2.4-1.8-5.9-2.7-10.6-2.7h-9.5v49h-3.7V26.1h13.2c6 0 10.5 1.2 13.4 3.5 3 2.3 4.4 5.7 4.4 10.2 0 2-.3 3.8-1 5.4-.7 1.6-1.7 3.1-3 4.3-1.3 1.2-2.8 2.3-4.6 3-1.8.8-3.9 1.3-6.1 1.6.6.4 1.1.9 1.6 1.5L323.7 78h-3.3c-.4 0-.7-.1-1-.2-.3-.1-.6-.4-.8-.7l-16.6-21c-.4-.5-.9-.9-1.3-1.1-.5-.2-3.4-.3-4.4-.3 0-2.7.4-3 1.2-3z"/><path class="st2" d="M325 78.6h-4.5c-.5 0-.9-.1-1.3-.3-.4-.2-.7-.5-1-.9l-16.6-21c-.4-.5-.7-.8-1.1-1-.4-.1-2.8-.3-4.1-.3h-.6v-2.6c0-.9.2-1.4 1.8-1.4h3.2c2.2 0 4.2-.3 6-.8 1.7-.5 3.2-1.3 4.4-2.3 1.2-1 2.1-2.1 2.7-3.5.6-1.4.9-2.9.9-4.6 0-3.5-1.1-6-3.4-7.7-2.3-1.7-5.7-2.6-10.2-2.6h-8.9v48.9h-5v-53h13.9c6.1 0 10.7 1.2 13.8 3.6 3.1 2.4 4.7 6 4.7 10.7 0 2.1-.4 4-1.1 5.7-.7 1.7-1.8 3.2-3.1 4.5-1.3 1.3-3 2.3-4.8 3.2-1.5.6-3.1 1.1-4.9 1.4.2.2.4.4.6.7zm-28.1-24.7c1.1 0 3.4.1 4 .4.6.3 1.1.7 1.6 1.3l16.6 21c.2.3.4.5.6.6.2.1.4.2.7.2h2L305.3 56c-.4-.6-.9-1-1.4-1.3l-1.5-.9 1.8-.2c2.2-.2 4.2-.7 5.9-1.5 1.7-.8 3.2-1.7 4.5-2.9 1.2-1.2 2.2-2.5 2.8-4.1.6-1.6 1-3.3 1-5.2 0-4.3-1.4-7.5-4.2-9.7-2.8-2.2-7.2-3.3-13-3.3h-12.6v50.5h2.5v-49h10.1c4.7 0 8.4.9 10.9 2.8 2.6 1.9 3.9 4.8 3.9 8.7 0 1.9-.4 3.6-1 5.1-.7 1.5-1.7 2.8-3.1 3.9-1.3 1.1-2.9 1.9-4.8 2.5-1.9.6-4 .9-6.4.9h-3.1c-.3 0-.6 0-.7 1.6z"/><path class="st1" d="M367.6 69.2c.2 0 .5.1.6.3l1.5 1.6c-1.1 1.1-2.2 2.2-3.5 3.1-1.3.9-2.7 1.7-4.2 2.3-1.5.6-3.2 1.1-4.9 1.5-1.8.4-3.8.5-5.9.5-3.6 0-6.9-.6-9.9-1.9-3-1.3-5.6-3-7.7-5.4-2.1-2.3-3.8-5.1-5-8.4-1.2-3.3-1.8-6.9-1.8-10.9 0-3.9.6-7.5 1.9-10.8 1.2-3.3 3-6 5.2-8.4 2.2-2.3 4.9-4.1 8-5.4 3.1-1.3 6.6-1.9 10.3-1.9 1.9 0 3.6.1 5.2.4 1.6.3 3 .7 4.4 1.2 1.4.5 2.6 1.2 3.8 2 1.2.8 2.4 1.7 3.5 2.7l-1.1 1.6c-.2.3-.5.4-.9.4-.2 0-.5-.1-.8-.4-.3-.3-.8-.6-1.3-1s-1.2-.8-1.9-1.2c-.7-.5-1.6-.9-2.7-1.2-1-.4-2.2-.7-3.6-1-1.3-.3-2.9-.4-4.6-.4-3.2 0-6.1.5-8.7 1.6-2.6 1.1-4.9 2.6-6.8 4.7-1.9 2-3.4 4.5-4.5 7.3s-1.6 6.1-1.6 9.7c0 3.7.5 6.9 1.6 9.8 1.1 2.9 2.5 5.3 4.4 7.3 1.9 2 4.1 3.5 6.6 4.6 2.5 1.1 5.3 1.6 8.2 1.6 1.9 0 3.5-.1 5-.4 1.5-.2 2.8-.6 4-1.1 1.2-.5 2.4-1.1 3.4-1.8 1.1-.7 2.1-1.5 3.1-2.5.1-.1.2-.2.3-.2.1.2.3.1.4.1z"/><path class="st2" d="M351.1 79.2c-3.7 0-7.1-.7-10.1-1.9-3.1-1.3-5.7-3.1-7.9-5.5s-3.9-5.2-5.1-8.6c-1.2-3.3-1.8-7.1-1.8-11.1s.6-7.7 1.9-11c1.3-3.3 3.1-6.2 5.3-8.6 2.3-2.4 5.1-4.3 8.2-5.6 3.2-1.3 6.7-2 10.6-2 1.9 0 3.7.1 5.3.4 1.6.3 3.1.7 4.5 1.2s2.7 1.2 3.9 2c1.2.8 2.4 1.7 3.6 2.8l.4.4-1.4 2.1c-.2.3-.6.7-1.4.7-.4 0-.7-.2-1.2-.5-.3-.3-.8-.6-1.3-.9-.5-.4-1.1-.8-1.9-1.2-.7-.4-1.6-.8-2.6-1.2-1-.4-2.2-.7-3.5-.9-1.3-.2-2.8-.4-4.5-.4-3.1 0-5.9.5-8.5 1.6-2.5 1.1-4.8 2.6-6.6 4.5-1.8 1.9-3.3 4.3-4.3 7.1s-1.6 6-1.6 9.4c0 3.6.5 6.8 1.5 9.6s2.4 5.2 4.2 7.1c1.8 1.9 3.9 3.4 6.4 4.4 2.4 1 5.1 1.5 8 1.5 1.8 0 3.5-.1 4.9-.4 1.4-.2 2.7-.6 3.9-1.1 1.2-.5 2.3-1.1 3.3-1.7 1-.7 2-1.5 3-2.4.2-.2.3-.2.5-.3.5-.3 1.3-.2 1.7.3l1.9 2-.4.4c-1.1 1.2-2.3 2.2-3.6 3.2-1.3.9-2.7 1.8-4.3 2.4-1.5.7-3.2 1.2-5.1 1.5-1.7.5-3.7.7-5.9.7zm1.1-53.1c-3.7 0-7.1.6-10.1 1.9-3 1.2-5.7 3-7.8 5.3-2.2 2.3-3.9 5-5.1 8.2-1.2 3.2-1.8 6.7-1.8 10.6 0 3.9.6 7.5 1.8 10.7 1.2 3.2 2.8 5.9 4.9 8.2 2.1 2.2 4.6 4 7.5 5.2 2.9 1.2 6.1 1.8 9.6 1.8 2.1 0 4-.2 5.8-.5 1.7-.3 3.4-.8 4.8-1.5 1.5-.6 2.8-1.4 4-2.3 1.1-.8 2.1-1.7 3-2.6l-1.1-1.2c-.1-.1-.2-.1-.3 0-.1 0-.2.1-.3.2-1 .9-2.1 1.8-3.2 2.5s-2.3 1.4-3.5 1.9c-1.3.5-2.7.9-4.1 1.1-1.5.2-3.2.4-5.1.4-3 0-5.9-.6-8.5-1.6-2.6-1.1-4.9-2.7-6.8-4.7-1.9-2-3.4-4.6-4.5-7.5-1.1-2.9-1.6-6.3-1.6-10 0-3.6.5-6.9 1.6-9.9 1.1-2.9 2.6-5.5 4.6-7.5 2-2.1 4.3-3.7 7-4.8 2.7-1.1 5.7-1.7 8.9-1.7 1.7 0 3.3.1 4.7.4 1.4.3 2.6.6 3.7 1s2 .8 2.8 1.3c.8.5 1.4.9 1.9 1.3s1 .7 1.3 1c.3.3.5.3.5.3.3 0 .4-.1.4-.2l.8-1.2c-1-.9-2-1.6-3-2.3-1.2-.8-2.4-1.4-3.7-1.9-1.3-.5-2.8-.9-4.3-1.2-1.3-.5-3-.7-4.8-.7z"/><path class="st1" d="M410.3 26.1v3.1H383v21h22.7v3H383v21.6h27.3v3.1h-31.1V26.1z"/><path class="st2" d="M410.9 78.6h-32.3V25.5h32.3v4.3h-27.3v19.7h22.7v4.3h-22.7v20.4h27.3zm-31.1-1.2h29.9v-1.9h-27.3V52.6h22.7v-1.8h-22.7V28.6h27.3v-1.9h-29.9z"/><path class="st1" d="M456.8 25.5v7.9h-23.5v15.7h19.8V57h-19.8v21.6h-9.9v-53h33.4zM514.3 52c0 3.9-.6 7.5-1.9 10.8-1.3 3.3-3.1 6.2-5.5 8.6-2.3 2.4-5.2 4.3-8.5 5.7-3.3 1.4-7 2-11 2s-7.7-.7-11-2c-3.3-1.4-6.1-3.2-8.5-5.7-2.4-2.4-4.2-5.3-5.5-8.6-1.3-3.3-1.9-6.9-1.9-10.8 0-3.9.6-7.5 1.9-10.8 1.3-3.3 3.1-6.2 5.5-8.6 2.4-2.4 5.2-4.3 8.5-5.7 3.3-1.4 7-2 11-2s7.7.7 11 2.1c3.3 1.4 6.1 3.3 8.5 5.7 2.3 2.4 4.2 5.3 5.5 8.6 1.2 3.2 1.9 6.8 1.9 10.7zm-10.1 0c0-2.9-.4-5.5-1.2-7.8-.8-2.3-1.9-4.3-3.3-5.9-1.4-1.6-3.2-2.8-5.3-3.7-2.1-.9-4.4-1.3-7-1.3-2.6 0-4.9.4-7 1.3-2.1.9-3.8 2.1-5.3 3.7s-2.6 3.6-3.4 5.9c-.8 2.3-1.2 4.9-1.2 7.8 0 2.9.4 5.5 1.2 7.8.8 2.3 1.9 4.3 3.4 5.9 1.5 1.6 3.2 2.8 5.3 3.7 2.1.9 4.4 1.3 7 1.3 2.6 0 4.9-.4 7-1.3 2.1-.9 3.8-2.1 5.3-3.7 1.4-1.6 2.5-3.6 3.3-5.9.8-2.3 1.2-4.9 1.2-7.8zm30.7-1.2h2.3c1.9 0 3.5-.2 4.9-.7 1.4-.5 2.5-1.1 3.4-1.9.9-.8 1.6-1.8 2-2.9.4-1.1.7-2.4.7-3.7 0-2.7-.9-4.8-2.7-6.2-1.8-1.4-4.5-2.2-8.1-2.2H531v45.4h-9.9v-53h16.2c3.6 0 6.7.4 9.3 1.1 2.6.7 4.7 1.8 6.3 3.1 1.6 1.3 2.9 3 3.6 4.8.8 1.9 1.2 3.9 1.2 6.2 0 1.8-.3 3.5-.8 5.1-.5 1.6-1.3 3-2.3 4.3-1 1.3-2.2 2.4-3.7 3.4s-3.1 1.8-5 2.3c1.2.7 2.3 1.7 3.2 3l13.3 19.6h-8.9c-.9 0-1.6-.2-2.2-.5-.6-.3-1.1-.8-1.5-1.5l-11.1-17c-.3-.4-.9-1.3-1.5-1.4h-3.5v-6.4c.1-.9 1.2-.9 1.2-.9zm56.5 20.5c2.2 0 4.2-.2 5.8-.6 1.6-.4 3.2-1 4.7-1.7V57h-6.6c-.6 0-1.1-.2-1.5-.5-.4-.4-.6-.8-.6-1.3v-5.6h17.6v23.8c-1.3 1-2.7 1.8-4.2 2.5s-3 1.3-4.7 1.8c-1.7.5-3.4.8-5.3 1-1.9.2-3.9.3-6.1.3-3.9 0-7.4-.7-10.7-2-3.3-1.3-6.1-3.2-8.4-5.6-2.4-2.4-4.2-5.3-5.6-8.6-1.3-3.3-2-7-2-10.9 0-4 .6-7.6 1.9-11 1.3-3.3 3.1-6.2 5.5-8.6 2.4-2.4 5.3-4.3 8.7-5.6 3.4-1.3 7.2-2 11.4-2 4.3 0 8.1.6 11.2 1.9 3.2 1.3 5.8 3 8 5l-2.9 4.5c-.6.9-1.3 1.4-2.2 1.4-.6 0-1.2-.2-1.8-.6-.8-.5-1.6-.9-2.4-1.4-.8-.5-1.7-.9-2.7-1.2-1-.3-2.1-.6-3.3-.8-1.2-.2-2.7-.3-4.3-.3-2.6 0-5 .4-7.1 1.3-2.1.9-3.9 2.1-5.4 3.8-1.5 1.6-2.6 3.6-3.4 5.9-.8 2.3-1.2 4.9-1.2 7.7 0 3.1.4 5.8 1.3 8.2.9 2.4 2.1 4.4 3.6 6 1.5 1.6 3.4 2.9 5.5 3.8 2.1.9 4.7 1.4 7.2 1.4zm54.3-14.1h-16.1v13.4H653v7.9h-33.4v-53H653v7.9h-23.5v16.3H648v5.8s-.1 1.7-2.3 1.7z"/></g></svg>
