<?xml version="1.0" encoding="UTF-8" standalone="no"?>
<svg xmlns="http://www.w3.org/2000/svg" xmlns:xlink="http://www.w3.org/1999/xlink" width="204.91339" height="158.13004" version="1.0">
  <defs>
    <linearGradient id="e">
      <stop/>
      <stop offset=".87947369" stop-opacity=".76612902"/>
      <stop offset="1" stop-opacity="0"/>
    </linearGradient>
    <linearGradient id="a" x1="259.40082" x2="260.54816" y1="307.82748" y2="469.55243" gradientTransform="matrix(.40828 0 0 .36627 -10.048971 -57.409681)" gradientUnits="userSpaceOnUse">
      <stop stop-color="#ddd"/>
      <stop offset="1" stop-color="#f5f5f5"/>
    </linearGradient>
    <linearGradient id="b" x1="243.32458" x2="243.32458" y1="402.15451" y2="260.52774" gradientTransform="matrix(.38252 .0053 0 .35511 4.2468422 -46.082447)" gradientUnits="userSpaceOnUse">
      <stop stop-color="#fff" stop-opacity="0"/>
      <stop offset="1" stop-color="#fff" stop-opacity=".57254905"/>
    </linearGradient>
    <linearGradient id="c" x1="104.63348" x2="106.81163" y1="987.17004" y2="850.52936" gradientTransform="matrix(.38499 0 0 .33937 55.328529 -230.96865)" gradientUnits="userSpaceOnUse">
      <stop stop-color="#fff" stop-opacity="0"/>
      <stop offset="1" stop-color="#fff" stop-opacity=".85000002"/>
    </linearGradient>
    <linearGradient xlink:href="#a" id="f" x1="147.74049" x2="451.55231" y1="183.13512" y2="183.13512" gradientUnits="userSpaceOnUse"/>
    <linearGradient xlink:href="#b" id="i" x1="243.32458" x2="243.32458" y1="402.15451" y2="260.52774" gradientTransform="matrix(.38252 .0053 0 .35511 67.612354 -14.091955)" gradientUnits="userSpaceOnUse"/>
    <linearGradient xlink:href="#a" id="j" x1="259.40082" x2="260.54816" y1="307.82748" y2="469.55243" gradientTransform="matrix(.40828 0 0 .36627 53.316541 -25.419189)" gradientUnits="userSpaceOnUse"/>
    <linearGradient xlink:href="#c" id="k" x1="104.63348" x2="106.81163" y1="987.17004" y2="850.52936" gradientTransform="matrix(.42244 0 0 .36211 114.61171 -220.87227)" gradientUnits="userSpaceOnUse"/>
    <radialGradient id="d" cx="295.47125" cy="186.09634" r="179.55" gradientTransform="matrix(0 1.53126 -.8765 -.00002 462.7486 -245.0023)" gradientUnits="userSpaceOnUse">
      <stop offset="0" stop-color="#fff"/>
      <stop offset=".5" stop-color="#fff"/>
      <stop offset="1" stop-color="#d5d5d5"/>
    </radialGradient>
    <radialGradient xlink:href="#d" id="g" cx="295.47125" cy="186.09634" r="179.55" gradientTransform="matrix(0 1.53126 -.8765 -.00002 462.7486 -245.0023)" gradientUnits="userSpaceOnUse"/>
    <radialGradient xlink:href="#e" id="h" cx="244.76437" cy="364.19266" r="103.66492" fx="244.76437" fy="364.19266" gradientTransform="matrix(.40825 0 0 .3663 62.667276 -14.942078)" gradientUnits="userSpaceOnUse"/>
  </defs>
  <g transform="translate(-.00000268 6e-8)">
    <g transform="matrix(.3207 0 0 .32427 -3.7460119 -3.1737981)">
      <path fill-opacity=".17857098" d="M287.0439 30.68461 26.88238 457.8871c-4.99204 8.1601-4.99204 18.2401 0 26.4002 4.89603 8.064 14.11208 13.1521 24.09614 13.1521H571.3016c9.888 0 19.1041-5.0881 24.0961-13.1521 4.896-8.1601 4.896-18.2401 0-26.4002L335.2362 30.68461c-4.992-8.16004-14.2081-13.24807-24.0962-13.24807-9.888 0-19.1041 5.08803-24.0961 13.24807z"/>
      <path fill="#666" d="M275.5863 23.03565 15.42473 450.2381c-4.99203 8.1601-4.99203 18.2402 0 26.4002 4.89603 8.0641 14.11208 13.1521 24.09614 13.1521H559.8439c9.8881 0 19.1041-5.088 24.0962-13.1521 4.896-8.16 4.896-18.2401 0-26.4002L323.7785 23.03565c-4.992-8.16005-14.208-13.248082-24.0961-13.248082S280.5783 14.8756 275.5863 23.03565z"/>
      <path fill="gray" d="M299.6824 31.7717c-1.632 0-3.168.864-4.032 2.20801L165.5696 247.581 35.48885 461.1822c-.86401 1.344-.86401 3.072 0 4.416.864 1.344 2.40001 2.208 4.03202 2.208H559.8439c1.632 0 3.168-.864 4.0321-2.208.864-1.344.864-3.072 0-4.416L303.7144 33.97971c-.864-1.34401-2.4-2.20801-4.032-2.20801z"/>
      <path fill="#999" stroke="#e7e7ef" stroke-linejoin="round" stroke-width="11.52000046" d="M299.6464 31.7717c-1.632 0-3.1681.864-4.0321 2.20801L165.5336 247.581 35.45283 461.1822c-.86401 1.344-.86401 3.072 0 4.416.864 1.344 2.40001 2.208 4.03202 2.208H559.8079c1.632 0 3.168-.864 4.032-2.208.864-1.344.864-3.072 0-4.416L303.6784 33.97971c-.864-1.34401-2.4-2.20801-4.032-2.20801z"/>
      <path fill="url(#f)" d="M299.7514 39.46512c-1.5457.0764-2.9865.93901-3.81 2.22002L165.8606 255.2864l-18.1201 29.7602c44.1342 26.493 95.7728 41.7602 150.9609 41.7602 55.9718 0 108.3072-15.6775 152.8509-42.8702L304.0114 41.68514c-.864-1.34402-2.388-2.22002-4.02-2.22002-.0765 0-.164-.00376-.24 0z"/>
      <path fill="url(#g)" d="M286.4344 145.7244 129.2814 403.678c-2.688 4.5121-2.688 10.0801 0 14.4961 2.6881 4.512 7.7761 7.2961 13.2481 7.2961h314.21c5.472 0 10.5601-2.7841 13.2481-7.2961 2.688-4.512 2.688-9.984 0-14.4961l-157.057-257.9536c-2.688-4.512-7.7761-7.296-13.2481-7.296-5.472 0-10.5601 2.784-13.2481 7.296z"/>
      <g fill="#666" fill-rule="evenodd" font-size="12" transform="translate(48.35525 51.38163) scale(.69521)">
        <path d="m590.3589 519.1232-245.6152.3158c-2.2248-.2008-3.8363-.7083-2.994-3.3628l90.2505-115.6881c3.1212-4.4233 7.8301-6.815 12.5675-6.679l45.3513-.0968c7.3551-.0034 10.1913 2.1257 14.2385 7.2074l88.3754 114.1202c.8088 2.0078.0841 4.0156-2.174 4.1833z"/>
        <rect width="62.141712" height="124.68411" x="401.59204" y="86.919151" rx="11.204549" ry="11.816922" transform="matrix(.88545 .46474 -.40805 .91296 0 0)"/>
        <rect width="100.00001" height="32.5" x="266.61417" y="268.59387" rx="9.4117651" ry="8"/>
        <rect width="93.191818" height="27.643017" x="-111.08447" y="374.94836" rx="8.770997" ry="6.8044353" transform="matrix(.46869 -.88336 .74464 .66747 0 0)"/>
        <rect width="292.53391" height="15.505924" x="361.49655" y="184.73489" rx="27.532602" ry="3.8168428" transform="matrix(.88458 .46638 -.43668 .89962 0 0)"/>
        <rect width="134.95171" height="27.030939" x="-440.25488" y="335.38721" rx="12.701341" ry="6.6537695" transform="matrix(-.0572 -.99836 .99704 -.07694 0 0)"/>
        <ellipse cx="418.75" cy="467.36218" rx="31.25" ry="32.5" transform="matrix(.95757 0 0 .9728 -15.17769 -201.0577)"/>
        <rect width="78.066292" height="31.23612" x="-504.1214" y="192.69527" rx="7.3474154" ry="7.6888919" transform="matrix(-.234 -.97223 .98564 -.16883 0 0)"/>
        <rect width="78.240173" height="31.245829" x="-494.04901" y="303.84488" rx="7.3637805" ry="7.6912823" transform="matrix(-.00757 -.99997 .99703 .07697 0 0)"/>
        <rect width="156.70586" height="31.953196" x="-296.65436" y="424.44891" rx="14.748788" ry="7.8654032" transform="matrix(.4947 -.86906 .81787 .5754 0 0)"/>
      </g>
    </g>
    <path fill="url(#h)" d="M204.91339 118.46156c.00726-20.969679-18.9427-37.97242-42.32116-37.97242-23.37847 0-42.32842 17.002741-42.32116 37.97242-.00726 20.96968 18.94269 37.97242 42.32116 37.97242 23.37846 0 42.32842-17.00274 42.32116-37.97242z"/>
    <path fill="#4d4d4d" d="M202.92817 117.00465c.00726-20.969683-18.9427-37.972424-42.32116-37.972424s-42.32842 17.002741-42.32116 37.972424c-.00726 20.96968 18.9427 37.97242 42.32116 37.97242s42.32842-17.00274 42.32116-37.97242z"/>
    <path fill="url(#i)" d="M200.89369 117.08117c.0068-20.329136-17.74887-37.058221-39.65395-37.36127-21.90509-.303048-39.66076 15.934753-39.65395 36.26407-.00681 20.32913 17.74886 37.05822 39.65395 37.36126 21.90508.30305 39.66075-15.93475 39.65395-36.26406z"/>
    <path fill="#666" d="M196.64491 120.05999c0-19.3243-16.14107-34.989742-36.05208-34.989742-19.91102 0-36.05208 15.665442-36.05208 34.989742s16.14106 34.98974 36.05208 34.98974c19.91101 0 36.05208-15.66544 36.05208-34.98974z"/>
    <path fill="url(#j)" d="M194.35751 116.7337c.0029-16.70963-15.09813-30.256842-33.72719-30.256842-18.62906 0-33.73008 13.547212-33.72718 30.256842-.0029 16.70963 15.09812 30.25684 33.72718 30.25684 18.62906 0 33.73009-13.54721 33.72719-30.25684z"/>
    <path fill="url(#k)" d="M191.93885 113.55181c.00406-14.8095-14.00391-26.816821-31.28503-26.816821-17.28111 0-31.28908 12.007321-31.28502 26.816821-.00406 14.8095 14.00391 26.81681 31.28502 26.81681 17.28112 0 31.28909-12.00731 31.28503-26.81681z"/>
    <path fill="#b3b3b3" fill-opacity=".75" stroke="#000" stroke-width="1.45014834" d="m162.98997 120.45175-12.54317-17.50123"/>
    <path fill="#b3b3b3" fill-opacity=".75" stroke="#000" stroke-width="1.3356266" d="m158.23019 120.74077 15.0943-24.579711"/>
    <path fill="#666" fill-opacity=".75" stroke="#837c7c" stroke-width=".72507417" d="m155.18533 117.70156 32.61225-3.00021"/>
    <path d="M159.88272 88.648636h1.5405989v3.3183742H159.88272zm0 52.728864h1.5405989v3.3183742H159.88272zm-26.49325-25.47938v1.3818644h-3.6995549V115.89812zm58.13185 0v1.3818644h-3.6995549V115.89812z"/>
  </g>
</svg>