<?xml version="1.0" encoding="UTF-8" standalone="no"?>
<svg
   xmlns:dc="http://purl.org/dc/elements/1.1/"
   xmlns:cc="http://creativecommons.org/ns#"
   xmlns:rdf="http://www.w3.org/1999/02/22-rdf-syntax-ns#"
   xmlns:svg="http://www.w3.org/2000/svg"
   xmlns="http://www.w3.org/2000/svg"
   xmlns:sodipodi="http://sodipodi.sourceforge.net/DTD/sodipodi-0.dtd"
   xmlns:inkscape="http://www.inkscape.org/namespaces/inkscape"
   version="1.0"
   width="600"
   height="500"
   id="svg2"
   sodipodi:version="0.32"
   inkscape:version="0.46"
   sodipodi:docname="Under_construction_icon-green.svg"
   inkscape:output_extension="org.inkscape.output.svg.inkscape">
  <metadata
     id="metadata48">
    <rdf:RDF>
      <cc:Work
         rdf:about="">
        <dc:format>image/svg+xml</dc:format>
        <dc:type
           rdf:resource="http://purl.org/dc/dcmitype/StillImage" />
      </cc:Work>
    </rdf:RDF>
  </metadata>
  <sodipodi:namedview
     inkscape:window-height="720"
     inkscape:window-width="1280"
     inkscape:pageshadow="2"
     inkscape:pageopacity="0.0"
     guidetolerance="10.0"
     gridtolerance="10.0"
     objecttolerance="10.0"
     borderopacity="1.0"
     bordercolor="#666666"
     pagecolor="#ffffff"
     id="base"
     showgrid="false"
     inkscape:zoom="0.90666667"
     inkscape:cx="300"
     inkscape:cy="261.62959"
     inkscape:window-x="-8"
     inkscape:window-y="-8"
     inkscape:current-layer="svg2" />
  <defs
     id="defs4">
    <inkscape:perspective
       sodipodi:type="inkscape:persp3d"
       inkscape:vp_x="0 : 250 : 1"
       inkscape:vp_y="0 : 1000 : 0"
       inkscape:vp_z="600 : 250 : 1"
       inkscape:persp3d-origin="300 : 166.66667 : 1"
       id="perspective50" />
    <linearGradient
       id="g1"
       x1="41.1948738"
       y1="616.477173"
       x2="118.931351"
       y2="527.555115"
       gradientUnits="userSpaceOnUse"
       gradientTransform="matrix(4.556763,0,0,-4.315033,37.49756,2758.519)">
      <stop
         offset="0"
         stop-color="#267F00"
         id="stop7" />
      <stop
         offset="1"
         stop-color="#007F0E"
         id="stop9" />
    </linearGradient>
    <linearGradient
       id="g2"
       x1="530.809509"
       y1="486.631012"
       x2="174.805481"
       y2="211.22995"
       gradientUnits="userSpaceOnUse"
       gradientTransform="matrix(0.960006,0,0,0.960006,11.68071,9.787565)">
      <stop
         offset="0"
         stop-color="#267F00"
         id="stop12" />
      <stop
         offset="1"
         stop-color="#14AF00"
         id="stop14" />
    </linearGradient>
    <linearGradient
       id="g3"
       x1="187.873566"
       y1="224.598923"
       x2="581.837463"
       y2="483.100006"
       gradientUnits="userSpaceOnUse"
       gradientTransform="matrix(0.960006,0,0,0.960006,11.68071,9.787558)">
      <stop
         offset="0"
         stop-color="#6AE038"
         id="stop17" />
      <stop
         offset="1"
         stop-color="#3BBC27"
         id="stop19" />
    </linearGradient>
    <linearGradient
       id="g4"
       x1="250.398453"
       y1="101.536331"
       x2="412.094299"
       y2="264.54187"
       gradientUnits="userSpaceOnUse"
       gradientTransform="matrix(0.960006,0,0,0.960006,11.68071,9.787565)">
      <stop
         offset="0"
         stop-color="#B9EAB9"
         id="stop22" />
      <stop
         offset="1"
         stop-color="#50D841"
         id="stop24" />
    </linearGradient>
    <radialGradient
       id="g5"
       cx="295.471252"
       cy="186.096344"
       r="179.550003"
       gradientUnits="userSpaceOnUse"
       gradientTransform="matrix(1.14292e-8,1.531256,-0.876504,-2.165967e-5,462.7486,-245.0023)">
      <stop
         offset="0"
         stop-color="#fff"
         id="stop27" />
      <stop
         offset="0.5"
         stop-color="#fff"
         id="stop29" />
      <stop
         offset="1"
         stop-color="#d5d5d5"
         id="stop31" />
    </radialGradient>
    <inkscape:perspective
       id="perspective2439"
       inkscape:persp3d-origin="350 : 204.16667 : 1"
       inkscape:vp_z="700 : 306.25 : 1"
       inkscape:vp_y="0 : 1000 : 0"
       inkscape:vp_x="0 : 306.25 : 1"
       sodipodi:type="inkscape:persp3d" />
  </defs>
  <path
     d="M 287.0439 30.68461 C 287.0439 30.68461 26.88238 457.8871 26.88238 457.8871 C 21.89034 466.0472 21.89034 476.1272 26.88238 484.2873 C 31.77841 492.3513 40.99446 497.4394 50.97852 497.4394 L 571.3016 497.4394 C 581.1896 497.4394 590.4057 492.3513 595.3977 484.2873 C 600.2937 476.1272 600.2937 466.0472 595.3977 457.8871 L 335.2362 30.68461 C 330.2442 22.52457 321.0281 17.43654 311.14 17.43654 C 301.252 17.43654 292.0359 22.52457 287.0439 30.68461z"
     style="fill-opacity:0.178571"
     id="path33" />
  <path
     d="M 275.5863 23.03565 C 275.5863 23.03565 15.42473 450.2381 15.42473 450.2381 C 10.4327 458.3982 10.4327 468.4783 15.42473 476.6383 C 20.32076 484.7024 29.53681 489.7904 39.52087 489.7904 L 559.8439 489.7904 C 569.732 489.7904 578.948 484.7024 583.9401 476.6383 C 588.8361 468.4783 588.8361 458.3982 583.9401 450.2381 L 323.7785 23.03565 C 318.7865 14.8756 309.5705 9.787568 299.6824 9.787568 C 289.7943 9.787568 280.5783 14.8756 275.5863 23.03565z"
     style="fill:url(#g1)"
     id="path35" />
  <path
     d="M 299.6824 31.7717 C 298.0504 31.7717 296.5144 32.6357 295.6504 33.97971 L 165.5696 247.581 L 35.48885 461.1822 C 34.62484 462.5262 34.62484 464.2542 35.48885 465.5982 C 36.35285 466.9422 37.88886 467.8062 39.52087 467.8062 L 559.8439 467.8062 C 561.4759 467.8062 563.0119 466.9422 563.876 465.5982 C 564.74 464.2542 564.74 462.5262 563.876 461.1822 L 303.7144 33.97971 C 302.8504 32.6357 301.3144 31.7717 299.6824 31.7717z"
     style="fill:url(#g2)"
     id="path37" />
  <path
     d="M 299.6464 31.7717 C 298.0144 31.7717 296.4783 32.6357 295.6143 33.97971 L 165.5336 247.581 L 35.45283 461.1822 C 34.58882 462.5262 34.58882 464.2542 35.45283 465.5982 C 36.31683 466.9422 37.85284 467.8062 39.48485 467.8062 L 559.8079 467.8062 C 561.4399 467.8062 562.9759 466.9422 563.8399 465.5982 C 564.7039 464.2542 564.7039 462.5262 563.8399 461.1822 L 303.6784 33.97971 C 302.8144 32.6357 301.2784 31.7717 299.6464 31.7717z"
     style="fill:none;stroke:url(#g3);stroke-width:11.52;stroke-linejoin:round"
     id="path39" />
  <path
     d="M 299.7514 39.46512 C 298.2057 39.54152 296.7649 40.40413 295.9414 41.68514 L 165.8606 255.2864 L 147.7405 285.0466 C 191.8747 311.5396 243.5133 326.8068 298.7014 326.8068 C 354.6732 326.8068 407.0086 311.1293 451.5523 283.9366 L 304.0114 41.68514 C 303.1474 40.34112 301.6234 39.46512 299.9914 39.46512 C 299.9149 39.46512 299.8274 39.46136 299.7514 39.46512z"
     style="fill:url(#g4);stroke-width:10;stroke-linejoin:round"
     id="path41" />
  <path
     d="M 286.4344 145.7244 L 129.2814 403.678 C 126.5934 408.1901 126.5934 413.7581 129.2814 418.1741 C 131.9695 422.6861 137.0575 425.4702 142.5295 425.4702 L 456.7395 425.4702 C 462.2115 425.4702 467.2996 422.6861 469.9876 418.1741 C 472.6756 413.6621 472.6756 408.1901 469.9876 403.678 L 312.9306 145.7244 C 310.2426 141.2124 305.1545 138.4284 299.6825 138.4284 C 294.2105 138.4284 289.1224 141.2124 286.4344 145.7244z"
     style="fill:url(#g5)"
     id="path43" />
  <g
     id="g2442"
     transform="translate(-158.42161,-122.37681)">
    <g
       id="g2456"
       transform="matrix(0.6952148,0,0,0.6952148,206.77686,173.75844)">
      <path
         d="M 590.3589,519.1232 L 344.7437,519.439 C 342.5189,519.2382 340.9074,518.7307 341.7497,516.0762 L 432.0002,400.3881 C 435.1214,395.9648 439.8303,393.5731 444.5677,393.7091 L 489.919,393.6123 C 497.2741,393.6089 500.1103,395.738 504.1575,400.8197 L 592.5329,514.9399 C 593.3417,516.9477 592.617,518.9555 590.3589,519.1232 z"
         style="font-size:12px;fill-rule:evenodd"
         id="path633" />
      <rect
         width="62.141712"
         height="124.68411"
         rx="11.204549"
         ry="11.816922"
         x="401.59204"
         y="86.919151"
         transform="matrix(0.885449,0.464736,-0.408053,0.912958,0,0)"
         style="font-size:12px;fill:#000002;fill-rule:evenodd"
         id="rect613" />
      <rect
         width="100.00001"
         height="32.5"
         rx="9.4117651"
         ry="8"
         x="266.61417"
         y="268.59387"
         style="font-size:12px;fill-rule:evenodd"
         id="rect615" />
      <rect
         width="93.191818"
         height="27.643017"
         rx="8.770997"
         ry="6.8044353"
         x="-111.08447"
         y="374.94836"
         transform="matrix(0.46869,-0.883363,0.744635,0.667472,0,0)"
         style="font-size:12px;fill-rule:evenodd"
         id="rect616" />
      <rect
         width="292.53391"
         height="15.505924"
         rx="27.532602"
         ry="3.8168428"
         x="361.49655"
         y="184.73489"
         transform="matrix(0.884585,0.466378,-0.436681,0.899616,0,0)"
         style="font-size:12px;fill-rule:evenodd"
         id="rect617" />
      <rect
         width="134.95171"
         height="27.030939"
         rx="12.701341"
         ry="6.6537695"
         x="-440.25488"
         y="335.38721"
         transform="matrix(-5.7205843e-2,-0.9983624,0.9970356,-7.6942196e-2,0,0)"
         style="font-size:12px;fill-rule:evenodd"
         id="rect618" />
      <ellipse
         sodipodi:ry="32.5"
         sodipodi:rx="31.25"
         sodipodi:cy="467.36218"
         sodipodi:cx="418.75"
         cx="418.75"
         cy="467.36218"
         rx="31.25"
         ry="32.5"
         transform="matrix(0.957573,0,0,0.972804,-15.17769,-201.0577)"
         style="font-size:12px;fill-rule:evenodd;stroke-width:1"
         id="path619" />
      <rect
         width="78.066292"
         height="31.23612"
         rx="7.3474154"
         ry="7.6888919"
         x="-504.1214"
         y="192.69527"
         transform="matrix(-0.234008,-0.972235,0.985645,-0.16883,0,0)"
         style="font-size:12px;fill-rule:evenodd"
         id="rect621" />
      <rect
         width="78.240173"
         height="31.245829"
         rx="7.3637805"
         ry="7.6912823"
         x="-494.04901"
         y="303.84488"
         transform="matrix(-7.569861e-3,-0.999971,0.997034,7.696708e-2,0,0)"
         style="font-size:12px;fill-rule:evenodd"
         id="rect622" />
      <rect
         width="156.70586"
         height="31.953196"
         rx="14.748788"
         ry="7.8654032"
         x="-296.65436"
         y="424.44891"
         transform="matrix(0.494708,-0.869059,0.817867,0.575407,0,0)"
         style="font-size:12px;fill-rule:evenodd"
         id="rect623" />
    </g>
  </g>
</svg>
