<?xml version="1.0" encoding="utf-8"?>
<!-- Generator: Adobe Illustrator 16.0.0, SVG Export Plug-In . SVG Version: 6.00 Build 0)  -->
<!DOCTYPE svg PUBLIC "-//W3C//DTD SVG 1.1//EN" "http://www.w3.org/Graphics/SVG/1.1/DTD/svg11.dtd">
<svg version="1.1"
	 id="svg2366" xmlns:rdf="http://www.w3.org/1999/02/22-rdf-syntax-ns#" xmlns:cc="http://creativecommons.org/ns#" xmlns:svg="http://www.w3.org/2000/svg" xmlns:dc="http://purl.org/dc/elements/1.1/" xmlns:sodipodi="http://sodipodi.sourceforge.net/DTD/sodipodi-0.dtd" xmlns:inkscape="http://www.inkscape.org/namespaces/inkscape" sodipodi:version="0.32" inkscape:version="0.46" sodipodi:docname="Underconstruction_clock_icon_gray.svg" inkscape:output_extension="org.inkscape.output.svg.inkscape" sodipodi:docbase="C:\Documents and Settings\Eric Shen\Desktop"
	 xmlns="http://www.w3.org/2000/svg" xmlns:xlink="http://www.w3.org/1999/xlink" x="0px" y="0px" width="188.376px"
	 height="158.129px" viewBox="0 0 188.376 158.129" enable-background="new 0 0 188.376 158.129" xml:space="preserve">
<sodipodi:namedview  id="base" inkscape:cx="125.27996" showgrid="false" pagecolor="#ffffff" inkscape:cy="63.538454" bordercolor="#666666" gridtolerance="10.0" inkscape:zoom="2.5235285" guidetolerance="10.0" borderopacity="1.0" objecttolerance="10.0" inkscape:pageopacity="0.0" inkscape:pageshadow="2" inkscape:window-y="-4" inkscape:window-width="1280" inkscape:window-height="744" inkscape:window-x="-4" inkscape:current-layer="svg2366">
	</sodipodi:namedview>
<defs>
	
	
		<inkscape:perspective  id="perspective53" inkscape:vp_z="212.16249 : 105.6375 : 1" inkscape:vp_x="0 : 105.6375 : 1" sodipodi:type="inkscape:persp3d" inkscape:vp_y="0 : 1000 : 0" inkscape:persp3d-origin="106.08125 : 70.425003 : 1">
		</inkscape:perspective>
	
		<inkscape:perspective  id="perspective2563" inkscape:vp_z="212.16249 : 105.6375 : 1" inkscape:vp_x="0 : 105.6375 : 1" sodipodi:type="inkscape:persp3d" inkscape:vp_y="0 : 1000 : 0" inkscape:persp3d-origin="106.08125 : 70.425003 : 1">
		</inkscape:perspective>
	
		<inkscape:perspective  id="perspective2439" inkscape:vp_z="700 : 306.25 : 1" inkscape:vp_x="0 : 306.25 : 1" sodipodi:type="inkscape:persp3d" inkscape:vp_y="0 : 1000 : 0" inkscape:persp3d-origin="350 : 204.16667 : 1">
		</inkscape:perspective>
	
		<inkscape:perspective  id="perspective50" inkscape:vp_z="600 : 250 : 1" inkscape:vp_x="0 : 250 : 1" sodipodi:type="inkscape:persp3d" inkscape:vp_y="0 : 1000 : 0" inkscape:persp3d-origin="300 : 166.66667 : 1">
		</inkscape:perspective>
	
		<inkscape:perspective  id="perspective2913" inkscape:vp_z="212.16249 : 105.6375 : 1" inkscape:vp_x="0 : 105.6375 : 1" sodipodi:type="inkscape:persp3d" inkscape:vp_y="0 : 1000 : 0" inkscape:persp3d-origin="106.08125 : 70.425003 : 1">
		</inkscape:perspective>
	
		<inkscape:perspective  id="perspective2881" inkscape:vp_z="700 : 306.25 : 1" inkscape:vp_x="0 : 306.25 : 1" sodipodi:type="inkscape:persp3d" inkscape:vp_y="0 : 1000 : 0" inkscape:persp3d-origin="350 : 204.16667 : 1">
		</inkscape:perspective>
	
		<inkscape:perspective  id="perspective2847" inkscape:vp_z="600 : 250 : 1" inkscape:vp_x="0 : 250 : 1" sodipodi:type="inkscape:persp3d" inkscape:vp_y="0 : 1000 : 0" inkscape:persp3d-origin="300 : 166.66667 : 1">
		</inkscape:perspective>
</defs>
<g id="g3733" transform="translate(-2.6759576e-6,6.350561e-8)">
	<g id="g3389" transform="matrix(0.320701,0,0,0.3242683,-3.7460119,-3.1737981)">
		<path id="path33" fill-opacity="0.1786" d="M287.044,30.685L26.881,457.89c-4.991,8.158-4.991,18.238,0,26.4
			c4.896,8.062,14.114,13.149,24.099,13.149h520.323c9.887,0,19.102-5.087,24.096-13.149c4.893-8.161,4.893-18.241,0-26.4
			L335.236,30.685c-4.991-8.16-14.208-13.248-24.096-13.248S292.035,22.525,287.044,30.685z"/>
		<path id="path35" fill="#666666" d="M275.585,23.036L15.425,450.24c-4.994,8.158-4.994,18.238,0,26.4
			c4.896,8.065,14.111,13.149,24.096,13.149h520.323c9.887,0,19.105-5.084,24.096-13.149c4.896-8.161,4.896-18.241,0-26.4
			L323.777,23.036c-4.991-8.16-14.205-13.248-24.096-13.248C289.794,9.788,280.579,14.876,275.585,23.036z"/>
		<path id="path37" fill="#808080" d="M299.681,31.772c-1.632,0-3.167,0.863-4.032,2.208L165.57,247.581L35.49,461.184
			c-0.865,1.343-0.865,3.072,0,4.415c0.865,1.343,2.399,2.208,4.032,2.208h520.323c1.632,0,3.167-0.864,4.032-2.208
			c0.865-1.343,0.865-3.072,0-4.415L303.713,33.98C302.851,32.635,301.313,31.772,299.681,31.772z"/>
		<path id="path39" fill="#999999" stroke="#E7E7EF" stroke-width="11.52" stroke-linejoin="round" d="M299.648,31.772
			c-1.632,0-3.17,0.863-4.035,2.208l-130.08,213.602L35.453,461.184c-0.865,1.343-0.865,3.072,0,4.415
			c0.865,1.343,2.4,2.208,4.032,2.208h520.323c1.632,0,3.167-0.864,4.032-2.208c0.865-1.343,0.865-3.072,0-4.415L303.679,33.98
			C302.815,32.635,301.28,31.772,299.648,31.772z"/>
		
			<linearGradient id="path41_1_" gradientUnits="userSpaceOnUse" x1="4509.52" y1="-9363.7988" x2="4813.3286" y2="-9363.7988" gradientTransform="matrix(0.1309 0 0 -0.1188 -540.1865 -929.004)">
			<stop  offset="0" style="stop-color:#DDDDDD"/>
			<stop  offset="1" style="stop-color:#F5F5F5"/>
		</linearGradient>
		<path id="path41" fill="url(#path41_1_)" d="M299.751,39.465c-1.547,0.077-2.987,0.938-3.809,2.22l-130.08,213.603l-18.121,29.761
			c44.135,26.49,95.774,41.759,150.96,41.759c55.972,0,108.308-15.678,152.851-42.87L304.011,41.685
			c-0.865-1.343-2.387-2.22-4.02-2.22C299.916,39.465,299.827,39.461,299.751,39.465z"/>
		
			<radialGradient id="path43_1_" cx="2474.6345" cy="3116.5007" r="179.55" gradientTransform="matrix(3.665356e-009 0.4911 0.2842 7.023545e-006 -586.1447 -1007.8195)" gradientUnits="userSpaceOnUse">
			<stop  offset="0" style="stop-color:#FFFFFF"/>
			<stop  offset="0.5" style="stop-color:#FFFFFF"/>
			<stop  offset="1" style="stop-color:#D5D5D5"/>
		</radialGradient>
		<path id="path43" fill="url(#path43_1_)" d="M286.435,145.725L129.281,403.678c-2.689,4.514-2.689,10.08,0,14.495
			c2.689,4.511,7.777,7.297,13.249,7.297h314.21c5.472,0,10.56-2.786,13.246-7.297c2.689-4.511,2.689-9.98,0-14.495L312.93,145.725
			c-2.689-4.513-7.777-7.297-13.249-7.297C294.209,138.428,289.124,141.212,286.435,145.725z"/>
		<g id="g2442" transform="translate(-158.42161,-122.37681)">
			<g id="g2456" transform="matrix(0.6952148,0,0,0.6952148,206.77686,173.75844)">
				<path id="path633" fill="#666666" d="M590.358,519.121l-245.612,0.321c-2.225-0.204-3.837-0.71-2.996-3.362l90.251-115.692
					c3.119-4.423,7.827-6.814,12.566-6.675l45.351-0.1c7.354-0.004,10.192,2.127,14.24,7.204l88.377,114.124
					C593.341,516.946,592.618,518.956,590.358,519.121z"/>
				<path id="rect613" fill="#666666" d="M330.042,271.196l35.181,18.465c5.479,2.874,7.761,10.037,5.098,15.993l-41.234,92.256
					c-2.663,5.956-9.264,8.46-14.739,5.584l-35.185-18.467c-5.479-2.876-7.761-10.037-5.098-15.998l41.234-92.254
					C317.962,270.817,324.563,268.32,330.042,271.196z"/>
				<path id="rect615" fill="#666666" d="M276.027,268.595h81.176c5.199,0,9.413,3.58,9.413,7.999v16.5
					c0,4.416-4.214,8.003-9.413,8.003h-81.176c-5.199,0-9.413-3.587-9.413-8.003v-16.5
					C266.614,272.175,270.828,268.595,276.027,268.595z"/>
				<path id="rect616" fill="#666666" d="M231.245,340.647l35.457-66.826c2.273-4.28,6.382-5.714,9.181-3.206l10.446,9.368
					c2.799,2.508,3.228,8.01,0.959,12.29l-35.457,66.828c-2.273,4.28-6.382,5.709-9.181,3.206l-10.447-9.37
					C229.406,350.428,228.976,344.927,231.245,340.647z"/>
				<path id="rect617" fill="#666666" d="M263.461,347.626L473.52,458.375c13.451,7.091,23.609,14.377,22.689,16.275l-3.438,7.083
					c-0.92,1.893-12.571-2.318-26.022-9.405L256.689,361.574c-13.451-7.091-23.609-14.378-22.689-16.275l3.438-7.078
					C238.358,336.324,250.009,340.534,263.461,347.626z"/>
				<path id="rect618" fill="#666666" d="M358.85,401.051l-6.264-109.374c-0.403-7.002,2.243-12.909,5.904-13.191l13.683-1.057
					c3.666-0.281,6.96,5.166,7.363,12.168l6.264,109.374c0.403,7-2.243,12.909-5.904,13.186l-13.683,1.057
					C362.546,413.501,359.253,408.051,358.85,401.051z"/>
				
					<ellipse id="path619" sodipodi:ry="32.5" sodipodi:rx="31.25" sodipodi:cy="467.36218" sodipodi:cx="418.75" fill="#666666" cx="385.805" cy="253.593" rx="29.925" ry="31.616">
				</ellipse>
				<path id="rect621" fill="#666666" d="M306.179,450.452l-14.831-61.617c-0.95-3.942,1.673-7.724,5.861-8.438l15.628-2.677
					c4.187-0.719,8.348,1.897,9.299,5.844l14.831,61.612c0.95,3.942-1.673,7.724-5.861,8.439l-15.628,2.677
					C311.291,457.01,307.13,454.394,306.179,450.452z"/>
				<path id="rect622" fill="#666666" d="M306.626,510.058l-0.477-63.514c-0.031-4.063,3.377-7.096,7.613-6.766l15.816,1.217
					c4.235,0.325,7.691,3.89,7.722,7.958l0.482,63.51c0.031,4.068-3.377,7.1-7.613,6.771l-15.816-1.222
					C310.117,517.687,306.657,514.122,306.626,510.058z"/>
				<path id="rect623" fill="#666666" d="M207.68,489.222l62.933-110.55c4.03-7.078,10.175-10.791,13.727-8.291l13.267,9.331
					c3.557,2.504,3.167,10.267-0.863,17.345l-62.928,110.55c-4.03,7.083-10.179,10.795-13.732,8.296l-13.267-9.335
					C203.265,504.067,203.651,496.3,207.68,489.222z"/>
			</g>
		</g>
	</g>
</g>
</svg>
