<?xml version="1.0" encoding="utf-8"?>
<svg version="1.1" id="Layer_1" xmlns="http://www.w3.org/2000/svg" xmlns:xlink="http://www.w3.org/1999/xlink" x="0px" y="0px"
	 width="1000px" height="329.813px" viewBox="0 0 1000 329.813" enable-background="new 0 0 1000 329.813" xml:space="preserve">
<path fill="#1CE783" d="M222.36,123.292c16.556,13.46,24.846,34.472,24.846,63.043v143.478h-78.882V196.894
	c0-5.794-2.174-10.869-6.521-15.217c-4.349-4.349-9.425-6.521-15.218-6.521h-45.963c-5.803,0-10.772,2.173-14.906,6.521
	c-4.144,4.348-6.212,9.423-6.212,15.217v132.919H0V0h79.503v107.453c1.243-0.408,4.134-1.242,8.697-2.485
	c4.551-1.241,10.557-1.862,18.012-1.862h50.931C184.055,103.105,205.795,109.84,222.36,123.292z M472.671,103.105h79.503v139.13
	c0,26.087-7.144,47.205-21.428,63.354c-14.286,16.149-33.648,24.224-58.075,24.224H394.41c-27.329,0-49.175-7.55-65.527-22.67
	c-16.364-15.111-24.536-36.743-24.536-64.907v-139.13h79.503v132.919c0,5.804,2.069,10.772,6.212,14.907
	c4.134,4.144,9.104,6.211,14.907,6.211h45.964c5.793,0,10.868-2.067,15.217-6.211c4.349-4.135,6.521-9.104,6.521-14.907V103.105z
	 M612.422,0h79.503v329.813h-79.503V0z M1000,103.105v139.13c0,26.087-7.144,47.205-21.429,63.354
	c-14.285,16.149-33.646,24.224-58.074,24.224h-77.64c-27.746,0-49.797-7.55-66.149-22.67
	c-16.363-15.111-24.534-36.743-24.534-64.907v-139.13h79.503v132.919c0,5.804,2.066,10.772,6.211,14.907
	c4.135,4.144,9.104,6.211,14.906,6.211h46.584c5.795,0,10.764-2.067,14.907-6.211c4.134-4.135,6.212-9.104,6.212-14.907V103.105
	H1000z"/>
</svg>
