<?xml version="1.0" encoding="UTF-8" standalone="no"?>
<!-- Created with Inkscape (http://www.inkscape.org/) -->

<svg
   xmlns:dc="http://purl.org/dc/elements/1.1/"
   xmlns:cc="http://creativecommons.org/ns#"
   xmlns:rdf="http://www.w3.org/1999/02/22-rdf-syntax-ns#"
   xmlns:svg="http://www.w3.org/2000/svg"
   xmlns="http://www.w3.org/2000/svg"
   xmlns:sodipodi="http://sodipodi.sourceforge.net/DTD/sodipodi-0.dtd"
   xmlns:inkscape="http://www.inkscape.org/namespaces/inkscape"
   id="svg4886"
   version="1.1"
   inkscape:version="0.91 r13725"
   width="263.4375"
   height="371.25"
   viewBox="0 0 263.4375 371.25"
   sodipodi:docname="Hangugeo-Chosonmal.svg">
  <metadata
     id="metadata4892">
    <rdf:RDF>
      <cc:Work
         rdf:about="">
        <dc:format>image/svg+xml</dc:format>
        <dc:type
           rdf:resource="http://purl.org/dc/dcmitype/StillImage" />
        <dc:title></dc:title>
      </cc:Work>
    </rdf:RDF>
  </metadata>
  <defs
     id="defs4890" />
  <sodipodi:namedview
     pagecolor="#ffffff"
     bordercolor="#666666"
     borderopacity="1"
     objecttolerance="10"
     gridtolerance="10"
     guidetolerance="10"
     inkscape:pageopacity="0"
     inkscape:pageshadow="2"
     inkscape:window-width="1366"
     inkscape:window-height="706"
     id="namedview4888"
     showgrid="false"
     inkscape:zoom="1.430303"
     inkscape:cx="45.373411"
     inkscape:cy="185.625"
     inkscape:window-x="-8"
     inkscape:window-y="-8"
     inkscape:window-maximized="1"
     inkscape:current-layer="svg4886" />
  <path
     style="fill:#000000"
     d="m 79.130546,368.82279 c 1.443539,-5.21035 1.485024,-9.47069 0.177017,-18.17925 -0.796553,-5.30337 -1.881579,-17.26315 -2.411166,-26.57728 -0.529586,-9.31413 -1.157514,-17.12941 -1.395394,-17.36729 -0.237882,-0.23788 -1.918089,0.2759 -3.733795,1.14176 -1.815707,0.86585 -4.259697,1.57427 -5.43109,1.57427 -2.342132,0 -7.671541,-3.56256 -10.20761,-6.8235 l -1.619779,-2.08275 -0.02085,2.61547 c -0.05033,6.31398 -7.685454,15.23228 -14.888136,17.39026 -6.48364,1.94254 -15.11068,1.38271 -20.5632,-1.33439 -5.60147,-2.79133 -11.7921703,-9.35596 -13.3906903,-14.19954 -1.39384,-4.22336 -0.63496,-13.02182 1.48441,-17.21041 4.0399003,-7.9842 9.8318303,-11.31092 20.7351303,-11.90966 9.02904,-0.49584 12.74478,0.53949 17.96126,5.00461 4.837875,4.14104 7.594076,8.58979 8.458354,13.65256 l 0.678746,3.97594 6.548517,-0.1902 c 3.601684,-0.10461 8.341486,-0.43738 10.532892,-0.73949 l 3.984375,-0.5493 0,-14.01768 c 0,-8.44856 -0.414818,-14.83124 -1.044111,-16.06543 -0.574261,-1.12625 -3.374752,-4.43921 -6.223315,-7.36211 -3.683415,-3.77954 -5.002174,-5.7757 -4.566231,-6.91175 1.52619,-3.97719 17.641166,0.89986 23.630736,7.15163 l 2.532809,2.64368 -0.554548,37.77791 c -0.305002,20.77785 -1.028663,40.94196 -1.608137,44.80915 -1.294334,8.63789 -6.550812,24.59274 -8.281208,25.13573 -0.858163,0.26929 -1.112826,-0.16963 -0.784986,-1.35294 z m -42.871073,-59.3106 c 8.55536,-3.88566 10.434676,-11.34324 4.51085,-17.9002 -5.91937,-6.55204 -14.23457,-7.27919 -20.48484,-1.79139 -4.5053,3.95571 -5.77835,8.2347 -3.73254,12.54592 2.29403,4.83429 8.29902,8.75664 13.53909,8.84346 1.28907,0.0214 4.06441,-0.74265 6.16744,-1.69779 z m 172.426317,59.2872 c -4.51473,-2.37261 -8.77353,-6.93704 -9.39869,-10.07318 -1.44259,-7.2367 -2.46819,-9.00648 -6.63418,-11.44792 -5.20697,-3.05149 -6.77672,-5.61173 -4.70866,-7.67979 1.09742,-1.09742 4.53536,-1.65362 13.48976,-2.18243 11.54375,-0.6817 23.45174,-2.16979 24.32124,-3.0393 0.22822,-0.22821 0.1196,-2.38436 -0.24136,-4.79145 l -0.6563,-4.37652 -4.80466,0.6501 c -2.64256,0.35755 -7.94961,1.4494 -11.79345,2.42632 -6.48823,1.64902 -7.34589,1.67243 -11.97464,0.32682 -2.74223,-0.79719 -6.34726,-2.67224 -8.01121,-4.1668 -4.90853,-4.40884 -3.08647,-5.10105 15.06523,-5.72333 15.41805,-0.52857 22.59516,-1.77633 24.68221,-4.29109 0.75141,-0.90538 0.73584,-3.73014 -0.0573,-10.39514 -0.59897,-5.03356 -1.32857,-15.69099 -1.62132,-23.68318 -0.59268,-16.18003 -0.83076,-16.90388 -7.50366,-22.81405 -2.2326,-1.97742 -4.05928,-3.94005 -4.05928,-4.36141 0,-1.46343 5.3557,-2.62197 8.99553,-1.9459 4.21429,0.78278 8.84926,3.00087 13.40899,6.41694 l 3.18577,2.38672 -0.64006,17.1901 c -0.71697,19.25563 -0.74341,19.18518 5.70444,15.20019 2.48905,-1.53832 4.18735,-1.88085 7.48338,-1.50934 7.41146,0.83538 11.26683,5.3346 8.69271,10.14439 -1.03061,1.92573 -1.54796,2.01766 -8.26199,1.46821 -3.9394,-0.32239 -8.6962,-0.85057 -10.57071,-1.17373 -3.22782,-0.55648 -3.46358,-0.42077 -4.45476,2.56452 -0.57562,1.73366 -2.28181,5.01241 -3.79154,7.28611 l -2.74498,4.134 3.77912,2.73758 c 4.21709,3.05485 4.22373,3.16709 0.72145,12.20761 -1.9482,5.02893 -1.98605,5.51802 -0.54979,7.10507 1.83034,2.0225 2.00969,5.16686 0.37057,6.49655 -0.64454,0.52285 -7.6986,1.65201 -15.6757,2.50924 -7.9771,0.85722 -14.65328,1.70805 -14.83595,1.89072 -0.18268,0.18268 -0.0371,2.29962 0.32352,4.70434 1.01428,6.76373 3.03864,7.12132 20.21982,3.57169 8.59662,-1.77605 11.80788,-1.2047 12.6763,2.25539 1.18388,4.71692 -1.23746,7.09085 -9.53545,9.34877 -8.93982,2.43257 -16.71552,2.67163 -20.59442,0.63318 z m -41.24068,-57.49136 c -0.7948,-1.53697 -2.13348,-7.2447 -2.97486,-12.68386 -1.33261,-8.61481 -2.06842,-10.79451 -5.70914,-16.91217 -3.42022,-5.74716 -3.97027,-7.27475 -3.02818,-8.40989 2.5904,-3.12124 9.95403,-0.85252 16.15598,4.97762 2.26005,2.12455 2.57913,3.12484 2.58628,8.10754 0.005,3.12619 0.2804,7.95137 0.61316,10.72262 l 0.60501,5.03863 5.71497,-0.51049 c 7.79499,-0.69629 15.84757,-3.24303 15.24222,-4.82056 -0.25936,-0.67587 -0.77489,-4.70626 -1.14564,-8.95644 l -0.67409,-7.72759 -4.32252,0.75078 c -7.56734,1.31438 -12.01681,0.97678 -14.83241,-1.12537 -1.4383,-1.07384 -2.6151,-2.74925 -2.6151,-3.72313 0,-1.48784 1.15671,-1.94692 7.24161,-2.87411 4.32888,-0.65961 9.11086,-2.12082 11.88896,-3.63285 5.14175,-2.79849 7.6401,-2.51964 13.25655,1.47962 4.0217,2.8637 4.79639,4.78137 3.18572,7.88593 -0.74475,1.43551 -1.35409,4.23455 -1.35409,6.22009 0,1.98554 -0.66039,5.55521 -1.46753,7.93261 -1.33172,3.92248 -1.33172,4.52982 0,6.56227 0.80714,1.23187 1.46753,3.24156 1.46753,4.466 0,3.65994 -3.65892,4.61266 -18.65522,4.85751 l -13.49896,0.2204 -1.2966,2.47466 c -1.738,3.3171 -4.57646,3.17489 -6.38365,-0.31982 z M 73.762158,237.17276 c -0.379113,-4.86834 -0.973263,-11.80464 -1.320333,-15.41401 l -0.631038,-6.5625 -3.75,0.30197 c -5.605563,0.45139 -16.280523,2.99202 -20.91061,4.97671 -2.248723,0.96391 -5.307204,1.75257 -6.796634,1.75257 -5.60856,0 -18.69901,-7.59128 -18.69901,-10.84373 0,-1.06118 2.81822,-1.28612 15.23438,-1.21593 14.133817,0.0799 21.142134,-0.57534 32.726072,-3.05965 4.138915,-0.88764 4.539552,-1.20951 4.539552,-3.64709 0,-1.47044 -0.58769,-5.54876 -1.305978,-9.06293 -0.718288,-3.51418 -1.592394,-8.8152 -1.942459,-11.78005 -0.597741,-5.06251 -0.789294,-5.39055 -3.147147,-5.38949 -6.389419,0.003 -28.39469,3.13624 -36.54438,5.20359 -4.97656,1.2624 -9.79512,2.29528 -10.70791,2.29528 -2.65833,0 -13.4836603,-5.46603 -16.6109603,-8.38737 -1.57639,-1.47257 -2.86617,-3.39114 -2.86617,-4.26347 0,-1.45674 1.40436,-1.53097 17.2207803,-0.91027 9.47143,0.3717 22.57745,0.36686 29.124492,-0.0108 l 11.903716,-0.68658 3.231823,-4.35515 c 1.777502,-2.39533 4.956615,-7.78311 7.064695,-11.97283 3.378248,-6.71413 3.696065,-7.88172 2.679467,-9.84375 -1.84765,-3.56594 -3.883875,-5.5073 -5.776436,-5.5073 -2.137448,0 -10.457989,4.12721 -14.443275,7.16426 -3.443254,2.62398 -5.098584,2.72014 -11.228882,0.65231 -10.24775,-3.45673 -11.50482,-6.43882 -4.0636,-9.63994 8.00365,-3.44308 29.286709,-10.33924 31.948719,-10.35206 5.287838,-0.0255 16.212929,11.17865 18.569323,19.04359 1.148432,3.83313 1.126382,3.90278 -1.97497,6.2385 -1.725001,1.29915 -5.040593,4.19108 -7.367982,6.4265 -2.327389,2.23542 -6.446447,5.33428 -9.153462,6.88635 -2.707014,1.55207 -5.196508,3.26635 -5.532206,3.80953 -1.031574,1.66912 8.777749,-0.0793 17.860087,-3.1834 9.590885,-3.27791 15.220106,-3.16396 21.662148,0.43848 3.13385,1.75247 3.79026,2.6381 4.02609,5.43198 0.46652,5.52658 -0.88823,5.98696 -14.154444,4.80999 -6.973059,-0.61865 -11.787581,-0.67791 -12.330454,-0.15176 -0.557785,0.54059 -0.45427,0.86317 0.276989,0.86317 0.642188,0 2.200841,1.03323 3.463676,2.29606 1.950518,1.95052 2.152751,2.67301 1.343787,4.80074 -0.523754,1.37758 -1.341701,5.25451 -1.817662,8.6154 -0.644874,4.55363 -1.578516,6.99812 -3.664041,9.59327 l -2.798655,3.48256 4.535498,2.04979 c 5.383047,2.43283 6.03623,3.69812 4.30052,8.33066 -0.718736,1.91827 -1.556168,6.2066 -1.860961,9.52961 -0.606757,6.61516 -2.7764,11.89818 -6.9291,16.87217 l -2.693759,3.2265 -0.689296,-8.8515 z m 133.616752,6.80147 c -2.16145,-1.1592 -4.89304,-4.4751 -8.68838,-10.54688 -3.04467,-4.87085 -7.02991,-10.66175 -8.85609,-12.86866 -7.19222,-8.69165 -7.26125,-11.45619 -0.28607,-11.45619 5.96207,0 11.63816,2.33455 14.10743,5.80232 1.74299,2.4478 1.90062,3.55258 1.33123,9.33086 -0.44808,4.54741 -0.30436,6.96577 0.46937,7.89806 1.61807,1.94965 8.88562,1.68634 19.2655,-0.69799 12.04601,-2.76707 15.73554,-1.40206 14.07656,5.20786 -1.62333,6.46786 -23.5077,11.57379 -31.41955,7.33062 z m 20.11737,-27.84048 c 0.45284,-2.0625 0.82349,-5.64844 0.82367,-7.96875 4.4e-4,-5.72471 -2.40322,-36.92846 -2.88423,-37.44245 -0.21165,-0.22615 -2.28528,0.51213 -4.60808,1.64063 -5.46006,2.65271 -6.48766,2.58863 -12.34334,-0.76966 -9.21342,-5.28399 -8.73513,-9.36602 1.09742,-9.36602 3.20244,0 8.21328,-0.48011 11.13521,-1.06692 l 5.31261,-1.06692 0,-8.36971 c 0,-4.60334 -0.47912,-9.2912 -1.0647,-10.41746 -0.58558,-1.12625 -3.36929,-4.48574 -6.18602,-7.46551 -4.22854,-4.4733 -4.92179,-5.65817 -3.97676,-6.79687 2.70425,-3.25842 14.88399,0.31622 22.2431,6.52816 l 3.04688,2.57191 -0.008,18.90103 c -0.009,21.31585 -1.14685,36.86885 -3.30075,45.11868 -1.65561,6.34133 -6.53294,16.75703 -8.67909,18.53448 -1.26205,1.04525 -1.33391,0.74208 -0.6079,-2.56462 z m -34.59641,-17.10938 c -0.24392,-0.90234 -1.36011,-5.48573 -2.48041,-10.1853 -1.12029,-4.69958 -2.84138,-9.86755 -3.82463,-11.48438 -1.81111,-2.97814 -3.99322,-3.78742 -5.15286,-1.91105 -1.26502,2.04683 -13.69353,9.43856 -18.8572,11.21512 -5.59748,1.92581 -11.09997,2.37633 -11.96327,0.97947 -0.62267,-1.0075 1.62094,-1.97323 4.58428,-1.97323 3.76285,0 26.81037,-26.52105 26.732,-30.76083 -0.0161,-0.87061 -1.06862,-3.27042 -2.33895,-5.33292 -2.64377,-4.29242 -3.01758,-8.43769 -0.83636,-9.2747 4.81239,-1.84669 10.20515,0.66449 16.30244,7.59138 5.03481,5.71986 4.99611,8.37153 -0.20455,14.01358 l -3.98169,4.31962 2.34106,1.5093 c 5.95605,3.83991 7.16684,5.89169 7.83627,13.27915 0.78187,8.62812 0.091,12.64517 -2.85618,16.60854 -2.50187,3.36449 -4.61873,3.92615 -5.29995,1.40625 z M 60.560787,118.54195 c -4.570616,-2.50664 -6.988907,-5.10518 -12.141511,-13.04651 -2.681192,-4.13233 -6.319643,-8.727275 -8.085443,-10.210985 -4.91834,-4.13263 -5.97429,-5.95253 -4.49091,-7.7399 1.55531,-1.87403 10.329331,-1.26101 14.762374,1.03141 3.563218,1.84261 4.79924,4.63851 4.79924,10.85595 0,2.520295 0.489592,5.656905 1.087983,6.970225 0.996517,2.18711 1.579325,2.38786 6.932498,2.38786 3.27882,0 8.627755,-0.85966 12.184583,-1.95825 7.201951,-2.22445 10.275702,-1.59419 11.25504,2.3078 1.42102,5.66179 -5.438602,10.08311 -16.460104,10.60922 -5.255838,0.25088 -7.741415,-0.0538 -9.84375,-1.20682 z M 161.42475,101.75839 c -3.30608,-1.781465 -6.99749,-4.165735 -8.20313,-5.298375 -2.34678,-2.20468 -2.9501,-5.4639 -1.02021,-5.51131 0.64454,-0.0158 14.53141,-0.1213 30.85974,-0.23438 16.32832,-0.11307 29.97678,-0.49466 30.3299,-0.84797 1.04325,-1.04384 -2.24209,-9.69269 -5.26921,-13.8715 -5.25601,-7.255713 -5.21644,-10.329861 0.13296,-10.329861 3.35959,0 13.79903,5.326523 15.06103,7.684606 0.93862,1.753816 0.71488,6.104445 -0.67754,13.174765 -0.46647,2.36863 -0.27084,2.57813 2.40751,2.57813 1.60338,0 5.47286,-1.07649 8.59883,-2.39219 5.18765,-2.18346 6.12088,-2.30141 10.69518,-1.35179 6.89398,1.43119 11.14395,4.42658 11.50597,8.10944 0.47886,4.87137 -1.88918,6.33499 -8.66967,5.35849 -3.12279,-0.44973 -14.74813,-0.78514 -25.83407,-0.74535 -21.19424,0.0761 -33.16957,1.47544 -44.2673,5.172795 -7.22091,2.40575 -8.66631,2.26763 -15.64999,-1.4955 z M 79.17668,93.332665 c 1.489004,-3.88028 1.554029,-10.80917 0.158477,-16.88642 C 78.315714,72.006849 77.542165,61.542974 76.944124,44.102494 76.457896,29.922806 75.822695,17.32608 75.532568,16.109769 75.24244,14.893457 72.865486,11.636007 70.250447,8.8709884 c -5.66906,-5.994195 -5.581992,-7.90338004 0.359042,-7.87290504 4.552396,0.02335 9.682329,2.15286804 15.498173,6.43353204 l 3.984375,2.9326396 0,23.431619 c 0,18.131277 0.265084,23.426962 1.171875,23.411031 0.644531,-0.01132 3.058425,-0.876346 5.364206,-1.92227 5.161522,-2.341313 10.519762,-1.711521 13.860392,1.629107 1.75952,1.75952 2.14087,2.863533 1.66288,4.814055 -1.18066,4.817839 -2.21062,5.155365 -10.77442,3.530841 -11.769471,-2.232631 -12.222433,-2.15439 -12.222433,2.111199 0,1.968913 -0.659805,5.801647 -1.466234,8.517188 -1.746751,5.88195 -7.541129,18.84047 -8.424481,18.84047 -0.342314,0 -0.381528,-0.62768 -0.08714,-1.39483 z M 31.617813,80.226085 c -4.88949,-1.7429 -9.98207,-5.983928 -12.52598,-10.431463 -4.58888,-8.022794 -1.32516,-17.089569 7.7499,-21.529585 9.50813,-4.651894 20.833753,-1.951858 27.068208,6.453079 1.537769,2.073134 1.963346,4.019481 1.963346,8.979228 0,5.447837 -0.356457,6.799693 -2.551911,9.678082 -2.96198,3.883359 -11.067243,8.245469 -15.210283,8.185919 -1.57455,-0.0226 -4.49652,-0.6235 -6.49328,-1.33526 z M 44.857662,68.238157 c 5.812955,-5.408205 -1.219119,-14.385866 -10.232089,-13.063042 -3.42664,0.502924 -7.34604,4.213832 -7.34604,6.955265 0,7.560356 11.6616,11.612347 17.578129,6.107777 z M 169.31643,62.861629 c -0.28957,-0.468544 0.85633,-1.064365 2.54643,-1.324047 1.69011,-0.259683 4.59671,-0.711062 6.45911,-1.003066 8.68688,-1.362009 30.83257,-22.049992 30.83257,-28.803067 0,-2.154254 -1.90969,-2.112711 -8.4375,0.183545 -2.83594,0.997584 -6.30438,1.827562 -7.70765,1.844394 -3.32397,0.03987 -11.95772,-3.833517 -14.21861,-6.378949 -1.51955,-1.710791 -1.58826,-2.211782 -0.48551,-3.540502 1.08388,-1.306001 2.53168,-1.459161 9.27001,-0.980653 12.80311,0.909185 24.5095,-0.760378 32.99741,-4.706082 5.89469,-2.740222 7.82502,-3.22936 10.65161,-2.699086 6.39324,1.199376 10.21923,7.770485 6.37877,10.955461 -0.86462,0.717044 -3.87367,1.331539 -6.79687,1.388025 -2.88498,0.05574 -7.53619,0.161216 -10.33604,0.234375 l -5.09062,0.133017 3.91875,3.354303 c 4.25154,3.63916 4.76832,5.403042 2.36199,8.062 -0.85621,0.946105 -1.29481,1.982132 -0.97466,2.302281 0.83314,0.833137 8.01954,2.130078 12.06886,2.178087 2.29416,0.0272 4.40656,0.851018 6.32813,2.467917 2.49468,2.099137 2.88443,3.04475 2.88443,6.998265 0,3.559899 -0.40117,4.785877 -1.81337,5.541662 -3.1412,1.681121 -4.64614,1.105754 -10.83075,-4.14082 -6.11945,-5.19129 -10.65293,-8.016106 -12.8562,-8.010711 -0.67013,0.0017 -3.74968,1.712365 -6.84343,3.801609 -7.99886,5.401721 -13.16473,7.927213 -20.64864,10.094721 -7.38595,2.139132 -18.86276,3.334394 -19.65822,2.047321 z M 12.278553,42.283402 C 8.0559227,40.049725 5.3486427,37.039736 6.0106327,35.314629 c 0.41648,-1.085337 3.49541,-1.425997 15.3480803,-1.698148 13.10029,-0.300799 15.77332,-0.644928 22.95206,-2.954883 l 8.124991,-2.614436 3.759971,1.918194 c 2.067984,1.055007 4.024954,2.753084 4.348823,3.773504 0.760691,2.396726 -0.999082,5.669847 -3.063631,5.698254 -13.379044,0.184089 -23.826894,1.112377 -30.585294,2.717493 -9.84315,2.337744 -10.43139,2.342927 -14.61708,0.128795 z m 14.53223,-17.411921 c -4.003,-2.63995 -8.4375,-7.879584 -8.4375,-9.969433 0,-0.83885 0.95233,-1.185074 2.8125,-1.0225 1.54688,0.135193 6.82032,0.477755 11.71875,0.761249 4.89844,0.283494 10.07178,0.964569 11.4963,1.513498 2.634221,1.015073 4.237377,4.440137 3.008766,6.428072 -1.047868,1.695486 -6.042646,3.465471 -11.692566,4.143459 -4.57422,0.548907 -5.57954,0.339594 -8.90625,-1.854345 z"
     id="path4896"
     inkscape:connector-curvature="0" />
</svg>
