<?xml version="1.0" encoding="UTF-8" standalone="no"?>
<svg
   width="109.68018pt"
   height="42.013275pt"
   viewBox="0 0 109.68017 42.013275"
   version="1.1"
   id="svg20"
   sodipodi:docname="Abecedarium latinum clasicum.svg"
   inkscape:version="1.1.2 (0a00cf5339, 2022-02-04)"
   xmlns:inkscape="http://www.inkscape.org/namespaces/inkscape"
   xmlns:sodipodi="http://sodipodi.sourceforge.net/DTD/sodipodi-0.dtd"
   xmlns="http://www.w3.org/2000/svg"
   xmlns:svg="http://www.w3.org/2000/svg"
   xmlns:rdf="http://www.w3.org/1999/02/22-rdf-syntax-ns#"
   xmlns:cc="http://creativecommons.org/ns#"
   xmlns:dc="http://purl.org/dc/elements/1.1/">
  <metadata
     id="metadata26">
    <rdf:RDF>
      <cc:Work
         rdf:about="">
        <dc:format>image/svg+xml</dc:format>
        <dc:type
           rdf:resource="http://purl.org/dc/dcmitype/StillImage" />
      </cc:Work>
    </rdf:RDF>
  </metadata>
  <defs
     id="defs24" />
  <sodipodi:namedview
     pagecolor="#ffffff"
     bordercolor="#666666"
     borderopacity="1"
     objecttolerance="10"
     gridtolerance="10"
     guidetolerance="10"
     inkscape:pageopacity="0"
     inkscape:pageshadow="2"
     inkscape:window-width="1920"
     inkscape:window-height="1008"
     id="namedview22"
     showgrid="false"
     inkscape:zoom="3.7195611"
     inkscape:cx="87.375901"
     inkscape:cy="-18.819425"
     inkscape:window-x="0"
     inkscape:window-y="0"
     inkscape:window-maximized="1"
     inkscape:current-layer="svg20"
     inkscape:snap-object-midpoints="true"
     inkscape:snap-center="true"
     inkscape:snap-smooth-nodes="true"
     showguides="false"
     inkscape:pagecheckerboard="0"
     inkscape:document-units="pt" />
  <g
     aria-label="A B C D E F G H                I K L M N O P Q                R S T V X Y Z"
     id="text818-3"
     style="font-size:8px;line-height:0;font-family:'Trajan Pro Katzner';-inkscape-font-specification:'Trajan Pro Katzner';text-align:center;text-anchor:middle;opacity:1;vector-effect:none;stroke-width:0.15;stroke-linecap:square;stroke-linejoin:bevel;paint-order:markers stroke fill"
     transform="translate(2.4979775,2.4994043)">
    <path
       d="m 5.3589992,5.4625004 c 0.0575,0 0.0805,0.023 0.1035,0.069 l 1.0695,2.829 c 0.069,0.184 0,0.2875 -0.069,0.3105 -0.046,0.0115 -0.0805,0.0345 -0.0805,0.0805 0,0.069 0.1265,0.069 0.345,0.0805 0.7935,0.023 1.633,0.023 1.8055,0.023 0.1265,0 0.23,-0.023 0.23,-0.092 0,-0.0575 -0.0575,-0.069 -0.1265,-0.069 -0.092,0 -0.276,-0.0115 -0.4485,-0.069 -0.2415,-0.069 -0.575,-0.253 -0.989,-1.2765 -0.7015,-1.748 -2.507,-6.49750003 -2.6795,-6.93450003 -0.138,-0.3565 -0.184,-0.41399999615967 -0.253,-0.41399999615967 -0.069,0 -0.115,0.0689999961597 -0.253,0.44849999615967 l -2.6105,7.14150003 c -0.207,0.575 -0.43700001,1.012 -0.96600001,1.081 -0.092,0.0115 -0.1955,0.023 -0.276,0.023 -0.1035,0 -0.16099999871582,0.023 -0.16099999871582,0.069 0,0.069 0.0689999987158,0.092 0.21849999871582,0.092 0.5405,0 1.17300001,-0.0345 1.29950001,-0.0345 0.1265,0 0.5865,0.0345 0.8625,0.0345 0.1035,0 0.207,-0.023 0.207,-0.092 0,-0.046 -0.0345,-0.069 -0.1495,-0.069 h -0.1035 c -0.1955,0 -0.414,-0.1035 -0.414,-0.3335 0,-0.207 0.0575,-0.483 0.161,-0.7705 l 0.69,-2.0355 c 0.023,-0.0575 0.0575,-0.092 0.115,-0.092 z m -2.346,-0.414 c -0.0345,0 -0.0575,-0.023 -0.0345,-0.0805 l 1.012,-3.105 c 0.0575,-0.1725 0.115,-0.1725 0.1725,0 l 1.0925,3.105 c 0.0115,0.046 0.0115,0.0805 -0.046,0.0805 z"
       style="font-size:11.5px"
       id="path54419" />
    <path
       d="m 14.144973,5.5200004 c 0,1.104 0,2.0125 -0.0575,2.4955 -0.046,0.3335 -0.092,0.598 -0.322,0.644 -0.1035,0.023 -0.184,0.0345 -0.276,0.0345 -0.1495,0 -0.1725,0.046 -0.1725,0.0805 0,0.0575 0.0575,0.0805 0.184,0.0805 0.4025,0 0.759,-0.0345 1.127,-0.0345 0.046,0 0.368,0.0115 0.7015,0.0345 0.3335,0.0115 0.7015,0.0345 0.828,0.0345 1.9665,0 2.9325,-1.2765 2.9325,-2.507 0,-1.3455 -1.1385,-2.162 -1.9895,-2.4265 0.5405,-0.5635 1.081,-1.127 1.081,-2.07 0,-0.575 -0.414,-1.72500003 -2.3,-1.72500003 -0.529,0 -0.9775,0.0345 -1.2535,0.0345 -0.0575,0 -0.782,-0.0345 -1.2995,-0.0345 -0.1265,0 -0.184,0.023 -0.184,0.092 0,0.046 0.046,0.069 0.1495,0.069 0.046,0 0.2415,0.0115 0.3335,0.0345 0.3795,0.0805 0.4715,0.2645 0.4945,0.65550003 0.023,0.368 0.023,0.69 0.023,2.484 z m 0.92,-4.85300003 c 0,-0.069 0.0345,-0.1035 0.138,-0.1265 0.184,-0.046 0.4255,-0.0575 0.552,-0.0575 1.127,0 1.5525,1.02350003 1.5525,1.97800003 0,0.4715 -0.1725,0.8855 -0.414,1.1615 -0.2415,0.276 -0.4025,0.299 -1.0465,0.299 -0.4255,0 -0.6325,-0.0345 -0.7015,-0.046 -0.0575,-0.023 -0.0805,-0.046 -0.0805,-0.1265 z m 0,3.64550003 c 0,-0.0575 0.023,-0.0805 0.069,-0.0805 0.1725,0 0.7475,0 0.897,0.023 0.276,0.0345 0.5635,0.069 0.9545,0.3335 0.8855,0.6095 1.1155,1.61 1.1155,2.3 0,1.2995 -1.0005,1.633 -1.6215,1.633 -0.207,0 -0.7015,-0.023 -1.012,-0.1725 -0.3565,-0.1725 -0.3565,-0.3335 -0.391,-0.897 -0.0115,-0.1725 -0.0115,-1.5985 -0.0115,-2.484 z"
       style="font-size:11.5px"
       id="path54421" />
    <path
       d="m 29.635454,9.0160004 c 0.736,0 1.61,-0.0805 2.07,-0.2645 0.207,-0.092 0.23,-0.115 0.299,-0.3335 0.115,-0.391 0.253,-1.3915 0.253,-1.472 0,-0.092 -0.023,-0.1725 -0.0805,-0.1725 -0.069,0 -0.092,0.046 -0.115,0.1725 -0.0345,0.207 -0.184,0.713 -0.4255,0.966 -0.46,0.4715 -1.1385,0.575 -2.001,0.575 -2.461,0 -4.1515,-2.0125 -4.1515,-4.209 0,-1.173 0.1955,-2.1965 1.035,-3.0015 0.4025,-0.39100003 1.1155,-0.83950003 2.645,-0.83950003 1.012,0 1.8975,0.3105 2.3,0.65550003 0.299,0.253 0.483,0.7245 0.483,1.173 0,0.161 0.0115,0.2415 0.092,0.2415 0.069,0 0.092,-0.069 0.1035,-0.2415 0.0115,-0.1725 0.0115,-0.805 0.0345,-1.1845 0.023,-0.41400003 0.0575,-0.55200003 0.0575,-0.64400003 0,-0.069 -0.023,-0.115 -0.1035,-0.1265 -0.4255,-0.0575 -0.782,-0.092 -1.219,-0.1725 -0.5635,-0.1035 -1.2075,-0.13799999615967 -1.6675,-0.13799999615967 -1.771,0 -2.8175,0.54049999615967 -3.5075,1.23050002615967 -1.0235,1.0235 -1.288,2.369 -1.288,3.1395 0,1.0925 0.276,2.4035 1.3915,3.404 0.9085,0.8165 2.07,1.242 3.795,1.242 z"
       style="font-size:11.5px"
       id="path54423" />
    <path
       d="m 38.754922,5.5200004 c 0,1.104 0,2.0125 -0.0575,2.4955 -0.046,0.3335 -0.1035,0.5865 -0.3335,0.6325 -0.1035,0.023 -0.1955,0.0345 -0.322,0.046 -0.092,0 -0.115,0.0345 -0.115,0.069 0,0.069 0.0575,0.092 0.184,0.092 0.1725,0 0.437,-0.023 0.667,-0.023 0.2415,-0.0115 0.437,-0.0115 0.46,-0.0115 0.0575,0 0.4485,0.0345 0.9545,0.069 0.4945,0.0345 1.104,0.069 1.5985,0.069 1.955,0 2.99,-0.805 3.4845,-1.3225 0.644,-0.6785 1.242,-1.794 1.242,-3.243 0,-1.3685 -0.5405,-2.323 -1.1155,-2.921 -1.3685,-1.41450003 -3.473,-1.31100003 -4.6115,-1.31100003 -0.69,0 -1.4145,0.0345 -1.5525,0.0345 -0.0575,0 -0.782,-0.0345 -1.2995,-0.0345 -0.1265,0 -0.184,0.023 -0.184,0.092 0,0.046 0.046,0.069 0.1265,0.069 0.1035,0 0.299,0.0115 0.391,0.0345 0.3795,0.0805 0.437,0.2645 0.46,0.65550003 0.023,0.368 0.023,0.69 0.023,2.484 z m 0.966,-2.208 c 0,-0.8855 0,-2.0585 0.0115,-2.44950003 0,-0.1265 0.0345,-0.184 0.138,-0.23 0.092,-0.046 0.5175,-0.0805 0.7475,-0.0805 1.3685,0 2.6795,0.161 3.7605,1.29950003 0.4715,0.4945 1.104,1.4375 1.104,2.898 0,1.058 -0.322,2.162 -0.92,2.7485 -0.6785,0.6785 -1.6675,1.0695 -2.737,1.0695 -1.357,0 -1.8055,-0.2415 -1.955,-0.46 -0.092,-0.1265 -0.115,-0.5865 -0.1265,-0.874 -0.0115,-0.2185 -0.023,-1.2765 -0.023,-2.4955 z"
       style="font-size:11.5px"
       id="path54425" />
    <path
       d="m 53.037908,5.5200004 c 0,1.0235 -0.0115,1.61 -0.023,2.0585 -0.023,0.8625 -0.1725,1.0235 -0.414,1.081 -0.0805,0.023 -0.1495,0.023 -0.2645,0.0345 -0.069,0.0115 -0.1265,0.0345 -0.1265,0.069 0,0.069 0.0575,0.092 0.184,0.092 0.299,0.0115 0.575,-0.0345 0.851,-0.0345 0.4485,0 0.9775,0.023 1.4375,0.0345 0.4485,0.0115 0.828,0.0345 1.679,0.0345 0.4485,0 0.5405,0 0.621,-0.299 0.0575,-0.2415 0.1495,-1.0235 0.1495,-1.1155 0,-0.0805 0,-0.1725 -0.069,-0.1725 -0.0575,0 -0.0805,0.046 -0.1035,0.1725 -0.092,0.4945 -0.2185,0.736 -0.5865,0.851 -0.3105,0.092 -0.69,0.1035 -1.035,0.1035 -0.4485,0 -0.759,-0.023 -0.9545,-0.1035 -0.2875,-0.115 -0.3565,-0.368 -0.3795,-0.8395 -0.0115,-0.2415 0,-1.5755 0,-1.9665 v -1.012 c 0,-0.046 0.023,-0.0805 0.0805,-0.0805 0.1955,0 1.334,0.023 1.6445,0.0575 0.414,0.046 0.552,0.207 0.598,0.3795 0.0345,0.1035 0.046,0.2185 0.046,0.322 0,0.092 0.0115,0.184 0.0805,0.184 0.046,0 0.069,-0.0575 0.0805,-0.1725 0.0115,-0.161 0.0115,-0.4255 0.046,-0.782 0.0345,-0.3795 0.092,-0.575 0.092,-0.644 0,-0.069 -0.023,-0.092 -0.0575,-0.092 -0.046,0 -0.0805,0.046 -0.138,0.115 -0.115,0.138 -0.2645,0.1725 -0.575,0.1955 -0.2645,0.023 -1.679,0.023 -1.8285,0.023 -0.0575,0 -0.069,-0.0345 -0.069,-0.115 V 0.72450037 c 0,-0.0805 0.023,-0.115 0.069,-0.115 0.1265,0 1.38,0.0115 1.5755,0.0345 0.506,0.046 0.7475,0.161 0.828,0.42550003 0.0345,0.092 0.0575,0.23 0.0575,0.3795 0,0.092 0.023,0.1495 0.092,0.1495 0.046,0 0.0805,-0.0805 0.092,-0.1955 0.023,-0.299 0.0345,-0.51750003 0.046,-0.69000003 0.023,-0.322 0.092,-0.46 0.092,-0.5405 0,-0.0575 -0.0115,-0.1035 -0.046,-0.1035 -0.0345,0 -0.0575,0.0115 -0.1265,0.046 -0.069,0.0345 -0.276,0.0575 -0.529,0.069 -0.2645,0.0115 -2.553,0.0115 -2.6335,0.0115 -0.7245,-0.0345 -1.035,-0.0345 -1.2995,-0.0345 -0.1265,0 -0.184,0.023 -0.184,0.092 0,0.046 0.069,0.0575 0.1495,0.069 0.1035,0.0115 0.253,0.0115 0.3335,0.0345 0.3795,0.0805 0.4715,0.2645 0.4945,0.65550003 0.023,0.368 0.023,0.69 0.023,2.484 z"
       style="font-size:11.5px"
       id="path54427" />
    <path
       d="m 63.79038,5.5200004 c 0,1.081 -0.0115,1.886 -0.046,2.3805 -0.0345,0.506 -0.115,0.6785 -0.3565,0.7475 -0.0805,0.023 -0.184,0.0345 -0.299,0.046 -0.1035,0.0115 -0.1265,0.0345 -0.1265,0.069 0,0.069 0.0575,0.092 0.184,0.092 0.276,0 0.7935,-0.023 1.0235,-0.0345 h 0.1035 c 0.0575,0 0.7705,0.0345 1.4145,0.0345 0.1265,0 0.184,-0.023 0.184,-0.0805 0,-0.046 -0.0345,-0.069 -0.138,-0.0805 -0.1265,-0.0115 -0.322,-0.023 -0.4715,-0.046 -0.3105,-0.0345 -0.437,-0.2875 -0.4715,-0.805 -0.0345,-0.529 -0.0345,-1.3455 -0.0345,-2.323 v -0.9775 c 0,-0.0805 0.023,-0.1035 0.0805,-0.1035 0.1955,0 1.449,0 1.7365,0.0345 0.598,0.0805 0.6325,0.483 0.6555,0.736 0.0115,0.115 0.023,0.1955 0.092,0.1955 0.0575,0 0.069,-0.069 0.0805,-0.1955 0.0115,-0.1725 0.0115,-0.4485 0.046,-0.7935 0.0345,-0.3795 0.092,-0.575 0.092,-0.644 0,-0.0575 -0.0115,-0.092 -0.0575,-0.092 -0.046,0 -0.069,0.046 -0.1265,0.115 -0.161,0.1955 -0.3105,0.207 -0.92,0.2185 -0.4715,0.0115 -1.127,0.0115 -1.5985,0.0115 -0.069,0 -0.0805,-0.0345 -0.0805,-0.1035 V 0.74750037 c 0,-0.092 0.0345,-0.1265 0.1035,-0.1265 l 1.7595,0.0345 c 0.3335,0.0115 0.5405,0.1035 0.6785,0.2185 0.161,0.13800003 0.207,0.41400003 0.2185,0.57500003 0.0115,0.1035 0.023,0.1495 0.0805,0.1495 0.046,0 0.1035,-0.092 0.1035,-0.23 0.023,-0.322 0.023,-0.50600003 0.069,-0.83950003 0.023,-0.138 0.069,-0.299 0.069,-0.3565 0,-0.0575 -0.023,-0.1035 -0.069,-0.1035 -0.023,0 -0.069,0.023 -0.1035,0.046 -0.092,0.0575 -0.299,0.0575 -0.5635,0.069 -0.2645,0.0115 -2.599,0.0115 -2.829,0.0115 -0.414,0 -0.851,-0.0345 -1.2995,-0.0345 -0.1265,0 -0.184,0.023 -0.184,0.092 0,0.0575 0.092,0.069 0.1955,0.0805 0.1035,0.0115 0.2185,0.0115 0.2875,0.023 0.3795,0.0805 0.4715,0.2645 0.4945,0.65550003 0.023,0.368 0.023,0.69 0.023,2.484 z"
       style="font-size:11.5px"
       id="path54429" />
    <path
       d="m 80.764355,6.5895004 c 0,-0.483 0,-0.828 0.023,-1.196 0.023,-0.4025 0.115,-0.598 0.4255,-0.6555 0.138,-0.023 0.207,-0.0345 0.2875,-0.0345 0.046,0 0.092,-0.023 0.092,-0.069 0,-0.069 -0.0575,-0.092 -0.184,-0.092 -0.345,0 -1.0695,0.0345 -1.127,0.0345 -0.0575,0 -0.782,-0.0345 -1.2995,-0.0345 -0.1265,0 -0.184,0.023 -0.184,0.092 0,0.046 0.046,0.069 0.092,0.069 0.1035,0 0.299,0.0115 0.391,0.0345 0.46,0.1265 0.5175,0.253 0.5175,1.1845 v 1.955 c 0,0.1955 -0.0805,0.322 -0.23,0.4025 -0.299,0.1725 -0.897,0.2415 -1.311,0.2415 -1.058,0 -2.1045,-0.345 -3.013,-1.2305 -0.4025,-0.391 -1.219,-1.564 -1.219,-3.1855 0,-1.3455 0.4715,-2.392 1.1385,-2.921 0.874,-0.69000003 1.7365,-0.75900003 2.461,-0.75900003 1.4835,0 2.415,0.4945 2.7025,0.93150003 0.1725,0.276 0.23,0.598 0.2415,0.759 0.0115,0.1035 0.023,0.1725 0.0805,0.1725 0.0805,0 0.1035,-0.0575 0.1035,-0.2415 0,-1.15000003 0.0805,-1.47200003 0.0805,-1.63300003 0,-0.046 -0.023,-0.092 -0.138,-0.1035 -0.2875,-0.0115 -0.69,-0.0575 -0.9315,-0.115 -0.2185,-0.046 -1.035,-0.19549999615967 -1.7595,-0.19549999615967 -0.8855,0 -2.024,0.0804999961597 -3.059,0.72449999615967 -1.0235,0.64400003 -1.9205,1.94350003 -1.9205,3.78350003 0,1.4375 0.667,2.668 1.3685,3.2775 1.2765,1.1155 2.9095,1.2305 3.7835,1.2305 0.667,0 1.702,-0.1265 2.438,-0.5175 0.138,-0.0805 0.1495,-0.1035 0.1495,-0.621 z"
       style="font-size:11.5px"
       id="path54431" />
    <path
       d="m 89.021337,3.8065004 c -0.0345,0 -0.069,-0.0115 -0.069,-0.069 v -0.2415 c 0,-1.794 0,-2.116 0.023,-2.484 0.023,-0.40250003 0.115,-0.59800003 0.4255,-0.65550003 0.138,-0.023 0.207,-0.0345 0.2875,-0.0345 0.046,0 0.092,-0.023 0.092,-0.069 0,-0.069 -0.0575,-0.092 -0.184,-0.092 -0.345,0 -1.0695,0.0345 -1.127,0.0345 -0.0575,0 -0.782,-0.0345 -1.2995,-0.0345 -0.1265,0 -0.184,0.023 -0.184,0.092 0,0.046 0.046,0.069 0.092,0.069 0.1035,0 0.299,0.0115 0.391,0.0345 0.3795,0.0805 0.4715,0.2645 0.4945,0.65550003 0.023,0.368 0.023,0.69 0.023,2.484 v 2.024 c 0,1.104 0,2.0125 -0.0575,2.4955 -0.046,0.3335 -0.1035,0.5865 -0.3335,0.6325 -0.1035,0.023 -0.2415,0.046 -0.345,0.046 -0.069,0 -0.092,0.0345 -0.092,0.069 0,0.069 0.0575,0.092 0.184,0.092 0.345,0 1.0695,-0.0345 1.127,-0.0345 0.0575,0 0.782,0.0345 1.4145,0.0345 0.1265,0 0.184,-0.0345 0.184,-0.092 0,-0.0345 -0.023,-0.069 -0.092,-0.069 -0.1035,0 -0.3565,-0.023 -0.5175,-0.046 -0.345,-0.046 -0.414,-0.299 -0.4485,-0.6325 -0.0575,-0.483 -0.0575,-1.3915 -0.0575,-2.4955 v -1.2075 c 0,-0.0575 0.0345,-0.069 0.069,-0.069 h 4.876 c 0.0345,0 0.069,0.023 0.069,0.069 v 1.2075 c 0,1.104 0,2.0125 -0.0575,2.4955 -0.046,0.3335 -0.1035,0.5865 -0.3335,0.6325 -0.1035,0.023 -0.2415,0.046 -0.345,0.046 -0.069,0 -0.092,0.0345 -0.092,0.069 0,0.069 0.0575,0.092 0.184,0.092 0.345,0 1.0695,-0.0345 1.127,-0.0345 0.0575,0 0.782,0.0345 1.4145,0.0345 0.1265,0 0.184,-0.0345 0.184,-0.092 0,-0.0345 -0.023,-0.069 -0.092,-0.069 -0.1035,0 -0.3565,-0.023 -0.5175,-0.046 -0.345,-0.046 -0.414,-0.299 -0.4485,-0.6325 -0.0575,-0.483 -0.0575,-1.3915 -0.0575,-2.4955 v -2.024 c 0,-1.794 0,-2.116 0.023,-2.484 0.023,-0.40250003 0.115,-0.59800003 0.4255,-0.65550003 0.138,-0.023 0.207,-0.0345 0.2875,-0.0345 0.046,0 0.092,-0.023 0.092,-0.069 0,-0.069 -0.0575,-0.092 -0.184,-0.092 -0.345,0 -1.0695,0.0345 -1.127,0.0345 -0.0575,0 -0.782,-0.0345 -1.2995,-0.0345 -0.1265,0 -0.184,0.023 -0.184,0.092 0,0.046 0.046,0.069 0.092,0.069 0.1035,0 0.299,0.0115 0.391,0.0345 0.3795,0.0805 0.4715,0.2645 0.4945,0.65550003 0.023,0.368 0.023,0.69 0.023,2.484 v 0.2415 c 0,0.0575 -0.0345,0.069 -0.069,0.069 z"
       style="font-size:11.5px"
       id="path54433" />
    <path
       d="m 1.4950124,19.52 c 0,1.104 0,2.0125 -0.0575,2.4955 -0.046,0.3335 -0.115,0.598 -0.345,0.644 -0.10350005,0.023 -0.23000005,0.0345 -0.29900005,0.0345 -0.1035,0 -0.1265,0.0345 -0.1265,0.069 0,0.069 0.0575,0.092 0.184,0.092 0.34500005,0 1.06950005,-0.0345 1.12700005,-0.0345 0.0575,0 0.7935,0.0345 1.426,0.0345 0.1265,0 0.1725,-0.0345 0.1725,-0.092 0,-0.0345 -0.0345,-0.069 -0.138,-0.069 -0.069,0 -0.3105,-0.023 -0.4715,-0.046 -0.345,-0.046 -0.414,-0.299 -0.4485,-0.6325 -0.0575,-0.483 -0.0575,-1.3915 -0.0575,-2.4955 v -2.024 c 0,-1.794 0,-2.116 0.023,-2.484 0.023,-0.4025 0.115,-0.598 0.4255,-0.6555 0.138,-0.023 0.207,-0.0345 0.2875,-0.0345 0.046,0 0.092,-0.023 0.092,-0.069 0,-0.069 -0.0575,-0.092 -0.184,-0.092 -0.345,0 -1.0695,0.0345 -1.127,0.0345 -0.0575,0 -0.782,-0.0345 -1.16150005,-0.0345 -0.1265,0 -0.184,0.023 -0.184,0.092 0,0.046 0.046,0.069 0.092,0.069 0.0805,0 0.23,0.0115 0.35650005,0.046 0.253,0.0575 0.368,0.253 0.391,0.644 0.023,0.368 0.023,0.69 0.023,2.484 z"
       style="font-size:11.5px"
       id="path54435" />
    <path
       d="m 11.212483,17.496 c 0,-1.794 0,-2.116 0.023,-2.484 0.023,-0.4025 0.115,-0.6325 0.4255,-0.667 0.115,-0.0115 0.1265,-0.0115 0.253,-0.023 0.1035,-0.0115 0.1265,-0.0345 0.1265,-0.0805 0,-0.0575 -0.0575,-0.0805 -0.184,-0.0805 -0.345,0 -1.0695,0.0345 -1.127,0.0345 -0.0575,0 -0.8279996,-0.0345 -1.2074996,-0.0345 -0.1265,0 -0.184,0.023 -0.184,0.092 0,0.046 0.0345,0.069 0.1265,0.069 0.0805,0 0.2875,0.0115 0.414,0.046 0.2529996,0.0575 0.3679996,0.253 0.3909996,0.644 0.023,0.368 0.023,0.69 0.023,2.484 v 2.024 c 0,1.104 0,2.0125 -0.0575,2.4955 -0.046,0.3335 -0.115,0.598 -0.3449996,0.644 -0.1035,0.023 -0.23,0.0345 -0.299,0.0345 -0.1035,0 -0.1265,0.046 -0.1265,0.0805 0,0.069 0.0575,0.0805 0.184,0.0805 0.345,0 1.0234996,-0.0345 1.0809996,-0.0345 0.0575,0 0.782,0.0345 1.4145,0.0345 0.1265,0 0.1725,-0.023 0.1725,-0.0805 0,-0.0345 -0.0345,-0.0805 -0.138,-0.0805 -0.069,0 -0.299,-0.023 -0.46,-0.046 -0.345,-0.046 -0.414,-0.299 -0.4485,-0.6325 -0.0575,-0.483 -0.0575,-1.3915 -0.0575,-2.4955 v -1.1845 c 1.012,1.2075 3.082,3.427 3.772,3.9675 0.5405,0.4255 0.805,0.552 1.8055,0.552 h 0.851 c 0.1265,0 0.1725,-0.023 0.1725,-0.0805 0,-0.0575 -0.069,-0.0805 -0.161,-0.0805 -0.115,0 -0.23,-0.0115 -0.3335,-0.0345 -0.552,-0.1035 -0.9545,-0.3565 -1.8975,-1.242 -0.5405,-0.506 -2.6335,-2.6335 -3.358,-3.427 0.299,-0.3335 1.61,-1.633 2.622,-2.6105 0.69,-0.667 0.9085,-0.805 1.196,-0.92 0.161,-0.069 0.368,-0.115 0.5865,-0.138 0.1035,-0.0115 0.1265,-0.0345 0.1265,-0.0805 0,-0.046 -0.0345,-0.0805 -0.1955,-0.0805 -0.184,0 -0.8625,0.0345 -1.219,0.0345 -0.391,0 -0.3565,-0.0345 -0.69,-0.0345 -0.1035,0 -0.1725,0.023 -0.1725,0.069 0,0.046 0.023,0.069 0.1035,0.1035 0.092,0.0345 0.1495,0.1265 0.1495,0.2185 0,0.138 -0.046,0.253 -0.736,0.966 -0.7015,0.7245 -2.2655,2.369 -2.622,2.714 z"
       style="font-size:11.5px"
       id="path54437" />
    <path
       d="m 23.885457,17.496 c 0,-1.794 0,-2.116 0.023,-2.484 0.023,-0.4025 0.115,-0.598 0.4485,-0.6555 0.138,-0.023 0.299,-0.0345 0.3795,-0.0345 0.046,0 0.092,-0.023 0.092,-0.069 0,-0.069 -0.0575,-0.092 -0.184,-0.092 -0.345,0 -1.1845,0.0345 -1.242,0.0345 -0.0575,0 -0.782,-0.0345 -1.2995,-0.0345 -0.1265,0 -0.184,0.023 -0.184,0.092 0,0.046 0.046,0.069 0.092,0.069 0.1035,0 0.299,0.0115 0.391,0.0345 0.3795,0.0805 0.4715,0.2645 0.4945,0.6555 0.023,0.368 0.023,0.69 0.023,2.484 v 2.024 c 0,1.104 0,2.0125 -0.0575,2.4955 -0.046,0.3335 -0.1035,0.5865 -0.3335,0.6325 -0.1035,0.023 -0.2415,0.046 -0.345,0.046 -0.069,0 -0.092,0.0345 -0.092,0.069 0,0.069 0.0575,0.092 0.184,0.092 0.4255,0 0.7705,-0.0345 1.127,-0.0345 1.1155,0 2.093,0.069 3.082,0.069 0.6095,0 0.644,-0.046 0.7245,-0.3105 0.092,-0.3335 0.1725,-1.0235 0.1725,-1.15 0,-0.1265 -0.0115,-0.1725 -0.069,-0.1725 -0.069,0 -0.092,0.0575 -0.1035,0.1495 -0.0345,0.2185 -0.1495,0.506 -0.299,0.69 -0.276,0.3335 -0.782,0.345 -1.3915,0.345 -0.897,0 -1.196,-0.0805 -1.38,-0.2645 -0.207,-0.207 -0.253,-0.943 -0.253,-2.6335 z"
       style="font-size:11.5px"
       id="path54439" />
    <path
       d="M 41.250433,14.3105 C 41.227433,14.092 41.192933,14 41.112433,14 c -0.0805,0 -0.1265,0.0805 -0.1725,0.184 l -3.381,7.222 -3.519,-7.2335 C 33.982433,14.046 33.936433,14 33.867433,14 c -0.069,0 -0.115,0.1035 -0.1265,0.23 l -0.828,7.475 c -0.0575,0.4715 -0.0805,0.8855 -0.46,0.9545 -0.1725,0.0345 -0.253,0.0345 -0.345,0.0345 -0.0575,0 -0.115,0.023 -0.115,0.069 0,0.0805 0.0805,0.092 0.1955,0.092 0.3105,0 0.8625,-0.0345 0.966,-0.0345 0.092,0 0.6785,0.0345 1.104,0.0345 0.115,0 0.1725,-0.023 0.1725,-0.1035 0,-0.0345 -0.046,-0.0575 -0.115,-0.0575 -0.069,0 -0.2185,0 -0.414,-0.046 -0.1725,-0.0345 -0.3105,-0.1265 -0.3105,-0.414 0,-0.1955 0.0115,-0.3565 0.023,-0.5405 l 0.4715,-5.4165 c 0.1265,0.3105 1.449,3.151 1.5525,3.358 0.0575,0.115 1.0465,2.1045 1.3455,2.668 0.2185,0.414 0.276,0.529 0.3565,0.529 0.1035,0 0.138,-0.1035 0.3795,-0.6095 l 2.852,-6.049 0.552,6.003 c 0.023,0.207 0.0345,0.3795 -0.046,0.414 -0.0575,0.023 -0.0805,0.0345 -0.0805,0.0805 0,0.0575 0.0575,0.092 0.322,0.115 0.4255,0.0345 1.7365,0.069 1.9895,0.069 0.138,0 0.1725,-0.023 0.1725,-0.092 0,-0.0575 -0.069,-0.069 -0.1265,-0.069 -0.115,0 -0.3795,0 -0.713,-0.1035 -0.4945,-0.161 -0.575,-0.805 -0.621,-1.219 z"
       style="font-size:11.5px"
       id="path54441" />
    <path
       d="m 48.897911,21.1645 c 0,1.0465 -0.0575,1.38 -0.345,1.4605 -0.1725,0.0575 -0.3795,0.069 -0.4715,0.069 -0.0575,0 -0.092,0.023 -0.092,0.069 0,0.0805 0.069,0.092 0.184,0.092 0.5175,0 1.0005,-0.0345 1.104,-0.0345 0.1035,0 0.5635,0.0345 1.219,0.0345 0.138,0 0.207,-0.023 0.207,-0.092 0,-0.046 -0.0345,-0.069 -0.092,-0.069 -0.1035,0 -0.3565,-0.0115 -0.575,-0.069 -0.3105,-0.092 -0.4255,-0.391 -0.4485,-1.334 l -0.1495,-5.5085 c 0.368,0.414 1.6675,1.863 3.0015,3.3005 1.219,1.311 2.875,3.0015 3.0015,3.1165 0.6095,0.6095 0.7475,0.736 0.8395,0.736 0.0805,0 0.1035,-0.0575 0.1035,-0.8165 l 0.023,-6.716 c 0,-0.7935 0.0805,-0.966 0.4025,-1.035 0.138,-0.023 0.207,-0.0345 0.299,-0.046 0.0805,-0.0115 0.1265,-0.0345 0.1265,-0.0805 0,-0.069 -0.0805,-0.0805 -0.207,-0.0805 -0.4715,0 -0.851,0.0345 -0.9775,0.0345 -0.1265,0 -0.6785,-0.0345 -1.196,-0.0345 -0.138,0 -0.23,0.0115 -0.23,0.0805 0,0.046 0.0345,0.0805 0.161,0.0805 0.1035,0 0.2875,0.0115 0.4945,0.0575 0.3565,0.092 0.437,0.345 0.4485,1.0925 l 0.1265,5.842 c -0.368,-0.3795 -1.6215,-1.7825 -2.76,-3.0015 -1.771,-1.8975 -3.4845,-3.749 -3.657,-3.9445 -0.115,-0.115 -0.3105,-0.368 -0.4025,-0.368 -0.092,0 -0.1265,0.1265 -0.1265,0.575 0.0115,2.231 -0.0115,0.736 -0.0115,4.8875 z"
       style="font-size:11.5px"
       id="path54443" />
    <path
       d="m 67.056382,23.016 c 2.7715,0 4.5885,-2.1275 4.5885,-4.7035 0,-2.6795 -1.932,-4.3125 -4.5195,-4.3125 -3.174,0 -4.531,2.6335 -4.531,4.4965 0,2.07 1.311,4.5195 4.462,4.5195 z m 0.3105,-0.437 c -2.07,0 -3.68,-1.725 -3.68,-4.4045 0,-2.5185 1.4375,-3.7835 3.358,-3.7835 1.817,0 3.496,1.4835 3.496,4.2435 0,3.3465 -2.139,3.9445 -3.174,3.9445 z"
       style="font-size:11.5px"
       id="path54445" />
    <path
       d="m 78.165354,19.52 c 0,1.104 0,2.0125 -0.0575,2.4955 -0.046,0.3335 -0.1035,0.5865 -0.3335,0.6325 -0.1035,0.023 -0.2415,0.046 -0.345,0.046 -0.069,0 -0.092,0.0345 -0.092,0.069 0,0.069 0.0575,0.092 0.184,0.092 0.345,0 1.0695,-0.0345 1.104,-0.0345 0.0575,0 0.782,0.0345 1.4145,0.0345 0.1265,0 0.184,-0.0345 0.184,-0.092 0,-0.0345 -0.023,-0.069 -0.092,-0.069 -0.1035,0 -0.3565,-0.023 -0.5175,-0.046 -0.345,-0.046 -0.414,-0.299 -0.4485,-0.6325 -0.0575,-0.483 -0.0575,-1.3915 -0.0575,-2.4955 v -4.7265 c 0,-0.115 0.023,-0.1955 0.092,-0.2185 0.1035,-0.046 0.299,-0.069 0.4945,-0.069 0.2645,0 0.966,-0.046 1.5755,0.575 0.6095,0.621 0.644,1.3915 0.644,1.679 0,1.2075 -0.874,1.9665 -1.9895,1.9665 -0.2415,0 -0.3105,0.0115 -0.3105,0.1035 0,0.0575 0.069,0.0805 0.1265,0.0805 0.0575,0.0115 0.184,0.0115 0.2415,0.0115 1.633,0 2.829,-1.104 2.829,-2.599 0,-0.7475 -0.322,-1.265 -0.575,-1.5065 -0.184,-0.1725 -0.7015,-0.6555 -2.139,-0.6555 -0.529,0 -1.196,0.0345 -1.449,0.0345 -0.092,0 -0.782,-0.0345 -1.2995,-0.0345 -0.1265,0 -0.184,0.023 -0.184,0.092 0,0.046 0.046,0.069 0.092,0.069 0.1035,0 0.299,0.0115 0.391,0.0345 0.3795,0.0805 0.4715,0.2645 0.4945,0.6555 0.023,0.368 0.023,0.69 0.023,2.484 z"
       style="font-size:11.5px"
       id="path54447" />
    <path
       d="m 94.276822,22.625 1.932,1.0695 c 1.863,1.035 3.3465,1.541 4.737998,1.541 1.702,0 2.99,-0.4945 3.6455,-0.7935 0.069,-0.0345 0.092,-0.069 0.092,-0.115 0,-0.0345 -0.023,-0.069 -0.069,-0.069 -0.0345,0 -0.092,0.023 -0.161,0.046 -0.7935,0.322 -1.6905,0.4485 -2.2655,0.4485 -0.575,0 -2.322998,-0.0575 -4.841498,-1.357 l -2.3575,-1.219 c 0.759,-0.4945 2.0355,-1.84 2.0355,-3.864 0,-2.668 -1.932,-4.3125 -4.5195,-4.3125 -3.174,0 -4.531,2.6335 -4.531,4.4965 0,2.07 1.311,4.5195 4.4965,4.5195 0.6095,0 1.3915,-0.1725 1.8055,-0.391 z m -1.5295,-0.046 c -2.07,0 -3.68,-1.725 -3.68,-4.4045 0,-2.5185 1.4375,-3.7835 3.358,-3.7835 1.817,0 3.496,1.4835 3.496,4.2435 0,3.3465 -2.139,3.9445 -3.174,3.9445 z"
       style="font-size:11.5px"
       id="path54449" />
    <path
       d="m 12.005963,33.52 c 0,1.104 0,2.0125 -0.0575,2.4955 -0.046,0.3335 -0.1035,0.5865 -0.3335,0.6325 -0.1035,0.023 -0.2415,0.046 -0.345,0.046 -0.069,0 -0.092,0.0345 -0.092,0.069 0,0.069 0.0575,0.092 0.184,0.092 0.345,0 1.0695,-0.0345 1.081,-0.0345 0.0575,0 0.782,0.0345 1.4145,0.0345 0.1265,0 0.184,-0.0345 0.184,-0.092 0,-0.0345 -0.023,-0.069 -0.092,-0.069 -0.1035,0 -0.3565,-0.023 -0.5175,-0.046 -0.345,-0.046 -0.414,-0.299 -0.4485,-0.6325 -0.0575,-0.483 -0.0575,-1.3915 -0.0575,-2.4955 v -0.276 c 0,-0.0575 0.023,-0.092 0.0805,-0.092 l 1.4145,0.023 c 0.069,0 0.1035,0.023 0.1495,0.069 0.23,0.299 0.7705,1.0695 1.2535,1.702 0.6555,0.8625 1.058,1.426 1.5525,1.6905 0.299,0.161 0.5865,0.2185 1.2305,0.2185 h 0.8165 c 0.207,0 0.276,-0.023 0.276,-0.092 0,-0.0345 -0.046,-0.069 -0.1035,-0.069 -0.069,0 -0.23,0 -0.4485,-0.0345 -0.2875,-0.046 -0.782,-0.1725 -1.403,-0.828 -0.667,-0.713 -1.449,-1.7365 -2.392,-2.944 1.035,-0.9545 1.3915,-1.8055 1.3915,-2.6565 0,-0.7935 -0.506,-1.357 -0.7935,-1.564 -0.6095,-0.437 -1.38,-0.506 -2.1045,-0.506 -0.3565,0 -1.2305,0.0345 -1.357,0.0345 -0.0575,0 -0.782,-0.0345 -1.2995,-0.0345 -0.1265,0 -0.184,0.023 -0.184,0.092 0,0.046 0.046,0.069 0.092,0.069 0.1035,0 0.299,0.0115 0.391,0.0345 0.3795,0.0805 0.4715,0.2645 0.4945,0.6555 0.023,0.368 0.023,0.69 0.023,2.484 z m 0.92,-4.784 c 0,-0.069 0.0345,-0.115 0.092,-0.138 0.115,-0.0345 0.4255,-0.069 0.7705,-0.069 1.2305,0 1.9895,0.8625 1.9895,2.3 0,0.874 -0.299,1.495 -0.7015,1.771 -0.2645,0.184 -0.5865,0.2185 -0.8625,0.2185 -0.506,0 -1.035,-0.0805 -1.2075,-0.184 -0.0575,-0.0345 -0.0805,-0.0805 -0.0805,-0.138 z"
       style="font-size:11.5px"
       id="path54451" />
    <path
       d="m 25.219447,37.016 c 0.621,0 1.242,-0.138 1.7365,-0.483 0.7935,-0.5635 0.9775,-1.4375 0.9775,-1.909 0,-0.92 -0.322,-1.633 -1.679,-2.7025 l -0.322,-0.253 c -1.104,-0.8625 -1.403,-1.2765 -1.403,-1.932 0,-0.8395 0.621,-1.334 1.4145,-1.334 1.058,0 1.3685,0.483 1.4375,0.6095 0.069,0.1265 0.138,0.437 0.1495,0.575 0.0115,0.092 0.023,0.1495 0.092,0.1495 0.0575,0 0.0805,-0.0805 0.0805,-0.2645 0,-0.782 0.046,-1.1615 0.046,-1.219 0,-0.0575 -0.023,-0.0805 -0.115,-0.0805 -0.092,0 -0.184,-0.0115 -0.4025,-0.0575 -0.2875,-0.069 -0.621,-0.115 -1.0695,-0.115 -1.4605,0 -2.3805,0.8395 -2.3805,2.07 0,0.782 0.276,1.495 1.495,2.4955 l 0.5175,0.4255 c 0.989,0.8165 1.3225,1.2765 1.3225,2.07 0,0.736 -0.5405,1.5295 -1.6445,1.5295 -0.7705,0 -1.5295,-0.322 -1.702,-1.173 -0.0345,-0.161 -0.0345,-0.322 -0.0345,-0.4255 0,-0.092 -0.0115,-0.1265 -0.0805,-0.1265 -0.0575,0 -0.0805,0.0575 -0.092,0.184 -0.0115,0.184 -0.0575,0.644 -0.0575,1.219 0,0.3105 0.0115,0.3565 0.1725,0.437 0.4715,0.23 1.0005,0.3105 1.541,0.3105 z"
       style="font-size:11.5px"
       id="path54453" />
    <path
       d="m 37.156429,28.6555 c 0.483,0.0115 0.966,0.0115 1.449,0.023 1.104,0.023 1.38,0.2875 1.4145,0.6325 0,0.046 0.0115,0.0805 0.0115,0.1265 0.0115,0.161 0.0345,0.1955 0.092,0.1955 0.046,0 0.0805,-0.046 0.0805,-0.1495 0,-0.1265 0.0345,-0.92 0.0345,-1.265 0,-0.069 0,-0.138 -0.0575,-0.138 -0.046,0 -0.1495,0.0345 -0.322,0.0575 -0.184,0.0345 -0.4485,0.0575 -0.8165,0.0575 h -4.3125 c -0.138,0 -0.575,-0.023 -0.9085,-0.0575 -0.3105,-0.023 -0.4255,-0.138 -0.506,-0.138 -0.046,0 -0.092,0.1495 -0.115,0.2185 -0.023,0.092 -0.253,1.081 -0.253,1.196 0,0.069 0.023,0.1035 0.0575,0.1035 0.046,0 0.0805,-0.023 0.115,-0.115 0.0345,-0.0805 0.069,-0.161 0.1955,-0.3565 0.184,-0.276 0.46,-0.3565 1.173,-0.368 0.5635,-0.0115 1.1385,-0.0115 1.702,-0.023 V 33.52 c 0,1.104 0,2.0125 -0.0575,2.4955 -0.046,0.3335 -0.1035,0.5865 -0.3335,0.6325 -0.1035,0.023 -0.2415,0.046 -0.345,0.046 -0.069,0 -0.092,0.0345 -0.092,0.069 0,0.069 0.0575,0.092 0.184,0.092 0.345,0 1.0695,-0.0345 1.127,-0.0345 0.0575,0 0.782,0.0345 1.4145,0.0345 0.1265,0 0.184,-0.0345 0.184,-0.092 0,-0.0345 -0.023,-0.069 -0.092,-0.069 -0.1035,0 -0.3565,-0.023 -0.5175,-0.046 -0.345,-0.046 -0.414,-0.299 -0.4485,-0.6325 -0.0575,-0.483 -0.0575,-1.3915 -0.0575,-2.4955 z"
       style="font-size:11.5px"
       id="path54455" />
    <path
       d="m 48.219416,36.303 c 0.2185,0.552 0.276,0.713 0.414,0.713 0.115,0 0.161,-0.184 0.483,-0.874 0.2645,-0.5635 0.782,-1.8055 1.4835,-3.4845 0.5865,-1.4145 1.1615,-2.7945 1.288,-3.1165 0.3105,-0.782 0.483,-0.9775 0.6325,-1.081 0.2185,-0.138 0.4715,-0.138 0.552,-0.138 0.092,0 0.138,-0.023 0.138,-0.0805 0,-0.0575 -0.069,-0.0805 -0.1955,-0.0805 -0.3335,0 -0.828,0.0345 -0.897,0.0345 -0.138,0 -0.667,-0.0345 -1.127,-0.0345 -0.184,0 -0.253,0.023 -0.253,0.092 0,0.0575 0.0575,0.069 0.1265,0.069 0.1265,0 0.299,0 0.437,0.046 0.115,0.0575 0.1495,0.1725 0.1495,0.2645 0,0.1035 -0.046,0.2645 -0.1035,0.437 -0.253,0.828 -1.794,4.8415 -2.461,6.3825 l -2.346,-6.1065 c -0.1265,-0.322 -0.23,-0.6325 -0.23,-0.736 0,-0.0805 0.023,-0.1725 0.1495,-0.23 0.1035,-0.046 0.3105,-0.0575 0.437,-0.0575 0.0805,0 0.115,-0.023 0.115,-0.0805 0,-0.0575 -0.1035,-0.0805 -0.3105,-0.0805 -0.437,0 -0.9315,0.0345 -1.0465,0.0345 -0.138,0 -0.759,-0.0345 -1.311,-0.0345 -0.184,0 -0.299,0.0115 -0.299,0.0805 0,0.046 0.023,0.0805 0.092,0.0805 0.069,0 0.2645,0 0.437,0.046 0.4025,0.115 0.575,0.2415 0.828,0.8855 z"
       style="font-size:11.5px"
       id="path54457" />
    <path
       d="m 57.913896,35.705 c -0.368,0.5865 -0.6095,0.8395 -0.9545,0.9315 -0.1725,0.046 -0.345,0.0575 -0.437,0.0575 -0.0575,0 -0.092,0.0345 -0.092,0.0805 0,0.046 0.023,0.0805 0.115,0.0805 0.3795,0 0.943,-0.0345 1.0465,-0.0345 0.1035,0 0.828,0.0345 1.104,0.0345 0.0805,0 0.138,-0.023 0.138,-0.0805 0,-0.046 -0.0345,-0.0805 -0.092,-0.0805 -0.0575,0 -0.1495,-0.0115 -0.2185,-0.023 -0.1035,-0.023 -0.184,-0.1035 -0.184,-0.2185 0,-0.115 0.046,-0.322 0.1495,-0.506 l 1.794,-3.0475 c 0.69,1.1615 1.357,2.3 1.978,3.427 0.1035,0.184 0,0.299 -0.0575,0.322 -0.046,0.0115 -0.069,0.046 -0.069,0.092 0,0.0575 0.0575,0.0805 0.3565,0.092 0.5865,0.023 1.1385,0.023 1.84,0.023 0.1035,0 0.161,-0.0345 0.161,-0.092 0,-0.046 -0.0345,-0.069 -0.092,-0.069 -0.069,0 -0.2415,-0.023 -0.4025,-0.069 -0.3335,-0.1035 -0.4945,-0.276 -0.6785,-0.5175 -0.2415,-0.3105 -2.208,-3.657 -2.4265,-4.0135 l 1.8515,-2.783 c 0.3335,-0.4945 0.552,-0.828 0.8855,-0.9315 0.1265,-0.046 0.299,-0.0575 0.3795,-0.0575 0.0805,0 0.1265,-0.0345 0.1265,-0.0805 0,-0.046 -0.0575,-0.0805 -0.184,-0.0805 -0.391,0 -0.8625,0.0345 -0.966,0.0345 -0.1035,0 -0.5865,-0.0345 -1.0235,-0.0345 -0.138,0 -0.1955,0.0345 -0.1955,0.0805 0,0.0575 0.0345,0.0805 0.1035,0.0805 0.069,0 0.23,0 0.345,0.0345 0.115,0.0345 0.1955,0.1265 0.1955,0.207 0,0.138 -0.0345,0.2415 -0.115,0.414 -0.115,0.2415 -1.3455,2.208 -1.6905,2.7025 -0.598,-0.989 -1.0695,-1.84 -1.5525,-2.7485 -0.069,-0.1265 -0.115,-0.2645 -0.115,-0.3795 0,-0.0805 0.0345,-0.161 0.138,-0.1955 0.092,-0.0345 0.2415,-0.0345 0.3105,-0.0345 0.069,0 0.1035,-0.023 0.1035,-0.0805 0,-0.0575 -0.0345,-0.0805 -0.1955,-0.0805 -0.391,0 -0.9775,0.0345 -1.081,0.0345 -0.092,0 -1.0235,-0.0345 -1.3455,-0.0345 -0.1495,0 -0.1955,0.023 -0.1955,0.0805 0,0.046 0.0345,0.0805 0.1035,0.0805 0.069,0 0.299,0.023 0.483,0.0805 0.391,0.138 0.6325,0.4715 0.897,0.92 l 1.84,3.0935 z"
       style="font-size:11.5px"
       id="path54459" />
    <path
       d="m 71.414879,34.8655 c 0,0.184 0,0.667 -0.0345,1.15 -0.023,0.3335 -0.1265,0.5865 -0.3565,0.6325 -0.1035,0.023 -0.2415,0.046 -0.345,0.046 -0.069,0 -0.092,0.0345 -0.092,0.069 0,0.069 0.0575,0.092 0.184,0.092 0.345,0 1.0695,-0.0345 1.127,-0.0345 0.0575,0 0.782,0.0345 1.4145,0.0345 0.1265,0 0.184,-0.0345 0.184,-0.092 0,-0.0345 -0.023,-0.069 -0.092,-0.069 -0.1035,0 -0.3565,-0.023 -0.5175,-0.046 -0.345,-0.046 -0.4485,-0.299 -0.4715,-0.6325 -0.0345,-0.483 -0.0345,-0.966 -0.0345,-1.15 v -0.989 c 0,-0.3795 0,-0.736 0.1725,-1.15 0.207,-0.4945 1.817,-3.197 2.1965,-3.657 0.253,-0.3105 0.3795,-0.4485 0.6095,-0.5865 0.184,-0.115 0.4025,-0.161 0.529,-0.161 0.092,0 0.1495,-0.0345 0.1495,-0.092 0,-0.046 -0.069,-0.069 -0.1495,-0.069 -0.2185,0 -1.0465,0.0345 -1.1155,0.0345 -0.092,0 -0.46,-0.0345 -0.759,-0.0345 -0.115,0 -0.184,0.023 -0.184,0.069 0,0.0575 0.069,0.0805 0.1725,0.115 0.138,0.0345 0.184,0.161 0.184,0.322 0,0.1495 -0.046,0.345 -0.1955,0.5865 -0.23,0.3795 -1.6905,2.898 -1.909,3.381 -0.207,-0.3335 -1.932,-3.3005 -2.116,-3.634 -0.092,-0.1725 -0.1495,-0.3105 -0.1495,-0.4485 0,-0.092 0.0575,-0.161 0.1495,-0.207 0.1035,-0.046 0.1725,-0.0575 0.1725,-0.1035 0,-0.046 -0.023,-0.0805 -0.1495,-0.0805 -0.4485,0 -0.8855,0.0345 -0.966,0.0345 -0.0575,0 -0.92,-0.0345 -1.1385,-0.0345 -0.1035,0 -0.1495,0.0345 -0.1495,0.0805 0,0.0575 0.0575,0.0805 0.115,0.0805 0.1035,0 0.322,0.069 0.4945,0.184 0.207,0.138 0.4945,0.4255 0.782,0.851 0.4025,0.598 1.9435,3.128 2.024,3.312 0.1495,0.3335 0.2645,0.5865 0.2645,1.2075 z"
       style="font-size:11.5px"
       id="path54461" />
    <path
       d="m 81.465855,36.3605 c 1.748,-2.645 3.4845,-5.29 5.152,-7.935 0.046,-0.069 0.046,-0.092 0.046,-0.138 0,-0.069 -0.0575,-0.092 -0.23,-0.092 h -3.2085 c -0.3565,0 -0.9085,0.0115 -2.001,-0.0345 -0.3105,-0.0115 -0.3795,-0.0805 -0.483,-0.0805 -0.069,0 -0.092,0.0575 -0.115,0.2185 -0.0575,0.345 -0.23,1.3915 -0.23,1.5295 0,0.092 0.0115,0.1495 0.069,0.1495 0.0575,0 0.1035,-0.0345 0.1265,-0.207 0.0345,-0.2645 0.2415,-0.69 0.6555,-0.9085 0.368,-0.1955 1.0695,-0.23 1.656,-0.23 h 2.4955 c -1.5985,2.599 -3.335,5.1865 -5.0485,7.774 -0.138,0.207 -0.161,0.2645 -0.161,0.322 0,0.0805 0.069,0.092 0.207,0.092 2.0125,0 3.9445,0.0575 5.865,0.0575 0.2645,0 0.276,-0.023 0.345,-0.299 0.069,-0.2875 0.23,-0.966 0.23,-1.3225 0,-0.2185 -0.023,-0.2645 -0.092,-0.2645 -0.0575,0 -0.0805,0.069 -0.1035,0.184 -0.023,0.161 -0.1265,0.4715 -0.23,0.621 -0.2415,0.345 -0.6095,0.5635 -1.817,0.5635 z"
       style="font-size:11.5px"
       id="path54463" />
  </g>
</svg>
