<?xml version="1.0" standalone="no"?>
<!DOCTYPE svg PUBLIC "-//W3C//DTD SVG 1.0//EN" "http://www.w3.org/TR/2001/REC-SVG-20010904/DTD/svg10.dtd">
<svg width="540" height="540" viewBox="0 0 540 540" xmlns="http://www.w3.org/2000/svg" xmlns:svg="http://www.w3.org/2000/svg">
<title>Disney infinite copyright symbol (glyph "mickey-infinite" from toa267 public domain Fnord-Podge font)</title>
<circle cx="270" cy="270" r="250" stroke-width="25" stroke="rgb(255,0,0)" fill="rgb(255,255,255)"/>
<path transform="translate(70,493.2) scale(0.4,-0.4)" d="M652,778
c-47,26,-99,39,-152,39
c-53,0,-105,-13,-152,-39
c29,67,20,137,-23,180
c-62,62,-176,50,-254,-29
c-79,-78,-91,-192,-29,-254
c43,-43,113,-52,180,-23
c-26,-47,-39,-99,-39,-152
c0,-175,142,-317,317,-317
c175,0,317,142,317,317
c0,53,-13,105,-39,152
c67,-29,137,-20,180,23
c62,62,50,176,-29,254
c-78,79,-192,91,-254,29
c-43,-43,-52,-113,-23,-180Z
M500,767
c147,0,267,-120,267,-267
c0,-147,-120,-267,-267,-267
c-147,0,-267,120,-267,267
c0,147,120,267,267,267Z
M683,550
c-22,83,-97,140,-183,140
c-105,0,-190,-85,-190,-190
c0,-105,85,-190,190,-190
c86,0,161,57,183,140
h-63
c-20,-48,-68,-80,-120,-80
c-72,0,-130,58,-130,130
c0,72,58,130,130,130
c52,0,100,-32,120,-80
h63Z
M500,59
l44,-34
c20,-16,47,-25,76,-25
c50,0,90,40,90,90
c0,50,-40,90,-90,90
c-29,0,-56,-9,-76,-25
l-44,-34
l-44,34
c-20,16,-47,25,-76,25
c-50,0,-90,-40,-90,-90
c0,-50,40,-90,90,-90
c29,0,56,9,76,25
l44,34Z
M459,90
l-35,-27
c-11,-8,-27,-13,-44,-13
c-22,0,-40,18,-40,40
c0,22,18,40,40,40
c17,0,33,-5,44,-13
l35,-27Z
M541,90
l35,27
c11,8,27,13,44,13
c22,0,40,-18,40,-40
c0,-22,-18,-40,-40,-40
c-17,0,-33,5,-44,13
l-35,27Z"/>
<path fill="none" stroke-width="19" stroke="rgb(255,0,0)" d="M90,450L450,90"/>
</svg>
