<svg xmlns="http://www.w3.org/2000/svg" viewBox="0 0 90.6 20.6"><defs><style>.cls-1{fill:#0d213f;}.cls-2{fill:#0b5cff;}</style></defs><g id="Layer_2" data-name="Layer 2"><g id="Layer_1-2" data-name="Layer 1"><path class="cls-2" d="M19,20.33H2.89A2.89,2.89,0,0,1,.31,18.82a2.81,2.81,0,0,1,.51-3.27L12,4.33H4a4,4,0,0,1-4-4H14.85a2.89,2.89,0,0,1,2.58,1.51,2.81,2.81,0,0,1-.51,3.27L5.7,16.33H15A4,4,0,0,1,19,20.33ZM82.81,0A7.8,7.8,0,0,0,77,2.62,7.8,7.8,0,0,0,71.19,0,8,8,0,0,0,63.4,8V20.33a4,4,0,0,0,4-4V7.92A3.87,3.87,0,0,1,71.05,4a3.81,3.81,0,0,1,4,3.8v8.5a4,4,0,0,0,4,4V7.92A3.87,3.87,0,0,1,82.65,4a3.81,3.81,0,0,1,3.95,3.8v8.5a4,4,0,0,0,4,4V8A8,8,0,0,0,82.81,0ZM39.2,10.33A10.3,10.3,0,1,1,28.9,0,10.31,10.31,0,0,1,39.2,10.33Zm-4,0a6.3,6.3,0,1,0-6.3,6.3A6.31,6.31,0,0,0,35.2,10.33Zm26.2,0A10.3,10.3,0,1,1,51.1,0,10.31,10.31,0,0,1,61.4,10.33Zm-4,0a6.3,6.3,0,1,0-6.3,6.3A6.31,6.31,0,0,0,57.4,10.33Z"/></g></g></svg>