<?xml version="1.0" encoding="UTF-8" standalone="no"?>
<!DOCTYPE svg PUBLIC "-//W3C//DTD SVG 1.1//EN" 
  "http://www.w3.org/Graphics/SVG/1.1/DTD/svg11.dtd">
<svg xmlns="http://www.w3.org/2000/svg" xmlns:xlink="http://www.w3.org/1999/xlink" width="128" height="128">
  <linearGradient id="b">
    <stop offset="0"/>
    <stop offset="1" stop-opacity="0"/>
  </linearGradient>
  <linearGradient id="a">
    <stop offset="0" stop-color="#fff"/>
    <stop offset="1" stop-color="#fff" stop-opacity="0"/>
  </linearGradient>
  <linearGradient id="i" x1="64.089" x2="64.089" y1="9.679" y2="123.906" gradientTransform="matrix(.9792 0 0 .9725 133.0002 20.8762)" gradientUnits="userSpaceOnUse">
    <stop offset="0" stop-color="#008c00"/>
    <stop offset=".355" stop-color="#35ac1c"/>
    <stop offset=".619" stop-color="#0f9508"/>
    <stop offset=".757" stop-color="#008c00"/>
    <stop offset="1" stop-color="#004d00"/>
  </linearGradient>
  <radialGradient id="s" cx="67.094" cy="116.906" r="71.591" gradientUnits="userSpaceOnUse">
    <stop offset="0" stop-color="#0f0"/>
    <stop offset=".355" stop-color="#35ac1c"/>
    <stop offset=".619" stop-color="#0f9508"/>
    <stop offset=".757" stop-color="#008c00"/>
    <stop offset="1" stop-color="#004d00"/>
  </radialGradient>
  <radialGradient id="t" cx="99.726" cy="27.418" r="56" fx="64.69" fy="68.232" gradientTransform="matrix(.693735 .05867125 -.0362428 .4285387 33.939389 26.8809)" gradientUnits="userSpaceOnUse">
    <stop offset="0" stop-color="#0f0"/>
    <stop offset="1" stop-color="#004d00" stop-opacity="0"/>
  </radialGradient>
  <linearGradient id="u" x1="75.094" x2="75.094" y1="4.532" y2="80.172" gradientUnits="userSpaceOnUse">
    <stop offset="0" stop-color="#bfffbf"/>
    <stop offset="1" stop-color="#bfffbf" stop-opacity="0"/>
  </linearGradient>
  <linearGradient id="v" x1="75.098" x2="75.098" y1="4.534" y2="80.174" gradientUnits="userSpaceOnUse" xlink:href="#a"/>
  <linearGradient id="w" x1="71.594" x2="71.594" y1="130.406" y2="63.427" gradientUnits="userSpaceOnUse">
    <stop offset="0" stop-color="#f0ff80"/>
    <stop offset="1" stop-color="#f0ff80" stop-opacity="0"/>
  </linearGradient>
  <radialGradient id="l" cx="-10.165" cy="66.906" r="59.995" gradientTransform="matrix(.4582893 -.00000002 .00000005 1.0000813 20.447953 -.005197)" gradientUnits="userSpaceOnUse" xlink:href="#b"/>
  <radialGradient id="k" cx="167.67" cy="80.405" r="59.995" gradientTransform="matrix(.2676699 .521376 -.7037472 .3612977 108.99386 -36.062981)" gradientUnits="userSpaceOnUse" xlink:href="#b"/>
  <linearGradient id="p" x1="120.063" x2="125.304" y1="12.569" y2="14.444" gradientUnits="userSpaceOnUse" spreadMethod="reflect" xlink:href="#a"/>
  <filter id="q" width="1.302" height="1.275" x="-.151" y="-.137">
    <feGaussianBlur stdDeviation=".393"/>
  </filter>
  <radialGradient id="m" cx="46.254" cy="86.725" r="59.995" fx="46.254" gradientTransform="matrix(-.00000024 1.1093034 -1.0633726 -.00000014 156.30951 -2.406116)" gradientUnits="userSpaceOnUse" xlink:href="#b"/>
  <radialGradient id="j" cx="66.015" cy="126.692" r="59.995" gradientTransform="matrix(.675025 0 0 .3583625 19.527377 41.004647)" gradientUnits="userSpaceOnUse">
    <stop offset="0" stop-color="#53be2c"/>
    <stop offset="1" stop-color="#53be2c" stop-opacity="0"/>
  </radialGradient>
  <radialGradient id="n" cx="64.089" cy="7.411" r="59.995" gradientTransform="matrix(.3093869 0 0 .4779247 44.260611 3.864422)" gradientUnits="userSpaceOnUse" xlink:href="#a"/>
  <linearGradient id="r" x1="120.063" x2="125.304" y1="12.569" y2="14.444" gradientUnits="userSpaceOnUse" spreadMethod="reflect">
    <stop offset="0" stop-color="#baff63"/>
    <stop offset="1" stop-color="#fff" stop-opacity="0"/>
  </linearGradient>
  <filter id="e">
    <feGaussianBlur stdDeviation="1.334"/>
  </filter>
  <radialGradient id="c" cx="-112.172" cy="118.605" r="59.995" fx="-113.148" fy="59.708" gradientTransform="matrix(.6484284 .1017206 -.03125715 .1992521 -4.56257 53.15916)" gradientUnits="userSpaceOnUse">
    <stop offset="0" stop-color="#fff" stop-opacity="0"/>
    <stop offset=".5" stop-color="#fff" stop-opacity=".187"/>
    <stop offset="1" stop-color="#fff"/>
  </radialGradient>
  <linearGradient id="d" x1="-151.439" x2="-152.268" y1="37.682" y2="57.25" gradientUnits="userSpaceOnUse" xlink:href="#b"/>
  <linearGradient id="f" x1="-132.51" x2="-158.925" y1="39.803" y2="72.882" gradientUnits="userSpaceOnUse" xlink:href="#b"/>
  <linearGradient id="g" x1="-83.013" x2="-158.925" y1="44.753" y2="72.882" gradientUnits="userSpaceOnUse" xlink:href="#b"/>
  <mask id="h" maskUnits="userSpaceOnUse">
    <path fill="url(#c)" d="m-184.42232-32.47243c-33.12519 0-64 32.374805-64 65.5 0 33.12519 31.37481 64 64.5 64 30.28912 0 55.33661-26.21626 59.40625-55.34375l-35.03125-5.03125c-1.62468 11.96113-11.93007 20.96875-24.375 20.96875-13.57163 0-22.09375-11.52212-22.09375-25.09375 0-13.571634 6.02212-20.09375 19.59375-20.09375 6.78582-.000001 9.92129-2.234956 14.375 2.21875l-4.82718 11.327179c-2.05587 2.05587-2.24372 3.30578-1.67961 4.615529.50857 1.180779 1.52073 2.526042 4.20973 2.526042h43.95331c3.84589 0 6.45899-2.654379 6.45899-6.250131l-.06887-44.078018c0-2.480755-.90251-3.843229-2.18147-4.349615-1.31432-.520385-3.03321-.122678-5.10709 1.9512l-10.19531.195314c-10.85935-10.859351-26.3749-13.0625-42.9375-13.0625z" transform="translate(248.01637 30.885255)"/>
    <path fill="url(#d)" fill-rule="evenodd" d="m-161.5 34.5c-.5 2.5-18.5 19.5-18.5 19.5l47.5 26 20.5-41.5z" filter="url(#e)" transform="translate(248.01637 30.885255)"/>
    <path fill="url(#f)" fill-rule="evenodd" d="m-161.5 34.5c-.5 2.5-19.77817 19.889087-19.77817 19.889087l29.65075 43.202796 39.62742-59.091883z" filter="url(#e)" transform="translate(248.01637 30.885255)"/>
    <path fill="url(#g)" fill-rule="evenodd" d="m-161.5 34.5c-.5 2.5-19.77817 19.889087-19.77817 19.889087l29.65075 43.202796 39.62742-59.091883z" filter="url(#e)" transform="translate(248.01637 30.885255)"/>
  </mask>
  <filter id="o">
    <feGaussianBlur stdDeviation=".899"/>
  </filter>
  <filter id="x">
    <feGaussianBlur stdDeviation=".565"/>
  </filter>
  <g mask="url(#h)">
    <path fill="url(#i)" d="m64.09375 3.90625c-33.125192-.0000001-60.0000001 26.874805-60 60 .0000001 33.125192 26.87481 60 60 60 30.289116 0 55.33661-22.21626 59.40625-51.34375l-35.03125-5.03125c-1.624684 11.961129-11.930074 20.96875-24.375 20.96875-13.571628-.000001-24.59375-11.022119-24.59375-24.59375.000001-13.571634 11.022119-24.59375 24.59375-24.59375 6.785818-.000001 12.921294 2.765044 17.375 7.21875l-10.327179 10.327179c-2.05587 2.05587-2.243725 3.30578-1.679608 4.615529.508568 1.180779 1.520732 2.526042 4.209725 2.526042h43.953312c3.84589 0 6.45899-2.654379 6.45899-6.250131l-.06887-44.078018c0-2.480755-.90251-3.8432292-2.18147-4.3496147-1.31432-.5203849-3.03321-.1226787-5.10709 1.9511997l-10.19531 10.195314c-10.859348-10.859351-25.874901-17.5625-42.4375-17.5625z"/>
    <path fill="url(#j)" d="m64.09375 3.90625c-33.125192-.0000001-60.0000001 26.874805-60 60 .0000001 33.125192 26.87481 60 60 60 30.289116 0 55.33661-22.21626 59.40625-51.34375l-35.03125-5.03125c-1.624684 11.961129-11.930074 20.96875-24.375 20.96875-13.571628-.000001-24.59375-11.022119-24.59375-24.59375.000001-13.571634 11.022119-24.59375 24.59375-24.59375 6.785818-.000001 12.921294 2.765044 17.375 7.21875l-10.327179 10.327179c-2.05587 2.05587-2.243725 3.30578-1.679608 4.615529.508568 1.180779 1.520732 2.526042 4.209725 2.526042h43.953312c3.84589 0 6.45899-2.654379 6.45899-6.250131l-.06887-44.078018c0-2.480755-.90251-3.8432292-2.18147-4.3496147-1.31432-.5203849-3.03321-.1226787-5.10709 1.9511997l-10.19531 10.195314c-10.859348-10.859351-25.874901-17.5625-42.4375-17.5625z" opacity=".798"/>
    <path fill="url(#k)" d="m64.09375 3.90625c-33.125192-.0000001-60.0000001 26.874805-60 60 .0000001 33.125192 26.87481 60 60 60 30.289116 0 55.33661-22.21626 59.40625-51.34375l-35.03125-5.03125c-1.624684 11.961129-11.930074 20.96875-24.375 20.96875-13.571628-.000001-24.59375-11.022119-24.59375-24.59375.000001-13.571634 11.022119-24.59375 24.59375-24.59375 6.785818-.000001 12.921294 2.765044 17.375 7.21875l-10.327179 10.327179c-2.05587 2.05587-2.243725 3.30578-1.679608 4.615529.508568 1.180779 1.520732 2.526042 4.209725 2.526042h43.953312c3.84589 0 6.45899-2.654379 6.45899-6.250131l-.06887-44.078018c0-2.480755-.90251-3.8432292-2.18147-4.3496147-1.31432-.5203849-3.03321-.1226787-5.10709 1.9511997l-10.19531 10.195314c-10.859348-10.859351-25.874901-17.5625-42.4375-17.5625z" opacity=".689"/>
    <path fill="url(#l)" d="m64.09375 3.90625c-33.125192-.0000001-60.0000001 26.874805-60 60 .0000001 33.125192 26.87481 60 60 60 30.289116 0 55.33661-22.21626 59.40625-51.34375l-35.03125-5.03125c-1.624684 11.961129-11.930074 20.96875-24.375 20.96875-13.571628-.000001-24.59375-11.022119-24.59375-24.59375.000001-13.571634 11.022119-24.59375 24.59375-24.59375 6.785818-.000001 12.921294 2.765044 17.375 7.21875l-10.327179 10.327179c-2.05587 2.05587-2.243725 3.30578-1.679608 4.615529.508568 1.180779 1.520732 2.526042 4.209725 2.526042h43.953312c3.84589 0 6.45899-2.654379 6.45899-6.250131l-.06887-44.078018c0-2.480755-.90251-3.8432292-2.18147-4.3496147-1.31432-.5203849-3.03321-.1226787-5.10709 1.9511997l-10.19531 10.195314c-10.859348-10.859351-25.874901-17.5625-42.4375-17.5625z"/>
    <path fill="url(#m)" d="m64.09375 3.90625c-33.125192-.0000001-60.0000001 26.874805-60 60 .0000001 33.125192 26.87481 60 60 60 30.289116 0 55.33661-22.21626 59.40625-51.34375l-35.03125-5.03125c-1.624684 11.961129-11.930074 20.96875-24.375 20.96875-13.571628-.000001-24.59375-11.022119-24.59375-24.59375.000001-13.571634 11.022119-24.59375 24.59375-24.59375 6.785818-.000001 12.921294 2.765044 17.375 7.21875l-10.327179 10.327179c-2.05587 2.05587-2.243725 3.30578-1.679608 4.615529.508568 1.180779 1.520732 2.526042 4.209725 2.526042h43.953312c3.84589 0 6.45899-2.654379 6.45899-6.250131l-.06887-44.078018c0-2.480755-.90251-3.8432292-2.18147-4.3496147-1.31432-.5203849-3.03321-.1226787-5.10709 1.9511997l-10.19531 10.195314c-10.859348-10.859351-25.874901-17.5625-42.4375-17.5625z" opacity=".798"/>
    <path fill="url(#n)" d="m64.09375 4.20625c-33.125192-.0000001-60.0000001 26.574805-60 59.7.0000001 33.125192 26.87481 60 60 60 30.289116 0 55.33661-22.21626 59.40625-51.34375l-35.03125-5.03125c-1.624684 11.961129-11.930074 20.96875-24.375 20.96875-13.571628-.000001-24.59375-11.022119-24.59375-24.59375.000001-13.571634 11.022119-24.59375 24.59375-24.59375 6.785818-.000001 12.921294 2.765044 17.375 7.21875l-10.327179 10.327179c-2.05587 2.05587-2.243725 3.30578-1.679608 4.615529.508568 1.180779 1.520732 2.526042 4.209725 2.526042h43.953312c3.84589 0 6.45899-2.654379 6.45899-6.250131l-.06887-44.078018c0-2.480755-.90251-3.8432292-2.18147-4.3496147-1.31432-.5203849-3.03321-.1226787-5.10709 1.9511997l-10.19531 10.195314c-10.859348-10.859351-25.874901-17.2625-42.4375-17.2625z" filter="url(#o)" opacity=".745"/>
    <path fill="url(#p)" fill-rule="evenodd" d="m117.6875 10.75.9375 4.375 1.25.875 4-2.625c.24688-1.723751-.35117-3.347429-1.9375-4.0000001-1.58634-.6525714-3.16128.1267033-4.25 1.3750001z" filter="url(#q)" opacity=".82"/>
    <path fill="url(#r)" fill-rule="evenodd" d="m117.6875 10.75 2.1875 3.125.5-.125 3.5-.375c.24688-1.723751-.35117-3.347429-1.9375-4.0000001-1.58634-.6525714-3.16128.1267033-4.25 1.3750001z" filter="url(#q)" opacity=".82" transform="matrix(0 1 1 0 60.363582 -60.363586)"/>
    <path fill="url(#s)" d="m64.09375 7.90625c-30.961698-.0000001-56.0000001 25.038299-56 56 .0000001 30.961698 25.038304 56 56 56 26.932896 0 49.12173-18.80675 54.53125-44l-27.125-3.875c-3.438564 11.897301-14.440379 20.46875-27.40625 20.46875-15.737346-.000001-28.59375-12.856401-28.59375-28.59375.000001-15.737351 12.856402-28.59375 28.59375-28.59375 7.872416-.000001 15.051554 3.207804 20.21875 8.375.759464.751409 1.187497 1.775386 1.1875 2.84375 0 1.068364-.428036 2.092341-1.1875 2.84375l-10.625 10.625h43.9375c2.00539 0 2.46875-.592164 2.46875-2.25l-.09375-44.09375-10.625 10.65625c-.75141.759464-1.77539 1.1875-2.84375 1.1875s-2.09234-.428036-2.84375-1.1875c-10.137665-10.137667-24.110394-16.40625-39.59375-16.40625z"/>
    <path fill="url(#t)" d="m64.09375 7.90625c-30.961698-.0000001-56.0000001 25.038299-56 56 .0000001 30.961698 25.038304 56 56 56 26.932896 0 49.12173-18.80675 54.53125-44l-27.125-3.875c-3.438564 11.897301-14.440379 20.46875-27.40625 20.46875-15.737346-.000001-28.59375-12.856401-28.59375-28.59375.000001-15.737351 12.856402-28.59375 28.59375-28.59375 7.872416-.000001 15.051554 3.207804 20.21875 8.375.759464.751409 1.187497 1.775386 1.1875 2.84375 0 1.068364-.428036 2.092341-1.1875 2.84375l-10.625 10.625h43.9375c2.00539 0 2.46875-.592164 2.46875-2.25l-.09375-44.09375-10.625 10.65625c-.75141.759464-1.77539 1.1875-2.84375 1.1875s-2.09234-.428036-2.84375-1.1875c-10.137665-10.137667-24.110394-16.40625-39.59375-16.40625z"/>
    <path fill="url(#u)" d="m64.09375 7.90625c-30.961698-.0000001-56.0000001 25.038299-56 56 0 .567872.0145224 1.123731.03125 1.6875 5.98947.677652 12.141218 1.15013 18.40625 1.40625-.270702-10.459042 3.671609-20.974916 11.8125-28.78125 15.339317-14.708937 39.728563-14.214319 54.4375 1.125 2.763849 2.882296 4.756602 5.688367 6.5625 9.25l-20.5 10.40625h19.15625c7.9282-2.026627 15.18621-3.436967 22.09375-6.1875l-.09375-39.15625-10.625 10.65625c-.75141.759464-1.77539 1.1875-2.84375 1.1875s-2.09234-.428036-2.84375-1.1875c-10.137665-10.137667-24.110394-16.40625-39.59375-16.40625z" opacity=".833"/>
    <path fill="url(#v)" d="m64.099866 7.9087646c-30.96169-.0000002-55.9999999 25.0382984-55.9999999 55.9999994.00001.178712-.00249.354295 0 .53125.25324-30.743505 25.1959799-55.5312495 55.9999999-55.5312494 15.48337-.0000001 29.45608 6.2685824 39.593744 16.4062494.75142.759465 1.77539 1.1875 2.84375 1.1875 1.06837.000001 2.09234-.428036 2.84375-1.1875l10.125-10.15625.49375 37.55c-6.90754 2.75053-14.56555 3.86086-22.493744 5.8875l-18.65625.40625h19.15625c7.928194-2.02663 15.186204-3.43697 22.093744-6.1875l-.09375-38.15625v-1l-.5.5-10.125 10.15625c-.7514.759465-1.77539 1.1875-2.84375 1.1875-1.06835.000001-2.09234-.428036-2.84375-1.1875-.01047-.010466-.02078-.020792-.03125-.03125-.05237-.052291-.10367-.104166-.15625-.15625-.5738-.567871-1.15087-1.11515-1.75-1.65625-.08152-.074119-.16804-.145107-.25-.21875-9.916044-8.910179-23.009584-14.3437494-37.406244-14.3437494zm-.65625 19.2187494c-9.23817.25052-18.40344 3.79268-25.59375 10.6875-7.63208 7.318434-11.12755 17.372917-11.3125 27.21875.23988-9.80188 4.18042-19.494066 11.8125-26.8125 13.31613-12.7689 33.45333-14.098057 48.15625-4.1875-6.87906-4.805074-14.98746-7.12523-23.0625-6.90625z"/>
    <path fill="none" stroke="url(#w)" stroke-dashoffset="1.088" stroke-linecap="round" stroke-linejoin="round" d="m63.59375 7.90625c-30.9617-.0000001-56 25.038299-56 56 0 30.961698 25.0383 56 56 56 26.9329 0 49.12173-18.80675 54.53125-44l-27.125-3.875c-3.43856 11.897301-14.44038 20.46875-27.40625 20.46875-15.73735-.000001-28.59375-12.856401-28.59375-28.59375 0-15.737351 12.8564-28.59375 28.59375-28.59375 7.87242-.000001 15.05155 3.207804 20.21875 8.375.75946.751409 1.1875 1.775386 1.1875 2.84375s-.42804 2.092341-1.1875 2.84375l-10.625 10.625h43.9375c2.00539 0 2.46875-.592164 2.46875-2.25l-.09375-44.09375-10.625 10.65625c-.75141.759464-1.77539 1.1875-2.84375 1.1875s-2.09234-.428036-2.84375-1.1875c-10.13766-10.137667-24.11039-16.40625-39.59375-16.40625z" filter="url(#x)"/>
  </g>
</svg>
