<?xml version="1.0" encoding="UTF-8" standalone="no"?>
<!-- Created with Inkscape (http://www.inkscape.org/) -->
<svg
   xmlns:svg="http://www.w3.org/2000/svg"
   xmlns="http://www.w3.org/2000/svg"
   version="1.0"
   width="694.7843"
   height="153.84296"
   id="svg2">
  <defs
     id="defs5" />
  <path
     d="M 64.456533,152.2967 C 62.98317,148.45717 55.782826,138.78235 49.352766,132.00235 C 33.809598,115.61329 14.307837,106.03533 7.2895334,111.34371 C 4.7991734,113.22732 0.94371042,113.28745 0.24001542,111.45365 C -1.3226326,107.38146 5.0006274,103.65716 11.786295,104.65309 L 15.162066,105.14854 L 12.050832,101.26203 C -3.7328542,81.545235 5.2683214,52.987701 26.573554,55.186595 C 29.534653,55.492207 33.552581,56.683451 35.502282,57.833803 L 39.047193,59.925352 L 44.484938,57.264911 C 49.127241,54.993644 50.794114,54.68349 55.879915,55.144654 C 62.87516,55.778961 66.967906,57.929886 71.24238,63.218334 C 74.125725,66.785654 74.348403,67.622781 74.348403,74.895003 C 74.348403,83.856565 73.100683,86.295725 65.918025,91.375515 C 62.095542,94.078885 60.918347,94.375515 54.012261,94.375515 C 47.458418,94.375515 45.673029,93.978495 41.685431,91.634365 C 35.135973,87.784235 32.361612,82.937045 32.354252,75.331533 C 32.350303,71.251388 32.91702,68.419736 34.098403,66.616717 C 36.378005,63.137605 36.387746,63.17496 32.598403,60.864553 C 25.807182,56.723865 17.674947,59.404267 13.721914,67.086284 C 12.006684,70.419529 11.523771,73.047113 11.555219,78.875515 C 11.626677,92.118895 14.649354,96.767135 30.563148,108.10569 C 44.632495,118.13009 50.569708,123.36462 56.253667,130.7557 C 60.823988,136.69867 67.848403,149.78143 67.848403,152.35055 C 67.848403,154.35929 65.232084,154.31775 64.456533,152.2967 z M 60.95052,88.605585 C 70.205129,82.423105 70.149165,67.325178 60.848403,61.056329 C 56.281833,57.978394 49.06672,58.404776 45.186891,61.981856 C 38.474855,68.170143 37.984177,80.055885 44.165015,86.734875 C 48.523346,91.444465 55.531772,92.225535 60.95052,88.605585 z M 222.11539,152.62551 C 220.29198,150.29472 198.45238,24.996366 198.3984,16.556181 L 198.3484,8.736849 L 202.47399,4.886111 C 208.92305,-1.13331 217.81888,-1.566973 224.79391,3.798036 C 227.21326,5.658945 227.27481,5.652056 230.55029,3.153728 C 240.59063,-4.504415 255.34911,2.623922 256.60943,15.740278 C 256.91607,18.931553 256.54725,21.557193 255.5108,23.561466 C 253.47185,27.504363 247.30747,32.875513 244.82122,32.875513 C 243.03321,32.875513 243.16615,32.305283 246.35602,26.29246 C 250.17718,19.089656 250.42415,17.529242 248.66976,11.673592 C 246.20437,3.444851 239.05257,1.471341 233.13663,7.387285 C 230.34703,10.176886 229.73132,11.462153 230.14256,13.637285 C 230.4273,15.14331 230.97371,17.984315 231.3568,19.950629 C 231.93157,22.900807 231.62675,24.021666 229.61301,26.362779 L 227.1727,29.199812 L 224.88408,26.911191 C 222.76627,24.793383 222.64555,24.069832 223.26656,17.216746 C 223.92487,9.952051 223.8811,9.754367 220.96995,6.843217 C 215.70083,1.574102 206.89221,3.639032 204.8105,10.631338 C 203.87182,13.784273 204.2606,17.612654 207.2725,34.875513 C 209.23969,46.150513 211.0826,56.388013 211.36785,57.625513 C 211.88116,59.852318 212.06512,59.875513 229.21305,59.875513 L 246.5396,59.875513 L 236.70261,99.625515 C 230.12665,126.19815 226.86277,141.25456 226.85701,145.04372 C 226.85228,148.16124 226.57526,151.42374 226.24141,152.29372 C 225.5138,154.18984 223.4679,154.35436 222.11539,152.62551 z M 231.83106,93.152075 C 235.6906,77.629185 238.8484,64.691685 238.8484,64.402075 C 238.8484,63.567638 212.85287,63.790698 212.80883,64.625513 C 212.78707,65.038013 215.13731,78.800975 218.03159,95.209865 C 221.35553,114.0547 223.57382,124.36852 224.05381,123.20986 C 224.47177,122.20097 227.97153,108.67496 231.83106,93.152075 z M 283.98326,151.30531 C 273.7172,146.09406 268.55284,133.26944 272.0372,121.63969 C 273.61495,116.37364 281.25776,107.87551 284.41605,107.87551 C 286.78512,107.87551 286.77626,107.91747 282.82338,115.42302 C 279.17432,122.35168 278.8484,123.61045 278.8484,130.77514 C 278.8484,139.27141 280.52343,143.09934 286.02391,147.1732 C 290.01536,150.12942 297.55562,150.48441 301.65858,147.90928 C 308.13013,143.84754 308.3484,142.39451 308.3484,103.37551 C 308.3484,69.866217 308.26089,68.226538 306.29366,64.877754 C 305.16355,62.953987 303.13855,60.823121 301.79366,60.142496 C 296.53614,57.481763 288.71945,59.366126 285.4091,64.092308 C 283.72708,66.493731 283.25012,73.875513 284.77697,73.875513 C 286.17397,73.875513 288.8484,76.831463 288.8484,78.375515 C 288.8484,80.465645 285.9581,82.875515 283.45129,82.875515 C 276.52775,82.875515 273.8474,71.008721 279.00916,63.208771 C 282.76628,57.531377 287.60765,55.432872 297.02149,55.401271 C 305.33178,55.373374 308.05972,56.59917 312.28661,62.260632 C 314.28365,64.935449 314.3484,66.205397 314.3484,102.69884 L 314.3484,140.37551 L 311.98051,144.50762 C 308.85912,149.95466 303.3249,152.99835 295.49219,153.57581 C 290.24575,153.9626 288.56478,153.63098 283.98326,151.30531 z M 473.38577,148.20118 C 469.81624,141.37014 455.74442,126.31853 447.39409,120.39973 C 434.48943,111.25278 425.00289,108.1929 419.06658,111.26268 C 412.39705,114.71163 408.40769,111.86167 413.19866,107.07071 C 415.43093,104.83843 416.5961,104.47311 420.88791,104.65985 L 425.9462,104.87994 L 422.9429,101.12772 C 413.88936,89.816575 412.4424,73.967933 419.52204,63.658622 C 422.36429,59.519754 430.58921,54.875513 435.07686,54.875513 C 438.81002,54.875513 443.8834,57.077535 446.237,59.719393 L 448.12561,61.839306 L 451.46562,58.906733 C 457.219,53.855198 464.30198,53.713068 470.62209,58.522331 L 473.89578,61.013433 L 476.90153,58.484264 C 487.60057,49.481611 503.91959,58.812081 503.82086,73.875513 C 503.78246,79.735365 497.36878,88.738355 492.0984,90.330555 C 489.14388,91.223125 489.2531,90.210295 492.8484,83.375515 C 501.04193,67.799358 491.10538,51.418528 480.12443,62.399488 C 476.81816,65.705753 476.64941,66.184544 477.39296,70.149488 C 478.6452,76.826993 478.28864,79.879725 475.98773,82.180635 L 473.8484,84.319955 L 471.61561,82.087165 C 469.23979,79.711355 468.63889,73.110503 470.57286,70.632654 C 472.07482,68.708297 470.1902,63.289536 467.20125,60.938426 C 462.33569,57.111172 455.29809,58.768414 452.23098,64.463686 C 450.69216,67.32111 450.60436,68.311724 451.63686,71.167054 C 452.30321,73.009803 452.8484,75.295403 452.8484,76.246173 C 452.8484,78.935795 449.9549,83.875515 448.37942,83.875515 C 444.64074,83.875515 442.58422,75.744203 444.98838,70.467625 C 446.52493,67.095279 444.51114,62.269589 440.75721,60.328355 C 429.67845,54.599305 420.29565,67.244055 422.99996,84.258965 C 424.59428,94.290105 428.01958,98.641815 441.99602,108.39274 C 459.78139,120.80103 478.8484,143.27793 478.8484,151.83567 C 478.8484,155.57565 476.38168,153.93445 473.38577,148.20118 z M 100.3484,93.673795 C 90.709012,90.319865 84.780951,75.185463 92.361392,73.282893 C 96.772172,72.175863 98.106542,73.406003 97.623662,78.134125 C 97.040552,83.843715 98.481002,87.634165 101.90716,89.405895 C 112.53971,94.904205 123.74365,84.308775 118.34218,73.863483 C 117.51376,72.261493 113.69849,68.447434 109.8638,65.3878 C 106.02911,62.328166 102.43191,58.965817 101.87002,57.915913 C 100.11839,54.642951 100.70836,50.148683 103.27919,47.181277 L 105.70997,44.375513 L 105.65857,48.823471 C 105.60072,53.829596 107.10787,55.499666 116.52049,60.859519 C 125.32907,65.875409 129.02087,72.812193 127.42085,81.341015 C 125.57337,91.188915 111.55739,97.573855 100.3484,93.673795 z M 155.04175,93.612515 C 153.22309,93.030165 150.0398,90.627735 147.96777,88.273785 C 139.87178,79.076255 139.80357,66.762496 147.80855,59.530477 C 154.38938,53.585092 163.76121,53.319424 171.47573,58.859571 L 175.8484,61.999784 L 175.84282,38.687649 C 175.83965,25.411258 175.38273,13.738765 174.78146,11.573495 C 172.30635,2.660372 158.02369,1.076365 152.4091,9.092308 C 149.98384,12.554851 150.36093,18.187391 153.0984,19.388385 C 155.87844,20.608056 156.50155,24.079501 154.33019,26.250867 C 152.05196,28.529091 149.42402,28.274999 146.15416,25.460341 C 143.69791,23.346024 143.35475,22.36192 143.3994,17.560244 C 143.49752,7.008116 150.23212,0.96990197 162.8133,0.15381997 C 171.26998,-0.39472503 177.21784,2.403296 180.29046,8.375513 C 182.24345,12.171521 182.3484,14.032947 182.3484,44.875513 C 182.3484,79.119945 182.04709,81.847955 177.55853,88.242045 C 173.60138,93.879105 163.44176,96.302285 155.04175,93.612515 z M 167.79565,89.402795 C 173.74838,86.324515 176.69495,74.230703 173.40858,66.365291 C 171.63009,62.108766 166.55792,58.884206 161.6332,58.879251 C 149.13798,58.866679 144.72018,80.336695 155.47694,88.797965 C 158.58301,91.241205 163.74998,91.494895 167.79565,89.402795 z M 335.338,91.565115 C 326.71216,82.939275 328.63265,63.113213 339.16773,52.029076 C 340.9171,50.188536 349.5484,43.137537 358.3484,36.36019 C 367.1484,29.582843 377.90846,20.378351 382.25965,15.905764 C 388.52148,9.469232 390.68414,7.836515 392.63257,8.074651 C 395.06282,8.371673 395.03634,8.452087 390.55699,14.375513 C 385.55252,20.993371 374.08675,31.295305 356.71877,44.778972 C 350.46507,49.634049 344.49066,54.567491 343.4423,55.742176 L 341.5362,57.877968 L 344.78519,56.257158 C 349.52928,53.890494 356.03803,54.889556 360.79843,58.715113 L 364.61956,61.785859 L 366.48398,59.69267 C 372.20602,53.268525 384.53182,53.503599 391.68207,60.173241 C 394.93461,63.207159 397.7726,69.043365 398.47017,74.132663 C 399.59535,82.341795 394.73592,93.112695 389.29045,94.479415 C 383.99598,95.808245 381.75297,89.478515 386.43193,86.412745 C 391.663,82.985215 393.42594,73.308963 389.9943,66.859911 C 387.87836,62.883437 381.6818,58.916249 377.54874,58.891963 C 372.79689,58.864042 369.04402,61.490537 367.77269,65.733871 C 366.92183,68.573787 366.91178,70.125426 367.73429,71.662305 C 369.32738,74.639003 369.10914,80.058235 367.2917,82.653005 C 362.80671,89.056225 357.83906,80.074235 361.0122,71.299071 C 364.4767,61.718163 352.2085,55.210536 343.01851,61.754382 C 335.0341,67.439788 334.8988,82.621015 342.79489,86.846875 C 345.06237,88.060395 345.52913,91.794785 343.6484,93.675515 C 341.59888,95.725035 338.78278,95.009895 335.338,91.565115 z M 523.05752,93.309435 C 516.65884,88.827625 513.99505,73.369123 518.3484,65.981536 C 522.70291,58.591983 532.41891,53.821953 540.15857,55.273923 C 542.2115,55.659054 545.50797,57.393739 547.48407,59.128778 C 550.64696,61.905835 551.21503,62.094609 552.23037,60.706035 C 554.43385,57.692601 560.2996,54.882767 564.3484,54.901213 C 572.52311,54.938457 581.21533,61.397245 583.85507,69.395714 C 584.52518,71.426171 584.88653,75.671673 584.65806,78.830155 C 584.65806,78.830155 583.85496,85.258427 582.32756,87.906133 C 581.64004,89.097935 579.2252,91.849535 579.2252,91.849535 C 574.97452,95.581685 572.19253,95.724895 570.62843,92.292065 C 569.54466,89.913465 569.75182,89.456345 573.24121,86.526825 C 581.56248,79.540695 579.2481,64.447425 569.21262,60.254333 C 564.03097,58.089303 560.26628,58.530333 556.69566,61.720682 C 553.30951,64.746207 552.99843,66.630886 554.39842,75.638803 C 554.88524,78.771135 554.62877,80.561765 553.43165,82.388805 C 551.17564,85.831905 549.11275,85.497715 547.14451,81.370285 C 545.68386,78.307265 545.63588,77.229465 546.76415,72.827163 C 547.79956,68.787203 547.80885,67.194234 546.81101,64.78524 C 543.61328,57.06525 531.38133,57.105234 525.86392,64.853711 C 521.29389,71.271738 522.33715,81.958995 527.93791,86.099815 C 534.16998,90.707375 529.40092,97.752525 523.05752,93.309435 z M 611.98548,93.567485 C 603.66229,90.404205 596.91621,81.489505 596.87036,73.593393 C 596.82455,65.704857 600.89869,60.467787 612.6595,53.297375 L 619.3484,49.219237 L 619.62594,34.406547 C 619.95092,17.061941 619.95578,17.072645 610.2863,13.854847 C 601.6887,10.99375 598.8484,8.626515 598.8484,4.321985 C 598.8484,1.453416 599.27583,0.80633897 601.54725,0.23624997 C 603.56235,-0.26951003 604.5124,0.0095579769 605.29725,1.337781 C 609.35578,8.206169 610.62624,9.342256 617.30261,12.073456 C 621.12742,13.638127 624.60803,15.471183 625.0373,16.146913 C 625.46656,16.822643 625.82467,24.299549 625.83309,32.76226 L 625.8484,48.149006 L 632.76399,54.572656 C 640.35752,61.626029 642.8484,66.28332 642.8484,73.427873 C 642.8484,85.375455 634.32596,93.737115 621.37781,94.493405 C 618.00372,94.690485 613.86739,94.282715 611.98548,93.567485 z M 626.21262,89.496695 C 633.0526,86.638765 636.86412,78.410565 634.85675,70.836003 C 633.9816,67.533735 632.14878,64.882453 627.7983,60.625513 C 624.5663,57.463013 621.18265,54.875513 620.27908,54.875513 C 617.96865,54.875513 611.131,60.502706 607.72032,65.211025 C 605.36905,68.45686 604.8484,70.194038 604.8484,74.793413 C 604.8484,86.748785 615.40352,94.013025 626.21262,89.496695 z M 667.3484,93.673795 C 657.70901,90.319865 651.78094,75.185463 659.36139,73.282893 C 663.77217,72.175863 665.10654,73.406003 664.62366,78.134125 C 664.04055,83.843715 665.481,87.634165 668.90716,89.405895 C 679.53971,94.904205 690.74365,84.308775 685.34218,73.863483 C 684.51376,72.261493 680.69849,68.447434 676.8638,65.3878 C 673.02911,62.328166 669.43191,58.965817 668.87002,57.915913 C 667.11839,54.642951 667.70836,50.148683 670.27919,47.181277 L 672.70997,44.375513 L 672.65857,48.823471 C 672.60072,53.829596 674.10787,55.499666 683.52049,60.859519 C 692.32907,65.875409 696.02087,72.812193 694.42085,81.341015 C 692.57337,91.188915 678.55739,97.573855 667.3484,93.673795 z"
     id="path2384"
     style="fill:#000000" />
</svg>
