
<svg width="198" height="70" xmlns="http://www.w3.org/2000/svg">
<rect width="198" height="70"/>
<rect x="108" y="10" width="80" height="50" rx="4" fill="#f7971d"/>

<g transform="matrix(.1 0 0 .1 86.85 30.15)" stroke-width="10">
<path d="m887-30c-5-2-11-3-17-3-24-2-54 7-68 19l3-97h-57v301h53v-17c25 14 43 21 66 21 66-5 93-64 93-116-1-52-23-97-73-108zm-32 179c-35 0-50-41-50-73s11-65 48-65 48 41 48 70c0 32-11 68-46 68zm-200-85c0 31-2 50-5 58-8 18-24 28-42 29-18-1-26-10-33-23-2-7-3-26-3-56v-100h-58v138c-1 49 25 84 73 84 26 0 54-9 72-28v23h53v-217h-57zm-241-97c-28-1-59 6-74 20v-98h-57v300h57v-109c0-18 2-32 5-41 9-18 24-28 43-28 16 0 25 8 32 20 2 6 3 21 3 44v115h58v-128c0-20-1-34-3-43-12-34-36-51-64-52"/>
<path d="m68-45c-24-1-63 8-75 27v-22h-56v229h60v-103c0-26 2-43 5-53 8-20 26-31 45-31 18 0 27 9 34 23 2 7 4 23 4 48v116h60v-142c0-18-1-31-3-41-10-35-41-50-74-51zm-257 27v-22h-56v229h60v-70c0-39 2-65 5-77 4-12 8-21 14-26 6-4 13-7 22-7 8 0 18 4 28 10l19-52c-13-8-26-12-40-12-20 1-40 12-52 27zm-205-27c-22 0-42 5-60 15-19 10-33 24-43 43s-15 38-15 59c0 26 5 48 15 66 10 19 25 33 44 42 19 10 39 14 60 14 34 0 62-11 84-34 23-23 34-51 34-86 0-34-11-63-33-85-23-23-51-34-86-34m40 172c-10 12-24 18-39 18-16 0-29-6-40-18s-16-30-16-52c0-23 5-40 16-52s24-18 40-18c15 0 29 6 39 18 11 12 16 29 16 51 0 23-5 41-16 53m-310-254h-103v316h64v-119h42c51 2 102-6 126-51 7-13 10-29 10-49 0-43-24-81-63-92-12-3-37-5-76-5zm47 138c-9 4-26 5-51 5h-35v-89h31c23 0 38 0 46 2 22 5 36 22 36 42-1 19-11 34-27 40" fill="#fff"/>
</g>
</svg>
