<svg id="Layer_1" data-name="Layer 1" xmlns="http://www.w3.org/2000/svg" viewBox="0 0 1380.76 379.77"><defs><style>.cls-1{fill:#111;}.cls-2{fill:#e95420;}.cls-3{fill:#fff;}</style></defs><path class="cls-1" d="M381.94,314.28v13.91H289V164.73h16V314.28Z"/><path class="cls-1" d="M445.34,203.42q12,0,20.41,3.42a35,35,0,0,1,13.56,9.43,37.4,37.4,0,0,1,7.55,14.27,65.18,65.18,0,0,1,2.35,17.93v76.89a68.54,68.54,0,0,1-6.84,1.54q-4.47.83-10.37,1.76t-13.09,1.54q-7.2.58-14.75.59a70.11,70.11,0,0,1-17.8-2.13,39.2,39.2,0,0,1-14.16-6.72,31.62,31.62,0,0,1-9.43-11.79q-3.42-7.2-3.42-17.57,0-9.91,3.77-17a32.17,32.17,0,0,1,10.62-11.67A47.4,47.4,0,0,1,430,257.2a93.15,93.15,0,0,1,20.52-2.13q3.3,0,7,.36c2.44.23,4.79.55,7.08.94s4.24.79,5.89,1.18a18.16,18.16,0,0,1,3.42,1.06v-7.55a79.7,79.7,0,0,0-.94-12.38,27.15,27.15,0,0,0-4.13-10.85,22.88,22.88,0,0,0-9-7.78q-5.79-3-15.21-3-13.45,0-20.05,1.89t-9.67,3.06l-2.13-13.44a56.58,56.58,0,0,1,12.39-3.54A105.9,105.9,0,0,1,445.34,203.42Zm1.42,113.69q9,0,15.68-.59A105.58,105.58,0,0,0,473.88,315V272.06a47.11,47.11,0,0,0-8.25-2.48,73.46,73.46,0,0,0-15.57-1.3,88.43,88.43,0,0,0-11.79.83,34,34,0,0,0-11.33,3.54,23.33,23.33,0,0,0-8.49,7.43q-3.3,4.71-3.3,12.5a26.82,26.82,0,0,0,2.24,11.55,18.58,18.58,0,0,0,6.37,7.55,28.09,28.09,0,0,0,9.91,4.13A59.63,59.63,0,0,0,446.76,317.11Z"/><path class="cls-1" d="M618.07,324q-6.84,1.89-18.4,4.24a144.45,144.45,0,0,1-28.3,2.36q-13.7,0-22.88-4a37,37,0,0,1-14.86-11.32,45.73,45.73,0,0,1-8.14-17.69A98.62,98.62,0,0,1,523,274.65v-68.4h15.33V269.7a108.17,108.17,0,0,0,1.89,21.93q1.89,9,6.13,14.51a23.91,23.91,0,0,0,11,8,47.64,47.64,0,0,0,16.39,2.48,132.29,132.29,0,0,0,18.87-1.18q8-1.18,10.15-2.13V206.25h15.33Z"/><path class="cls-1" d="M654.29,210.49q6.84-1.87,18.4-4.24A144.42,144.42,0,0,1,701,203.89q13.9,0,23.23,4a35.73,35.73,0,0,1,14.86,11.44,46.69,46.69,0,0,1,7.9,17.81A103.44,103.44,0,0,1,749.35,260v68.16H734V265A115.49,115.49,0,0,0,732.25,243a36.61,36.61,0,0,0-5.9-14.62,22.94,22.94,0,0,0-10.85-8.14q-6.72-2.47-16.86-2.47A128.3,128.3,0,0,0,679.89,219q-7.9,1.17-10.26,2.12V328.19H654.29Z"/><path class="cls-1" d="M835.82,330.79a65.27,65.27,0,0,1-25-4.48,47.13,47.13,0,0,1-18-12.86,57.41,57.41,0,0,1-11-20.05,90.21,90.21,0,0,1,.12-52,59,59,0,0,1,11.2-20.28A49.49,49.49,0,0,1,810.81,208a57,57,0,0,1,23.36-4.6,98.35,98.35,0,0,1,18.51,1.65q8.61,1.65,13.33,4.24l-4,13.21a49.74,49.74,0,0,0-10.61-3.77,70.65,70.65,0,0,0-15.81-1.42q-20.28,0-30.78,13.09t-10.5,37.15a79.37,79.37,0,0,0,2.36,19.94,40.06,40.06,0,0,0,7.67,15.56A35.88,35.88,0,0,0,818,313.22q8.37,3.66,20.4,3.65A53,53,0,0,0,855,314.63a67.24,67.24,0,0,0,9.79-3.89l3.3,13.21q-4.25,2.35-13.33,4.6A79.12,79.12,0,0,1,835.82,330.79Z"/><path class="cls-1" d="M891.41,328.19V148l15.33-2.83v64.63a97.42,97.42,0,0,1,15.33-4.37,80.56,80.56,0,0,1,15.57-1.53q14.15,0,23.59,4a36.46,36.46,0,0,1,15.09,11.44,44.25,44.25,0,0,1,7.9,17.81A108.09,108.09,0,0,1,986.47,260v68.16H971.13V265A115.49,115.49,0,0,0,969.36,243a36.6,36.6,0,0,0-5.89-14.62,22.93,22.93,0,0,0-11-8.14q-6.84-2.47-17.22-2.47a57,57,0,0,0-8.61.7c-3.06.48-5.94,1-8.61,1.54s-5.07,1.14-7.19,1.77a33.18,33.18,0,0,0-4.13,1.41v105Z"/><path class="cls-1" d="M1037.2,371.83h-15.33V210.49a138.9,138.9,0,0,1,17.45-4.48q10.62-2.12,26.89-2.12a65.69,65.69,0,0,1,24.41,4.36,52.87,52.87,0,0,1,18.87,12.62,57.43,57.43,0,0,1,12.27,20,76.44,76.44,0,0,1,4.36,26.65,85.6,85.6,0,0,1-3.65,25.6,57.09,57.09,0,0,1-10.74,20.05,49.39,49.39,0,0,1-17.33,13.09,55.7,55.7,0,0,1-23.47,4.71,57.83,57.83,0,0,1-20.88-3.42q-8.83-3.41-12.85-6.48Zm0-65.57a50.71,50.71,0,0,0,5.31,3.54,49,49,0,0,0,7.42,3.53,59.42,59.42,0,0,0,9.2,2.72,50,50,0,0,0,10.38,1.06q11.33,0,19-3.89a33.23,33.23,0,0,0,12.38-10.62,44.87,44.87,0,0,0,6.84-15.8,84,84,0,0,0,2.13-19.23q0-24.06-12-36.91T1066,217.81a125.91,125.91,0,0,0-18.28,1.06,66.47,66.47,0,0,0-10.49,2.24Z"/><path class="cls-1" d="M1194.12,203.42q12,0,20.4,3.42a35.06,35.06,0,0,1,13.57,9.43,37.25,37.25,0,0,1,7.54,14.27,65.18,65.18,0,0,1,2.36,17.93v76.89a68.54,68.54,0,0,1-6.84,1.54q-4.49.83-10.38,1.76t-13.09,1.54q-7.18.58-14.74.59a70.25,70.25,0,0,1-17.81-2.13,39.24,39.24,0,0,1-14.15-6.72,31.52,31.52,0,0,1-9.43-11.79q-3.43-7.2-3.42-17.57,0-9.91,3.77-17a32.14,32.14,0,0,1,10.61-11.67,47.45,47.45,0,0,1,16.28-6.72,93.15,93.15,0,0,1,20.52-2.13q3.3,0,7,.36c2.43.23,4.79.55,7.07.94s4.25.79,5.9,1.18a18.16,18.16,0,0,1,3.42,1.06v-7.55a81,81,0,0,0-.94-12.38,27.15,27.15,0,0,0-4.13-10.85,22.88,22.88,0,0,0-9-7.78q-5.79-3-15.22-3-13.44,0-20.05,1.89t-9.67,3.06l-2.12-13.44a56.64,56.64,0,0,1,12.38-3.54A106,106,0,0,1,1194.12,203.42Zm1.42,113.69q9,0,15.68-.59a106.28,106.28,0,0,0,11.44-1.54V272.06a47.11,47.11,0,0,0-8.25-2.48,73.46,73.46,0,0,0-15.57-1.3,88.58,88.58,0,0,0-11.8.83,34,34,0,0,0-11.32,3.54,23.33,23.33,0,0,0-8.49,7.43q-3.3,4.71-3.3,12.5a26.67,26.67,0,0,0,2.24,11.55,18.58,18.58,0,0,0,6.37,7.55,28.12,28.12,0,0,0,9.9,4.13A59.79,59.79,0,0,0,1195.54,317.11Z"/><path class="cls-1" d="M1370.93,324.42a137.84,137.84,0,0,1-17.46,4.48q-10.6,2.13-26.89,2.12a65.48,65.48,0,0,1-24.41-4.36A52.74,52.74,0,0,1,1283.3,314,57.08,57.08,0,0,1,1271,294a76.16,76.16,0,0,1-4.37-26.65,85.17,85.17,0,0,1,3.66-25.59,58.1,58.1,0,0,1,10.73-20.17,48.88,48.88,0,0,1,17.34-13.21,55.67,55.67,0,0,1,23.47-4.72,58,58,0,0,1,20.87,3.42q8.85,3.44,12.86,6.49V148l15.33-2.83Zm-15.33-96a52.92,52.92,0,0,0-5.31-3.54,51.67,51.67,0,0,0-7.43-3.54,61.7,61.7,0,0,0-9.2-2.71,49.24,49.24,0,0,0-10.38-1.06q-11.33,0-19,4a34.25,34.25,0,0,0-12.38,10.73,44.87,44.87,0,0,0-6.84,15.8,84.08,84.08,0,0,0-2.12,19.23q0,24.06,12,36.91t31.84,12.86a127.26,127.26,0,0,0,18.28-1.06,69.31,69.31,0,0,0,10.5-2.24Z"/><rect class="cls-2" width="234.13" height="360.27"/><path class="cls-3" d="M42.51,208.76c19.18,13.76,44.58,16,68,5.92,23-9.73,39.27-30.34,42.44-53.8.06-.49.15-1.16-2.27-1.76L136.34,156c-.46-.06-1.12-.07-1.63,1.73-4.8,20-14.76,32.72-31.34,39.9S70.55,203.38,52.53,193c-.83-.4-1.3-.37-2.06.74L42.29,206A1.89,1.89,0,0,0,42.51,208.76Z"/><path class="cls-3" d="M113.6,324.4l14.67.8c2.47.05,2.54-.61,2.6-1.09,3.17-23.46-7-47.65-26.63-63.13-19.89-15.91-45-20.51-67.12-12.33a1.9,1.9,0,0,0-1,2.62l4.64,14c.44,1.28.89,1.43,1.79,1.27,20.14-5.25,36.11-2.39,50.27,9s20.31,26.2,19.63,46.84C112.51,324.18,113.15,324.34,113.6,324.4Z"/><path class="cls-3" d="M123,226.63a14.65,14.65,0,0,0-2-.14,13.25,13.25,0,0,0-8.08,2.67,13.54,13.54,0,1,0,21.62,12.64A13.34,13.34,0,0,0,123,226.63Z"/><path class="cls-3" d="M196.29,202l-6.82-13c-1-2.14-1.73-1.93-2.54-1.66-21.77,9.39-36.8,30-40.21,55.26s5.63,49.16,24.16,64a1.67,1.67,0,0,0,1.28.47,2.11,2.11,0,0,0,1.41-.77l9.58-11.48c.88-1.11.5-1.67,0-2.16-15-14.78-20.63-29.46-18.19-47.57s12.06-31.26,30.22-41.08C196.65,203.08,196.42,202.32,196.29,202Z"/></svg>
