<?xml version="1.0" encoding="UTF-8" standalone="no"?>
<svg
   xmlns:svg="http://www.w3.org/2000/svg"
   xmlns="http://www.w3.org/2000/svg"
   version="1.1"
   id="svg2"
   width="478"
   height="478">
  <path
     d="M 232.348,0.254 90.524,82.138 158.62,121.452 232.348,78.886 Z"
     style="fill:#3895bd"
     id="path4" />
  <path
     d="m 255.9,0.254 v 78.632 l 73.728,42.566 68.096,-39.314 z"
     style="fill:#8fb635"
     id="path6" />
  <path
     d="m 78.748,102.534 v 163.764 l 68.096,-39.314 v -85.136 z"
     style="fill:#3941bf"
     id="path8" />
  <path
     d="m 317.852,226.983 -73.728,42.567 -73.728,-42.567 v -85.134 l 73.728,-42.567 73.728,42.567 z"
     style="fill:#f8c300"
     id="path10" />
  <path
     d="m 409.5,102.534 -68.096,39.314 v 85.136 l 68.096,39.314 z"
     style="fill:#d18c3b"
     id="path12" />
  <path
     d="m 158.62,247.38 -68.096,39.314 141.824,81.884 v -78.632 z"
     style="fill:#bb3a84"
     id="path14" />
  <path
     d="M 329.628,247.38 255.9,289.946 v 78.632 l 141.824,-81.884 z"
     style="fill:#a02c35"
     id="path16" />
  <g
     aria-label="launch"
     style="fill:#72706f;font-family:'Trebuchet MS'"
     id="g30">
    <path
       d="m 0.1,383.2 12.5,-3 v 60.2 q 0,9.9 5.9,11.8 -2.9,5.5 -9.9,5.5 -8.5,0 -8.5,-11.8 z"
       id="path18" />
    <path
       d="m 57.95,451.35 q -1.7,2.8 -5.95,4.6 -4.2,1.75 -8.8,1.75 -8.65,0 -13.6,-4.3 -4.95,-4.35 -4.95,-12.3 0,-9.3 6.95,-14.55 7,-5.25 19.85,-5.25 2.2,0 5.2,0.75 0,-9.45 -11.95,-9.45 -7.05,0 -11.8,2.35 l -2.7,-9.7 q 6.45,-3.1 15.35,-3.1 12.25,0 17.95,5.6 5.7,5.55 5.7,21.1 v 11.45 q 0,10.7 4.3,13.45 -1.55,2.7 -3.45,3.3 -1.9,0.65 -4.35,0.65 -2.7,0 -4.85,-2 -2.15,-2 -2.9,-4.35 z m -1.2,-19.85 q -3.2,-0.65 -4.8,-0.65 -14.8,0 -14.8,9.7 0,7.2 8.35,7.2 11.25,0 11.25,-11.25 z"
       id="path20" />
    <path
       d="m 117.2,456.75 v -4.5 q -2.65,2.25 -7.3,3.85 -4.65,1.6 -8.55,1.6 -18.65,0 -18.65,-19.8 v -34.75 h 12.5 v 33.8 q 0,10.3 9.25,10.3 4.25,0 7.9,-2.2 3.65,-2.2 4.85,-5.1 v -36.8 h 12.5 v 53.6 z"
       id="path22" />
    <path
       d="m 177.65,456.7 v -30.95 q 0,-6.85 -2.65,-10 -2.6,-3.15 -8.55,-3.15 -2.75,0 -5.9,1.55 -3.1,1.55 -4.85,3.85 v 38.7 h -12.5 v -53.55 h 9 l 2.3,5 q 5.1,-6 15.05,-6 9.55,0 15.05,5.75 5.55,5.7 5.55,15.95 v 32.85 z"
       id="path24" />
    <path
       d="m 245.65,407.4 -5.35,9.35 q -4.4,-4.15 -11.8,-4.15 -7.1,0 -11.25,4.75 -4.1,4.7 -4.1,13.05 0,16.85 16.05,16.85 6.95,0 12.25,-4.6 l 4.6,9.85 q -5.45,3.4 -9.55,4.3 -4.05,0.9 -9.6,0.9 -12.4,0 -19.6,-7.2 -7.15,-7.25 -7.15,-20.1 0,-12.65 7.85,-20.45 7.85,-7.8 21.4,-7.8 9.35,0 16.25,5.25 z"
       id="path26" />
    <path
       d="m 290.7,456.7 v -33 q 0,-4.95 -3.1,-7.95 -3.1,-3 -8.1,-3 -3.1,0 -6.25,1.7 -3.15,1.65 -4.5,3.8 v 38.45 h -12.7 v -73.5 l 12.7,-3 v 26.35 q 4.85,-4.4 13.35,-4.4 10.05,0 15.6,5.6 5.55,5.55 5.55,15.95 v 33 z"
       id="path28" />
  </g>
  <g
     aria-label="pad"
     style="fill:#f8c300;font-family:'Trebuchet MS'"
     id="g38">
    <path
       d="m 328.25,455.35 v 22.35 h -12.5 v -74.55 h 12.5 v 3.6 q 4.7,-4.6 11.55,-4.6 25.6,0 25.6,28.2 0,13.15 -7.1,20.25 -7.05,7.1 -19.3,7.1 -5.9,0 -10.75,-2.35 z m 0,-39.1 v 28.15 q 3.4,2.75 7.95,2.75 8.65,0 12.4,-4.1 3.8,-4.15 3.8,-13.05 0,-9.5 -3.75,-13.35 -3.75,-3.9 -12.4,-3.9 -4.5,0 -8,3.5 z"
       id="path32" />
    <path
       d="m 406.2,451.35 q -1.7,2.8 -5.95,4.6 -4.2,1.75 -8.8,1.75 -8.65,0 -13.6,-4.3 -4.95,-4.35 -4.95,-12.3 0,-9.3 6.95,-14.55 7,-5.25 19.85,-5.25 2.2,0 5.2,0.75 0,-9.45 -11.95,-9.45 -7.05,0 -11.8,2.35 l -2.7,-9.7 q 6.45,-3.1 15.35,-3.1 12.25,0 17.95,5.6 5.7,5.55 5.7,21.1 v 11.45 q 0,10.7 4.3,13.45 -1.55,2.7 -3.45,3.3 -1.9,0.65 -4.35,0.65 -2.7,0 -4.85,-2 -2.15,-2 -2.9,-4.35 z m -1.2,-19.85 q -3.2,-0.65 -4.8,-0.65 -14.8,0 -14.8,9.7 0,7.2 8.35,7.2 11.25,0 11.25,-11.25 z"
       id="path34" />
    <path
       d="m 465.4,456.7 v -3.25 q -1.55,1.7 -5.25,3 -3.7,1.25 -7.65,1.25 -11.2,0 -17.65,-7.1 -6.4,-7.1 -6.4,-19.8 0,-12.7 7.35,-20.65 7.4,-8 18.5,-8 6.1,0 11.1,2.5 v -21.45 l 12.5,-3 v 76.5 z m 0,-40.75 q -4,-3.2 -8.35,-3.2 -7.5,0 -11.55,4.6 -4.05,4.55 -4.05,13.1 0,16.7 16.1,16.7 1.8,0 4.4,-1.05 2.65,-1.1 3.45,-2.2 z"
       id="path36" />
  </g>
</svg>
