<?xml version="1.0" encoding="UTF-8"?>
<svg width="212" height="62.5" inkscape:version="1.0.2 (e86c870879, 2021-01-15)" sodipodi:docname="Ruffle_vector_logo.svg" version="1.1" viewBox="0 0 212 62.5" xmlns="http://www.w3.org/2000/svg" xmlns:cc="http://creativecommons.org/ns#" xmlns:dc="http://purl.org/dc/elements/1.1/" xmlns:inkscape="http://www.inkscape.org/namespaces/inkscape" xmlns:rdf="http://www.w3.org/1999/02/22-rdf-syntax-ns#" xmlns:sodipodi="http://sodipodi.sourceforge.net/DTD/sodipodi-0.dtd">
 <metadata>
  <rdf:RDF>
   <cc:Work rdf:about="">
    <dc:format>image/svg+xml</dc:format>
    <dc:type rdf:resource="http://purl.org/dc/dcmitype/StillImage"/>
    <dc:title/>
   </cc:Work>
  </rdf:RDF>
 </metadata>
 <sodipodi:namedview bordercolor="#666666" borderopacity="1" fit-margin-bottom="0" fit-margin-left="0" fit-margin-right="0" fit-margin-top="0" gridtolerance="10" guidetolerance="10" inkscape:current-layer="g903" inkscape:cx="63.017309" inkscape:cy="42.051012" inkscape:document-rotation="0" inkscape:pageopacity="0" inkscape:pageshadow="2" inkscape:window-height="1014" inkscape:window-maximized="1" inkscape:window-width="1920" inkscape:window-x="0" inkscape:window-y="36" inkscape:zoom="5.6568543" objecttolerance="10" pagecolor="#ffffff" showgrid="false"/>
 <g transform="translate(-1.58 -2.77)" inkscape:groupmode="layer" inkscape:label="Image">
  <g transform="matrix(.665 0 0 .64 -3.36 -.174)">
   <path d="m13.7 80.3c1.53-10.9 2.79-20.3 2.81-21 0.0942-3.01 4.01-5.25 9.29-5.32 4.57-0.0589 4.95-0.21 2.96-1.17-1.75-0.843-2.18-1.71-1.81-3.68 0.263-1.42 0.763-4.74 1.11-7.39 0.528-4 1.17-5.13 3.81-6.75 2.8-1.71 5.11-1.94 19.3-1.94 21.4-5e-3 21.1-0.211 19.4 13.6-1.93 15.7-1.69 13.3-1.69 13.3-7.1 0-16.2 0.253-16.2 0.253 0.272-0.962 0.997-5.04 1.37-7.95l0.673-5.3-11.7 0.606-1.13 6.93c-1.22 7.49-3.55 10.6-7.97 10.6-1.86 0-2.46 0.668-2.91 3.25-0.622 3.59-4.6 32.2-4.63 32.9-5.85 0.126-9.67 0.0889-15.6 0.0889zm60-6.25c2.66-19.2 3.11-20 11.2-20.1 4.57-0.0589 4.95-0.21 2.96-1.17-1.76-0.849-2.18-1.7-1.79-3.68 0.277-1.42 0.784-4.83 1.13-7.58 0.898-7.04 0.893-7.8 0.893-7.8 5.28 0 15.7-0.0324 15.7-0.0324s-0.813 7.47-1.69 14.4c-1.4 10.9-1.92 12.8-4.06 14.8-1.35 1.24-3.51 2.25-4.8 2.25-2.47 0-2.45-0.0604-5.06 16.8l-0.66 4.25h11.9l1.68-11.2c2.54-17 2.69-17.7 4.25-19.3 0.884-0.884 3.48-1.46 6.63-1.48 4.52-0.0278 4.96-0.201 3.43-1.36-2.06-1.57-2.1-2.2-0.628-12.1l0.882-6.95c3.52 0.254 8.77 0.121 15 0.133-0.272 1.24-0.69 9.17-1.57 15.7-0.874 6.59-2.07 12.6-2.65 13.3s-2.75 1.55-4.81 1.88l-3.75 0.6-1.11 8.14c-2.97 21.9-3.01 22-5.89 24.4-2.6 2.13-4.3 3.39-20.1 3.39-8.48 0.198-13.4-1.21-16-3.86-3.42-3.48-2.63-11.7-1.05-23.4zm62.6-17.8c1.19-1.89 2.34-2.26 7.15-2.32 4.78-0.0565 5.36-0.243 3.53-1.13-1.67-0.805-2.08-1.7-1.73-3.68 0.259-1.44 1.52-10.1 2.81-19.3 1.28-9.2 2.9-17.4 3.59-18.2 2.1-2.53 7.96-3.53 20.7-3.54 11.1-0.00512 14.2-0.452 17.2 1.69 0.679 0.66 1.86 1.62 3.04 2.83 0.854 2.83 0.191 7.42-0.885 14.9-1.11 7.54-2.01 14.1-2.01 14.7-5.63 0.141-9.91 0.156-16 0.195 0.852-7.09 1.55-12.3 2.31-19.5-0.685-1.15-10.1-0.89-10.9 0.301-0.707 1.14-4.41 25-4.45 28.7-0.0213 2.08 0.418 2.25 5.88 2.25h5.9l-0.54 4.25c-0.36 2.83-1.06 6.53-1.06 6.53-2.92 0.271-5.08 0.217-11.3 0.217-5.43 0-9.88 0.414-9.88 0.92 0 1.39-4.43 32.5-4.89 35.1-5.31-0.015-7.8 0.0417-15 0.0332 1.41-14.1 3.83-30.9 6.49-44.9zm43.7 45.1c3.7e-4 -0.412 0.95-12.3 2.55-23.8 3.29-23.6 3.25-23.5 11.5-23.5 4.44 0 4.79-0.151 3.15-1.35-1.79-1.31-1.78-1.84 0.367-17.8 2.93-21.7 2.83-21.3 5.73-24 2.46-2.31 3.14-2.93 19.5-2.93 16 0 16.9 0.662 19 2.74l2.19 2.19-1.75 12.8c-1.81 11.4-2.16 14.6-2.55 17.1-5.06 0.152-10.3 0.169-15.7 0.233 0.891-6.07 2.6-19.3 2.09-20.1-0.705-1.14-10.1-1.26-10.8-0.131-0.394 0.638-4.25 26.5-4.6 28.5-0.454 2.58 2.71 2.7 6.04 2.7h6.06l-0.689 4.75c-0.494 2.25-1.06 4.88-1.2 5.56-0.677 0.205-5.02 0.338-10.6 0.523l-10.3 0.337-4.59 36.2c-5.15-0.0481-10.4 0.0183-15.4 9e-3zm53.2-25.3c3.05-21.4 3.37-22 11.8-22.1 4.09-0.0505 4.68-0.247 2.89-0.968-1.24-0.497-2.25-1.26-2.25-1.69 2.03-14.4 3.91-28.9 6.09-43.2 4.83-0.0157 9.53-0.108 14.7-0.0163-0.199 1.6-5.09 42.8-6.35 50.6-0.599 3.75-2.33 5.37-6.69 6.27l-3.23 0.66-1.63 11.5c-1.2 8.03-2.22 16.1-3.09 24.1h-16c1.32-8.94 2.69-17.8 3.76-25.2zm33.5 25.2c-7.02-6.71-0.368-35.4 1.88-45.7 0.886-1.07 3.1-1.59 6.93-1.64 4.46-0.0537 5.2-0.273 3.58-1.06-1.84-0.895-1.98-1.56-1.33-6.68 0.888-5.21 0.569-9.96 3.81-13.3l2.92-2.92h16.5c15.7 0 11.7-0.144 17.3 0.398l4.54 4.14-1.61 12c-0.886 6.59-1.85 13.2-2.14 14.6l-0.53 2.63-18.4 0.728c-10.1 0.4-18.5 1.02-18.5 1.37-8e-3 0.689-1.64 11.6-2.54 16.9l-0.546 3.25h12l0.633-3.75c1.28-7.58 1.26-7.35 1.26-7.35l15.9 0.104c-1.69 11.6-0.885 22.4-8.72 26.3l-16.5-0.053c-6.67 0.11-11 0.148-16.4 0.04zm38.3-47.3c0.324-3.51 0.415-6.5 0.693-9.92-4.22 0.0432-8.57 0.25-12.3 0.292-0.503 2.65-0.672 6.3-0.877 9.98 6.17-0.142 7.79-0.126 12.5-0.355z" fill="#ffa500" sodipodi:nodetypes="cccccccccccccccscccccccccccccscccccccccccsccccccccccccccccccccccsccscscccccccccscccccccssscscccccccccccccccccccccccsccccccccccccsccccccccccccccc"/>
   <g fill="#815f0b">
    <path d="m32.4 65.6-2.51-12.2 7 5.89 3.86.466-1.38 2.72-2.3 2.25-1.69.594z"/>
    <path d="m90.7 66.4 0.8-12.8 4.71 6.22 2.76 2-1.26 1.35-2.69 2.37-1.64 0.626z" style="stroke-width:1.05" sodipodi:nodetypes="cccccccc"/>
    <path d="m150 66 0.41-12 5.79 6.16 8.17 4.97-3.66-0.0078-3.35 0.137-2.94 0.169z" sodipodi:nodetypes="cccccccc"/>
    <path d="m250 65.6 0.368-11.8 4.12 5.49 4.02 3.25-1.14 1.05-2.58 1.1-1.8 0.623z" sodipodi:nodetypes="cccccccc"/>
    <path d="m118 65.3.8-11.6 4.71 5.63 3.57 2.34-.59 1.33-1.05.728-2.9 1.17-1.86.197z" sodipodi:nodetypes="ccccccccc"/>
    <path d="m200 65.2 0.48-11.5 5.49 5.76 8.31 5.21-7.24 0.327-2.97 0.0431z" sodipodi:nodetypes="cccccccc"/>
    <path d="m282 65.8-0.106-11.6 5.07 5.31 7.79 5.08-2.9 0.264-3.94 0.263-2.52 0.202z" style="stroke-width:1.04" sodipodi:nodetypes="cccccccc"/>
   </g>
  </g>
 </g>
</svg>
