<?xml version="1.0" encoding="utf-8"?>
<!-- Generator: Adobe Illustrator 19.0.0, SVG Export Plug-In . SVG Version: 6.00 Build 0)  -->
<svg version="1.1"
	 id="svg2728" xmlns:sodipodi="http://sodipodi.sourceforge.net/DTD/sodipodi-0.dtd" xmlns:svg="http://www.w3.org/2000/svg" xmlns:rdf="http://www.w3.org/1999/02/22-rdf-syntax-ns#" xmlns:inkscape="http://www.inkscape.org/namespaces/inkscape" xmlns:cc="http://creativecommons.org/ns#" xmlns:dc="http://purl.org/dc/elements/1.1/" inkscape:output_extension="org.inkscape.output.svg.inkscape" inkscape:version="0.46" sodipodi:docname="Wikibooks-logo-en.svg" sodipodi:version="0.32"
	 xmlns="http://www.w3.org/2000/svg" xmlns:xlink="http://www.w3.org/1999/xlink" x="0px" y="0px" viewBox="138 -123 400 400"
	 style="enable-background:new 138 -123 400 400;" xml:space="preserve">
<style type="text/css">
	.st0{fill:#FDFCF8;}
	.st1{fill:#5F96D3;}
	.st2{fill:#F4EED7;}
	.st3{fill:#2A62A1;}
	.st4{fill:#E9DDAF;}
	.st5{fill:#15304F;}
	.st6{fill:#0B2645;}
	.st7{fill:#0A4E98;}
</style>
<sodipodi:namedview  bordercolor="#666666" inkscape:cy="167.87149" showgrid="false" borderopacity="1.0" inkscape:zoom="1.245" inkscape:cx="-25.596562" pagecolor="#ffffff" id="base" inkscape:current-layer="g2700" inkscape:window-y="55" inkscape:window-x="0" inkscape:pageopacity="0.0" inkscape:pageshadow="2" inkscape:window-width="1272" inkscape:window-height="935" gridtolerance="10.0" guidetolerance="10.0" objecttolerance="10.0">
	</sodipodi:namedview>
<defs>
	
	
		<inkscape:perspective  sodipodi:type="inkscape:persp3d" inkscape:vp_y="0 : 1000 : 0" inkscape:vp_z="400 : 200 : 1" inkscape:vp_x="0 : 200 : 1" id="perspective20" inkscape:persp3d-origin="200 : 133.33333 : 1">
		</inkscape:perspective>
</defs>
<g id="layer1">
</g>
<g id="g3189">
	<g id="g3177">
		<path id="path3297" class="st0" d="M329.7-7c5.3,66,16.8,129.9,51.2,191.5l13,0.1l82.3-73.4L397.7-87.1l-56.5,54L329.7-7z"/>
		<path id="path3272" class="st1" d="M401.3-106.5c-27.2,26.3-54.1,52.4-54.1,52.4l9.7,19.7c13.1-13,26.3-24.4,38.8-37.1
			c26.4,58,44.4,104.8,66.6,166.6c7.3,20.1,5.8,21-11.6,31.8c-27.9,13.9-36.7,22.9-69.9,58.3h22.7c27.8-25.1,38.1-33.9,72.8-52.3
			c12.3-7.1,14-16.1,8.9-30C469.1,57.7,433.9-39.7,401.3-106.5z"/>
	</g>
	<g id="g3181">
		<path id="path3214" class="st2" d="M263.8-7c5.3,66,18.8,130.8,53.2,192.3l20.3,0.2l62-77.7L331.9-87l-56.5,54L263.8-7z"/>
		<path id="path3138" class="st3" d="M330.5-105.9c-19.9,13.4-35.2,32.7-52.5,49.3l7.1,22.6c13.5-10.7,25.3-23.5,37.5-35.7L388.2,95
			c3.8,11.2-2.2,21.1-14.2,31.9c-14.3,11.5-43.9,38.4-57.3,58.9h20.4c21.4-22,25.2-24.9,49.6-46c16.3-16.7,31.1-25.2,23.4-46.6
			L330.5-105.9z"/>
	</g>
	<g id="g3185">
		<path id="path2238" class="st4" d="M188.2-8.4c5.4,69.3,27,131.3,52.5,191.7l26.8-0.3l70.4-80L256.3-88.4l-56.5,54L188.2-8.4z"/>
		<path id="path3136" class="st5" d="M263.3-106.9c-5.3,1.8-9.7,5.2-13.8,8.8c-56.1,54-58.3,56.3-58.3,56.3c-3,2.7-3.2,6.8-3.2,10.8
			l0.2,22.7c0,0,25.9-25.2,64.6-62.4c20.8,54.2,42.5,108.2,63.9,162.2c2.9,8.2-4.1,14.9-13,23.8c-12.3,12-37.9,36.6-64.2,69.5h26.3
			l63.3-69.4c6-8.3,13.5-16.4,10.3-23.9C339.5,91.4,263.3-106.9,263.3-106.9z"/>
	</g>
</g>
<g id="g2700" transform="translate(6.8381)">
	<path id="text2420" class="st6" d="M158,193.4h10.1l7.1,29.7l7-29.7h10.1l7,29.7l7.1-29.7h10l-9.6,40.8h-12.1l-7.4-31l-7.3,31
		h-12.1L158,193.4z M223.3,193.4h10.5v40.8h-10.5V193.4z M244.2,193.4h10.5v14.9l15.2-14.9h12.2l-19.7,19.3l21.7,21.5h-13.2
		l-16.2-16.1v16.1h-10.5V193.4z M287.6,193.4h10.5v40.8h-10.5V193.4z"/>
	
		<path id="text3194" sodipodi:nodetypes="cssscccccssscccccsssccccssscccssssssscccssssssscccssssssscccsssssssccccccccccccccccsssssccsssssccsssssccssssscc" class="st7" d="
		M324.4,209.2c1.7,0,2.9-0.4,3.8-1.1c0.9-0.7,1.3-1.8,1.3-3.2c0-1.4-0.4-2.5-1.3-3.2c-0.9-0.7-2.1-1.1-3.8-1.1h-5.8v8.6H324.4z
		 M324.7,227c2.1,0,3.7-0.4,4.8-1.3c1.1-0.9,1.6-2.2,1.6-4c0-1.8-0.5-3.1-1.6-4c-1.1-0.9-2.7-1.3-4.8-1.3h-6.2V227H324.7z
		 M334.5,212.4c2.3,0.7,4,1.9,5.3,3.6c1.2,1.8,1.9,3.9,1.9,6.5c0,3.9-1.3,6.9-4,8.8c-2.7,1.9-6.7,2.9-12.1,2.9H308v-40.8h15.8
		c5.7,0,9.8,0.9,12.3,2.6c2.5,1.7,3.8,4.5,3.8,8.2c0,2-0.5,3.7-1.4,5.1C337.6,210.7,336.3,211.7,334.5,212.4L334.5,212.4z
		 M365.3,200.3c-3.2,0-5.7,1.2-7.5,3.6c-1.8,2.4-2.7,5.7-2.7,10c0,4.3,0.9,7.6,2.7,10c1.8,2.4,4.3,3.6,7.5,3.6
		c3.2,0,5.7-1.2,7.5-3.6c1.8-2.4,2.7-5.7,2.7-10c0-4.3-0.9-7.6-2.7-10C371,201.5,368.5,200.3,365.3,200.3L365.3,200.3z M365.3,192.6
		c6.6,0,11.7,1.9,15.4,5.6c3.7,3.8,5.6,8.9,5.6,15.6c0,6.6-1.9,11.8-5.6,15.5c-3.7,3.8-8.9,5.6-15.4,5.6c-6.5,0-11.7-1.9-15.4-5.6
		c-3.7-3.8-5.6-8.9-5.6-15.5c0-6.6,1.9-11.8,5.6-15.6C353.6,194.5,358.8,192.6,365.3,192.6L365.3,192.6z M408.9,200.3
		c-3.2,0-5.7,1.2-7.5,3.6c-1.8,2.4-2.7,5.7-2.7,10c0,4.3,0.9,7.6,2.7,10c1.8,2.4,4.3,3.6,7.5,3.6c3.2,0,5.7-1.2,7.5-3.6
		c1.8-2.4,2.7-5.7,2.7-10c0-4.3-0.9-7.6-2.7-10C414.6,201.5,412.1,200.3,408.9,200.3L408.9,200.3z M408.9,192.6
		c6.6,0,11.7,1.9,15.4,5.6c3.7,3.8,5.6,8.9,5.6,15.6c0,6.6-1.9,11.8-5.6,15.5c-3.7,3.8-8.9,5.6-15.4,5.6c-6.5,0-11.7-1.9-15.4-5.6
		c-3.7-3.8-5.6-8.9-5.6-15.5c0-6.6,1.9-11.8,5.6-15.6C397.2,194.5,402.3,192.6,408.9,192.6L408.9,192.6z M433.8,193.4h10.5v14.9
		l15.2-14.9h12.2l-19.7,19.3l19.7,21.5h-11.2l-16.2-16.1v16.1h-10.5V193.4z M501.6,194.7v8.6c-2.2-1-4.4-1.8-6.6-2.3
		c-2.1-0.5-4.1-0.8-6-0.8c-2.5,0-4.4,0.3-5.6,1c-1.2,0.7-1.8,1.8-1.8,3.2c0,1.1,0.4,1.9,1.2,2.6c0.8,0.6,2.3,1.1,4.4,1.6l4.5,0.9
		c4.5,0.9,7.8,2.3,9.7,4.2c1.9,1.9,2.9,4.5,2.9,7.9c0,4.5-1.3,7.9-4,10c-2.7,2.2-6.7,3.3-12.2,3.3c-2.6,0-5.2-0.2-7.8-0.7
		s-5.2-1.2-7.8-2.2v-8.9c2.6,1.4,5.1,2.4,7.6,3.1c2.4,0.7,4.8,1.1,7,1.1c2.3,0,4.1-0.4,5.3-1.1c1.2-0.8,1.8-1.9,1.8-3.3
		c0-1.3-0.4-2.3-1.2-3c-0.8-0.7-2.5-1.3-5-1.9l-4.1-0.9c-4.1-0.9-7.1-2.3-9-4.2c-1.9-1.9-2.8-4.5-2.8-7.7c0-4.1,1.3-7.2,3.9-9.4
		c2.6-2.2,6.4-3.3,11.3-3.3c2.2,0,4.5,0.2,6.9,0.5C496.7,193.5,499.1,194,501.6,194.7L501.6,194.7z"/>
</g>
<path id="text3198" d="M155.7,253.6c0-1-0.1-2-0.4-2.8c-0.3-0.8-0.6-1.6-1.1-2.2c-0.5-0.6-1-1.1-1.7-1.4c-0.6-0.3-1.3-0.5-2.1-0.5
	c-0.8,0-1.5,0.2-2.2,0.5c-0.7,0.3-1.3,0.8-1.9,1.4c-0.6,0.6-1.1,1.2-1.6,2c-0.5,0.8-0.9,1.6-1.2,2.5c-0.3,0.9-0.6,1.8-0.8,2.7
	c-0.2,0.9-0.3,1.9-0.3,2.8c0,1,0.1,2,0.4,2.8s0.6,1.5,1.1,2.1c0.5,0.6,1,1,1.7,1.3c0.6,0.3,1.3,0.5,2.1,0.5c0.8,0,1.5-0.2,2.2-0.5
	c0.7-0.3,1.3-0.8,1.9-1.4c0.6-0.6,1.1-1.3,1.6-2c0.5-0.8,0.9-1.6,1.2-2.5c0.3-0.9,0.6-1.8,0.8-2.7
	C155.6,255.4,155.7,254.5,155.7,253.6L155.7,253.6z M159.3,253.6c0,1.1-0.1,2.2-0.4,3.3c-0.2,1.1-0.6,2.1-1,3.1
	c-0.5,1-1,1.9-1.7,2.8c-0.7,0.9-1.4,1.6-2.3,2.2c-0.9,0.6-1.8,1.1-2.9,1.5c-1.1,0.4-2.2,0.5-3.5,0.5c-1.3,0-2.4-0.2-3.5-0.6
	s-2-1-2.7-1.7c-0.8-0.8-1.4-1.7-1.8-2.7c-0.4-1.1-0.6-2.2-0.6-3.5c0-1.1,0.1-2.2,0.4-3.3c0.3-1.1,0.6-2.1,1.1-3.1s1.1-1.9,1.8-2.7
	c0.7-0.8,1.5-1.5,2.3-2.1c0.9-0.6,1.8-1.1,2.9-1.4c1-0.3,2.1-0.5,3.3-0.5c1.3,0,2.5,0.2,3.6,0.7c1.1,0.4,2,1,2.7,1.8
	c0.7,0.8,1.3,1.6,1.7,2.7C159.1,251.4,159.3,252.5,159.3,253.6L159.3,253.6z M171.4,257.1c0-0.5,0-0.9-0.1-1.4
	c-0.1-0.5-0.2-0.9-0.4-1.3c-0.2-0.4-0.5-0.7-0.8-0.9c-0.3-0.2-0.7-0.4-1.1-0.4c-0.4,0-0.8,0.1-1.1,0.2c-0.4,0.2-0.7,0.4-1,0.6
	c-0.3,0.2-0.6,0.4-0.8,0.6c-0.2,0.2-0.4,0.3-0.5,0.4l-1.9,9.6c0.1,0.1,0.2,0.1,0.4,0.2c0.2,0.1,0.4,0.2,0.6,0.3
	c0.2,0.1,0.5,0.2,0.7,0.3c0.3,0.1,0.5,0.1,0.8,0.1c0.6,0,1.1-0.1,1.6-0.4c0.5-0.3,0.9-0.6,1.3-1c0.4-0.4,0.7-0.9,1-1.5
	c0.3-0.6,0.5-1.2,0.7-1.8c0.2-0.6,0.3-1.2,0.4-1.9C171.3,258.3,171.4,257.7,171.4,257.1L171.4,257.1z M174.5,257
	c0,0.8-0.1,1.7-0.3,2.5c-0.2,0.8-0.5,1.6-0.9,2.3c-0.4,0.7-0.9,1.4-1.4,2c-0.5,0.6-1.2,1.2-1.8,1.6c-0.7,0.5-1.4,0.8-2.2,1.1
	c-0.8,0.3-1.6,0.4-2.5,0.4c-0.5,0-0.9-0.1-1.3-0.2c-0.4-0.1-0.7-0.3-1-0.4l-1,5c0,0.2,0,0.3,0.1,0.4c0.1,0.1,0.3,0.2,0.5,0.2l2,0.2
	v1.2h-8v-1.2l1.7-0.2c0.4,0,0.7-0.2,0.8-0.6l3.6-17.9l-2.7-0.3v-0.9l4.8-1h1.2l-0.4,1.9c0.3-0.2,0.6-0.4,0.9-0.6
	c0.3-0.2,0.7-0.4,1.1-0.6s0.8-0.4,1.2-0.5c0.4-0.1,0.9-0.2,1.3-0.2c0.8,0,1.5,0.2,2,0.5c0.5,0.3,1,0.8,1.3,1.3
	c0.3,0.5,0.5,1.2,0.7,1.8C174.5,255.6,174.5,256.3,174.5,257L174.5,257z M186,254.3c0-0.2,0-0.4-0.1-0.6c-0.1-0.2-0.2-0.4-0.3-0.5
	c-0.1-0.2-0.3-0.3-0.5-0.4c-0.2-0.1-0.5-0.1-0.7-0.1c-0.4,0-0.7,0.1-1,0.3c-0.3,0.2-0.6,0.4-0.9,0.7c-0.3,0.3-0.6,0.6-0.8,1
	c-0.3,0.4-0.5,0.8-0.7,1.2c-0.2,0.4-0.4,0.9-0.5,1.3c-0.2,0.4-0.3,0.9-0.4,1.3c0.7-0.1,1.4-0.2,2.1-0.5c0.7-0.2,1.4-0.6,2-0.9
	c0.6-0.4,1.1-0.8,1.4-1.3C185.8,255.4,186,254.9,186,254.3L186,254.3z M188.8,254.4c0,0.6-0.1,1.1-0.4,1.6c-0.3,0.5-0.6,0.9-1.1,1.3
	c-0.5,0.4-1,0.7-1.6,1c-0.6,0.3-1.2,0.5-1.9,0.8c-0.7,0.2-1.3,0.4-2,0.5c-0.7,0.1-1.3,0.2-2,0.2c0,0.2-0.1,0.4-0.1,0.7
	c0,0.3,0,0.5,0,0.7c0,0.6,0.1,1.1,0.2,1.6c0.1,0.5,0.3,0.9,0.6,1.2c0.3,0.3,0.6,0.6,1,0.8c0.4,0.2,0.8,0.3,1.3,0.3
	c0.7,0,1.5-0.3,2.3-0.8c0.9-0.5,1.9-1.3,3-2.3v1.9c-0.3,0.3-0.7,0.6-1.1,0.9c-0.4,0.3-0.9,0.7-1.5,1c-0.6,0.3-1.2,0.5-1.8,0.7
	c-0.6,0.2-1.3,0.3-2.1,0.3c-0.3,0-0.7,0-1-0.1c-0.4-0.1-0.7-0.2-1.1-0.3c-0.4-0.2-0.7-0.4-1.1-0.6c-0.3-0.3-0.6-0.6-0.9-1
	c-0.3-0.4-0.5-0.9-0.6-1.5c-0.2-0.6-0.2-1.3-0.2-2c0-0.8,0.1-1.6,0.3-2.4c0.2-0.8,0.5-1.6,0.8-2.3c0.4-0.7,0.8-1.4,1.3-2.1
	s1.1-1.2,1.7-1.7c0.6-0.5,1.3-0.8,2-1.1c0.7-0.3,1.4-0.4,2.2-0.4c0.7,0,1.3,0.1,1.8,0.4c0.5,0.2,0.9,0.5,1.2,0.9
	c0.3,0.3,0.5,0.7,0.6,1C188.7,253.9,188.8,254.1,188.8,254.4L188.8,254.4z M206.1,265.9c-0.1,0.1-0.4,0.1-0.7,0.2
	c-0.3,0.1-0.7,0.2-1.1,0.3c-0.4,0.1-0.8,0.2-1.3,0.3c-0.4,0.1-0.8,0.1-1.1,0.1c-0.2,0-0.4,0-0.8-0.1c-0.3,0-0.6-0.1-0.9-0.2
	c-0.3-0.1-0.5-0.3-0.7-0.6c-0.2-0.2-0.2-0.6-0.1-1l1.9-9.5c0.1-0.4,0.1-0.8,0-1c-0.1-0.3-0.2-0.5-0.3-0.7c-0.1-0.2-0.3-0.3-0.5-0.3
	s-0.4-0.1-0.6-0.1c-0.3,0-0.6,0.1-1,0.2c-0.4,0.1-0.8,0.3-1.2,0.6c-0.4,0.2-0.8,0.5-1.3,0.9s-0.8,0.7-1.2,1l-2.2,10.4h-3l2.8-13.1
	l-2.7-0.3v-0.9l4.8-1h1.3l-0.6,2.9c0.4-0.3,0.8-0.7,1.2-1c0.5-0.3,0.9-0.7,1.5-0.9c0.5-0.3,1-0.5,1.6-0.7c0.6-0.2,1.1-0.3,1.6-0.3
	c1.2,0,2,0.3,2.5,0.9c0.5,0.6,0.6,1.6,0.4,3l-1.7,8.7c-0.1,0.3,0,0.5,0.1,0.7c0.1,0.2,0.2,0.3,0.4,0.4c0.2,0.1,0.3,0.1,0.5,0.2
	c0.2,0,0.3,0,0.4,0c0.3,0,0.6,0,0.9-0.1c0.3-0.1,0.7-0.2,1.1-0.3L206.1,265.9z M226.8,257.1c0-0.7-0.1-1.3-0.2-1.8s-0.4-0.9-0.6-1.2
	c-0.2-0.3-0.5-0.5-0.7-0.6c-0.3-0.1-0.5-0.2-0.7-0.2c-0.3,0-0.5,0-0.8,0.1c-0.3,0.1-0.6,0.2-1,0.3c-0.3,0.1-0.6,0.3-1,0.5
	c-0.3,0.2-0.6,0.4-0.9,0.6l-1.8,9.4c0.1,0.2,0.2,0.3,0.4,0.4c0.2,0.1,0.4,0.3,0.6,0.4s0.5,0.2,0.7,0.3c0.3,0.1,0.5,0.1,0.8,0.1
	c0.5,0,0.9-0.1,1.4-0.4c0.4-0.2,0.8-0.6,1.2-1c0.4-0.4,0.7-0.9,1-1.4c0.3-0.6,0.6-1.1,0.8-1.8c0.2-0.6,0.4-1.3,0.5-1.9
	C226.8,258.3,226.8,257.7,226.8,257.1L226.8,257.1z M230,256.9c0,0.6-0.1,1.3-0.2,2.1c-0.1,0.7-0.4,1.5-0.7,2.2
	c-0.3,0.7-0.7,1.4-1.2,2.1c-0.5,0.7-1,1.3-1.7,1.8c-0.7,0.5-1.4,0.9-2.3,1.3s-1.8,0.5-2.9,0.5c-0.9,0-1.8-0.1-2.6-0.4
	c-0.9-0.2-1.7-0.6-2.4-1.1l3.7-19.6l-2.8-0.3v-0.9l4.9-0.9h1.2l-1.8,9.4c0.3-0.3,0.6-0.5,1-0.7c0.3-0.2,0.7-0.4,1.1-0.6
	c0.4-0.2,0.8-0.3,1.1-0.4c0.4-0.1,0.8-0.2,1.2-0.2c0.8,0,1.5,0.2,2.1,0.5c0.6,0.4,1,0.8,1.4,1.4c0.3,0.6,0.6,1.2,0.7,1.8
	C229.9,255.6,230,256.3,230,256.9L230,256.9z M242.9,257.1c0-0.7-0.1-1.4-0.2-1.9c-0.1-0.6-0.3-1-0.6-1.4c-0.2-0.4-0.5-0.7-0.9-0.9
	c-0.3-0.2-0.7-0.3-1.1-0.3c-0.7,0-1.3,0.2-1.9,0.7c-0.6,0.5-1.1,1.1-1.5,1.9c-0.4,0.8-0.8,1.7-1,2.7s-0.4,2-0.4,3
	c0,0.8,0.1,1.4,0.2,2c0.1,0.6,0.3,1.1,0.6,1.4c0.3,0.4,0.6,0.7,0.9,0.9c0.3,0.2,0.7,0.3,1.1,0.3c0.5,0,1-0.1,1.4-0.4
	c0.4-0.2,0.8-0.6,1.2-1c0.4-0.4,0.7-0.9,1-1.5c0.3-0.6,0.5-1.1,0.7-1.8c0.2-0.6,0.3-1.3,0.4-1.9
	C242.8,258.3,242.9,257.7,242.9,257.1L242.9,257.1z M246.1,257.2c0,0.8-0.1,1.7-0.3,2.5c-0.2,0.8-0.5,1.6-0.8,2.3
	c-0.4,0.7-0.8,1.4-1.3,2c-0.5,0.6-1.1,1.1-1.7,1.6c-0.6,0.4-1.3,0.8-2,1c-0.7,0.2-1.5,0.4-2.3,0.4c-0.9,0-1.6-0.1-2.3-0.4
	s-1.3-0.7-1.8-1.2c-0.5-0.5-0.9-1.1-1.1-1.8c-0.3-0.7-0.4-1.5-0.4-2.4c0-0.8,0.1-1.7,0.3-2.5s0.5-1.6,0.8-2.3c0.3-0.7,0.8-1.4,1.3-2
	c0.5-0.6,1.1-1.2,1.7-1.6c0.6-0.4,1.3-0.8,2-1c0.7-0.3,1.5-0.4,2.3-0.4c0.8,0,1.5,0.1,2.2,0.3c0.7,0.2,1.3,0.6,1.8,1.1
	c0.5,0.5,0.9,1.1,1.2,1.9C245.9,255.3,246.1,256.2,246.1,257.2L246.1,257.2z M259,257.1c0-0.7-0.1-1.4-0.2-1.9
	c-0.1-0.6-0.3-1-0.6-1.4c-0.2-0.4-0.5-0.7-0.9-0.9c-0.3-0.2-0.7-0.3-1.1-0.3c-0.7,0-1.3,0.2-1.9,0.7s-1.1,1.1-1.5,1.9
	c-0.4,0.8-0.8,1.7-1,2.7c-0.2,1-0.4,2-0.4,3c0,0.8,0.1,1.4,0.2,2c0.1,0.6,0.3,1.1,0.6,1.4c0.3,0.4,0.6,0.7,0.9,0.9
	c0.3,0.2,0.7,0.3,1.1,0.3c0.5,0,1-0.1,1.4-0.4c0.4-0.2,0.8-0.6,1.2-1c0.4-0.4,0.7-0.9,1-1.5c0.3-0.6,0.5-1.1,0.7-1.8
	c0.2-0.6,0.3-1.3,0.4-1.9C258.9,258.3,259,257.7,259,257.1L259,257.1z M262.2,257.2c0,0.8-0.1,1.7-0.3,2.5c-0.2,0.8-0.5,1.6-0.8,2.3
	c-0.4,0.7-0.8,1.4-1.3,2c-0.5,0.6-1.1,1.1-1.7,1.6c-0.6,0.4-1.3,0.8-2,1c-0.7,0.2-1.5,0.4-2.3,0.4c-0.9,0-1.6-0.1-2.3-0.4
	s-1.3-0.7-1.8-1.2c-0.5-0.5-0.9-1.1-1.1-1.8c-0.3-0.7-0.4-1.5-0.4-2.4c0-0.8,0.1-1.7,0.3-2.5c0.2-0.8,0.5-1.6,0.8-2.3
	c0.3-0.7,0.8-1.4,1.3-2c0.5-0.6,1.1-1.2,1.7-1.6s1.3-0.8,2-1c0.7-0.3,1.5-0.4,2.3-0.4c0.8,0,1.5,0.1,2.2,0.3
	c0.7,0.2,1.3,0.6,1.8,1.1c0.5,0.5,0.9,1.1,1.2,1.9C262,255.3,262.2,256.2,262.2,257.2L262.2,257.2z M278.9,265.8
	c-0.3,0.1-0.6,0.3-0.9,0.4s-0.7,0.2-1.1,0.3c-0.4,0.1-0.7,0.2-1.1,0.2c-0.3,0.1-0.6,0.1-0.9,0.1c-0.3,0-0.5,0-0.8-0.1
	s-0.5-0.2-0.7-0.3c-0.2-0.1-0.4-0.3-0.6-0.5c-0.2-0.2-0.3-0.4-0.5-0.5c-0.1-0.2-0.3-0.5-0.5-0.8c-0.2-0.3-0.4-0.7-0.6-1.1
	c-0.2-0.4-0.4-0.8-0.6-1.3c-0.2-0.4-0.4-0.9-0.6-1.3c-0.2-0.4-0.4-0.8-0.5-1.1c-0.2-0.4-0.3-0.6-0.4-0.9l-1.5,1.3l-1.3,6.3h-2.9
	l4.2-20.7l-2.8-0.3v-0.9l4.9-0.9h1.3l-2.9,14.4l5.1-5.2c0.3-0.3,0.6-0.6,0.8-0.8c0.2-0.2,0.5-0.4,0.7-0.5c0.2-0.1,0.5-0.2,0.7-0.3
	c0.2-0.1,0.5-0.1,0.8-0.1c0.4,0,0.7,0.1,0.9,0.2c0.3,0.1,0.5,0.2,0.6,0.4c0.2,0.2,0.3,0.3,0.4,0.5c0.1,0.2,0.1,0.4,0.1,0.6
	c0,0.4-0.2,0.7-0.5,1.1c-0.3,0.4-0.9,0.7-1.6,0.9l-1.1-1.1c-0.3,0.2-0.6,0.5-0.9,0.7c-0.3,0.3-0.7,0.5-1,0.8c-0.3,0.3-0.7,0.6-1,0.8
	c-0.3,0.3-0.6,0.5-0.8,0.7c0.1,0.3,0.3,0.6,0.4,1c0.2,0.4,0.3,0.8,0.5,1.3c0.2,0.4,0.4,0.9,0.6,1.4c0.2,0.5,0.4,0.9,0.7,1.3
	c0.2,0.4,0.5,0.8,0.7,1.2c0.3,0.4,0.5,0.8,0.8,1.1c0.3,0.3,0.6,0.6,0.8,0.7c0.3,0.2,0.6,0.3,0.8,0.3c0.1,0,0.3,0,0.4,0
	c0.2,0,0.3-0.1,0.5-0.1c0.2,0,0.4-0.1,0.5-0.2c0.2-0.1,0.3-0.1,0.5-0.2V265.8z M290.4,253.2c0,0.4-0.1,0.7-0.2,0.9
	c-0.2,0.2-0.4,0.4-0.6,0.5c-0.2,0.1-0.5,0.2-0.7,0.2c-0.3,0-0.5,0.1-0.7,0.1l-1.4-1.9c-0.1-0.1-0.2-0.1-0.3-0.2
	c-0.1-0.1-0.3-0.1-0.5-0.1c-0.4,0-0.6,0.1-0.9,0.2s-0.4,0.3-0.6,0.5s-0.3,0.4-0.3,0.7c-0.1,0.2-0.1,0.5-0.1,0.7
	c0,0.3,0.1,0.6,0.2,0.9s0.4,0.6,0.6,0.9s0.6,0.6,0.9,0.8c0.3,0.3,0.7,0.5,1,0.8c0.4,0.3,0.7,0.6,1,0.8c0.3,0.3,0.6,0.6,0.9,0.9
	c0.3,0.3,0.5,0.6,0.6,1c0.2,0.3,0.2,0.7,0.2,1.1c0,0.6-0.1,1.2-0.4,1.8c-0.3,0.6-0.6,1.1-1.2,1.6c-0.5,0.5-1.1,0.8-1.9,1.1
	c-0.8,0.3-1.6,0.4-2.6,0.4c-0.8,0-1.4-0.1-2-0.2c-0.6-0.2-1-0.4-1.4-0.6c-0.4-0.3-0.6-0.6-0.8-0.9c-0.2-0.3-0.3-0.7-0.3-1
	c0-0.5,0.2-0.9,0.5-1.2s0.8-0.5,1.4-0.5c0.2,0,0.4,0,0.6,0.1c0.2,0.1,0.3,0.1,0.5,0.2s0.3,0.1,0.4,0.2c0.1,0.1,0.2,0.1,0.2,0.2
	l-0.6,1.5c0.2,0.3,0.5,0.6,0.8,0.8c0.3,0.2,0.8,0.3,1.3,0.3c0.3,0,0.6-0.1,0.9-0.2c0.3-0.1,0.6-0.3,0.8-0.5c0.2-0.2,0.4-0.5,0.5-0.8
	c0.1-0.3,0.2-0.7,0.2-1.1c0-0.3-0.1-0.6-0.2-0.9c-0.1-0.3-0.3-0.5-0.5-0.8c-0.2-0.3-0.5-0.5-0.8-0.8c-0.3-0.3-0.7-0.5-1-0.8
	c-0.3-0.3-0.6-0.5-1-0.8s-0.6-0.6-0.8-0.9c-0.2-0.3-0.4-0.7-0.6-1c-0.1-0.4-0.2-0.7-0.2-1.1c0-0.8,0.2-1.4,0.5-2
	c0.4-0.6,0.8-1.1,1.4-1.5c0.6-0.4,1.2-0.7,1.8-0.9c0.7-0.2,1.3-0.3,2-0.3c0.6,0,1.1,0.1,1.5,0.2c0.4,0.1,0.7,0.3,1,0.5
	c0.3,0.2,0.4,0.4,0.5,0.6C290.3,252.8,290.4,253,290.4,253.2L290.4,253.2z M314.2,245.6c0,0.5-0.2,0.9-0.6,1.1
	c-0.4,0.3-0.8,0.4-1.4,0.5l-2.5-1.9c-0.2,0.2-0.4,0.4-0.6,0.8c-0.2,0.3-0.4,0.7-0.5,1.2c-0.2,0.4-0.3,0.9-0.5,1.4
	c-0.1,0.5-0.3,1-0.4,1.4c-0.1,0.5-0.2,0.9-0.3,1.3c-0.1,0.4-0.1,0.7-0.2,1h3.9v1.5H307c0,0.2-0.1,0.6-0.2,1.2
	c-0.1,0.6-0.2,1.2-0.3,2c-0.1,0.8-0.2,1.6-0.4,2.4c-0.1,0.9-0.3,1.7-0.4,2.5c-0.1,0.8-0.3,1.5-0.4,2.2c-0.1,0.7-0.2,1.2-0.3,1.6
	c-0.1,0.6-0.3,1.2-0.6,1.8c-0.3,0.6-0.6,1.2-0.9,1.8c-0.3,0.6-0.7,1.1-1.1,1.6c-0.4,0.5-0.9,1-1.3,1.3s-1,0.7-1.5,0.9
	c-0.5,0.2-1,0.3-1.6,0.3c-0.4,0-0.7-0.1-1-0.2c-0.3-0.1-0.5-0.3-0.6-0.5c-0.1-0.2-0.2-0.3-0.3-0.5s-0.1-0.3-0.1-0.4
	c0-0.4,0.1-0.7,0.2-0.9c0.2-0.2,0.4-0.4,0.6-0.6l3.2,0.8c0.3-0.3,0.5-0.7,0.8-1.2c0.2-0.5,0.4-1,0.6-1.6c0.2-0.6,0.4-1.2,0.5-1.9
	c0.2-0.7,0.3-1.4,0.4-2.1c0.3-1.5,0.5-3.1,0.7-4.9s0.5-3.7,0.8-5.7l-2.4,0.2l0-1.2l2.8-0.9c0.1-0.5,0.2-1.1,0.4-1.8
	c0.2-0.6,0.4-1.3,0.7-1.9c0.3-0.6,0.6-1.2,1-1.8c0.4-0.6,0.8-1.1,1.3-1.5c0.5-0.4,1-0.8,1.6-1c0.6-0.3,1.2-0.4,2-0.4
	c0.5,0,1,0.1,1.4,0.2s0.7,0.3,0.9,0.5c0.2,0.2,0.4,0.4,0.5,0.6C314.2,245.3,314.2,245.5,314.2,245.6L314.2,245.6z M322.3,257.1
	c0-0.7-0.1-1.4-0.2-1.9c-0.1-0.6-0.3-1-0.6-1.4s-0.5-0.7-0.9-0.9c-0.3-0.2-0.7-0.3-1.1-0.3c-0.7,0-1.3,0.2-1.9,0.7
	c-0.6,0.5-1.1,1.1-1.5,1.9c-0.4,0.8-0.8,1.7-1,2.7c-0.2,1-0.4,2-0.4,3c0,0.8,0.1,1.4,0.2,2c0.1,0.6,0.3,1.1,0.6,1.4
	c0.3,0.4,0.6,0.7,0.9,0.9c0.3,0.2,0.7,0.3,1.1,0.3c0.5,0,1-0.1,1.4-0.4c0.4-0.2,0.8-0.6,1.2-1c0.4-0.4,0.7-0.9,1-1.5
	c0.3-0.6,0.5-1.1,0.7-1.8c0.2-0.6,0.3-1.3,0.4-1.9S322.3,257.7,322.3,257.1L322.3,257.1z M325.5,257.2c0,0.8-0.1,1.7-0.3,2.5
	c-0.2,0.8-0.5,1.6-0.8,2.3c-0.4,0.7-0.8,1.4-1.3,2c-0.5,0.6-1.1,1.1-1.7,1.6s-1.3,0.8-2,1c-0.7,0.2-1.5,0.4-2.3,0.4
	c-0.9,0-1.6-0.1-2.3-0.4s-1.3-0.7-1.8-1.2c-0.5-0.5-0.9-1.1-1.1-1.8c-0.3-0.7-0.4-1.5-0.4-2.4c0-0.8,0.1-1.7,0.3-2.5
	s0.5-1.6,0.8-2.3c0.3-0.7,0.8-1.4,1.3-2c0.5-0.6,1.1-1.2,1.7-1.6c0.6-0.4,1.3-0.8,2-1c0.7-0.3,1.5-0.4,2.3-0.4
	c0.8,0,1.5,0.1,2.2,0.3c0.7,0.2,1.3,0.6,1.8,1.1c0.5,0.5,0.9,1.1,1.2,1.9C325.3,255.3,325.5,256.2,325.5,257.2L325.5,257.2z
	 M339.5,253.3c0,0.4-0.1,0.7-0.2,0.9c-0.1,0.2-0.3,0.4-0.6,0.5c-0.2,0.1-0.5,0.2-0.9,0.2c-0.3,0-0.7,0.1-1.2,0.1l-0.8-1.5
	c-0.4,0.2-0.8,0.4-1.3,0.8c-0.4,0.4-0.9,0.9-1.3,1.4c-0.4,0.5-0.8,1-1.1,1.6c-0.3,0.5-0.5,1-0.6,1.5l-1.7,7.8h-2.9l2.7-13.1
	l-2.7-0.3v-0.9l4.8-1h1.3l-0.7,3.1c0.6-1,1.4-1.7,2.2-2.3s1.7-0.8,2.7-0.8c0.4,0,0.7,0.1,1,0.2c0.3,0.1,0.5,0.3,0.6,0.5
	c0.2,0.2,0.3,0.4,0.3,0.7C339.4,252.9,339.5,253.1,339.5,253.3L339.5,253.3z M359.4,254.4c0-0.1,0-0.2-0.1-0.3
	c-0.1-0.2-0.2-0.4-0.3-0.6c-0.1-0.2-0.3-0.4-0.4-0.5c-0.1-0.2-0.3-0.2-0.3-0.2c-0.8,0-1.5,0.1-2.2,0.4c-0.6,0.3-1.2,0.6-1.7,1
	c-0.5,0.4-0.9,0.9-1.2,1.5c-0.3,0.6-0.6,1.2-0.8,1.8s-0.4,1.3-0.4,1.9c-0.1,0.6-0.1,1.2-0.1,1.8c0,0.4,0,0.9,0.1,1.3
	c0.1,0.4,0.2,0.8,0.4,1.2c0.2,0.4,0.4,0.6,0.7,0.9c0.3,0.2,0.7,0.3,1.2,0.3c0.4,0,0.7-0.1,1.1-0.2s0.7-0.3,1-0.6
	c0.3-0.2,0.6-0.4,0.8-0.6c0.2-0.2,0.4-0.4,0.5-0.5L359.4,254.4z M364.1,265.7c-0.1,0.1-0.4,0.1-0.7,0.3c-0.3,0.1-0.7,0.3-1.1,0.4
	c-0.4,0.1-0.8,0.3-1.2,0.4s-0.8,0.2-1.1,0.2c-0.4,0-0.7,0-1-0.1c-0.3-0.1-0.5-0.2-0.6-0.4s-0.3-0.4-0.4-0.7
	c-0.1-0.3-0.2-0.6-0.2-0.9c-0.2,0.2-0.5,0.5-0.8,0.7c-0.3,0.2-0.7,0.5-1.1,0.7c-0.4,0.2-0.8,0.4-1.2,0.5c-0.4,0.1-0.9,0.2-1.4,0.2
	c-0.6,0-1.2-0.1-1.6-0.3c-0.5-0.2-0.9-0.4-1.2-0.7c-0.3-0.3-0.6-0.6-0.8-1s-0.4-0.8-0.5-1.2c-0.1-0.4-0.2-0.8-0.3-1.2
	c-0.1-0.4-0.1-0.8-0.1-1.2c0-0.8,0.1-1.6,0.3-2.4c0.2-0.8,0.4-1.6,0.8-2.3s0.8-1.5,1.3-2.1c0.5-0.7,1.1-1.2,1.8-1.7
	c0.7-0.5,1.4-0.9,2.3-1.1c0.8-0.3,1.7-0.4,2.7-0.4c0.3,0,0.6,0,0.9,0.1c0.3,0.1,0.5,0.2,0.8,0.3c0.2,0.1,0.5,0.2,0.7,0.4
	s0.4,0.3,0.5,0.4l0.5-0.7h2.2c-0.1,0.1-0.1,0.3-0.2,0.4c-0.1,0.2-0.1,0.3-0.2,0.5c-0.1,0.2-0.1,0.3-0.2,0.5c0,0.2-0.1,0.3-0.1,0.3
	c-0.1,0.3-0.2,0.7-0.3,1.2c-0.1,0.5-0.3,1.2-0.4,1.9c-0.1,0.7-0.3,1.4-0.5,2.2c-0.2,0.8-0.3,1.5-0.4,2.1c-0.1,0.7-0.2,1.3-0.3,1.8
	c-0.1,0.5-0.1,0.9-0.1,1.1c0,0.5,0.1,0.9,0.4,1.1c0.2,0.2,0.6,0.3,1,0.3c0.1,0,0.3,0,0.5-0.1c0.2,0,0.4-0.1,0.6-0.2
	c0.2-0.1,0.4-0.1,0.6-0.2c0.2-0.1,0.3-0.1,0.4-0.1V265.7z M380.8,265.9c-0.1,0.1-0.4,0.1-0.7,0.2c-0.3,0.1-0.7,0.2-1.1,0.3
	c-0.4,0.1-0.8,0.2-1.3,0.3c-0.4,0.1-0.8,0.1-1.1,0.1c-0.2,0-0.4,0-0.8-0.1c-0.3,0-0.6-0.1-0.9-0.2c-0.3-0.1-0.5-0.3-0.7-0.6
	c-0.2-0.2-0.2-0.6-0.1-1l1.9-9.5c0.1-0.4,0.1-0.8,0-1c-0.1-0.3-0.2-0.5-0.3-0.7c-0.1-0.2-0.3-0.3-0.5-0.3c-0.2-0.1-0.4-0.1-0.6-0.1
	c-0.3,0-0.6,0.1-1,0.2c-0.4,0.1-0.8,0.3-1.2,0.6c-0.4,0.2-0.8,0.5-1.3,0.9c-0.4,0.3-0.8,0.7-1.2,1l-2.2,10.4h-3l2.8-13.1l-2.7-0.3
	v-0.9l4.8-1h1.3l-0.6,2.9c0.4-0.3,0.8-0.7,1.2-1c0.5-0.3,0.9-0.7,1.5-0.9c0.5-0.3,1-0.5,1.6-0.7c0.6-0.2,1.1-0.3,1.6-0.3
	c1.2,0,2,0.3,2.5,0.9c0.5,0.6,0.6,1.6,0.4,3l-1.7,8.7c-0.1,0.3,0,0.5,0.1,0.7c0.1,0.2,0.2,0.3,0.4,0.4c0.2,0.1,0.3,0.1,0.5,0.2
	c0.2,0,0.3,0,0.4,0c0.3,0,0.6,0,0.9-0.1c0.3-0.1,0.7-0.2,1.1-0.3L380.8,265.9z M402,257.1c0-0.7-0.1-1.4-0.2-1.9
	c-0.1-0.6-0.3-1-0.6-1.4c-0.2-0.4-0.5-0.7-0.9-0.9c-0.3-0.2-0.7-0.3-1.1-0.3c-0.7,0-1.3,0.2-1.9,0.7c-0.6,0.5-1.1,1.1-1.5,1.9
	c-0.4,0.8-0.8,1.7-1,2.7c-0.2,1-0.4,2-0.4,3c0,0.8,0.1,1.4,0.2,2c0.1,0.6,0.3,1.1,0.6,1.4c0.3,0.4,0.6,0.7,0.9,0.9
	c0.3,0.2,0.7,0.3,1.1,0.3c0.5,0,1-0.1,1.4-0.4c0.4-0.2,0.8-0.6,1.2-1c0.4-0.4,0.7-0.9,1-1.5c0.3-0.6,0.5-1.1,0.7-1.8
	c0.2-0.6,0.3-1.3,0.4-1.9S402,257.7,402,257.1L402,257.1z M405.2,257.2c0,0.8-0.1,1.7-0.3,2.5s-0.5,1.6-0.8,2.3
	c-0.4,0.7-0.8,1.4-1.3,2c-0.5,0.6-1.1,1.1-1.7,1.6s-1.3,0.8-2,1s-1.5,0.4-2.3,0.4c-0.9,0-1.6-0.1-2.3-0.4s-1.3-0.7-1.8-1.2
	c-0.5-0.5-0.9-1.1-1.1-1.8c-0.3-0.7-0.4-1.5-0.4-2.4c0-0.8,0.1-1.7,0.3-2.5s0.5-1.6,0.8-2.3c0.3-0.7,0.8-1.4,1.3-2
	c0.5-0.6,1.1-1.2,1.7-1.6c0.6-0.4,1.3-0.8,2-1c0.7-0.3,1.5-0.4,2.3-0.4c0.8,0,1.5,0.1,2.2,0.3c0.7,0.2,1.3,0.6,1.8,1.1
	c0.5,0.5,0.9,1.1,1.2,1.9C405.1,255.3,405.2,256.2,405.2,257.2L405.2,257.2z M417.7,257.1c0-0.5,0-0.9-0.1-1.4
	c-0.1-0.5-0.2-0.9-0.4-1.3c-0.2-0.4-0.5-0.7-0.8-0.9c-0.3-0.2-0.7-0.4-1.1-0.4c-0.4,0-0.8,0.1-1.1,0.2c-0.4,0.2-0.7,0.4-1,0.6
	c-0.3,0.2-0.6,0.4-0.8,0.6c-0.2,0.2-0.4,0.3-0.5,0.4l-1.9,9.6c0.1,0.1,0.2,0.1,0.4,0.2c0.2,0.1,0.4,0.2,0.6,0.3
	c0.2,0.1,0.5,0.2,0.7,0.3c0.3,0.1,0.5,0.1,0.8,0.1c0.6,0,1.1-0.1,1.6-0.4c0.5-0.3,0.9-0.6,1.3-1c0.4-0.4,0.7-0.9,1-1.5
	c0.3-0.6,0.5-1.2,0.7-1.8c0.2-0.6,0.3-1.2,0.4-1.9C417.7,258.3,417.7,257.7,417.7,257.1L417.7,257.1z M420.9,257
	c0,0.8-0.1,1.7-0.3,2.5c-0.2,0.8-0.5,1.6-0.9,2.3c-0.4,0.7-0.9,1.4-1.4,2c-0.5,0.6-1.2,1.2-1.8,1.6c-0.7,0.5-1.4,0.8-2.2,1.1
	c-0.8,0.3-1.6,0.4-2.5,0.4c-0.5,0-0.9-0.1-1.3-0.2c-0.4-0.1-0.7-0.3-1-0.4l-1,5c0,0.2,0,0.3,0.1,0.4c0.1,0.1,0.3,0.2,0.5,0.2l2,0.2
	v1.2h-8v-1.2l1.7-0.2c0.4,0,0.7-0.2,0.8-0.6l3.6-17.9l-2.7-0.3v-0.9l4.8-1h1.2l-0.4,1.9c0.3-0.2,0.6-0.4,0.9-0.6
	c0.3-0.2,0.7-0.4,1.1-0.6s0.8-0.4,1.2-0.5c0.4-0.1,0.9-0.2,1.3-0.2c0.8,0,1.5,0.2,2,0.5c0.5,0.3,1,0.8,1.3,1.3
	c0.3,0.5,0.5,1.2,0.7,1.8C420.8,255.6,420.9,256.3,420.9,257L420.9,257z M432.3,254.3c0-0.2,0-0.4-0.1-0.6c-0.1-0.2-0.2-0.4-0.3-0.5
	c-0.1-0.2-0.3-0.3-0.5-0.4c-0.2-0.1-0.5-0.1-0.7-0.1c-0.4,0-0.7,0.1-1,0.3c-0.3,0.2-0.6,0.4-0.9,0.7c-0.3,0.3-0.6,0.6-0.8,1
	c-0.3,0.4-0.5,0.8-0.7,1.2c-0.2,0.4-0.4,0.9-0.5,1.3c-0.2,0.4-0.3,0.9-0.4,1.3c0.7-0.1,1.4-0.2,2.1-0.5c0.7-0.2,1.4-0.6,2-0.9
	c0.6-0.4,1.1-0.8,1.4-1.3C432.1,255.4,432.3,254.9,432.3,254.3L432.3,254.3z M435.1,254.4c0,0.6-0.1,1.1-0.4,1.6
	c-0.3,0.5-0.6,0.9-1.1,1.3c-0.5,0.4-1,0.7-1.6,1c-0.6,0.3-1.2,0.5-1.9,0.8c-0.7,0.2-1.3,0.4-2,0.5c-0.7,0.1-1.3,0.2-2,0.2
	c0,0.2-0.1,0.4-0.1,0.7c0,0.3,0,0.5,0,0.7c0,0.6,0.1,1.1,0.2,1.6c0.1,0.5,0.3,0.9,0.6,1.2c0.3,0.3,0.6,0.6,1,0.8s0.8,0.3,1.3,0.3
	c0.7,0,1.5-0.3,2.3-0.8c0.9-0.5,1.9-1.3,3-2.3v1.9c-0.3,0.3-0.7,0.6-1.1,0.9c-0.4,0.3-0.9,0.7-1.5,1s-1.2,0.5-1.8,0.7
	c-0.6,0.2-1.3,0.3-2.1,0.3c-0.3,0-0.7,0-1-0.1c-0.4-0.1-0.7-0.2-1.1-0.3s-0.7-0.4-1.1-0.6c-0.3-0.3-0.6-0.6-0.9-1
	c-0.3-0.4-0.5-0.9-0.6-1.5c-0.2-0.6-0.2-1.3-0.2-2c0-0.8,0.1-1.6,0.3-2.4c0.2-0.8,0.5-1.6,0.8-2.3c0.4-0.7,0.8-1.4,1.3-2.1
	s1.1-1.2,1.7-1.7c0.6-0.5,1.3-0.8,2-1.1s1.4-0.4,2.2-0.4c0.7,0,1.3,0.1,1.8,0.4c0.5,0.2,0.9,0.5,1.2,0.9c0.3,0.3,0.5,0.7,0.6,1
	C435.1,253.9,435.1,254.1,435.1,254.4L435.1,254.4z M452.4,265.9c-0.1,0.1-0.4,0.1-0.7,0.2c-0.3,0.1-0.7,0.2-1.1,0.3
	c-0.4,0.1-0.8,0.2-1.3,0.3s-0.8,0.1-1.1,0.1c-0.2,0-0.4,0-0.8-0.1c-0.3,0-0.6-0.1-0.9-0.2c-0.3-0.1-0.5-0.3-0.7-0.6
	c-0.2-0.2-0.2-0.6-0.1-1l1.9-9.5c0.1-0.4,0.1-0.8,0-1c-0.1-0.3-0.2-0.5-0.3-0.7c-0.1-0.2-0.3-0.3-0.5-0.3c-0.2-0.1-0.4-0.1-0.6-0.1
	c-0.3,0-0.6,0.1-1,0.2s-0.8,0.3-1.2,0.6c-0.4,0.2-0.8,0.5-1.3,0.9c-0.4,0.3-0.8,0.7-1.2,1l-2.2,10.4h-3l2.8-13.1l-2.7-0.3v-0.9
	l4.8-1h1.3l-0.6,2.9c0.4-0.3,0.8-0.7,1.2-1c0.5-0.3,0.9-0.7,1.5-0.9c0.5-0.3,1-0.5,1.6-0.7c0.6-0.2,1.1-0.3,1.6-0.3
	c1.2,0,2,0.3,2.5,0.9c0.5,0.6,0.6,1.6,0.4,3l-1.7,8.7c-0.1,0.3,0,0.5,0.1,0.7c0.1,0.2,0.2,0.3,0.4,0.4s0.3,0.1,0.5,0.2
	c0.2,0,0.3,0,0.4,0c0.3,0,0.6,0,0.9-0.1c0.3-0.1,0.7-0.2,1.1-0.3L452.4,265.9z M484.1,253.1c0,0.4-0.1,1-0.3,1.6
	c-0.2,0.6-0.5,1.3-0.9,2c-0.4,0.7-0.8,1.4-1.3,2.2c-0.5,0.8-1,1.5-1.5,2.2c-0.5,0.7-1,1.4-1.5,2.1s-1,1.3-1.4,1.8
	c-0.4,0.5-0.8,1-1,1.3c-0.3,0.4-0.5,0.6-0.5,0.7h-2l-0.7-10.6c-0.5,1-0.9,2-1.5,2.9c-0.5,1-1,1.9-1.5,2.8c-0.5,0.9-1,1.8-1.5,2.6
	c-0.5,0.8-1,1.6-1.4,2.2h-2.3l0.3-0.7l-0.9-12.8l-2.4-0.3v-0.9l3.8-1.1l1.4,0.1l0.7,11.6c0.4-0.7,0.8-1.5,1.3-2.4s0.9-1.8,1.4-2.7
	c0.5-0.9,0.9-1.9,1.4-2.9c0.5-1,0.9-1.9,1.3-2.8l2.4-0.3l0.8,11.8c1-1.2,1.8-2.5,2.6-3.8c0.7-1.3,1.4-2.7,2.1-4.1l-0.6-3.6
	c0,0,0.1-0.1,0.2-0.2c0.1-0.1,0.2-0.2,0.4-0.3c0.2-0.1,0.4-0.2,0.6-0.2c0.2-0.1,0.5-0.1,0.7-0.1c0.4,0,0.7,0.1,0.9,0.2
	c0.2,0.1,0.4,0.3,0.6,0.5c0.1,0.2,0.2,0.4,0.3,0.6C484.1,252.8,484.1,252.9,484.1,253.1L484.1,253.1z M495.8,257.1
	c0-0.7-0.1-1.4-0.2-1.9c-0.1-0.6-0.3-1-0.6-1.4c-0.2-0.4-0.5-0.7-0.9-0.9c-0.3-0.2-0.7-0.3-1.1-0.3c-0.7,0-1.3,0.2-1.9,0.7
	c-0.6,0.5-1.1,1.1-1.5,1.9c-0.4,0.8-0.8,1.7-1,2.7s-0.4,2-0.4,3c0,0.8,0.1,1.4,0.2,2c0.1,0.6,0.3,1.1,0.6,1.4
	c0.3,0.4,0.6,0.7,0.9,0.9s0.7,0.3,1.1,0.3c0.5,0,1-0.1,1.4-0.4c0.4-0.2,0.8-0.6,1.2-1c0.4-0.4,0.7-0.9,1-1.5
	c0.3-0.6,0.5-1.1,0.7-1.8c0.2-0.6,0.3-1.3,0.4-1.9C495.8,258.3,495.8,257.7,495.8,257.1L495.8,257.1z M499,257.2
	c0,0.8-0.1,1.7-0.3,2.5c-0.2,0.8-0.5,1.6-0.8,2.3c-0.4,0.7-0.8,1.4-1.3,2s-1.1,1.1-1.7,1.6c-0.6,0.4-1.3,0.8-2,1s-1.5,0.4-2.3,0.4
	c-0.9,0-1.6-0.1-2.3-0.4s-1.3-0.7-1.8-1.2c-0.5-0.5-0.9-1.1-1.1-1.8c-0.3-0.7-0.4-1.5-0.4-2.4c0-0.8,0.1-1.7,0.3-2.5
	s0.5-1.6,0.8-2.3c0.3-0.7,0.8-1.4,1.3-2c0.5-0.6,1.1-1.2,1.7-1.6c0.6-0.4,1.3-0.8,2-1c0.7-0.3,1.5-0.4,2.3-0.4
	c0.8,0,1.5,0.1,2.2,0.3s1.3,0.6,1.8,1.1c0.5,0.5,0.9,1.1,1.2,1.9C498.9,255.3,499,256.2,499,257.2L499,257.2z M513,253.3
	c0,0.4-0.1,0.7-0.2,0.9c-0.1,0.2-0.3,0.4-0.6,0.5c-0.2,0.1-0.5,0.2-0.9,0.2c-0.3,0-0.7,0.1-1.2,0.1l-0.8-1.5
	c-0.4,0.2-0.8,0.4-1.3,0.8c-0.4,0.4-0.9,0.9-1.3,1.4s-0.8,1-1.1,1.6c-0.3,0.5-0.5,1-0.6,1.5l-1.7,7.8h-2.9l2.7-13.1l-2.7-0.3v-0.9
	l4.8-1h1.3l-0.7,3.1c0.6-1,1.4-1.7,2.2-2.3s1.7-0.8,2.7-0.8c0.4,0,0.7,0.1,1,0.2c0.3,0.1,0.5,0.3,0.6,0.5c0.2,0.2,0.3,0.4,0.3,0.7
	C513,252.9,513,253.1,513,253.3L513,253.3z M520.3,265.7c-0.1,0.1-0.4,0.1-0.7,0.3c-0.3,0.1-0.7,0.3-1.1,0.4
	c-0.4,0.1-0.9,0.3-1.3,0.4c-0.5,0.1-0.9,0.2-1.2,0.2c-0.5,0-0.9-0.1-1.2-0.2c-0.3-0.1-0.6-0.3-0.8-0.5c-0.2-0.2-0.4-0.4-0.5-0.7
	s-0.1-0.6-0.1-0.9c0-0.3,0-0.7,0.1-1.1l3.5-17.7l-2.8-0.3v-0.9l4.9-0.9h1.2l-3.8,19.7c0,0.2,0,0.4,0,0.6c0.1,0.2,0.2,0.4,0.3,0.5
	s0.3,0.3,0.5,0.4s0.4,0.2,0.6,0.2c0.2,0,0.4,0,0.6-0.1c0.3-0.1,0.5-0.1,0.8-0.2c0.3-0.1,0.5-0.1,0.7-0.2c0.2-0.1,0.4-0.1,0.5-0.1
	V265.7z M533.5,263.9c-0.1,0.3,0,0.5,0,0.7s0.2,0.3,0.3,0.4c0.1,0.1,0.3,0.2,0.4,0.2s0.3,0.1,0.3,0.1s0.2,0,0.4-0.1
	c0.2-0.1,0.5-0.1,0.7-0.2c0.2-0.1,0.5-0.1,0.7-0.2l0.4-0.1v1.1c-0.1,0.1-0.4,0.1-0.7,0.2s-0.7,0.2-1.1,0.4s-0.8,0.2-1.2,0.3
	c-0.4,0.1-0.8,0.1-1.1,0.1c-0.5,0-0.9-0.1-1.2-0.2c-0.3-0.1-0.6-0.3-0.7-0.5c-0.2-0.2-0.3-0.5-0.4-0.7s-0.1-0.6-0.1-0.9
	c-0.3,0.3-0.6,0.6-0.9,0.9c-0.3,0.3-0.7,0.5-1.1,0.7s-0.8,0.4-1.2,0.5c-0.4,0.1-0.9,0.2-1.3,0.2c-0.9,0-1.6-0.2-2.2-0.5
	c-0.6-0.3-1-0.8-1.4-1.3c-0.3-0.5-0.6-1.1-0.7-1.8c-0.1-0.7-0.2-1.3-0.2-2c0-0.8,0.1-1.6,0.3-2.5c0.2-0.8,0.4-1.6,0.8-2.4
	c0.4-0.8,0.8-1.4,1.3-2.1c0.5-0.6,1.1-1.2,1.8-1.7c0.7-0.5,1.4-0.9,2.2-1.1c0.8-0.3,1.7-0.4,2.6-0.4c0.2,0,0.5,0,0.7,0.1
	c0.2,0,0.4,0.1,0.6,0.2s0.4,0.1,0.6,0.2c0.2,0.1,0.3,0.1,0.5,0.2l1.1-6l-2.9-0.3v-0.9l4.9-0.9h1.3L533.5,263.9z M532.2,254.3
	c0,0,0-0.2-0.2-0.3c-0.1-0.2-0.3-0.4-0.5-0.6c-0.2-0.2-0.4-0.4-0.7-0.5c-0.2-0.2-0.5-0.2-0.7-0.2c-0.8,0-1.5,0.2-2.2,0.7
	c-0.7,0.4-1.3,1-1.9,1.8c-0.5,0.8-1,1.7-1.3,2.7c-0.3,1-0.5,2.2-0.5,3.4c0,0.7,0.1,1.2,0.2,1.7s0.3,0.9,0.6,1.2s0.5,0.5,0.8,0.7
	c0.3,0.2,0.6,0.2,0.9,0.2c0.3,0,0.6-0.1,0.9-0.2c0.3-0.1,0.7-0.3,1-0.6c0.3-0.2,0.7-0.5,1-0.8c0.3-0.3,0.6-0.6,0.9-0.9L532.2,254.3z
	"/>
</svg>
