<?xml version="1.0" encoding="UTF-8" standalone="no"?>
<svg xmlns:svg="http://www.w3.org/2000/svg" xmlns="http://www.w3.org/2000/svg" version="1.0" width="64" height="64" id="svgR">
<path d="M 31.942932,3.1086245e-15 C 40.894453,3.1086245e-15 48.475178,3.1049643 54.685107,9.314893 C 60.893871,15.486388 64,23.048479 64,32 C 64,40.952686 60.952104,48.456544 54.856311,54.513903 C 48.41811,60.837968 40.780317,64 31.942932,64 C 23.29422,64 15.790362,60.857767 9.429029,54.572136 C 3.1433979,48.286505 2.7451999e-16,40.764012 2.7451999e-16,32.001165 C 2.7451999e-16,23.277915 3.1433979,15.715825 9.429029,9.3160577 C 15.637793,3.1049643 23.142816,3.1086245e-15 31.942932,3.1086245e-15 z M 32.057068,5.7720192 C 24.780317,5.7720192 18.628621,8.3435726 13.599651,13.486679 C 8.379677,18.782356 5.770855,24.953851 5.770855,32 C 5.770855,39.124181 8.361042,45.257243 13.541418,50.400349 C 18.721794,55.58189 24.893289,58.170913 32.055903,58.170913 C 39.17892,58.170913 45.388848,55.562091 50.684525,50.342117 C 55.713495,45.465716 58.227981,39.351288 58.227981,31.998835 C 58.227981,24.684816 55.675062,18.513321 50.570389,13.485515 C 45.504149,8.3424079 39.332654,5.7720192 32.057068,5.7720192 z M 52.91367,32.571845 L 53.542583,32.857184 L 53.542583,41.885573 L 52.970738,42.170913 L 45.200175,45.485515 L 44.857767,45.599651 L 44.457126,45.485515 L 27.714078,38.570971 L 27.142233,38.342699 L 18.856893,41.771437 L 10.685689,38.228563 L 10.685689,30.000291 L 18.343281,26.799825 L 18.286213,26.742757 L 18.286213,17.714369 L 26.972194,13.886155 L 46.572136,22.000291 L 46.572136,29.943223 L 52.91367,32.571845 z M 43.828214,43.085165 L 43.828214,37.428447 L 43.771146,37.428447 L 43.771146,37.200175 L 29.086039,31.199884 L 29.086039,37.028971 L 43.771146,43.08633 L 43.771146,43.029262 L 43.828214,43.085165 z M 44.799534,35.65701 L 49.942641,33.543165 L 45.200175,31.543456 L 40.171204,33.657301 L 44.799534,35.65701 z M 51.542874,40.571845 L 51.542874,35.029262 L 45.829087,37.429611 L 45.829087,43.029262 L 51.542874,40.571845 z" id="pR" />
</svg>