<?xml version="1.0" encoding="UTF-8" standalone="no"?>
<!-- Created with Inkscape (http://www.inkscape.org/) -->
<svg
   xmlns:svg="http://www.w3.org/2000/svg"
   xmlns="http://www.w3.org/2000/svg"
   version="1.0"
   width="450"
   height="55"
   id="svg2">
  <defs
     id="defs4" />
  <g
     transform="translate(-189.05971,-478.73773)"
     id="layer1">
    <path
       d="M 211.82052,486.82298 L 204.79763,486.82298 C 204.153,486.823 203.67801,486.95871 203.37269,487.2301 C 203.06734,487.48458 202.91467,487.91716 202.91468,488.52781 L 202.91468,499.62196 L 210.03936,499.62196 C 210.88751,499.62197 211.48971,499.44385 211.84596,499.0876 C 212.20219,498.71443 212.4736,498.12071 212.66021,497.30643 L 213.01645,495.75428 C 213.05036,495.46591 213.17758,495.32172 213.39813,495.32171 L 214.54318,495.32171 C 214.6619,495.32172 214.72127,495.39806 214.72129,495.55071 C 214.44986,497.53546 214.31414,499.1894 214.31417,500.51254 C 214.31414,501.93749 214.44986,503.59991 214.72129,505.49982 L 214.59406,505.67793 L 213.39813,505.67793 C 213.14366,505.67794 212.99948,505.55072 212.96556,505.29626 L 212.66021,503.69321 C 212.50753,502.89593 212.23611,502.31917 211.84596,501.96292 C 211.47275,501.58975 210.87055,501.40315 210.03936,501.40312 L 202.91468,501.40312 L 202.91468,514.68557 C 202.91467,515.33018 203.06734,515.77972 203.37269,516.03416 C 203.69499,516.27167 204.16996,516.3904 204.79763,516.3904 L 213.42358,516.3904 C 214.37351,516.3904 215.2132,516.22076 215.94267,515.8815 C 216.68903,515.54223 217.3082,515.04181 217.80017,514.38022 C 218.30905,513.70169 218.72465,512.98922 219.04699,512.24282 C 219.36926,511.49644 219.67461,510.60584 219.96301,509.57107 L 221.54063,509.82552 C 220.81116,513.18431 220.35315,516.05114 220.16658,518.42603 L 204.84851,518.42603 L 200.80271,518.37514 L 194.13604,518.47691 L 194.05971,518.37514 L 194.05971,517.33188 C 194.05971,517.0944 194.19542,516.97565 194.46683,516.97565 L 196.019,516.97565 C 197.01984,516.97565 197.71535,516.78905 198.10551,516.41585 C 198.51262,516.02568 198.71619,515.44893 198.7162,514.68557 L 198.7162,488.57869 C 198.71619,487.74752 198.51262,487.1538 198.10551,486.79753 C 197.69839,486.42436 197.00288,486.23776 196.019,486.23773 L 194.46683,486.23773 C 194.19542,486.23776 194.05971,486.11902 194.05971,485.8815 L 194.05971,484.83824 L 194.1615,484.73647 L 200.82815,484.83824 L 204.87396,484.78735 L 218.23274,484.73647 C 218.45324,487.50155 218.81796,490.19875 219.32688,492.82806 L 217.80017,493.08252 C 217.59658,492.43792 217.43543,491.94599 217.3167,491.60668 C 217.19794,491.25049 217.0283,490.81792 216.8078,490.30898 C 216.58725,489.78314 216.38369,489.3845 216.19712,489.11305 C 216.01049,488.8247 215.76452,488.51087 215.4592,488.17157 C 215.1708,487.83233 214.85698,487.58636 214.51773,487.43366 C 214.17843,487.26405 213.77979,487.11987 213.3218,487.00109 C 212.86376,486.88238 212.36333,486.823 211.82052,486.82298 M 250.8536,513.31152 C 250.3277,515.00789 249.65765,516.3904 248.84342,517.4591 C 248.02915,518.52781 247.15553,519.06216 246.22256,519.06216 C 244.96723,519.06216 243.91549,518.49388 243.06735,517.35733 C 242.21915,516.2038 241.41338,514.37174 240.65004,511.86114 L 237.11315,499.57106 L 228.9452,517.94257 L 224.82307,519.0876 L 223.77981,518.68048 L 235.89178,496.03417 L 235.15386,493.51509 C 233.37267,487.98501 231.48972,485.21995 229.505,485.21992 C 228.14791,485.21995 226.91806,485.66101 225.81543,486.54307 L 225.05207,485.21992 C 225.71365,484.25304 226.51942,483.48967 227.46938,482.92985 C 228.43629,482.35312 229.36081,482.06474 230.24292,482.0647 C 230.51433,482.06474 230.81119,482.10714 231.1335,482.19193 C 231.47276,482.27678 231.87989,482.47186 232.35487,482.77717 C 232.84681,483.06559 233.30482,483.43879 233.72892,483.89676 C 234.16996,484.35481 234.61949,485.0079 235.07753,485.85605 C 235.55249,486.70426 235.95961,487.67966 236.2989,488.78226 L 241.00628,504.45656 C 242.34638,508.85013 243.37267,511.81026 244.08516,513.33697 C 244.79761,514.84673 245.57792,515.6016 246.42612,515.6016 C 247.05375,515.6016 247.62202,515.38955 248.13096,514.96547 C 248.6568,514.52442 249.16571,513.74409 249.65767,512.62451 L 250.8536,513.31152 M 278.53808,513.31152 C 278.01218,515.00789 277.34212,516.3904 276.5279,517.4591 C 275.71363,518.52781 274.84001,519.06216 273.90703,519.06216 C 272.65171,519.06216 271.59997,518.49388 270.75182,517.35733 C 269.90362,516.2038 269.09786,514.37174 268.33452,511.86114 L 264.79763,499.57106 L 256.62968,517.94257 L 252.50754,519.0876 L 251.46429,518.68048 L 263.57625,496.03417 L 262.83834,493.51509 C 261.05715,487.98501 259.1742,485.21995 257.18948,485.21992 C 255.83239,485.21995 254.60254,485.66101 253.49991,486.54307 L 252.73655,485.21992 C 253.39812,484.25304 254.20389,483.48967 255.15386,482.92985 C 256.12077,482.35312 257.04528,482.06474 257.9274,482.0647 C 258.19881,482.06474 258.49566,482.10714 258.81798,482.19193 C 259.15724,482.27678 259.56436,482.47186 260.03935,482.77717 C 260.53129,483.06559 260.9893,483.43879 261.4134,483.89676 C 261.85444,484.35481 262.30397,485.0079 262.76201,485.85605 C 263.23697,486.70426 263.64409,487.67966 263.98338,488.78226 L 268.69076,504.45656 C 270.03086,508.85013 271.05715,511.81026 271.76964,513.33697 C 272.48208,514.84673 273.2624,515.6016 274.1106,515.6016 C 274.73823,515.6016 275.3065,515.38955 275.81544,514.96547 C 276.34127,514.52442 276.85019,513.74409 277.34215,512.62451 L 278.53808,513.31152 M 287.54571,495.39804 L 287.36759,500.02908 L 287.54571,500.02908 C 287.74927,499.7068 287.9698,499.38449 288.2073,499.06216 C 288.46173,498.73987 288.84342,498.34971 289.35233,497.89167 C 289.86123,497.41671 290.39557,497.0096 290.95538,496.6703 C 291.53213,496.33105 292.24459,496.03419 293.09279,495.77972 C 293.95792,495.52528 294.85698,495.39806 295.78999,495.39804 C 299.75944,495.39806 301.74416,498.14615 301.74419,503.64231 L 301.74419,518.60414 C 301.74416,523.71017 302.15977,527.34035 302.991,529.49472 L 302.40576,530.41076 L 298.46175,528.65503 C 298.05459,526.97563 297.85103,523.62534 297.85106,518.60414 L 297.85106,504.02399 C 297.85103,502.12409 297.55418,500.6313 296.96048,499.54562 C 296.38369,498.45998 295.36588,497.91714 293.90704,497.91712 C 292.53298,497.91714 291.34553,498.28186 290.3447,499.01127 C 289.34383,499.74072 288.41085,500.79246 287.54571,502.16648 L 287.54571,518.06979 L 284.23783,519.6474 L 283.65258,518.73138 L 283.65258,500.94511 C 283.65258,500.0291 283.55079,499.40993 283.34725,499.0876 C 283.16063,498.76532 282.87226,498.60416 282.4821,498.60415 C 281.87141,498.60416 281.14198,498.68899 280.29381,498.8586 L 280.03935,497.33187 C 282.82137,496.85693 284.70432,496.32257 285.68821,495.72883 C 286.02747,495.50832 286.3837,495.39806 286.7569,495.39804 L 287.54571,495.39804 M 326.96047,495.39804 C 327.72381,495.39806 328.34298,495.66948 328.81798,496.21229 C 329.29294,496.75514 329.53043,497.40823 329.53045,498.17158 C 329.53043,499.03673 329.31838,500.14785 328.89431,501.50491 C 328.13093,503.96463 327.07072,506.4413 325.71366,508.93493 C 324.35656,511.42858 322.21914,514.80432 319.30144,519.06216 L 316.85869,519.06216 C 316.77386,516.61941 316.34129,513.75257 315.56098,510.46165 C 314.78064,507.15378 313.85614,504.29543 312.78744,501.88659 C 311.71874,499.46082 310.77726,498.24792 309.96301,498.24791 C 309.45411,498.24792 308.96216,498.35819 308.48719,498.5787 C 308.02918,498.78228 307.6899,499.04521 307.46938,499.3675 L 306.45156,498.78227 C 308.11399,496.52613 309.64071,495.39806 311.03172,495.39804 C 311.54062,495.39806 312.02408,495.52528 312.4821,495.77972 C 312.9401,496.03419 313.37268,496.43284 313.77981,496.97565 C 314.18693,497.50154 314.55164,498.05286 314.87396,498.62959 C 315.21321,499.1894 315.56097,499.91036 315.91722,500.79243 C 316.27344,501.67456 316.5703,502.46336 316.8078,503.15885 C 317.06224,503.85438 317.35062,504.70255 317.67294,505.70339 C 318.86037,509.38447 319.63222,512.64995 319.98847,515.49982 C 324.1954,508.61264 326.29887,504.22756 326.2989,502.3446 C 326.29887,501.27592 326.00202,500.34293 325.40831,499.54562 C 324.9333,498.91799 324.69582,498.23944 324.69584,497.50999 C 324.69582,497.00111 324.8909,496.52613 325.28109,496.08506 C 325.68819,495.62707 326.24799,495.39806 326.96047,495.39804 M 340.11569,495.39804 L 340.11569,513.92221 C 340.11568,515.51678 340.59914,516.31407 341.56607,516.31407 C 342.75351,516.31407 343.97488,515.49982 345.2302,513.87132 L 346.32434,514.78735 C 345.67971,515.90695 344.85698,516.89931 343.85615,517.76445 C 342.85528,518.62959 341.83747,519.06216 340.80271,519.06216 C 339.34384,519.06216 338.21577,518.68048 337.41848,517.91713 C 336.6212,517.1368 336.22255,516.0681 336.22255,514.71102 L 336.22255,500.94511 C 336.22255,500.0291 336.12078,499.40993 335.91722,499.0876 C 335.73062,498.76532 335.44223,498.60416 335.05208,498.60415 C 334.44138,498.60416 333.71196,498.68899 332.86378,498.8586 L 332.60933,497.33187 C 334.76369,497.04353 336.58727,496.53461 338.08007,495.80516 C 338.62289,495.53376 339.0385,495.39806 339.32689,495.39804 L 340.11569,495.39804 M 371.15894,498.0189 C 371.15892,498.52783 370.95536,498.95192 370.54826,499.29117 C 370.15807,499.61349 369.70006,499.77465 369.17421,499.77462 C 368.2412,499.77465 367.51176,499.45234 366.98592,498.80771 C 366.59573,498.33275 366.25646,498.09526 365.96811,498.09524 C 365.44221,498.09526 364.8909,498.38364 364.31416,498.96037 C 363.73738,499.53716 362.95706,500.51255 361.9732,501.88659 L 360.16658,504.32934 L 364.64495,512.85351 C 365.3574,514.19364 365.93416,515.12662 366.37524,515.65248 C 366.83322,516.1614 367.34213,516.41585 367.90195,516.41585 C 368.25816,516.41585 368.6144,516.2547 368.97065,515.93239 C 369.34382,515.61008 369.87818,515.05877 370.5737,514.27845 L 371.05717,514.71102 C 371.37944,514.99939 371.54908,515.14358 371.56607,515.14358 C 370.29378,516.68727 369.26749,517.73053 368.48719,518.27335 C 367.72381,518.79923 366.88411,519.06216 365.96811,519.06216 C 365.30651,519.06216 364.67038,518.79074 364.05971,518.24791 C 363.46597,517.70508 362.78743,516.67031 362.02408,515.14358 L 358.05462,507.30643 L 355.63732,510.63977 L 355.63732,517.81534 L 352.32943,519.29116 L 351.74419,518.37514 L 351.74419,500.84333 C 351.74418,499.92732 351.6424,499.30815 351.43884,498.98583 C 351.25224,498.66354 350.96385,498.50239 350.5737,498.50236 C 349.96302,498.50239 349.23358,498.5872 348.38541,498.75681 L 348.13096,497.33187 C 350.74333,496.90781 352.63477,496.36498 353.80526,495.70337 C 354.16148,495.49984 354.50924,495.39806 354.84851,495.39804 L 355.63732,495.39804 L 355.63732,508.19702 L 360.3447,501.65758 C 361.12501,500.57193 361.76962,499.7068 362.27853,499.06216 C 362.80439,498.41756 363.38964,497.78991 364.03426,497.17921 C 364.69582,496.55158 365.34892,496.10204 365.99355,495.83061 C 366.6551,495.54224 367.34213,495.39806 368.05462,495.39804 C 369.00456,495.39806 369.75943,495.58466 370.31925,495.95784 C 370.87902,496.31409 371.15892,497.00111 371.15894,498.0189 M 387.41849,482.87895 C 387.94434,482.87899 388.4278,483.08255 388.86887,483.48963 C 389.32687,483.87984 389.55587,484.33785 389.55589,484.86368 C 389.55587,485.1521 389.47106,485.41503 389.30144,485.65249 L 384.51773,491.98837 C 384.31415,492.25982 384.11907,492.39552 383.93248,492.39549 C 383.72891,492.39552 383.54231,492.32767 383.37268,492.19193 C 383.22,492.03928 383.14367,491.86965 383.14368,491.68303 C 383.14367,491.59823 383.17759,491.43709 383.24545,491.19956 L 385.96811,483.76954 C 386.06987,483.49815 386.25647,483.28611 386.52791,483.13341 C 386.81627,482.96381 387.11312,482.87899 387.41849,482.87895 M 374.54317,507.73901 C 374.54317,505.34716 374.95028,503.22673 375.76455,501.37768 C 376.59575,499.52868 377.83408,498.06982 379.47956,497.00109 C 381.125,495.93241 383.06733,495.39806 385.30653,495.39804 C 386.79931,495.39806 388.15638,495.63555 389.37778,496.1105 C 390.59913,496.5855 391.60846,497.22164 392.40576,498.0189 C 393.21999,498.79924 393.89853,499.71528 394.44138,500.76699 C 395.00116,501.80179 395.3998,502.86201 395.63731,503.94766 C 395.87479,505.03333 395.99352,506.13597 395.99355,507.25554 C 395.99352,508.32425 395.85782,509.40143 395.58642,510.48709 C 395.31499,511.57277 394.8909,512.63299 394.31416,513.66776 C 393.73738,514.70254 393.03339,515.61856 392.2022,516.41585 C 391.38793,517.21313 390.3786,517.85774 389.17422,518.34969 C 387.96978,518.82467 386.65511,519.06216 385.23019,519.06216 C 383.8731,519.06216 382.60932,518.84163 381.43885,518.40058 C 380.26835,517.95953 379.2675,517.36581 378.4363,516.61941 C 377.60508,515.87302 376.89261,515.01637 376.29889,514.04944 C 375.70517,513.06556 375.26412,512.03926 374.97574,510.97055 C 374.68735,509.90186 374.54317,508.82468 374.54317,507.73901 M 384.77218,497.12831 C 383.77131,497.12834 382.87225,497.40823 382.07498,497.96802 C 381.27768,498.51087 380.63307,499.24029 380.14113,500.1563 C 379.66614,501.05539 379.30144,502.05624 379.04699,503.15885 C 378.79253,504.24452 378.66529,505.37261 378.66531,506.54308 C 378.66529,507.59483 378.81797,508.71442 379.12332,509.90185 C 379.42866,511.08931 379.86122,512.24282 380.42104,513.36241 C 380.99779,514.46505 381.7781,515.38107 382.762,516.11051 C 383.76283,516.83993 384.87394,517.20465 386.09533,517.20465 C 386.62119,517.20465 387.12161,517.14528 387.59661,517.02653 C 388.08853,516.89083 388.59743,516.63637 389.12332,516.26317 C 389.66614,515.88998 390.13263,515.41501 390.52281,514.83823 C 390.91296,514.24452 391.23526,513.43875 391.48973,512.42094 C 391.74417,511.40313 391.87139,510.24113 391.87142,508.93493 C 391.87139,505.18601 391.22678,502.28525 389.93757,500.23265 C 388.66529,498.16311 386.94349,497.12834 384.77218,497.12831 M 432.15131,505.11814 L 436.96047,495.39804 C 437.58809,495.48288 438.29208,495.52528 439.07243,495.52527 C 439.75094,495.52528 440.51429,495.48288 441.36251,495.39804 L 433.57625,510.94511 L 433.67803,511.58124 C 433.94942,512.93834 434.33959,513.97311 434.84851,514.68557 C 435.37436,515.38107 435.94263,515.72883 436.55334,515.72883 C 437.29972,515.72883 437.93585,515.53375 438.46175,515.14358 C 439.00455,514.75342 439.52194,513.99855 440.0139,512.87896 L 441.41339,513.38785 C 440.68393,515.49134 439.92906,516.96716 439.14876,517.81534 C 438.38538,518.64655 437.43543,519.06216 436.29889,519.06216 C 434.33111,519.06216 433.00794,517.16225 432.32943,513.36241 C 430.07326,517.16225 427.09617,519.06216 423.39813,519.06216 C 419.9206,519.06216 417.24884,518.04434 415.38286,516.00872 C 413.51687,513.97311 412.58387,511.29288 412.58389,507.96802 C 412.58387,506.11901 412.8044,504.45658 413.24546,502.98073 C 413.70347,501.50492 414.28872,500.30899 415.00118,499.39295 C 415.71365,498.45998 416.55335,497.68814 417.52027,497.07742 C 418.48718,496.4498 419.45411,496.01723 420.42103,495.77972 C 421.38794,495.52528 422.37183,495.39806 423.37269,495.39804 C 425.81541,495.39806 427.65595,496.04268 428.89432,497.33187 C 430.14959,498.60416 431.08259,500.54649 431.69329,503.15885 L 432.15131,505.11814 M 430.95538,507.68811 L 430.5737,505.85605 C 430.2853,504.48203 429.96299,503.30306 429.60678,502.31916 C 429.26749,501.31832 428.81796,500.39382 428.25819,499.54562 C 427.71534,498.6805 427.02831,498.0274 426.19711,497.58634 C 425.38284,497.1453 424.44138,496.92477 423.37269,496.92475 C 418.97912,496.92477 416.78235,500.19873 416.78235,506.74664 C 416.78235,508.71442 417.01136,510.48711 417.46938,512.06471 C 417.92738,513.62535 418.69074,514.91458 419.75946,515.93239 C 420.82814,516.9502 422.13434,517.4591 423.67803,517.4591 C 424.13603,517.4591 424.59404,517.3234 425.05208,517.05198 C 425.52704,516.7636 425.96809,516.39888 426.37522,515.95783 C 426.78234,515.49982 427.2149,514.89762 427.67294,514.15122 C 428.13094,513.40483 428.55503,512.64995 428.9452,511.88659 C 429.3523,511.10628 429.80185,510.18176 430.29381,509.11305 L 430.95538,507.68811 M 470.09024,513.31152 C 469.56434,515.00789 468.89428,516.3904 468.08006,517.4591 C 467.26579,518.52781 466.39217,519.06216 465.45919,519.06216 C 464.20387,519.06216 463.15213,518.49388 462.30398,517.35733 C 461.45578,516.2038 460.65002,514.37174 459.88668,511.86114 L 456.34979,499.57106 L 448.18184,517.94257 L 444.0597,519.0876 L 443.01645,518.68048 L 455.12841,496.03417 L 454.3905,493.51509 C 452.60931,487.98501 450.72636,485.21995 448.74164,485.21992 C 447.38455,485.21995 446.1547,485.66101 445.05207,486.54307 L 444.28871,485.21992 C 444.95029,484.25304 445.75605,483.48967 446.70602,482.92985 C 447.67293,482.35312 448.59744,482.06474 449.47956,482.0647 C 449.75097,482.06474 450.04782,482.10714 450.37014,482.19193 C 450.7094,482.27678 451.11652,482.47186 451.59151,482.77717 C 452.08345,483.06559 452.54146,483.43879 452.96556,483.89676 C 453.4066,484.35481 453.85613,485.0079 454.31417,485.85605 C 454.78913,486.70426 455.19625,487.67966 455.53554,488.78226 L 460.24292,504.45656 C 461.58302,508.85013 462.60931,511.81026 463.3218,513.33697 C 464.03424,514.84673 464.81456,515.6016 465.66276,515.6016 C 466.29039,515.6016 466.85866,515.38955 467.3676,514.96547 C 467.89343,514.52442 468.40235,513.74409 468.89431,512.62451 L 470.09024,513.31152 M 495.86633,506.82297 C 495.8663,500.15633 494.11905,496.823 490.62459,496.82297 C 489.58979,496.823 488.77554,497.56091 488.18184,499.03672 C 487.58811,500.51255 487.29124,502.69237 487.29126,505.57615 L 487.29126,517.53545 C 489.85274,517.19617 491.92228,516.00024 493.49991,513.94765 C 495.07749,511.87811 495.8663,509.50322 495.86633,506.82297 M 484.26327,518.96038 C 480.34469,518.70592 477.33366,517.51 475.23019,515.37259 C 473.14368,513.21823 472.10042,510.29203 472.10042,506.59397 C 472.10042,505.42349 472.28702,504.29543 472.66022,503.20974 C 473.05037,502.12409 473.52536,501.19958 474.08516,500.43621 C 474.64494,499.67286 475.28955,498.9604 476.01899,498.2988 C 476.76538,497.63725 477.43545,497.11986 478.02917,496.74664 C 478.62288,496.35649 479.19965,496.02571 479.75946,495.75428 L 480.75181,496.84842 C 480.15809,497.32342 479.64918,497.78143 479.2251,498.22247 C 478.81796,498.66354 478.35995,499.2827 477.85105,500.07997 C 477.34214,500.87727 476.95198,501.86964 476.68057,503.05708 C 476.40915,504.22756 476.27344,505.55921 476.27344,507.05198 C 476.27344,508.45997 476.40915,509.74919 476.68057,510.91966 C 476.96894,512.07319 477.40999,513.1419 478.00373,514.12577 C 478.6144,515.0927 479.44561,515.8815 480.49736,516.49219 C 481.56606,517.08591 482.82136,517.45062 484.26327,517.58633 L 484.26327,504.86368 C 484.26326,502.82808 484.41592,501.22503 484.72128,500.05453 C 485.04357,498.88407 485.6797,497.82384 486.62968,496.87386 C 487.61355,495.89 488.95366,495.39806 490.65004,495.39804 C 492.07495,495.39806 493.38963,495.7034 494.59405,496.31406 C 495.79844,496.92477 496.79081,497.73902 497.57116,498.75681 C 498.35145,499.75769 498.95366,500.89423 499.37777,502.16648 C 499.8188,503.42181 500.03932,504.71951 500.03935,506.05961 C 500.03932,507.45063 499.8612,508.74834 499.505,509.95274 C 499.14874,511.15716 498.69072,512.18346 498.13096,513.03163 C 497.57113,513.86284 496.90107,514.61772 496.12078,515.29626 C 495.34043,515.9748 494.5601,516.52611 493.7798,516.9502 C 493.01643,517.37429 492.20218,517.73901 491.33705,518.04434 C 490.48887,518.33273 489.74247,518.53629 489.09787,518.65503 C 488.47021,518.79074 487.868,518.88404 487.29126,518.93494 L 487.29126,529.26572 L 484.84852,530.41076 L 484.26327,529.49472 L 484.26327,518.96038 M 517.8765,482.87895 C 518.40235,482.87899 518.88581,483.08255 519.32688,483.48963 C 519.78488,483.87984 520.01389,484.33785 520.0139,484.86368 C 520.01389,485.1521 519.92908,485.41503 519.75945,485.65249 L 514.97574,491.98837 C 514.77217,492.25982 514.57709,492.39552 514.3905,492.39549 C 514.18692,492.39552 514.00032,492.32767 513.8307,492.19193 C 513.67801,492.03928 513.60168,491.86965 513.60169,491.68303 C 513.60168,491.59823 513.63561,491.43709 513.70347,491.19956 L 516.42612,483.76954 C 516.52788,483.49815 516.71448,483.28611 516.98591,483.13341 C 517.27428,482.96381 517.57114,482.87899 517.8765,482.87895 M 523.75437,505.11814 L 528.56352,495.39804 C 529.19114,495.48288 529.89514,495.52528 530.67549,495.52527 C 531.354,495.52528 532.11735,495.48288 532.96556,495.39804 L 525.1793,510.94511 L 525.28108,511.58124 C 525.55248,512.93834 525.94264,513.97311 526.45156,514.68557 C 526.97741,515.38107 527.54568,515.72883 528.15639,515.72883 C 528.90277,515.72883 529.5389,515.53375 530.0648,515.14358 C 530.6076,514.75342 531.12499,513.99855 531.61695,512.87896 L 533.01645,513.38785 C 532.28698,515.49134 531.53212,516.96716 530.75182,517.81534 C 529.98843,518.64655 529.03848,519.06216 527.90194,519.06216 C 525.93416,519.06216 524.611,517.16225 523.93249,513.36241 C 521.67631,517.16225 518.69922,519.06216 515.00119,519.06216 C 511.52365,519.06216 508.8519,518.04434 506.98591,516.00872 C 505.11992,513.97311 504.18693,511.29288 504.18694,507.96802 C 504.18693,506.11901 504.40745,504.45658 504.84851,502.98073 C 505.30652,501.50492 505.89177,500.30899 506.60423,499.39295 C 507.3167,498.45998 508.1564,497.68814 509.12332,497.07742 C 510.09023,496.4498 511.05716,496.01723 512.02408,495.77972 C 512.99099,495.52528 513.97488,495.39806 514.97574,495.39804 C 517.41846,495.39806 519.25901,496.04268 520.49737,497.33187 C 521.75264,498.60416 522.68564,500.54649 523.29634,503.15885 L 523.75437,505.11814 M 522.55844,507.68811 L 522.17676,505.85605 C 521.88835,504.48203 521.56604,503.30306 521.20983,502.31916 C 520.87054,501.31832 520.42101,500.39382 519.86124,499.54562 C 519.31839,498.6805 518.63136,498.0274 517.80016,497.58634 C 516.9859,497.1453 516.04443,496.92477 514.97574,496.92475 C 510.58217,496.92477 508.3854,500.19873 508.3854,506.74664 C 508.3854,508.71442 508.61441,510.48711 509.07243,512.06471 C 509.53043,513.62535 510.2938,514.91458 511.36251,515.93239 C 512.43119,516.9502 513.73739,517.4591 515.28108,517.4591 C 515.73908,517.4591 516.19709,517.3234 516.65513,517.05198 C 517.13009,516.7636 517.57114,516.39888 517.97828,515.95783 C 518.38539,515.49982 518.81796,514.89762 519.276,514.15122 C 519.73399,513.40483 520.15808,512.64995 520.54826,511.88659 C 520.95536,511.10628 521.4049,510.18176 521.89686,509.11305 L 522.55844,507.68811 M 545.66276,497.00109 C 545.544,497.08593 545.48464,497.23012 545.48464,497.43366 C 545.48464,497.63725 545.55249,497.79839 545.6882,497.91712 C 545.84086,498.01892 545.99354,498.06982 546.14622,498.06979 C 546.21406,498.06982 546.32433,498.04437 546.477,497.99346 C 546.64663,497.92562 546.85019,497.83232 547.08769,497.71355 C 547.32517,497.59483 547.51177,497.51002 547.64749,497.4591 C 547.4948,497.40823 547.29124,497.32342 547.0368,497.20466 C 546.78234,497.08593 546.5703,497.00111 546.40067,496.95021 C 546.24799,496.88237 546.12925,496.84844 546.04444,496.84842 C 545.92569,496.84844 545.79845,496.89933 545.66276,497.00109 M 537.80017,529.26572 L 537.80017,496.74664 C 537.80015,495.2878 537.90194,493.8883 538.1055,492.54817 C 538.30907,491.1911 538.64833,489.86796 539.12332,488.57869 C 539.61525,487.27253 540.22594,486.15295 540.95538,485.21992 C 541.6848,484.27 542.6178,483.50664 543.75436,482.92985 C 544.90787,482.35312 546.20558,482.06474 547.64749,482.0647 C 548.73314,482.06474 549.76791,482.22589 550.75181,482.54817 C 551.75265,482.85354 552.65171,483.30307 553.44902,483.89676 C 554.24629,484.49052 554.88242,485.27085 555.35742,486.23773 C 555.84934,487.18772 556.09531,488.25642 556.09533,489.44384 C 556.09531,493.02317 553.91549,495.66099 549.55588,497.35733 C 550.14959,497.44217 550.7518,497.57787 551.3625,497.76445 C 551.97317,497.95107 552.71108,498.29882 553.57624,498.80771 C 554.45833,499.31664 555.22169,499.92732 555.86632,500.63977 C 556.52788,501.35226 557.08768,502.33613 557.54571,503.59142 C 558.02066,504.84673 558.25815,506.2547 558.25818,507.81534 C 558.25815,509.30814 558.06307,510.72459 557.67293,512.06471 C 557.28276,513.38787 556.71448,514.5753 555.9681,515.62704 C 555.23865,516.67879 554.28869,517.51848 553.11823,518.14613 C 551.96469,518.75682 550.66699,519.06216 549.2251,519.06216 C 548.03764,519.06216 546.96894,518.70592 546.01899,517.99346 C 545.06902,517.281 544.33959,516.39888 543.83069,515.34715 L 544.95029,514.58378 C 545.42525,515.48286 546.0105,516.24622 546.70601,516.87386 C 547.41847,517.48456 548.1479,517.7899 548.89431,517.7899 C 549.67462,517.7899 550.37012,517.56089 550.98082,517.10288 C 551.60846,516.62789 552.10039,516.04266 552.45666,515.34715 C 552.82983,514.63469 553.13518,513.82892 553.37268,512.92984 C 553.62712,512.01382 553.79675,511.15716 553.88159,510.35986 C 553.96639,509.54563 554.0088,508.7653 554.00881,508.0189 C 554.0088,507.17074 553.91549,506.23774 553.72892,505.21992 C 553.55927,504.20212 553.27936,503.1419 552.88922,502.03926 C 552.51601,500.93664 551.95621,500.0291 551.20984,499.31661 C 550.46343,498.5872 549.59828,498.22248 548.61442,498.22247 C 548.32601,498.22248 547.85952,498.37515 547.21492,498.68048 C 546.5703,498.96888 546.1038,499.11307 545.81543,499.11305 C 544.81457,499.11307 544.31415,498.53631 544.31416,497.38277 C 544.31415,496.94174 544.46682,496.56006 544.77217,496.23773 C 545.07751,495.89848 545.42525,495.72884 545.81543,495.72883 C 546.20558,495.72884 546.71448,495.89 547.34215,496.21229 C 547.98675,496.53461 548.44476,496.69577 548.71619,496.69574 C 549.34383,496.69577 549.89515,496.45828 550.37013,495.98328 C 550.86207,495.49136 551.23526,494.88067 551.48973,494.15122 C 551.74417,493.40485 551.93077,492.67542 552.04953,491.96292 C 552.16826,491.25049 552.22762,490.58042 552.22765,489.95274 C 552.22762,488.23946 551.75265,486.75515 550.80271,485.49981 C 549.85274,484.22759 548.63136,483.59146 547.13859,483.59142 C 546.62967,483.59146 546.15469,483.65083 545.71366,483.76954 C 545.27258,483.88832 544.79761,484.14277 544.28872,484.5329 C 543.77979,484.92309 543.33874,485.44048 542.96556,486.08506 C 542.60932,486.72971 542.30397,487.63725 542.04953,488.80771 C 541.81203,489.97822 541.69328,491.3353 541.6933,492.87896 L 541.6933,528.60414 L 538.38541,530.18175 L 537.80017,529.26572 M 569.58134,495.39804 L 569.40322,500.02908 L 569.58134,500.02908 C 569.78489,499.7068 570.00541,499.38449 570.24291,499.06216 C 570.49736,498.73987 570.87903,498.34971 571.38795,497.89167 C 571.89684,497.41671 572.4312,497.0096 572.99101,496.6703 C 573.56774,496.33105 574.28022,496.03419 575.12841,495.77972 C 575.99353,495.52528 576.89259,495.39806 577.8256,495.39804 C 581.79505,495.39806 583.77979,498.14615 583.77981,503.64231 L 583.77981,518.60414 C 583.77979,523.71017 584.19539,527.34035 585.02663,529.49472 L 584.44139,530.41076 L 580.49736,528.65503 C 580.09022,526.97563 579.88666,523.62534 579.88667,518.60414 L 579.88667,504.02399 C 579.88666,502.12409 579.58979,500.6313 578.99609,499.54562 C 578.41932,498.45998 577.4015,497.91714 575.94266,497.91712 C 574.56859,497.91714 573.38114,498.28186 572.38032,499.01127 C 571.37946,499.74072 570.44646,500.79246 569.58134,502.16648 L 569.58134,518.06979 L 566.27345,519.6474 L 565.68821,518.73138 L 565.68821,500.94511 C 565.6882,500.0291 565.58642,499.40993 565.38286,499.0876 C 565.19626,498.76532 564.90787,498.60416 564.51772,498.60415 C 563.90703,498.60416 563.1776,498.68899 562.32942,498.8586 L 562.07497,497.33187 C 564.85698,496.85693 566.73993,496.32257 567.72383,495.72883 C 568.06309,495.50832 568.41932,495.39806 568.79253,495.39804 L 569.58134,495.39804 M 594.59406,496.05961 L 603.2709,496.05961 C 606.23949,496.05964 607.80862,495.87304 607.97827,495.49981 L 608.99609,496.21229 C 608.30056,497.46761 607.41846,498.34971 606.34978,498.8586 C 605.28106,499.36752 603.94094,499.62197 602.32943,499.62196 L 601.03171,499.62196 C 600.50584,505.50832 600.24289,509.92731 600.24291,512.87896 C 600.24289,515.16903 600.78573,516.31407 601.8714,516.31407 C 603.29633,516.31407 604.80609,515.5083 606.40068,513.89677 L 607.39304,514.81279 C 606.35824,516.16988 605.37436,517.22161 604.44138,517.96801 C 603.50837,518.69744 602.516,519.06216 601.46428,519.06216 C 600.02237,519.06216 598.90278,518.51084 598.10551,517.40821 C 597.32517,516.30559 596.93501,514.74494 596.93502,512.72628 C 596.93501,510.18176 597.29973,505.81366 598.02918,499.62196 L 595.1284,499.62196 C 593.89007,499.62197 593.00795,499.8849 592.48209,500.41077 C 591.95622,500.91968 591.37099,502.00535 590.72638,503.66776 L 589.53045,503.4133 C 589.63222,502.633 589.79338,501.86116 590.0139,501.09778 C 590.25139,500.31747 590.55674,499.52868 590.92994,498.73137 C 591.32009,497.93411 591.829,497.28949 592.45665,496.79753 C 593.10126,496.30561 593.81372,496.05964 594.59406,496.05961 M 612.60932,507.73901 C 612.60932,505.34716 613.01645,503.22673 613.83069,501.37768 C 614.66191,499.52868 615.90024,498.06982 617.5457,497.00109 C 619.19117,495.93241 621.13348,495.39806 623.37268,495.39804 C 624.86545,495.39806 626.22254,495.63555 627.44393,496.1105 C 628.66529,496.5855 629.67462,497.22164 630.47192,498.0189 C 631.28614,498.79924 631.96469,499.71528 632.50754,500.76699 C 633.06732,501.80179 633.46596,502.86201 633.70347,503.94766 C 633.94093,505.03333 634.05968,506.13597 634.05971,507.25554 C 634.05968,508.32425 633.92397,509.40143 633.65259,510.48709 C 633.38113,511.57277 632.95705,512.63299 632.38031,513.66776 C 631.80354,514.70254 631.09954,515.61856 630.26836,516.41585 C 629.45408,517.21313 628.44476,517.85774 627.24037,518.34969 C 626.03594,518.82467 624.72127,519.06216 623.29635,519.06216 C 621.93925,519.06216 620.67547,518.84163 619.505,518.40058 C 618.33451,517.95953 617.33366,517.36581 616.50245,516.61941 C 615.67124,515.87302 614.95876,515.01637 614.36505,514.04944 C 613.77133,513.06556 613.33026,512.03926 613.04189,510.97055 C 612.75351,509.90186 612.60932,508.82468 612.60932,507.73901 M 622.83832,497.12831 C 621.83748,497.12834 620.9384,497.40823 620.14113,497.96802 C 619.34384,498.51087 618.69922,499.24029 618.20729,500.1563 C 617.7323,501.05539 617.36759,502.05624 617.11314,503.15885 C 616.85869,504.24452 616.73145,505.37261 616.73145,506.54308 C 616.73145,507.59483 616.88413,508.71442 617.18948,509.90185 C 617.49482,511.08931 617.92739,512.24282 618.48718,513.36241 C 619.06393,514.46505 619.84426,515.38107 620.82816,516.11051 C 621.82899,516.83993 622.9401,517.20465 624.16149,517.20465 C 624.68734,517.20465 625.18777,517.14528 625.66275,517.02653 C 626.15469,516.89083 626.66359,516.63637 627.18948,516.26317 C 627.73229,515.88998 628.19878,515.41501 628.58897,514.83823 C 628.97911,514.24452 629.30142,513.43875 629.55588,512.42094 C 629.81032,511.40313 629.93755,510.24113 629.93756,508.93493 C 629.93755,505.18601 629.29294,502.28525 628.00373,500.23265 C 626.73144,498.16311 625.00965,497.12834 622.83832,497.12831"
       id="text2383"
       style="font-size:40px;font-style:normal;font-variant:normal;font-weight:normal;font-stretch:normal;fill:#000000;fill-opacity:1;stroke:none;stroke-width:1px;stroke-linecap:butt;stroke-linejoin:miter;stroke-opacity:1;font-family:Linux Libertine;-inkscape-font-specification:Linux Libertine" />
  </g>
</svg>
