<svg enable-background="new 0 0 343.105 151.248" height="151.248" viewBox="0 0 343.105 151.248" width="343.105" xmlns="http://www.w3.org/2000/svg"><path d="m60.695 105.548h-17.494c-4.881 0-8.064-1.545-9.55-4.642-1.49-3.093-3.186-8.747-5.088-16.959l-6.605 7.855c-1.071 1.428-2.084 2.708-3.035 3.838-.954 1.132-1.964 1.696-3.035 1.696-4.047 0-7.707-.536-10.979-1.606-3.275-1.072-4.909-3.571-4.909-7.498 0-5.713 1.428-10.739 4.284-15.085 2.856-4.343 9.461-9.431 19.815-15.263-.24-1.902-.508-3.955-.803-6.159-.298-2.201-.446-3.955-.446-5.266 0-1.902.951-3.718 2.856-5.445 1.902-1.724 3.749-3.42 5.534-5.088 1.071 5.355 2.053 11.576 2.945 18.655.893 7.082 1.786 13.45 2.678 19.101.893 5.654 1.785 9.135 2.678 10.443.893 1.311 3.481 1.963 7.765 1.963h13.389zm-58.375-80.868 7.141-12.496 10.711 7.141 5.891-9.506 10.711 8.053-6.248 11.628-10.711-7.498-6.784 10.354zm24.457 50.341-1.606-10.711c-2.619 1.668-5.506 3.57-8.658 5.712-3.155 2.142-4.731 4.106-4.731 5.891 0 .954 1.397 1.757 4.195 2.41 2.795.655 4.968.981 6.516.981h3.57c.831-.357 1.25-1.009 1.25-1.963z"/><path d="m44.271 86.268h15.531c7.498 0 12.287-.455 14.371-1.364 2.081-.91 4.848-3.727 8.301-8.455h1.071c.714 4.533 1.278 7.082 1.696 7.648.416.566 2.41 1.289 5.98 2.17h19.994v19.458h-20.351c-5.355-.483-8.362-1.146-9.015-1.995-.655-.848-2.352-3.813-5.088-8.895-2.739 4.234-4.82 7.11-6.248 8.622s-5.177 2.268-11.247 2.268h-14.995zm14.46 41.031 6.605-11.754 11.247 7.854 6.069-10.354 10.711 8.033-6.783 12.139-10.89-7.498-5.712 9.595z"/><path d="m94.969 86.089h21.422c3.57 0 6.812-.295 9.729-.893 2.915-.597 4.374-1.729 4.374-3.397 0-.594-1.133-2.231-3.392-4.915-2.262-2.681-3.392-4.499-3.392-5.453 0-1.191.268-2.382.803-3.573s.92-2.086 1.16-2.683l6.249-13.227c2.022 5.004 3.629 9.47 4.82 13.4 1.188 3.933 1.785 7.743 1.785 11.434 0 11.913-2.382 19.687-7.141 23.318-4.762 3.632-11.188 5.448-19.28 5.448h-17.137zm25.528 37.818 6.784-10.683 11.247 7.478-7.319 10.329z"/><path d="m222.608 105.727h-20.529c-2.5 12.398-5.922 23.084-10.265 32.06-4.346 8.974-11.397 13.461-21.154 13.461-3.096 0-6.042-.507-8.836-1.517-2.798-1.013-7.944-3.78-15.442-8.301l1.25-2.321c2.5.357 4.999.714 7.498 1.071 8.568 0 15.857-2.639 21.868-7.908 6.008-5.275 12.585-12.533 19.726-21.773-2.739-4.031-4.642-6.873-5.712-8.533-1.071-1.657-3.213-5.45-6.427-11.375l9.64-15.972c2.974 4.734 5.355 7.858 7.141 9.375 1.785 1.518 3.927 2.273 6.426 2.273h14.817v19.46z"/><path d="m207.969 86.089h13.567c2.856-.357 5.651-.742 8.39-1.16 2.736-.416 5.593-1.16 8.569-2.231-1.785-1.665-3.632-2.915-5.534-3.749-1.905-.831-4.641-1.785-8.212-2.856 1.309-6.427 3.451-12.02 6.427-16.781 2.974-4.759 8.686-7.141 17.138-7.141 5.593 0 10.471 1.637 14.638 4.909 4.165 3.274 6.248 7.528 6.248 12.764 0 3.81-.714 6.488-2.142 8.033-1.428 1.548-4.167 3.512-8.212 5.891 4.765 1.548 9.347 2.32 13.746 2.32h13.21v19.458h-13.21c-5.595-.951-10.326-3.183-14.192-6.694-3.869-3.509-7.291-6.633-10.265-9.372-2.619 1.668-5.891 4.167-9.818 7.498-3.927 3.333-6.426 5.328-7.498 5.98-1.071.655-2.41 1.191-4.017 1.606-1.607.418-3.364.745-5.266.982h-13.567z"/><path d="m272.056 86.089h18.03c4.401 0 7.168-.625 8.301-1.874 1.13-1.25 1.696-3.961 1.696-8.128 0-3.453-.923-11.012-2.767-22.683-1.847-11.668-3.721-23.754-5.624-36.258 0-4.762.653-8.125 1.964-10.089 1.308-1.963 3.688-4.318 7.141-7.057 3.093 5.358 6.365 10.12 9.818 14.287-2.619 2.979-4.404 5.241-5.355 6.79-.954 1.548-1.428 4.284-1.428 8.211 0 2.382.92 9.975 2.767 22.772 1.844 12.8 2.767 20.809 2.767 24.022 0 8.931-1.757 16.075-5.267 21.43-3.512 5.358-8.778 8.036-15.798 8.036h-16.245z"/><path d="m335.607 105.548c0-6.44-.445-13.478-1.338-21.112s-2.293-18.549-4.195-32.744c-1.906-14.195-2.857-22.725-2.857-25.586 0-4.295 1.488-8.231 4.463-11.81 2.5-2.504 4.344-4.471 5.535-5.905 0 4.413.625 13.509 1.875 27.285 1.248 13.779 2.588 27.765 4.016 41.96 0 3.938-.418 8.739-1.25 14.404-.834 5.668-1.904 10.17-3.213 13.509h-3.036z"/></svg>