<?xml version="1.0" encoding="UTF-8" standalone="no"?>
<svg xmlns="http://www.w3.org/2000/svg" width="124" height="125" viewBox=".22 -.456 124 125">
  <radialGradient id="a" cx="61.042" cy="130.475" r="130.184" gradientUnits="userSpaceOnUse">
    <stop offset="0" stop-color="#d4e8ff"/>
    <stop offset=".0861" stop-color="#cae4ff"/>
    <stop offset=".3389" stop-color="#b2dbff"/>
    <stop offset=".4944" stop-color="#a9d7ff"/>
    <stop offset="1" stop-color="#1260d9"/>
  </radialGradient>
  <radialGradient id="b" cx="61.0894" cy="130.222" r="124.754" gradientTransform="matrix(1 0 0 .9479 0 4.152)" gradientUnits="userSpaceOnUse">
    <stop offset="0" stop-color="#fff"/>
    <stop offset=".1176" stop-color="#e6f9ff"/>
    <stop offset=".2604" stop-color="#cef2ff"/>
    <stop offset=".3483" stop-color="#c5f0ff"/>
    <stop offset=".427" stop-color="#bbe9fd"/>
    <stop offset="1" stop-color="#1d74d9"/>
  </radialGradient>
  <radialGradient id="c" cx="66.165" cy="113.842" r="73.9839" gradientUnits="userSpaceOnUse">
    <stop offset=".1742" stop-color="#53a4ff"/>
    <stop offset=".2463" stop-color="#4b99f6"/>
    <stop offset=".7613" stop-color="#1550bb"/>
    <stop offset="1" stop-color="#0033a4"/>
  </radialGradient>
  <linearGradient id="d" x1="61.8477" x2="61.8476" y1="-20.8955" y2="119.195" gradientUnits="userSpaceOnUse">
    <stop offset=".0899" stop-color="#2b9fd7"/>
    <stop offset=".3508" stop-color="#1175d4"/>
    <stop offset=".5562" stop-color="#0058d2"/>
    <stop offset="1" stop-color="#0032bb"/>
  </linearGradient>
  <linearGradient id="e" x1="62.8833" x2="62.8833" y1="5.9136" y2="69.3881" gradientUnits="userSpaceOnUse">
    <stop offset=".0402299" stop-color="#fff"/>
    <stop offset="1" stop-color="#fff" stop-opacity="0"/>
  </linearGradient>
  <path fill="url(#a)" fill-rule="evenodd" d="M62.157 124.333c34.324 0 62.165-27.968 62.165-62.278C124.322 27.968 96.481 0 62.157 0 28.077 0 0 27.968 0 62.055c0 34.31 28.077 62.278 62.157 62.278z" clip-rule="evenodd"/>
  <path fill="url(#b)" fill-rule="evenodd" d="M62.157 121.706c32.875 0 59.541-26.783 59.541-59.644 0-32.649-26.666-59.438-59.541-59.438-32.638 0-59.533 26.789-59.533 59.438 0 32.861 26.895 59.644 59.533 59.644z" clip-rule="evenodd"/>
  <path fill="url(#c)" d="M33.445 62.312c-.501-.475-.167-2.547-.167-2.547s-7.502-3.977-15.672-6.366c-1.008-.297-.5-2.386.5-3.184l-.333-2.23c-.167-1.114 1.669-6.526 3.5-7 1.834-.479-.168 3.182-.168 3.182l-1.832 1.116s2.167 2.547 2.668 2.547c.499 0 1.333-1.277 1.333-1.277l-2.333-1.586 2.165-.961.136-.837.366-.117 3.586-5.48c2.48-1.024 5.527-2.293 5.916-2.479.667-.316 5.333-3.023 6.167-3.658.834-.637 2.667-.479 3.333-.479s1.667-.316 1.834-2.07c.168-1.751.834-2.07 1.335-1.591.499.474-.503 1.27.665 1.591 1.168.319 2.165 1.114 3 .319.612-.584-.205-1.246-.754-1.751h9.257l1.002-2.868-2.167-.318-8.005-.793v-.956l-.638.109c.867-4.802 6.017-4.009 2.142-6.792-.238-.17-3.627 5.388-4.488 5.279-1.564-.207-3.585-.224-4.016.287-.567.679 1.279-2.328 2.87-3.237-2.537.756-10.559 3.522-19.04 12.634-8.106 8.706-11.337 20.438-11.337 20.849 0 .795 1.668 1.114 1.837 2.07.163.951-3.168 4.137-3.168 5.728 0 .735-.786 10.546 1.997 18.625 3.254 9.432 10.198 17.311 11.005 17.826l1.667-.794s-3.833-6.846-3.999-7.483c-.169-.634 4.333-9.867 6.502-9.549 2.165.314 1.666.956 3 .161 1.333-.797 2.165-7.328 3.666-7.959 1.501-.64 3.168-1.433 3.004-3.025-.168-1.596-5.838-4.457-6.336-4.936zm12.001-44.409c-.247 0-.518.102-.798.26.656-.192.964-.26.798-.26zm16.174 3.181l.163-2.386-2.498.156.333 2.23zm8-5.57l-4.5-1.593.834 2.549zM52.783 21.4c.502 0 10.505-6.679 9.503-6.842-1.001-.158-1.167 0-3.836-.318-2.668-.319-5.503 3.821-6.168 4.458-.666.637-.442 2.702.501 2.702zm27.185 59.353s-1.131.305.158.767c1.29.461 6.454-7.518 6.454-7.518l-4.356 2.761zm31.139-24.393l-.841-1.645c-1-5.675-3.287-12.943-8.192-20.45-7.382-11.281-27.919-17.791-27.919-17.791l-1.129 1.376-.646-1.07-1.612-.615v1.379l1.452 1.23-.969.458-3.713.307-8.391 4.604.806 3.68-.967.312-.484.761 2.743 4.143.162 1.384-2.26.458v2.761l-1.289.304.161 2.15-10.973 7.674.322 4.293c.807 1.073 7.103 7.519 7.103 7.519s7.257.302 8.873-.614c1.612-.923.483.916.969 1.378.483.463.644 3.682 1.128 3.992.483.306 0 2.144.646 2.76.646.613.646 7.979.646 7.979s3.873 6.596 3.873 8.284c0 1.687-.163 1.536 2.903 1.38 3.067-.153 3.708-1.38 4.355-1.84.646-.461.646-1.534 1.294-2.457.647-.919 1.771-4.447 3.226-5.674 1.454-1.23 5.323-2.152 5.646-4.297.323-2.148 1.775-3.838 1.775-3.838l6.977-7.442-.197 1.002-.161 3.833 2.097-.765-.159-4.145-.755-.806.107-.112s-.482-.919-1.129-.919c-.645 0-4.52.919-5.164.764-.646-.151-3.391-7.519-3.875-7.823-.483-.307-3.546-5.369-3.546-5.369s7.098 8.592 8.228 11.965c.656 1.963 3.118.134 5.121-1.914l.528 1.304 1.29-.309-.161-1.535h1.453v2.301l-.484 1.229-.166 1.99 1.292 1.232.648-1.074 2.094-1.997 2.422-1.226.646 1.226.323 1.69-.647 1.839-1.291 1.076-.645 2.762v1.375l-1.452-.915-.159-2.914-2.096.153-.97 2.604 1.451 2.151 3.387.459 2.745-2.61.321-5.058 1.221-1.623c.795 2.059 1.362 4.218 1.362 6.225 0 2.204.999-1.525.15-8.242zM70.444 40.712l-8.712-.309 3.709-3.065h1.938l3.064 2.143v1.231zm10.65-1.075v1.381h-3.709l.322.919-2.261.309-.16.766-1.613-.304-2.904-.616.483-.766.483-.924 1.613-1.686.645 1.228 2.422-.155 1.292-1.379 5 .917zm.322-1.995l-1.938.304-.318-1.377 2.415-.304.326-1.384 1.775 1.844zM98.683 69.4l1.293-1.689-1.293-.459-.968 1.228-1.129 1.686.967.461zm-7.907 15.954l-1.13.92.16 2.304h1.455v-1.994l1.289-1.686v-3.53l-.807-.159zm13.555-10.431l-.326-2.454h-2.093l-.162 1.836-1.94-.303-.479-1.996-.968-.611-1.13 1.382-1.129-.308-.324 1.071 1.29.309v9.972l4.568 1.108a2.928 2.928 0 0 0-.212.425c-.325 1.075 1.292 1.536 2.417 1.075.419-.172 1.747-1.523 2.583-3.527 1.161-2.786 2.18-6.469 2.383-7.771l.521-1.129-3.228 1.229z" opacity=".1"/>
  <path fill="url(#d)" d="M41.972 8.076c-.302 0-.629.122-.964.314.79-.234 1.162-.314.964-.314zm19.568 3.819l.197-2.865-3.021.189.401 2.676zM27.449 61.371c-.608-.573-.202-3.06-.202-3.06s-9.078-4.77-18.963-7.638c-1.22-.355-.603-2.863.602-3.817l-.401-2.68c-.201-1.335 2.019-7.83 4.236-8.399 2.219-.577-.201 3.816-.201 3.816l-2.22 1.338s2.622 3.055 3.23 3.055c.604 0 1.612-1.53 1.612-1.53l-2.824-1.902 2.622-1.15.166-1.01.441-.139 4.339-6.577c3-1.229 6.689-2.749 7.156-2.973.808-.379 6.456-3.624 7.465-4.391 1.009-.769 3.226-.571 4.033-.571s2.019-.384 2.218-2.491c.203-2.1 1.009-2.484 1.615-1.907.604.569-.606 1.525.808 1.907 1.413.387 2.62 1.34 3.629.387.74-.701-.249-1.496-.913-2.102h11.2l1.212-3.442-2.621-.38-9.686-.953v-1.151l-.773.134c1.051-5.765 7.278-4.813 2.591-8.151-.287-.205-4.386 6.465-5.432 6.336-1.89-.25-4.335-.27-4.855.343-.686.813 1.547-2.792 3.474-3.884-3.072.905-12.778 4.225-23.042 15.156C8.157 33.998 4.248 48.077 4.248 48.573c0 .951 2.018 1.335 2.221 2.484.201 1.141-3.832 4.962-3.832 6.874 0 .88-.952 12.655 2.419 22.35 3.937 11.322 12.338 20.773 13.316 21.395l2.014-.957s-4.638-8.213-4.838-8.978c-.202-.762 5.245-11.844 7.865-11.46 2.621.38 2.017 1.148 3.63.19 1.615-.954 2.623-8.79 4.437-9.549 1.817-.769 3.836-1.721 3.636-3.631-.204-1.912-7.061-5.345-7.667-5.92zM71.221 5.208l-5.195-1.034.759 2.182zm-20.374 7.066c.605 0 12.709-8.017 11.498-8.214-1.209-.187-1.513.608-4.743.229-3.226-.384-6.556 3.977-7.361 4.741-.805.765-.535 3.244.606 3.244zm55.54 57.599l1.563-2.025-1.563-.552-1.172 1.474-1.365 2.021 1.17.556zm6.832 6.632l-.392-2.945h-2.535l-.196 2.202-2.347-.361-.58-2.396-1.172-.732-1.367 1.654-1.366-.366-.392 1.284 1.562.371v11.966l5.528 1.331c-.126.224-.224.406-.255.507-.395 1.292 1.559 1.847 2.924 1.292.508-.206 2.116-1.828 3.125-4.232 1.406-3.345 2.635-7.762 2.882-9.326l.634-1.352-3.907 1.474zm7.451-22.636l-.268-1.617c-1.209-6.809-3.999-15.517-9.913-24.536C100.188 12.009 77.652 5.548 77.652 5.548l-2.31 2.464-.781-1.282-1.952-.742v1.656l1.758 1.477-1.17.552-4.493.367-10.154 5.525.975 4.415-1.172.375-.584.915 3.318 4.972.197 1.659-2.734.552v3.313l-1.562.365.197 2.579-13.278 9.21.392 5.15c.976 1.289 8.591 9.024 8.591 9.024s8.784.365 10.737-.737c1.953-1.107.586 1.102 1.173 1.655.583.553.78 4.417 1.364 4.789.586.366 0 2.572.78 3.313.782.734.782 9.575.782 9.575s4.686 7.912 4.686 9.94c0 2.023-.194 1.84 3.517 1.658 3.711-.186 4.489-1.658 5.27-2.209.783-.555.783-1.84 1.564-2.948.782-1.105 2.143-5.338 3.904-6.81 1.757-1.477 6.44-2.583 6.832-5.157.39-2.577 2.148-4.603 2.148-4.603l8.44-8.934-.238 1.202-.194 4.6 2.536-.918-.194-4.973-.912-.963.13-.139s-.585-1.104-1.365-1.104c-.781 0-5.469 1.104-6.249.919-.781-.185-4.102-9.021-4.688-9.387-.586-.37-4.293-6.446-4.293-6.446s8.589 10.313 9.953 14.361c.796 2.354 3.775.16 6.2-2.299l.638 1.562 1.564-.372-.197-1.836h1.756v2.761l-.584 1.472-.201 2.394 1.563 1.475.783-1.286 2.535-2.398 2.931-1.471.781 1.471.392 2.029-.785 2.205-1.56 1.289-.781 3.317v1.652l-1.756-1.105-.195-3.494-2.537.185-1.17 3.125 1.757 2.583 4.096.55 3.323-3.133.389-6.069 1.475-1.95c.963 2.47 1.648 5.061 1.648 7.472 0 2.644 1.212-1.831.183-9.892zM72.218 35.448l-10.542-.372 4.488-3.68h2.342l3.712 2.576zm12.887-1.289v1.657h-4.491l.393 1.104-2.737.375-.194.917-1.953-.368-3.514-.739.588-.919.583-1.109 1.952-2.021.782 1.474 2.931-.185 1.563-1.659 6.049 1.104zm.389-2.394l-2.343.365-.389-1.656 2.924-.367.392-1.654 2.152 2.211zm11.325 57.254l-1.369 1.105.197 2.764h1.756v-2.389l1.564-2.03v-4.23l-.979-.191zm-13.081-5.518s-1.365.361.194.918c1.562.554 7.811-9.019 7.811-9.019l-5.273 3.31zm-10.625 35.285l-1.17-1.114-2.343-.371-.389 1.115-3.122-.371-.196-1.481h-2.341l-2.539 1.481h-4.488l-.388-1.112-7.221-.745-1.172 1.113-2.926-.737-.389-2.599-1.365-.189-1.562 2.788-5.269-.188c.941.446 8.81 5.142 20.877 6.124 16.001 1.292 23.61-2.6 23.61-2.6l-.585-.557z"/>
  <path fill="none" d="M11.207 40.622c-.008-.277-.029-.549-.029-.827 0-.874.06-1.737.144-2.596-1.561 2.141-2.785 6.108-2.632 7.122l.401 2.703c-1.209.961-1.823 3.491-.604 3.851a90.015 90.015 0 0 1 6.067 2.024c-1.836-3.439-2.976-7.132-3.286-10.98a43.963 43.963 0 0 1-.765-.866z"/>
  <path fill="#fff" d="M62.16 106.791c-27.053 0-49.55-16.146-51.611-41.402a45.795 45.795 0 0 0-.171 3.756c0 27.014 23.391 49.035 51.782 49.035 28.591 0 51.785-22.021 51.785-49.035 0-1.265-.067-2.514-.168-3.756-2.047 25.256-24.374 41.402-51.617 41.402z" opacity=".5"/>
  <path fill="#fff" d="M93.582 93.668c0-13.518-13.857-24.474-30.953-24.474S31.676 80.15 31.676 93.668s13.858 24.474 30.953 24.474 30.953-10.956 30.953-24.474z" opacity=".2"/>
  <path fill="url(#e)" d="M110.076 36.557c0 18.085-21.129 32.746-47.194 32.746-26.063 0-47.192-14.66-47.192-32.746 0-18.085 21.128-32.746 47.192-32.746 26.065.001 47.194 14.661 47.194 32.746z"/>
</svg>