<?xml version="1.0" encoding="UTF-8"?><svg id="Layer_1" xmlns="http://www.w3.org/2000/svg" xmlns:xlink="http://www.w3.org/1999/xlink" viewBox="0 0 1575.97 449"><defs><style>.cls-1{fill:url(#linear-gradient);}.cls-2{fill:#fff;}.cls-3{fill:#ff5e5b;}</style><linearGradient id="linear-gradient" x1="167.04" y1="1959.12" x2="247.96" y2="1710.76" gradientTransform="translate(4.17 1935.85) scale(1 -1)" gradientUnits="userSpaceOnUse"><stop offset="0" stop-color="#ff4ea3"/><stop offset="1" stop-color="#ff5e5b"/></linearGradient></defs><g id="Layer_1-2"><g id="Layer_1-3"><g><path class="cls-2" d="M495.75,246.6c-22.56,2.51-41.31,1.2-41.31,1.2V106.52h28.79c18.75,0,36.3,7.52,48.74,22.56,8.73,10.03,15.04,23.77,15.04,43.82,0,46.23-23.77,64.98-51.25,73.71Zm121.34-98.77c-8.72-43.82-31.28-71.3-56.25-87.54-24.97-17.55-55.05-26.27-85.03-26.28l-430.38-.02c-15.04,0-21.26,15.04-21.26,22.56v5.01s-1.22,190.12,1.19,292.7c3.71,60.06,63.77,60.07,63.77,60.07,0,0,196.34,.01,291.4-1.19,5.01,0,8.73,0,13.74-1.21,53.75-13.74,58.77-63.77,58.77-91.34,107.69,4.83,184-71.47,164.05-172.75Z"/><g><path d="M632.65,144.88v-.02l-.02-.09-.02-.11c-10.69-53.58-40.09-82.59-62.89-97.49-26.71-18.7-60.06-28.99-93.91-29l-430.38-.02c-24.21,0-37.1,22.3-37.1,38.4v4.91c-.01,1.9-1.19,191.46,1.2,293.17,0,.2,.01,.41,.03,.61,2.39,38.66,24.25,57.14,42.17,65.83,18.52,8.98,36.64,9.1,37.41,9.1h.07c8.05,0,198.2-.01,291.41-1.19,5.41,0,10.53,0,17.34-1.64l.24-.06c28.36-7.25,48.56-23.84,60.06-49.32,5.43-12.03,8.71-25.61,10-41.39,26.02-.66,50.48-5.8,72.77-15.3,23.49-10.01,43.37-24.35,59.09-42.61,30.88-35.88,42.43-83.39,32.54-133.77ZM41.19,353.58c-2.33-99.93-1.23-284.18-1.18-292.01v-4.92c.07-.45,1.19-6.82,5.42-6.82l430.38,.02c27.49,0,54.46,8.31,75.93,23.4,.16,.11,.32,.22,.47,.32,25.88,16.84,42.49,42.86,49.35,77.34,8.01,40.68-1.03,78.71-25.45,107.09-27.52,31.98-72.1,49.03-122.35,46.77-4.3-.2-8.55,1.4-11.66,4.37-3.11,2.97-4.89,7.15-4.89,11.45,0,43.05-15.3,67.9-46.7,75.96-3.12,.74-5.37,.75-9.85,.75h-.31c-82.7,1.05-242.46,1.18-289.46,1.19h-1.71c-.12,0-11.88-.22-23.62-5.92-14.94-7.25-23.14-20.37-24.36-38.99Z"/><path d="M453.35,263.61c.56,.04,5.69,.38,13.72,.38,10.38,0,20.62-.55,30.43-1.64,1.03-.11,2.06-.33,3.05-.65,41.33-13.12,62.29-43,62.29-88.8,0-21.48-6.33-39.68-18.77-54.03-15.09-18.18-36.7-28.19-60.84-28.19h-28.78c-8.73,0-15.84,7.1-15.84,15.84V247.81c0,8.29,6.47,15.23,14.74,15.8Zm16.94-31.33V122.36h12.95c14.59,0,27.56,5.97,36.54,16.83l.25,.29c7.5,8.62,11.15,19.55,11.15,33.42,0,31.62-11.59,49.04-38.74,58.14-7.07,.73-14.5,1.15-22.14,1.25Z"/></g></g><path class="cls-3" d="M235.54,334.13c5.01,2.51,7.52,0,7.52,0,0,0,68.79-62.57,100.08-98.77,27.48-32.49,28.78-86.33-17.54-106.3-47.53-20.05-86.34,23.76-86.34,23.76-33.79-37.51-85.03-35-108.8-10.03-23.77,24.97-15.04,67.58,2.5,92.55,16.24,22.56,88.84,87.55,100.07,97.57,0-1.3,1.3,0,2.51,1.21Z"/><path class="cls-1" d="M237.86,335.99c2.78,.56,5.2-1.86,5.2-1.86,0,0,68.79-62.57,100.08-98.77,27.48-32.49,28.78-86.33-17.54-106.3-47.53-20.05-86.34,23.76-86.34,23.76-33.79-37.51-85.03-35-108.8-10.03-23.77,24.97-15.04,67.58,2.5,92.55,15.32,21.26,92.09,90.33,101.65,98.97,.93,.84,2.04,1.49,3.25,1.67Z"/></g></g><g><path d="M920.61,328.1c1.04,3.01,1.57,5.83,1.57,8.44,0,7.06-2.69,12.95-8.05,17.66-5.37,4.71-11.58,7.06-18.64,7.06-3.4,0-6.67-.78-9.81-2.35-3.14-1.57-5.76-3.79-7.85-6.67l-85.16-112.24-37.28,35.71v61.61c0,7.06-2.29,12.82-6.87,17.27-4.58,4.45-10.53,6.67-17.86,6.67s-12.89-2.29-17.46-6.87c-4.58-4.57-6.87-10.26-6.87-17.07V110.49c0-6.8,2.36-12.49,7.06-17.07,4.71-4.57,10.72-6.87,18.05-6.87s12.82,2.23,17.27,6.67c4.45,4.45,6.67,10.2,6.67,17.27v106.74l125.58-123.62c6.02-6.02,12.42-9.03,19.23-9.03,6.02,0,11.12,2.49,15.31,7.46,4.18,4.97,6.28,10.2,6.28,15.7s-2.35,10.6-7.06,15.31l-85.55,81.63,87.52,115.77c1.57,2.1,2.88,4.65,3.93,7.65Z"/><path d="M1138.81,312.8c-9.42,16.62-22.31,29.5-38.66,38.66-16.35,9.16-34.34,13.74-53.96,13.74s-37.94-4.57-54.16-13.74c-16.22-9.16-29.04-22.04-38.46-38.66-9.42-16.61-14.13-35.38-14.13-56.32s4.71-39.7,14.13-56.32c9.42-16.61,22.24-29.56,38.46-38.85,16.22-9.28,34.27-13.93,54.16-13.93s37.61,4.65,53.96,13.93c16.35,9.29,29.24,22.24,38.66,38.85,9.42,16.62,14.13,35.39,14.13,56.32s-4.71,39.7-14.13,56.32Zm-41.01-90.66c-5.37-10.07-12.56-17.86-21.58-23.35-9.03-5.49-19.03-8.24-30.02-8.24s-21,2.75-30.02,8.24-16.23,13.28-21.58,23.35c-5.37,10.07-8.04,21.52-8.04,34.34s2.68,24.2,8.04,34.14c5.36,9.95,12.56,17.66,21.58,23.15s19.03,8.24,30.02,8.24,21-2.75,30.02-8.24c9.03-5.49,16.22-13.21,21.58-23.15,5.36-9.94,8.04-21.32,8.04-34.14s-2.69-24.26-8.04-34.34Z"/><path d="M1193.16,257.66c-4.58-4.45-6.87-10.07-6.87-16.88s2.29-12.03,6.87-16.48c4.57-4.45,10.27-6.67,17.07-6.67h68.28c6.8,0,12.49,2.29,17.07,6.87,4.57,4.58,6.87,10.27,6.87,17.07s-2.29,11.97-6.87,16.29c-4.58,4.32-10.27,6.48-17.07,6.48h-68.28c-6.81,0-12.5-2.22-17.07-6.67Z"/><path d="M1429.61,120.1c-3.67,5.1-5.49,10.66-5.49,16.68v18.44h35.71c6.28,0,11.51,2.03,15.7,6.08,4.18,4.06,6.28,9.22,6.28,15.5s-2.1,11.45-6.28,15.5c-4.19,4.06-9.42,6.08-15.7,6.08h-35.71v138.93c0,6.81-2.23,12.5-6.67,17.07-4.45,4.58-10.07,6.87-16.88,6.87s-12.43-2.29-16.88-6.87c-4.45-4.57-6.67-10.26-6.67-17.07V198.4h-21.19c-6.28,0-11.52-2.02-15.7-6.08-4.19-4.05-6.28-9.22-6.28-15.5s2.09-11.44,6.28-15.5c4.18-4.05,9.42-6.08,15.7-6.08h21.19v-18.05c0-19.62,6.73-35.58,20.21-47.88,13.47-12.29,32.9-18.44,58.28-18.44,9.68,0,18.11,1.96,25.31,5.89,7.19,3.92,10.79,9.95,10.79,18.05,0,6.28-1.83,11.38-5.49,15.31-3.67,3.92-8.11,5.89-13.34,5.89-1.31,0-2.69-.13-4.12-.39-1.44-.26-2.94-.52-4.51-.78-6.28-1.57-11.52-2.35-15.7-2.35-8.9,0-15.18,2.55-18.84,7.65Zm83.2,1.37c-3.67-2.88-5.49-7.98-5.49-15.31v-7.46c0-7.32,1.96-12.42,5.89-15.31,3.93-2.88,10.2-4.32,18.84-4.32,9.16,0,15.56,1.44,19.23,4.32,3.66,2.88,5.49,7.98,5.49,15.31v7.46c0,7.59-1.9,12.75-5.69,15.5-3.8,2.75-10.27,4.12-19.43,4.12s-15.18-1.44-18.84-4.32Zm36.11,232.92c-4.45,4.58-10.08,6.87-16.88,6.87s-12.43-2.29-16.88-6.87c-4.45-4.57-6.67-10.26-6.67-17.07V175.24c0-6.8,2.22-12.49,6.67-17.07,4.45-4.57,10.07-6.87,16.88-6.87s12.42,2.29,16.88,6.87c4.45,4.58,6.67,10.27,6.67,17.07v162.08c0,6.81-2.23,12.5-6.67,17.07Z"/></g></svg>