<?xml version="1.0" standalone="no"?>
<!DOCTYPE svg PUBLIC "-//W3C//DTD SVG 20010904//EN"
 "http://www.w3.org/TR/2001/REC-SVG-20010904/DTD/svg10.dtd">
<svg version="1.0" xmlns="http://www.w3.org/2000/svg"
 width="512.000000pt" height="512.000000pt" viewBox="0 0 512.000000 512.000000"
 preserveAspectRatio="xMidYMid meet">
<metadata>
Created by potrace 1.11, written by Peter Selinger 2001-2013
</metadata>
<g transform="translate(0.000000,512.000000) scale(0.100000,-0.100000)"
fill="#000000" stroke="none">
<path d="M2340 5050 c-416 -43 -786 -172 -1116 -389 -166 -109 -258 -184 -414
-340 -296 -296 -524 -676 -634 -1056 -15 -49 -31 -103 -36 -120 -17 -53 -59
-297 -67 -390 -10 -111 -10 -414 -1 -515 6 -62 33 -230 52 -327 38 -187 158
-498 265 -685 11 -21 30 -54 41 -74 77 -135 244 -348 379 -485 246 -246 536
-438 855 -564 130 -52 179 -56 230 -19 42 31 47 64 45 308 l-2 228 -42 -6
c-23 -4 -55 -9 -71 -13 -64 -12 -249 -6 -319 12 -201 51 -328 163 -415 365
-75 172 -165 292 -275 367 -47 32 -95 80 -95 97 1 54 119 69 226 29 111 -43
180 -106 286 -261 101 -148 173 -205 303 -240 110 -29 247 -17 374 34 34 13
37 19 48 72 17 87 48 162 97 229 l44 60 -56 7 c-293 32 -562 141 -738 299
-163 147 -288 406 -319 662 -2 22 -7 60 -11 85 -12 91 -6 333 11 415 34 169
101 315 203 442 l33 42 -16 53 c-40 133 -41 340 -2 483 42 151 38 143 73 147
122 14 360 -75 579 -216 l80 -51 50 13 c102 26 150 35 310 56 98 13 450 14
525 2 19 -3 58 -8 85 -11 28 -4 66 -10 85 -15 19 -5 49 -12 65 -15 17 -3 52
-11 80 -18 l50 -13 80 52 c166 108 344 186 475 210 47 8 122 6 130 -3 11 -12
47 -128 61 -198 20 -96 15 -305 -10 -398 l-20 -78 53 -72 c140 -191 197 -371
198 -627 0 -74 -3 -160 -7 -190 -3 -30 -8 -71 -11 -90 -27 -234 -128 -463
-273 -622 -125 -137 -378 -268 -606 -313 -54 -10 -139 -25 -185 -31 -54 -7
-58 -10 -38 -27 24 -19 72 -96 97 -155 47 -113 53 -177 52 -620 -1 -463 -1
-466 66 -497 50 -24 129 -12 213 32 14 7 30 13 35 13 20 0 252 118 346 175
600 368 1029 988 1168 1690 19 98 23 121 40 275 9 78 7 486 -3 530 -3 13 -8
42 -11 65 -3 22 -8 51 -10 65 -3 14 -7 41 -10 60 -14 80 -58 250 -91 349 -126
376 -330 706 -609 987 -356 360 -737 572 -1240 690 -11 2 -60 11 -110 19 -49
7 -106 17 -125 20 -56 10 -418 13 -500 5z"/>
</g>
</svg>
