<?xml version="1.0" encoding="UTF-8" standalone="no"?>
<!-- Created with Inkscape (http://www.inkscape.org/) -->
<svg
   xmlns:svg="http://www.w3.org/2000/svg"
   xmlns="http://www.w3.org/2000/svg"
   version="1.0"
   width="135"
   height="405"
   id="svg2314">
  <defs
     id="defs2316" />
  <g
     transform="translate(-41.139317,-37.923176)"
     id="layer1">
    <path
       d="M 110.92295,86.423515 L 98.126069,86.423515 L 98.126069,72.853203 C 94.610396,72.712551 91.024463,72.396145 87.368257,71.903984 C 83.71197,71.411771 80.032286,70.86099 76.329194,70.25164 L 75.626069,67.72039 C 77.641663,66.78287 79.868224,65.985995 82.305757,65.329765 C 84.743219,64.673497 87.133841,64.110997 89.477632,63.642265 C 91.821337,63.173498 93.965866,62.833655 95.911225,62.622734 C 97.856487,62.41178 99.344769,62.306311 100.37607,62.306328 L 110.92295,62.306328 C 112.79788,62.306311 114.3096,62.083655 115.4581,61.638359 C 116.60647,61.193031 117.18069,60.431313 117.18076,59.353203 C 117.18069,58.60319 117.12209,57.935222 117.00498,57.349297 C 116.88772,56.763348 116.71194,56.200849 116.47763,55.661797 C 116.24319,55.122725 115.96194,54.571944 115.63388,54.009453 C 115.30569,53.446945 114.90725,52.814133 114.43857,52.111015 C 113.64163,50.939135 112.95022,50.036793 112.36435,49.403984 C 111.77835,48.771169 111.48538,48.290701 111.48545,47.962578 C 111.95413,47.446951 112.48147,46.989921 113.06748,46.591484 C 113.65335,46.193046 114.15725,45.993828 114.5792,45.993828 C 115.09475,46.509452 115.751,47.095389 116.54795,47.75164 C 117.34475,48.407888 118.11819,49.064137 118.86826,49.72039 C 121.82131,52.298509 124.09474,54.560225 125.68857,56.505547 C 127.28224,58.450847 128.31349,60.173501 128.78232,61.673515 L 147.13388,58.790703 C 147.60253,59.25944 148.00097,60.103189 148.3292,61.321953 C 148.65722,62.540686 148.82128,63.90006 148.82138,65.400078 C 148.82128,67.040682 148.96191,68.435212 149.24326,69.583672 C 149.52441,70.732084 150.01659,71.681302 150.71982,72.431328 C 151.42284,73.181301 152.34862,73.778956 153.49716,74.224297 C 154.64549,74.66958 156.06346,75.009424 157.75107,75.243828 C 156.53221,76.181298 155.29002,76.790672 154.02451,77.071953 C 152.75878,77.353171 151.49315,77.493796 150.22763,77.493828 C 146.80566,77.493796 144.04004,76.591453 141.93076,74.786797 C 139.82129,72.982082 138.7666,70.157866 138.7667,66.31414 L 138.83701,63.571953 L 128.85263,64.978203 C 128.3838,66.665682 127.15333,67.966462 125.16123,68.880547 C 123.16896,69.794585 120.69631,70.251616 117.74326,70.25164 L 110.92295,70.25164 L 110.92295,86.423515 z M 110.92295,120.52507 L 98.126069,120.52507 L 98.126069,106.6032 L 88.493257,106.6032 C 82.821346,106.60317 78.426819,105.6188 75.309663,103.65007 C 72.19245,101.6813 70.633858,98.564123 70.633882,94.298515 C 70.633858,90.032882 72.19245,86.821947 75.309663,84.665703 C 78.426819,82.509452 82.821346,81.431328 88.493257,81.431328 L 98.126069,81.431328 L 110.92295,81.431328 L 110.92295,120.52507 z M 98.126069,102.80632 L 98.126069,85.228203 L 88.493257,85.228203 C 85.821343,85.228199 83.817439,86.048511 82.481538,87.68914 C 81.145566,89.329757 80.477598,91.579755 80.477632,94.43914 C 80.477598,97.01725 81.145566,99.05631 82.481538,100.55632 C 83.817439,102.0563 85.821343,102.8063 88.493257,102.80632 L 98.126069,102.80632 z M 110.92295,141.33757 L 98.126069,141.33757 L 98.126069,126.36101 C 97.001019,126.26725 95.430708,126.12663 93.415132,125.93914 C 91.399462,125.75163 89.301808,125.54069 87.122163,125.30632 C 84.942437,125.07194 82.868221,124.79069 80.899507,124.46257 C 78.930725,124.13444 77.383851,123.80632 76.258882,123.4782 L 75.485444,121.01726 C 79.001037,119.61101 82.680721,118.47429 86.524507,117.60711 C 90.368213,116.73992 94.235397,116.11882 98.126069,115.74382 L 110.92295,115.74382 L 110.92295,141.33757 z M 110.92295,173.82195 L 98.126069,173.82195 L 98.126069,168.90007 C 98.360393,168.38442 98.864299,167.9391 99.637789,167.56414 C 100.41117,167.18911 101.25492,166.86098 102.16904,166.57976 C 103.08305,166.29848 103.96195,166.07583 104.80576,165.91179 C 105.64945,165.7477 106.25882,165.61879 106.63388,165.52507 C 108.5557,165.10317 110.62991,164.64614 112.85654,164.15398 C 115.08303,163.66177 117.15725,163.04067 119.0792,162.2907 C 121.001,161.54067 122.59474,160.57974 123.86045,159.40789 C 125.12599,158.23599 125.7588,156.75943 125.75888,154.9782 C 125.7588,152.91568 125.20802,151.14615 124.10654,149.66961 C 123.0049,148.19303 121.5049,146.97428 119.60654,146.01336 C 117.70803,145.05241 115.48147,144.33757 112.92685,143.86882 C 110.3721,143.40007 107.66507,143.16569 104.80576,143.1657 C 102.46195,143.16569 100.24711,143.4821 98.161225,144.11492 C 96.075239,144.74772 94.059616,145.59147 92.11435,146.64617 C 90.168995,147.70084 88.282278,148.93131 86.454194,150.33757 C 84.626031,151.74381 82.797908,153.19693 80.969819,154.69695 L 70.001069,151.46257 L 70.001069,150.33757 C 72.110419,148.60319 74.149479,147.09147 76.118257,145.80242 C 78.086976,144.51335 80.149473,143.43522 82.305757,142.56804 C 84.461969,141.70085 86.829154,141.02116 89.407319,140.52898 C 91.985399,140.03679 94.891646,139.67351 98.126069,139.43914 L 98.126069,136.55632 L 110.92295,136.55632 L 110.92295,139.50945 C 115.46975,139.7907 119.39553,140.37663 122.70029,141.26726 C 126.0049,142.15788 128.71193,143.28288 130.82138,144.64226 C 132.93067,146.00163 134.48926,147.56022 135.49716,149.31804 C 136.50489,151.07584 137.00879,152.98599 137.00888,155.04851 C 137.00879,156.87662 136.50489,158.48208 135.49716,159.86492 C 134.48926,161.24771 133.2002,162.45474 131.62998,163.48601 C 130.05958,164.51723 128.29005,165.3727 126.32138,166.05242 C 124.35256,166.73207 122.40724,167.28286 120.48545,167.70476 C 118.5635,168.1266 116.74709,168.41957 115.03623,168.58367 C 113.32522,168.7477 111.95413,168.82973 110.92295,168.82976 L 110.92295,173.82195 z M 110.92295,216.00945 L 98.126069,216.00945 L 98.126069,203.14226 C 97.001019,203.04848 95.430708,202.90785 93.415132,202.72039 C 91.399462,202.53285 89.301808,202.32192 87.122163,202.08757 C 84.942437,201.85317 82.868221,201.57192 80.899507,201.24382 C 78.930725,200.91567 77.383851,200.58754 76.258882,200.25945 L 75.485444,197.79851 C 79.001037,196.39223 82.680721,195.25552 86.524507,194.38836 C 90.368213,193.52114 94.235397,192.90005 98.126069,192.52507 L 98.126069,180.92351 C 97.001019,180.82975 95.430708,180.68912 93.415132,180.50164 C 91.399462,180.31412 89.301808,180.10319 87.122163,179.86882 C 84.942437,179.63444 82.868221,179.35319 80.899507,179.02507 C 78.930725,178.69694 77.383851,178.36881 76.258882,178.0407 L 75.485444,175.57976 C 79.001037,174.17351 82.680721,173.03679 86.524507,172.16961 C 90.368213,171.30242 94.235397,170.68132 98.126069,170.30632 L 98.126069,168.90007 L 110.92295,168.90007 L 110.92295,216.00945 z M 59.665132,185.9157 C 59.196369,185.91568 58.774495,185.77506 58.399507,185.49382 C 58.024496,185.21256 57.637777,184.84928 57.23935,184.40398 C 56.840903,183.95865 56.419028,183.45475 55.973725,182.89226 C 55.528404,182.32975 55.001061,181.76725 54.391694,181.20476 C 53.829187,180.68912 53.290125,180.24381 52.774507,179.86882 C 52.258876,179.49381 51.801846,179.15397 51.403413,178.84929 C 51.004971,178.5446 50.688565,178.25163 50.454194,177.97039 C 50.219816,177.68913 50.102628,177.38444 50.102632,177.05632 C 50.102628,176.25944 50.301847,175.59147 50.700288,175.05242 C 51.098721,174.51335 51.719814,174.24382 52.563569,174.24382 C 53.641687,174.24382 54.614343,174.32585 55.481538,174.48992 C 56.348716,174.65397 57.321371,174.92351 58.399507,175.29851 C 59.055745,175.53288 59.758869,175.83757 60.508882,176.21257 C 61.258867,176.58757 61.950273,177.02116 62.5831,177.51336 C 63.215897,178.00553 63.731521,178.5446 64.129975,179.13054 C 64.528395,179.71647 64.727614,180.361 64.727632,181.06414 C 64.727614,181.81412 64.305739,182.65787 63.462007,183.59539 C 62.055742,185.14225 60.790118,185.91568 59.665132,185.9157 L 59.665132,185.9157 z M 59.665132,204.4782 C 59.196369,204.47816 58.774495,204.33754 58.399507,204.05632 C 58.024496,203.77504 57.637777,203.41176 57.23935,202.96648 C 56.840903,202.52113 56.419028,202.01723 55.973725,201.45476 C 55.528404,200.89223 55.001061,200.32973 54.391694,199.76726 C 53.829187,199.25161 53.290125,198.80629 52.774507,198.43132 C 52.258876,198.05629 51.801846,197.71645 51.403413,197.41179 C 51.004971,197.10708 50.688565,196.81411 50.454194,196.53289 C 50.219816,196.25161 50.102628,195.94692 50.102632,195.61882 C 50.102628,194.82192 50.301847,194.15395 50.700288,193.61492 C 51.098721,193.07583 51.719814,192.8063 52.563569,192.80632 C 53.641687,192.8063 54.614343,192.88833 55.481538,193.05242 C 56.348716,193.21646 57.321371,193.48599 58.399507,193.86101 C 59.055745,194.09536 59.758869,194.40005 60.508882,194.77507 C 61.258867,195.15005 61.950273,195.58364 62.5831,196.07586 C 63.215897,196.56801 63.731521,197.10708 64.129975,197.69304 C 64.528395,198.27895 64.727614,198.92348 64.727632,199.62664 C 64.727614,200.3766 64.305739,201.22035 63.462007,202.15789 C 62.055742,203.70473 60.790118,204.47816 59.665132,204.4782 L 59.665132,204.4782 z M 110.92295,250.18132 L 98.126069,250.18132 L 98.126069,236.25945 L 88.493257,236.25945 C 82.821346,236.25942 78.426819,235.27505 75.309663,233.30632 C 72.19245,231.33755 70.633858,228.22037 70.633882,223.95476 C 70.633858,219.68913 72.19245,216.47819 75.309663,214.32195 C 78.426819,212.1657 82.821346,211.08757 88.493257,211.08757 L 98.126069,211.08757 L 110.92295,211.08757 L 110.92295,250.18132 z M 98.126069,232.46257 L 98.126069,214.88445 L 88.493257,214.88445 C 85.821343,214.88445 83.817439,215.70476 82.481538,217.34539 C 81.145566,218.986 80.477598,221.236 80.477632,224.09539 C 80.477598,226.6735 81.145566,228.71256 82.481538,230.21257 C 83.817439,231.71255 85.821343,232.46255 88.493257,232.46257 L 98.126069,232.46257 z M 137.29013,281.75164 C 136.07129,281.61098 134.68848,281.20082 133.1417,280.52117 C 131.59474,279.84145 129.86036,279.04457 127.93857,278.13054 C 126.01662,277.21645 123.91896,276.24379 121.6456,275.21257 C 119.37209,274.1813 116.93459,273.23208 114.3331,272.36492 C 111.73147,271.4977 108.95413,270.77114 106.00107,270.18523 C 103.04789,269.59927 99.930699,269.3063 96.649507,269.30632 C 93.977585,269.3063 91.247119,269.42349 88.4581,269.65789 C 85.668999,269.89224 82.985408,270.18521 80.407319,270.53679 C 77.829163,270.88833 75.461978,271.26333 73.305757,271.66179 C 71.149482,272.0602 69.368234,272.44692 67.962007,272.82195 C 68.47761,270.71255 69.379953,268.72036 70.669038,266.84539 C 71.958075,264.97037 73.469793,263.22427 75.204194,261.60711 C 76.938539,259.9899 78.825256,258.52506 80.86435,257.21257 C 82.903377,255.90006 84.954156,254.76335 87.016694,253.80242 C 89.079152,252.84147 91.071338,252.06804 92.993257,251.48211 C 94.915084,250.89616 96.626019,250.53288 98.126069,250.39226 L 98.126069,245.40007 L 110.92295,245.40007 L 110.92295,255.17351 L 103.18857,255.17351 C 101.40727,255.1735 99.438519,255.50163 97.282319,256.15789 C 95.126021,256.81412 93.040086,257.611 91.024507,258.54851 C 89.00884,259.486 87.180716,260.48209 85.540132,261.53679 C 83.89947,262.59146 82.704158,263.51724 81.954194,264.31414 C 82.704158,264.31412 83.653376,264.29068 84.80185,264.24382 C 85.950249,264.19693 87.192435,264.16177 88.528413,264.13836 C 89.864307,264.1149 91.2354,264.07974 92.641694,264.03289 C 94.047897,263.98599 95.383833,263.96256 96.649507,263.96257 C 99.743199,263.96256 102.84867,264.20865 105.96591,264.70086 C 109.08304,265.19302 112.0596,265.83755 114.8956,266.63445 C 117.73147,267.4313 120.35647,268.31021 122.7706,269.27117 C 125.18459,270.23208 127.28224,271.1813 129.06357,272.11882 L 129.06357,264.73601 C 129.06349,256.95475 136.18848,252.50163 150.43857,251.37664 L 150.43857,252.99382 C 145.1416,254.35319 142.28222,258.87662 141.86045,266.56414 L 141.86045,275.21257 C 141.86035,277.41567 141.54394,279.11488 140.91123,280.31023 C 140.27832,281.50551 139.07129,281.98597 137.29013,281.75164 L 137.29013,281.75164 z M 110.92295,371.11882 L 98.126069,371.11882 L 98.126069,357.82976 C 97.001019,357.73597 95.547896,357.58363 93.766694,357.37273 C 91.985399,357.16175 90.098682,356.85707 88.106538,356.45867 C 86.114311,356.06019 84.075251,355.57972 81.98935,355.01726 C 79.90338,354.45472 77.993226,353.7516 76.258882,352.90789 L 75.485444,350.44695 C 76.28229,350.02504 77.126039,349.66176 78.016694,349.35711 C 78.907287,349.05239 79.926817,348.79457 81.075288,348.58367 C 82.22369,348.3727 83.536189,348.23207 85.012788,348.16179 C 86.489311,348.09145 88.211965,348.05629 90.180757,348.05632 C 91.305712,348.05629 92.489305,348.16176 93.731538,348.37273 C 94.973677,348.58364 96.274457,348.81801 97.633882,349.07586 C 98.993209,349.33364 100.44633,349.56801 101.99326,349.77898 C 103.54008,349.98989 105.1807,350.11879 106.91513,350.1657 C 107.8057,350.16567 108.88382,350.10707 110.14951,349.98992 C 111.41507,349.8727 112.751,349.65004 114.15732,349.32195 C 115.5635,348.99379 116.95803,348.54848 118.34091,347.98601 C 119.72365,347.42348 120.96584,346.72036 122.06748,345.87664 C 123.16896,345.03286 124.05959,344.03677 124.73935,342.88836 C 125.41896,341.73989 125.7588,340.41568 125.75888,338.9157 C 125.7588,336.57193 125.03224,334.54459 123.5792,332.83367 C 122.12599,331.12272 120.33303,329.71647 118.20029,328.61492 C 116.06741,327.51335 113.77053,326.70475 111.30966,326.18914 C 108.84866,325.6735 106.63382,325.41569 104.66513,325.4157 C 100.96195,325.41569 97.08305,326.24772 93.028413,327.91179 C 88.973683,329.57584 85.001031,332.18912 81.110444,335.75164 L 69.860444,332.44695 L 69.860444,331.18132 C 74.126042,327.90006 78.661194,325.2985 83.465913,323.37664 C 88.270559,321.45476 93.157273,320.49382 98.126069,320.49382 L 110.92295,320.49382 C 114.71975,320.82195 118.22366,321.51335 121.43466,322.56804 C 124.64552,323.62272 127.39943,324.95866 129.69638,326.57586 C 131.99317,328.19303 133.78614,330.06803 135.07529,332.20086 C 136.36426,334.33365 137.00879,336.64224 137.00888,339.12664 C 137.00879,341.70474 136.35254,343.94302 135.04013,345.84148 C 133.72755,347.73989 131.91114,349.32192 129.59091,350.58757 C 127.27052,351.85316 124.51662,352.8141 121.3292,353.47039 C 118.14162,354.1266 114.67288,354.52504 110.92295,354.6657 L 110.92295,371.11882 z M 110.92295,391.93132 L 98.126069,391.93132 L 98.126069,376.95476 C 97.001019,376.861 95.430708,376.72038 93.415132,376.53289 C 91.399462,376.34538 89.301808,376.13444 87.122163,375.90007 C 84.942437,375.66569 82.868221,375.38444 80.899507,375.05632 C 78.930725,374.72819 77.383851,374.40007 76.258882,374.07195 L 75.485444,371.61101 C 79.001037,370.20476 82.680721,369.06804 86.524507,368.20086 C 90.368213,367.33367 94.235397,366.71257 98.126069,366.33757 L 110.92295,366.33757 L 110.92295,378.50164 L 124.42295,380.68132 L 124.35263,377.93914 C 124.35256,374.09538 125.40724,371.27116 127.5167,369.46648 C 129.62599,367.66179 132.39161,366.75945 135.81357,366.75945 C 137.07911,366.75945 138.34473,366.90007 139.61045,367.18132 C 140.87598,367.46257 142.11816,368.07195 143.33701,369.00945 C 141.64941,369.24382 140.23145,369.58366 139.0831,370.02898 C 137.93457,370.47429 137.00879,371.07194 136.30576,371.82195 C 135.60254,372.57194 135.11036,373.52116 134.8292,374.66961 C 134.54786,375.81803 134.40723,377.21256 134.40732,378.8532 C 134.40723,380.35318 134.24317,381.71256 133.91513,382.93132 C 133.58692,384.15006 133.18848,384.99381 132.71982,385.46257 L 110.92295,381.80632 L 110.92295,391.93132 z M 142.49326,435.87664 C 137.52442,432.64222 132.56739,429.52503 127.62216,426.52507 C 122.67678,423.52504 117.60256,420.97035 112.39951,418.86101 C 105.69632,416.09536 98.758829,413.83364 91.587007,412.07586 C 84.415094,410.31802 76.868227,409.13443 68.946382,408.52507 C 70.305733,405.90006 72.169013,403.45084 74.536225,401.17742 C 76.903383,398.90397 79.458068,396.91178 82.200288,395.20086 C 84.942437,393.48991 87.719778,392.09538 90.532319,391.01726 C 93.344773,389.93913 95.87602,389.30632 98.126069,389.11882 L 98.126069,387.15007 L 110.92295,387.15007 L 110.92295,393.90007 L 103.18857,393.90007 C 101.40727,393.90007 99.403359,394.21647 97.17685,394.84929 C 94.95024,395.4821 92.782273,396.26725 90.672944,397.20476 C 88.563528,398.14225 86.641654,399.12662 84.907319,400.15789 C 83.172908,401.18912 81.930722,402.10318 81.180757,402.90007 C 82.211971,402.61881 83.99322,402.58365 86.524507,402.79461 C 89.055715,403.00553 91.961962,403.4274 95.243257,404.06023 C 98.524455,404.69303 101.9932,405.4899 105.64951,406.45086 C 109.3057,407.41177 112.77444,408.52505 116.05576,409.7907 C 120.04006,411.33755 123.83693,412.81411 127.44638,414.22039 C 131.05567,415.62661 134.3838,416.86879 137.43076,417.94695 C 140.47754,419.02504 143.23144,419.89223 145.69248,420.54851 C 148.15331,421.20473 150.25097,421.53285 151.98545,421.53289 C 152.73534,421.53285 153.74315,421.42738 155.00888,421.21648 C 156.2744,421.00551 157.54002,420.78285 158.80576,420.54851 C 160.07127,420.3141 161.23142,420.09145 162.28623,419.88054 C 163.3408,419.66957 164.05564,419.5641 164.43076,419.56414 C 165.64939,419.5641 166.54001,419.71645 167.10263,420.02117 C 167.66501,420.32582 167.94626,420.94692 167.94638,421.88445 C 167.94626,422.16566 167.65329,422.5641 167.06748,423.07976 C 166.48142,423.59535 165.74314,424.08754 164.85263,424.55632 C 162.69627,425.68129 160.72752,426.67738 158.94638,427.54461 C 157.16502,428.41175 155.43065,429.26722 153.74326,430.11101 C 152.05565,430.95472 150.30956,431.83362 148.50498,432.74773 C 146.70019,433.66175 144.69628,434.70471 142.49326,435.87664 L 142.49326,435.87664 z "
       style="font-size:144px;font-style:normal;font-weight:normal;fill:#000000;fill-opacity:1;stroke:none;stroke-width:1px;stroke-linecap:butt;stroke-linejoin:miter;stroke-opacity:1;font-family:Mongolian Baiti"
       id="text2322" />
  </g>
</svg>
