<?xml version="1.0" encoding="utf-8"?>
<!-- Generator: Adobe Illustrator 22.1.0, SVG Export Plug-In . SVG Version: 6.00 Build 0)  -->
<svg version="1.1" id="Layer_1" xmlns="http://www.w3.org/2000/svg" xmlns:xlink="http://www.w3.org/1999/xlink" x="0px" y="0px"
	 viewBox="0 0 300 300" style="enable-background:new 0 0 300 300;" xml:space="preserve">
<style type="text/css">
	.st0{fill:#40A4C4;}
	.st1{fill:#FFFFFF;}
	.st2{fill:#E94F3C;}
</style>
<circle class="st0" cx="150" cy="150" r="150"/>
<g>
	<path class="st1" d="M151.1,244c14.9,0,73.7-66.1,73.7-110.4c0-42.4-33.5-77.6-73.7-77.6c-42.3,0-75.8,35.2-75.8,77.6
		C75.3,177.9,134.1,244,151.1,244z"/>
	<path class="st2" d="M140.2,86.7c3.5-0.8,7.2-1.2,11.1-1.2c23.7,0,44,19.8,44,45.4c0,23.1-20.3,42.9-44,42.9
		c-26.3,0-46.6-19.8-46.6-42.9c0-9.8,3-18.7,8.1-26c1.6,8.2,8.9,14.4,17.8,14.4c10,0,18.1-7.9,18.1-17.7
		C148.7,95.3,145.3,89.8,140.2,86.7z"/>
</g>
</svg>
