<?xml version="1.0" encoding="UTF-8" standalone="no"?>
<!-- Created with Inkscape (http://www.inkscape.org/) -->

<svg
   xmlns:dc="http://purl.org/dc/elements/1.1/"
   xmlns:cc="http://creativecommons.org/ns#"
   xmlns:rdf="http://www.w3.org/1999/02/22-rdf-syntax-ns#"
   xmlns:svg="http://www.w3.org/2000/svg"
   xmlns="http://www.w3.org/2000/svg"
   xmlns:xlink="http://www.w3.org/1999/xlink"
   xmlns:sodipodi="http://sodipodi.sourceforge.net/DTD/sodipodi-0.dtd"
   xmlns:inkscape="http://www.inkscape.org/namespaces/inkscape"
   width="427.86566"
   height="144.28357"
   id="svg2"
   version="1.1"
   inkscape:version="0.47 r22583"
   sodipodi:docname="Scratch.svg"
   style="display:inline">
  <defs
     id="defs4">
    <linearGradient
       id="linearGradient3663">
      <stop
         id="stop3665"
         offset="0"
         style="stop-color:#f88000;stop-opacity:1;" />
      <stop
         id="stop3667"
         offset="1"
         style="stop-color:#ffd6a9;stop-opacity:0.24038462" />
    </linearGradient>
    <linearGradient
       id="linearGradient3644">
      <stop
         id="stop3646"
         offset="0"
         style="stop-color:#f88000;stop-opacity:0.39423077" />
      <stop
         id="stop3648"
         offset="1"
         style="stop-color:#ffd6a9;stop-opacity:1;" />
    </linearGradient>
    <linearGradient
       id="linearGradient3604">
      <stop
         style="stop-color:#f88000;stop-opacity:1;"
         offset="0"
         id="stop3606" />
      <stop
         style="stop-color:#ffd6a9;stop-opacity:1;"
         offset="1"
         id="stop3608" />
    </linearGradient>
    <inkscape:perspective
       sodipodi:type="inkscape:persp3d"
       inkscape:vp_x="0 : 526.18109 : 1"
       inkscape:vp_y="0 : 1000 : 0"
       inkscape:vp_z="744.09448 : 526.18109 : 1"
       inkscape:persp3d-origin="372.04724 : 350.78739 : 1"
       id="perspective10" />
    <inkscape:perspective
       id="perspective3596"
       inkscape:persp3d-origin="0.5 : 0.33333333 : 1"
       inkscape:vp_z="1 : 0.5 : 1"
       inkscape:vp_y="0 : 1000 : 0"
       inkscape:vp_x="0 : 0.5 : 1"
       sodipodi:type="inkscape:persp3d" />
    <linearGradient
       inkscape:collect="always"
       xlink:href="#linearGradient3604"
       id="linearGradient3610"
       x1="30.260717"
       y1="9.4919081"
       x2="30.260717"
       y2="94.086624"
       gradientUnits="userSpaceOnUse" />
    <linearGradient
       inkscape:collect="always"
       xlink:href="#linearGradient3604"
       id="linearGradient3630"
       x1="77.449745"
       y1="15.007013"
       x2="77.449745"
       y2="84.857758"
       gradientUnits="userSpaceOnUse" />
    <linearGradient
       inkscape:collect="always"
       xlink:href="#linearGradient3604"
       id="linearGradient3642"
       x1="131.54724"
       y1="10.397132"
       x2="134.94786"
       y2="92.902"
       gradientUnits="userSpaceOnUse" />
    <linearGradient
       inkscape:collect="always"
       xlink:href="#linearGradient3663"
       id="linearGradient3661"
       x1="190.86368"
       y1="20.013029"
       x2="190.86368"
       y2="124.64863"
       gradientUnits="userSpaceOnUse" />
    <linearGradient
       inkscape:collect="always"
       xlink:href="#linearGradient3604"
       id="linearGradient3680"
       x1="244.94035"
       y1="7.2328348"
       x2="244.94035"
       y2="91.992538"
       gradientUnits="userSpaceOnUse" />
    <inkscape:perspective
       id="perspective3625"
       inkscape:persp3d-origin="0.5 : 0.33333333 : 1"
       inkscape:vp_z="1 : 0.5 : 1"
       inkscape:vp_y="0 : 1000 : 0"
       inkscape:vp_x="0 : 0.5 : 1"
       sodipodi:type="inkscape:persp3d" />
    <linearGradient
       inkscape:collect="always"
       xlink:href="#linearGradient3604-7"
       id="linearGradient3630-1"
       x1="77.449745"
       y1="15.007013"
       x2="77.449745"
       y2="84.857758"
       gradientUnits="userSpaceOnUse" />
    <linearGradient
       id="linearGradient3604-7">
      <stop
         style="stop-color:#f88000;stop-opacity:1;"
         offset="0"
         id="stop3606-4" />
      <stop
         style="stop-color:#ffd6a9;stop-opacity:1;"
         offset="1"
         id="stop3608-0" />
    </linearGradient>
    <linearGradient
       gradientTransform="translate(220.80156,-2.0807473)"
       y2="84.857758"
       x2="77.449745"
       y1="15.007013"
       x1="77.449745"
       gradientUnits="userSpaceOnUse"
       id="linearGradient3634"
       xlink:href="#linearGradient3604-7"
       inkscape:collect="always" />
    <linearGradient
       inkscape:collect="always"
       xlink:href="#linearGradient3604"
       id="linearGradient3664"
       x1="353.23862"
       y1="8.8772259"
       x2="353.23862"
       y2="105.82493"
       gradientUnits="userSpaceOnUse" />
    <inkscape:perspective
       id="perspective3674"
       inkscape:persp3d-origin="0.5 : 0.33333333 : 1"
       inkscape:vp_z="1 : 0.5 : 1"
       inkscape:vp_y="0 : 1000 : 0"
       inkscape:vp_x="0 : 0.5 : 1"
       sodipodi:type="inkscape:persp3d" />
    <linearGradient
       inkscape:collect="always"
       xlink:href="#linearGradient3604-2"
       id="linearGradient3610-8"
       x1="30.260717"
       y1="9.4919081"
       x2="30.260717"
       y2="94.086624"
       gradientUnits="userSpaceOnUse" />
    <linearGradient
       id="linearGradient3604-2">
      <stop
         style="stop-color:#f88000;stop-opacity:1;"
         offset="0"
         id="stop3606-45" />
      <stop
         style="stop-color:#ffd6a9;stop-opacity:1;"
         offset="1"
         id="stop3608-2" />
    </linearGradient>
    <linearGradient
       id="linearGradient3683">
      <stop
         style="stop-color:#f88000;stop-opacity:1;"
         offset="0"
         id="stop3685" />
      <stop
         style="stop-color:#ffd6a9;stop-opacity:1;"
         offset="1"
         id="stop3687" />
    </linearGradient>
    <linearGradient
       id="linearGradient3690">
      <stop
         style="stop-color:#f88000;stop-opacity:1;"
         offset="0"
         id="stop3692" />
      <stop
         style="stop-color:#ffd6a9;stop-opacity:1;"
         offset="1"
         id="stop3694" />
    </linearGradient>
    <linearGradient
       id="linearGradient3663-3">
      <stop
         id="stop3665-8"
         offset="0"
         style="stop-color:#f88000;stop-opacity:1;" />
      <stop
         id="stop3667-6"
         offset="1"
         style="stop-color:#ffd6a9;stop-opacity:0.24038462" />
    </linearGradient>
    <linearGradient
       id="linearGradient3701">
      <stop
         style="stop-color:#f88000;stop-opacity:1;"
         offset="0"
         id="stop3703" />
      <stop
         style="stop-color:#ffd6a9;stop-opacity:1;"
         offset="1"
         id="stop3705" />
    </linearGradient>
    <linearGradient
       id="linearGradient3604-7-6">
      <stop
         style="stop-color:#f88000;stop-opacity:1;"
         offset="0"
         id="stop3606-4-6" />
      <stop
         style="stop-color:#ffd6a9;stop-opacity:1;"
         offset="1"
         id="stop3608-0-2" />
    </linearGradient>
    <linearGradient
       id="linearGradient3712">
      <stop
         style="stop-color:#f88000;stop-opacity:1;"
         offset="0"
         id="stop3714" />
      <stop
         style="stop-color:#ffd6a9;stop-opacity:1;"
         offset="1"
         id="stop3716" />
    </linearGradient>
    <filter
       inkscape:collect="always"
       id="filter4294"
       x="-0.1482691"
       width="1.2965382"
       y="-0.082015499"
       height="1.164031"
       color-interpolation-filters="sRGB">
      <feGaussianBlur
         inkscape:collect="always"
         stdDeviation="2.8566926"
         id="feGaussianBlur4296" />
    </filter>
    <filter
       inkscape:collect="always"
       id="filter4298"
       x="-0.14704733"
       width="1.2940946"
       y="-0.098766305"
       height="1.1975327"
       color-interpolation-filters="sRGB">
      <feGaussianBlur
         inkscape:collect="always"
         stdDeviation="2.8566926"
         id="feGaussianBlur4300" />
    </filter>
    <filter
       inkscape:collect="always"
       id="filter4302"
       color-interpolation-filters="sRGB">
      <feGaussianBlur
         inkscape:collect="always"
         stdDeviation="2.8566926"
         id="feGaussianBlur4304" />
    </filter>
    <filter
       inkscape:collect="always"
       id="filter4306"
       color-interpolation-filters="sRGB">
      <feGaussianBlur
         inkscape:collect="always"
         stdDeviation="2.8566926"
         id="feGaussianBlur4308" />
    </filter>
    <filter
       inkscape:collect="always"
       id="filter4310"
       x="-0.10303263"
       width="1.2060653"
       y="-0.089879505"
       height="1.179759"
       color-interpolation-filters="sRGB">
      <feGaussianBlur
         inkscape:collect="always"
         stdDeviation="2.8566926"
         id="feGaussianBlur4312" />
    </filter>
    <filter
       inkscape:collect="always"
       id="filter4314"
       x="-0.14704733"
       width="1.2940947"
       y="-0.098766305"
       height="1.1975327"
       color-interpolation-filters="sRGB">
      <feGaussianBlur
         inkscape:collect="always"
         stdDeviation="2.8566926"
         id="feGaussianBlur4316" />
    </filter>
    <filter
       inkscape:collect="always"
       id="filter4318"
       x="-0.10308616"
       width="1.2061723"
       y="-0.071456239"
       height="1.1429125"
       color-interpolation-filters="sRGB">
      <feGaussianBlur
         inkscape:collect="always"
         stdDeviation="2.8566926"
         id="feGaussianBlur4320" />
    </filter>
    <filter
       inkscape:collect="always"
       id="filter4322"
       x="-1.0621207"
       width="3.1242416"
       y="-1.0827128"
       height="3.1654255"
       color-interpolation-filters="sRGB">
      <feGaussianBlur
         inkscape:collect="always"
         stdDeviation="2.8566926"
         id="feGaussianBlur4324" />
    </filter>
  </defs>
  <sodipodi:namedview
     id="base"
     pagecolor="#ffffff"
     bordercolor="#666666"
     borderopacity="1.0"
     inkscape:pageopacity="0.0"
     inkscape:pageshadow="2"
     inkscape:zoom="1.675"
     inkscape:cx="203.21631"
     inkscape:cy="39.553876"
     inkscape:document-units="px"
     inkscape:current-layer="layer2"
     showgrid="false"
     inkscape:window-width="1152"
     inkscape:window-height="808"
     inkscape:window-x="-4"
     inkscape:window-y="-4"
     inkscape:window-maximized="1" />
  <metadata
     id="metadata7">
    <rdf:RDF>
      <cc:Work
         rdf:about="">
        <dc:format>image/svg+xml</dc:format>
        <dc:type
           rdf:resource="http://purl.org/dc/dcmitype/StillImage" />
        <dc:title />
      </cc:Work>
    </rdf:RDF>
  </metadata>
  <g
     style="display:inline"
     inkscape:label="Shadow"
     id="g3892"
     inkscape:groupmode="layer"
     transform="translate(11.312723,11.451373)">
    <path
       sodipodi:nodetypes="csccscscsccscsscsccsccsccscsccscsc"
       id="path3894"
       d="m 42.717135,23.501217 c 0,0 -1.641791,-8.656717 4.925373,-8.955224 6.567164,-0.298508 4.925373,7.761194 4.925373,7.761194 l -0.746268,22.089552 c 0,0 0,6.268657 -5.671642,6.119403 -5.671642,-0.149253 -6.119403,-7.014925 -6.119403,-7.014925 0,0 -0.895522,-5.373134 -2.38806,-8.955224 -1.492537,-3.58209 -4.477612,-7.313433 -4.477612,-7.313433 0,0 -2.388059,-1.492537 -4.179104,-0.149254 -1.791045,1.343284 -3.134328,6.119403 -3.134328,6.119403 l -1.044777,9.552239 c 0,0 -0.298507,4.179105 1.343284,5.522388 1.641791,1.343284 6.119403,1.940299 6.119403,1.940299 -0.158117,0.07906 7.689273,0.632976 10.746269,1.492537 2.244383,0.631072 12.835821,1.791045 14.179104,16.567164 1.343284,14.77612 -11.641791,18.656717 -11.641791,18.656717 0,0 -7.024795,3.833546 -13.731343,3.134328 C 23.656939,89.21714 21.504834,85.721752 21.523105,85.740023 l -0.149253,8.358209 c 0,0 -1.791045,3.8806 -5.522388,4.02985 -3.731343,0.149253 -4.328358,-3.43284 -4.328358,-3.43284 L 11.075345,64.545993 c 0,0 -0.746269,-4.328358 6.119402,-4.179104 6.865672,0.149253 5.074627,5.074626 5.074627,5.074626 l 0.597015,5.223881 c 0,0 2.238806,9.850746 10,10.298507 7.761194,0.447762 13.432836,-5.074626 13.432836,-5.074626 0,0 2.537313,-7.761194 -1.044776,-11.492538 -3.58209,-3.731343 -11.791045,-4.179104 -11.791045,-4.179104 l -5.522388,-0.298508 c 0,0 -12.686567,-4.02985 -13.731344,-14.179104 -1.039732,-10.100268 2.38806,-19.402985 2.38806,-19.402985 0,0 2.24858,-9.698201 14.477612,-8.80597 10.228444,0.746268 11.03045,6.268657 11.641791,5.970149 z"
       style="opacity:0.38461537;fill:none;stroke:#000000;stroke-width:13.30000019;stroke-linecap:butt;stroke-linejoin:miter;stroke-miterlimit:4;stroke-opacity:1;stroke-dasharray:none;display:inline;filter:url(#filter4294)" />
    <path
       sodipodi:nodetypes="csccsscsscsccsscscscscsc"
       id="path3896"
       d="m 93.164896,70.068381 c 0,0 -0.149253,-5.373134 5.970149,-5.223881 6.119405,0.149254 5.522395,4.925374 5.522395,4.925374 l -0.89553,14.179104 c 0,0 -3.28358,18.656722 -21.940297,18.059712 -18.656717,-0.59702 -23.58209,-9.701503 -23.731344,-17.014936 -0.149253,-7.313433 0.149254,-24.776119 0.149254,-24.776119 0,0 0.480882,-5.316173 2.38806,-9.402985 0,0 2.089552,-4.477612 2.089552,-4.477612 1.058839,-2.268942 6.452986,-5.71567 6.567164,-5.373135 -0.02331,-0.09324 2.63549,-1.646029 13.134329,0 6.545486,1.026214 7.462687,4.77612 7.462687,4.77612 l 0.298507,-9.253731 c 0,0 0.895522,-3.880598 5.074627,-3.880598 4.179106,0 5.522391,1.19403 5.671651,4.179105 0.14925,2.985075 0,18.955224 0,18.955224 0,0 0,3.880597 -5.671651,3.880597 -5.671642,0 -6.567165,-4.179105 -6.567165,-4.179105 -3.126742,-4.04123 -6.183276,-6.396725 -13.283582,-5.373134 -6.352241,0.91575 -7.164178,10.895522 -7.164178,10.895522 0,0 -2.686568,15.522389 0.746268,24.77612 3.432836,9.253729 12.835821,7.014929 12.835821,7.014929 0,0 11.343283,-0.597019 11.492537,-9.701496 0.149254,-9.104478 0,-12.686567 -0.149254,-12.985075 z"
       style="opacity:0.38461537;fill:none;stroke:#000000;stroke-width:13.30000019;stroke-linecap:butt;stroke-linejoin:miter;stroke-miterlimit:4;stroke-opacity:1;stroke-dasharray:none;display:inline;filter:url(#filter4298)" />
    <path
       sodipodi:nodetypes="ccscccscccscsssscsssssssscssscssccsscsccc"
       id="path3898"
       d="m 135.00492,20.983493 c -9.31116,0.03079 -26.46875,1.625 -26.46875,1.625 0,0 -7.32649,1.185634 -7.625,5.8125 -0.29851,4.626866 6.125,5.21875 6.125,5.21875 l 4.9375,-0.28125 0.59375,17.3125 c 0,0 -4.01399,0.595149 -4.3125,4.625 -0.29851,4.02985 5.21875,5.53125 5.21875,5.53125 l 1.46875,22.8125 -5.8125,0.59375 c 0,0 -5.375,0.904384 -5.375,5.53125 0,4.626869 5.8125,4.624999 5.8125,4.624999 0,0 18.51819,-1.63246 20.90625,-3.124999 2.38806,-1.492537 4.49627,-3.428172 3.75,-6.5625 -0.74627,-3.134329 -4.48752,-3.268781 -6.28125,-3.15625 -3.01923,0.189414 -3.06289,0.654728 -3.09375,-0.5625 -0.16927,-6.67573 -0.78125,-22.25 -0.78125,-22.25 0,0 3.43144,-2.558769 5.96875,-1.8125 2.53732,0.746268 6.99394,1.502332 9.53125,8.21875 0.74287,1.966418 1.93016,7.030798 2.28125,8.96875 1.54166,8.509805 1.6098,15.689827 5.5,19.093749 4.77612,4.17911 5.07089,3.71875 9.25,3.71875 4.1791,0 10.75747,-3.5569 12.25,-7.437499 1.49254,-3.880597 1.92257,-7.184702 -1.0625,-9.125 -2.98508,-1.940299 -6.25746,-0.575559 -7.75,1.8125 -1.49253,2.38806 -1.34375,5.375 -1.34375,5.375 0,0 -3.6823,5.883269 -6.4375,-7.1875 -0.7649,-3.62873 -0.0702,-6.862717 -0.25,-9.09375 -0.43857,-5.443081 -0.77806,-7.071073 -1.6875,-9.5625 -1.11046,-3.042136 -4.78927,-9.830661 -5.21875,-9.6875 0,0 10.45476,-3.597948 10.15625,-15.6875 -0.2985,-12.089552 -10.00187,-14.017724 -15.375,-15.0625 -1.00746,-0.195895 -2.72627,-0.288356 -4.875,-0.28125 z m -11.53125,9.53125 c 0,0 7.16138,0.138993 11.9375,0.4375 4.77612,0.298508 8.34749,2.709888 9.09375,7.1875 0.74627,4.477611 -4.3125,6.84375 -4.3125,6.84375 0,0.165779 -7.17864,1.868994 -8.82043,1.638993 -1.62592,-0.227778 -5.66884,1.954757 -5.66884,1.954757 l -1.63573,0.3125 -0.59375,-18.375 z"
       style="opacity:0.38461537;fill:none;stroke:#000000;stroke-width:13.30000019;stroke-linecap:butt;stroke-linejoin:miter;stroke-miterlimit:4;stroke-opacity:1;stroke-dasharray:none;display:inline;filter:url(#filter4302)" />
    <path
       id="path3900"
       d="m 190.97367,13.108493 c -2.16862,-0.02347 -4.99674,0.517257 -8.71875,0.84375 -8.50746,0.746269 -16.10028,1.33209 -14.90625,7.75 1.19403,6.417911 16.875,0 16.875,0 l -8.96875,45.53125 -11.5,0 c 0,0 -4.91325,1.04291 -5.0625,4.625 -0.14925,3.582089 3.5625,4.625 3.5625,4.625 0,0 6.11687,0.640386 11.96875,1.5 2.69344,0.395652 5.1874,-0.0335 7.3125,0.28125 6.26397,0.927766 5.22295,-0.29291 7.3125,-3.875 2.08956,-3.582089 -2.25,-4.78125 -2.25,-4.78125 0,0 -1.33303,0.152053 -0.4375,-1.9375 0.89552,-2.089552 17.59375,-3.71875 17.59375,-3.71875 l 2.6875,10.75 c 0,0 -2.61536,1.387539 -4.03125,2.6875 -4.04556,3.714306 -1.34375,7.3125 -1.34375,7.3125 -0.7681,0.329184 3.4763,2.613304 7.625,0.75 2.26602,-1.017736 13.29338,-8.076959 18.21875,-9.71875 4.92538,-1.641791 4.45429,-4.778918 2.8125,-8.0625 -1.6418,-3.283582 -5.65625,-2.21875 -5.65625,-2.21875 0,0 -3.29571,1.194962 -4.9375,2.6875 -1.64179,1.492537 -2.96875,-0.90625 -2.96875,-0.90625 0,0 -17.16744,-43.568097 -19.40625,-49.6875 -1.25933,-3.442164 -2.99302,-4.407329 -5.78125,-4.4375 z m 1.28125,23.96875 7.9375,17.15625 c 0,0 -11.34375,2.111008 -11.34375,1.8125 0,-0.298507 3.40625,-18.96875 3.40625,-18.96875 z"
       style="opacity:0.38461537;fill:none;stroke:#000000;stroke-width:13.30000019;stroke-linecap:butt;stroke-linejoin:miter;stroke-miterlimit:4;stroke-opacity:1;stroke-dasharray:none;display:inline;filter:url(#filter4306)" />
    <path
       sodipodi:nodetypes="cccsccssccscscscscsscsscc"
       id="path3902"
       d="m 243.31416,33.053456 0.2985,52.537313 -6.41791,0.298508 c 0,0 -5.67164,0.597014 -5.67164,4.925372 0,4.328363 4.62687,5.223883 4.62687,5.223883 l 26.1194,-0.44776 c 0,0 4.1791,-1.04478 3.8806,-5.373137 -0.29851,-4.328358 -2.53732,-5.074627 -4.62687,-5.074627 -2.08955,0 -6.56716,-0.298508 -6.56716,-0.298508 l -0.89552,-53.134328 c 0,0 16.80986,0.509502 16.71641,-0.895522 -0.0631,-0.949204 -0.84017,12.089552 -0.59701,12.089552 0,0 -0.59702,3.880597 5.37313,3.880597 5.97015,0 5.97015,-5.970149 5.97015,-5.970149 0,0 -0.14926,-10.149254 0.44776,-13.134329 0.62848,-3.142383 -0.89552,-5.820895 -0.89552,-5.820895 0,0 -2.23881,-3.283582 -7.91045,-1.641791 -5.67164,1.641791 -24.92537,2.388059 -24.92537,2.388059 0,0 -20.29851,-1.791044 -24.77612,-1.044776 -4.47761,0.746269 -6.86567,1.044776 -7.7612,4.029851 -0.89552,2.985075 3.43284,22.537314 3.43284,22.537314 0,0 0.29851,5.671641 4.32836,5.373134 4.02985,-0.298508 5.52239,-0.149254 5.52239,-5.970149 0,-5.820896 -1.64179,-14.925374 -1.64179,-14.925374 l 15.97015,0.447762 z"
       style="opacity:0.38461537;fill:none;stroke:#000000;stroke-width:13.30000019;stroke-linecap:butt;stroke-linejoin:miter;stroke-miterlimit:4;stroke-opacity:1;stroke-dasharray:none;display:inline;filter:url(#filter4310)" />
    <path
       sodipodi:nodetypes="csccsscsscsccsscscscscsc"
       id="path3904"
       d="m 313.96646,67.987634 c 0,0 -0.14925,-5.373134 5.97015,-5.223881 6.1194,0.149254 5.52239,4.925374 5.52239,4.925374 l -0.89552,14.179104 c 0,0 -3.28358,18.656719 -21.9403,18.059704 -18.65672,-0.59701 -23.58209,-9.701495 -23.73134,-17.014928 -0.14926,-7.313433 0.14925,-24.776119 0.14925,-24.776119 0,0 0.48088,-5.316173 2.38806,-9.402985 0,0 2.08955,-4.477612 2.08955,-4.477612 1.05884,-2.268942 6.45299,-5.71567 6.56717,-5.373135 -0.0233,-0.09324 2.63549,-1.646029 13.13433,0 6.54548,1.026214 7.46268,4.77612 7.46268,4.77612 l 0.29851,-9.253731 c 0,0 0.89552,-3.880598 5.07463,-3.880598 4.1791,0 5.52239,1.19403 5.67164,4.179105 0.14925,2.985075 0,18.955224 0,18.955224 0,0 0,3.880597 -5.67164,3.880597 -5.67164,0 -6.56717,-4.179105 -6.56717,-4.179105 -3.12674,-4.04123 -6.18327,-6.396725 -13.28358,-5.373134 -6.35224,0.91575 -7.16418,10.895522 -7.16418,10.895522 0,0 -2.68657,15.522389 0.74627,24.77612 3.43284,9.253726 12.83582,7.014925 12.83582,7.014925 0,0 11.34328,-0.597015 11.49254,-9.701492 0.14925,-9.104478 0,-12.686567 -0.14926,-12.985075 z"
       style="opacity:0.38461537;fill:none;stroke:#000000;stroke-width:13.30000019;stroke-linecap:butt;stroke-linejoin:miter;stroke-miterlimit:4;stroke-opacity:1;stroke-dasharray:none;display:inline;filter:url(#filter4314)" />
    <path
       sodipodi:nodetypes="ccsccssssssccsscsscccccsscsscccsccsssc"
       id="path3906"
       d="M 346.69965,87.818656 346.2775,66.710991 c 0,0 14.56429,-3.16615 18.36367,-3.16615 3.79938,0 3.5883,0 3.5883,0 l 1.47754,33.772261 c 0,0 -5.27692,0.84431 -8.23199,1.899693 -2.95508,1.055395 -6.3323,1.688625 -5.69907,6.332305 0.63323,4.64369 6.12122,4.85476 8.86522,3.79938 2.74399,-1.05538 11.39814,-4.01046 17.30828,-3.37723 5.91015,0.63323 8.65414,-2.53291 8.44307,-5.48799 -0.21108,-2.955078 -2.11077,-5.699078 -5.27692,-5.487998 -3.2217,0.21478 -5.06584,0.21108 -5.06584,0.21108 L 378.7833,24.917814 c 0,0 11.18706,0.63323 11.18706,-5.487993 0,-6.121223 -3.5883,-5.487993 -6.75445,-5.487993 -3.16615,0 -18.78582,0 -18.78582,0 0,0 -7.17661,0.844306 -7.38768,5.065839 -0.21108,4.221533 2.53292,5.910147 7.38768,6.543377 4.85476,0.63323 3.16615,0 3.16615,0 l 1.68861,27.017811 -22.37412,1.89969 -0.21108,-23.640585 5.91015,-0.211077 c 0,0 5.27691,-1.055383 5.48799,-5.276916 0.21108,-4.221533 -3.79938,-5.69907 -6.3323,-5.69907 -2.53292,0 -20.26336,0 -20.26336,0 0,0 -7.38768,0.422154 -7.59876,5.69907 -0.21107,5.276916 4.01046,6.121223 5.91015,6.121223 1.89969,0 6.12122,0.211077 6.12122,0.211077 l 0.21108,56.146389 -7.17661,0.211076 c 0,0 -5.06584,0.844307 -4.85476,4.64369 0.21108,3.79938 4.85476,5.27691 4.85476,5.27691 l 8.65415,0 c 0,0 11.10046,1.352433 13.93105,1.266463 4.39969,-0.13362 6.03893,-1.785193 6.12123,-5.487993 0.0846,-3.804299 -5.06584,-5.276916 -6.54338,-5.276916 -1.47754,0 -4.43261,-0.63323 -4.43261,-0.63323 z"
       style="opacity:0.38461537;fill:none;stroke:#000000;stroke-width:13.30000019;stroke-linecap:butt;stroke-linejoin:miter;stroke-miterlimit:4;stroke-opacity:1;stroke-dasharray:none;display:inline;filter:url(#filter4318)" />
    <path
       id="path3908"
       d="m 212.12582,70.776711 c -2.53292,4.643687 2.11077,6.3323 2.11077,6.3323 l 3.5883,-4.010457 -5.69907,-2.321843 z"
       style="opacity:0.38461537;fill:none;stroke:#000000;stroke-width:1px;stroke-linecap:butt;stroke-linejoin:miter;stroke-opacity:1;filter:url(#filter4322)" />
  </g>
  <g
     inkscape:groupmode="layer"
     id="layer3"
     inkscape:label="White Border"
     style="display:inline"
     transform="translate(11.312723,11.451373)">
    <path
       style="fill:none;stroke:#ffffff;stroke-width:13.30000019;stroke-linecap:butt;stroke-linejoin:miter;stroke-miterlimit:4;stroke-opacity:1;stroke-dasharray:none;display:inline"
       d="m 39.135046,19.322113 c 0,0 -1.641791,-8.656717 4.925373,-8.955224 6.567164,-0.298508 4.925373,7.761194 4.925373,7.761194 l -0.746268,22.089552 c 0,0 0,6.268657 -5.671642,6.119403 -5.671642,-0.149253 -6.119403,-7.014925 -6.119403,-7.014925 0,0 -0.895522,-5.373134 -2.38806,-8.955224 -1.492537,-3.58209 -4.477612,-7.313433 -4.477612,-7.313433 0,0 -2.388059,-1.492537 -4.179104,-0.149254 -1.791045,1.343284 -3.134328,6.119403 -3.134328,6.119403 l -1.044777,9.552239 c 0,0 -0.298507,4.179105 1.343284,5.522388 1.641791,1.343284 6.119403,1.940299 6.119403,1.940299 -0.158117,0.07906 7.689273,0.632976 10.746269,1.492537 2.244383,0.631072 12.835821,1.791045 14.179104,16.567164 1.343284,14.77612 -11.641791,18.656717 -11.641791,18.656717 0,0 -7.024795,3.833546 -13.731343,3.134328 C 20.07485,85.038036 17.922745,81.542648 17.941016,81.560919 l -0.149253,8.358209 c 0,0 -1.791045,3.8806 -5.522388,4.02985 -3.7313438,0.14925 -4.3283588,-3.43284 -4.3283588,-3.43284 L 7.4932552,60.366889 c 0,0 -0.746269,-4.328358 6.1194028,-4.179104 6.865672,0.149253 5.074627,5.074626 5.074627,5.074626 l 0.597015,5.223881 c 0,0 2.238806,9.850746 10,10.298507 7.761194,0.447762 13.432836,-5.074626 13.432836,-5.074626 0,0 2.537313,-7.761194 -1.044776,-11.492538 -3.58209,-3.731343 -11.791045,-4.179104 -11.791045,-4.179104 l -5.522388,-0.298508 c 0,0 -12.686567,-4.02985 -13.731344,-14.179104 -1.0397328,-10.100268 2.38806,-19.402985 2.38806,-19.402985 0,0 2.24858,-9.698201 14.477612,-8.80597 10.228444,0.746268 11.03045,6.268657 11.641791,5.970149 z"
       id="path3602-8"
       sodipodi:nodetypes="csccscscsccscsscsccsccsccscsccscsc" />
    <path
       style="fill:none;stroke:#ffffff;stroke-width:13.30000019;stroke-linecap:butt;stroke-linejoin:miter;stroke-miterlimit:4;stroke-opacity:1;stroke-dasharray:none;display:inline"
       d="m 89.582807,65.889277 c 0,0 -0.149253,-5.373134 5.97015,-5.223881 6.119403,0.149254 5.522393,4.925374 5.522393,4.925374 l -0.89553,14.179104 c 0,0 -3.28358,18.656714 -21.940296,18.059704 -18.656717,-0.59702 -23.58209,-9.701495 -23.731344,-17.014928 -0.149253,-7.313433 0.149254,-24.776119 0.149254,-24.776119 0,0 0.480882,-5.316173 2.38806,-9.402985 0,0 2.089552,-4.477612 2.089552,-4.477612 1.058839,-2.268942 6.452986,-5.71567 6.567164,-5.373135 -0.02331,-0.09324 2.63549,-1.646029 13.134329,0 6.545486,1.026214 7.462687,4.77612 7.462687,4.77612 l 0.298507,-9.253731 c 0,0 0.895522,-3.880598 5.074627,-3.880598 4.179104,0 5.522388,1.19403 5.671641,4.179105 0.149254,2.985075 0,18.955224 0,18.955224 0,0 0,3.880597 -5.671641,3.880597 -5.671642,0 -6.567165,-4.179105 -6.567165,-4.179105 -3.126742,-4.04123 -6.183276,-6.396725 -13.283582,-5.373134 -6.352241,0.91575 -7.164178,10.895522 -7.164178,10.895522 0,0 -2.686568,15.522389 0.746268,24.77612 3.432836,9.253729 12.835821,7.014929 12.835821,7.014929 0,0 11.343283,-0.597019 11.492537,-9.701496 0.149254,-9.104478 0,-12.686567 -0.149254,-12.985075 z"
       id="path3614-2"
       sodipodi:nodetypes="csccsscsscsccsscscscscsc" />
    <path
       style="fill:none;stroke:#ffffff;stroke-width:13.30000019;stroke-linecap:butt;stroke-linejoin:miter;stroke-miterlimit:4;stroke-opacity:1;stroke-dasharray:none;display:inline"
       d="m 131.42283,16.804389 c -9.31116,0.03079 -26.46875,1.625 -26.46875,1.625 0,0 -7.326496,1.185634 -7.625004,5.8125 -0.298507,4.626866 6.125004,5.21875 6.125004,5.21875 l 4.9375,-0.28125 0.59375,17.3125 c 0,0 -4.01399,0.595149 -4.3125,4.625 -0.29851,4.02985 5.21875,5.53125 5.21875,5.53125 l 1.46875,22.8125 -5.8125,0.59375 c 0,0 -5.375,0.904384 -5.375,5.53125 0,4.626869 5.8125,4.624999 5.8125,4.624999 0,0 18.51819,-1.63246 20.90625,-3.124999 2.38806,-1.492537 4.49627,-3.428172 3.75,-6.5625 -0.74627,-3.134329 -4.48752,-3.268781 -6.28125,-3.15625 -3.01923,0.189414 -3.06289,0.654728 -3.09375,-0.5625 -0.16927,-6.67573 -0.78125,-22.25 -0.78125,-22.25 0,0 3.43144,-2.558769 5.96875,-1.8125 2.53732,0.746268 6.99394,1.502332 9.53125,8.21875 0.74287,1.966418 1.93016,7.030798 2.28125,8.96875 1.54166,8.509805 1.6098,15.689827 5.5,19.093749 4.77612,4.17911 5.07089,3.71875 9.25,3.71875 4.1791,0 10.75747,-3.5569 12.25,-7.437499 1.49254,-3.880597 1.92257,-7.184702 -1.0625,-9.125 -2.98508,-1.940299 -6.25746,-0.575559 -7.75,1.8125 -1.49253,2.38806 -1.34375,5.375 -1.34375,5.375 0,0 -3.6823,5.883269 -6.4375,-7.1875 -0.7649,-3.62873 -0.0702,-6.862717 -0.25,-9.09375 -0.43857,-5.443081 -0.77806,-7.071073 -1.6875,-9.5625 -1.11046,-3.042136 -4.78927,-9.830661 -5.21875,-9.6875 0,0 10.45476,-3.597948 10.15625,-15.6875 -0.2985,-12.089552 -10.00187,-14.017724 -15.375,-15.0625 -1.00746,-0.195895 -2.72627,-0.288356 -4.875,-0.28125 z m -11.53125,9.53125 c 0,0 7.16138,0.138993 11.9375,0.4375 4.77612,0.298508 8.34749,2.709888 9.09375,7.1875 0.74627,4.477611 -4.3125,6.84375 -4.3125,6.84375 0,0.165779 -7.17864,1.868994 -8.82043,1.638993 -1.62592,-0.227778 -5.66884,1.954757 -5.66884,1.954757 l -1.63573,0.3125 -0.59375,-18.375 z"
       id="path3634-6"
       sodipodi:nodetypes="ccscccscccscsssscsssssssscssscssccsscsccc" />
    <path
       style="fill:none;stroke:#ffffff;stroke-width:13.30000019;stroke-linecap:butt;stroke-linejoin:miter;stroke-miterlimit:4;stroke-opacity:1;stroke-dasharray:none;display:inline"
       d="m 187.39158,8.9293885 c -2.16862,-0.02347 -4.99674,0.517257 -8.71875,0.84375 -8.50746,0.7462695 -16.10028,1.3320905 -14.90625,7.7500005 1.19403,6.417911 16.875,0 16.875,0 l -8.96875,45.53125 -11.5,0 c 0,0 -4.91325,1.04291 -5.0625,4.625 -0.14925,3.582089 3.5625,4.625 3.5625,4.625 0,0 6.11687,0.640386 11.96875,1.5 2.69344,0.395652 5.1874,-0.0335 7.3125,0.28125 6.26397,0.927766 5.22295,-0.29291 7.3125,-3.875 2.08956,-3.582089 -2.25,-4.78125 -2.25,-4.78125 0,0 -1.33303,0.152053 -0.4375,-1.9375 0.89552,-2.089552 17.59375,-3.71875 17.59375,-3.71875 l 2.6875,10.75 c 0,0 -2.61536,1.387539 -4.03125,2.6875 -4.04556,3.714306 -1.34375,7.3125 -1.34375,7.3125 -0.7681,0.329184 3.4763,2.613304 7.625,0.75 2.26602,-1.017736 13.29338,-8.076959 18.21875,-9.71875 4.92538,-1.641791 4.45429,-4.778918 2.8125,-8.0625 -1.6418,-3.283582 -5.65625,-2.21875 -5.65625,-2.21875 0,0 -3.29571,1.194962 -4.9375,2.6875 -1.64179,1.492537 -2.96875,-0.90625 -2.96875,-0.90625 0,0 -17.16744,-43.568097 -19.40625,-49.6875 -1.25933,-3.4421645 -2.99302,-4.4073295 -5.78125,-4.4375005 z m 1.28125,23.9687505 7.9375,17.15625 c 0,0 -11.34375,2.111008 -11.34375,1.8125 0,-0.298507 3.40625,-18.96875 3.40625,-18.96875 z"
       id="path3653-2" />
    <path
       style="fill:none;stroke:#ffffff;stroke-width:13.30000019;stroke-linecap:butt;stroke-linejoin:miter;stroke-miterlimit:4;stroke-opacity:1;stroke-dasharray:none;display:inline"
       d="m 239.73207,28.874352 0.2985,52.537313 -6.41791,0.298508 c 0,0 -5.67164,0.597014 -5.67164,4.925372 0,4.328363 4.62687,5.223883 4.62687,5.223883 l 26.1194,-0.44776 c 0,0 4.1791,-1.04478 3.8806,-5.373137 -0.29851,-4.328358 -2.53732,-5.074627 -4.62687,-5.074627 -2.08955,0 -6.56716,-0.298508 -6.56716,-0.298508 l -0.89552,-53.134328 c 0,0 16.80986,0.509502 16.71641,-0.895522 -0.0631,-0.949204 -0.84017,12.089552 -0.59701,12.089552 0,0 -0.59702,3.880597 5.37313,3.880597 5.97015,0 5.97015,-5.970149 5.97015,-5.970149 0,0 -0.14926,-10.149254 0.44776,-13.134329 0.62848,-3.142383 -0.89552,-5.820895 -0.89552,-5.820895 0,0 -2.23881,-3.283582 -7.91045,-1.641791 -5.67164,1.641791 -24.92537,2.388059 -24.92537,2.388059 0,0 -20.29851,-1.791044 -24.77612,-1.044776 -4.47761,0.746269 -6.86567,1.044776 -7.7612,4.029851 -0.89552,2.985075 3.43284,22.537314 3.43284,22.537314 0,0 0.29851,5.671641 4.32836,5.373134 4.02985,-0.298508 5.52239,-0.149254 5.52239,-5.970149 0,-5.820896 -1.64179,-14.925374 -1.64179,-14.925374 l 15.97015,0.447762 z"
       id="path3672-7"
       sodipodi:nodetypes="cccsccssccscscscscsscsscc" />
    <path
       style="fill:none;stroke:#ffffff;stroke-width:13.30000019;stroke-linecap:butt;stroke-linejoin:miter;stroke-miterlimit:4;stroke-opacity:1;stroke-dasharray:none;display:inline"
       d="m 310.38437,63.80853 c 0,0 -0.14925,-5.373134 5.97015,-5.223881 6.1194,0.149254 5.52239,4.925374 5.52239,4.925374 l -0.89552,14.179104 c 0,0 -3.28358,18.656711 -21.9403,18.059701 -18.65672,-0.59701 -23.58209,-9.701492 -23.73134,-17.014925 -0.14926,-7.313433 0.14925,-24.776119 0.14925,-24.776119 0,0 0.48088,-5.316173 2.38806,-9.402985 0,0 2.08955,-4.477612 2.08955,-4.477612 1.05884,-2.268942 6.45299,-5.71567 6.56717,-5.373135 -0.0233,-0.09324 2.63549,-1.646029 13.13433,0 6.54548,1.026214 7.46268,4.77612 7.46268,4.77612 l 0.29851,-9.253731 c 0,0 0.89552,-3.880598 5.07463,-3.880598 4.1791,0 5.52239,1.19403 5.67164,4.179105 0.14925,2.985075 0,18.955224 0,18.955224 0,0 0,3.880597 -5.67164,3.880597 -5.67164,0 -6.56717,-4.179105 -6.56717,-4.179105 -3.12674,-4.04123 -6.18327,-6.396725 -13.28358,-5.373134 -6.35224,0.91575 -7.16418,10.895522 -7.16418,10.895522 0,0 -2.68657,15.522389 0.74627,24.77612 3.43284,9.253726 12.83582,7.014925 12.83582,7.014925 0,0 11.34328,-0.597015 11.49254,-9.701492 0.14925,-9.104478 0,-12.686567 -0.14926,-12.985075 z"
       id="path3614-9-5"
       sodipodi:nodetypes="csccsscsscsccsscscscscsc" />
    <path
       style="fill:none;stroke:#ffffff;stroke-width:13.30000019;stroke-linecap:butt;stroke-linejoin:miter;stroke-miterlimit:4;stroke-opacity:1;stroke-dasharray:none;display:inline"
       d="m 343.11756,83.639552 -0.42215,-21.107665 c 0,0 14.56429,-3.16615 18.36367,-3.16615 3.79938,0 3.5883,0 3.5883,0 l 1.47754,33.772261 c 0,0 -5.27692,0.84431 -8.23199,1.89969 -2.95508,1.05539 -6.3323,1.68862 -5.69907,6.332302 0.63323,4.64369 6.12122,4.85476 8.86522,3.79938 2.74399,-1.05538 11.39814,-4.01046 17.30828,-3.37723 5.91015,0.63323 8.65414,-2.532912 8.44307,-5.487992 -0.21108,-2.95507 -2.11077,-5.69907 -5.27692,-5.48799 -3.2217,0.21478 -5.06584,0.21108 -5.06584,0.21108 L 375.20121,20.73871 c 0,0 11.18706,0.63323 11.18706,-5.487993 0,-6.1212235 -3.5883,-5.4879935 -6.75445,-5.4879935 -3.16615,0 -18.78582,0 -18.78582,0 0,0 -7.17661,0.8443065 -7.38768,5.0658395 -0.21108,4.221533 2.53292,5.910147 7.38768,6.543377 4.85476,0.63323 3.16615,0 3.16615,0 l 1.68861,27.017811 -22.37412,1.89969 -0.21108,-23.640585 5.91015,-0.211077 c 0,0 5.27691,-1.055383 5.48799,-5.276916 0.21108,-4.221533 -3.79938,-5.69907 -6.3323,-5.69907 -2.53292,0 -20.26336,0 -20.26336,0 0,0 -7.38768,0.422154 -7.59876,5.69907 -0.21107,5.276916 4.01046,6.121223 5.91015,6.121223 1.89969,0 6.12122,0.211077 6.12122,0.211077 l 0.21108,56.146389 -7.17661,0.211076 c 0,0 -5.06584,0.844307 -4.85476,4.64369 0.21108,3.79938 4.85476,5.27691 4.85476,5.27691 l 8.65415,0 c 0,0 11.10046,1.35243 13.93105,1.26646 4.39969,-0.13362 6.03893,-1.78519 6.12123,-5.48799 0.0846,-3.804299 -5.06584,-5.276916 -6.54338,-5.276916 -1.47754,0 -4.43261,-0.63323 -4.43261,-0.63323 z"
       id="path3655-7"
       sodipodi:nodetypes="ccsccssssssccsscsscccccsscsscccsccsssc" />
    <path
       style="fill:#ffffff;stroke:#ffffff;stroke-width:1px;stroke-linecap:butt;stroke-linejoin:miter;stroke-opacity:1"
       d="m 208.54373,66.597607 c -2.53292,4.643687 2.11077,6.3323 2.11077,6.3323 l 3.5883,-4.010457 -5.69907,-2.321843 z"
       id="path3890" />
  </g>
  <g
     inkscape:groupmode="layer"
     id="layer2"
     inkscape:label="Vectorized"
     style="display:inline"
     transform="translate(11.312723,11.451373)">
    <path
       style="fill:url(#linearGradient3610);fill-opacity:1;stroke:#ffa749;stroke-width:1px;stroke-linecap:butt;stroke-linejoin:miter;stroke-opacity:1"
       d="m 38.80597,18.955224 c 0,0 -1.641791,-8.656717 4.925373,-8.955224 6.567164,-0.2985075 4.925373,7.761194 4.925373,7.761194 l -0.746268,22.089552 c 0,0 0,6.268657 -5.671642,6.119403 -5.671642,-0.149253 -6.119403,-7.014925 -6.119403,-7.014925 0,0 -0.895522,-5.373134 -2.38806,-8.955224 -1.492537,-3.58209 -4.477612,-7.313433 -4.477612,-7.313433 0,0 -2.388059,-1.492537 -4.179104,-0.149254 -1.791045,1.343284 -3.134328,6.119403 -3.134328,6.119403 l -1.044777,9.552239 c 0,0 -0.298507,4.179105 1.343284,5.522388 1.641791,1.343284 6.119403,1.940299 6.119403,1.940299 -0.158117,0.07906 7.689273,0.632976 10.746269,1.492537 2.244383,0.631072 12.835821,1.791045 14.179104,16.567164 1.343284,14.77612 -11.641791,18.656717 -11.641791,18.656717 0,0 -7.024795,3.833546 -13.731343,3.134328 C 19.745774,84.671147 17.593669,81.175759 17.61194,81.19403 l -0.149253,8.358209 c 0,0 -1.791045,3.880597 -5.522388,4.029851 C 8.2089552,93.731343 7.6119403,90.149254 7.6119403,90.149254 L 7.1641791,60 c 0,0 -0.7462687,-4.328358 6.1194029,-4.179104 6.865672,0.149253 5.074627,5.074626 5.074627,5.074626 l 0.597015,5.223881 c 0,0 2.238806,9.850746 10,10.298507 7.761194,0.447762 13.432836,-5.074626 13.432836,-5.074626 0,0 2.537313,-7.761194 -1.044776,-11.492538 -3.58209,-3.731343 -11.791045,-4.179104 -11.791045,-4.179104 l -5.522388,-0.298508 c 0,0 -12.686567,-4.02985 -13.731344,-14.179104 -1.0397329,-10.100268 2.38806,-19.402985 2.38806,-19.402985 0,0 2.24858,-9.698201 14.477612,-8.80597 10.228444,0.746268 11.03045,6.268657 11.641791,5.970149 z"
       id="path3602"
       sodipodi:nodetypes="csccscscsccscsscsccsccsccscsccscsc" />
    <path
       style="fill:url(#linearGradient3630);fill-opacity:1;stroke:#ffa749;stroke-width:1px;stroke-linecap:butt;stroke-linejoin:miter;stroke-opacity:1"
       d="m 89.253731,65.522388 c 0,0 -0.149253,-5.373134 5.97015,-5.223881 6.119399,0.149254 5.522389,4.925374 5.522389,4.925374 l -0.895524,14.179104 c 0,0 -3.283582,18.656716 -21.940298,18.059702 -18.656717,-0.597015 -23.58209,-9.701493 -23.731344,-17.014926 -0.149253,-7.313433 0.149254,-24.776119 0.149254,-24.776119 0,0 0.480882,-5.316173 2.38806,-9.402985 0,0 2.089552,-4.477612 2.089552,-4.477612 1.058839,-2.268942 6.452986,-5.71567 6.567164,-5.373135 -0.02331,-0.09324 2.63549,-1.646029 13.134329,0 6.545486,1.026214 7.462687,4.77612 7.462687,4.77612 l 0.298507,-9.253731 c 0,0 0.895522,-3.880598 5.074627,-3.880598 4.179104,0 5.522388,1.19403 5.671641,4.179105 0.149254,2.985075 0,18.955224 0,18.955224 0,0 0,3.880597 -5.671641,3.880597 -5.671642,0 -6.567165,-4.179105 -6.567165,-4.179105 -3.126742,-4.04123 -6.183276,-6.396725 -13.283582,-5.373134 -6.352241,0.91575 -7.164178,10.895522 -7.164178,10.895522 0,0 -2.686568,15.522389 0.746268,24.77612 3.432836,9.253731 12.835821,7.014925 12.835821,7.014925 0,0 11.343283,-0.597015 11.492537,-9.701492 0.149254,-9.104478 0,-12.686567 -0.149254,-12.985075 z"
       id="path3614"
       sodipodi:nodetypes="csccsscsscsccsscscscscsc" />
    <path
       style="fill:url(#linearGradient3642);fill-opacity:1;stroke:#ffa749;stroke-width:1px;stroke-linecap:butt;stroke-linejoin:miter;stroke-opacity:1"
       d="m 131.09375,16.4375 c -9.31116,0.03079 -26.46875,1.625 -26.46875,1.625 0,0 -7.326492,1.185634 -7.625,5.8125 -0.298507,4.626866 6.125,5.21875 6.125,5.21875 l 4.9375,-0.28125 0.59375,17.3125 c 0,0 -4.01399,0.595149 -4.3125,4.625 -0.29851,4.02985 5.21875,5.53125 5.21875,5.53125 l 1.46875,22.8125 -5.8125,0.59375 c 0,0 -5.375,0.904384 -5.375,5.53125 0,4.626865 5.8125,4.625 5.8125,4.625 0,0 18.51819,-1.632463 20.90625,-3.125 2.38806,-1.492537 4.49627,-3.428172 3.75,-6.5625 -0.74627,-3.134329 -4.48752,-3.268781 -6.28125,-3.15625 -3.01923,0.189414 -3.06289,0.654728 -3.09375,-0.5625 -0.16927,-6.67573 -0.78125,-22.25 -0.78125,-22.25 0,0 3.43144,-2.558769 5.96875,-1.8125 2.53732,0.746268 6.99394,1.502332 9.53125,8.21875 0.74287,1.966418 1.93016,7.030798 2.28125,8.96875 1.54166,8.509805 1.6098,15.689827 5.5,19.09375 4.77612,4.179105 5.07089,3.71875 9.25,3.71875 4.1791,0 10.75747,-3.556903 12.25,-7.4375 1.49254,-3.880597 1.92257,-7.184702 -1.0625,-9.125 -2.98508,-1.940299 -6.25746,-0.575559 -7.75,1.8125 -1.49253,2.38806 -1.34375,5.375 -1.34375,5.375 0,0 -3.6823,5.883271 -6.4375,-7.1875 -0.7649,-3.62873 -0.0702,-6.862717 -0.25,-9.09375 -0.43857,-5.443081 -0.77806,-7.071073 -1.6875,-9.5625 -1.11046,-3.042136 -4.78927,-9.830661 -5.21875,-9.6875 0,0 10.45476,-3.597948 10.15625,-15.6875 -0.2985,-12.089552 -10.00187,-14.017724 -15.375,-15.0625 -1.00746,-0.195895 -2.72627,-0.288356 -4.875,-0.28125 z m -11.53125,9.53125 c 0,0 7.16138,0.138993 11.9375,0.4375 4.77612,0.298508 8.34749,2.709888 9.09375,7.1875 0.74627,4.477611 -4.3125,6.84375 -4.3125,6.84375 0,0.165779 -7.17864,1.868994 -8.82043,1.638993 -1.62592,-0.227778 -5.66884,1.954757 -5.66884,1.954757 l -1.63573,0.3125 -0.59375,-18.375 z"
       id="path3634"
       sodipodi:nodetypes="ccscccscccscsssscsssssssscssscssccsscsccc" />
    <path
       style="fill:url(#linearGradient3661);fill-opacity:1;stroke:#ffa749;stroke-width:1px;stroke-linecap:butt;stroke-linejoin:miter;stroke-opacity:1"
       d="m 187.0625,8.5625 c -2.16862,-0.023467 -4.99674,0.5172574 -8.71875,0.84375 -8.50746,0.746269 -16.10028,1.33209 -14.90625,7.75 1.19403,6.417911 16.875,0 16.875,0 l -8.96875,45.53125 -11.5,0 c 0,0 -4.91325,1.04291 -5.0625,4.625 -0.14925,3.582089 3.5625,4.625 3.5625,4.625 0,0 6.11687,0.640386 11.96875,1.5 2.69344,0.395652 5.1874,-0.0335 7.3125,0.28125 6.26397,0.927766 5.22295,-0.29291 7.3125,-3.875 2.08956,-3.582089 -2.25,-4.78125 -2.25,-4.78125 0,0 -1.33303,0.152053 -0.4375,-1.9375 0.89552,-2.089552 17.59375,-3.71875 17.59375,-3.71875 l 2.6875,10.75 c 0,0 -2.61536,1.387539 -4.03125,2.6875 -4.04556,3.714306 -1.34375,7.3125 -1.34375,7.3125 -0.7681,0.329184 3.4763,2.613304 7.625,0.75 2.26602,-1.017736 13.29338,-8.076959 18.21875,-9.71875 4.92538,-1.641791 4.45429,-4.778918 2.8125,-8.0625 -1.6418,-3.283582 -5.65625,-2.21875 -5.65625,-2.21875 0,0 -3.29571,1.194962 -4.9375,2.6875 -1.64179,1.492537 -2.96875,-0.90625 -2.96875,-0.90625 0,0 -17.16744,-43.568097 -19.40625,-49.6875 -1.25933,-3.4421639 -2.99302,-4.4073287 -5.78125,-4.4375 z m 1.28125,23.96875 7.9375,17.15625 c 0,0 -11.34375,2.111008 -11.34375,1.8125 0,-0.298507 3.40625,-18.96875 3.40625,-18.96875 z"
       id="path3653" />
    <path
       style="fill:url(#linearGradient3680);fill-opacity:1;stroke:#ffa749;stroke-width:1px;stroke-linecap:butt;stroke-linejoin:miter;stroke-opacity:1"
       d="m 239.40299,28.507463 0.2985,52.537313 -6.41791,0.298508 c 0,0 -5.67164,0.597014 -5.67164,4.925372 0,4.328359 4.62687,5.223881 4.62687,5.223881 l 26.1194,-0.447761 c 0,0 4.1791,-1.044776 3.8806,-5.373134 -0.29851,-4.328358 -2.53732,-5.074627 -4.62687,-5.074627 -2.08955,0 -6.56716,-0.298508 -6.56716,-0.298508 l -0.89552,-53.134328 c 0,0 16.80986,0.509502 16.71641,-0.895522 -0.0631,-0.949204 -0.84017,12.089552 -0.59701,12.089552 0,0 -0.59702,3.880597 5.37313,3.880597 5.97015,0 5.97015,-5.970149 5.97015,-5.970149 0,0 -0.14926,-10.149254 0.44776,-13.134329 0.62848,-3.142383 -0.89552,-5.820895 -0.89552,-5.820895 0,0 -2.23881,-3.283582 -7.91045,-1.641791 -5.67164,1.641791 -24.92537,2.388059 -24.92537,2.388059 0,0 -20.29851,-1.791044 -24.77612,-1.044776 -4.47761,0.746269 -6.86567,1.044776 -7.7612,4.029851 -0.89552,2.985075 3.43284,22.537314 3.43284,22.537314 0,0 0.29851,5.671641 4.32836,5.373134 4.02985,-0.298508 5.52239,-0.149254 5.52239,-5.970149 0,-5.820896 -1.64179,-14.925374 -1.64179,-14.925374 l 15.97015,0.447762 z"
       id="path3672"
       sodipodi:nodetypes="cccsccssccscscscscsscsscc" />
    <path
       style="fill:url(#linearGradient3634);fill-opacity:1;stroke:#ffa749;stroke-width:1px;stroke-linecap:butt;stroke-linejoin:miter;stroke-opacity:1;display:inline"
       d="m 310.05529,63.441641 c 0,0 -0.14925,-5.373134 5.97015,-5.223881 6.1194,0.149254 5.52239,4.925374 5.52239,4.925374 l -0.89552,14.179104 c 0,0 -3.28358,18.656716 -21.9403,18.059702 -18.65672,-0.597015 -23.58209,-9.701493 -23.73134,-17.014926 -0.14926,-7.313433 0.14925,-24.776119 0.14925,-24.776119 0,0 0.48088,-5.316173 2.38806,-9.402985 0,0 2.08955,-4.477612 2.08955,-4.477612 1.05884,-2.268942 6.45299,-5.71567 6.56717,-5.373135 -0.0233,-0.09324 2.63549,-1.646029 13.13433,0 6.54548,1.026214 7.46268,4.77612 7.46268,4.77612 l 0.29851,-9.253731 c 0,0 0.89552,-3.880598 5.07463,-3.880598 4.1791,0 5.52239,1.19403 5.67164,4.179105 0.14925,2.985075 0,18.955224 0,18.955224 0,0 0,3.880597 -5.67164,3.880597 -5.67164,0 -6.56717,-4.179105 -6.56717,-4.179105 -3.12674,-4.04123 -6.18327,-6.396725 -13.28358,-5.373134 -6.35224,0.91575 -7.16418,10.895522 -7.16418,10.895522 0,0 -2.68657,15.522389 0.74627,24.77612 3.43284,9.253731 12.83582,7.014925 12.83582,7.014925 0,0 11.34328,-0.597015 11.49254,-9.701492 0.14925,-9.104478 0,-12.686567 -0.14926,-12.985075 z"
       id="path3614-9"
       sodipodi:nodetypes="csccsscsscsccsscscscscsc" />
    <path
       style="fill:url(#linearGradient3664);fill-opacity:1;stroke:#ffa749;stroke-width:1px;stroke-linecap:butt;stroke-linejoin:miter;stroke-opacity:1"
       d="m 342.78848,83.272663 -0.42215,-21.107665 c 0,0 14.56429,-3.16615 18.36367,-3.16615 3.79938,0 3.5883,0 3.5883,0 l 1.47754,33.772264 c 0,0 -5.27692,0.844307 -8.23199,1.89969 -2.95508,1.055383 -6.3323,1.688613 -5.69907,6.332298 0.63323,4.64369 6.12122,4.85476 8.86522,3.79938 2.74399,-1.05538 11.39814,-4.01046 17.30828,-3.37723 5.91015,0.63323 8.65414,-2.532915 8.44307,-5.487988 -0.21108,-2.955073 -2.11077,-5.699069 -5.27692,-5.487993 -3.2217,0.21478 -5.06584,0.211076 -5.06584,0.211076 l -1.26646,-70.288524 c 0,0 11.18706,0.63323 11.18706,-5.487993 0,-6.1212231 -3.5883,-5.4879931 -6.75445,-5.4879931 -3.16615,0 -18.78582,0 -18.78582,0 0,0 -7.17661,0.8443061 -7.38768,5.0658391 -0.21108,4.221533 2.53292,5.910147 7.38768,6.543377 4.85476,0.63323 3.16615,0 3.16615,0 l 1.68861,27.017811 -22.37412,1.89969 -0.21108,-23.640585 5.91015,-0.211077 c 0,0 5.27691,-1.055383 5.48799,-5.276916 0.21108,-4.221533 -3.79938,-5.69907 -6.3323,-5.69907 -2.53292,0 -20.26336,0 -20.26336,0 0,0 -7.38768,0.422154 -7.59876,5.69907 -0.21107,5.276916 4.01046,6.121223 5.91015,6.121223 1.89969,0 6.12122,0.211077 6.12122,0.211077 l 0.21108,56.146389 -7.17661,0.211076 c 0,0 -5.06584,0.844307 -4.85476,4.643687 0.21108,3.799379 4.85476,5.276916 4.85476,5.276916 l 8.65415,0 c 0,0 11.10046,1.352425 13.93105,1.26646 4.39969,-0.133619 6.03893,-1.785195 6.12123,-5.487993 0.0846,-3.804299 -5.06584,-5.276916 -6.54338,-5.276916 -1.47754,0 -4.43261,-0.63323 -4.43261,-0.63323 z"
       id="path3655"
       sodipodi:nodetypes="ccsccssssssccsscsscccccsscsscccsccsssc" />
  </g>
</svg>
