<?xml version="1.0" encoding="UTF-8" standalone="no"?>
<svg
   xmlns:dc="http://purl.org/dc/elements/1.1/"
   xmlns:cc="http://creativecommons.org/ns#"
   xmlns:rdf="http://www.w3.org/1999/02/22-rdf-syntax-ns#"
   xmlns:svg="http://www.w3.org/2000/svg"
   xmlns="http://www.w3.org/2000/svg"
   version="1.1"
   id="svg4229"
   viewBox="0 0 299.99999 299.99999"
   height="84.666664mm"
   width="84.666664mm">
  <defs
     id="defs4231" />
  <metadata
     id="metadata4234">
    <rdf:RDF>
      <cc:Work
         rdf:about="">
        <dc:format>image/svg+xml</dc:format>
        <dc:type
           rdf:resource="http://purl.org/dc/dcmitype/StillImage" />
        <dc:title></dc:title>
      </cc:Work>
    </rdf:RDF>
  </metadata>
  <g
     transform="translate(990.00003,-70.933633)"
     id="layer1">
    <g
       transform="matrix(0.3,0,0,0.3,-1229.1429,-75.059297)"
       id="g4212">
      <path
         id="path4156"
         style="fill:#ec2c22;fill-opacity:1;fill-rule:nonzero;stroke:none"
         d="m 1797.1429,1446.6431 c 0,22 -18,40 -40,40 l -920,0 c -22,0 -40,-18 -40,-40 l 0,-920 c 0,-22 18,-40 40,-40 l 920,0 c 22,0 40,18 40,40 l 0,920 z" />
      <path
         id="path4160"
         style="fill:#ffffff;fill-opacity:1;fill-rule:nonzero;stroke:none"
         d="m 1500.8319,1177.4438 c 0,-38.9162 31.46,-71.2837 72.2125,-71.2837 41.6787,0 73.1487,32.3675 73.1487,71.2837 0,40.71 -27.7637,75.9013 -72.2212,75.9013 -41.68,0 -73.14,-34.2625 -73.14,-75.9013" />
      <path
         id="path4164"
         style="fill:#ffffff;fill-opacity:1;fill-rule:nonzero;stroke:none"
         d="m 1457.16,1065.8326 c -0.2925,-2.9812 -1.5625,-5.8862 -3.77,-8.1025 -2.7,-2.72 -6.4575,-4.2725 -10.42,-4.2725 l -104.2137,0 c -6.985,0 -12.91,4.7388 -14.0963,11.2075 -0.3637,2.0338 -1.3212,6.5287 -1.3812,6.81 -6.9763,33.0312 -36.2775,57.8213 -71.375,57.8213 -40.3025,0 -72.9763,-32.6488 -72.9763,-72.9563 l 0,-136.5425 c 0,-40.28625 32.6738,-72.95625 72.9763,-72.95625 31.5162,0 58.2837,20.0125 68.4812,48.00625 1.4213,4.69625 2.6325,9.59375 3.65,14.6125 0.2713,1.24875 0.5513,2.47875 0.7838,3.7675 0.7375,4.05125 3.4375,7.23625 6.975,9.21125 2.1137,1.16875 4.485,1.995 7.105,1.995 l 104.0712,0 c 2.6425,0 5.1613,-0.745 7.3788,-1.995 1.0862,-0.625 2.1362,-1.37 3.0225,-2.2575 2.5187,-2.54 3.8275,-5.84375 3.8275,-9.31125 0,-0.2825 -0.039,-1.18875 -0.039,-1.39125 -1.965,-122.4125 -92.0112,-185.635 -205.4075,-185.635 -0.2762,0 -0.5337,0.02 -0.8137,0.02 -114.27,0.3025 -204.3813,64.895 -204.3813,189.68625 l 0,148.01 c 0,125.095 90.8488,189.7075 205.4688,189.7075 39.7,0 76.4225,-7.8812 107.5775,-23.2162 20.205,-9.9388 38.1012,-22.9363 52.7925,-39.1988 25.8775,-28.5787 42.0825,-66.8925 44.5125,-114.6562 0.069,-0.9663 0.29,-7.6775 0.2512,-8.3638" />
    </g>
  </g>
</svg>
