<?xml version="1.0" encoding="UTF-8" standalone="no"?>
<svg
   xmlns:dc="http://purl.org/dc/elements/1.1/"
   xmlns:cc="http://creativecommons.org/ns#"
   xmlns:rdf="http://www.w3.org/1999/02/22-rdf-syntax-ns#"
   xmlns:svg="http://www.w3.org/2000/svg"
   xmlns="http://www.w3.org/2000/svg"
   version="1.1"
   id="svg5372"
   viewBox="0 0 299.99999 58.828354"
   height="16.602669mm"
   width="84.666664mm">
  <defs
     id="defs5374" />
  <metadata
     id="metadata5377">
    <rdf:RDF>
      <cc:Work
         rdf:about="">
        <dc:format>image/svg+xml</dc:format>
        <dc:type
           rdf:resource="http://purl.org/dc/dcmitype/StillImage" />
        <dc:title></dc:title>
      </cc:Work>
    </rdf:RDF>
  </metadata>
  <g
     transform="translate(69.999994,-880.09088)"
     id="layer1">
    <g
       style="fill:#ec2c22;fill-opacity:1"
       transform="matrix(0.18750005,0,0,0.18750005,133.16966,809.68712)"
       id="g5330">
      <path
         id="path5077"
         style="fill:#ec2c22;fill-opacity:1;fill-rule:nonzero;stroke:none"
         d="m -623.49328,542.34326 -31.36875,0 c -14.98375,0 -24.285,9.3675 -24.285,20.40875 0,11.27875 8.32875,17.91 22.9925,17.91 16.02875,0 26.67625,-7.5375 32.66125,-13.745 l 0,-24.57375 z m 0,68.69625 c -16.23875,8.335 -26.585,13.75125 -45.49375,13.75125 -36.2325,0 -59.74125,-25.41 -59.74125,-58.73875 0,-37.46 31.02625,-60.1 66.90875,-60.1 l 38.32625,0 0,-6.1925 c 0,-17.8175 -12.195,-27.085 -26.405,-27.085 -18.88125,0 -39.5725,6.885 -49.34875,10.61 -1.5125,0.575 -3.165,0.49125 -4.60875,-0.19875 -1.44125,-0.70625 -2.5325,-1.96875 -3.00875,-3.49375 l -9.25875,-29.62625 c -0.89125,-2.86375 0.54125,-5.92875 3.32125,-7.09625 10.505,-4.3475 36.07375,-13.94875 57.36,-13.94875 54.5875,0 81.1175,22.25375 81.1175,74.32375 l 0,113.8025 c 0,3.21 -2.59875,5.80875 -5.8075,5.80875 l -35.28125,0 c -2.51125,0 -4.735,-1.61125 -5.5275,-4.00875 l -2.5525,-7.8075 z" />
      <path
         id="path5081"
         style="fill:#ec2c22;fill-opacity:1;fill-rule:nonzero;stroke:none"
         d="m -500.50803,622.85589 c 3.20125,0 5.79875,-2.6 5.79875,-5.80875 l 0,-129.48125 c 10.86,-7.73875 22.2025,-12.96 34.26125,-12.96 13.175,0 19.94,9.98125 19.94,28.25 l 0,114.19125 c 0,3.20875 2.59875,5.80875 5.81375,5.80875 l 37.56125,0 c 3.20875,0 5.8125,-2.6 5.8125,-5.80875 l 0,-121.155 c 0,-40.59125 -21.49875,-66.97125 -58.4775,-66.97125 -15.73875,0 -30.0575,4.29 -44.91125,13.74125 l -2.25375,-7.6375 c -0.7325,-2.47625 -3.00625,-4.17 -5.57375,-4.17 l -35.53875,0 c -3.21,0 -5.795,2.5975 -5.795,5.805 l 0,180.3875 c 0,3.20875 2.585,5.80875 5.795,5.80875 l 37.5675,0 z" />
      <path
         id="path5085"
         style="fill:#ec2c22;fill-opacity:1;fill-rule:nonzero;stroke:none"
         d="m -16.58165,597.37252 c 0,-14.4475 11.69,-26.475 26.8225,-26.475 15.4825,0 27.17875,12.0275 27.17875,26.475 0,15.1225 -10.31625,28.1925 -26.8275,28.1925 -15.48375,0 -27.17375,-12.725 -27.17375,-28.1925" />
      <path
         id="path5089"
         style="fill:#ec2c22;fill-opacity:1;fill-rule:nonzero;stroke:none"
         d="m 162.72922,552.40064 c 0,14.97125 -12.13125,27.095 -27.1075,27.095 -14.965,0 -27.1,-12.12375 -27.1,-27.095 l 0,-50.70375 c 0,-14.96625 12.135,-27.09 27.1,-27.09 14.97625,0 27.1075,12.12375 27.1075,27.09 l 0,50.70375 z m -27.16,-123.48 c -42.5875,0 -76.21625,23.99625 -76.21625,70.45 l 0,54.97125 c 0,46.4525 33.74125,70.44875 76.32125,70.44875 42.595,0 76.23,-23.99625 76.23,-70.44875 l 0,-54.97125 c 0,-46.45375 -33.73875,-70.45 -76.335,-70.45" />
      <path
         id="path5093"
         style="fill:#ec2c22;fill-opacity:1;fill-rule:nonzero;stroke:none"
         d="m -132.69002,510.32114 0,-8.625 c 0,-14.96625 12.12375,-27.09 27.09875,-27.09 14.97125,0 27.10875,12.12375 27.10875,27.09 l 0,8.625 -54.2075,0 z m 27.04875,-81.40125 c -42.60375,0 -76.23125,23.99625 -76.23125,70.45 l 0,54.97125 c 0,46.4525 33.7525,70.44875 76.34125,70.44875 19.4675,0 44.51125,-3.0375 55.23125,-4.4775 2.96875,-0.4025 5.15125,-2.98625 5.025,-5.995 l -1.3075,-32.46875 c -0.08,-1.6075 -0.7975,-3.11625 -2.0275,-4.18375 -1.21,-1.01625 -2.8275,-1.54 -4.4175,-1.36 -10.2525,1.12625 -31.705,3.19 -52.56375,3.19 -14.975,0 -27.09875,-12.1225 -27.09875,-27.09125 l 0,-3.7575 97.57375,0 c 3.205,0 5.7975,-2.6075 5.7975,-5.82125 l 0,-43.455 c 0,-46.45375 -33.7275,-70.45 -76.3225,-70.45" />
      <path
         id="path5097"
         style="fill:#ec2c22;fill-opacity:1;fill-rule:nonzero;stroke:none"
         d="m -293.76003,571.37276 c -13.17875,0 -19.94625,-9.98125 -19.94625,-28.26375 l 0,-40.25375 c 0,-18.26875 6.7675,-28.24875 19.94625,-28.24875 12.06,0 23.41125,5.22 34.25875,12.95875 l 0,70.845 c -10.8475,7.7525 -22.19875,12.9625 -34.25875,12.9625 m 41.965,-140.5175 c -2.51375,0 -4.755,1.6125 -5.52875,3.99375 l -2.565,7.81375 c -14.84625,-9.45125 -28.77625,-13.7425 -44.52,-13.7425 -36.975,0 -58.46625,26.38 -58.46625,66.97125 l 0,54.1875 c 0,40.5975 21.49125,66.9675 58.46625,66.9675 15.74375,0 30.0625,-4.28625 44.9075,-13.73875 l 0,13.53875 c 0,14.9625 -12.12875,27.10125 -27.1025,27.10125 -20.845,0 -42.305,-2.05875 -52.55125,-3.2025 -1.59625,-0.1725 -3.2075,0.3175 -4.43,1.37125 -1.22,1.0525 -1.95,2.5575 -2.02,4.17875 l -1.30625,32.46875 c -0.12375,3.0025 2.0575,5.5825 5.03375,5.9875 10.70875,1.4325 35.7425,4.48625 55.2175,4.48625 42.5975,0 76.3375,-23.99625 76.3375,-70.45375 l 0,-4.45875 0,-44.10125 0,-133.56375 c 0,-3.20875 -2.60375,-5.805 -5.80375,-5.805 l -35.66875,0 z" />
      <path
         id="path5101"
         style="fill:#ec2c22;fill-opacity:1;fill-rule:nonzero;stroke:none"
         d="m 432.97335,571.37276 c -13.15625,0 -19.925,-9.98125 -19.925,-28.26375 l 0,-40.25375 c 0,-18.26875 6.76875,-28.24875 19.925,-28.24875 12.085,0 23.42875,5.22 34.28125,12.95875 l 0,70.845 c -10.8525,7.7525 -22.19625,12.9625 -34.28125,12.9625 m 41.97875,-140.5175 c -2.5125,0 -4.74875,1.6125 -5.52,3.99375 l -2.56625,7.81375 c -14.85625,-9.45125 -28.7775,-13.7425 -44.5275,-13.7425 -36.98125,0 -58.46,26.38 -58.46,66.97125 l 0,54.1875 c 0,40.5975 21.47875,66.9675 58.46,66.9675 15.75,0 30.05,-4.28625 44.91625,-13.73875 l 0,13.53875 c 0,14.9625 -12.13625,27.10125 -27.1075,27.10125 -20.84875,0 -42.305,-2.05875 -52.54625,-3.2025 -1.59875,-0.1725 -3.21125,0.3175 -4.4325,1.37125 -1.2225,1.0525 -1.9625,2.5575 -2.0275,4.17 l -1.31375,32.4775 c -0.11375,3.0025 2.0525,5.5825 5.045,5.9875 10.70125,1.4325 35.75375,4.48625 55.22125,4.48625 42.59125,0 76.335,-23.99625 76.335,-70.45375 l 0,-4.45875 0,-44.10125 0,-133.56375 c 0,-3.20875 -2.61,-5.805 -5.805,-5.805 l -35.67125,0 z" />
      <path
         id="path5105"
         style="fill:#ec2c22;fill-opacity:1;fill-rule:nonzero;stroke:none"
         d="m 346.80947,435.09464 c 0.0738,-1.61875 -0.535,-3.19875 -1.68125,-4.35625 -1.1375,-1.15 -2.71125,-1.75875 -4.3275,-1.71375 -20.10875,0.72125 -31.51125,5.26625 -50.88625,18.47875 l -2.81875,-12.1525 c -0.6175,-2.635 -2.9575,-4.49625 -5.6675,-4.49625 l -35.26625,0 c -3.21,0 -5.795,2.5975 -5.795,5.805 l 0,180.3875 c 0,3.20875 2.585,5.80875 5.795,5.80875 l 37.56625,0 c 3.1975,0 5.80375,-2.6 5.80375,-5.80875 l 0,-123.665 c 16.0325,-11.315 28.48375,-16.955 50.07375,-17.7275 3.0275,-0.10625 5.45875,-2.50875 5.5925,-5.525 l 1.61125,-35.035 z" />
      <path
         id="path5109"
         style="fill:#ec2c22;fill-opacity:1;fill-rule:nonzero;stroke:none"
         d="m -811.77877,428.92039 c -15.735,0 -30.0625,4.29125 -44.91625,13.7425 l 0,-61.35875 c 0,-3.2125 -2.5975,-5.8175 -5.8075,-5.8175 l -37.54625,0 c -3.20875,0 -5.80875,2.605 -5.80875,5.8175 l 0,49.55125 0,45.30125 0,140.89 c 0,3.21 2.6,5.80875 5.80875,5.80875 l 37.54625,0 c 3.21,0 5.8075,-2.59875 5.8075,-5.80875 l 0,-129.48125 c 10.8575,-7.73875 22.20125,-12.95875 34.26625,-12.95875 13.17125,0 19.94625,9.98 19.94625,28.24875 l 0,114.19125 c 0,3.21 2.6,5.80875 5.80875,5.80875 l 37.55375,0 c 3.2025,0 5.8075,-2.59875 5.8075,-5.80875 l 0,-121.155 c 0,-40.59125 -21.48,-66.97125 -58.46625,-66.97125" />
      <path
         id="path5149"
         style="fill:#ec2c22;fill-opacity:1;fill-rule:nonzero;stroke:none"
         d="m -931.0549,555.93264 c -0.10375,-1.11875 -0.57625,-2.1875 -1.39875,-3.0075 -1.0025,-1.02 -2.4,-1.59625 -3.86625,-1.59625 l -38.715,0 c -2.59125,0 -4.79375,1.7575 -5.235,4.16625 -0.1375,0.75375 -0.495,2.41625 -0.51625,2.525 -2.585,12.27125 -13.47,21.475 -26.51495,21.475 -14.9613,0 -27.1013,-12.12375 -27.1013,-27.095 l 0,-50.70375 c 0,-14.96625 12.14,-27.09 27.1013,-27.09 11.7112,0 21.65495,7.425 25.4437,17.82 0.5275,1.745 0.97625,3.555 1.3575,5.43125 0.095,0.46375 0.20125,0.9225 0.2875,1.395 0.27375,1.5025 1.2775,2.69 2.5925,3.4175 0.78875,0.43375 1.66625,0.745 2.63375,0.745 l 38.66625,0 c 0.97875,0 1.915,-0.27375 2.73875,-0.745 0.405,-0.235 0.79375,-0.50125 1.1225,-0.8375 0.93125,-0.93625 1.41875,-2.16375 1.41625,-3.45375 0,-0.10125 -0.007,-0.43875 -0.0125,-0.515 -0.72875,-45.46 -34.1725,-68.94375 -76.3,-68.94375 -0.1,0 -0.1962,0.0113 -0.2987,0.0113 -42.4463,0.11 -75.9176,24.09125 -75.9176,70.43875 l 0,54.97125 c 0,46.4525 33.74,70.44875 76.3201,70.44875 14.75245,0 28.38745,-2.92625 39.95995,-8.6225 7.50125,-3.68875 14.15125,-8.51875 19.61375,-14.55125 9.61125,-10.62 15.63375,-24.8475 16.5325,-42.5875 0.0288,-0.3625 0.1125,-2.85 0.09,-3.09625" />
    </g>
  </g>
</svg>
